<?xml version="1.0" encoding="utf-8"?>
<!-- Generator: Adobe Illustrator 21.1.0, SVG Export Plug-In . SVG Version: 6.00 Build 0)  -->
<svg version="1.1" id="OBJECTS" xmlns="http://www.w3.org/2000/svg" xmlns:xlink="http://www.w3.org/1999/xlink" x="0px" y="0px"
	 viewBox="0 0 183 238.3" style="enable-background:new 0 0 183 238.3;" xml:space="preserve">
<style type="text/css">
	.st0{fill:#FF7415;}
	.st1{clip-path:url(#SVGID_2_);fill:#DDBCA6;}
	.st2{clip-path:url(#SVGID_2_);fill:#F7CEB2;}
	.st3{clip-path:url(#SVGID_2_);fill:#222228;}
	.st4{clip-path:url(#SVGID_2_);}
	.st5{fill:#84653C;}
	.st6{opacity:0.4;clip-path:url(#SVGID_2_);fill:#B57662;enable-background:new    ;}
	.st7{fill:#D39484;}
	.st8{clip-path:url(#SVGID_2_);fill:#84653C;}
	.st9{clip-path:url(#SVGID_2_);fill:#DB6412;}
	.st10{clip-path:url(#SVGID_2_);fill:#FF7415;}
	.st11{clip-path:url(#SVGID_2_);fill:#FFFFFF;}
	.st12{clip-path:url(#SVGID_4_);fill:#DBB4D1;}
	.st13{clip-path:url(#SVGID_4_);fill:#FFB476;}
	.st14{clip-path:url(#SVGID_4_);fill:#D1652F;}
	.st15{clip-path:url(#SVGID_4_);fill:#3A1B0B;}
	.st16{clip-path:url(#SVGID_4_);fill:#C73700;}
	.st17{clip-path:url(#SVGID_4_);fill:#5C5C99;}
	.st18{clip-path:url(#SVGID_4_);fill:#4D4D84;}
	.st19{clip-path:url(#SVGID_4_);fill:#F4E4EC;}
	.st20{clip-path:url(#SVGID_4_);fill:#D64900;}
	.st21{clip-path:url(#SVGID_4_);}
	.st22{fill:#ED9558;}
	.st23{fill:#FFB476;}
	.st24{fill:#DBB4D1;}
	.st25{opacity:0.3;clip-path:url(#SVGID_4_);fill:#C73700;}
	.st26{fill:#D1652F;}
	.st27{opacity:0.2;clip-path:url(#SVGID_4_);fill:#4D4D84;}
	.st28{fill:#323249;}
	.st29{fill:#C73700;}
	.st30{opacity:0.3;fill:#C73700;}
	.st31{fill:#10A9EA;}
	.st32{fill:#0086BF;}
</style>
<path class="st0" d="M92,86c35.8,0,65,29.2,65,65s-29.2,65-65,65s-65-29.2-65-65S56.2,86,92,86 M92,71c-44.2,0-80,35.8-80,80
	s35.8,80,80,80s80-35.8,80-80S136.2,71,92,71L92,71z"/>
<g>
	<g>
		<defs>
			<path id="SVGID_1_" d="M92,71c-44.2,0-80,35.8-80,80s35.8,80,80,80s80-35.8,80-80c0-13.9-3.5-26.9-9.7-38.3
				c20.7-27-2-44.8-13.8-52.1c-10-6.2-40.4-8.2-48.3,10.8C97.5,71.1,94.8,71,92,71L92,71z"/>
		</defs>
		<clipPath id="SVGID_2_">
			<use xlink:href="#SVGID_1_"  style="overflow:visible;"/>
		</clipPath>
		<path class="st1" d="M139,124.7l0.4,16.2c0,0,0,5-6.4,4.6c-7.1-0.4-6.7-3.6-6.7-3.6l-0.5-10.6L139,124.7z"/>
		<path class="st2" d="M113.5,80.7c0,0,0.1,31.3,0.1,39.7s9,13.2,16.2,12.3c7.2-0.9,15.2-6.8,17.1-10.6c0.5-1,0.9-3.9,1.1-7.7
			c6.6,1.2,9.8-12.4,5.4-14.2c-2-0.9-4.1-0.2-5.2,1.4c0.2-8,0.7-14.7,0.7-14.7s0.4-8.7-12.3-11.5C115.7,70.5,113.5,80.7,113.5,80.7z
			"/>
		<ellipse class="st3" cx="134.4" cy="100.9" rx="1.9" ry="3.3"/>
		<ellipse class="st3" cx="119" cy="101.6" rx="1.9" ry="3.3"/>
		<g class="st4">
			<path class="st5" d="M131.8,91.5c0.9-0.6,2-0.9,3.1-0.9c1.1,0,2.3,0.3,3.2,1.1c1,0.7,1.4,1.7,1.5,2.8c-1.1-0.4-1.7-0.9-2.5-1.1
				c-0.7-0.2-1.5-0.2-2.2-0.2c-0.7,0-1.5,0.1-2.4,0.2c-0.9,0.2-1.8,0.2-2.8,0.3C130.1,92.6,130.9,91.9,131.8,91.5z"/>
		</g>
		<g class="st4">
			<path class="st5" d="M119.7,93.1c-0.7-0.1-1.3-0.2-1.9-0.1c-0.6,0-1.1,0.2-1.6,0.4c-0.2,0.1-0.6,0.3-0.9,0.5
				c-0.4,0.2-0.7,0.4-1.1,0.7c-0.2-0.9,0.1-1.9,0.7-2.6c0.6-0.7,1.6-1.3,2.7-1.4c1.1-0.1,2,0.2,2.8,0.7c0.7,0.5,1.4,1.1,1.7,2
				C121.1,93.3,120.4,93.2,119.7,93.1z"/>
		</g>
		<path class="st6" d="M149.6,112.2c1-1.5,0.7-3.7-1.1-3.4c0.1-3.9,2-7.5,4.3-6.3C155.2,103.6,153.3,112.9,149.6,112.2z"/>
		<g class="st4">
			<path class="st7" d="M124,100.6l-0.7,3.3l-0.6,3.3c-0.2,1.1-0.3,2.2-0.6,3.3l-0.1-0.2c0.7,0.4,1.3,0.7,2,1.1
				c0.7,0.3,1.3,0.7,2,1.1c-0.7-0.2-1.4-0.6-2.1-0.9c-0.7-0.3-1.4-0.7-2-1l-0.2-0.1v-0.2c0.2-2.2,0.6-4.5,1.1-6.7
				c0.2-1.1,0.5-2.3,0.8-3.3c0.3-1.1,0.7-2.1,1.1-3.2C124.4,98.4,124.2,99.6,124,100.6z"/>
		</g>
		<g class="st4">
			<path class="st7" d="M131,119.6c-1.3,0.5-2.6,0.8-3.9,1c-1.3,0.2-2.7,0.2-4,0.1c-1.4-0.2-2.7-0.5-3.9-1.1c0.7,0.2,1.3,0.3,2,0.4
				c0.7,0.1,1.3,0.2,2,0.2c1.3,0,2.6-0.1,3.9-0.2c1.3-0.2,2.5-0.5,3.8-0.8c1.2-0.3,2.5-0.7,3.7-1.2
				C133.5,118.5,132.2,119.1,131,119.6z"/>
		</g>
		<path class="st8" d="M158.6,87c1.6,2.9-1.5,6.9-5.5,5.9c0,0.1-0.1,0.2-0.1,0.2c0.8,0.7,2.3,2.4,1.8,4.3c-0.4,1.7-2.6,2.1-4,2.2
			l0,0c-1.7,0.2-2.6,1.8-2.6,1.8l-1.2,6.4l-1.7,0.2V93.5c0,0-4.4-1.8-5.9-7.5c-1.5,0.7-4.3,1.8-6-2c0,0-0.2,3.7-4.4,2.8
			c-4.1-0.9-3.6-4.2-3.6-4.2s-1.1,4.2-3.6,3.7c-2.4-0.6-2.5-2.3-1.7-4.5c0,0-10.6,7.4-11.9-0.3s5.6-8,5.6-8s-3.7-3-2-5.9
			c1.8-2.8,6.4-2.6,8.9,0.2c0,0-3.6-5.4,1.5-7.2c3.9-1.4,6.8,2.8,7.8,5.6c-0.2-2.3,0.3-5.6,4.3-5c4.8,0.7,5.1,6.1,5.1,8.3
			c0.2-2.1,1.1-6.8,6-5.4c3.6,1,3.8,4,3.3,6.3c0.7-1.1,2-2,4.1-1.1c2.8,1.1,2.4,4,1.6,6c0.9-1.2,2.3-2,4.1,0.4
			c3.5,4.4-5.3,9.7-5.3,9.7S156.6,83.7,158.6,87z"/>
		<path class="st9" d="M101.9,186.3c0,0-8.2,13.3-10.7,15c-2.4,1.6-6.7,1.7-9.3-0.3c-2.6-2.1-1.4-5.2-1.4-5.2c3-8,20.2-50.7,24-53.7
			c3.7-3,13.5-7.1,13.5-7.1L101.9,186.3z"/>
		<path class="st10" d="M100.7,222.4c-0.7,3.4,0.2,5.7,0.7,6.2c7.5-9.2,52.7-0.9,63,0.3c0.2-16.7-4.3-7.5-4.3-19.5
			c0-26.2,7.9-40.7,7.9-62.4c-1.1-6.7-19.2-11.8-25.1-12.8c-10.4,12.6-17.5,5.8-18.8-1.1c-0.9,0.1-3.1,0.7-4.2,1
			C90.6,144.7,110.1,181.6,100.7,222.4z"/>
		<path class="st9" d="M122,133.9c-0.8,16,16.5,15,24.8,1.1c-1.5-0.5-2.8-0.6-3.9-0.8c-10.5,11.3-17.9,5.4-18.8-1.1
			c-0.5,0.1-1.4,0.2-2.2,0.5C121.9,133.8,121.9,133.9,122,133.9z"/>
		<path class="st11" d="M133.7,156.9c1.6,2.8,3.3,5.7,2.8,9.7c0,0.2,0.2,0.5,0.4,0.5c0.2,0,0.5-0.2,0.5-0.4
			c0.6-4.3-1.2-7.3-2.9-10.2c-2.2-3.7-4.2-7.2-0.5-12.6c0.2-0.2,0.1-0.4-0.1-0.6s-0.4-0.1-0.6,0.1
			C129.2,149.2,131.3,152.9,133.7,156.9z"/>
		<path class="st11" d="M118.6,157.8c-0.2,0-0.5,0.2-0.5,0.4c0,0.2,0.2,0.5,0.4,0.5c10.6,0.7,10.2-15.3,10.2-15.4
			c0-0.2-0.2-0.4-0.4-0.4c-0.2,0-0.4,0.2-0.4,0.4C127.9,143.4,128.3,158.5,118.6,157.8z"/>
		<circle class="st11" cx="118.2" cy="158.3" r="1.1"/>
		<circle class="st11" cx="136.9" cy="166.9" r="1.1"/>
		<path class="st9" d="M172.3,190.4c3.5,0,13.7-4.6,13.3-6.8c-0.3-2.2-5.5-26.8-10.3-31.9c-4.8-5-9.8-8.4-9.8-8.4
			C144.7,148.1,166,190.4,172.3,190.4z"/>
	</g>
</g>
<g>
	<defs>
		<path id="SVGID_3_" d="M92,71c-5,0-9.9,0.5-14.7,1.3C55.3,55,35.6,63,25.2,72c-9.3,8-16,37.2-6.8,47.7c-4.1,9.6-6.3,20.2-6.3,31.3
			c0,44.2,35.8,80,80,80s80-35.8,80-80S136.2,71,92,71L92,71z"/>
	</defs>
	<clipPath id="SVGID_4_">
		<use xlink:href="#SVGID_3_"  style="overflow:visible;"/>
	</clipPath>
	<path class="st12" d="M18,156.3c7,3.6,11.3,37,12.7,57.8c1.2,19.2-1.4,44.5-1.4,44.5l-7.4,2c0,0-4.7-23.6-7.4-50.9
		C13.5,200.1,9.2,159.9,18,156.3z"/>
	<polygon class="st13" points="110.9,173.4 115.3,166.9 117.7,170.2 113.9,179.1 	"/>
	<path class="st14" d="M73.5,108.5c0,0,0.4,4.2,1.1,7c0.7,2.8,2.6,4.3,2.6,4.3c-0.7,2.5-4,3.1-4,3.1L73.5,108.5z"/>
	<path class="st14" d="M56.6,156.4c-1.6-6.9-1.3-15.3,0.2-24.6l-19.4-4.2c0,0-0.3,18-3.6,28.7C33.7,158.9,56.6,156.4,56.6,156.4z"/>
	<path class="st15" d="M73.8,111.5c0.9,0.6,1.7,0.5,2.6,0.3c-0.6,1.2-1.4,1.9-2.5,2L73.8,111.5z"/>
	<path class="st13" d="M66,78.7c0,0,7-0.8,8.9,13.7c0,0,0,9.2-0.6,16c-0.5,5.2,1.4,8.7,0.9,12.9c-0.4,3.8-4.1,8.3-8.3,18.4
		c0,0-2.7,1.1-14.8-4.2L66,78.7z"/>
	<path class="st14" d="M67,139.7c0,0-7.4-6.4-8-8.9c-0.6-2.5,0.8-14.3,0.8-14.3l-10.7,0.4l-5.5,19C43.6,135.8,65.3,140.9,67,139.7z"
		/>
	<path class="st16" d="M75.5,106.6c0.6-0.5,0.6-2.1-1.3-1.5c-0.8,0.2-1.4,0.8-1.7,1.6c0,0,0,0.1,0,0.1
		C72.6,107.5,75.2,106.8,75.5,106.6z"/>
	<path class="st16" d="M21.8,91.9c0,0,0,0.1,0,0.1c0.9-4.7,2.7-8.8,5.4-11.7c12.8-13.4,37.3-7.9,44.5-2.9c3.5,1.9,5.5,3.8,6.6,5.6
		c0-0.1,0-0.1,0-0.1c6.3,9.6-9.4,12.7-11.1,22.9c-0.5,2.8-0.3,8.2-1.4,8.2c-1,0-1.8-1.4-2.5-2.9l-3.9,8.2
		c-3.6-7.1-5.9,12.4-20.4,13.1C31.3,132.8,15.9,115.4,21.8,91.9z"/>
	<path class="st17" d="M63.5,210.9C63.5,219,74.4,233,77,248c-9.7,8.2-53.6,15.2-62.6,0c5.7-20.6,15-28.2,14.8-39.7
		c-0.2-10.6-23.1-31.3-12.4-53c23.9-11.5,49.1-2.8,53.2,0.6c5.1,18.4,11.7,25.3,11.1,30.7C80.3,194.8,63.5,202.8,63.5,210.9z"/>
	<path class="st18" d="M68.8,201.9c5-5.1,11.9-10.1,12.4-15.3c0.6-5.4-6-12.3-11.1-30.7c-4-3.4-29.3-12.1-53.2-0.6
		c-10.6,21.7,12.3,42.4,12.4,53c0.2,11.4-9.1,19-14.8,39.7c6.9,11.7,34.7,10.2,51.5,5.1C64,235.5,49.6,219.2,68.8,201.9z"/>
	<path class="st16" d="M77.4,89.8c0,0,2.2,1.3,1.8,5.3c-0.6,5.5-8.6,13-16.3,13.1C62.9,108.2,73.9,99.6,77.4,89.8z"/>
	<path class="st19" d="M59.2,151.6l-1.8-5.8c0,0-8.2-6.4-24-4l-3.4,9.1C30,150.9,37.1,148.9,59.2,151.6z"/>
	<path class="st20" d="M77.3,85.9C76.3,79.4,62.1,72.7,51.1,73c-16.8,0.5-22,12.6-9,19.7C61.7,103.6,78,91.2,77.3,85.9z"/>
	<path class="st19" d="M66.2,154.1c5.8-1,10.1,14,17.9,30.8c8,17,18,35.2,10.5,38.9C77.9,232.1,42.6,158.4,66.2,154.1z"/>
	<path class="st19" d="M111.9,169.9c0,0-12.5,13.2-21.2,29c0,0-5.8,31.8,3.9,25c9.7-6.8,21.7-46.5,21.7-46.5L111.9,169.9z"/>
	<g class="st21">
		<path class="st22" d="M126.2,166.7c0,0-1.3-1.1-2.1-1.2c-0.8-0.1-5.3,1-7.1,1.3C115.4,167.1,126.5,168.7,126.2,166.7z"/>
		<path class="st22" d="M126.2,168.1c4-0.7,8.9-2.8,8.4-3.7c-0.5-1-5.8,1.9-9.7,2L126.2,168.1z"/>
		<path class="st22" d="M124.3,167.1c3.4-0.9,7.4-3.1,6.9-3.9c-0.6-0.9-4.9,2.1-8.2,2.6L124.3,167.1z"/>
		<path class="st23" d="M115.3,166.7c1.1-1.6,3.7-1.8,6.4-1.3c1.4,1,6.4,0.9,6.3,2.6c0,1-7.4,1-10.1,2.2
			C117.8,170.2,114,168.7,115.3,166.7z"/>
		<path class="st23" d="M115.3,166.7c1.6-2.4,4.8-4.1,5.6-4.6c0.8-0.5,2.9-2.8,3.7-2.3c0.8,0.4-0.3,1.7-1.3,2.8
			c-1.7,1.8-2.1,4.4-2.1,4.4L115.3,166.7z"/>
		<path class="st23" d="M127.1,168.5c4.6-1.1,8.1-0.3,8.2-1.4c0.1-1.1-7.2-0.8-9.4-0.4L127.1,168.5z"/>
	</g>
	<path class="st20" d="M63.6,102.1c0.2-2-5.5-1.9-11.8-3.2c-8.6-1.7-12.3-4.2-12.9-3.5c-0.6,0.7,2.4,4.9,10.6,7.6
		C55.4,105,63.2,105.4,63.6,102.1z"/>
	<g class="st21">
		<path class="st24" d="M95,218.4c7.4-3.7,18.4-31.4,21.3-41.1c-2.9,9.6-14.4,42.8-21.7,46.5c-8,5.6-25.5-16.4-33.2-40.3
			C69.6,203.3,86.5,224.3,95,218.4z"/>
	</g>
	<path class="st25" d="M20.7,99.3c-1.5,19.6,11.5,33.5,18.5,33.1c14.1-0.7,16.7-19,20.1-13.6l0.6-2.3C45.1,122.6,24,116.2,20.7,99.3
		z"/>
	<g class="st21">
		<ellipse transform="matrix(0.9403 -0.3402 0.3402 0.9403 -35.2009 27.1188)" class="st22" cx="59.7" cy="113.9" rx="4.6" ry="6"/>
		<ellipse transform="matrix(0.9403 -0.3402 0.3402 0.9403 -35.1253 27.4484)" class="st23" cx="60.7" cy="113.9" rx="4.6" ry="6"/>
		<path class="st26" d="M59.5,110.5c1-0.4,2.1,0.1,2.9,1c-0.5-0.3-1.1-0.4-1.6-0.2c-1.2,0.4-1.8,2.1-1.2,3.7c0.4,1.2,1.4,2,2.4,2.1
			c0,0,0,0-0.1,0.1c-1.4,0.5-3.1-0.6-3.8-2.4C57.4,113,58.1,111.1,59.5,110.5z"/>
	</g>
	<path class="st27" d="M40.5,150.3c0,0,7.9,26.3-17.6,28.1L40.5,150.3z"/>
	<g class="st21">
		
			<ellipse transform="matrix(0.3479 -0.9375 0.9375 0.3479 -98.0319 112.3823)" class="st28" cx="31.8" cy="126.7" rx="4.4" ry="5.5"/>
		<path class="st29" d="M25.9,167.5c0.7,7.7-2.9,10.9-2.9,10.9s9-2.2,14.1-11.8c6.9-12.8,2.4-21.4-0.6-28.2
			c-3.2-7.3,1.7-10.8-2.5-14.2c-2.3-1.8-6.4-0.9-9.9,2C7.7,139.8,25.1,158.5,25.9,167.5z"/>
		<path class="st30" d="M37.1,166.7c6.9-12.8,2.4-21.4-0.6-28.2c-3.2-7.3,1.7-10.8-2.5-14.2c-2.3-1.8-6.4-0.9-9.9,2
			c-0.7,0.6-1.2,1.1-1.8,1.7c0.9-0.6,3.7-3.6,6.7-2.5c2.8,1-0.3,6.1,0.7,12.8c1.1,6.8,6.6,8.5,7.2,18.2c0.8,13-14.1,21.9-14.1,21.9
			S32,176.2,37.1,166.7z"/>
	</g>
</g>
<g>
	<path class="st31" d="M87.1,72.9c-1,0.5-1.8,1.5-2.2,2.6c-0.7,2.3,0.6,4.8,3,5.5c1.1,0.3,2.3,0.2,3.4-0.4c0.4-0.2,0.8-0.5,1.1-0.8
		c1.7-1.7,1.6-4.5-0.1-6.2C90.9,72.2,88.8,72,87.1,72.9z M83.7,35.4c-3.5-0.9-7.3-0.3-11.2,1.8c-3.9,2.1-6.5,4.9-7.7,8.4
		c-1.1,3-0.9,6.4,0.4,9.3c0.2,0.5,0.7,0.9,1.2,1.1c0.5,0.2,1.1,0.1,1.7-0.1l2.3-1.3c0.9-0.5,1.3-1.6,0.9-2.6
		c-0.7-1.5-0.8-3.2-0.2-4.8c0.6-1.8,2.1-3.4,4.3-4.6c2.2-1.2,4.3-1.5,6.2-1c1.9,0.5,3.4,1.9,4.6,4.1c1.6,3,1.8,5.5,0.7,7.4
		c-1.2,2-3.8,4-7.6,6l-1,0.5c-1,0.5-1.4,1.8-0.8,2.8l4.7,8.7c0.3,0.5,0.7,0.8,1.2,1c0.5,0.2,1.1,0.1,1.6-0.2l2.4-1.3
		c0.2-0.1,0.4-0.2,0.5-0.4c0.6-0.6,0.8-1.6,0.3-2.4l-3-5.6c0-0.1,0-0.2,0.1-0.2c4.3-2.5,7.2-5.3,8.5-8.3c1.4-3.2,1-6.9-1.2-10.9
		C90.2,38.8,87.3,36.3,83.7,35.4L83.7,35.4z"/>
	<path class="st32" d="M90.7,72.6c-1.1-0.3-2.4-0.2-3.4,0.4c-0.3,0.2-0.7,0.4-0.9,0.7c0.8-0.2,1.7-0.2,2.5,0c2.3,0.7,3.7,3.1,3,5.5
		c0,0,0,0,0,0c-0.2,0.7-0.6,1.3-1,1.8c-0.1,0.1-0.1,0.1-0.2,0.2c0.8-0.2,1.5-0.6,2-1.2c0.5-0.5,0.8-1.1,1.1-1.8
		C94.3,75.8,93,73.3,90.7,72.6C90.7,72.6,90.7,72.6,90.7,72.6z M83.9,35.4c-3.6-0.9-7.4-0.3-11.3,1.8c-2.2,1.2-4.2,2.8-5.8,4.8
		c1-0.8,2.1-1.5,3.2-2.1c3.9-2.1,7.7-2.7,11.3-1.8c3.6,0.9,6.5,3.4,8.7,7.5c2.2,4.1,2.6,7.8,1.2,11c-0.4,1-1,1.9-1.6,2.7
		c1.8-1.4,3.2-3.3,4.2-5.3c1.4-3.2,1-6.9-1.2-11C90.5,38.8,87.5,36.3,83.9,35.4L83.9,35.4z"/>
</g>
<g>
	<path class="st31" d="M105.3,36.6c-1-0.1-2,0.2-2.7,0.8c-1.6,1.3-1.8,3.6-0.5,5.2c0.6,0.8,1.5,1.2,2.5,1.3c0.4,0,0.8,0,1.2-0.1
		c2-0.4,3.3-2.4,2.8-4.4C108.2,37.9,106.9,36.8,105.3,36.6z M120.4,8.8c-2.1-2.3-5-3.6-8.7-4c-3.7-0.4-6.8,0.4-9.3,2.3
		c-2.2,1.6-3.6,4-4,6.7c-0.1,0.5,0,1,0.3,1.4c0.3,0.4,0.7,0.6,1.2,0.7l2.2,0.2c0.9,0.1,1.7-0.5,1.9-1.4c0.2-1.4,1-2.6,2.1-3.5
		c1.3-1,3-1.4,5.2-1.2c2.1,0.2,3.7,0.9,4.8,2.2c1.1,1.2,1.5,2.9,1.3,5c-0.3,2.8-1.3,4.7-3,5.5c-1.8,0.8-4.5,1.1-8.1,0.7l-1-0.1
		c-1-0.1-1.8,0.6-1.9,1.6l-0.8,8.3c0,0.5,0.1,0.9,0.4,1.3c0.3,0.4,0.7,0.6,1.2,0.6l2.2,0.2c0.2,0,0.4,0,0.5,0
		c0.7-0.2,1.3-0.8,1.4-1.5l0.5-5.4c0-0.1,0.1-0.1,0.1-0.1c4.2,0.3,7.5-0.3,9.8-1.8c2.5-1.6,3.9-4.4,4.3-8.2
		C123.3,14.2,122.5,11.1,120.4,8.8L120.4,8.8z"/>
	<path class="st32" d="M107.9,38.1c-0.6-0.8-1.5-1.2-2.5-1.3c-0.3,0-0.6,0-1,0c0.7,0.2,1.3,0.6,1.7,1.2c1.3,1.6,1.1,3.9-0.5,5.2
		c0,0,0,0,0,0c-0.5,0.4-1,0.6-1.6,0.8c-0.1,0-0.1,0-0.2,0c0.6,0.2,1.3,0.2,2,0.1c0.6-0.1,1.1-0.4,1.6-0.8
		C109,42,109.2,39.7,107.9,38.1C107.9,38.1,107.9,38.1,107.9,38.1z M120.6,8.9c-2.1-2.3-5-3.6-8.8-4c-2.1-0.2-4.2,0-6.3,0.6
		c1.1-0.1,2.2-0.1,3.2,0c3.7,0.4,6.7,1.7,8.8,4c2.1,2.3,3,5.4,2.6,9.3c-0.4,3.9-1.8,6.6-4.3,8.2c-0.8,0.5-1.6,0.9-2.4,1.1
		c1.9-0.2,3.8-0.8,5.4-1.8c2.5-1.6,3.9-4.4,4.3-8.2C123.6,14.3,122.7,11.2,120.6,8.9L120.6,8.9z"/>
</g>
</svg>
