<?xml version="1.0" encoding="utf-8"?>
<!-- Generator: Adobe Illustrator 21.1.0, SVG Export Plug-In . SVG Version: 6.00 Build 0)  -->
<svg version="1.1" id="OBJECTS" xmlns="http://www.w3.org/2000/svg" xmlns:xlink="http://www.w3.org/1999/xlink" x="0px" y="0px"
	 viewBox="0 0 221 198" style="enable-background:new 0 0 221 198;" xml:space="preserve">
<style type="text/css">
	.st0{fill:#FF7415;}
	.st1{fill:#F5EFEA;}
	.st2{fill:#BAEBF8;}
	.st3{fill:#E2B291;}
	.st4{fill:#46AD1A;}
	.st5{fill:#DDBCA6;}
	.st6{fill:#F7CEB2;}
	.st7{fill:#222228;}
	.st8{fill:#84653C;}
	.st9{opacity:0.4;fill:#B57662;enable-background:new    ;}
	.st10{fill:#D39484;}
	.st11{clip-path:url(#SVGID_2_);fill:#DB6412;}
	.st12{clip-path:url(#SVGID_4_);fill:#FF7415;}
	.st13{clip-path:url(#SVGID_6_);fill:#DB6412;}
	.st14{clip-path:url(#SVGID_8_);fill:#FFFFFF;}
	.st15{clip-path:url(#SVGID_10_);fill:#FFFFFF;}
	.st16{clip-path:url(#SVGID_12_);fill:#FFFFFF;}
	.st17{clip-path:url(#SVGID_14_);fill:#FFFFFF;}
	.st18{clip-path:url(#SVGID_16_);fill:#DB6412;}
	.st19{fill:#5D9DC1;}
	.st20{fill:#6DB3D1;}
	.st21{fill:#3D4359;}
	.st22{opacity:0.2;fill:url(#SVGID_17_);enable-background:new    ;}
	.st23{fill:#525D7C;}
	.st24{fill:#323749;}
</style>
<path class="st0" d="M97,42c35.8,0,65,29.2,65,65s-29.2,65-65,65s-65-29.2-65-65S61.2,42,97,42 M97,27c-44.2,0-80,35.8-80,80
	s35.8,80,80,80s80-35.8,80-80S141.2,27,97,27L97,27z"/>
<g>
	<rect x="51.2" y="20.7" class="st1" width="89.4" height="122.9"/>
	<rect x="58.9" y="43" class="st2" width="31.2" height="33.3"/>
	<rect x="67.3" y="83.1" class="st0" width="57.1" height="5.7"/>
	<rect x="59" y="93.5" class="st3" width="65.3" height="4"/>
	<rect x="59" y="102.9" class="st3" width="65.3" height="4"/>
	<rect x="59" y="112.3" class="st3" width="65.3" height="4"/>
	<rect x="59" y="121.7" class="st3" width="65.3" height="4"/>
	<rect x="59" y="131.1" class="st3" width="65.3" height="4"/>
	<g>
		<path class="st3" d="M133,97.8h-5.3v-4.6h5.3V97.8z M128.4,97.2h4v-3.4h-4V97.2z"/>
		<path class="st3" d="M133,107.2h-5.3v-4.6h5.3V107.2z M128.4,106.6h4v-3.4h-4V106.6z"/>
		<path class="st3" d="M133,116.6h-5.3V112h5.3V116.6z M128.4,115.9h4v-3.4h-4V115.9z"/>
		<path class="st3" d="M133,126h-5.3v-4.6h5.3V126z M128.4,125.3h4V122h-4V125.3z"/>
		<path class="st3" d="M133,135.3h-5.3v-4.6h5.3V135.3z M128.4,134.7h4v-3.4h-4V134.7z"/>
	</g>
	<rect x="59" y="27.3" class="st0" width="73.7" height="7.4"/>
	<rect x="99.8" y="52.8" class="st3" width="25.2" height="4"/>
	<rect x="126.7" y="52.8" class="st3" width="4.3" height="4"/>
	<rect x="99.8" y="62.5" class="st3" width="31.2" height="4"/>
	<rect x="99.8" y="72.3" class="st3" width="15.6" height="4"/>
	<rect x="117.2" y="72.3" class="st3" width="5.6" height="4"/>
	<rect x="99.8" y="43" class="st3" width="11.3" height="4"/>
	<rect x="112.9" y="43" class="st3" width="18.1" height="4"/>
	<path class="st4" d="M127.3,101.4c0,0,2.3,2.5,3.1,4.4c0,0,1.8-3.9,4.2-6.7c0,0-2.1,0.9-4.2,4.1
		C130.4,103.3,128.5,101.7,127.3,101.4z"/>
	<path class="st4" d="M127.3,111c0,0,2.3,2.5,3.1,4.4c0,0,1.8-3.9,4.2-6.7c0,0-2.1,0.9-4.2,4.1C130.4,112.8,128.5,111.2,127.3,111z"
		/>
	<path class="st4" d="M127.3,120c0,0,2.3,2.5,3.1,4.4c0,0,1.8-3.9,4.2-6.7c0,0-2.1,0.9-4.2,4.1C130.4,121.9,128.5,120.3,127.3,120z"
		/>
	<path class="st4" d="M127.3,92.1c0,0,2.3,2.5,3.1,4.4c0,0,1.8-3.9,4.2-6.7c0,0-2.1,0.9-4.2,4.1C130.4,93.9,128.5,92.3,127.3,92.1z"
		/>
</g>
<g>
	<path class="st5" d="M76.8,64.7l0.1,5.3c0,0,0,1.6-2.1,1.5c-2.3-0.1-2.2-1.2-2.2-1.2l-0.2-3.5L76.8,64.7z"/>
	<path class="st6" d="M68.4,50.3c0,0,0,10.2,0,13s2.9,4.3,5.3,4c2.3-0.3,5-2.2,5.6-3.5c0.2-0.3,0.3-1.3,0.4-2.5
		c2.2,0.4,3.2-4,1.8-4.6c-0.7-0.3-1.3-0.1-1.7,0.5c0.1-2.6,0.2-4.8,0.2-4.8s0.1-2.8-4-3.8C69.1,47,68.4,50.3,68.4,50.3z"/>
	<ellipse class="st7" cx="75.3" cy="56.9" rx="0.6" ry="1.1"/>
	<ellipse class="st7" cx="70.2" cy="57.2" rx="0.6" ry="1.1"/>
	<g>
		<path class="st8" d="M74.4,53.8c0.3-0.2,0.6-0.3,1-0.3c0.3,0,0.7,0.1,1,0.3c0.3,0.2,0.5,0.6,0.5,0.9c-0.3-0.1-0.6-0.3-0.8-0.3
			c-0.2-0.1-0.5-0.1-0.7-0.1s-0.5,0-0.8,0.1s-0.6,0.1-0.9,0.1C73.9,54.2,74.1,54,74.4,53.8z"/>
	</g>
	<g>
		<path class="st8" d="M70.5,54.4c-0.2,0-0.4-0.1-0.6,0c-0.2,0-0.3,0.1-0.5,0.1c-0.1,0-0.2,0.1-0.3,0.2s-0.2,0.1-0.4,0.2
			c-0.1-0.3,0-0.6,0.2-0.9c0.2-0.2,0.5-0.4,0.9-0.5s0.7,0.1,0.9,0.2c0.2,0.2,0.5,0.4,0.6,0.7C70.9,54.5,70.7,54.4,70.5,54.4z"/>
	</g>
	<path class="st9" d="M80.2,60.6c0.3-0.5,0.2-1.2-0.4-1.1c0-1.3,0.7-2.4,1.4-2.1C82.1,57.8,81.4,60.9,80.2,60.6z"/>
	<g>
		<path class="st10" d="M71.9,56.8l-0.2,1.1L71.5,59c-0.1,0.4-0.1,0.7-0.2,1.1V60c0.2,0.1,0.4,0.2,0.6,0.4c0.2,0.1,0.4,0.2,0.6,0.4
			c-0.2-0.1-0.5-0.2-0.7-0.3c-0.2-0.1-0.5-0.2-0.7-0.3H71v-0.1c0.1-0.7,0.2-1.5,0.3-2.2c0.1-0.4,0.2-0.7,0.3-1.1
			c0.1-0.3,0.2-0.7,0.4-1C72,56.1,71.9,56.5,71.9,56.8z"/>
	</g>
	<g>
		<path class="st10" d="M74.2,63c-0.4,0.2-0.9,0.3-1.3,0.3c-0.4,0.1-0.9,0.1-1.3,0c-0.5-0.1-0.9-0.2-1.3-0.3
			c0.2,0.1,0.4,0.1,0.6,0.1c0.2,0,0.4,0.1,0.6,0.1c0.4,0,0.9,0,1.3-0.1c0.4-0.1,0.8-0.2,1.2-0.3c0.4-0.1,0.8-0.2,1.2-0.4
			C75,62.7,74.6,62.9,74.2,63z"/>
	</g>
	<path class="st8" d="M83.2,52.4c0.5,1-0.5,2.3-1.8,1.9v0.1c0.3,0.2,0.7,0.8,0.6,1.4c-0.1,0.6-0.9,0.7-1.3,0.7l0,0
		c-0.6,0.1-0.9,0.6-0.9,0.6l-0.4,2.1l-0.6,0.1v-4.8c0,0-1.4-0.6-1.9-2.4c-0.5,0.2-1.4,0.6-2-0.6c0,0-0.1,1.2-1.4,0.9
		S72.3,51,72.3,51s-0.4,1.4-1.2,1.2c-0.8-0.2-0.8-0.7-0.6-1.5c0,0-3.5,2.4-3.9-0.1s1.8-2.6,1.8-2.6s-1.2-1-0.6-1.9
		c0.6-0.9,2.1-0.9,2.9,0.1c0,0-1.2-1.8,0.5-2.3c1.3-0.5,2.2,0.9,2.6,1.8c-0.1-0.7,0.1-1.8,1.4-1.6c1.6,0.2,1.7,2,1.7,2.7
		c0.1-0.7,0.4-2.2,2-1.8c1.2,0.3,1.2,1.3,1.1,2.1c0.2-0.4,0.7-0.6,1.4-0.3c0.9,0.4,0.8,1.3,0.5,2c0.3-0.4,0.7-0.6,1.4,0.1
		c1.1,1.4-1.7,3.2-1.7,3.2S82.5,51.3,83.2,52.4z"/>
</g>
<g>
	<g>
		<g>
			<defs>
				<rect id="SVGID_1_" x="58.9" y="43" width="31.2" height="33.3"/>
			</defs>
			<clipPath id="SVGID_2_">
				<use xlink:href="#SVGID_1_"  style="overflow:visible;"/>
			</clipPath>
			<path class="st11" d="M69.5,68.3c0,0-3.3,1.4-4.5,2.4s-7,15.3-8,18c0,0-0.4,1,0.5,1.7s2.3,0.7,3.1,0.1c0.8-0.6,3.6-5,3.6-5
				L69.5,68.3z"/>
		</g>
		<g>
			<defs>
				<rect id="SVGID_3_" x="58.9" y="43" width="31.2" height="33.3"/>
			</defs>
			<clipPath id="SVGID_4_">
				<use xlink:href="#SVGID_3_"  style="overflow:visible;"/>
			</clipPath>
			<path class="st12" d="M70.2,68c0.4-0.1,1.1-0.3,1.4-0.3c0.4,2.3,2.8,4.6,6.3,0.4c2,0.3,8.1,2.1,8.4,4.3c0,7.3-2.6,12.1-2.6,20.9
				c0,4,1.5,1,1.4,6.5c-3.4-0.4-18.6-3.2-21.1-0.1c-0.2-0.2-0.5-0.9-0.2-2.1C66.9,83.9,60.4,71.5,70.2,68z"/>
		</g>
		<g>
			<defs>
				<rect id="SVGID_5_" x="58.9" y="43" width="31.2" height="33.3"/>
			</defs>
			<clipPath id="SVGID_6_">
				<use xlink:href="#SVGID_5_"  style="overflow:visible;"/>
			</clipPath>
			<path class="st13" d="M70.9,67.8c0.3-0.1,0.6-0.1,0.7-0.2c0.3,2.2,2.8,4.1,6.3,0.4c0.4,0.1,0.8,0.1,1.3,0.3
				C76.4,72.9,70.6,73.3,70.9,67.8C70.9,67.9,70.9,67.9,70.9,67.8z"/>
		</g>
		<g>
			<defs>
				<rect id="SVGID_7_" x="58.9" y="43" width="31.2" height="33.3"/>
			</defs>
			<clipPath id="SVGID_8_">
				<use xlink:href="#SVGID_7_"  style="overflow:visible;"/>
			</clipPath>
			<path class="st14" d="M74.7,71.1c0-0.1,0.1-0.1,0.2,0c0.1,0,0.1,0.1,0,0.2c-1.3,1.8-0.6,3,0.2,4.2c0.6,1,1.2,2,1,3.4
				c0,0.1-0.1,0.1-0.2,0.1c-0.1,0-0.1-0.1-0.1-0.2c0.2-1.3-0.4-2.3-0.9-3.2C74,74.3,73.3,73,74.7,71.1z"/>
		</g>
		<g>
			<defs>
				<rect id="SVGID_9_" x="58.9" y="43" width="31.2" height="33.3"/>
			</defs>
			<clipPath id="SVGID_10_">
				<use xlink:href="#SVGID_9_"  style="overflow:visible;"/>
			</clipPath>
			<path class="st15" d="M72.9,71.1C72.9,71,73,71,73,71c0.1,0,0.1,0.1,0.1,0.1s0.1,5.4-3.4,5.2c-0.1,0-0.1-0.1-0.1-0.2
				s0.1-0.1,0.2-0.1C73,76.1,72.9,71.1,72.9,71.1z"/>
		</g>
		<g>
			<defs>
				<rect id="SVGID_11_" x="58.9" y="43" width="31.2" height="33.3"/>
			</defs>
			<clipPath id="SVGID_12_">
				<use xlink:href="#SVGID_11_"  style="overflow:visible;"/>
			</clipPath>
			<circle class="st16" cx="69.6" cy="76.1" r="0.4"/>
		</g>
		<g>
			<defs>
				<rect id="SVGID_13_" x="58.9" y="43" width="31.2" height="33.3"/>
			</defs>
			<clipPath id="SVGID_14_">
				<use xlink:href="#SVGID_13_"  style="overflow:visible;"/>
			</clipPath>
			<circle class="st17" cx="75.9" cy="79" r="0.4"/>
		</g>
		<g>
			<defs>
				<rect id="SVGID_15_" x="58.9" y="43" width="31.2" height="33.3"/>
			</defs>
			<clipPath id="SVGID_16_">
				<use xlink:href="#SVGID_15_"  style="overflow:visible;"/>
			</clipPath>
			<path class="st18" d="M85.5,71.1c0,0,1.7,1.1,3.3,2.8c1.6,1.7,3.4,9.9,3.5,10.7c0.1,0.7-3.3,2.3-4.5,2.3
				C85.6,86.9,78.5,72.7,85.5,71.1z"/>
		</g>
	</g>
</g>
<g>
	
		<rect x="144.6" y="126.7" transform="matrix(0.6086 -0.7935 0.7935 0.6086 -44.825 168.8038)" class="st19" width="8.1" height="6.3"/>
	
		<rect x="136.3" y="123.5" transform="matrix(0.6085 -0.7936 0.7936 0.6085 -43.9575 164.2188)" class="st20" width="16.2" height="6.3"/>
	<path class="st21" d="M117.2,139.1c-7.1,0-14.2-2.2-20.2-6.9c-14.6-11.2-17.3-32.1-6.2-46.7c5.4-7.1,13.3-11.6,22.1-12.8
		c8.8-1.2,17.6,1.2,24.6,6.6l0,0c7.1,5.4,11.6,13.3,12.8,22.1s-1.2,17.6-6.6,24.6C137.2,134.6,127.3,139.1,117.2,139.1z M117.3,75.2
		c-1.3,0-2.7,0.1-4.1,0.3c-8.1,1.1-15.3,5.2-20.3,11.7c-10.3,13.4-7.7,32.6,5.7,42.9c13.4,10.3,32.6,7.7,42.9-5.7
		c5-6.5,7.1-14.5,6.1-22.6c-1.1-8.1-5.2-15.3-11.7-20.3l0,0C130.5,77.4,124,75.2,117.3,75.2z"/>
	<g>
		
			<radialGradient id="SVGID_17_" cx="117.3" cy="306.2" r="31.9397" gradientTransform="matrix(1 0 0 -1 0 412)" gradientUnits="userSpaceOnUse">
			<stop  offset="0" style="stop-color:#FFFFFF"/>
			<stop  offset="0.4052" style="stop-color:#FDFFFF"/>
			<stop  offset="0.5512" style="stop-color:#F6FDFF"/>
			<stop  offset="0.6552" style="stop-color:#EBFBFF"/>
			<stop  offset="0.7394" style="stop-color:#DAF8FF"/>
			<stop  offset="0.8115" style="stop-color:#C4F4FF"/>
			<stop  offset="0.8753" style="stop-color:#A8F0FF"/>
			<stop  offset="0.933" style="stop-color:#88EAFF"/>
			<stop  offset="0.9844" style="stop-color:#64E3FF"/>
			<stop  offset="1" style="stop-color:#57E1FF"/>
		</radialGradient>
		<circle class="st22" cx="117.3" cy="105.8" r="31.9"/>
		<g>
			<path class="st21" d="M198.5,166.3l-1.8,2.3c-2.2,2.8-6.7,3-10,0.3l-40.4-32.2l8.3-10.8l41.6,30.7
				C199.6,159,200.7,163.4,198.5,166.3z"/>
			<path class="st23" d="M151.2,136.3c2.2-3.3,44.4,26.4,40.9,31.3c-1.5,2.2-13.7-7.7-23-14.8C159.8,145.8,150,138,151.2,136.3z"/>
			<path class="st24" d="M195.6,161.1c1.3,2.5,0.9,5.9,0,8.5c0.4-0.3,0.8-0.6,1.1-1.1l1.8-2.3c2.2-2.8,1.1-7.2-2.3-9.7l-41.6-30.7
				l-8.3,10.8l8.7-6.2C155.1,130.5,193.6,157.2,195.6,161.1z"/>
		</g>
	</g>
	<path class="st21" d="M117.2,136.5c-6.7,0-13.2-2.2-18.6-6.3c-13.4-10.3-16-29.6-5.7-43s29.6-16,43-5.7c6.5,5,10.7,12.2,11.7,20.3
		c1.1,8.1-1.1,16.2-6.1,22.7s-12.2,10.7-20.3,11.7C119.9,136.4,118.6,136.5,117.2,136.5z M117.3,75.9c-9,0-17.9,4-23.8,11.7
		c-10,13.1-7.6,31.9,5.5,42c13.1,10,31.9,7.6,42-5.5c4.9-6.3,7-14.2,5.9-22.1c-1-7.9-5.1-15-11.5-19.8
		C130.1,77.9,123.7,75.9,117.3,75.9z"/>
</g>
</svg>
