<?xml version="1.0" encoding="utf-8"?>
<!-- Generator: Adobe Illustrator 21.1.0, SVG Export Plug-In . SVG Version: 6.00 Build 0)  -->
<svg version="1.1" id="OBJECTS" xmlns="http://www.w3.org/2000/svg" xmlns:xlink="http://www.w3.org/1999/xlink" x="0px" y="0px"
	 viewBox="0 0 203.3 245.3" style="enable-background:new 0 0 203.3 245.3;" xml:space="preserve">
<style type="text/css">
	.st0{fill:#10A9EA;}
	.st1{fill:#DDBCA6;}
	.st2{fill:#F7CEB2;}
	.st3{fill:#84653C;}
	.st4{opacity:0.4;fill:#B57662;}
	.st5{fill:#D39484;}
	.st6{fill:#FFFFFF;}
	.st7{fill:#222228;}
	.st8{clip-path:url(#SVGID_2_);}
	.st9{fill:#050404;}
	.st10{fill:#AEAEAE;}
	.st11{clip-path:url(#SVGID_2_);fill:#D3F0F3;}
	.st12{clip-path:url(#SVGID_2_);fill:#9FCACC;}
	.st13{clip-path:url(#SVGID_2_);fill:#10A9EA;}
	.st14{clip-path:url(#SVGID_2_);fill:#BFDBDD;}
	.st15{clip-path:url(#SVGID_2_);fill:#474747;}
	.st16{clip-path:url(#SVGID_2_);fill:#373737;}
	.st17{fill:#FFCEB1;}
	.st18{fill:#D3F0F3;}
	.st19{fill:#474747;}
</style>
<path class="st0" d="M103.4,59.7c44.1,0,80,35.9,80,80s-35.9,80-80,80s-80-35.9-80-80S59.3,59.7,103.4,59.7 M103.4,44.7
	c-52.5,0-95,42.5-95,95s42.5,95,95,95c52.5,0,95-42.5,95-95S155.8,44.7,103.4,44.7L103.4,44.7z"/>
<g>
	<path class="st1" d="M90.1,118.8l0.8,15.5c0,0-0.5,4.6,9.9,5.2c9.4,0.6,9.4-6.7,9.4-6.7l-0.6-23.7L90.1,118.8z"/>
	<path class="st2" d="M105.9,37c18.5,4.2,18,16.9,18,16.9s-0.6,9.8-0.9,21.5c1.7-2.4,4.6-3.3,7.6-2.1c6.3,2.7,1.6,22.5-7.9,20.8
		c-0.4,5.5-1,9.9-1.7,11.4c-2.7,5.6-14.5,14.2-25,15.6c-10.5,1.3-23.7-5.6-23.7-18c0-12.4-0.2-58.2-0.2-58.2S75.3,30,105.9,37z"/>
	<g>
		<path class="st3" d="M95.7,63.3c0.9-1.2,2.1-2.1,3.5-2.7c1.4-0.6,2.9-1,4.5-0.9c1.6,0.1,3.2,0.7,4.5,1.7c0.3,0.3,0.6,0.6,0.8,0.9
			c0.2,0.3,0.4,0.7,0.6,1c0.2,0.3,0.3,0.7,0.4,1.1c0.1,0.4,0.2,0.7,0.2,1.1c-1.3-0.8-2.3-1.6-3.4-2c-1.1-0.4-2.2-0.6-3.3-0.7
			c-1.2-0.1-2.4,0-3.7,0.1C98.6,63.1,97.2,63.2,95.7,63.3z"/>
	</g>
	<g>
		<path class="st3" d="M84.7,63.3l-3.5-0.4c-1-0.1-2-0.2-2.8-0.1c-0.9,0.1-1.6,0.3-2.5,0.8c-0.5,0.2-0.8,0.5-1.3,0.8
			c-0.5,0.3-0.9,0.7-1.5,1.1c0-0.6,0-1.3,0.2-1.9c0.2-0.6,0.5-1.3,1-1.8c0.8-1.1,2.3-1.9,3.7-2c1.5-0.1,2.8,0.2,4,0.9
			C83.2,61.3,84.1,62.1,84.7,63.3z"/>
	</g>
	<path class="st4" d="M129.8,76.8c-3.3-1.7-6.2,3.6-6.3,9.3c2.7-0.4,3.1,2.7,1.6,4.9C130.4,92.1,133.2,78.5,129.8,76.8z"/>
	<g>
		<path class="st5" d="M88.6,69.3c-0.4,1.6-0.8,3.2-1.1,4.8l-1,4.9l-1.7,9.7l-0.1-0.3c1,0.5,1.9,1.1,2.9,1.6c1,0.6,1.9,1.1,2.9,1.7
			c-1-0.4-2-0.9-3-1.4c-1-0.5-2-1-3-1.4l-0.2-0.1l0-0.2c0.2-1.6,0.4-3.3,0.7-4.9c0.2-1.6,0.6-3.3,0.9-4.9c0.3-1.6,0.7-3.2,1.2-4.8
			C87.4,72.5,87.9,70.9,88.6,69.3z"/>
	</g>
	<path class="st6" d="M102.8,98.8c0,0-10.1,14.5-21.9,3.4L102.8,98.8"/>
	<g>
		<path class="st7" d="M84,76c-0.4-1.4-0.9-2.8-1.6-3.9c-0.7-1.1-1.7-2-2.9-1.8c-1.3,0-2.3,0.8-2.9,2c-0.6,1.2-0.8,2.6-0.9,4.1
			c-0.4-1.4-0.5-2.9,0-4.4c0.3-0.7,0.7-1.4,1.4-2c0.3-0.3,0.7-0.4,1.1-0.6c0.4-0.1,0.8-0.2,1.2-0.2c0.8-0.1,1.7,0.2,2.4,0.7
			c0.7,0.5,1.1,1.2,1.4,1.9C83.8,73.1,84.1,74.6,84,76z"/>
	</g>
	<g>
		<path class="st7" d="M107.3,77.1c-0.3-1.4-0.6-2.8-1.2-4.1c-0.6-1.2-1.5-2.1-2.8-2c-1.3,0-2.4,0.7-3.1,1.8c-0.7,1.1-1.1,2.5-1.3,4
			c-0.3-1.4-0.1-3,0.5-4.4c0.3-0.7,0.9-1.4,1.5-1.8c0.7-0.5,1.5-0.7,2.3-0.7c0.8,0,1.7,0.3,2.4,0.9c0.6,0.6,1.1,1.3,1.3,2
			C107.5,74.1,107.5,75.7,107.3,77.1z"/>
	</g>
	<path class="st3" d="M112.5,51.9c0.7,6.8,6.2,11.5,6.2,11.5v12.1l0-0.1c0,0.3,0,0.5,0,0.8v4.4c1.2-0.1,2.4-0.2,3.5-0.2l0.5-4.1
		c0,0,1.6-3.4,4-3.8c2.5-6.6,4.5-12,4.5-17.3c0-13.8-8.1-12.9-8.1-12.9s-0.1-0.5-0.3-1.2c-5.8-21.9-22.5-20.4-34.2-15.8
		c-1.6,0.5-3.2,1.3-4.7,2.2c-1.1,0.6-2.2,1.2-3.1,1.7c-10.2,6.3-14.6,3.6-14.6,3.6c0.7,2.1,4.2,3.5,4.2,3.5c-6.1,0-6.8-4.3-6.8-4.3
		c-2.8,8,4.3,15.6,8.2,16.2c-4.2,0.8-6.8,0-6.8,0S76.2,65.9,112.5,51.9z"/>
</g>
<g>
	<defs>
		<path id="SVGID_1_" d="M103.4,44.7c-52.5,0-95,42.5-95,95s42.5,95,95,95c52.5,0,95-42.5,95-95S155.8,44.7,103.4,44.7L103.4,44.7z"
			/>
	</defs>
	<clipPath id="SVGID_2_">
		<use xlink:href="#SVGID_1_"  style="overflow:visible;"/>
	</clipPath>
	<g class="st8">
		<g>
			<path class="st9" d="M126.1,228.6c4.6-1.1,6.9-2.6,6.9-2.7c1.4-0.5,1.2,1,1.3,2.5c0.2,2.1-0.1,3.2-1.3,3.6
				c-0.2,0.1-1.3,1.3-5.9,2.6C126.8,232.7,126.5,230.7,126.1,228.6z"/>
			<path class="st9" d="M92.9,230.4c5.2,0.5,10.8,0.6,16.9,0.5c4.7-0.1,8.9-0.7,12.5-1.4c-0.1,2.1,0.1,4.2,0.4,6.3
				c-3.6,0.7-7.9,1.3-12.8,1.5c-2,0.1-3.9,0.1-5.8,0c-4.3-0.1-8.2-0.3-11.9-0.8C92.7,234.5,92.9,232.5,92.9,230.4z"/>
			<path class="st9" d="M77.8,229.9c0.3-1.6,0.4-2.9,1.8-2.4c3,1.1,6.4,2,9.9,2.5c-0.1,2-0.4,4-0.7,6.1c-3.7-0.7-7.2-1.6-10.4-2.9
				C77.5,232.7,77.6,231.5,77.8,229.9z"/>
		</g>
		<path class="st10" d="M101.4,229.9l-0.2,8.3l12-0.7l0.1-7.7L101.4,229.9z M103.4,231.3l7.9-0.1l-0.1,5.1l-7.9,0.5L103.4,231.3z"/>
	</g>
	<path class="st11" d="M138.6,142.5c0,0-15.5,46.7-18.9,74c0,0,0.4,13-20.8,12.1c-15-0.6-19.3-3.8-19.3-3.8l-21.5-88.4
		c0,0,10.8-5.2,33.6-5.2c0,0,0-0.7,5.1,2c4,2.1,5.3,16.5,5.3,16.5s0.8-14.4,3-15.6c3.4-1.8,2.8-1.4,5.7-2.2
		c8.6,0.6,17.6,3.2,27.6,4.9L138.6,142.5z"/>
	<path class="st12" d="M115.2,132.4c-1.5-0.2-2.9-0.4-4.4-0.5c-2.8,0.8-2.2,0.4-5.7,2.2c-0.6,0.3-1.1,1.6-1.5,3.3
		c1.4-0.2,2.9-0.4,4.3-0.4c1.6,0,3.6-0.4,5.5-0.5C113.8,135.1,114.4,133.6,115.2,132.4z"/>
	<path class="st12" d="M95,137.7c0.3,0,0.7-0.1,1-0.1c1.1,0,2.1,0.1,3.1,0.4c0.2,0,0.5,0,0.7-0.1c-0.8-2.2-1.7-4.1-3-4.7
		c-5.2-2.7-5.1-2-5.1-2c-1.6,0-3.1,0-4.6,0.1c1.7,1.2,3.5,2.5,5.1,3.8C93.3,135.8,94.2,136.7,95,137.7z"/>
	<path class="st13" d="M95.7,136c0,0,4.7,0.9,11.4-0.9l2,3.8l-3.5,5l6.8,70.6l-6.3,6.7l-7.7-5.6l0.5-71.1l-5.3-5.1l1.1-3.1"/>
	<polygon class="st14" points="84.7,131 92.2,143 97.5,133.3 86.5,126.2 	"/>
	<path class="st15" d="M74.4,242.5l32.5,6.7l2.8-10.5l2.8,9.7l24.1-6.9l-3.4-58.2l5.3-46.5l-23.2-4.4l-10.9,57.9L84.7,131
		c0,0-10.3-1.3-26.7,5.8L74.4,242.5z"/>
	<path class="st16" d="M84.7,131c0,0-4.2-0.6-6.8-0.1l-3.3,22.3l7.7,1.8l-2.6,5.9l24.6,29.4L84.7,131z"/>
	<polyline class="st16" points="115.2,132.4 104.3,190.3 120.9,164.4 114.8,156 122.2,154.2 119.7,133 116.1,132.5 	"/>
	<polygon class="st14" points="117,131.3 111.5,143.6 105.2,134.1 115.1,127.5 	"/>
	<circle class="st16" cx="105.5" cy="198.6" r="2.4"/>
	<circle class="st16" cx="107.3" cy="219.5" r="2.4"/>
</g>
<g>
	<path class="st17" d="M176.9,87.2c1.2,3.7,2.5,8.4,3.7,13.2c-4,0.8-8,1.7-12,2.7c-0.9-6.1-1.7-11.5-2.2-14.6c-1.6,0.7-5,1.4-8.4-3
		c-2.9-3.7-1.2-6,0.5-7.2c-0.4-1.2-0.8-3-1.4-5.8c-1.1-5.8,10.6-9.2,16.3-7.8c5.7,1.4,6.9,14.3,5.9,18.6
		C178.8,85.7,177.7,86.7,176.9,87.2z"/>
	<path class="st18" d="M182.4,97.8l-1.9-8.6l-16.1,3l1.4,8.5C171.2,99.8,176.8,98.8,182.4,97.8z"/>
	<path class="st19" d="M163.1,97.5l7.5,31.5l-43.4,6.3c-9.4,4.1,1.5,23.7,1.5,23.7l3-0.8l62-16l-11.2-47.7L163.1,97.5z"/>
</g>
<g>
	<path class="st17" d="M23,83.4c-1.2,3.7-2.5,8.4-3.7,13.2c4,0.8,8,1.7,12,2.7c0.9-6.1,1.7-11.5,2.2-14.6c1.6,0.7,5,1.4,8.4-3
		c2.9-3.7,1.2-6-0.5-7.2c0.4-1.2,0.8-3,1.4-5.8c1.1-5.8-10.6-9.2-16.3-7.8c-5.7,1.4-6.9,14.3-5.9,18.6C21.2,81.9,22.2,82.9,23,83.4z
		"/>
	<path class="st18" d="M17.6,94l1.9-8.6l16.1,3L34.3,97C28.7,96,23.1,95,17.6,94z"/>
	<path class="st19" d="M36.8,93.8l-7.5,31.5l43.4,6.3c9.4,4.1-1.5,23.7-1.5,23.7l-3-0.8l-62-16l11.2-47.7L36.8,93.8z"/>
</g>
</svg>
