<?xml version="1.0" encoding="utf-8"?>
<!-- Generator: Adobe Illustrator 21.1.0, SVG Export Plug-In . SVG Version: 6.00 Build 0)  -->
<svg version="1.1" id="OBJECTS" xmlns="http://www.w3.org/2000/svg" xmlns:xlink="http://www.w3.org/1999/xlink" x="0px" y="0px"
	 viewBox="0 0 187 238.3" style="enable-background:new 0 0 187 238.3;" xml:space="preserve">
<style type="text/css">
	.st0{fill:#FF7415;}
	.st1{clip-path:url(#SVGID_2_);fill:#E6F8FF;}
	.st2{clip-path:url(#SVGID_2_);fill:#94C7D3;}
	.st3{clip-path:url(#SVGID_2_);fill:#FFCEB1;}
	.st4{clip-path:url(#SVGID_2_);fill:#BFE4EF;}
	.st5{clip-path:url(#SVGID_2_);fill:#FF7415;}
	.st6{clip-path:url(#SVGID_2_);}
	.st7{fill:#FFCEB1;}
	.st8{fill:#E6F8FF;}
	.st9{fill:#DDBCA6;}
	.st10{fill:#F7CEB2;}
	.st11{fill:#222228;}
	.st12{fill:#84653C;}
	.st13{opacity:0.4;fill:#B57662;}
	.st14{fill:#D39484;}
	.st15{fill:#E08282;}
	.st16{fill:#7C4A4A;}
	.st17{clip-path:url(#SVGID_4_);}
	.st18{fill:#FCCE52;}
	.st19{fill:#F4EFE9;}
	.st20{fill:#483B80;}
	.st21{fill:#F09C36;}
	.st22{clip-path:url(#SVGID_4_);fill:#FCCE52;}
	.st23{clip-path:url(#SVGID_4_);fill:#F4EFE9;}
	.st24{clip-path:url(#SVGID_4_);fill:#483B80;}
	.st25{fill:#1E2A30;}
</style>
<path class="st0" d="M92,86c35.8,0,65,29.2,65,65s-29.2,65-65,65s-65-29.2-65-65S56.2,86,92,86 M92,71c-44.2,0-80,35.8-80,80
	s35.8,80,80,80s80-35.8,80-80S136.2,71,92,71L92,71z"/>
<g>
	<defs>
		<path id="SVGID_1_" d="M92,71c-5,0-9.9,0.5-14.7,1.3C55.3,55,35.6,63,25.2,72c-9.3,8-16,37.2-6.8,47.7c-4.1,9.6-6.3,20.2-6.3,31.3
			c0,44.2,35.8,80,80,80c31.2,0,58.2-17.9,71.4-43.9c13.4-2.7,31.6-37.2,31.6-50.2c0-10.7-17.5-40-21.3-49.3
			c-2.8-7-14.2,19.8-18.8,14C140.2,82.9,117.5,71,92,71L92,71z"/>
	</defs>
	<clipPath id="SVGID_2_">
		<use xlink:href="#SVGID_1_"  style="overflow:visible;"/>
	</clipPath>
	<path class="st1" d="M130.4,161.4c0,0-1.7,52.6-5.1,79.2c0,0-13,5.8-33.8,5c-14.6-0.6-18.9-3.7-18.9-3.7l-21-86.4
		c0,0,10.6-5.1,32.9-5.1c0,0,0-0.7,5,2c3.9,2.1,5.2,16.1,5.2,16.1s0.8-14.1,2.9-15.3c3.4-1.8,2.8-1.4,5.5-2.1
		c8.4,0.6,17.2,3.1,27,4.8L130.4,161.4z"/>
	<path class="st2" d="M86.1,159.3c0.4,0,0.9-0.1,1.3-0.1c2.1,0,4.1,0.3,6,0.7c-0.8-3.4-2-6.7-3.8-7.6c-5.1-2.7-5-2-5-2
		c-1.6,0-3.1,0-4.6,0.1C82.8,152.6,85,155.5,86.1,159.3z"/>
	<path class="st2" d="M106.9,151.4c-1.2-0.2-2.4-0.3-3.6-0.4c-2.8,0.7-2.2,0.4-5.5,2.1c-1,0.5-1.7,3.9-2.2,7.4
		c1.9,0.7,3.6,1.7,5.2,2.8C101.3,159,103.5,154.5,106.9,151.4z"/>
	<path class="st3" d="M29.5,237.8c0,0-9.9,27.7-7.3,30.2c0,0,0.3,2,2.8,2.3c0,0,0.4,2.6,3.4,2c0,0,0.3,1.9,1.1,2.8
		c1.3,1.5,4.4,0.5,4.4-6.2c0,0,0.8,2.1,2.9,2.9c2.8,1.1,1.5-2.9,1.5-2.9s-0.1-3.8-0.7-8.9c-0.6-5.1-2.2-6.2-2.2-6.2l11-35.6
		L29.5,237.8z"/>
	<path class="st1" d="M25.3,246.3l13.1-44.7l13.1-45.8c6.6-1.6,20.3-0.2,11.5,24.5l-11,34.3l-13.5,37L25.3,246.3z"/>
	<polygon class="st4" points="23.9,247.4 26.3,237.9 42.7,245.3 39.2,253.4 	"/>
	<path class="st5" d="M88.5,155.6c0,0,6.3,4.3,12.8-1l2.3,4.3l-4.6,7.6l8.8,61.4l-8.5,10.6L89,228.1l4.3-62.4l-7-6.4l1.3-3.5"/>
	<polygon class="st4" points="77.8,150.1 85.1,161.9 90.2,152.4 79.5,145.4 	"/>
	<g class="st6">
		<path class="st7" d="M176.5,126.6c-0.2,3.4-0.6,7.6-1.1,11.9c-3.5-0.6-7-1.1-10.5-1.6c1.1-5.2,2.2-9.8,2.8-12.5
			c-1.5,0.1-4.5-0.4-5.9-5.1c-1.2-3.9,0.9-5.3,2.6-5.7c0.1-1.1,0,0,0-1.8c0.1-5.1,11.5-4.2,15.7-1.2c4.2,2.9,1.8,10.5-0.4,13.6
			C178.4,125.9,177.2,126.5,176.5,126.6z"/>
		<path class="st8" d="M162,130.3l-4,29.4l-48.8-8.3c-4.5,4.7-2.3,23,25.7,24.3l37.1,2.8l6.2-44.5L162,130.3z"/>
		<path class="st7" d="M169.3,112.7c-0.3-0.1,0.3-15.2-0.8-16.1c-1-0.9-3.6-0.5-3.5,2c0.1,2.5-0.8,15.6-0.8,15.6L169.3,112.7z"/>
	</g>
	<polygon class="st4" points="109.5,151 103.9,162.5 97.8,153.2 107.4,146.7 	"/>
</g>
<g>
	<path class="st9" d="M102.5,141l-0.7,13.1c0,0,0.4,3.9-8.3,4.4c-8,0.5-8-5.6-8-5.6l0.5-20L102.5,141z"/>
	<path class="st10" d="M89.1,71.9c-15.6,3.6-15.2,14.3-15.2,14.3s0.5,8.3,0.8,18.2c-1.4-2-3.9-2.8-6.4-1.7c-5.3,2.3-1.4,19,6.7,17.6
		c0.3,4.7,0.8,8.3,1.4,9.6c2.3,4.8,12.3,12,21.1,13.2c8.9,1.1,20-4.8,20-15.2s0.1-49.1,0.1-49.1S115,66,89.1,71.9z"/>
	<ellipse class="st11" cx="91.8" cy="103.6" rx="2.3" ry="4.1"/>
	<ellipse class="st11" cx="110.9" cy="104.5" rx="2.3" ry="4.1"/>
	<g>
		<path class="st12" d="M97.7,94.2c-1.3,0-2.5-0.1-3.5-0.1c-1.1-0.1-2.1-0.1-3-0.1c-0.9,0.1-1.8,0.2-2.7,0.5c-1,0.3-1.8,0.9-3,1.5
			c0.1-1.3,0.6-2.6,1.7-3.6c1-0.9,2.5-1.5,3.9-1.6c1.4-0.1,2.7,0.3,3.8,0.8C96,92.3,97,93,97.7,94.2z"/>
	</g>
	<g>
		<path class="st12" d="M107,94.2c0.4-1.1,1.2-1.9,2.2-2.5c1-0.6,2.2-0.9,3.4-0.8c1.3,0.1,2.6,0.8,3.3,1.8c0.8,1,1,2.1,0.9,3.3
			c-0.6-0.3-0.9-0.6-1.3-0.8c-0.4-0.2-0.8-0.5-1.1-0.6c-0.7-0.3-1.3-0.5-2-0.5c-0.7-0.1-1.4-0.1-2.3,0C109.2,94,108.2,94.1,107,94.2
			z"/>
	</g>
	<path class="st13" d="M69,105.5c2.8-1.4,5.2,3.1,5.3,7.8c-2.3-0.3-2.7,2.3-1.4,4.2C68.5,118.5,66.1,107,69,105.5z"/>
	<g>
		<path class="st14" d="M103.8,99.2c0.6,1.3,1,2.6,1.4,4c0.4,1.3,0.7,2.7,1,4.1c0.6,2.7,1,5.5,1.3,8.3l0,0.2l-0.2,0.1
			c-0.8,0.4-1.7,0.8-2.5,1.2c-0.9,0.4-1.7,0.8-2.6,1.1c0.8-0.5,1.6-1,2.4-1.4c0.8-0.5,1.6-0.9,2.4-1.4l-0.1,0.3
			c-0.3-1.4-0.5-2.7-0.7-4.1l-0.7-4.1l-0.8-4.1C104.4,102,104.1,100.6,103.8,99.2z"/>
	</g>
	<g>
		<path class="st15" d="M93.4,123.8l15.9,1.9c0,0-1.2,2.4-4.4,3.2C101.7,129.8,95.3,129.5,93.4,123.8z"/>
		<path class="st16" d="M98.2,125.2c-1.4-0.1-2.7,0.1-3.9,0.5c-0.4-0.6-0.7-1.2-1-1.9l15.9,1.9c0,0-1.2,2.4-4.4,3.2
			c-0.6,0.1-1.2,0.3-1.9,0.3C102.5,127.3,100.7,125.4,98.2,125.2z"/>
	</g>
	<path class="st12" d="M83.5,84.4c-0.6,5.7-5.2,9.7-5.2,9.7v10.2l0,0c0,0.2,0,0.4,0,0.7v3.7c-1-0.1-2-0.1-3-0.2l-0.4-3.4
		c0,0-1.3-2.9-3.4-3.2c-2.1-5.6-3.8-10.2-3.8-14.6c0-11.7,6.9-10.9,6.9-10.9s0.1-0.4,0.3-1c4.9-18.5,18.9-17.2,28.8-13.3
		c1.4,0.4,2.7,1.1,4,1.8c1,0.5,1.8,1,2.6,1.5c8.7,5.3,12.3,3.1,12.3,3.1c-0.6,1.8-3.5,2.9-3.5,2.9c5.1,0,5.7-3.7,5.7-3.7
		c2.3,6.7-3.7,13.2-6.9,13.6c3.5,0.7,5.7,0,5.7,0S114.2,96.2,83.5,84.4z"/>
</g>
<g>
	<defs>
		<path id="SVGID_3_" d="M92,71c-44.2,0-80,35.8-80,80s35.8,80,80,80s80-35.8,80-80S136.2,71,92,71L92,71z"/>
	</defs>
	<clipPath id="SVGID_4_">
		<use xlink:href="#SVGID_3_"  style="overflow:visible;"/>
	</clipPath>
	<g class="st17">
		<polygon class="st18" points="12,141.5 33.2,139.6 33.2,240.6 12,241.7 		"/>
		<polygon class="st19" points="15.1,146.2 17.2,199.3 23.7,199.7 24.9,146.8 		"/>
		<path class="st20" d="M24.3,214.9c2,2.7-1,5.7-3.7,3.7l0,0C18.5,215.9,21.6,212.9,24.3,214.9z"/>
	</g>
	<g class="st17">
		<polygon class="st21" points="33.8,241.5 28.5,135 55.4,134 55.4,241.7 		"/>
		<polygon class="st19" points="37.7,146.2 39.7,199.3 46.2,199.7 47.4,146.8 		"/>
		<circle class="st20" cx="45" cy="216.8" r="2.5"/>
	</g>
	<polygon class="st22" points="55.4,141.5 76.6,139.6 76.6,240.6 55.4,241.7 	"/>
	<polygon class="st23" points="58.5,146.2 60.6,199.3 67.1,199.7 68.3,146.8 	"/>
	<path class="st24" d="M67.7,214.9c2,2.7-1,5.7-3.7,3.7l0,0C62,215.9,65,212.9,67.7,214.9z"/>
</g>
<polygon class="st25" points="50.1,231 147.7,231 183,175.7 115.9,175.7 92.9,226.4 49.4,226.7 "/>
</svg>
