<?xml version="1.0" encoding="utf-8"?>
<!-- Generator: Adobe Illustrator 21.1.0, SVG Export Plug-In . SVG Version: 6.00 Build 0)  -->
<svg version="1.1" id="OBJECTS" xmlns="http://www.w3.org/2000/svg" xmlns:xlink="http://www.w3.org/1999/xlink" x="0px" y="0px"
	 viewBox="0 0 220 265" style="enable-background:new 0 0 220 265;" xml:space="preserve">
<style type="text/css">
	.st0{fill:#D0D4D5;}
	.st1{fill:#DDBCA6;}
	.st2{fill:#F7CEB2;}
	.st3{fill:#222228;}
	.st4{fill:#84653C;}
	.st5{opacity:0.4;fill:#B57662;enable-background:new    ;}
	.st6{fill:#D39484;}
	.st7{fill:#DB6412;}
	.st8{fill:#FF7415;}
	.st9{fill:#FFFFFF;}
	.st10{fill:#A7DDEA;}
	.st11{fill:#BBECF9;}
	.st12{fill:#8FCED8;}
	.st13{fill:#FFCEB0;}
	.st14{fill:#CEA591;}
</style>
<path class="st0" d="M104.9,72.4c35.8,0,65,29.2,65,65s-29.2,65-65,65s-65-29.2-65-65S69.1,72.4,104.9,72.4 M104.9,57.4
	c-44.2,0-80,35.8-80,80s35.8,80,80,80s80-35.8,80-80S149.1,57.4,104.9,57.4L104.9,57.4z"/>
<g>
	<path class="st1" d="M115.1,106l-0.6,13.1c0,0,0.4,3.9-8.3,4.4c-7.9,0.5-7.9-5.6-7.9-5.6L98.8,98L115.1,106z"/>
	<path class="st2" d="M101.8,37.2c-15.6,3.5-15.1,14.2-15.1,14.2s0.5,8.3,0.8,18.1c-1.4-2-3.9-2.8-6.4-1.7c-5.3,2.3-1.4,19,6.7,17.5
		c0.3,4.7,0.8,8.3,1.4,9.5c2.3,4.7,12.2,12,21,13.1s19.9-4.7,19.9-15.1s0.1-48.9,0.1-48.9S127.5,31.3,101.8,37.2z"/>
	<ellipse class="st3" cx="104.4" cy="68.7" rx="2.3" ry="4.1"/>
	<ellipse class="st3" cx="123.4" cy="69.6" rx="2.3" ry="4.1"/>
	<g>
		<path class="st4" d="M110.3,59.7c-1.3-0.1-2.4-0.2-3.5-0.4c-1.1-0.1-2.1-0.2-3-0.2s-1.8,0.1-2.7,0.3c-1,0.2-1.8,0.8-3.1,1.3
			c0.2-1.3,0.7-2.6,1.9-3.4c1.1-0.9,2.6-1.3,3.9-1.3c1.4,0,2.7,0.4,3.8,1.1C108.7,57.7,109.7,58.5,110.3,59.7z"/>
	</g>
	<g>
		<path class="st4" d="M119.6,59.4c0.4-1.1,1.2-1.9,2.1-2.5c0.9-0.6,2.1-1,3.4-0.9c1.3,0.1,2.6,0.8,3.3,1.7c0.8,0.9,1.1,2.1,0.9,3.2
			c-0.6-0.3-0.9-0.6-1.4-0.8c-0.4-0.2-0.8-0.5-1.1-0.6c-0.7-0.3-1.3-0.5-2-0.5c-0.7-0.1-1.4,0-2.3,0.1
			C121.7,59.3,120.8,59.4,119.6,59.4z"/>
	</g>
	<path class="st5" d="M81.8,70.6c2.8-1.4,5.2,3,5.3,7.8c-2.3-0.3-2.6,2.3-1.4,4.2C81.2,83.5,78.8,72.1,81.8,70.6z"/>
	<g>
		<path class="st6" d="M116.3,64.4c0.6,1.3,1,2.6,1.4,3.9s0.7,2.7,1,4.1c0.6,2.7,1,5.5,1.3,8.2v0.2l-0.2,0.1
			c-0.8,0.4-1.7,0.8-2.5,1.2c-0.9,0.4-1.7,0.8-2.6,1.1c0.8-0.5,1.6-1,2.4-1.4c0.8-0.5,1.6-0.9,2.4-1.4l-0.1,0.3
			c-0.3-1.4-0.5-2.7-0.7-4.1l-0.7-4.1l-0.8-4.1C117,67.1,116.7,65.7,116.3,64.4z"/>
	</g>
	<g>
		<path class="st6" d="M104.2,89.6c1.5,0.6,3.1,1.1,4.6,1.5c1.6,0.4,3.1,0.8,4.7,1c1.6,0.2,3.2,0.3,4.8,0.3c0.8,0,1.6-0.1,2.4-0.2
			c0.8-0.1,1.6-0.3,2.4-0.5c-1.5,0.7-3.1,1.1-4.8,1.3c-1.6,0.2-3.3,0.1-4.9-0.1c-1.6-0.2-3.2-0.6-4.8-1.2
			C107.1,91.1,105.6,90.4,104.2,89.6z"/>
	</g>
	<path class="st4" d="M80.9,50c0,0-10.8-6.5-6.5-11.9c2.3-2.9,4-2,5.1-0.5c-0.9-2.5-1.4-6,2-7.4c2.6-1.1,4.2-0.1,5.1,1.3
		c-0.6-2.9-0.3-6.6,4.1-7.8c6-1.7,7.2,4.1,7.4,6.7c0-2.7,0.4-9.3,6.3-10.2c4.9-0.8,5.5,3.3,5.3,6.1c1.2-3.5,4.8-8.6,9.6-6.9
		c6.2,2.1,1.8,8.8,1.8,8.8c3.1-3.5,8.8-3.8,11-0.3s-2.4,7.2-2.4,7.2s8.5,0.3,6.9,9.8S122,45.3,122,45.3c1,2.7,0.8,4.8-2.1,5.5
		c-3,0.7-4.4-4.5-4.4-4.5s0.7,4.1-4.4,5.2c-5.1,1.1-5.4-3.5-5.4-3.5c-2.1,4.6-5.6,3.3-7.4,2.4c-1.8,7-7.2,9.2-7.2,9.2v18L89,77.3
		l-1.5-7.9c0,0-1.1-1.9-3.2-2.2l0,0c-1.7-0.1-4.4-0.6-4.9-2.7c-0.6-2.4,1.2-4.4,2.2-5.3c0-0.1-0.1-0.2-0.1-0.3
		c-4.9,1.2-8.8-3.7-6.8-7.3C77.1,47.6,80.9,50,80.9,50z"/>
</g>
<g>
	<path class="st7" d="M124.7,110.6c0,0,12.1,5,16.6,8.7c4.6,3.7,25.8,56.3,29.5,66.1c0,0,1.5,3.8-1.7,6.4c-3.2,2.5-8.5,2.4-11.5,0.4
		c-3.1-2-13.2-18.4-13.2-18.4L124.7,110.6z"/>
	<path class="st8" d="M122.3,109.6c-1.4-0.3-4.1-1.1-5.2-1.2c-1.6,8.4-10.3,16.8-23.1,1.3c-7.3,1.3-29.6,7.6-30.9,15.8
		c0,26.7,9.7,44.5,9.7,76.8c0,14.8-5.5,3.5-5.3,24c12.7-1.5,68.3-11.7,77.5-0.4c0.7-0.6,1.8-3.4,0.9-7.6
		C134.4,168,158.3,122.6,122.3,109.6z"/>
	<path class="st7" d="M119.8,109c-1-0.3-2.1-0.5-2.7-0.6c-1.1,8-10.2,15.2-23.1,1.3c-1.4,0.3-3,0.4-4.8,1
		c10.2,17,31.5,18.3,30.5-1.4C119.8,109.3,119.8,109.2,119.8,109z"/>
	<path class="st9" d="M105.8,120.9c-0.2-0.2-0.5-0.3-0.7-0.1s-0.3,0.5-0.1,0.7c4.6,6.7,2.1,11-0.6,15.5c-2.1,3.6-4.3,7.3-3.6,12.6
		c0,0.3,0.3,0.5,0.6,0.5s0.5-0.3,0.5-0.6c-0.7-4.9,1.4-8.4,3.4-11.9C108.2,132.7,110.9,128.2,105.8,120.9z"/>
	<path class="st9" d="M112.5,120.9c0-0.3-0.2-0.5-0.5-0.5s-0.5,0.2-0.5,0.5c0,0.1-0.5,19.8,12.5,18.9c0.3,0,0.5-0.3,0.5-0.6
		s-0.3-0.5-0.6-0.5C112,139.6,112.5,121,112.5,120.9z"/>
	<circle class="st9" cx="124.4" cy="139.3" r="1.3"/>
	<circle class="st9" cx="101.4" cy="150" r="1.3"/>
	<path class="st7" d="M66.1,120.9c0,0-6.1,4.1-12,10.3c-5.9,6.3-12.3,36.6-12.7,39.3c-0.4,2.7,12.1,8.4,16.4,8.4
		C65.5,178.9,91.8,126.8,66.1,120.9z"/>
	<path class="st10" d="M38.7,135.4h147.8c2.3,0,4.1,1.8,4.1,4.1v91.1c0,2.3-1.8,4.1-4.1,4.1H38.7c-2.3,0-4.1-1.8-4.1-4.1v-91.1
		C34.6,137.3,36.4,135.4,38.7,135.4z"/>
	<path class="st11" d="M43.9,135.4h142.6c2.3,0,4.1,1.8,4.1,4.1v82.4H48c-2.3,0-4.1-1.8-4.1-4.1V135.4z"/>
	<path class="st12" d="M38.7,135.4h147.8c2.3,0,4.1,1.8,4.1,4.1v3.5l-68.1,62.9c-11,10.2-7.8,11.1-18.5,1.1l-69.4-64.1v-3.5
		C34.6,137.3,36.4,135.4,38.7,135.4z"/>
	<path class="st12" d="M190.6,226.7v3.9c0,2.3-1.8,4.1-4.1,4.1H38.7c-2.3,0-4.1-1.8-4.1-4.1v-3.9l69.9-59.2c10.1-8.5,7-7.8,17.3,1
		L190.6,226.7z"/>
	<path class="st10" d="M190.5,231.5c-0.4,1.8-2.1,3.2-4,3.2H38.7c-2,0-3.6-1.4-4-3.2l70.6-59.8c9.1-7.7,6.3-7,15.7,0.9L190.5,231.5z
		"/>
	<path class="st11" d="M46.4,221.6l58.9-49.9c9.1-7.7,6.3-7,15.7,0.9l58.2,49.3H48C47.4,221.9,46.9,221.8,46.4,221.6z"/>
	<path class="st12" d="M84.6,189.2l20.7-17.5c9.1-7.7,6.3-7,15.7,0.9l19.6,16.6l-18.1,16.7c-11,10.2-7.8,11.1-18.5,1.1L84.6,189.2z"
		/>
	<path class="st11" d="M38.7,135.4h147.8c1.4,0,2.6,0.7,3.3,1.7L121,200.7c-9.3,8.6-6.6,9.4-15.7,1l-69.9-64.6
		C36.1,136.1,37.3,135.4,38.7,135.4z"/>
	<path class="st10" d="M65.9,151.8l6.5,6L93.2,177l2.8,2.6l17.6,16.3c3.4,3.1,5.1,5,6.5,5.6c-8.3,7.9-6,8.3-14.8,0.2l-16.9-15.6
		l-2.8-2.6l-16.3-15l-1.3-1.2l-21-19.4l-3.1-2.9l-8.5-7.9c0.7-1,2-1.7,3.3-1.7h9.5l2.4,2.2L65.9,151.8z"/>
	<g>
		<path class="st13" d="M153.4,234.7c0.2-3.8,0.5-7.6,1.2-8.4c0.8-0.8,2.6-0.8,3.4,0.3c0.7,1.1,0.7,1.1,0.7,1.1s0.5-1.9,2.4-2.1
			c1.8-0.2,2.3,2.4,2.3,2.4s1.2-2.9,2.8-2.1c1.6,0.8,1.8,2.5,1.8,2.5s1.6-2.8,2.7-0.5c1.1,2.3,1.7,6.3-0.4,9.8c-0.4,0.7-1,1-1.6,0.9
			c-0.3-0.1-0.9-0.5-1.3-0.6c-0.6,0.7-1.2,1.6-2.2,1.4c-1-0.2-1.4-0.8-1.4-0.8c-1.7,2-3.4,2.3-4.7,0.6c-4.4,2.4-7.3-0.1-9.1-4.5
			L153.4,234.7z"/>
		<path class="st14" d="M153.4,234.7c-0.2,1.4-0.2,3.3-0.1,4.7c-2.5-1.4-3.3-4.7-3.3-4.7H153.4z"/>
	</g>
	<g>
		<path class="st13" d="M63.1,234.7c0.2-3.8,0.5-7.6,1.2-8.4c0.8-0.8,2.6-0.8,3.4,0.3c0.7,1.1,0.7,1.1,0.7,1.1s0.5-1.9,2.4-2.1
			c1.8-0.2,2.3,2.4,2.3,2.4s1.2-2.9,2.8-2.1c1.6,0.8,1.8,2.5,1.8,2.5s1.6-2.8,2.7-0.5c1.1,2.3,1.7,6.3-0.4,9.8c-0.4,0.7-1,1-1.6,0.9
			c-0.3-0.1-0.9-0.5-1.3-0.6c-0.6,0.7-1.2,1.6-2.2,1.4c-1-0.2-1.4-0.8-1.4-0.8c-1.7,2-3.4,2.3-4.7,0.6c-4.4,2.4-7.3-0.1-9.1-4.5
			L63.1,234.7z"/>
		<path class="st14" d="M63.1,234.7c-0.2,1.4-0.2,3.3-0.1,4.7c-2.5-1.4-3.3-4.7-3.3-4.7H63.1z"/>
	</g>
</g>
</svg>
