<?xml version="1.0" encoding="utf-8"?>
<!-- Generator: Adobe Illustrator 21.1.0, SVG Export Plug-In . SVG Version: 6.00 Build 0)  -->
<svg version="1.1" id="OBJECTS" xmlns="http://www.w3.org/2000/svg" xmlns:xlink="http://www.w3.org/1999/xlink" x="0px" y="0px"
	 viewBox="0 0 187 245.3" style="enable-background:new 0 0 187 245.3;" xml:space="preserve">
<style type="text/css">
	.st0{fill:#FF7415;}
	.st1{fill:#10A9EA;}
	.st2{fill:#0086BF;}
	.st3{fill:#F4EFE9;}
	.st4{opacity:0.29;fill:#40337B;}
	.st5{fill:#FFBFA1;}
	.st6{fill:#D69F8A;}
	.st7{fill:#E6F9FF;}
	.st8{fill:#D8EAEF;}
	.st9{fill:#DDBCA6;}
	.st10{fill:#F7CEB2;}
	.st11{fill:#222228;}
	.st12{opacity:0.4;fill:#B57662;}
	.st13{fill:#D39484;}
	.st14{fill:#84653C;}
	.st15{clip-path:url(#SVGID_2_);fill:#FFBFA1;}
	.st16{clip-path:url(#SVGID_2_);fill:#E6F9FF;}
	.st17{clip-path:url(#SVGID_2_);}
	.st18{clip-path:url(#SVGID_2_);fill:#D8CAC7;}
	.st19{clip-path:url(#SVGID_2_);fill:#FF7415;}
	.st20{clip-path:url(#SVGID_2_);fill:#D8EAEF;}
</style>
<path class="st0" d="M92,86c35.8,0,65,29.2,65,65s-29.2,65-65,65s-65-29.2-65-65S56.2,86,92,86 M92,71c-44.2,0-80,35.8-80,80
	s35.8,80,80,80s80-35.8,80-80S136.2,71,92,71L92,71z"/>
<g>
	<path class="st1" d="M40.8,139.1c-1.8,1-3.2,2.6-3.8,4.5c-1.3,4.1,1,8.3,5,9.5c1.9,0.7,4,0.4,5.8-0.6c0.7-0.5,1.4-0.9,2-1.5
		c3-3,3-7.9-0.2-10.8C47.3,138,43.8,137.6,40.8,139.1z M35.2,73.9c-6.2-1.6-12.7-0.5-19.6,3S4.4,85.3,2.2,91.4
		c-2,5.3-1.7,11,0.7,16.1c0.4,1,1.1,1.7,2.1,2.1s1.9,0.2,2.9-0.2l4-2.2c1.7-0.9,2.4-2.8,1.7-4.6c-1.2-2.6-1.2-5.6-0.4-8.4
		c1.1-3.2,3.6-5.8,7.6-8c3.9-2,7.4-2.7,10.8-1.7c3.3,0.8,5.9,3.3,7.9,7.2c2.7,5.2,3.1,9.6,1.1,12.9c-2.2,3.4-6.5,7-13.2,10.4l-1.8,1
		c-1.8,1-2.4,3.1-1.5,4.9l8.1,15.2c0.6,0.9,1.2,1.4,2.2,1.8c1,0.3,1.9,0.2,2.8-0.3l4-2.2c0.3-0.2,0.7-0.5,0.9-0.6
		c1-1.1,1.3-2.9,0.7-4.2l-5.3-9.9c-0.1-0.2,0.1-0.3,0.1-0.3c7.6-4.3,12.6-9,14.9-14.2c2.5-5.6,1.7-12-1.9-19
		C46.4,79.9,41.5,75.5,35.2,73.9L35.2,73.9z"/>
	<path class="st2" d="M47,138.7c-1.9-0.7-4-0.4-5.8,0.6c-0.5,0.3-1,0.7-1.7,1.1c1.4-0.5,2.9-0.4,4.3,0.1c4.1,1.3,6.3,5.5,5,9.5l0,0
		c-0.4,1.3-1,2.2-1.9,3.2c-0.2,0.1-0.2,0.1-0.3,0.2c1.3-0.3,2.5-1.1,3.6-2.1c0.9-0.9,1.4-1.9,1.9-3.2C53.3,144.2,51,140,47,138.7
		L47,138.7z M35.7,73.9C29.5,72.3,23,73.3,16,77c-3.9,2-7.2,4.8-10.2,8.2c1.8-1.4,3.7-2.7,5.5-3.6c6.8-3.5,13.5-4.7,19.7-3.1
		c6.2,1.6,11.3,5.9,15.1,13.1c3.7,7.2,4.4,13.4,1.9,19c-0.8,1.8-1.7,3.4-2.9,4.6c3.1-2.5,5.6-5.7,7.3-9.2c2.5-5.6,1.7-12-1.9-19
		C47,79.8,41.9,75.4,35.7,73.9L35.7,73.9z"/>
</g>
<g>
	<polygon class="st3" points="106.6,240.9 105.3,225.8 167.8,230.3 167.8,240.9 	"/>
	<polygon class="st3" points="108.8,226 108.8,217.2 166.9,217.2 165.7,230.2 	"/>
	<polygon class="st3" points="103.1,209 104.2,217.2 161.6,217.2 161.6,209 	"/>
	<polygon class="st4" points="108.8,217.2 108.8,219.1 164.9,217.2 	"/>
	<polygon class="st4" points="108.8,226 165.7,230.2 165.9,228.1 	"/>
	<polygon class="st4" points="140.1,222.6 149.9,221.3 164.9,222.6 	"/>
	<polygon class="st4" points="106.1,234.6 124.7,234.6 106.2,235.9 	"/>
	<path class="st4" d="M123.4,213.1l38.2-1.2C161.7,212.8,123.4,213.1,123.4,213.1z"/>
	<polygon class="st3" points="112.5,232.4 102.2,233.3 102.2,234.6 115.4,233.5 	"/>
	<polygon class="st3" points="162,212.5 151.7,213.5 151.7,214.8 164.9,213.6 	"/>
</g>
<g>
	<polygon class="st3" points="106.6,210 105.3,194.9 167.8,199.5 167.8,210 	"/>
	<polygon class="st3" points="108.8,195.1 108.8,186.3 166.9,186.3 165.7,199.3 	"/>
	<polygon class="st3" points="103.1,178.2 104.2,186.3 161.6,186.3 161.6,178.2 	"/>
	<polygon class="st4" points="108.8,186.3 108.8,188.2 164.9,186.3 	"/>
	<polygon class="st4" points="108.8,195.1 165.7,199.3 165.9,197.2 	"/>
	<polygon class="st4" points="140.1,191.7 149.9,190.4 164.9,191.7 	"/>
	<polygon class="st4" points="106.1,203.7 124.7,203.7 106.2,205.1 	"/>
	<path class="st4" d="M123.4,182.2l38.2-1.2C161.7,182,123.4,182.2,123.4,182.2z"/>
	<polygon class="st3" points="112.5,201.5 102.2,202.5 102.2,203.7 115.4,202.6 	"/>
	<polygon class="st3" points="162,181.6 151.7,182.6 151.7,183.9 164.9,182.8 	"/>
</g>
<g>
	<g>
		<path class="st5" d="M116,98.7c-0.1-0.1-0.1,0-0.1,0s-13-6.5-16.8-3.6c-3.8,2.9-2.5,13.7,3.6,16.3c6.1,2.6,4.9-5.1,4.9-5.1
			s4.8,3.7,7.1,1.8c16.4,12.9,30.8,21.4,30.8,21.4s1.7,21.6,8.5,18.2c2.3-1.1,13.3-9.6,14-16.5C167.7,113.7,118.5,99.4,116,98.7z"/>
		<path class="st6" d="M120.4,100.1c-2.4-0.8-4.1-1.2-4.5-1.4c-0.1-0.1-0.1,0-0.1,0s-13-6.5-16.8-3.6c-3.8,2.9-2.5,13.7,3.6,16.3
			c6.1,2.6,4.9-5.1,4.9-5.1s4.8,3.7,7.1,1.8c1.1,0.8,2.1,1.7,3.2,2.5C118.4,107,119.2,103.5,120.4,100.1z"/>
		<g>
			<path class="st7" d="M146.2,130.8c0,0-29.5,19.6-30.8,22.1c-9.5,18.1,5.8,20,5.8,20l43.4-32.2L146.2,130.8z"/>
		</g>
		<polygon class="st8" points="143.3,132.5 159.7,147.3 167.4,141.7 145.5,129.5 		"/>
	</g>
	<path class="st9" d="M81.6,139.7l0.6,12.6c0,0-0.4,3.8,8,4.3c7.7,0.5,7.7-5.4,7.7-5.4l-0.5-19.3L81.6,139.7z"/>
	<path class="st10" d="M94.5,73.1c15.1,3.4,14.7,13.8,14.7,13.8s-0.5,8-0.8,17.5c1.4-1.9,3.8-2.7,6.2-1.7c5.1,2.2,1.3,18.3-6.5,17
		c-0.3,4.5-0.8,8-1.4,9.2c-2.2,4.6-11.8,11.6-20.4,12.7c-8.5,1.1-19.3-4.6-19.3-14.7c0-10.1-0.1-47.3-0.1-47.3S69.6,67.4,94.5,73.1z
		"/>
	<ellipse class="st11" cx="92" cy="103.6" rx="2.2" ry="4"/>
	<ellipse class="st11" cx="73.6" cy="104.5" rx="2.2" ry="4"/>
	<path class="st12" d="M113.9,105.5c-2.7-1.4-5,3-5.1,7.5c2.2-0.3,2.6,2.2,1.3,4C114.4,118,116.7,106.9,113.9,105.5z"/>
	<g>
		<path class="st13" d="M80.4,99.4c-0.3,1.3-0.6,2.6-0.9,3.9l-0.7,4l-0.7,4c-0.2,1.3-0.5,2.6-0.7,4l-0.1-0.3
			c0.8,0.4,1.6,0.9,2.4,1.3c0.8,0.5,1.6,0.9,2.3,1.4c-0.8-0.3-1.7-0.7-2.5-1.1c-0.8-0.4-1.6-0.8-2.5-1.1l-0.2-0.1l0-0.2
			c0.3-2.7,0.7-5.3,1.3-8c0.3-1.3,0.6-2.6,1-3.9C79.4,102,79.9,100.7,80.4,99.4z"/>
	</g>
	<g>
		<path class="st13" d="M92.2,123.8c-1.4,0.8-2.8,1.4-4.3,2c-1.5,0.5-3.1,0.9-4.6,1.1c-1.6,0.2-3.2,0.3-4.8,0.1
			c-1.6-0.2-3.2-0.6-4.6-1.2c0.8,0.1,1.5,0.4,2.3,0.4c0.8,0.1,1.5,0.2,2.3,0.2c1.6,0,3.1,0,4.7-0.3c1.5-0.2,3.1-0.6,4.6-0.9
			C89.2,124.9,90.7,124.4,92.2,123.8z"/>
	</g>
	<path class="st14" d="M99.7,85.2c0.5,5.5,5.1,9.4,5.1,9.4v9.8l0,0c0,0.2,0,0.4,0,0.6v3.6c1-0.1,1.9-0.1,2.9-0.2l0.4-3.3
		c0,0,1.3-2.8,3.3-3.1c2.1-5.4,3.6-9.8,3.6-14.1c0-11.2-6.6-10.5-6.6-10.5s-0.1-0.4-0.3-1c-4.7-17.8-18.3-16.6-27.8-12.8
		c-1.3,0.4-2.6,1-3.9,1.8c-0.9,0.5-1.8,1-2.5,1.4c-8.3,5.1-11.9,3-11.9,3c0.6,1.7,3.4,2.8,3.4,2.8c-4.9,0-5.5-3.5-5.5-3.5
		c-2.3,6.5,3.5,12.7,6.6,13.1c-3.4,0.7-5.5,0-5.5,0S70.1,96.6,99.7,85.2z"/>
	<g>
		<path class="st14" d="M97.8,96.5c-0.9,0.9-2,1.5-3.2,1.8c-1.2,0.3-2.5,0.3-3.8,0c-1.3-0.4-2.5-1.2-3.3-2.3c-0.8-1.1-1-2.5-0.8-3.7
			c1,0.8,1.7,1.6,2.5,2c0.8,0.5,1.6,0.8,2.4,1c0.9,0.2,1.8,0.4,2.8,0.6C95.5,96,96.6,96.2,97.8,96.5z"/>
	</g>
	<g>
		<path class="st14" d="M77.2,95.1c-1.1,0-2-0.1-2.9-0.1c-0.8-0.1-1.6-0.1-2.2,0c-0.6,0.1-1.2,0.2-1.9,0.5c-0.4,0.1-0.7,0.4-1.1,0.6
			c-0.4,0.2-0.8,0.5-1.3,0.8c-0.2-1.1,0.1-2.2,0.8-3.2c0.7-1,1.9-1.7,3.2-1.8c1.2-0.1,2.4,0.2,3.3,0.8C76,93.3,76.8,94,77.2,95.1z"
			/>
	</g>
</g>
<g>
	<defs>
		<path id="SVGID_1_" d="M92,71c-44.2,0-80,35.8-80,80s35.8,80,80,80s80-35.8,80-80S136.2,71,92,71L92,71z"/>
	</defs>
	<clipPath id="SVGID_2_">
		<use xlink:href="#SVGID_1_"  style="overflow:visible;"/>
	</clipPath>
	<path class="st15" d="M26.3,212.7c0,0,19.8,27.9,39.4,33.3l0.2-9.2c0,0-10.8-8.7-20.8-23.7S26.3,212.7,26.3,212.7z"/>
	<path class="st16" d="M126.2,162.2c0,0-1.7,51.2-5,77.2c0,0-12.7,5.7-32.9,4.9c-14.3-0.6-18.4-3.6-18.4-3.6l-23.3-86.5
		c0,0,13.1-2.7,34.9-2.7l10.1,9.4c0,0,2.7-7.3,8.2-8.7c8.2,0.6,17.2,1.5,26.7,3.1L126.2,162.2z"/>
	<g class="st17">
		<polygon class="st7" points="45.2,213.1 64.3,159.9 46.6,154.1 26.4,211.5 		"/>
	</g>
	<polygon class="st18" points="91.6,160.7 89,151.6 83.1,154.3 	"/>
	<polygon class="st18" points="92.3,152.4 91.6,160.7 96.3,154.9 	"/>
	<path class="st19" d="M87.2,154.8c0,0,3,0.7,6.8,0.3l3.2,3.8l-2.8,4.1l11,64l-8.5,8.5l-10.4-7.4l2.4-64.7l-3.5-5L87.2,154.8z"/>
	<polygon class="st20" points="105.4,151.9 98.3,161.5 92.3,152.4 101.7,146.2 	"/>
	<polygon class="st20" points="74.9,150.6 83.9,160.9 89,151.6 78.5,144.9 	"/>
	<polygon class="st20" points="48.6,207 26.8,203.3 23.3,212.1 47.1,216.2 	"/>
</g>
</svg>
