<?xml version="1.0" encoding="utf-8"?>
<!-- Generator: Adobe Illustrator 21.1.0, SVG Export Plug-In . SVG Version: 6.00 Build 0)  -->
<svg version="1.1" id="BACKGROUND" xmlns="http://www.w3.org/2000/svg" xmlns:xlink="http://www.w3.org/1999/xlink" x="0px" y="0px"
	 viewBox="0 0 831.6 411.1" style="enable-background:new 0 0 831.6 411.1;" xml:space="preserve">
<style type="text/css">
	.st0{opacity:0.17;fill:#10A9EA;enable-background:new    ;}
	.st1{clip-path:url(#SVGID_2_);fill:#30C1FF;}
	.st2{clip-path:url(#SVGID_4_);fill:#FDFDFD;}
	.st3{opacity:0.4;clip-path:url(#SVGID_6_);fill:url(#SVGID_7_);enable-background:new    ;}
	.st4{clip-path:url(#SVGID_9_);}
	
		.st5{opacity:0.48;fill:none;stroke:#8AE7E1;stroke-width:5;stroke-linecap:round;stroke-linejoin:round;stroke-miterlimit:10;enable-background:new    ;}
	.st6{clip-path:url(#SVGID_11_);fill:#30C1FF;}
	.st7{clip-path:url(#SVGID_13_);fill:#FDFDFD;}
	.st8{opacity:0.4;clip-path:url(#SVGID_15_);fill:url(#SVGID_16_);enable-background:new    ;}
	.st9{clip-path:url(#SVGID_18_);}
	.st10{fill:#30C1FF;}
	.st11{fill:#FDFDFD;}
	.st12{opacity:0.4;fill:url(#SVGID_19_);enable-background:new    ;}
	.st13{clip-path:url(#SVGID_21_);}
	.st14{fill:#FF7500;}
	.st15{opacity:0.4;fill:url(#SVGID_22_);enable-background:new    ;}
	.st16{clip-path:url(#SVGID_24_);fill:#3D99C8;}
	.st17{opacity:0.3;clip-path:url(#SVGID_26_);fill:#2F4863;enable-background:new    ;}
	.st18{fill:#3D99C8;}
	.st19{opacity:0.3;fill:#2F4863;enable-background:new    ;}
	.st20{opacity:7.000000e-02;fill:#10A9EA;enable-background:new    ;}
</style>
<path class="st0" d="M772.1,365l-116-116.8c-4.3-4.3-11.3-4.3-15.6,0l0,0L630,258.8c-10.2,10.3-26.9,10.4-37.3,0.2
	c-0.1-0.1-0.1-0.1-0.2-0.2l-32.8-33c-4.3-4.3-11.3-4.3-15.6,0l0,0l-64.7,65.1c-10.2,10.3-26.9,10.4-37.3,0.2
	c-0.1-0.1-0.1-0.1-0.2-0.2l-59.7-60c-4.3-4.3-11.3-4.3-15.6,0l0,0L351,246.5c-10.2,10.3-26.9,10.4-37.3,0.2
	c-0.1-0.1-0.1-0.1-0.2-0.2l-47-47.3c-4.3-4.3-11.3-4.3-15.6,0l0,0L134.9,316l-52.8,49H772.1z"/>
<g>
	<g>
		<g>
			<defs>
				<rect id="SVGID_1_" width="831.6" height="363.1"/>
			</defs>
			<clipPath id="SVGID_2_">
				<use xlink:href="#SVGID_1_"  style="overflow:visible;"/>
			</clipPath>
			<path class="st1" d="M904.5,371.1L681.7,148.3c-8.3-8.3-21.8-8.3-30,0L428.9,371.1H904.5"/>
		</g>
	</g>
	<g>
		<g>
			<defs>
				<rect id="SVGID_3_" width="831.6" height="363.1"/>
			</defs>
			<clipPath id="SVGID_4_">
				<use xlink:href="#SVGID_3_"  style="overflow:visible;"/>
			</clipPath>
			<path class="st2" d="M681.7,148.3c-8.3-8.3-21.8-8.3-30,0l-81.2,81.2c12,6.5,27,4.3,36.6-5.6l8.7-8.9c2.5-2.6,6-3.9,9.6-3.6l0,0
				c6.8,0.6,11.8,6.7,11,13.5l0,0c-0.8,6.7,4.4,12.5,11.1,12.5h1.4c6.3,0,11.5-4.7,12.3-10.9l3.1-25.8c0.6-4.7,4.2-8.4,8.8-9
				c4.7-0.7,9.2,1.9,11.1,6.3l3.4,8.2c2.2,5.2,8.5,7.3,13.3,4.2c3.1-2,4.8-5.7,4.1-9.3l-2.5-10.2c-0.6-2.5,0.8-5.1,3.3-5.9
				c1.9-0.6,3.9,0,5.2,1.5l25.8,30.9c6.2,7.4,15.4,11.1,24.6,10.5L681.7,148.3z"/>
		</g>
	</g>
	<g>
		<g>
			<defs>
				<rect id="SVGID_5_" width="831.6" height="363.1"/>
			</defs>
			<clipPath id="SVGID_6_">
				<use xlink:href="#SVGID_5_"  style="overflow:visible;"/>
			</clipPath>
			
				<linearGradient id="SVGID_7_" gradientUnits="userSpaceOnUse" x1="659.5925" y1="419.3892" x2="706.4786" y2="140.418" gradientTransform="matrix(1 0 0 1 0 -6)">
				<stop  offset="0" style="stop-color:#2E5776"/>
				<stop  offset="1" style="stop-color:#2E5776;stop-opacity:0"/>
			</linearGradient>
			<path class="st3" d="M873.1,339.7c-305.5,28.8-221.4-191.4-221.4-191.4L428.9,371.1h475.6"/>
		</g>
	</g>
	<g>
		<g>
			<defs>
				<rect id="SVGID_8_" width="831.6" height="363.1"/>
			</defs>
			<clipPath id="SVGID_9_">
				<use xlink:href="#SVGID_8_"  style="overflow:visible;"/>
			</clipPath>
			<g class="st4">
				<line class="st5" x1="761.9" y1="240.7" x2="779.7" y2="258.5"/>
				<line class="st5" x1="768.9" y1="263.6" x2="778.4" y2="273.1"/>
				<line class="st5" x1="714.2" y1="214" x2="723.8" y2="223.5"/>
				<line class="st5" x1="747.6" y1="253.3" x2="750.9" y2="256.6"/>
				<line class="st5" x1="723.8" y1="249" x2="727.1" y2="252.4"/>
				<line class="st5" x1="729.7" y1="295.7" x2="733.1" y2="299"/>
				<line class="st5" x1="743.7" y1="232.9" x2="747.1" y2="236.3"/>
			</g>
		</g>
	</g>
	<g>
		<g>
			<defs>
				<rect id="SVGID_10_" width="831.6" height="363.1"/>
			</defs>
			<clipPath id="SVGID_11_">
				<use xlink:href="#SVGID_10_"  style="overflow:visible;"/>
			</clipPath>
			<path class="st6" d="M283.4,366.9h370L480.1,193.6c-6.4-6.4-16.9-6.4-23.3,0L283.4,366.9"/>
		</g>
	</g>
	<g>
		<g>
			<defs>
				<rect id="SVGID_12_" width="831.6" height="363.1"/>
			</defs>
			<clipPath id="SVGID_13_">
				<use xlink:href="#SVGID_12_"  style="overflow:visible;"/>
			</clipPath>
			<path class="st7" d="M389.5,260.8l2.4,1.4c7.4,4.2,16.6,3,22.7-3l21.1-20.9c2-2,5.1-2.7,7.8-1.7c3.8,1.4,5.9,5.5,4.6,9.4
				l-5.5,16.8c-1.5,4.6,1.6,9.5,6.4,10l0,0c3.2,0.4,6.3-1.3,7.7-4.2l8.6-16.9c1.6-3.2,5.1-5.1,8.7-4.7c3.8,0.4,6.9,3.3,7.6,7l1,5.5
				c0.8,4.2,4.8,7.1,9,6.5l0,0c4.3-0.6,7.4-4.4,7-8.8l-0.8-8.5c-0.3-3.3,1.9-6.3,5.1-7.1c3-0.7,6.1,0.6,7.6,3.3l9,16.6
				c1.3,2.3,4.1,3.2,6.5,2.1c2.3-1.1,3.4-3.8,2.5-6.2l-2.7-7c-1.3-3.3-0.6-6.9,1.6-9.5l-47.3-47.3c-6.4-6.4-16.9-6.4-23.3,0
				L389.5,260.8z"/>
		</g>
	</g>
	<g>
		<g>
			<defs>
				<rect id="SVGID_14_" width="831.6" height="363.1"/>
			</defs>
			<clipPath id="SVGID_15_">
				<use xlink:href="#SVGID_14_"  style="overflow:visible;"/>
			</clipPath>
			
				<linearGradient id="SVGID_16_" gradientUnits="userSpaceOnUse" x1="461.7641" y1="406.9334" x2="498.4759" y2="188.4987" gradientTransform="matrix(1 0 0 1 0 -6)">
				<stop  offset="0" style="stop-color:#2E5776"/>
				<stop  offset="1" style="stop-color:#2E5776;stop-opacity:0"/>
			</linearGradient>
			<path class="st8" d="M281.4,367.9l372-1L629,342.5c-237.6,22.4-172.2-148.9-172.2-148.9L281.4,367.9"/>
		</g>
	</g>
	<g>
		<g>
			<defs>
				<rect id="SVGID_17_" width="831.6" height="363.1"/>
			</defs>
			<clipPath id="SVGID_18_">
				<use xlink:href="#SVGID_17_"  style="overflow:visible;"/>
			</clipPath>
			<g class="st9">
				<g>
					<g>
						<path class="st10" d="M400.6,364.8L273.4,237.6c-4.7-4.7-12.4-4.7-17.1,0L129,364.8H400.6z"/>
					</g>
				</g>
				<g>
					<line class="st5" x1="315" y1="289.4" x2="330.5" y2="305"/>
					<line class="st5" x1="345.5" y1="318.9" x2="361.1" y2="334.5"/>
					<line class="st5" x1="368" y1="341.3" x2="380.3" y2="353.7"/>
					<line class="st5" x1="321.1" y1="309.4" x2="329.4" y2="317.8"/>
					<line class="st5" x1="282" y1="265.5" x2="290.3" y2="273.9"/>
					<line class="st5" x1="340.5" y1="327" x2="348.9" y2="335.4"/>
					<line class="st5" x1="331.6" y1="333.2" x2="334.6" y2="336.1"/>
					<line class="st5" x1="308.4" y1="298.6" x2="311.3" y2="301.5"/>
					<line class="st5" x1="299.1" y1="282.6" x2="302" y2="285.6"/>
					<line class="st5" x1="360.4" y1="348.9" x2="369.8" y2="358.4"/>
				</g>
				<path class="st11" d="M221.1,286.7l10.3-9.1c1.9-1.7,4.6-1.9,6.8-0.6c2.1,1.3,3.2,3.9,2.5,6.3l-0.9,3.2
					c-0.9,3.3,1.2,6.6,4.5,7.2c3.1,0.6,6.1-1.4,6.8-4.4l3.3-14c0.4-1.8,2-3.1,3.8-3.2c2-0.1,3.8,1.4,4.2,3.4l4.4,24.7
					c0.4,2.4,2.7,4.1,5.1,3.9l0,0c2.6-0.2,4.6-2.6,4.3-5.2l-1.7-16.1c-0.2-1.9,1-3.6,2.8-4.1c1.9-0.5,3.8,0.5,4.5,2.3l2.9,7.2
					c1,2.5,3.7,3.7,6.2,2.8c2.7-1,4-4,2.9-6.6l-9.6-21.8c-0.6-1.4-0.1-3.1,1.3-3.8c1.2-0.7,2.7-0.4,3.7,0.6c2.2,2.4,5.4,3.3,8.5,2.7
					l-24.4-24.4c-4.7-4.7-12.4-4.7-17.1,0l-51,51C210.3,291.4,216.7,290.7,221.1,286.7z"/>
				
					<linearGradient id="SVGID_19_" gradientUnits="userSpaceOnUse" x1="261.9021" y1="376.0524" x2="300.5969" y2="305.918" gradientTransform="matrix(1 0 0 1 0 -6)">
					<stop  offset="0" style="stop-color:#2E5776"/>
					<stop  offset="1" style="stop-color:#2E5776;stop-opacity:0"/>
				</linearGradient>
				<path class="st12" d="M400.6,364.8l-17.9-17.9c-174.4,16.5-126.4-109.3-126.4-109.3L129,364.8H400.6z"/>
			</g>
		</g>
	</g>
	<g>
		<g>
			<defs>
				<rect id="SVGID_20_" width="831.6" height="363.1"/>
			</defs>
			<clipPath id="SVGID_21_">
				<use xlink:href="#SVGID_20_"  style="overflow:visible;"/>
			</clipPath>
			<g class="st13">
				<path class="st14" d="M14.7,370H219l-95.7-95.7c-3.5-3.5-9.3-3.5-12.9,0L14.7,370"/>
				<path class="st11" d="M73.3,311.4l1.3,0.7c4.1,2.3,9.2,1.6,12.5-1.7l11.7-11.6c1.1-1.1,2.8-1.5,4.3-1c2.1,0.7,3.3,3.1,2.6,5.2
					l-3,9.3c-0.8,2.6,0.9,5.2,3.6,5.5l0,0c1.8,0.2,3.5-0.7,4.3-2.3l4.7-9.3c0.9-1.8,2.8-2.8,4.8-2.6c2.1,0.2,3.8,1.8,4.2,3.9l0.6,3
					c0.4,2.3,2.6,3.9,5,3.6l0,0c2.4-0.3,4.1-2.5,3.9-4.8l-0.4-4.7c-0.2-1.8,1-3.5,2.8-3.9c1.6-0.4,3.4,0.3,4.2,1.8l4.9,9.2
					c0.7,1.3,2.3,1.8,3.6,1.2c1.3-0.6,1.9-2.1,1.4-3.4l-1.5-3.9c-0.7-1.8-0.3-3.8,0.9-5.2l-26.1-26.1c-3.5-3.5-9.3-3.5-12.9,0
					L73.3,311.4z"/>
				
					<linearGradient id="SVGID_22_" gradientUnits="userSpaceOnUse" x1="113.1837" y1="394.7922" x2="133.4521" y2="274.1951" gradientTransform="matrix(1 0 0 1 0 -6)">
					<stop  offset="0" style="stop-color:#2E5776"/>
					<stop  offset="1" style="stop-color:#2E5776;stop-opacity:0"/>
				</linearGradient>
				<path class="st15" d="M13.6,370.5L219,370l-13.5-13.5c-131.2,12.4-95.1-82.2-95.1-82.2L13.6,370.5"/>
			</g>
		</g>
	</g>
</g>
<g>
	<g>
		<g>
			<g>
				<defs>
					<rect id="SVGID_23_" x="604.9" y="205.5" width="226.7" height="195.6"/>
				</defs>
				<clipPath id="SVGID_24_">
					<use xlink:href="#SVGID_23_"  style="overflow:visible;"/>
				</clipPath>
				<path class="st16" d="M836.1,367.5c-0.2-0.8-0.3-1.6-0.5-2.4c-0.2-0.6-0.4-1.1-0.8-1.6c0.2-0.3,0.3-0.6,0.2-0.9
					c-0.2-0.8-0.4-1.6-0.6-2.4c-0.2-0.6-0.5-1.2-0.9-1.8c0.2-0.3,0.3-0.7,0.2-1c-0.2-0.8-0.4-1.6-0.6-2.4c-0.2-0.6-0.5-1.3-0.8-1.8
					c0.2-0.3,0.3-0.6,0.2-1c-0.2-0.8-0.3-1.6-0.5-2.4c-0.2-0.6-0.4-1.3-0.7-1.9c0.2-0.3,0.2-0.6,0.2-1c-0.1-0.8-0.2-1.6-0.4-2.4
					c-0.6-3.8-3.7-7-7.8-7l0,0c-4,0-7.2,3.2-7.8,7c-0.1,0.8-0.2,1.6-0.4,2.4c-0.1,0.4,0,0.7,0.2,1c-0.3,0.6-0.5,1.2-0.7,1.9
					c-0.2,0.8-0.3,1.6-0.5,2.4c-0.1,0.4,0,0.7,0.2,1c-0.4,0.6-0.6,1.2-0.8,1.8c-0.2,0.8-0.4,1.6-0.6,2.4c-0.1,0.4,0,0.7,0.2,1
					c-0.4,0.6-0.7,1.2-0.9,1.8c-0.2,0.8-0.4,1.6-0.6,2.4c-0.1,0.3,0,0.6,0.2,0.9c-0.4,0.5-0.6,1.1-0.8,1.6c-0.2,0.8-0.3,1.6-0.5,2.4
					c-0.2,0.9,1,2,2.7,2.2c1.9,0.3,3.6-0.4,3.7-1.5c-0.1,1,1.2,2,3,2c1.8,0.1,3.3-0.8,3.3-1.8c0,1,1.5,1.9,3.3,1.8s3.2-1,3-2
					c0.1,1.1,1.8,1.8,3.7,1.5C835.1,369.5,836.3,368.4,836.1,367.5z"/>
			</g>
		</g>
		<g>
			<g>
				<defs>
					<rect id="SVGID_25_" x="604.9" y="205.5" width="226.7" height="195.6"/>
				</defs>
				<clipPath id="SVGID_26_">
					<use xlink:href="#SVGID_25_"  style="overflow:visible;"/>
				</clipPath>
				<path class="st17" d="M823.4,368.5c0,1,1.5,1.9,3.3,1.8s3.2-1,3-2c0.1,1.1,1.8,1.8,3.7,1.5c1.7-0.3,2.9-1.3,2.7-2.2
					c-0.2-0.8-0.3-1.6-0.5-2.4c-0.2-0.6-0.4-1.1-0.8-1.6c0.2-0.3,0.3-0.6,0.2-0.9l0,0c-2.4,0.8-6,1.3-10.3-0.6
					c-6.4-3-3.6-19.5-2.7-24.2c-3.3,0.6-5.9,3.5-6.4,6.9c-0.1,0.8-0.2,1.6-0.4,2.4c-0.1,0.4,0,0.7,0.2,1c-0.3,0.6-0.5,1.2-0.7,1.9
					c-0.2,0.8-0.3,1.6-0.5,2.4c-0.1,0.4,0,0.7,0.2,1c-0.4,0.6-0.6,1.2-0.8,1.8c-0.2,0.8-0.4,1.6-0.6,2.4c-0.1,0.4,0,0.7,0.2,1
					c-0.4,0.6-0.7,1.2-0.9,1.8c-0.2,0.8-0.4,1.6-0.6,2.4c-0.1,0.3,0,0.6,0.2,0.9c-0.4,0.5-0.6,1.1-0.8,1.6c-0.2,0.8-0.3,1.6-0.5,2.4
					c-0.2,0.9,1,2,2.7,2.2c1.9,0.3,3.6-0.4,3.7-1.5c-0.1,1,1.2,2,3,2C821.9,370.4,823.4,369.6,823.4,368.5z"/>
			</g>
		</g>
	</g>
</g>
<g>
	<path class="st18" d="M349,367.5c-0.2-0.8-0.3-1.6-0.5-2.4c-0.2-0.6-0.4-1.1-0.8-1.6c0.2-0.3,0.3-0.6,0.2-0.9
		c-0.2-0.8-0.4-1.6-0.6-2.4c-0.2-0.6-0.5-1.2-0.9-1.8c0.2-0.3,0.3-0.7,0.2-1c-0.2-0.8-0.4-1.6-0.6-2.4c-0.2-0.6-0.5-1.3-0.8-1.8
		c0.2-0.3,0.3-0.6,0.2-1c-0.2-0.8-0.3-1.6-0.5-2.4c-0.2-0.6-0.4-1.3-0.7-1.9c0.2-0.3,0.2-0.6,0.2-1c-0.1-0.8-0.2-1.6-0.4-2.4
		c-0.6-3.8-3.7-7-7.8-7l0,0c-4,0-7.2,3.2-7.8,7c-0.1,0.8-0.2,1.6-0.4,2.4c-0.1,0.4,0,0.7,0.2,1c-0.3,0.6-0.5,1.2-0.7,1.9
		c-0.2,0.8-0.3,1.6-0.5,2.4c-0.1,0.4,0,0.7,0.2,1c-0.4,0.6-0.6,1.2-0.8,1.8c-0.2,0.8-0.4,1.6-0.6,2.4c-0.1,0.4,0,0.7,0.2,1
		c-0.4,0.6-0.7,1.2-0.9,1.8c-0.2,0.8-0.4,1.6-0.6,2.4c-0.1,0.3,0,0.6,0.2,0.9c-0.4,0.5-0.6,1.1-0.8,1.6c-0.2,0.8-0.3,1.6-0.5,2.4
		c-0.2,0.9,1,2,2.7,2.2c1.9,0.3,3.6-0.4,3.7-1.5c-0.1,1,1.2,2,3,2c1.8,0.1,3.3-0.8,3.3-1.8c0,1,1.5,1.9,3.3,1.8s3.2-1,3-2
		c0.1,1.1,1.8,1.8,3.7,1.5C348,369.5,349.2,368.4,349,367.5z"/>
	<path class="st19" d="M336.3,368.5c0,1,1.5,1.9,3.3,1.8s3.2-1,3-2c0.1,1.1,1.8,1.8,3.7,1.5c1.7-0.3,2.9-1.3,2.7-2.2
		c-0.2-0.8-0.3-1.6-0.5-2.4c-0.2-0.6-0.4-1.1-0.8-1.6c0.2-0.3,0.3-0.6,0.2-0.9l0,0c-2.4,0.8-6,1.3-10.3-0.6
		c-6.4-3-3.6-19.5-2.7-24.2c-3.3,0.6-5.9,3.5-6.4,6.9c-0.1,0.8-0.2,1.6-0.4,2.4c-0.1,0.4,0,0.7,0.2,1c-0.3,0.6-0.5,1.2-0.7,1.9
		c-0.2,0.8-0.3,1.6-0.5,2.4c-0.1,0.4,0,0.7,0.2,1c-0.4,0.6-0.6,1.2-0.8,1.8c-0.2,0.8-0.4,1.6-0.6,2.4c-0.1,0.4,0,0.7,0.2,1
		c-0.4,0.6-0.7,1.2-0.9,1.8c-0.2,0.8-0.4,1.6-0.6,2.4c-0.1,0.3,0,0.6,0.2,0.9c-0.4,0.5-0.6,1.1-0.8,1.6c-0.2,0.8-0.3,1.6-0.5,2.4
		c-0.2,0.9,1,2,2.7,2.2c1.9,0.3,3.6-0.4,3.7-1.5c-0.1,1,1.2,2,3,2C334.9,370.4,336.3,369.6,336.3,368.5z"/>
</g>
<g>
	<path class="st18" d="M367,367.7c-0.2-0.8-0.3-1.6-0.5-2.4c-0.2-0.6-0.4-1.1-0.8-1.6c0.2-0.3,0.3-0.6,0.2-0.9
		c-0.2-0.8-0.4-1.6-0.6-2.4c-0.2-0.6-0.5-1.2-0.9-1.8c0.2-0.3,0.3-0.7,0.2-1c-0.2-0.8-0.4-1.6-0.6-2.4c-0.2-0.6-0.5-1.3-0.8-1.8
		c0.2-0.3,0.3-0.6,0.2-1c-0.2-0.8-0.3-1.6-0.5-2.4c-0.2-0.6-0.4-1.3-0.7-1.9c0.2-0.3,0.2-0.6,0.2-1c-0.1-0.8-0.2-1.6-0.4-2.4
		c-0.6-3.8-3.7-7-7.8-7l0,0c-4,0-7.2,3.2-7.8,7c-0.1,0.8-0.2,1.6-0.4,2.4c-0.1,0.4,0,0.7,0.2,1c-0.3,0.6-0.5,1.2-0.7,1.9
		c-0.2,0.8-0.3,1.6-0.5,2.4c-0.1,0.4,0,0.7,0.2,1c-0.4,0.6-0.6,1.2-0.8,1.8c-0.2,0.8-0.4,1.6-0.6,2.4c-0.1,0.4,0,0.7,0.2,1
		c-0.4,0.6-0.7,1.2-0.9,1.8c-0.2,0.8-0.4,1.6-0.6,2.4c-0.1,0.3,0,0.6,0.2,0.9c-0.4,0.5-0.6,1.1-0.8,1.6c-0.2,0.8-0.3,1.6-0.5,2.4
		c-0.2,0.9,1,2,2.7,2.2c1.9,0.3,3.6-0.4,3.7-1.5c-0.1,1,1.2,2,3,2c1.8,0.1,3.3-0.8,3.3-1.8c0,1,1.5,1.9,3.3,1.8s3.2-1,3-2
		c0.1,1.1,1.8,1.8,3.7,1.5C366,369.7,367.2,368.6,367,367.7z"/>
	<path class="st19" d="M354.3,368.7c0,1,1.5,1.9,3.3,1.8s3.2-1,3-2c0.1,1.1,1.8,1.8,3.7,1.5c1.7-0.3,2.9-1.3,2.7-2.2
		c-0.2-0.8-0.3-1.6-0.5-2.4c-0.2-0.6-0.4-1.1-0.8-1.6c0.2-0.3,0.3-0.6,0.2-0.9l0,0c-2.4,0.8-6,1.3-10.3-0.6
		c-6.4-3-3.6-19.5-2.7-24.2c-3.3,0.6-5.9,3.5-6.4,6.9c-0.1,0.8-0.2,1.6-0.4,2.4c-0.1,0.4,0,0.7,0.2,1c-0.3,0.6-0.5,1.2-0.7,1.9
		c-0.2,0.8-0.3,1.6-0.5,2.4c-0.1,0.4,0,0.7,0.2,1c-0.4,0.6-0.6,1.2-0.8,1.8c-0.2,0.8-0.4,1.6-0.6,2.4c-0.1,0.4,0,0.7,0.2,1
		c-0.4,0.6-0.7,1.2-0.9,1.8c-0.2,0.8-0.4,1.6-0.6,2.4c-0.1,0.3,0,0.6,0.2,0.9c-0.4,0.5-0.6,1.1-0.8,1.6c-0.2,0.8-0.3,1.6-0.5,2.4
		c-0.2,0.9,1,2,2.7,2.2c1.9,0.3,3.6-0.4,3.7-1.5c-0.1,1,1.2,2,3,2C352.9,370.6,354.3,369.8,354.3,368.7z"/>
</g>
<g>
	<path class="st18" d="M403.5,368.5c-0.2-0.8-0.3-1.6-0.5-2.4c-0.2-0.6-0.4-1.1-0.8-1.6c0.2-0.3,0.3-0.6,0.2-0.9
		c-0.2-0.8-0.4-1.6-0.6-2.4c-0.2-0.6-0.5-1.2-0.9-1.8c0.2-0.3,0.3-0.7,0.2-1c-0.2-0.8-0.4-1.6-0.6-2.4c-0.2-0.6-0.5-1.3-0.8-1.8
		c0.2-0.3,0.3-0.6,0.2-1c-0.2-0.8-0.3-1.6-0.5-2.4c-0.2-0.6-0.4-1.3-0.7-1.9c0.2-0.3,0.2-0.6,0.2-1c-0.1-0.8-0.2-1.6-0.4-2.4
		c-0.6-3.8-3.7-7-7.8-7l0,0c-4,0-7.2,3.2-7.8,7c-0.1,0.8-0.2,1.6-0.4,2.4c-0.1,0.4,0,0.7,0.2,1c-0.3,0.6-0.5,1.2-0.7,1.9
		c-0.2,0.8-0.3,1.6-0.5,2.4c-0.1,0.4,0,0.7,0.2,1c-0.4,0.6-0.6,1.2-0.8,1.8c-0.2,0.8-0.4,1.6-0.6,2.4c-0.1,0.4,0,0.7,0.2,1
		c-0.4,0.6-0.7,1.2-0.9,1.8c-0.2,0.8-0.4,1.6-0.6,2.4c-0.1,0.3,0,0.6,0.2,0.9c-0.4,0.5-0.6,1.1-0.8,1.6c-0.2,0.8-0.3,1.6-0.5,2.4
		c-0.2,0.9,1,2,2.7,2.2c1.9,0.3,3.6-0.4,3.7-1.5c-0.1,1,1.2,2,3,2c1.8,0.1,3.3-0.8,3.3-1.8c0,1,1.5,1.9,3.3,1.8s3.2-1,3-2
		c0.1,1.1,1.8,1.8,3.7,1.5C402.5,370.5,403.7,369.4,403.5,368.5z"/>
	<path class="st19" d="M390.8,369.5c0,1,1.5,1.9,3.3,1.8s3.2-1,3-2c0.1,1.1,1.8,1.8,3.7,1.5c1.7-0.3,2.9-1.3,2.7-2.2
		c-0.2-0.8-0.3-1.6-0.5-2.4c-0.2-0.6-0.4-1.1-0.8-1.6c0.2-0.3,0.3-0.6,0.2-0.9l0,0c-2.4,0.8-6,1.3-10.3-0.6
		c-6.4-3-3.6-19.5-2.7-24.2c-3.3,0.6-5.9,3.5-6.4,6.9c-0.1,0.8-0.2,1.6-0.4,2.4c-0.1,0.4,0,0.7,0.2,1c-0.3,0.6-0.5,1.2-0.7,1.9
		c-0.2,0.8-0.3,1.6-0.5,2.4c-0.1,0.4,0,0.7,0.2,1c-0.4,0.6-0.6,1.2-0.8,1.8c-0.2,0.8-0.4,1.6-0.6,2.4c-0.1,0.4,0,0.7,0.2,1
		c-0.4,0.6-0.7,1.2-0.9,1.8c-0.2,0.8-0.4,1.6-0.6,2.4c-0.1,0.3,0,0.6,0.2,0.9c-0.4,0.5-0.6,1.1-0.8,1.6c-0.2,0.8-0.3,1.6-0.5,2.4
		c-0.2,0.9,1,2,2.7,2.2c1.9,0.3,3.6-0.4,3.7-1.5c-0.1,1,1.2,2,3,2C389.4,371.4,390.8,370.5,390.8,369.5z"/>
</g>
<g>
	<path class="st18" d="M423.5,371.1c-0.2-0.8-0.3-1.6-0.5-2.4c-0.2-0.6-0.4-1.1-0.8-1.6c0.2-0.3,0.3-0.6,0.2-0.9
		c-0.2-0.8-0.4-1.6-0.6-2.4c-0.2-0.6-0.5-1.2-0.9-1.8c0.2-0.3,0.3-0.7,0.2-1c-0.2-0.8-0.4-1.6-0.6-2.4c-0.2-0.6-0.5-1.3-0.8-1.8
		c0.2-0.3,0.3-0.6,0.2-1c-0.2-0.8-0.3-1.6-0.5-2.4c-0.2-0.6-0.4-1.3-0.7-1.9c0.2-0.3,0.2-0.6,0.2-1c-0.1-0.8-0.2-1.6-0.4-2.4
		c-0.6-3.8-3.7-7-7.8-7l0,0c-4,0-7.2,3.2-7.8,7c-0.1,0.8-0.2,1.6-0.4,2.4c-0.1,0.4,0,0.7,0.2,1c-0.3,0.6-0.5,1.2-0.7,1.9
		c-0.2,0.8-0.3,1.6-0.5,2.4c-0.1,0.4,0,0.7,0.2,1c-0.4,0.6-0.6,1.2-0.8,1.8c-0.2,0.8-0.4,1.6-0.6,2.4c-0.1,0.4,0,0.7,0.2,1
		c-0.4,0.6-0.7,1.2-0.9,1.8c-0.2,0.8-0.4,1.6-0.6,2.4c-0.1,0.3,0,0.6,0.2,0.9c-0.4,0.5-0.6,1.1-0.8,1.6c-0.2,0.8-0.3,1.6-0.5,2.4
		c-0.2,0.9,1,2,2.7,2.2c1.9,0.3,3.6-0.4,3.7-1.5c-0.1,1,1.2,2,3,2c1.8,0.1,3.3-0.8,3.3-1.8c0,1,1.5,1.9,3.3,1.8s3.2-1,3-2
		c0.1,1.1,1.8,1.8,3.7,1.5C422.5,373,423.7,372,423.5,371.1z"/>
	<path class="st19" d="M410.8,372.1c0,1,1.5,1.9,3.3,1.8s3.2-1,3-2c0.1,1.1,1.8,1.8,3.7,1.5c1.7-0.3,2.9-1.3,2.7-2.2
		c-0.2-0.8-0.3-1.6-0.5-2.4c-0.2-0.6-0.4-1.1-0.8-1.6c0.2-0.3,0.3-0.6,0.2-0.9l0,0c-2.4,0.8-6,1.3-10.3-0.6
		c-6.4-3-3.6-19.5-2.7-24.2c-3.3,0.6-5.9,3.5-6.4,6.9c-0.1,0.8-0.2,1.6-0.4,2.4c-0.1,0.4,0,0.7,0.2,1c-0.3,0.6-0.5,1.2-0.7,1.9
		c-0.2,0.8-0.3,1.6-0.5,2.4c-0.1,0.4,0,0.7,0.2,1c-0.4,0.6-0.6,1.2-0.8,1.8c-0.2,0.8-0.4,1.6-0.6,2.4c-0.1,0.4,0,0.7,0.2,1
		c-0.4,0.6-0.7,1.2-0.9,1.8c-0.2,0.8-0.4,1.6-0.6,2.4c-0.1,0.3,0,0.6,0.2,0.9c-0.4,0.5-0.6,1.1-0.8,1.6c-0.2,0.8-0.3,1.6-0.5,2.4
		c-0.2,0.9,1,2,2.7,2.2c1.9,0.3,3.6-0.4,3.7-1.5c-0.1,1,1.2,2,3,2C409.4,374,410.8,373.1,410.8,372.1z"/>
</g>
<g>
	<path class="st18" d="M437.3,376c-0.2-0.8-0.3-1.6-0.5-2.4c-0.2-0.6-0.4-1.1-0.8-1.6c0.2-0.3,0.3-0.6,0.2-0.9
		c-0.2-0.8-0.4-1.6-0.6-2.4c-0.2-0.6-0.5-1.2-0.9-1.8c0.2-0.3,0.3-0.7,0.2-1c-0.2-0.8-0.4-1.6-0.6-2.4c-0.2-0.6-0.5-1.3-0.8-1.8
		c0.2-0.3,0.3-0.6,0.2-1c-0.2-0.8-0.3-1.6-0.5-2.4c-0.2-0.6-0.4-1.3-0.7-1.9c0.2-0.3,0.2-0.6,0.2-1c-0.1-0.8-0.2-1.6-0.4-2.4
		c-0.6-3.8-3.7-7-7.8-7l0,0c-4,0-7.2,3.2-7.8,7c-0.1,0.8-0.2,1.6-0.4,2.4c-0.1,0.4,0,0.7,0.2,1c-0.3,0.6-0.5,1.2-0.7,1.9
		c-0.2,0.8-0.3,1.6-0.5,2.4c-0.1,0.4,0,0.7,0.2,1c-0.4,0.6-0.6,1.2-0.8,1.8c-0.2,0.8-0.4,1.6-0.6,2.4c-0.1,0.4,0,0.7,0.2,1
		c-0.4,0.6-0.7,1.2-0.9,1.8c-0.2,0.8-0.4,1.6-0.6,2.4c-0.1,0.3,0,0.6,0.2,0.9c-0.4,0.5-0.6,1.1-0.8,1.6c-0.2,0.8-0.3,1.6-0.5,2.4
		c-0.2,0.9,1,2,2.7,2.2c1.9,0.3,3.6-0.4,3.7-1.5c-0.1,1,1.2,2,3,2c1.8,0.1,3.3-0.8,3.3-1.8c0,1,1.5,1.9,3.3,1.8s3.2-1,3-2
		c0.1,1.1,1.8,1.8,3.7,1.5C436.3,378,437.4,376.9,437.3,376z"/>
	<path class="st19" d="M424.6,377c0,1,1.5,1.9,3.3,1.8s3.2-1,3-2c0.1,1.1,1.8,1.8,3.7,1.5c1.7-0.3,2.9-1.3,2.7-2.2
		c-0.2-0.8-0.3-1.6-0.5-2.4c-0.2-0.6-0.4-1.1-0.8-1.6c0.2-0.3,0.3-0.6,0.2-0.9l0,0c-2.4,0.8-6,1.3-10.3-0.6
		c-6.4-3-3.6-19.5-2.7-24.2c-3.3,0.6-5.9,3.5-6.4,6.9c-0.1,0.8-0.2,1.6-0.4,2.4c-0.1,0.4,0,0.7,0.2,1c-0.3,0.6-0.5,1.2-0.7,1.9
		c-0.2,0.8-0.3,1.6-0.5,2.4c-0.1,0.4,0,0.7,0.2,1c-0.4,0.6-0.6,1.2-0.8,1.8c-0.2,0.8-0.4,1.6-0.6,2.4c-0.1,0.4,0,0.7,0.2,1
		c-0.4,0.6-0.7,1.2-0.9,1.8c-0.2,0.8-0.4,1.6-0.6,2.4c-0.1,0.3,0,0.6,0.2,0.9c-0.4,0.5-0.6,1.1-0.8,1.6c-0.2,0.8-0.3,1.6-0.5,2.4
		c-0.2,0.9,1,2,2.7,2.2c1.9,0.3,3.6-0.4,3.7-1.5c-0.1,1,1.2,2,3,2C423.1,378.9,424.6,378,424.6,377z"/>
</g>
<g>
	<path class="st18" d="M452.5,378.2c-0.2-0.8-0.3-1.6-0.5-2.4c-0.2-0.6-0.4-1.1-0.8-1.6c0.2-0.3,0.3-0.6,0.2-0.9
		c-0.2-0.8-0.4-1.6-0.6-2.4c-0.2-0.6-0.5-1.2-0.9-1.8c0.2-0.3,0.3-0.7,0.2-1c-0.2-0.8-0.4-1.6-0.6-2.4c-0.2-0.6-0.5-1.3-0.8-1.8
		c0.2-0.3,0.3-0.6,0.2-1c-0.2-0.8-0.3-1.6-0.5-2.4c-0.2-0.6-0.4-1.3-0.7-1.9c0.2-0.3,0.2-0.6,0.2-1c-0.1-0.8-0.2-1.6-0.4-2.4
		c-0.6-3.8-3.7-7-7.8-7l0,0c-4,0-7.2,3.2-7.8,7c-0.1,0.8-0.2,1.6-0.4,2.4c-0.1,0.4,0,0.7,0.2,1c-0.3,0.6-0.5,1.2-0.7,1.9
		c-0.2,0.8-0.3,1.6-0.5,2.4c-0.1,0.4,0,0.7,0.2,1c-0.4,0.6-0.6,1.2-0.8,1.8c-0.2,0.8-0.4,1.6-0.6,2.4c-0.1,0.4,0,0.7,0.2,1
		c-0.4,0.6-0.7,1.2-0.9,1.8c-0.2,0.8-0.4,1.6-0.6,2.4c-0.1,0.3,0,0.6,0.2,0.9c-0.4,0.5-0.6,1.1-0.8,1.6c-0.2,0.8-0.3,1.6-0.5,2.4
		c-0.2,0.9,1,2,2.7,2.2c1.9,0.3,3.6-0.4,3.7-1.5c-0.1,1,1.2,2,3,2c1.8,0.1,3.3-0.8,3.3-1.8c0,1,1.5,1.9,3.3,1.8s3.2-1,3-2
		c0.1,1.1,1.8,1.8,3.7,1.5C451.5,380.1,452.7,379.1,452.5,378.2z"/>
	<path class="st19" d="M439.8,379.2c0,1,1.5,1.9,3.3,1.8s3.2-1,3-2c0.1,1.1,1.8,1.8,3.7,1.5c1.7-0.3,2.9-1.3,2.7-2.2
		c-0.2-0.8-0.3-1.6-0.5-2.4c-0.2-0.6-0.4-1.1-0.8-1.6c0.2-0.3,0.3-0.6,0.2-0.9l0,0c-2.4,0.8-6,1.3-10.3-0.6
		c-6.4-3-3.6-19.5-2.7-24.2c-3.3,0.6-5.9,3.5-6.4,6.9c-0.1,0.8-0.2,1.6-0.4,2.4c-0.1,0.4,0,0.7,0.2,1c-0.3,0.6-0.5,1.2-0.7,1.9
		c-0.2,0.8-0.3,1.6-0.5,2.4c-0.1,0.4,0,0.7,0.2,1c-0.4,0.6-0.6,1.2-0.8,1.8c-0.2,0.8-0.4,1.6-0.6,2.4c-0.1,0.4,0,0.7,0.2,1
		c-0.4,0.6-0.7,1.2-0.9,1.8c-0.2,0.8-0.4,1.6-0.6,2.4c-0.1,0.3,0,0.6,0.2,0.9c-0.4,0.5-0.6,1.1-0.8,1.6c-0.2,0.8-0.3,1.6-0.5,2.4
		c-0.2,0.9,1,2,2.7,2.2c1.9,0.3,3.6-0.4,3.7-1.5c-0.1,1,1.2,2,3,2C438.4,381.1,439.8,380.2,439.8,379.2z"/>
</g>
<g>
	<path class="st18" d="M469.5,373.6c-0.2-0.8-0.3-1.6-0.5-2.4c-0.2-0.6-0.4-1.1-0.8-1.6c0.2-0.3,0.3-0.6,0.2-0.9
		c-0.2-0.8-0.4-1.6-0.6-2.4c-0.2-0.6-0.5-1.2-0.9-1.8c0.2-0.3,0.3-0.7,0.2-1c-0.2-0.8-0.4-1.6-0.6-2.4c-0.2-0.6-0.5-1.3-0.8-1.8
		c0.2-0.3,0.3-0.6,0.2-1c-0.2-0.8-0.3-1.6-0.5-2.4c-0.2-0.6-0.4-1.3-0.7-1.9c0.2-0.3,0.2-0.6,0.2-1c-0.1-0.8-0.2-1.6-0.4-2.4
		c-0.6-3.8-3.7-7-7.8-7l0,0c-4,0-7.2,3.2-7.8,7c-0.1,0.8-0.2,1.6-0.4,2.4c-0.1,0.4,0,0.7,0.2,1c-0.3,0.6-0.5,1.2-0.7,1.9
		c-0.2,0.8-0.3,1.6-0.5,2.4c-0.1,0.4,0,0.7,0.2,1c-0.4,0.6-0.6,1.2-0.8,1.8c-0.2,0.8-0.4,1.6-0.6,2.4c-0.1,0.4,0,0.7,0.2,1
		c-0.4,0.6-0.7,1.2-0.9,1.8c-0.2,0.8-0.4,1.6-0.6,2.4c-0.1,0.3,0,0.6,0.2,0.9c-0.4,0.5-0.6,1.1-0.8,1.6c-0.2,0.8-0.3,1.6-0.5,2.4
		c-0.2,0.9,1,2,2.7,2.2c1.9,0.3,3.6-0.4,3.7-1.5c-0.1,1,1.2,2,3,2c1.8,0.1,3.3-0.8,3.3-1.8c0,1,1.5,1.9,3.3,1.8s3.2-1,3-2
		c0.1,1.1,1.8,1.8,3.7,1.5C468.5,375.6,469.7,374.6,469.5,373.6z"/>
	<path class="st19" d="M456.8,374.7c0,1,1.5,1.9,3.3,1.8s3.2-1,3-2c0.1,1.1,1.8,1.8,3.7,1.5c1.7-0.3,2.9-1.3,2.7-2.2
		c-0.2-0.8-0.3-1.6-0.5-2.4c-0.2-0.6-0.4-1.1-0.8-1.6c0.2-0.3,0.3-0.6,0.2-0.9l0,0c-2.4,0.8-6,1.3-10.3-0.6
		c-6.4-3-3.6-19.5-2.7-24.2c-3.3,0.6-5.9,3.5-6.4,6.9c-0.1,0.8-0.2,1.6-0.4,2.4c-0.1,0.4,0,0.7,0.2,1c-0.3,0.6-0.5,1.2-0.7,1.9
		c-0.2,0.8-0.3,1.6-0.5,2.4c-0.1,0.4,0,0.7,0.2,1c-0.4,0.6-0.6,1.2-0.8,1.8c-0.2,0.8-0.4,1.6-0.6,2.4c-0.1,0.4,0,0.7,0.2,1
		c-0.4,0.6-0.7,1.2-0.9,1.8c-0.2,0.8-0.4,1.6-0.6,2.4c-0.1,0.3,0,0.6,0.2,0.9c-0.4,0.5-0.6,1.1-0.8,1.6c-0.2,0.8-0.3,1.6-0.5,2.4
		c-0.2,0.9,1,2,2.7,2.2c1.9,0.3,3.6-0.4,3.7-1.5c-0.1,1,1.2,2,3,2C455.4,376.5,456.8,375.7,456.8,374.7z"/>
</g>
<g>
	<path class="st18" d="M487.9,375.6c-0.2-0.8-0.3-1.6-0.5-2.4c-0.2-0.6-0.4-1.1-0.8-1.6c0.2-0.3,0.3-0.6,0.2-0.9
		c-0.2-0.8-0.4-1.6-0.6-2.4c-0.2-0.6-0.5-1.2-0.9-1.8c0.2-0.3,0.3-0.7,0.2-1c-0.2-0.8-0.4-1.6-0.6-2.4c-0.2-0.6-0.5-1.3-0.8-1.8
		c0.2-0.3,0.3-0.6,0.2-1c-0.2-0.8-0.3-1.6-0.5-2.4c-0.2-0.6-0.4-1.3-0.7-1.9c0.2-0.3,0.2-0.6,0.2-1c-0.1-0.8-0.2-1.6-0.4-2.4
		c-0.6-3.8-3.7-7-7.8-7l0,0c-4,0-7.2,3.2-7.8,7c-0.1,0.8-0.2,1.6-0.4,2.4c-0.1,0.4,0,0.7,0.2,1c-0.3,0.6-0.5,1.2-0.7,1.9
		c-0.2,0.8-0.3,1.6-0.5,2.4c-0.1,0.4,0,0.7,0.2,1c-0.4,0.6-0.6,1.2-0.8,1.8c-0.2,0.8-0.4,1.6-0.6,2.4c-0.1,0.4,0,0.7,0.2,1
		c-0.4,0.6-0.7,1.2-0.9,1.8c-0.2,0.8-0.4,1.6-0.6,2.4c-0.1,0.3,0,0.6,0.2,0.9c-0.4,0.5-0.6,1.1-0.8,1.6c-0.2,0.8-0.3,1.6-0.5,2.4
		c-0.2,0.9,1,2,2.7,2.2c1.9,0.3,3.6-0.4,3.7-1.5c-0.1,1,1.2,2,3,2c1.8,0.1,3.3-0.8,3.3-1.8c0,1,1.5,1.9,3.3,1.8s3.2-1,3-2
		c0.1,1.1,1.8,1.8,3.7,1.5C486.9,377.6,488.1,376.5,487.9,375.6z"/>
	<path class="st19" d="M475.2,376.6c0,1,1.5,1.9,3.3,1.8s3.2-1,3-2c0.1,1.1,1.8,1.8,3.7,1.5c1.7-0.3,2.9-1.3,2.7-2.2
		c-0.2-0.8-0.3-1.6-0.5-2.4c-0.2-0.6-0.4-1.1-0.8-1.6c0.2-0.3,0.3-0.6,0.2-0.9l0,0c-2.4,0.8-6,1.3-10.3-0.6
		c-6.4-3-3.6-19.5-2.7-24.2c-3.3,0.6-5.9,3.5-6.4,6.9c-0.1,0.8-0.2,1.6-0.4,2.4c-0.1,0.4,0,0.7,0.2,1c-0.3,0.6-0.5,1.2-0.7,1.9
		c-0.2,0.8-0.3,1.6-0.5,2.4c-0.1,0.4,0,0.7,0.2,1c-0.4,0.6-0.6,1.2-0.8,1.8c-0.2,0.8-0.4,1.6-0.6,2.4c-0.1,0.4,0,0.7,0.2,1
		c-0.4,0.6-0.7,1.2-0.9,1.8c-0.2,0.8-0.4,1.6-0.6,2.4c-0.1,0.3,0,0.6,0.2,0.9c-0.4,0.5-0.6,1.1-0.8,1.6c-0.2,0.8-0.3,1.6-0.5,2.4
		c-0.2,0.9,1,2,2.7,2.2c1.9,0.3,3.6-0.4,3.7-1.5c-0.1,1,1.2,2,3,2C473.8,378.5,475.2,377.7,475.2,376.6z"/>
</g>
<g>
	<path class="st18" d="M506,370.1c-0.2-0.8-0.3-1.6-0.5-2.4c-0.2-0.6-0.4-1.1-0.8-1.6c0.2-0.3,0.3-0.6,0.2-0.9
		c-0.2-0.8-0.4-1.6-0.6-2.4c-0.2-0.6-0.5-1.2-0.9-1.8c0.2-0.3,0.3-0.7,0.2-1c-0.2-0.8-0.4-1.6-0.6-2.4c-0.2-0.6-0.5-1.3-0.8-1.8
		c0.2-0.3,0.3-0.6,0.2-1c-0.2-0.8-0.3-1.6-0.5-2.4c-0.2-0.6-0.4-1.3-0.7-1.9c0.2-0.3,0.2-0.6,0.2-1c-0.1-0.8-0.2-1.6-0.4-2.4
		c-0.6-3.8-3.7-7-7.8-7l0,0c-4,0-7.2,3.2-7.8,7c-0.1,0.8-0.2,1.6-0.4,2.4c-0.1,0.4,0,0.7,0.2,1c-0.3,0.6-0.5,1.2-0.7,1.9
		c-0.2,0.8-0.3,1.6-0.5,2.4c-0.1,0.4,0,0.7,0.2,1c-0.4,0.6-0.6,1.2-0.8,1.8c-0.2,0.8-0.4,1.6-0.6,2.4c-0.1,0.4,0,0.7,0.2,1
		c-0.4,0.6-0.7,1.2-0.9,1.8c-0.2,0.8-0.4,1.6-0.6,2.4c-0.1,0.3,0,0.6,0.2,0.9c-0.4,0.5-0.6,1.1-0.8,1.6c-0.2,0.8-0.3,1.6-0.5,2.4
		c-0.2,0.9,1,2,2.7,2.2c1.9,0.3,3.6-0.4,3.7-1.5c-0.1,1,1.2,2,3,2c1.8,0.1,3.3-0.8,3.3-1.8c0,1,1.5,1.9,3.3,1.8s3.2-1,3-2
		c0.1,1.1,1.8,1.8,3.7,1.5C505,372,506.2,371,506,370.1z"/>
	<path class="st19" d="M493.3,371.1c0,1,1.5,1.9,3.3,1.8s3.2-1,3-2c0.1,1.1,1.8,1.8,3.7,1.5c1.7-0.3,2.9-1.3,2.7-2.2
		c-0.2-0.8-0.3-1.6-0.5-2.4c-0.2-0.6-0.4-1.1-0.8-1.6c0.2-0.3,0.3-0.6,0.2-0.9l0,0c-2.4,0.8-6,1.3-10.3-0.6
		c-6.4-3-3.6-19.5-2.7-24.2c-3.3,0.6-5.9,3.5-6.4,6.9c-0.1,0.8-0.2,1.6-0.4,2.4c-0.1,0.4,0,0.7,0.2,1c-0.3,0.6-0.5,1.2-0.7,1.9
		c-0.2,0.8-0.3,1.6-0.5,2.4c-0.1,0.4,0,0.7,0.2,1c-0.4,0.6-0.6,1.2-0.8,1.8c-0.2,0.8-0.4,1.6-0.6,2.4c-0.1,0.4,0,0.7,0.2,1
		c-0.4,0.6-0.7,1.2-0.9,1.8c-0.2,0.8-0.4,1.6-0.6,2.4c-0.1,0.3,0,0.6,0.2,0.9c-0.4,0.5-0.6,1.1-0.8,1.6c-0.2,0.8-0.3,1.6-0.5,2.4
		c-0.2,0.9,1,2,2.7,2.2c1.9,0.3,3.6-0.4,3.7-1.5c-0.1,1,1.2,2,3,2C491.9,373,493.3,372.1,493.3,371.1z"/>
</g>
<g>
	<path class="st18" d="M385,373.2c-0.2-0.8-0.3-1.6-0.5-2.4c-0.2-0.6-0.4-1.1-0.8-1.6c0.2-0.3,0.3-0.6,0.2-0.9
		c-0.2-0.8-0.4-1.6-0.6-2.4c-0.2-0.6-0.5-1.2-0.9-1.8c0.2-0.3,0.3-0.7,0.2-1c-0.2-0.8-0.4-1.6-0.6-2.4c-0.2-0.6-0.5-1.3-0.8-1.8
		c0.2-0.3,0.3-0.6,0.2-1c-0.2-0.8-0.3-1.6-0.5-2.4c-0.2-0.6-0.4-1.3-0.7-1.9c0.2-0.3,0.2-0.6,0.2-1c-0.1-0.8-0.2-1.6-0.4-2.4
		c-0.6-3.8-3.7-7-7.8-7l0,0c-4,0-7.2,3.2-7.8,7c-0.1,0.8-0.2,1.6-0.4,2.4c-0.1,0.4,0,0.7,0.2,1c-0.3,0.6-0.5,1.2-0.7,1.9
		c-0.2,0.8-0.3,1.6-0.5,2.4c-0.1,0.4,0,0.7,0.2,1c-0.4,0.6-0.6,1.2-0.8,1.8c-0.2,0.8-0.4,1.6-0.6,2.4c-0.1,0.4,0,0.7,0.2,1
		c-0.4,0.6-0.7,1.2-0.9,1.8c-0.2,0.8-0.4,1.6-0.6,2.4c-0.1,0.3,0,0.6,0.2,0.9c-0.4,0.5-0.6,1.1-0.8,1.6c-0.2,0.8-0.3,1.6-0.5,2.4
		c-0.2,0.9,1,2,2.7,2.2c1.9,0.3,3.6-0.4,3.7-1.5c-0.1,1,1.2,2,3,2c1.8,0.1,3.3-0.8,3.3-1.8c0,1,1.5,1.9,3.3,1.8s3.2-1,3-2
		c0.1,1.1,1.8,1.8,3.7,1.5C384,375.2,385.2,374.2,385,373.2z"/>
	<path class="st19" d="M372.3,374.3c0,1,1.5,1.9,3.3,1.8s3.2-1,3-2c0.1,1.1,1.8,1.8,3.7,1.5c1.7-0.3,2.9-1.3,2.7-2.2
		c-0.2-0.8-0.3-1.6-0.5-2.4c-0.2-0.6-0.4-1.1-0.8-1.6c0.2-0.3,0.3-0.6,0.2-0.9l0,0c-2.4,0.8-6,1.3-10.3-0.6
		c-6.4-3-3.6-19.5-2.7-24.2c-3.3,0.6-5.9,3.5-6.4,6.9c-0.1,0.8-0.2,1.6-0.4,2.4c-0.1,0.4,0,0.7,0.2,1c-0.3,0.6-0.5,1.2-0.7,1.9
		c-0.2,0.8-0.3,1.6-0.5,2.4c-0.1,0.4,0,0.7,0.2,1c-0.4,0.6-0.6,1.2-0.8,1.8c-0.2,0.8-0.4,1.6-0.6,2.4c-0.1,0.4,0,0.7,0.2,1
		c-0.4,0.6-0.7,1.2-0.9,1.8c-0.2,0.8-0.4,1.6-0.6,2.4c-0.1,0.3,0,0.6,0.2,0.9c-0.4,0.5-0.6,1.1-0.8,1.6c-0.2,0.8-0.3,1.6-0.5,2.4
		c-0.2,0.9,1,2,2.7,2.2c1.9,0.3,3.6-0.4,3.7-1.5c-0.1,1,1.2,2,3,2C370.9,376.1,372.3,375.3,372.3,374.3z"/>
</g>
<g>
	<path class="st18" d="M145,367.5c-0.2-0.8-0.3-1.6-0.5-2.4c-0.2-0.6-0.4-1.1-0.8-1.6c0.2-0.3,0.3-0.6,0.2-0.9
		c-0.2-0.8-0.4-1.6-0.6-2.4c-0.2-0.6-0.5-1.2-0.9-1.8c0.2-0.3,0.3-0.7,0.2-1c-0.2-0.8-0.4-1.6-0.6-2.4c-0.2-0.6-0.5-1.3-0.8-1.8
		c0.2-0.3,0.3-0.6,0.2-1c-0.2-0.8-0.3-1.6-0.5-2.4c-0.2-0.6-0.4-1.3-0.7-1.9c0.2-0.3,0.2-0.6,0.2-1c-0.1-0.8-0.2-1.6-0.4-2.4
		c-0.6-3.8-3.7-7-7.8-7l0,0c-4,0-7.2,3.2-7.8,7c-0.1,0.8-0.2,1.6-0.4,2.4c-0.1,0.4,0,0.7,0.2,1c-0.3,0.6-0.5,1.2-0.7,1.9
		c-0.2,0.8-0.3,1.6-0.5,2.4c-0.1,0.4,0,0.7,0.2,1c-0.4,0.6-0.6,1.2-0.8,1.8c-0.2,0.8-0.4,1.6-0.6,2.4c-0.1,0.4,0,0.7,0.2,1
		c-0.4,0.6-0.7,1.2-0.9,1.8c-0.2,0.8-0.4,1.6-0.6,2.4c-0.1,0.3,0,0.6,0.2,0.9c-0.4,0.5-0.6,1.1-0.8,1.6c-0.2,0.8-0.3,1.6-0.5,2.4
		c-0.2,0.9,1,2,2.7,2.2c1.9,0.3,3.6-0.4,3.7-1.5c-0.1,1,1.2,2,3,2c1.8,0.1,3.3-0.8,3.3-1.8c0,1,1.5,1.9,3.3,1.8s3.2-1,3-2
		c0.1,1.1,1.8,1.8,3.7,1.5C144,369.5,145.2,368.4,145,367.5z"/>
	<path class="st19" d="M132.3,368.5c0,1,1.5,1.9,3.3,1.8s3.2-1,3-2c0.1,1.1,1.8,1.8,3.7,1.5c1.7-0.3,2.9-1.3,2.7-2.2
		c-0.2-0.8-0.3-1.6-0.5-2.4c-0.2-0.6-0.4-1.1-0.8-1.6c0.2-0.3,0.3-0.6,0.2-0.9l0,0c-2.4,0.8-6,1.3-10.3-0.6
		c-6.4-3-3.6-19.5-2.7-24.2c-3.3,0.6-5.9,3.5-6.4,6.9c-0.1,0.8-0.2,1.6-0.4,2.4c-0.1,0.4,0,0.7,0.2,1c-0.3,0.6-0.5,1.2-0.7,1.9
		c-0.2,0.8-0.3,1.6-0.5,2.4c-0.1,0.4,0,0.7,0.2,1c-0.4,0.6-0.6,1.2-0.8,1.8c-0.2,0.8-0.4,1.6-0.6,2.4c-0.1,0.4,0,0.7,0.2,1
		c-0.4,0.6-0.7,1.2-0.9,1.8c-0.2,0.8-0.4,1.6-0.6,2.4c-0.1,0.3,0,0.6,0.2,0.9c-0.4,0.5-0.6,1.1-0.8,1.6c-0.2,0.8-0.3,1.6-0.5,2.4
		c-0.2,0.9,1,2,2.7,2.2c1.9,0.3,3.6-0.4,3.7-1.5c-0.1,1,1.2,2,3,2C130.9,370.4,132.3,369.6,132.3,368.5z"/>
</g>
<g>
	<path class="st18" d="M163,367.7c-0.2-0.8-0.3-1.6-0.5-2.4c-0.2-0.6-0.4-1.1-0.8-1.6c0.2-0.3,0.3-0.6,0.2-0.9
		c-0.2-0.8-0.4-1.6-0.6-2.4c-0.2-0.6-0.5-1.2-0.9-1.8c0.2-0.3,0.3-0.7,0.2-1c-0.2-0.8-0.4-1.6-0.6-2.4c-0.2-0.6-0.5-1.3-0.8-1.8
		c0.2-0.3,0.3-0.6,0.2-1c-0.2-0.8-0.3-1.6-0.5-2.4c-0.2-0.6-0.4-1.3-0.7-1.9c0.2-0.3,0.2-0.6,0.2-1c-0.1-0.8-0.2-1.6-0.4-2.4
		c-0.6-3.8-3.7-7-7.8-7l0,0c-4,0-7.2,3.2-7.8,7c-0.1,0.8-0.2,1.6-0.4,2.4c-0.1,0.4,0,0.7,0.2,1c-0.3,0.6-0.5,1.2-0.7,1.9
		c-0.2,0.8-0.3,1.6-0.5,2.4c-0.1,0.4,0,0.7,0.2,1c-0.4,0.6-0.6,1.2-0.8,1.8c-0.2,0.8-0.4,1.6-0.6,2.4c-0.1,0.4,0,0.7,0.2,1
		c-0.4,0.6-0.7,1.2-0.9,1.8c-0.2,0.8-0.4,1.6-0.6,2.4c-0.1,0.3,0,0.6,0.2,0.9c-0.4,0.5-0.6,1.1-0.8,1.6c-0.2,0.8-0.3,1.6-0.5,2.4
		c-0.2,0.9,1,2,2.7,2.2c1.9,0.3,3.6-0.4,3.7-1.5c-0.1,1,1.2,2,3,2c1.8,0.1,3.3-0.8,3.3-1.8c0,1,1.5,1.9,3.3,1.8s3.2-1,3-2
		c0.1,1.1,1.8,1.8,3.7,1.5C162,369.7,163.2,368.6,163,367.7z"/>
	<path class="st19" d="M150.3,368.7c0,1,1.5,1.9,3.3,1.8s3.2-1,3-2c0.1,1.1,1.8,1.8,3.7,1.5c1.7-0.3,2.9-1.3,2.7-2.2
		c-0.2-0.8-0.3-1.6-0.5-2.4c-0.2-0.6-0.4-1.1-0.8-1.6c0.2-0.3,0.3-0.6,0.2-0.9l0,0c-2.4,0.8-6,1.3-10.3-0.6
		c-6.4-3-3.6-19.5-2.7-24.2c-3.3,0.6-5.9,3.5-6.4,6.9c-0.1,0.8-0.2,1.6-0.4,2.4c-0.1,0.4,0,0.7,0.2,1c-0.3,0.6-0.5,1.2-0.7,1.9
		c-0.2,0.8-0.3,1.6-0.5,2.4c-0.1,0.4,0,0.7,0.2,1c-0.4,0.6-0.6,1.2-0.8,1.8c-0.2,0.8-0.4,1.6-0.6,2.4c-0.1,0.4,0,0.7,0.2,1
		c-0.4,0.6-0.7,1.2-0.9,1.8c-0.2,0.8-0.4,1.6-0.6,2.4c-0.1,0.3,0,0.6,0.2,0.9c-0.4,0.5-0.6,1.1-0.8,1.6c-0.2,0.8-0.3,1.6-0.5,2.4
		c-0.2,0.9,1,2,2.7,2.2c1.9,0.3,3.6-0.4,3.7-1.5c-0.1,1,1.2,2,3,2C148.9,370.6,150.3,369.8,150.3,368.7z"/>
</g>
<g>
	<path class="st18" d="M199.5,368.5c-0.2-0.8-0.3-1.6-0.5-2.4c-0.2-0.6-0.4-1.1-0.8-1.6c0.2-0.3,0.3-0.6,0.2-0.9
		c-0.2-0.8-0.4-1.6-0.6-2.4c-0.2-0.6-0.5-1.2-0.9-1.8c0.2-0.3,0.3-0.7,0.2-1c-0.2-0.8-0.4-1.6-0.6-2.4c-0.2-0.6-0.5-1.3-0.8-1.8
		c0.2-0.3,0.3-0.6,0.2-1c-0.2-0.8-0.3-1.6-0.5-2.4c-0.2-0.6-0.4-1.3-0.7-1.9c0.2-0.3,0.2-0.6,0.2-1c-0.1-0.8-0.2-1.6-0.4-2.4
		c-0.6-3.8-3.7-7-7.8-7l0,0c-4,0-7.2,3.2-7.8,7c-0.1,0.8-0.2,1.6-0.4,2.4c-0.1,0.4,0,0.7,0.2,1c-0.3,0.6-0.5,1.2-0.7,1.9
		c-0.2,0.8-0.3,1.6-0.5,2.4c-0.1,0.4,0,0.7,0.2,1c-0.4,0.6-0.6,1.2-0.8,1.8c-0.2,0.8-0.4,1.6-0.6,2.4c-0.1,0.4,0,0.7,0.2,1
		c-0.4,0.6-0.7,1.2-0.9,1.8c-0.2,0.8-0.4,1.6-0.6,2.4c-0.1,0.3,0,0.6,0.2,0.9c-0.4,0.5-0.6,1.1-0.8,1.6c-0.2,0.8-0.3,1.6-0.5,2.4
		c-0.2,0.9,1,2,2.7,2.2c1.9,0.3,3.6-0.4,3.7-1.5c-0.1,1,1.2,2,3,2c1.8,0.1,3.3-0.8,3.3-1.8c0,1,1.5,1.9,3.3,1.8s3.2-1,3-2
		c0.1,1.1,1.8,1.8,3.7,1.5C198.5,370.5,199.7,369.4,199.5,368.5z"/>
	<path class="st19" d="M186.8,369.5c0,1,1.5,1.9,3.3,1.8s3.2-1,3-2c0.1,1.1,1.8,1.8,3.7,1.5c1.7-0.3,2.9-1.3,2.7-2.2
		c-0.2-0.8-0.3-1.6-0.5-2.4c-0.2-0.6-0.4-1.1-0.8-1.6c0.2-0.3,0.3-0.6,0.2-0.9l0,0c-2.4,0.8-6,1.3-10.3-0.6
		c-6.4-3-3.6-19.5-2.7-24.2c-3.3,0.6-5.9,3.5-6.4,6.9c-0.1,0.8-0.2,1.6-0.4,2.4c-0.1,0.4,0,0.7,0.2,1c-0.3,0.6-0.5,1.2-0.7,1.9
		c-0.2,0.8-0.3,1.6-0.5,2.4c-0.1,0.4,0,0.7,0.2,1c-0.4,0.6-0.6,1.2-0.8,1.8c-0.2,0.8-0.4,1.6-0.6,2.4c-0.1,0.4,0,0.7,0.2,1
		c-0.4,0.6-0.7,1.2-0.9,1.8c-0.2,0.8-0.4,1.6-0.6,2.4c-0.1,0.3,0,0.6,0.2,0.9c-0.4,0.5-0.6,1.1-0.8,1.6c-0.2,0.8-0.3,1.6-0.5,2.4
		c-0.2,0.9,1,2,2.7,2.2c1.9,0.3,3.6-0.4,3.7-1.5c-0.1,1,1.2,2,3,2C185.4,371.4,186.8,370.5,186.8,369.5z"/>
</g>
<g>
	<path class="st18" d="M219.5,371.1c-0.2-0.8-0.3-1.6-0.5-2.4c-0.2-0.6-0.4-1.1-0.8-1.6c0.2-0.3,0.3-0.6,0.2-0.9
		c-0.2-0.8-0.4-1.6-0.6-2.4c-0.2-0.6-0.5-1.2-0.9-1.8c0.2-0.3,0.3-0.7,0.2-1c-0.2-0.8-0.4-1.6-0.6-2.4c-0.2-0.6-0.5-1.3-0.8-1.8
		c0.2-0.3,0.3-0.6,0.2-1c-0.2-0.8-0.3-1.6-0.5-2.4c-0.2-0.6-0.4-1.3-0.7-1.9c0.2-0.3,0.2-0.6,0.2-1c-0.1-0.8-0.2-1.6-0.4-2.4
		c-0.6-3.8-3.7-7-7.8-7l0,0c-4,0-7.2,3.2-7.8,7c-0.1,0.8-0.2,1.6-0.4,2.4c-0.1,0.4,0,0.7,0.2,1c-0.3,0.6-0.5,1.2-0.7,1.9
		c-0.2,0.8-0.3,1.6-0.5,2.4c-0.1,0.4,0,0.7,0.2,1c-0.4,0.6-0.6,1.2-0.8,1.8c-0.2,0.8-0.4,1.6-0.6,2.4c-0.1,0.4,0,0.7,0.2,1
		c-0.4,0.6-0.7,1.2-0.9,1.8c-0.2,0.8-0.4,1.6-0.6,2.4c-0.1,0.3,0,0.6,0.2,0.9c-0.4,0.5-0.6,1.1-0.8,1.6c-0.2,0.8-0.3,1.6-0.5,2.4
		c-0.2,0.9,1,2,2.7,2.2c1.9,0.3,3.6-0.4,3.7-1.5c-0.1,1,1.2,2,3,2c1.8,0.1,3.3-0.8,3.3-1.8c0,1,1.5,1.9,3.3,1.8s3.2-1,3-2
		c0.1,1.1,1.8,1.8,3.7,1.5C218.5,373,219.7,372,219.5,371.1z"/>
	<path class="st19" d="M206.8,372.1c0,1,1.5,1.9,3.3,1.8s3.2-1,3-2c0.1,1.1,1.8,1.8,3.7,1.5c1.7-0.3,2.9-1.3,2.7-2.2
		c-0.2-0.8-0.3-1.6-0.5-2.4c-0.2-0.6-0.4-1.1-0.8-1.6c0.2-0.3,0.3-0.6,0.2-0.9l0,0c-2.4,0.8-6,1.3-10.3-0.6
		c-6.4-3-3.6-19.5-2.7-24.2c-3.3,0.6-5.9,3.5-6.4,6.9c-0.1,0.8-0.2,1.6-0.4,2.4c-0.1,0.4,0,0.7,0.2,1c-0.3,0.6-0.5,1.2-0.7,1.9
		c-0.2,0.8-0.3,1.6-0.5,2.4c-0.1,0.4,0,0.7,0.2,1c-0.4,0.6-0.6,1.2-0.8,1.8c-0.2,0.8-0.4,1.6-0.6,2.4c-0.1,0.4,0,0.7,0.2,1
		c-0.4,0.6-0.7,1.2-0.9,1.8c-0.2,0.8-0.4,1.6-0.6,2.4c-0.1,0.3,0,0.6,0.2,0.9c-0.4,0.5-0.6,1.1-0.8,1.6c-0.2,0.8-0.3,1.6-0.5,2.4
		c-0.2,0.9,1,2,2.7,2.2c1.9,0.3,3.6-0.4,3.7-1.5c-0.1,1,1.2,2,3,2C205.4,374,206.8,373.1,206.8,372.1z"/>
</g>
<g>
	<path class="st18" d="M233.2,376c-0.2-0.8-0.3-1.6-0.5-2.4c-0.2-0.6-0.4-1.1-0.8-1.6c0.2-0.3,0.3-0.6,0.2-0.9
		c-0.2-0.8-0.4-1.6-0.6-2.4c-0.2-0.6-0.5-1.2-0.9-1.8c0.2-0.3,0.3-0.7,0.2-1c-0.2-0.8-0.4-1.6-0.6-2.4c-0.2-0.6-0.5-1.3-0.8-1.8
		c0.2-0.3,0.3-0.6,0.2-1c-0.2-0.8-0.3-1.6-0.5-2.4c-0.2-0.6-0.4-1.3-0.7-1.9c0.2-0.3,0.2-0.6,0.2-1c-0.1-0.8-0.2-1.6-0.4-2.4
		c-0.6-3.8-3.7-7-7.8-7l0,0c-4,0-7.2,3.2-7.8,7c-0.1,0.8-0.2,1.6-0.4,2.4c-0.1,0.4,0,0.7,0.2,1c-0.3,0.6-0.5,1.2-0.7,1.9
		c-0.2,0.8-0.3,1.6-0.5,2.4c-0.1,0.4,0,0.7,0.2,1c-0.4,0.6-0.6,1.2-0.8,1.8c-0.2,0.8-0.4,1.6-0.6,2.4c-0.1,0.4,0,0.7,0.2,1
		c-0.4,0.6-0.7,1.2-0.9,1.8c-0.2,0.8-0.4,1.6-0.6,2.4c-0.1,0.3,0,0.6,0.2,0.9c-0.4,0.5-0.6,1.1-0.8,1.6c-0.2,0.8-0.3,1.6-0.5,2.4
		c-0.2,0.9,1,2,2.7,2.2c1.9,0.3,3.6-0.4,3.7-1.5c-0.1,1,1.2,2,3,2c1.8,0.1,3.3-0.8,3.3-1.8c0,1,1.5,1.9,3.3,1.8s3.2-1,3-2
		c0.1,1.1,1.8,1.8,3.7,1.5C232.3,378,233.4,376.9,233.2,376z"/>
	<path class="st19" d="M220.6,377c0,1,1.5,1.9,3.3,1.8s3.2-1,3-2c0.1,1.1,1.8,1.8,3.7,1.5c1.7-0.3,2.9-1.3,2.7-2.2
		c-0.2-0.8-0.3-1.6-0.5-2.4c-0.2-0.6-0.4-1.1-0.8-1.6c0.2-0.3,0.3-0.6,0.2-0.9l0,0c-2.4,0.8-6,1.3-10.3-0.6
		c-6.4-3-3.6-19.5-2.7-24.2c-3.3,0.6-5.9,3.5-6.4,6.9c-0.1,0.8-0.2,1.6-0.4,2.4c-0.1,0.4,0,0.7,0.2,1c-0.3,0.6-0.5,1.2-0.7,1.9
		c-0.2,0.8-0.3,1.6-0.5,2.4c-0.1,0.4,0,0.7,0.2,1c-0.4,0.6-0.6,1.2-0.8,1.8c-0.2,0.8-0.4,1.6-0.6,2.4c-0.1,0.4,0,0.7,0.2,1
		c-0.4,0.6-0.7,1.2-0.9,1.8c-0.2,0.8-0.4,1.6-0.6,2.4c-0.1,0.3,0,0.6,0.2,0.9c-0.4,0.5-0.6,1.1-0.8,1.6c-0.2,0.8-0.3,1.6-0.5,2.4
		c-0.2,0.9,1,2,2.7,2.2c1.9,0.3,3.6-0.4,3.7-1.5c-0.1,1,1.2,2,3,2C219.1,378.9,220.6,378,220.6,377z"/>
</g>
<g>
	<path class="st18" d="M248.5,378.2c-0.2-0.8-0.3-1.6-0.5-2.4c-0.2-0.6-0.4-1.1-0.8-1.6c0.2-0.3,0.3-0.6,0.2-0.9
		c-0.2-0.8-0.4-1.6-0.6-2.4c-0.2-0.6-0.5-1.2-0.9-1.8c0.2-0.3,0.3-0.7,0.2-1c-0.2-0.8-0.4-1.6-0.6-2.4c-0.2-0.6-0.5-1.3-0.8-1.8
		c0.2-0.3,0.3-0.6,0.2-1c-0.2-0.8-0.3-1.6-0.5-2.4c-0.2-0.6-0.4-1.3-0.7-1.9c0.2-0.3,0.2-0.6,0.2-1c-0.1-0.8-0.2-1.6-0.4-2.4
		c-0.6-3.8-3.7-7-7.8-7l0,0c-4,0-7.2,3.2-7.8,7c-0.1,0.8-0.2,1.6-0.4,2.4c-0.1,0.4,0,0.7,0.2,1c-0.3,0.6-0.5,1.2-0.7,1.9
		c-0.2,0.8-0.3,1.6-0.5,2.4c-0.1,0.4,0,0.7,0.2,1c-0.4,0.6-0.6,1.2-0.8,1.8c-0.2,0.8-0.4,1.6-0.6,2.4c-0.1,0.4,0,0.7,0.2,1
		c-0.4,0.6-0.7,1.2-0.9,1.8c-0.2,0.8-0.4,1.6-0.6,2.4c-0.1,0.3,0,0.6,0.2,0.9c-0.4,0.5-0.6,1.1-0.8,1.6c-0.2,0.8-0.3,1.6-0.5,2.4
		c-0.2,0.9,1,2,2.7,2.2c1.9,0.3,3.6-0.4,3.7-1.5c-0.1,1,1.2,2,3,2c1.8,0.1,3.3-0.8,3.3-1.8c0,1,1.5,1.9,3.3,1.8s3.2-1,3-2
		c0.1,1.1,1.8,1.8,3.7,1.5C247.5,380.1,248.7,379.1,248.5,378.2z"/>
	<path class="st19" d="M235.8,379.2c0,1,1.5,1.9,3.3,1.8s3.2-1,3-2c0.1,1.1,1.8,1.8,3.7,1.5c1.7-0.3,2.9-1.3,2.7-2.2
		c-0.2-0.8-0.3-1.6-0.5-2.4c-0.2-0.6-0.4-1.1-0.8-1.6c0.2-0.3,0.3-0.6,0.2-0.9l0,0c-2.4,0.8-6,1.3-10.3-0.6
		c-6.4-3-3.6-19.5-2.7-24.2c-3.3,0.6-5.9,3.5-6.4,6.9c-0.1,0.8-0.2,1.6-0.4,2.4c-0.1,0.4,0,0.7,0.2,1c-0.3,0.6-0.5,1.2-0.7,1.9
		c-0.2,0.8-0.3,1.6-0.5,2.4c-0.1,0.4,0,0.7,0.2,1c-0.4,0.6-0.6,1.2-0.8,1.8c-0.2,0.8-0.4,1.6-0.6,2.4c-0.1,0.4,0,0.7,0.2,1
		c-0.4,0.6-0.7,1.2-0.9,1.8c-0.2,0.8-0.4,1.6-0.6,2.4c-0.1,0.3,0,0.6,0.2,0.9c-0.4,0.5-0.6,1.1-0.8,1.6c-0.2,0.8-0.3,1.6-0.5,2.4
		c-0.2,0.9,1,2,2.7,2.2c1.9,0.3,3.6-0.4,3.7-1.5c-0.1,1,1.2,2,3,2C234.4,381.1,235.8,380.2,235.8,379.2z"/>
</g>
<g>
	<path class="st18" d="M265.5,373.6c-0.2-0.8-0.3-1.6-0.5-2.4c-0.2-0.6-0.4-1.1-0.8-1.6c0.2-0.3,0.3-0.6,0.2-0.9
		c-0.2-0.8-0.4-1.6-0.6-2.4c-0.2-0.6-0.5-1.2-0.9-1.8c0.2-0.3,0.3-0.7,0.2-1c-0.2-0.8-0.4-1.6-0.6-2.4c-0.2-0.6-0.5-1.3-0.8-1.8
		c0.2-0.3,0.3-0.6,0.2-1c-0.2-0.8-0.3-1.6-0.5-2.4c-0.2-0.6-0.4-1.3-0.7-1.9c0.2-0.3,0.2-0.6,0.2-1c-0.1-0.8-0.2-1.6-0.4-2.4
		c-0.6-3.8-3.7-7-7.8-7l0,0c-4,0-7.2,3.2-7.8,7c-0.1,0.8-0.2,1.6-0.4,2.4c-0.1,0.4,0,0.7,0.2,1c-0.3,0.6-0.5,1.2-0.7,1.9
		c-0.2,0.8-0.3,1.6-0.5,2.4c-0.1,0.4,0,0.7,0.2,1c-0.4,0.6-0.6,1.2-0.8,1.8c-0.2,0.8-0.4,1.6-0.6,2.4c-0.1,0.4,0,0.7,0.2,1
		c-0.4,0.6-0.7,1.2-0.9,1.8c-0.2,0.8-0.4,1.6-0.6,2.4c-0.1,0.3,0,0.6,0.2,0.9c-0.4,0.5-0.6,1.1-0.8,1.6c-0.2,0.8-0.3,1.6-0.5,2.4
		c-0.2,0.9,1,2,2.7,2.2c1.9,0.3,3.6-0.4,3.7-1.5c-0.1,1,1.2,2,3,2c1.8,0.1,3.3-0.8,3.3-1.8c0,1,1.5,1.9,3.3,1.8s3.2-1,3-2
		c0.1,1.1,1.8,1.8,3.7,1.5C264.5,375.6,265.7,374.6,265.5,373.6z"/>
	<path class="st19" d="M252.8,374.7c0,1,1.5,1.9,3.3,1.8c1.8-0.1,3.2-1,3-2c0.1,1.1,1.8,1.8,3.7,1.5c1.7-0.3,2.9-1.3,2.7-2.2
		c-0.2-0.8-0.3-1.6-0.5-2.4c-0.2-0.6-0.4-1.1-0.8-1.6c0.2-0.3,0.3-0.6,0.2-0.9l0,0c-2.4,0.8-6,1.3-10.3-0.6
		c-6.4-3-3.6-19.5-2.7-24.2c-3.3,0.6-5.9,3.5-6.4,6.9c-0.1,0.8-0.2,1.6-0.4,2.4c-0.1,0.4,0,0.7,0.2,1c-0.3,0.6-0.5,1.2-0.7,1.9
		c-0.2,0.8-0.3,1.6-0.5,2.4c-0.1,0.4,0,0.7,0.2,1c-0.4,0.6-0.6,1.2-0.8,1.8c-0.2,0.8-0.4,1.6-0.6,2.4c-0.1,0.4,0,0.7,0.2,1
		c-0.4,0.6-0.7,1.2-0.9,1.8c-0.2,0.8-0.4,1.6-0.6,2.4c-0.1,0.3,0,0.6,0.2,0.9c-0.4,0.5-0.6,1.1-0.8,1.6c-0.2,0.8-0.3,1.6-0.5,2.4
		c-0.2,0.9,1,2,2.7,2.2c1.9,0.3,3.6-0.4,3.7-1.5c-0.1,1,1.2,2,3,2C251.4,376.5,252.8,375.7,252.8,374.7z"/>
</g>
<g>
	<path class="st18" d="M283.9,375.6c-0.2-0.8-0.3-1.6-0.5-2.4c-0.2-0.6-0.4-1.1-0.8-1.6c0.2-0.3,0.3-0.6,0.2-0.9
		c-0.2-0.8-0.4-1.6-0.6-2.4c-0.2-0.6-0.5-1.2-0.9-1.8c0.2-0.3,0.3-0.7,0.2-1c-0.2-0.8-0.4-1.6-0.6-2.4c-0.2-0.6-0.5-1.3-0.8-1.8
		c0.2-0.3,0.3-0.6,0.2-1c-0.2-0.8-0.3-1.6-0.5-2.4c-0.2-0.6-0.4-1.3-0.7-1.9c0.2-0.3,0.2-0.6,0.2-1c-0.1-0.8-0.2-1.6-0.4-2.4
		c-0.6-3.8-3.7-7-7.8-7l0,0c-4,0-7.2,3.2-7.8,7c-0.1,0.8-0.2,1.6-0.4,2.4c-0.1,0.4,0,0.7,0.2,1c-0.3,0.6-0.5,1.2-0.7,1.9
		c-0.2,0.8-0.3,1.6-0.5,2.4c-0.1,0.4,0,0.7,0.2,1c-0.4,0.6-0.6,1.2-0.8,1.8c-0.2,0.8-0.4,1.6-0.6,2.4c-0.1,0.4,0,0.7,0.2,1
		c-0.4,0.6-0.7,1.2-0.9,1.8c-0.2,0.8-0.4,1.6-0.6,2.4c-0.1,0.3,0,0.6,0.2,0.9c-0.4,0.5-0.6,1.1-0.8,1.6c-0.2,0.8-0.3,1.6-0.5,2.4
		c-0.2,0.9,1,2,2.7,2.2c1.9,0.3,3.6-0.4,3.7-1.5c-0.1,1,1.2,2,3,2c1.8,0.1,3.3-0.8,3.3-1.8c0,1,1.5,1.9,3.3,1.8s3.2-1,3-2
		c0.1,1.1,1.8,1.8,3.7,1.5C282.9,377.6,284.1,376.5,283.9,375.6z"/>
	<path class="st19" d="M271.2,376.6c0,1,1.5,1.9,3.3,1.8s3.2-1,3-2c0.1,1.1,1.8,1.8,3.7,1.5c1.7-0.3,2.9-1.3,2.7-2.2
		c-0.2-0.8-0.3-1.6-0.5-2.4c-0.2-0.6-0.4-1.1-0.8-1.6c0.2-0.3,0.3-0.6,0.2-0.9l0,0c-2.4,0.8-6,1.3-10.3-0.6
		c-6.4-3-3.6-19.5-2.7-24.2c-3.3,0.6-5.9,3.5-6.4,6.9c-0.1,0.8-0.2,1.6-0.4,2.4c-0.1,0.4,0,0.7,0.2,1c-0.3,0.6-0.5,1.2-0.7,1.9
		c-0.2,0.8-0.3,1.6-0.5,2.4c-0.1,0.4,0,0.7,0.2,1c-0.4,0.6-0.6,1.2-0.8,1.8c-0.2,0.8-0.4,1.6-0.6,2.4c-0.1,0.4,0,0.7,0.2,1
		c-0.4,0.6-0.7,1.2-0.9,1.8c-0.2,0.8-0.4,1.6-0.6,2.4c-0.1,0.3,0,0.6,0.2,0.9c-0.4,0.5-0.6,1.1-0.8,1.6c-0.2,0.8-0.3,1.6-0.5,2.4
		c-0.2,0.9,1,2,2.7,2.2c1.9,0.3,3.6-0.4,3.7-1.5c-0.1,1,1.2,2,3,2C269.7,378.5,271.2,377.7,271.2,376.6z"/>
</g>
<g>
	<path class="st18" d="M302,370.1c-0.2-0.8-0.3-1.6-0.5-2.4c-0.2-0.6-0.4-1.1-0.8-1.6c0.2-0.3,0.3-0.6,0.2-0.9
		c-0.2-0.8-0.4-1.6-0.6-2.4c-0.2-0.6-0.5-1.2-0.9-1.8c0.2-0.3,0.3-0.7,0.2-1c-0.2-0.8-0.4-1.6-0.6-2.4c-0.2-0.6-0.5-1.3-0.8-1.8
		c0.2-0.3,0.3-0.6,0.2-1c-0.2-0.8-0.3-1.6-0.5-2.4c-0.2-0.6-0.4-1.3-0.7-1.9c0.2-0.3,0.2-0.6,0.2-1c-0.1-0.8-0.2-1.6-0.4-2.4
		c-0.6-3.8-3.7-7-7.8-7l0,0c-4,0-7.2,3.2-7.8,7c-0.1,0.8-0.2,1.6-0.4,2.4c-0.1,0.4,0,0.7,0.2,1c-0.3,0.6-0.5,1.2-0.7,1.9
		c-0.2,0.8-0.3,1.6-0.5,2.4c-0.1,0.4,0,0.7,0.2,1c-0.4,0.6-0.6,1.2-0.8,1.8c-0.2,0.8-0.4,1.6-0.6,2.4c-0.1,0.4,0,0.7,0.2,1
		c-0.4,0.6-0.7,1.2-0.9,1.8c-0.2,0.8-0.4,1.6-0.6,2.4c-0.1,0.3,0,0.6,0.2,0.9c-0.4,0.5-0.6,1.1-0.8,1.6c-0.2,0.8-0.3,1.6-0.5,2.4
		c-0.2,0.9,1,2,2.7,2.2c1.9,0.3,3.6-0.4,3.7-1.5c-0.1,1,1.2,2,3,2c1.8,0.1,3.3-0.8,3.3-1.8c0,1,1.5,1.9,3.3,1.8s3.2-1,3-2
		c0.1,1.1,1.8,1.8,3.7,1.5C301,372,302.2,371,302,370.1z"/>
	<path class="st19" d="M289.3,371.1c0,1,1.5,1.9,3.3,1.8s3.2-1,3-2c0.1,1.1,1.8,1.8,3.7,1.5c1.7-0.3,2.9-1.3,2.7-2.2
		c-0.2-0.8-0.3-1.6-0.5-2.4c-0.2-0.6-0.4-1.1-0.8-1.6c0.2-0.3,0.3-0.6,0.2-0.9l0,0c-2.4,0.8-6,1.3-10.3-0.6
		c-6.4-3-3.6-19.5-2.7-24.2c-3.3,0.6-5.9,3.5-6.4,6.9c-0.1,0.8-0.2,1.6-0.4,2.4c-0.1,0.4,0,0.7,0.2,1c-0.3,0.6-0.5,1.2-0.7,1.9
		c-0.2,0.8-0.3,1.6-0.5,2.4c-0.1,0.4,0,0.7,0.2,1c-0.4,0.6-0.6,1.2-0.8,1.8c-0.2,0.8-0.4,1.6-0.6,2.4c-0.1,0.4,0,0.7,0.2,1
		c-0.4,0.6-0.7,1.2-0.9,1.8c-0.2,0.8-0.4,1.6-0.6,2.4c-0.1,0.3,0,0.6,0.2,0.9c-0.4,0.5-0.6,1.1-0.8,1.6c-0.2,0.8-0.3,1.6-0.5,2.4
		c-0.2,0.9,1,2,2.7,2.2c1.9,0.3,3.6-0.4,3.7-1.5c-0.1,1,1.2,2,3,2C287.9,373,289.3,372.1,289.3,371.1z"/>
</g>
<g>
	<path class="st18" d="M321.5,370.2c-0.2-0.8-0.3-1.6-0.5-2.4c-0.2-0.6-0.4-1.1-0.8-1.6c0.2-0.3,0.3-0.6,0.2-0.9
		c-0.2-0.8-0.4-1.6-0.6-2.4c-0.2-0.6-0.5-1.2-0.9-1.8c0.2-0.3,0.3-0.7,0.2-1c-0.2-0.8-0.4-1.6-0.6-2.4c-0.2-0.6-0.5-1.3-0.8-1.8
		c0.2-0.3,0.3-0.6,0.2-1c-0.2-0.8-0.3-1.6-0.5-2.4c-0.2-0.6-0.4-1.3-0.7-1.9c0.2-0.3,0.2-0.6,0.2-1c-0.1-0.8-0.2-1.6-0.4-2.4
		c-0.6-3.8-3.7-7-7.8-7l0,0c-4,0-7.2,3.2-7.8,7c-0.1,0.8-0.2,1.6-0.4,2.4c-0.1,0.4,0,0.7,0.2,1c-0.3,0.6-0.5,1.2-0.7,1.9
		c-0.2,0.8-0.3,1.6-0.5,2.4c-0.1,0.4,0,0.7,0.2,1c-0.4,0.6-0.6,1.2-0.8,1.8c-0.2,0.8-0.4,1.6-0.6,2.4c-0.1,0.4,0,0.7,0.2,1
		c-0.4,0.6-0.7,1.2-0.9,1.8c-0.2,0.8-0.4,1.6-0.6,2.4c-0.1,0.3,0,0.6,0.2,0.9c-0.4,0.5-0.6,1.1-0.8,1.6c-0.2,0.8-0.3,1.6-0.5,2.4
		c-0.2,0.9,1,2,2.7,2.2c1.9,0.3,3.6-0.4,3.7-1.5c-0.1,1,1.2,2,3,2c1.8,0.1,3.3-0.8,3.3-1.8c0,1,1.5,1.9,3.3,1.8s3.2-1,3-2
		c0.1,1.1,1.8,1.8,3.7,1.5C320.5,372.2,321.7,371.1,321.5,370.2z"/>
	<path class="st19" d="M308.8,371.2c0,1,1.5,1.9,3.3,1.8s3.2-1,3-2c0.1,1.1,1.8,1.8,3.7,1.5c1.7-0.3,2.9-1.3,2.7-2.2
		c-0.2-0.8-0.3-1.6-0.5-2.4c-0.2-0.6-0.4-1.1-0.8-1.6c0.2-0.3,0.3-0.6,0.2-0.9l0,0c-2.4,0.8-6,1.3-10.3-0.6
		c-6.4-3-3.6-19.5-2.7-24.2c-3.3,0.6-5.9,3.5-6.4,6.9c-0.1,0.8-0.2,1.6-0.4,2.4c-0.1,0.4,0,0.7,0.2,1c-0.3,0.6-0.5,1.2-0.7,1.9
		c-0.2,0.8-0.3,1.6-0.5,2.4c-0.1,0.4,0,0.7,0.2,1c-0.4,0.6-0.6,1.2-0.8,1.8c-0.2,0.8-0.4,1.6-0.6,2.4c-0.1,0.4,0,0.7,0.2,1
		c-0.4,0.6-0.7,1.2-0.9,1.8c-0.2,0.8-0.4,1.6-0.6,2.4c-0.1,0.3,0,0.6,0.2,0.9c-0.4,0.5-0.6,1.1-0.8,1.6c-0.2,0.8-0.3,1.6-0.5,2.4
		c-0.2,0.9,1,2,2.7,2.2c1.9,0.3,3.6-0.4,3.7-1.5c-0.1,1,1.2,2,3,2C307.4,373.1,308.8,372.3,308.8,371.2z"/>
</g>
<g>
	<path class="st18" d="M334.8,370.2c-0.2-0.8-0.3-1.6-0.5-2.4c-0.2-0.6-0.4-1.1-0.8-1.6c0.2-0.3,0.3-0.6,0.2-0.9
		c-0.2-0.8-0.4-1.6-0.6-2.4c-0.2-0.6-0.5-1.2-0.9-1.8c0.2-0.3,0.3-0.7,0.2-1c-0.2-0.8-0.4-1.6-0.6-2.4c-0.2-0.6-0.5-1.3-0.8-1.8
		c0.2-0.3,0.3-0.6,0.2-1c-0.2-0.8-0.3-1.6-0.5-2.4c-0.2-0.6-0.4-1.3-0.7-1.9c0.2-0.3,0.2-0.6,0.2-1c-0.1-0.8-0.2-1.6-0.4-2.4
		c-0.6-3.8-3.7-7-7.8-7l0,0c-4,0-7.2,3.2-7.8,7c-0.1,0.8-0.2,1.6-0.4,2.4c-0.1,0.4,0,0.7,0.2,1c-0.3,0.6-0.5,1.2-0.7,1.9
		c-0.2,0.8-0.3,1.6-0.5,2.4c-0.1,0.4,0,0.7,0.2,1c-0.4,0.6-0.6,1.2-0.8,1.8c-0.2,0.8-0.4,1.6-0.6,2.4c-0.1,0.4,0,0.7,0.2,1
		c-0.4,0.6-0.7,1.2-0.9,1.8c-0.2,0.8-0.4,1.6-0.6,2.4c-0.1,0.3,0,0.6,0.2,0.9c-0.4,0.5-0.6,1.1-0.8,1.6c-0.2,0.8-0.3,1.6-0.5,2.4
		c-0.2,0.9,1,2,2.7,2.2c1.9,0.3,3.6-0.4,3.7-1.5c-0.1,1,1.2,2,3,2c1.8,0.1,3.3-0.8,3.3-1.8c0,1,1.5,1.9,3.3,1.8s3.2-1,3-2
		c0.1,1.1,1.8,1.8,3.7,1.5C333.9,372.2,335,371.1,334.8,370.2z"/>
	<path class="st19" d="M322.1,371.2c0,1,1.5,1.9,3.3,1.8s3.2-1,3-2c0.1,1.1,1.8,1.8,3.7,1.5c1.7-0.3,2.9-1.3,2.7-2.2
		c-0.2-0.8-0.3-1.6-0.5-2.4c-0.2-0.6-0.4-1.1-0.8-1.6c0.2-0.3,0.3-0.6,0.2-0.9l0,0c-2.4,0.8-6,1.3-10.3-0.6
		c-6.4-3-3.6-19.5-2.7-24.2c-3.3,0.6-5.9,3.5-6.4,6.9c-0.1,0.8-0.2,1.6-0.4,2.4c-0.1,0.4,0,0.7,0.2,1c-0.3,0.6-0.5,1.2-0.7,1.9
		c-0.2,0.8-0.3,1.6-0.5,2.4c-0.1,0.4,0,0.7,0.2,1c-0.4,0.6-0.6,1.2-0.8,1.8c-0.2,0.8-0.4,1.6-0.6,2.4c-0.1,0.4,0,0.7,0.2,1
		c-0.4,0.6-0.7,1.2-0.9,1.8c-0.2,0.8-0.4,1.6-0.6,2.4c-0.1,0.3,0,0.6,0.2,0.9c-0.4,0.5-0.6,1.1-0.8,1.6c-0.2,0.8-0.3,1.6-0.5,2.4
		c-0.2,0.9,1,2,2.7,2.2c1.9,0.3,3.6-0.4,3.7-1.5c-0.1,1,1.2,2,3,2C320.7,373.1,322.2,372.3,322.1,371.2z"/>
</g>
<g>
	<path class="st18" d="M181,373.2c-0.2-0.8-0.3-1.6-0.5-2.4c-0.2-0.6-0.4-1.1-0.8-1.6c0.2-0.3,0.3-0.6,0.2-0.9
		c-0.2-0.8-0.4-1.6-0.6-2.4c-0.2-0.6-0.5-1.2-0.9-1.8c0.2-0.3,0.3-0.7,0.2-1c-0.2-0.8-0.4-1.6-0.6-2.4c-0.2-0.6-0.5-1.3-0.8-1.8
		c0.2-0.3,0.3-0.6,0.2-1c-0.2-0.8-0.3-1.6-0.5-2.4c-0.2-0.6-0.4-1.3-0.7-1.9c0.2-0.3,0.2-0.6,0.2-1c-0.1-0.8-0.2-1.6-0.4-2.4
		c-0.6-3.8-3.7-7-7.8-7l0,0c-4,0-7.2,3.2-7.8,7c-0.1,0.8-0.2,1.6-0.4,2.4c-0.1,0.4,0,0.7,0.2,1c-0.3,0.6-0.5,1.2-0.7,1.9
		c-0.2,0.8-0.3,1.6-0.5,2.4c-0.1,0.4,0,0.7,0.2,1c-0.4,0.6-0.6,1.2-0.8,1.8c-0.2,0.8-0.4,1.6-0.6,2.4c-0.1,0.4,0,0.7,0.2,1
		c-0.4,0.6-0.7,1.2-0.9,1.8c-0.2,0.8-0.4,1.6-0.6,2.4c-0.1,0.3,0,0.6,0.2,0.9c-0.4,0.5-0.6,1.1-0.8,1.6c-0.2,0.8-0.3,1.6-0.5,2.4
		c-0.2,0.9,1,2,2.7,2.2c1.9,0.3,3.6-0.4,3.7-1.5c-0.1,1,1.2,2,3,2c1.8,0.1,3.3-0.8,3.3-1.8c0,1,1.5,1.9,3.3,1.8s3.2-1,3-2
		c0.1,1.1,1.8,1.8,3.7,1.5C180,375.2,181.2,374.2,181,373.2z"/>
	<path class="st19" d="M168.3,374.3c0,1,1.5,1.9,3.3,1.8s3.2-1,3-2c0.1,1.1,1.8,1.8,3.7,1.5c1.7-0.3,2.9-1.3,2.7-2.2
		c-0.2-0.8-0.3-1.6-0.5-2.4c-0.2-0.6-0.4-1.1-0.8-1.6c0.2-0.3,0.3-0.6,0.2-0.9l0,0c-2.4,0.8-6,1.3-10.3-0.6
		c-6.4-3-3.6-19.5-2.7-24.2c-3.3,0.6-5.9,3.5-6.4,6.9c-0.1,0.8-0.2,1.6-0.4,2.4c-0.1,0.4,0,0.7,0.2,1c-0.3,0.6-0.5,1.2-0.7,1.9
		c-0.2,0.8-0.3,1.6-0.5,2.4c-0.1,0.4,0,0.7,0.2,1c-0.4,0.6-0.6,1.2-0.8,1.8c-0.2,0.8-0.4,1.6-0.6,2.4c-0.1,0.4,0,0.7,0.2,1
		c-0.4,0.6-0.7,1.2-0.9,1.8c-0.2,0.8-0.4,1.6-0.6,2.4c-0.1,0.3,0,0.6,0.2,0.9c-0.4,0.5-0.6,1.1-0.8,1.6c-0.2,0.8-0.3,1.6-0.5,2.4
		c-0.2,0.9,1,2,2.7,2.2c1.9,0.3,3.6-0.4,3.7-1.5c-0.1,1,1.2,2,3,2C166.9,376.1,168.3,375.3,168.3,374.3z"/>
</g>
<g>
	<path class="st18" d="M43.4,367.5c-0.2-0.8-0.3-1.6-0.5-2.4c-0.2-0.6-0.4-1.1-0.8-1.6c0.2-0.3,0.3-0.6,0.2-0.9
		c-0.2-0.8-0.4-1.6-0.6-2.4c-0.2-0.6-0.5-1.2-0.9-1.8c0.2-0.3,0.3-0.7,0.2-1c-0.2-0.8-0.4-1.6-0.6-2.4c-0.2-0.6-0.5-1.3-0.8-1.8
		c0.2-0.3,0.3-0.6,0.2-1c-0.2-0.8-0.3-1.6-0.5-2.4c-0.2-0.6-0.4-1.3-0.7-1.9c0.2-0.3,0.2-0.6,0.2-1c-0.1-0.8-0.2-1.6-0.4-2.4
		c-0.6-3.8-3.7-7-7.8-7l0,0c-4,0-7.2,3.2-7.8,7c-0.1,0.8-0.2,1.6-0.4,2.4c-0.1,0.4,0,0.7,0.2,1c-0.3,0.6-0.5,1.2-0.7,1.9
		c-0.2,0.8-0.3,1.6-0.5,2.4c-0.1,0.4,0,0.7,0.2,1c-0.4,0.6-0.6,1.2-0.8,1.8c-0.2,0.8-0.4,1.6-0.6,2.4c-0.1,0.4,0,0.7,0.2,1
		c-0.4,0.6-0.7,1.2-0.9,1.8c-0.2,0.8-0.4,1.6-0.6,2.4c-0.1,0.3,0,0.6,0.2,0.9c-0.4,0.5-0.6,1.1-0.8,1.6c-0.2,0.8-0.3,1.6-0.5,2.4
		c-0.2,0.9,1,2,2.7,2.2c1.9,0.3,3.6-0.4,3.7-1.5c-0.1,1,1.2,2,3,2c1.8,0.1,3.3-0.8,3.3-1.8c0,1,1.5,1.9,3.3,1.8s3.2-1,3-2
		c0.1,1.1,1.8,1.8,3.7,1.5C42.4,369.5,43.5,368.4,43.4,367.5z"/>
	<path class="st19" d="M30.7,368.5c0,1,1.5,1.9,3.3,1.8s3.2-1,3-2c0.1,1.1,1.8,1.8,3.7,1.5c1.7-0.3,2.9-1.3,2.7-2.2
		c-0.2-0.8-0.3-1.6-0.5-2.4c-0.2-0.6-0.4-1.1-0.8-1.6c0.2-0.3,0.3-0.6,0.2-0.9l0,0c-2.4,0.8-6,1.3-10.3-0.6
		c-6.4-3-3.6-19.5-2.7-24.2c-3.3,0.6-5.9,3.5-6.4,6.9c-0.1,0.8-0.2,1.6-0.4,2.4c-0.1,0.4,0,0.7,0.2,1c-0.3,0.6-0.5,1.2-0.7,1.9
		c-0.2,0.8-0.3,1.6-0.5,2.4c-0.1,0.4,0,0.7,0.2,1c-0.4,0.6-0.6,1.2-0.8,1.8c-0.2,0.8-0.4,1.6-0.6,2.4c-0.1,0.4,0,0.7,0.2,1
		c-0.4,0.6-0.7,1.2-0.9,1.8c-0.2,0.8-0.4,1.6-0.6,2.4c-0.1,0.3,0,0.6,0.2,0.9c-0.4,0.5-0.6,1.1-0.8,1.6c-0.2,0.8-0.3,1.6-0.5,2.4
		c-0.2,0.9,1,2,2.7,2.2c1.9,0.3,3.6-0.4,3.7-1.5c-0.1,1,1.2,2,3,2C29.2,370.4,30.7,369.6,30.7,368.5z"/>
</g>
<g>
	<path class="st18" d="M61.4,367.7c-0.2-0.8-0.3-1.6-0.5-2.4c-0.2-0.6-0.4-1.1-0.8-1.6c0.2-0.3,0.3-0.6,0.2-0.9
		c-0.2-0.8-0.4-1.6-0.6-2.4c-0.2-0.6-0.5-1.2-0.9-1.8c0.2-0.3,0.3-0.7,0.2-1c-0.2-0.8-0.4-1.6-0.6-2.4c-0.2-0.6-0.5-1.3-0.8-1.8
		c0.2-0.3,0.3-0.6,0.2-1c-0.2-0.8-0.3-1.6-0.5-2.4c-0.2-0.6-0.4-1.3-0.7-1.9c0.2-0.3,0.2-0.6,0.2-1c-0.1-0.8-0.2-1.6-0.4-2.4
		c-0.6-3.8-3.7-7-7.8-7l0,0c-4,0-7.2,3.2-7.8,7c-0.1,0.8-0.2,1.6-0.4,2.4c-0.1,0.4,0,0.7,0.2,1c-0.3,0.6-0.5,1.2-0.7,1.9
		c-0.2,0.8-0.3,1.6-0.5,2.4c-0.1,0.4,0,0.7,0.2,1c-0.4,0.6-0.6,1.2-0.8,1.8c-0.2,0.8-0.4,1.6-0.6,2.4c-0.1,0.4,0,0.7,0.2,1
		c-0.4,0.6-0.7,1.2-0.9,1.8c-0.2,0.8-0.4,1.6-0.6,2.4c-0.1,0.3,0,0.6,0.2,0.9c-0.4,0.5-0.6,1.1-0.8,1.6c-0.2,0.8-0.3,1.6-0.5,2.4
		c-0.2,0.9,1,2,2.7,2.2c1.9,0.3,3.6-0.4,3.7-1.5c-0.1,1,1.2,2,3,2c1.8,0.1,3.3-0.8,3.3-1.8c0,1,1.5,1.9,3.3,1.8s3.2-1,3-2
		c0.1,1.1,1.8,1.8,3.7,1.5C60.4,369.7,61.5,368.6,61.4,367.7z"/>
	<path class="st19" d="M48.7,368.7c0,1,1.5,1.9,3.3,1.8s3.2-1,3-2c0.1,1.1,1.8,1.8,3.7,1.5c1.7-0.3,2.9-1.3,2.7-2.2
		c-0.2-0.8-0.3-1.6-0.5-2.4c-0.2-0.6-0.4-1.1-0.8-1.6c0.2-0.3,0.3-0.6,0.2-0.9l0,0c-2.4,0.8-6,1.3-10.3-0.6
		c-6.4-3-3.6-19.5-2.7-24.2c-3.3,0.6-5.9,3.5-6.4,6.9c-0.1,0.8-0.2,1.6-0.4,2.4c-0.1,0.4,0,0.7,0.2,1c-0.3,0.6-0.5,1.2-0.7,1.9
		c-0.2,0.8-0.3,1.6-0.5,2.4c-0.1,0.4,0,0.7,0.2,1c-0.4,0.6-0.6,1.2-0.8,1.8c-0.2,0.8-0.4,1.6-0.6,2.4c-0.1,0.4,0,0.7,0.2,1
		c-0.4,0.6-0.7,1.2-0.9,1.8c-0.2,0.8-0.4,1.6-0.6,2.4c-0.1,0.3,0,0.6,0.2,0.9c-0.4,0.5-0.6,1.1-0.8,1.6c-0.2,0.8-0.3,1.6-0.5,2.4
		c-0.2,0.9,1,2,2.7,2.2c1.9,0.3,3.6-0.4,3.7-1.5c-0.1,1,1.2,2,3,2C47.2,370.6,48.7,369.8,48.7,368.7z"/>
</g>
<g>
	<path class="st18" d="M97.9,368.5c-0.2-0.8-0.3-1.6-0.5-2.4c-0.2-0.6-0.4-1.1-0.8-1.6c0.2-0.3,0.3-0.6,0.2-0.9
		c-0.2-0.8-0.4-1.6-0.6-2.4c-0.2-0.6-0.5-1.2-0.9-1.8c0.2-0.3,0.3-0.7,0.2-1c-0.2-0.8-0.4-1.6-0.6-2.4c-0.2-0.6-0.5-1.3-0.8-1.8
		c0.2-0.3,0.3-0.6,0.2-1c-0.2-0.8-0.3-1.6-0.5-2.4c-0.2-0.6-0.4-1.3-0.7-1.9c0.2-0.3,0.2-0.6,0.2-1c-0.1-0.8-0.2-1.6-0.4-2.4
		c-0.6-3.8-3.7-7-7.8-7l0,0c-4,0-7.2,3.2-7.8,7c-0.1,0.8-0.2,1.6-0.4,2.4c-0.1,0.4,0,0.7,0.2,1c-0.3,0.6-0.5,1.2-0.7,1.9
		c-0.2,0.8-0.3,1.6-0.5,2.4c-0.1,0.4,0,0.7,0.2,1c-0.4,0.6-0.6,1.2-0.8,1.8c-0.2,0.8-0.4,1.6-0.6,2.4c-0.1,0.4,0,0.7,0.2,1
		c-0.4,0.6-0.7,1.2-0.9,1.8c-0.2,0.8-0.4,1.6-0.6,2.4c-0.1,0.3,0,0.6,0.2,0.9c-0.4,0.5-0.6,1.1-0.8,1.6c-0.2,0.8-0.3,1.6-0.5,2.4
		c-0.2,0.9,1,2,2.7,2.2c1.9,0.3,3.6-0.4,3.7-1.5c-0.1,1,1.2,2,3,2c1.8,0.1,3.3-0.8,3.3-1.8c0,1,1.5,1.9,3.3,1.8s3.2-1,3-2
		c0.1,1.1,1.8,1.8,3.7,1.5C96.9,370.5,98,369.4,97.9,368.5z"/>
	<path class="st19" d="M85.2,369.5c0,1,1.5,1.9,3.3,1.8s3.2-1,3-2c0.1,1.1,1.8,1.8,3.7,1.5c1.7-0.3,2.9-1.3,2.7-2.2
		c-0.2-0.8-0.3-1.6-0.5-2.4c-0.2-0.6-0.4-1.1-0.8-1.6c0.2-0.3,0.3-0.6,0.2-0.9l0,0c-2.4,0.8-6,1.3-10.3-0.6
		c-6.4-3-3.6-19.5-2.7-24.2c-3.3,0.6-5.9,3.5-6.4,6.9c-0.1,0.8-0.2,1.6-0.4,2.4c-0.1,0.4,0,0.7,0.2,1c-0.3,0.6-0.5,1.2-0.7,1.9
		c-0.2,0.8-0.3,1.6-0.5,2.4c-0.1,0.4,0,0.7,0.2,1c-0.4,0.6-0.6,1.2-0.8,1.8c-0.2,0.8-0.4,1.6-0.6,2.4c-0.1,0.4,0,0.7,0.2,1
		c-0.4,0.6-0.7,1.2-0.9,1.8c-0.2,0.8-0.4,1.6-0.6,2.4c-0.1,0.3,0,0.6,0.2,0.9c-0.4,0.5-0.6,1.1-0.8,1.6c-0.2,0.8-0.3,1.6-0.5,2.4
		c-0.2,0.9,1,2,2.7,2.2c1.9,0.3,3.6-0.4,3.7-1.5c-0.1,1,1.2,2,3,2C83.7,371.4,85.2,370.5,85.2,369.5z"/>
</g>
<g>
	<path class="st18" d="M117.9,371.1c-0.2-0.8-0.3-1.6-0.5-2.4c-0.2-0.6-0.4-1.1-0.8-1.6c0.2-0.3,0.3-0.6,0.2-0.9
		c-0.2-0.8-0.4-1.6-0.6-2.4c-0.2-0.6-0.5-1.2-0.9-1.8c0.2-0.3,0.3-0.7,0.2-1c-0.2-0.8-0.4-1.6-0.6-2.4c-0.2-0.6-0.5-1.3-0.8-1.8
		c0.2-0.3,0.3-0.6,0.2-1c-0.2-0.8-0.3-1.6-0.5-2.4c-0.2-0.6-0.4-1.3-0.7-1.9c0.2-0.3,0.2-0.6,0.2-1c-0.1-0.8-0.2-1.6-0.4-2.4
		c-0.6-3.8-3.7-7-7.8-7l0,0c-4,0-7.2,3.2-7.8,7c-0.1,0.8-0.2,1.6-0.4,2.4c-0.1,0.4,0,0.7,0.2,1c-0.3,0.6-0.5,1.2-0.7,1.9
		c-0.2,0.8-0.3,1.6-0.5,2.4c-0.1,0.4,0,0.7,0.2,1c-0.4,0.6-0.6,1.2-0.8,1.8c-0.2,0.8-0.4,1.6-0.6,2.4c-0.1,0.4,0,0.7,0.2,1
		c-0.4,0.6-0.7,1.2-0.9,1.8c-0.2,0.8-0.4,1.6-0.6,2.4c-0.1,0.3,0,0.6,0.2,0.9c-0.4,0.5-0.6,1.1-0.8,1.6c-0.2,0.8-0.3,1.6-0.5,2.4
		c-0.2,0.9,1,2,2.7,2.2c1.9,0.3,3.6-0.4,3.7-1.5c-0.1,1,1.2,2,3,2c1.8,0.1,3.3-0.8,3.3-1.8c0,1,1.5,1.9,3.3,1.8s3.2-1,3-2
		c0.1,1.1,1.8,1.8,3.7,1.5C116.9,373,118,372,117.9,371.1z"/>
	<path class="st19" d="M105.2,372.1c0,1,1.5,1.9,3.3,1.8s3.2-1,3-2c0.1,1.1,1.8,1.8,3.7,1.5c1.7-0.3,2.9-1.3,2.7-2.2
		c-0.2-0.8-0.3-1.6-0.5-2.4c-0.2-0.6-0.4-1.1-0.8-1.6c0.2-0.3,0.3-0.6,0.2-0.9l0,0c-2.4,0.8-6,1.3-10.3-0.6
		c-6.4-3-3.6-19.5-2.7-24.2c-3.3,0.6-5.9,3.5-6.4,6.9c-0.1,0.8-0.2,1.6-0.4,2.4c-0.1,0.4,0,0.7,0.2,1c-0.3,0.6-0.5,1.2-0.7,1.9
		c-0.2,0.8-0.3,1.6-0.5,2.4c-0.1,0.4,0,0.7,0.2,1c-0.4,0.6-0.6,1.2-0.8,1.8c-0.2,0.8-0.4,1.6-0.6,2.4c-0.1,0.4,0,0.7,0.2,1
		c-0.4,0.6-0.7,1.2-0.9,1.8c-0.2,0.8-0.4,1.6-0.6,2.4c-0.1,0.3,0,0.6,0.2,0.9c-0.4,0.5-0.6,1.1-0.8,1.6c-0.2,0.8-0.3,1.6-0.5,2.4
		c-0.2,0.9,1,2,2.7,2.2c1.9,0.3,3.6-0.4,3.7-1.5c-0.1,1,1.2,2,3,2C103.7,374,105.2,373.1,105.2,372.1z"/>
</g>
<g>
	<path class="st18" d="M131.6,376c-0.2-0.8-0.3-1.6-0.5-2.4c-0.2-0.6-0.4-1.1-0.8-1.6c0.2-0.3,0.3-0.6,0.2-0.9
		c-0.2-0.8-0.4-1.6-0.6-2.4c-0.2-0.6-0.5-1.2-0.9-1.8c0.2-0.3,0.3-0.7,0.2-1c-0.2-0.8-0.4-1.6-0.6-2.4c-0.2-0.6-0.5-1.3-0.8-1.8
		c0.2-0.3,0.3-0.6,0.2-1c-0.2-0.8-0.3-1.6-0.5-2.4c-0.2-0.6-0.4-1.3-0.7-1.9c0.2-0.3,0.2-0.6,0.2-1c-0.1-0.8-0.2-1.6-0.4-2.4
		c-0.6-3.8-3.7-7-7.8-7l0,0c-4,0-7.2,3.2-7.8,7c-0.1,0.8-0.2,1.6-0.4,2.4c-0.1,0.4,0,0.7,0.2,1c-0.3,0.6-0.5,1.2-0.7,1.9
		c-0.2,0.8-0.3,1.6-0.5,2.4c-0.1,0.4,0,0.7,0.2,1c-0.4,0.6-0.6,1.2-0.8,1.8c-0.2,0.8-0.4,1.6-0.6,2.4c-0.1,0.4,0,0.7,0.2,1
		c-0.4,0.6-0.7,1.2-0.9,1.8c-0.2,0.8-0.4,1.6-0.6,2.4c-0.1,0.3,0,0.6,0.2,0.9c-0.4,0.5-0.6,1.1-0.8,1.6c-0.2,0.8-0.3,1.6-0.5,2.4
		c-0.2,0.9,1,2,2.7,2.2c1.9,0.3,3.6-0.4,3.7-1.5c-0.1,1,1.2,2,3,2c1.8,0.1,3.3-0.8,3.3-1.8c0,1,1.5,1.9,3.3,1.8s3.2-1,3-2
		c0.1,1.1,1.8,1.8,3.7,1.5C130.6,378,131.8,376.9,131.6,376z"/>
	<path class="st19" d="M118.9,377c0,1,1.5,1.9,3.3,1.8s3.2-1,3-2c0.1,1.1,1.8,1.8,3.7,1.5c1.7-0.3,2.9-1.3,2.7-2.2
		c-0.2-0.8-0.3-1.6-0.5-2.4c-0.2-0.6-0.4-1.1-0.8-1.6c0.2-0.3,0.3-0.6,0.2-0.9l0,0c-2.4,0.8-6,1.3-10.3-0.6
		c-6.4-3-3.6-19.5-2.7-24.2c-3.3,0.6-5.9,3.5-6.4,6.9c-0.1,0.8-0.2,1.6-0.4,2.4c-0.1,0.4,0,0.7,0.2,1c-0.3,0.6-0.5,1.2-0.7,1.9
		c-0.2,0.8-0.3,1.6-0.5,2.4c-0.1,0.4,0,0.7,0.2,1c-0.4,0.6-0.6,1.2-0.8,1.8c-0.2,0.8-0.4,1.6-0.6,2.4c-0.1,0.4,0,0.7,0.2,1
		c-0.4,0.6-0.7,1.2-0.9,1.8c-0.2,0.8-0.4,1.6-0.6,2.4c-0.1,0.3,0,0.6,0.2,0.9c-0.4,0.5-0.6,1.1-0.8,1.6c-0.2,0.8-0.3,1.6-0.5,2.4
		c-0.2,0.9,1,2,2.7,2.2c1.9,0.3,3.6-0.4,3.7-1.5c-0.1,1,1.2,2,3,2C117.5,378.9,118.9,378,118.9,377z"/>
</g>
<g>
	<path class="st18" d="M79.4,373.2c-0.2-0.8-0.3-1.6-0.5-2.4c-0.2-0.6-0.4-1.1-0.8-1.6c0.2-0.3,0.3-0.6,0.2-0.9
		c-0.2-0.8-0.4-1.6-0.6-2.4c-0.2-0.6-0.5-1.2-0.9-1.8c0.2-0.3,0.3-0.7,0.2-1c-0.2-0.8-0.4-1.6-0.6-2.4c-0.2-0.6-0.5-1.3-0.8-1.8
		c0.2-0.3,0.3-0.6,0.2-1c-0.2-0.8-0.3-1.6-0.5-2.4c-0.2-0.6-0.4-1.3-0.7-1.9c0.2-0.3,0.2-0.6,0.2-1c-0.1-0.8-0.2-1.6-0.4-2.4
		c-0.6-3.8-3.7-7-7.8-7l0,0c-4,0-7.2,3.2-7.8,7c-0.1,0.8-0.2,1.6-0.4,2.4c-0.1,0.4,0,0.7,0.2,1c-0.3,0.6-0.5,1.2-0.7,1.9
		c-0.2,0.8-0.3,1.6-0.5,2.4c-0.1,0.4,0,0.7,0.2,1c-0.4,0.6-0.6,1.2-0.8,1.8c-0.2,0.8-0.4,1.6-0.6,2.4c-0.1,0.4,0,0.7,0.2,1
		c-0.4,0.6-0.7,1.2-0.9,1.8c-0.2,0.8-0.4,1.6-0.6,2.4c-0.1,0.3,0,0.6,0.2,0.9c-0.4,0.5-0.6,1.1-0.8,1.6c-0.2,0.8-0.3,1.6-0.5,2.4
		c-0.2,0.9,1,2,2.7,2.2c1.9,0.3,3.6-0.4,3.7-1.5c-0.1,1,1.2,2,3,2c1.8,0.1,3.3-0.8,3.3-1.8c0,1,1.5,1.9,3.3,1.8s3.2-1,3-2
		c0.1,1.1,1.8,1.8,3.7,1.5C78.4,375.2,79.5,374.2,79.4,373.2z"/>
	<path class="st19" d="M66.7,374.3c0,1,1.5,1.9,3.3,1.8s3.2-1,3-2c0.1,1.1,1.8,1.8,3.7,1.5c1.7-0.3,2.9-1.3,2.7-2.2
		c-0.2-0.8-0.3-1.6-0.5-2.4c-0.2-0.6-0.4-1.1-0.8-1.6c0.2-0.3,0.3-0.6,0.2-0.9l0,0c-2.4,0.8-6,1.3-10.3-0.6
		c-6.4-3-3.6-19.5-2.7-24.2c-3.3,0.6-5.9,3.5-6.4,6.9c-0.1,0.8-0.2,1.6-0.4,2.4c-0.1,0.4,0,0.7,0.2,1c-0.3,0.6-0.5,1.2-0.7,1.9
		c-0.2,0.8-0.3,1.6-0.5,2.4c-0.1,0.4,0,0.7,0.2,1c-0.4,0.6-0.6,1.2-0.8,1.8c-0.2,0.8-0.4,1.6-0.6,2.4c-0.1,0.4,0,0.7,0.2,1
		c-0.4,0.6-0.7,1.2-0.9,1.8c-0.2,0.8-0.4,1.6-0.6,2.4c-0.1,0.3,0,0.6,0.2,0.9c-0.4,0.5-0.6,1.1-0.8,1.6c-0.2,0.8-0.3,1.6-0.5,2.4
		c-0.2,0.9,1,2,2.7,2.2c1.9,0.3,3.6-0.4,3.7-1.5c-0.1,1,1.2,2,3,2C65.2,376.1,66.7,375.3,66.7,374.3z"/>
</g>
<g>
	<path class="st18" d="M632,367.5c-0.2-0.8-0.3-1.6-0.5-2.4c-0.2-0.6-0.4-1.1-0.8-1.6c0.2-0.3,0.3-0.6,0.2-0.9
		c-0.2-0.8-0.4-1.6-0.6-2.4c-0.2-0.6-0.5-1.2-0.9-1.8c0.2-0.3,0.3-0.7,0.2-1c-0.2-0.8-0.4-1.6-0.6-2.4c-0.2-0.6-0.5-1.3-0.8-1.8
		c0.2-0.3,0.3-0.6,0.2-1c-0.2-0.8-0.3-1.6-0.5-2.4c-0.2-0.6-0.4-1.3-0.7-1.9c0.2-0.3,0.2-0.6,0.2-1c-0.1-0.8-0.2-1.6-0.4-2.4
		c-0.6-3.8-3.7-7-7.8-7l0,0c-4,0-7.2,3.2-7.8,7c-0.1,0.8-0.2,1.6-0.4,2.4c-0.1,0.4,0,0.7,0.2,1c-0.3,0.6-0.5,1.2-0.7,1.9
		c-0.2,0.8-0.3,1.6-0.5,2.4c-0.1,0.4,0,0.7,0.2,1c-0.4,0.6-0.6,1.2-0.8,1.8c-0.2,0.8-0.4,1.6-0.6,2.4c-0.1,0.4,0,0.7,0.2,1
		c-0.4,0.6-0.7,1.2-0.9,1.8c-0.2,0.8-0.4,1.6-0.6,2.4c-0.1,0.3,0,0.6,0.2,0.9c-0.4,0.5-0.6,1.1-0.8,1.6c-0.2,0.8-0.3,1.6-0.5,2.4
		c-0.2,0.9,1,2,2.7,2.2c1.9,0.3,3.6-0.4,3.7-1.5c-0.1,1,1.2,2,3,2c1.8,0.1,3.3-0.8,3.3-1.8c0,1,1.5,1.9,3.3,1.8s3.2-1,3-2
		c0.1,1.1,1.8,1.8,3.7,1.5C631.1,369.5,632.2,368.4,632,367.5z"/>
	<path class="st19" d="M619.4,368.5c0,1,1.5,1.9,3.3,1.8s3.2-1,3-2c0.1,1.1,1.8,1.8,3.7,1.5c1.7-0.3,2.9-1.3,2.7-2.2
		c-0.2-0.8-0.3-1.6-0.5-2.4c-0.2-0.6-0.4-1.1-0.8-1.6c0.2-0.3,0.3-0.6,0.2-0.9l0,0c-2.4,0.8-6,1.3-10.3-0.6
		c-6.4-3-3.6-19.5-2.7-24.2c-3.3,0.6-5.9,3.5-6.4,6.9c-0.1,0.8-0.2,1.6-0.4,2.4c-0.1,0.4,0,0.7,0.2,1c-0.3,0.6-0.5,1.2-0.7,1.9
		c-0.2,0.8-0.3,1.6-0.5,2.4c-0.1,0.4,0,0.7,0.2,1c-0.4,0.6-0.6,1.2-0.8,1.8c-0.2,0.8-0.4,1.6-0.6,2.4c-0.1,0.4,0,0.7,0.2,1
		c-0.4,0.6-0.7,1.2-0.9,1.8c-0.2,0.8-0.4,1.6-0.6,2.4c-0.1,0.3,0,0.6,0.2,0.9c-0.4,0.5-0.6,1.1-0.8,1.6c-0.2,0.8-0.3,1.6-0.5,2.4
		c-0.2,0.9,1,2,2.7,2.2c1.9,0.3,3.6-0.4,3.7-1.5c-0.1,1,1.2,2,3,2C617.9,370.4,619.4,369.6,619.4,368.5z"/>
</g>
<g>
	<path class="st18" d="M650,367.7c-0.2-0.8-0.3-1.6-0.5-2.4c-0.2-0.6-0.4-1.1-0.8-1.6c0.2-0.3,0.3-0.6,0.2-0.9
		c-0.2-0.8-0.4-1.6-0.6-2.4c-0.2-0.6-0.5-1.2-0.9-1.8c0.2-0.3,0.3-0.7,0.2-1c-0.2-0.8-0.4-1.6-0.6-2.4c-0.2-0.6-0.5-1.3-0.8-1.8
		c0.2-0.3,0.3-0.6,0.2-1c-0.2-0.8-0.3-1.6-0.5-2.4c-0.2-0.6-0.4-1.3-0.7-1.9c0.2-0.3,0.2-0.6,0.2-1c-0.1-0.8-0.2-1.6-0.4-2.4
		c-0.6-3.8-3.7-7-7.8-7l0,0c-4,0-7.2,3.2-7.8,7c-0.1,0.8-0.2,1.6-0.4,2.4c-0.1,0.4,0,0.7,0.2,1c-0.3,0.6-0.5,1.2-0.7,1.9
		c-0.2,0.8-0.3,1.6-0.5,2.4c-0.1,0.4,0,0.7,0.2,1c-0.4,0.6-0.6,1.2-0.8,1.8c-0.2,0.8-0.4,1.6-0.6,2.4c-0.1,0.4,0,0.7,0.2,1
		c-0.4,0.6-0.7,1.2-0.9,1.8c-0.2,0.8-0.4,1.6-0.6,2.4c-0.1,0.3,0,0.6,0.2,0.9c-0.4,0.5-0.6,1.1-0.8,1.6c-0.2,0.8-0.3,1.6-0.5,2.4
		c-0.2,0.9,1,2,2.7,2.2c1.9,0.3,3.6-0.4,3.7-1.5c-0.1,1,1.2,2,3,2c1.8,0.1,3.3-0.8,3.3-1.8c0,1,1.5,1.9,3.3,1.8s3.2-1,3-2
		c0.1,1.1,1.8,1.8,3.7,1.5C649.1,369.7,650.2,368.6,650,367.7z"/>
	<path class="st19" d="M637.4,368.7c0,1,1.5,1.9,3.3,1.8s3.2-1,3-2c0.1,1.1,1.8,1.8,3.7,1.5c1.7-0.3,2.9-1.3,2.7-2.2
		c-0.2-0.8-0.3-1.6-0.5-2.4c-0.2-0.6-0.4-1.1-0.8-1.6c0.2-0.3,0.3-0.6,0.2-0.9l0,0c-2.4,0.8-6,1.3-10.3-0.6
		c-6.4-3-3.6-19.5-2.7-24.2c-3.3,0.6-5.9,3.5-6.4,6.9c-0.1,0.8-0.2,1.6-0.4,2.4c-0.1,0.4,0,0.7,0.2,1c-0.3,0.6-0.5,1.2-0.7,1.9
		c-0.2,0.8-0.3,1.6-0.5,2.4c-0.1,0.4,0,0.7,0.2,1c-0.4,0.6-0.6,1.2-0.8,1.8c-0.2,0.8-0.4,1.6-0.6,2.4c-0.1,0.4,0,0.7,0.2,1
		c-0.4,0.6-0.7,1.2-0.9,1.8c-0.2,0.8-0.4,1.6-0.6,2.4c-0.1,0.3,0,0.6,0.2,0.9c-0.4,0.5-0.6,1.1-0.8,1.6c-0.2,0.8-0.3,1.6-0.5,2.4
		c-0.2,0.9,1,2,2.7,2.2c1.9,0.3,3.6-0.4,3.7-1.5c-0.1,1,1.2,2,3,2C635.9,370.6,637.4,369.8,637.4,368.7z"/>
</g>
<g>
	<path class="st18" d="M686.5,368.5c-0.2-0.8-0.3-1.6-0.5-2.4c-0.2-0.6-0.4-1.1-0.8-1.6c0.2-0.3,0.3-0.6,0.2-0.9
		c-0.2-0.8-0.4-1.6-0.6-2.4c-0.2-0.6-0.5-1.2-0.9-1.8c0.2-0.3,0.3-0.7,0.2-1c-0.2-0.8-0.4-1.6-0.6-2.4c-0.2-0.6-0.5-1.3-0.8-1.8
		c0.2-0.3,0.3-0.6,0.2-1c-0.2-0.8-0.3-1.6-0.5-2.4c-0.2-0.6-0.4-1.3-0.7-1.9c0.2-0.3,0.2-0.6,0.2-1c-0.1-0.8-0.2-1.6-0.4-2.4
		c-0.6-3.8-3.7-7-7.8-7l0,0c-4,0-7.2,3.2-7.8,7c-0.1,0.8-0.2,1.6-0.4,2.4c-0.1,0.4,0,0.7,0.2,1c-0.3,0.6-0.5,1.2-0.7,1.9
		c-0.2,0.8-0.3,1.6-0.5,2.4c-0.1,0.4,0,0.7,0.2,1c-0.4,0.6-0.6,1.2-0.8,1.8c-0.2,0.8-0.4,1.6-0.6,2.4c-0.1,0.4,0,0.7,0.2,1
		c-0.4,0.6-0.7,1.2-0.9,1.8c-0.2,0.8-0.4,1.6-0.6,2.4c-0.1,0.3,0,0.6,0.2,0.9c-0.4,0.5-0.6,1.1-0.8,1.6c-0.2,0.8-0.3,1.6-0.5,2.4
		c-0.2,0.9,1,2,2.7,2.2c1.9,0.3,3.6-0.4,3.7-1.5c-0.1,1,1.2,2,3,2c1.8,0.1,3.3-0.8,3.3-1.8c0,1,1.5,1.9,3.3,1.8s3.2-1,3-2
		c0.1,1.1,1.8,1.8,3.7,1.5C685.6,370.5,686.7,369.4,686.5,368.5z"/>
	<path class="st19" d="M673.9,369.5c0,1,1.5,1.9,3.3,1.8s3.2-1,3-2c0.1,1.1,1.8,1.8,3.7,1.5c1.7-0.3,2.9-1.3,2.7-2.2
		c-0.2-0.8-0.3-1.6-0.5-2.4c-0.2-0.6-0.4-1.1-0.8-1.6c0.2-0.3,0.3-0.6,0.2-0.9l0,0c-2.4,0.8-6,1.3-10.3-0.6
		c-6.4-3-3.6-19.5-2.7-24.2c-3.3,0.6-5.9,3.5-6.4,6.9c-0.1,0.8-0.2,1.6-0.4,2.4c-0.1,0.4,0,0.7,0.2,1c-0.3,0.6-0.5,1.2-0.7,1.9
		c-0.2,0.8-0.3,1.6-0.5,2.4c-0.1,0.4,0,0.7,0.2,1c-0.4,0.6-0.6,1.2-0.8,1.8c-0.2,0.8-0.4,1.6-0.6,2.4c-0.1,0.4,0,0.7,0.2,1
		c-0.4,0.6-0.7,1.2-0.9,1.8c-0.2,0.8-0.4,1.6-0.6,2.4c-0.1,0.3,0,0.6,0.2,0.9c-0.4,0.5-0.6,1.1-0.8,1.6c-0.2,0.8-0.3,1.6-0.5,2.4
		c-0.2,0.9,1,2,2.7,2.2c1.9,0.3,3.6-0.4,3.7-1.5c-0.1,1,1.2,2,3,2C672.4,371.4,673.9,370.5,673.9,369.5z"/>
</g>
<g>
	<path class="st18" d="M706.5,371.1c-0.2-0.8-0.3-1.6-0.5-2.4c-0.2-0.6-0.4-1.1-0.8-1.6c0.2-0.3,0.3-0.6,0.2-0.9
		c-0.2-0.8-0.4-1.6-0.6-2.4c-0.2-0.6-0.5-1.2-0.9-1.8c0.2-0.3,0.3-0.7,0.2-1c-0.2-0.8-0.4-1.6-0.6-2.4c-0.2-0.6-0.5-1.3-0.8-1.8
		c0.2-0.3,0.3-0.6,0.2-1c-0.2-0.8-0.3-1.6-0.5-2.4c-0.2-0.6-0.4-1.3-0.7-1.9c0.2-0.3,0.2-0.6,0.2-1c-0.1-0.8-0.2-1.6-0.4-2.4
		c-0.6-3.8-3.7-7-7.8-7l0,0c-4,0-7.2,3.2-7.8,7c-0.1,0.8-0.2,1.6-0.4,2.4c-0.1,0.4,0,0.7,0.2,1c-0.3,0.6-0.5,1.2-0.7,1.9
		c-0.2,0.8-0.3,1.6-0.5,2.4c-0.1,0.4,0,0.7,0.2,1c-0.4,0.6-0.6,1.2-0.8,1.8c-0.2,0.8-0.4,1.6-0.6,2.4c-0.1,0.4,0,0.7,0.2,1
		c-0.4,0.6-0.7,1.2-0.9,1.8c-0.2,0.8-0.4,1.6-0.6,2.4c-0.1,0.3,0,0.6,0.2,0.9c-0.4,0.5-0.6,1.1-0.8,1.6c-0.2,0.8-0.3,1.6-0.5,2.4
		c-0.2,0.9,1,2,2.7,2.2c1.9,0.3,3.6-0.4,3.7-1.5c-0.1,1,1.2,2,3,2c1.8,0.1,3.3-0.8,3.3-1.8c0,1,1.5,1.9,3.3,1.8s3.2-1,3-2
		c0.1,1.1,1.8,1.8,3.7,1.5C705.6,373,706.7,372,706.5,371.1z"/>
	<path class="st19" d="M693.9,372.1c0,1,1.5,1.9,3.3,1.8s3.2-1,3-2c0.1,1.1,1.8,1.8,3.7,1.5c1.7-0.3,2.9-1.3,2.7-2.2
		c-0.2-0.8-0.3-1.6-0.5-2.4c-0.2-0.6-0.4-1.1-0.8-1.6c0.2-0.3,0.3-0.6,0.2-0.9l0,0c-2.4,0.8-6,1.3-10.3-0.6
		c-6.4-3-3.6-19.5-2.7-24.2c-3.3,0.6-5.9,3.5-6.4,6.9c-0.1,0.8-0.2,1.6-0.4,2.4c-0.1,0.4,0,0.7,0.2,1c-0.3,0.6-0.5,1.2-0.7,1.9
		c-0.2,0.8-0.3,1.6-0.5,2.4c-0.1,0.4,0,0.7,0.2,1c-0.4,0.6-0.6,1.2-0.8,1.8c-0.2,0.8-0.4,1.6-0.6,2.4c-0.1,0.4,0,0.7,0.2,1
		c-0.4,0.6-0.7,1.2-0.9,1.8c-0.2,0.8-0.4,1.6-0.6,2.4c-0.1,0.3,0,0.6,0.2,0.9c-0.4,0.5-0.6,1.1-0.8,1.6c-0.2,0.8-0.3,1.6-0.5,2.4
		c-0.2,0.9,1,2,2.7,2.2c1.9,0.3,3.6-0.4,3.7-1.5c-0.1,1,1.2,2,3,2C692.4,374,693.9,373.1,693.9,372.1z"/>
</g>
<g>
	<path class="st18" d="M720.3,376c-0.2-0.8-0.3-1.6-0.5-2.4c-0.2-0.6-0.4-1.1-0.8-1.6c0.2-0.3,0.3-0.6,0.2-0.9
		c-0.2-0.8-0.4-1.6-0.6-2.4c-0.2-0.6-0.5-1.2-0.9-1.8c0.2-0.3,0.3-0.7,0.2-1c-0.2-0.8-0.4-1.6-0.6-2.4c-0.2-0.6-0.5-1.3-0.8-1.8
		c0.2-0.3,0.3-0.6,0.2-1c-0.2-0.8-0.3-1.6-0.5-2.4c-0.2-0.6-0.4-1.3-0.7-1.9c0.2-0.3,0.2-0.6,0.2-1c-0.1-0.8-0.2-1.6-0.4-2.4
		c-0.6-3.8-3.7-7-7.8-7l0,0c-4,0-7.2,3.2-7.8,7c-0.1,0.8-0.2,1.6-0.4,2.4c-0.1,0.4,0,0.7,0.2,1c-0.3,0.6-0.5,1.2-0.7,1.9
		c-0.2,0.8-0.3,1.6-0.5,2.4c-0.1,0.4,0,0.7,0.2,1c-0.4,0.6-0.6,1.2-0.8,1.8c-0.2,0.8-0.4,1.6-0.6,2.4c-0.1,0.4,0,0.7,0.2,1
		c-0.4,0.6-0.7,1.2-0.9,1.8c-0.2,0.8-0.4,1.6-0.6,2.4c-0.1,0.3,0,0.6,0.2,0.9c-0.4,0.5-0.6,1.1-0.8,1.6c-0.2,0.8-0.3,1.6-0.5,2.4
		c-0.2,0.9,1,2,2.7,2.2c1.9,0.3,3.6-0.4,3.7-1.5c-0.1,1,1.2,2,3,2c1.8,0.1,3.3-0.8,3.3-1.8c0,1,1.5,1.9,3.3,1.8s3.2-1,3-2
		c0.1,1.1,1.8,1.8,3.7,1.5C719.3,378,720.5,376.9,720.3,376z"/>
	<path class="st19" d="M707.6,377c0,1,1.5,1.9,3.3,1.8s3.2-1,3-2c0.1,1.1,1.8,1.8,3.7,1.5c1.7-0.3,2.9-1.3,2.7-2.2
		c-0.2-0.8-0.3-1.6-0.5-2.4c-0.2-0.6-0.4-1.1-0.8-1.6c0.2-0.3,0.3-0.6,0.2-0.9l0,0c-2.4,0.8-6,1.3-10.3-0.6
		c-6.4-3-3.6-19.5-2.7-24.2c-3.3,0.6-5.9,3.5-6.4,6.9c-0.1,0.8-0.2,1.6-0.4,2.4c-0.1,0.4,0,0.7,0.2,1c-0.3,0.6-0.5,1.2-0.7,1.9
		c-0.2,0.8-0.3,1.6-0.5,2.4c-0.1,0.4,0,0.7,0.2,1c-0.4,0.6-0.6,1.2-0.8,1.8c-0.2,0.8-0.4,1.6-0.6,2.4c-0.1,0.4,0,0.7,0.2,1
		c-0.4,0.6-0.7,1.2-0.9,1.8c-0.2,0.8-0.4,1.6-0.6,2.4c-0.1,0.3,0,0.6,0.2,0.9c-0.4,0.5-0.6,1.1-0.8,1.6c-0.2,0.8-0.3,1.6-0.5,2.4
		c-0.2,0.9,1,2,2.7,2.2c1.9,0.3,3.6-0.4,3.7-1.5c-0.1,1,1.2,2,3,2C706.2,378.9,707.6,378,707.6,377z"/>
</g>
<g>
	<path class="st18" d="M735.5,378.2c-0.2-0.8-0.3-1.6-0.5-2.4c-0.2-0.6-0.4-1.1-0.8-1.6c0.2-0.3,0.3-0.6,0.2-0.9
		c-0.2-0.8-0.4-1.6-0.6-2.4c-0.2-0.6-0.5-1.2-0.9-1.8c0.2-0.3,0.3-0.7,0.2-1c-0.2-0.8-0.4-1.6-0.6-2.4c-0.2-0.6-0.5-1.3-0.8-1.8
		c0.2-0.3,0.3-0.6,0.2-1c-0.2-0.8-0.3-1.6-0.5-2.4c-0.2-0.6-0.4-1.3-0.7-1.9c0.2-0.3,0.2-0.6,0.2-1c-0.1-0.8-0.2-1.6-0.4-2.4
		c-0.6-3.8-3.7-7-7.8-7l0,0c-4,0-7.2,3.2-7.8,7c-0.1,0.8-0.2,1.6-0.4,2.4c-0.1,0.4,0,0.7,0.2,1c-0.3,0.6-0.5,1.2-0.7,1.9
		c-0.2,0.8-0.3,1.6-0.5,2.4c-0.1,0.4,0,0.7,0.2,1c-0.4,0.6-0.6,1.2-0.8,1.8c-0.2,0.8-0.4,1.6-0.6,2.4c-0.1,0.4,0,0.7,0.2,1
		c-0.4,0.6-0.7,1.2-0.9,1.8c-0.2,0.8-0.4,1.6-0.6,2.4c-0.1,0.3,0,0.6,0.2,0.9c-0.4,0.5-0.6,1.1-0.8,1.6c-0.2,0.8-0.3,1.6-0.5,2.4
		c-0.2,0.9,1,2,2.7,2.2c1.9,0.3,3.6-0.4,3.7-1.5c-0.1,1,1.2,2,3,2c1.8,0.1,3.3-0.8,3.3-1.8c0,1,1.5,1.9,3.3,1.8s3.2-1,3-2
		c0.1,1.1,1.8,1.8,3.7,1.5C734.6,380.1,735.7,379.1,735.5,378.2z"/>
	<path class="st19" d="M722.9,379.2c0,1,1.5,1.9,3.3,1.8s3.2-1,3-2c0.1,1.1,1.8,1.8,3.7,1.5c1.7-0.3,2.9-1.3,2.7-2.2
		c-0.2-0.8-0.3-1.6-0.5-2.4c-0.2-0.6-0.4-1.1-0.8-1.6c0.2-0.3,0.3-0.6,0.2-0.9l0,0c-2.4,0.8-6,1.3-10.3-0.6
		c-6.4-3-3.6-19.5-2.7-24.2c-3.3,0.6-5.9,3.5-6.4,6.9c-0.1,0.8-0.2,1.6-0.4,2.4c-0.1,0.4,0,0.7,0.2,1c-0.3,0.6-0.5,1.2-0.7,1.9
		c-0.2,0.8-0.3,1.6-0.5,2.4c-0.1,0.4,0,0.7,0.2,1c-0.4,0.6-0.6,1.2-0.8,1.8c-0.2,0.8-0.4,1.6-0.6,2.4c-0.1,0.4,0,0.7,0.2,1
		c-0.4,0.6-0.7,1.2-0.9,1.8c-0.2,0.8-0.4,1.6-0.6,2.4c-0.1,0.3,0,0.6,0.2,0.9c-0.4,0.5-0.6,1.1-0.8,1.6c-0.2,0.8-0.3,1.6-0.5,2.4
		c-0.2,0.9,1,2,2.7,2.2c1.9,0.3,3.6-0.4,3.7-1.5c-0.1,1,1.2,2,3,2C721.4,381.1,722.9,380.2,722.9,379.2z"/>
</g>
<g>
	<path class="st18" d="M752.5,373.6c-0.2-0.8-0.3-1.6-0.5-2.4c-0.2-0.6-0.4-1.1-0.8-1.6c0.2-0.3,0.3-0.6,0.2-0.9
		c-0.2-0.8-0.4-1.6-0.6-2.4c-0.2-0.6-0.5-1.2-0.9-1.8c0.2-0.3,0.3-0.7,0.2-1c-0.2-0.8-0.4-1.6-0.6-2.4c-0.2-0.6-0.5-1.3-0.8-1.8
		c0.2-0.3,0.3-0.6,0.2-1c-0.2-0.8-0.3-1.6-0.5-2.4c-0.2-0.6-0.4-1.3-0.7-1.9c0.2-0.3,0.2-0.6,0.2-1c-0.1-0.8-0.2-1.6-0.4-2.4
		c-0.6-3.8-3.7-7-7.8-7l0,0c-4,0-7.2,3.2-7.8,7c-0.1,0.8-0.2,1.6-0.4,2.4c-0.1,0.4,0,0.7,0.2,1c-0.3,0.6-0.5,1.2-0.7,1.9
		c-0.2,0.8-0.3,1.6-0.5,2.4c-0.1,0.4,0,0.7,0.2,1c-0.4,0.6-0.6,1.2-0.8,1.8c-0.2,0.8-0.4,1.6-0.6,2.4c-0.1,0.4,0,0.7,0.2,1
		c-0.4,0.6-0.7,1.2-0.9,1.8c-0.2,0.8-0.4,1.6-0.6,2.4c-0.1,0.3,0,0.6,0.2,0.9c-0.4,0.5-0.6,1.1-0.8,1.6c-0.2,0.8-0.3,1.6-0.5,2.4
		c-0.2,0.9,1,2,2.7,2.2c1.9,0.3,3.6-0.4,3.7-1.5c-0.1,1,1.2,2,3,2c1.8,0.1,3.3-0.8,3.3-1.8c0,1,1.5,1.9,3.3,1.8s3.2-1,3-2
		c0.1,1.1,1.8,1.8,3.7,1.5C751.6,375.6,752.7,374.6,752.5,373.6z"/>
	<path class="st19" d="M739.9,374.7c0,1,1.5,1.9,3.3,1.8s3.2-1,3-2c0.1,1.1,1.8,1.8,3.7,1.5c1.7-0.3,2.9-1.3,2.7-2.2
		c-0.2-0.8-0.3-1.6-0.5-2.4c-0.2-0.6-0.4-1.1-0.8-1.6c0.2-0.3,0.3-0.6,0.2-0.9l0,0c-2.4,0.8-6,1.3-10.3-0.6
		c-6.4-3-3.6-19.5-2.7-24.2c-3.3,0.6-5.9,3.5-6.4,6.9c-0.1,0.8-0.2,1.6-0.4,2.4c-0.1,0.4,0,0.7,0.2,1c-0.3,0.6-0.5,1.2-0.7,1.9
		c-0.2,0.8-0.3,1.6-0.5,2.4c-0.1,0.4,0,0.7,0.2,1c-0.4,0.6-0.6,1.2-0.8,1.8c-0.2,0.8-0.4,1.6-0.6,2.4c-0.1,0.4,0,0.7,0.2,1
		c-0.4,0.6-0.7,1.2-0.9,1.8c-0.2,0.8-0.4,1.6-0.6,2.4c-0.1,0.3,0,0.6,0.2,0.9c-0.4,0.5-0.6,1.1-0.8,1.6c-0.2,0.8-0.3,1.6-0.5,2.4
		c-0.2,0.9,1,2,2.7,2.2c1.9,0.3,3.6-0.4,3.7-1.5c-0.1,1,1.2,2,3,2C738.4,376.5,739.9,375.7,739.9,374.7z"/>
</g>
<g>
	<path class="st18" d="M770.9,375.6c-0.2-0.8-0.3-1.6-0.5-2.4c-0.2-0.6-0.4-1.1-0.8-1.6c0.2-0.3,0.3-0.6,0.2-0.9
		c-0.2-0.8-0.4-1.6-0.6-2.4c-0.2-0.6-0.5-1.2-0.9-1.8c0.2-0.3,0.3-0.7,0.2-1c-0.2-0.8-0.4-1.6-0.6-2.4c-0.2-0.6-0.5-1.3-0.8-1.8
		c0.2-0.3,0.3-0.6,0.2-1c-0.2-0.8-0.3-1.6-0.5-2.4c-0.2-0.6-0.4-1.3-0.7-1.9c0.2-0.3,0.2-0.6,0.2-1c-0.1-0.8-0.2-1.6-0.4-2.4
		c-0.6-3.8-3.7-7-7.8-7l0,0c-4,0-7.2,3.2-7.8,7c-0.1,0.8-0.2,1.6-0.4,2.4c-0.1,0.4,0,0.7,0.2,1c-0.3,0.6-0.5,1.2-0.7,1.9
		c-0.2,0.8-0.3,1.6-0.5,2.4c-0.1,0.4,0,0.7,0.2,1c-0.4,0.6-0.6,1.2-0.8,1.8c-0.2,0.8-0.4,1.6-0.6,2.4c-0.1,0.4,0,0.7,0.2,1
		c-0.4,0.6-0.7,1.2-0.9,1.8c-0.2,0.8-0.4,1.6-0.6,2.4c-0.1,0.3,0,0.6,0.2,0.9c-0.4,0.5-0.6,1.1-0.8,1.6c-0.2,0.8-0.3,1.6-0.5,2.4
		c-0.2,0.9,1,2,2.7,2.2c1.9,0.3,3.6-0.4,3.7-1.5c-0.1,1,1.2,2,3,2c1.8,0.1,3.3-0.8,3.3-1.8c0,1,1.5,1.9,3.3,1.8s3.2-1,3-2
		c0.1,1.1,1.8,1.8,3.7,1.5C770,377.6,771.1,376.5,770.9,375.6z"/>
	<path class="st19" d="M758.2,376.6c0,1,1.5,1.9,3.3,1.8s3.2-1,3-2c0.1,1.1,1.8,1.8,3.7,1.5c1.7-0.3,2.9-1.3,2.7-2.2
		c-0.2-0.8-0.3-1.6-0.5-2.4c-0.2-0.6-0.4-1.1-0.8-1.6c0.2-0.3,0.3-0.6,0.2-0.9l0,0c-2.4,0.8-6,1.3-10.3-0.6
		c-6.4-3-3.6-19.5-2.7-24.2c-3.3,0.6-5.9,3.5-6.4,6.9c-0.1,0.8-0.2,1.6-0.4,2.4c-0.1,0.4,0,0.7,0.2,1c-0.3,0.6-0.5,1.2-0.7,1.9
		c-0.2,0.8-0.3,1.6-0.5,2.4c-0.1,0.4,0,0.7,0.2,1c-0.4,0.6-0.6,1.2-0.8,1.8c-0.2,0.8-0.4,1.6-0.6,2.4c-0.1,0.4,0,0.7,0.2,1
		c-0.4,0.6-0.7,1.2-0.9,1.8c-0.2,0.8-0.4,1.6-0.6,2.4c-0.1,0.3,0,0.6,0.2,0.9c-0.4,0.5-0.6,1.1-0.8,1.6c-0.2,0.8-0.3,1.6-0.5,2.4
		c-0.2,0.9,1,2,2.7,2.2c1.9,0.3,3.6-0.4,3.7-1.5c-0.1,1,1.2,2,3,2C756.8,378.5,758.3,377.7,758.2,376.6z"/>
</g>
<g>
	<path class="st18" d="M789,370.1c-0.2-0.8-0.3-1.6-0.5-2.4c-0.2-0.6-0.4-1.1-0.8-1.6c0.2-0.3,0.3-0.6,0.2-0.9
		c-0.2-0.8-0.4-1.6-0.6-2.4c-0.2-0.6-0.5-1.2-0.9-1.8c0.2-0.3,0.3-0.7,0.2-1c-0.2-0.8-0.4-1.6-0.6-2.4c-0.2-0.6-0.5-1.3-0.8-1.8
		c0.2-0.3,0.3-0.6,0.2-1c-0.2-0.8-0.3-1.6-0.5-2.4c-0.2-0.6-0.4-1.3-0.7-1.9c0.2-0.3,0.2-0.6,0.2-1c-0.1-0.8-0.2-1.6-0.4-2.4
		c-0.6-3.8-3.7-7-7.8-7l0,0c-4,0-7.2,3.2-7.8,7c-0.1,0.8-0.2,1.6-0.4,2.4c-0.1,0.4,0,0.7,0.2,1c-0.3,0.6-0.5,1.2-0.7,1.9
		c-0.2,0.8-0.3,1.6-0.5,2.4c-0.1,0.4,0,0.7,0.2,1c-0.4,0.6-0.6,1.2-0.8,1.8c-0.2,0.8-0.4,1.6-0.6,2.4c-0.1,0.4,0,0.7,0.2,1
		c-0.4,0.6-0.7,1.2-0.9,1.8c-0.2,0.8-0.4,1.6-0.6,2.4c-0.1,0.3,0,0.6,0.2,0.9c-0.4,0.5-0.6,1.1-0.8,1.6c-0.2,0.8-0.3,1.6-0.5,2.4
		c-0.2,0.9,1,2,2.7,2.2c1.9,0.3,3.6-0.4,3.7-1.5c-0.1,1,1.2,2,3,2c1.8,0.1,3.3-0.8,3.3-1.8c0,1,1.5,1.9,3.3,1.8s3.2-1,3-2
		c0.1,1.1,1.8,1.8,3.7,1.5C788.1,372,789.2,371,789,370.1z"/>
	<path class="st19" d="M776.4,371.1c0,1,1.5,1.9,3.3,1.8s3.2-1,3-2c0.1,1.1,1.8,1.8,3.7,1.5c1.7-0.3,2.9-1.3,2.7-2.2
		c-0.2-0.8-0.3-1.6-0.5-2.4c-0.2-0.6-0.4-1.1-0.8-1.6c0.2-0.3,0.3-0.6,0.2-0.9l0,0c-2.4,0.8-6,1.3-10.3-0.6
		c-6.4-3-3.6-19.5-2.7-24.2c-3.3,0.6-5.9,3.5-6.4,6.9c-0.1,0.8-0.2,1.6-0.4,2.4c-0.1,0.4,0,0.7,0.2,1c-0.3,0.6-0.5,1.2-0.7,1.9
		c-0.2,0.8-0.3,1.6-0.5,2.4c-0.1,0.4,0,0.7,0.2,1c-0.4,0.6-0.6,1.2-0.8,1.8c-0.2,0.8-0.4,1.6-0.6,2.4c-0.1,0.4,0,0.7,0.2,1
		c-0.4,0.6-0.7,1.2-0.9,1.8c-0.2,0.8-0.4,1.6-0.6,2.4c-0.1,0.3,0,0.6,0.2,0.9c-0.4,0.5-0.6,1.1-0.8,1.6c-0.2,0.8-0.3,1.6-0.5,2.4
		c-0.2,0.9,1,2,2.7,2.2c1.9,0.3,3.6-0.4,3.7-1.5c-0.1,1,1.2,2,3,2C774.9,373,776.4,372.1,776.4,371.1z"/>
</g>
<g>
	<path class="st18" d="M808.5,370.2c-0.2-0.8-0.3-1.6-0.5-2.4c-0.2-0.6-0.4-1.1-0.8-1.6c0.2-0.3,0.3-0.6,0.2-0.9
		c-0.2-0.8-0.4-1.6-0.6-2.4c-0.2-0.6-0.5-1.2-0.9-1.8c0.2-0.3,0.3-0.7,0.2-1c-0.2-0.8-0.4-1.6-0.6-2.4c-0.2-0.6-0.5-1.3-0.8-1.8
		c0.2-0.3,0.3-0.6,0.2-1c-0.2-0.8-0.3-1.6-0.5-2.4c-0.2-0.6-0.4-1.3-0.7-1.9c0.2-0.3,0.2-0.6,0.2-1c-0.1-0.8-0.2-1.6-0.4-2.4
		c-0.6-3.8-3.7-7-7.8-7l0,0c-4,0-7.2,3.2-7.8,7c-0.1,0.8-0.2,1.6-0.4,2.4c-0.1,0.4,0,0.7,0.2,1c-0.3,0.6-0.5,1.2-0.7,1.9
		c-0.2,0.8-0.3,1.6-0.5,2.4c-0.1,0.4,0,0.7,0.2,1c-0.4,0.6-0.6,1.2-0.8,1.8c-0.2,0.8-0.4,1.6-0.6,2.4c-0.1,0.4,0,0.7,0.2,1
		c-0.4,0.6-0.7,1.2-0.9,1.8c-0.2,0.8-0.4,1.6-0.6,2.4c-0.1,0.3,0,0.6,0.2,0.9c-0.4,0.5-0.6,1.1-0.8,1.6c-0.2,0.8-0.3,1.6-0.5,2.4
		c-0.2,0.9,1,2,2.7,2.2c1.9,0.3,3.6-0.4,3.7-1.5c-0.1,1,1.2,2,3,2c1.8,0.1,3.3-0.8,3.3-1.8c0,1,1.5,1.9,3.3,1.8s3.2-1,3-2
		c0.1,1.1,1.8,1.8,3.7,1.5C807.6,372.2,808.7,371.1,808.5,370.2z"/>
	<path class="st19" d="M795.9,371.2c0,1,1.5,1.9,3.3,1.8s3.2-1,3-2c0.1,1.1,1.8,1.8,3.7,1.5c1.7-0.3,2.9-1.3,2.7-2.2
		c-0.2-0.8-0.3-1.6-0.5-2.4c-0.2-0.6-0.4-1.1-0.8-1.6c0.2-0.3,0.3-0.6,0.2-0.9l0,0c-2.4,0.8-6,1.3-10.3-0.6
		c-6.4-3-3.6-19.5-2.7-24.2c-3.3,0.6-5.9,3.5-6.4,6.9c-0.1,0.8-0.2,1.6-0.4,2.4c-0.1,0.4,0,0.7,0.2,1c-0.3,0.6-0.5,1.2-0.7,1.9
		c-0.2,0.8-0.3,1.6-0.5,2.4c-0.1,0.4,0,0.7,0.2,1c-0.4,0.6-0.6,1.2-0.8,1.8c-0.2,0.8-0.4,1.6-0.6,2.4c-0.1,0.4,0,0.7,0.2,1
		c-0.4,0.6-0.7,1.2-0.9,1.8c-0.2,0.8-0.4,1.6-0.6,2.4c-0.1,0.3,0,0.6,0.2,0.9c-0.4,0.5-0.6,1.1-0.8,1.6c-0.2,0.8-0.3,1.6-0.5,2.4
		c-0.2,0.9,1,2,2.7,2.2c1.9,0.3,3.6-0.4,3.7-1.5c-0.1,1,1.2,2,3,2C794.4,373.1,795.9,372.3,795.9,371.2z"/>
</g>
<g>
	<path class="st18" d="M821.9,370.2c-0.2-0.8-0.3-1.6-0.5-2.4c-0.2-0.6-0.4-1.1-0.8-1.6c0.2-0.3,0.3-0.6,0.2-0.9
		c-0.2-0.8-0.4-1.6-0.6-2.4c-0.2-0.6-0.5-1.2-0.9-1.8c0.2-0.3,0.3-0.7,0.2-1c-0.2-0.8-0.4-1.6-0.6-2.4c-0.2-0.6-0.5-1.3-0.8-1.8
		c0.2-0.3,0.3-0.6,0.2-1c-0.2-0.8-0.3-1.6-0.5-2.4c-0.2-0.6-0.4-1.3-0.7-1.9c0.2-0.3,0.2-0.6,0.2-1c-0.1-0.8-0.2-1.6-0.4-2.4
		c-0.6-3.8-3.7-7-7.8-7l0,0c-4,0-7.2,3.2-7.8,7c-0.1,0.8-0.2,1.6-0.4,2.4c-0.1,0.4,0,0.7,0.2,1c-0.3,0.6-0.5,1.2-0.7,1.9
		c-0.2,0.8-0.3,1.6-0.5,2.4c-0.1,0.4,0,0.7,0.2,1c-0.4,0.6-0.6,1.2-0.8,1.8c-0.2,0.8-0.4,1.6-0.6,2.4c-0.1,0.4,0,0.7,0.2,1
		c-0.4,0.6-0.7,1.2-0.9,1.8c-0.2,0.8-0.4,1.6-0.6,2.4c-0.1,0.3,0,0.6,0.2,0.9c-0.4,0.5-0.6,1.1-0.8,1.6c-0.2,0.8-0.3,1.6-0.5,2.4
		c-0.2,0.9,1,2,2.7,2.2c1.9,0.3,3.6-0.4,3.7-1.5c-0.1,1,1.2,2,3,2c1.8,0.1,3.3-0.8,3.3-1.8c0,1,1.5,1.9,3.3,1.8s3.2-1,3-2
		c0.1,1.1,1.8,1.8,3.7,1.5C820.9,372.2,822.1,371.1,821.9,370.2z"/>
	<path class="st19" d="M809.2,371.2c0,1,1.5,1.9,3.3,1.8s3.2-1,3-2c0.1,1.1,1.8,1.8,3.7,1.5c1.7-0.3,2.9-1.3,2.7-2.2
		c-0.2-0.8-0.3-1.6-0.5-2.4c-0.2-0.6-0.4-1.1-0.8-1.6c0.2-0.3,0.3-0.6,0.2-0.9l0,0c-2.4,0.8-6,1.3-10.3-0.6
		c-6.4-3-3.6-19.5-2.7-24.2c-3.3,0.6-5.9,3.5-6.4,6.9c-0.1,0.8-0.2,1.6-0.4,2.4c-0.1,0.4,0,0.7,0.2,1c-0.3,0.6-0.5,1.2-0.7,1.9
		c-0.2,0.8-0.3,1.6-0.5,2.4c-0.1,0.4,0,0.7,0.2,1c-0.4,0.6-0.6,1.2-0.8,1.8c-0.2,0.8-0.4,1.6-0.6,2.4c-0.1,0.4,0,0.7,0.2,1
		c-0.4,0.6-0.7,1.2-0.9,1.8c-0.2,0.8-0.4,1.6-0.6,2.4c-0.1,0.3,0,0.6,0.2,0.9c-0.4,0.5-0.6,1.1-0.8,1.6c-0.2,0.8-0.3,1.6-0.5,2.4
		c-0.2,0.9,1,2,2.7,2.2c1.9,0.3,3.6-0.4,3.7-1.5c-0.1,1,1.2,2,3,2C807.7,373.1,809.2,372.3,809.2,371.2z"/>
</g>
<g>
	<path class="st18" d="M668,373.2c-0.2-0.8-0.3-1.6-0.5-2.4c-0.2-0.6-0.4-1.1-0.8-1.6c0.2-0.3,0.3-0.6,0.2-0.9
		c-0.2-0.8-0.4-1.6-0.6-2.4c-0.2-0.6-0.5-1.2-0.9-1.8c0.2-0.3,0.3-0.7,0.2-1c-0.2-0.8-0.4-1.6-0.6-2.4c-0.2-0.6-0.5-1.3-0.8-1.8
		c0.2-0.3,0.3-0.6,0.2-1c-0.2-0.8-0.3-1.6-0.5-2.4c-0.2-0.6-0.4-1.3-0.7-1.9c0.2-0.3,0.2-0.6,0.2-1c-0.1-0.8-0.2-1.6-0.4-2.4
		c-0.6-3.8-3.7-7-7.8-7l0,0c-4,0-7.2,3.2-7.8,7c-0.1,0.8-0.2,1.6-0.4,2.4c-0.1,0.4,0,0.7,0.2,1c-0.3,0.6-0.5,1.2-0.7,1.9
		c-0.2,0.8-0.3,1.6-0.5,2.4c-0.1,0.4,0,0.7,0.2,1c-0.4,0.6-0.6,1.2-0.8,1.8c-0.2,0.8-0.4,1.6-0.6,2.4c-0.1,0.4,0,0.7,0.2,1
		c-0.4,0.6-0.7,1.2-0.9,1.8c-0.2,0.8-0.4,1.6-0.6,2.4c-0.1,0.3,0,0.6,0.2,0.9c-0.4,0.5-0.6,1.1-0.8,1.6c-0.2,0.8-0.3,1.6-0.5,2.4
		c-0.2,0.9,1,2,2.7,2.2c1.9,0.3,3.6-0.4,3.7-1.5c-0.1,1,1.2,2,3,2c1.8,0.1,3.3-0.8,3.3-1.8c0,1,1.5,1.9,3.3,1.8s3.2-1,3-2
		c0.1,1.1,1.8,1.8,3.7,1.5C667.1,375.2,668.2,374.2,668,373.2z"/>
	<path class="st19" d="M655.4,374.3c0,1,1.5,1.9,3.3,1.8s3.2-1,3-2c0.1,1.1,1.8,1.8,3.7,1.5c1.7-0.3,2.9-1.3,2.7-2.2
		c-0.2-0.8-0.3-1.6-0.5-2.4c-0.2-0.6-0.4-1.1-0.8-1.6c0.2-0.3,0.3-0.6,0.2-0.9l0,0c-2.4,0.8-6,1.3-10.3-0.6
		c-6.4-3-3.6-19.5-2.7-24.2c-3.3,0.6-5.9,3.5-6.4,6.9c-0.1,0.8-0.2,1.6-0.4,2.4c-0.1,0.4,0,0.7,0.2,1c-0.3,0.6-0.5,1.2-0.7,1.9
		c-0.2,0.8-0.3,1.6-0.5,2.4c-0.1,0.4,0,0.7,0.2,1c-0.4,0.6-0.6,1.2-0.8,1.8c-0.2,0.8-0.4,1.6-0.6,2.4c-0.1,0.4,0,0.7,0.2,1
		c-0.4,0.6-0.7,1.2-0.9,1.8c-0.2,0.8-0.4,1.6-0.6,2.4c-0.1,0.3,0,0.6,0.2,0.9c-0.4,0.5-0.6,1.1-0.8,1.6c-0.2,0.8-0.3,1.6-0.5,2.4
		c-0.2,0.9,1,2,2.7,2.2c1.9,0.3,3.6-0.4,3.7-1.5c-0.1,1,1.2,2,3,2C653.9,376.1,655.4,375.3,655.4,374.3z"/>
</g>
<g>
	<path class="st18" d="M528.4,367.5c-0.2-0.8-0.3-1.6-0.5-2.4c-0.2-0.6-0.4-1.1-0.8-1.6c0.2-0.3,0.3-0.6,0.2-0.9
		c-0.2-0.8-0.4-1.6-0.6-2.4c-0.2-0.6-0.5-1.2-0.9-1.8c0.2-0.3,0.3-0.7,0.2-1c-0.2-0.8-0.4-1.6-0.6-2.4c-0.2-0.6-0.5-1.3-0.8-1.8
		c0.2-0.3,0.3-0.6,0.2-1c-0.2-0.8-0.3-1.6-0.5-2.4c-0.2-0.6-0.4-1.3-0.7-1.9c0.2-0.3,0.2-0.6,0.2-1c-0.1-0.8-0.2-1.6-0.4-2.4
		c-0.6-3.8-3.7-7-7.8-7l0,0c-4,0-7.2,3.2-7.8,7c-0.1,0.8-0.2,1.6-0.4,2.4c-0.1,0.4,0,0.7,0.2,1c-0.3,0.6-0.5,1.2-0.7,1.9
		c-0.2,0.8-0.3,1.6-0.5,2.4c-0.1,0.4,0,0.7,0.2,1c-0.4,0.6-0.6,1.2-0.8,1.8c-0.2,0.8-0.4,1.6-0.6,2.4c-0.1,0.4,0,0.7,0.2,1
		c-0.4,0.6-0.7,1.2-0.9,1.8c-0.2,0.8-0.4,1.6-0.6,2.4c-0.1,0.3,0,0.6,0.2,0.9c-0.4,0.5-0.6,1.1-0.8,1.6c-0.2,0.8-0.3,1.6-0.5,2.4
		c-0.2,0.9,1,2,2.7,2.2c1.9,0.3,3.6-0.4,3.7-1.5c-0.1,1,1.2,2,3,2c1.8,0.1,3.3-0.8,3.3-1.8c0,1,1.5,1.9,3.3,1.8s3.2-1,3-2
		c0.1,1.1,1.8,1.8,3.7,1.5C527.4,369.5,528.6,368.4,528.4,367.5z"/>
	<path class="st19" d="M515.7,368.5c0,1,1.5,1.9,3.3,1.8s3.2-1,3-2c0.1,1.1,1.8,1.8,3.7,1.5c1.7-0.3,2.9-1.3,2.7-2.2
		c-0.2-0.8-0.3-1.6-0.5-2.4c-0.2-0.6-0.4-1.1-0.8-1.6c0.2-0.3,0.3-0.6,0.2-0.9l0,0c-2.4,0.8-6,1.3-10.3-0.6
		c-6.4-3-3.6-19.5-2.7-24.2c-3.3,0.6-5.9,3.5-6.4,6.9c-0.1,0.8-0.2,1.6-0.4,2.4c-0.1,0.4,0,0.7,0.2,1c-0.3,0.6-0.5,1.2-0.7,1.9
		c-0.2,0.8-0.3,1.6-0.5,2.4c-0.1,0.4,0,0.7,0.2,1c-0.4,0.6-0.6,1.2-0.8,1.8c-0.2,0.8-0.4,1.6-0.6,2.4c-0.1,0.4,0,0.7,0.2,1
		c-0.4,0.6-0.7,1.2-0.9,1.8c-0.2,0.8-0.4,1.6-0.6,2.4c-0.1,0.3,0,0.6,0.2,0.9c-0.4,0.5-0.6,1.1-0.8,1.6c-0.2,0.8-0.3,1.6-0.5,2.4
		c-0.2,0.9,1,2,2.7,2.2c1.9,0.3,3.6-0.4,3.7-1.5c-0.1,1,1.2,2,3,2C514.3,370.4,515.7,369.6,515.7,368.5z"/>
</g>
<g>
	<path class="st18" d="M548.4,367.7c-0.2-0.8-0.3-1.6-0.5-2.4c-0.2-0.6-0.4-1.1-0.8-1.6c0.2-0.3,0.3-0.6,0.2-0.9
		c-0.2-0.8-0.4-1.6-0.6-2.4c-0.2-0.6-0.5-1.2-0.9-1.8c0.2-0.3,0.3-0.7,0.2-1c-0.2-0.8-0.4-1.6-0.6-2.4c-0.2-0.6-0.5-1.3-0.8-1.8
		c0.2-0.3,0.3-0.6,0.2-1c-0.2-0.8-0.3-1.6-0.5-2.4c-0.2-0.6-0.4-1.3-0.7-1.9c0.2-0.3,0.2-0.6,0.2-1c-0.1-0.8-0.2-1.6-0.4-2.4
		c-0.6-3.8-3.7-7-7.8-7l0,0c-4,0-7.2,3.2-7.8,7c-0.1,0.8-0.2,1.6-0.4,2.4c-0.1,0.4,0,0.7,0.2,1c-0.3,0.6-0.5,1.2-0.7,1.9
		c-0.2,0.8-0.3,1.6-0.5,2.4c-0.1,0.4,0,0.7,0.2,1c-0.4,0.6-0.6,1.2-0.8,1.8c-0.2,0.8-0.4,1.6-0.6,2.4c-0.1,0.4,0,0.7,0.2,1
		c-0.4,0.6-0.7,1.2-0.9,1.8c-0.2,0.8-0.4,1.6-0.6,2.4c-0.1,0.3,0,0.6,0.2,0.9c-0.4,0.5-0.6,1.1-0.8,1.6c-0.2,0.8-0.3,1.6-0.5,2.4
		c-0.2,0.9,1,2,2.7,2.2c1.9,0.3,3.6-0.4,3.7-1.5c-0.1,1,1.2,2,3,2c1.8,0.1,3.3-0.8,3.3-1.8c0,1,1.5,1.9,3.3,1.8s3.2-1,3-2
		c0.1,1.1,1.8,1.8,3.7,1.5C547.4,369.7,548.6,368.6,548.4,367.7z"/>
	<path class="st19" d="M535.7,368.7c0,1,1.5,1.9,3.3,1.8s3.2-1,3-2c0.1,1.1,1.8,1.8,3.7,1.5c1.7-0.3,2.9-1.3,2.7-2.2
		c-0.2-0.8-0.3-1.6-0.5-2.4c-0.2-0.6-0.4-1.1-0.8-1.6c0.2-0.3,0.3-0.6,0.2-0.9l0,0c-2.4,0.8-6,1.3-10.3-0.6
		c-6.4-3-3.6-19.5-2.7-24.2c-3.3,0.6-5.9,3.5-6.4,6.9c-0.1,0.8-0.2,1.6-0.4,2.4c-0.1,0.4,0,0.7,0.2,1c-0.3,0.6-0.5,1.2-0.7,1.9
		c-0.2,0.8-0.3,1.6-0.5,2.4c-0.1,0.4,0,0.7,0.2,1c-0.4,0.6-0.6,1.2-0.8,1.8c-0.2,0.8-0.4,1.6-0.6,2.4c-0.1,0.4,0,0.7,0.2,1
		c-0.4,0.6-0.7,1.2-0.9,1.8c-0.2,0.8-0.4,1.6-0.6,2.4c-0.1,0.3,0,0.6,0.2,0.9c-0.4,0.5-0.6,1.1-0.8,1.6c-0.2,0.8-0.3,1.6-0.5,2.4
		c-0.2,0.9,1,2,2.7,2.2c1.9,0.3,3.6-0.4,3.7-1.5c-0.1,1,1.2,2,3,2C534.3,370.6,535.7,369.8,535.7,368.7z"/>
</g>
<g>
	<path class="st18" d="M584.9,368.5c-0.2-0.8-0.3-1.6-0.5-2.4c-0.2-0.6-0.4-1.1-0.8-1.6c0.2-0.3,0.3-0.6,0.2-0.9
		c-0.2-0.8-0.4-1.6-0.6-2.4c-0.2-0.6-0.5-1.2-0.9-1.8c0.2-0.3,0.3-0.7,0.2-1c-0.2-0.8-0.4-1.6-0.6-2.4c-0.2-0.6-0.5-1.3-0.8-1.8
		c0.2-0.3,0.3-0.6,0.2-1c-0.2-0.8-0.3-1.6-0.5-2.4c-0.2-0.6-0.4-1.3-0.7-1.9c0.2-0.3,0.2-0.6,0.2-1c-0.1-0.8-0.2-1.6-0.4-2.4
		c-0.6-3.8-3.7-7-7.8-7l0,0c-4,0-7.2,3.2-7.8,7c-0.1,0.8-0.2,1.6-0.4,2.4c-0.1,0.4,0,0.7,0.2,1c-0.3,0.6-0.5,1.2-0.7,1.9
		c-0.2,0.8-0.3,1.6-0.5,2.4c-0.1,0.4,0,0.7,0.2,1c-0.4,0.6-0.6,1.2-0.8,1.8c-0.2,0.8-0.4,1.6-0.6,2.4c-0.1,0.4,0,0.7,0.2,1
		c-0.4,0.6-0.7,1.2-0.9,1.8c-0.2,0.8-0.4,1.6-0.6,2.4c-0.1,0.3,0,0.6,0.2,0.9c-0.4,0.5-0.6,1.1-0.8,1.6c-0.2,0.8-0.3,1.6-0.5,2.4
		c-0.2,0.9,1,2,2.7,2.2c1.9,0.3,3.6-0.4,3.7-1.5c-0.1,1,1.2,2,3,2c1.8,0.1,3.3-0.8,3.3-1.8c0,1,1.5,1.9,3.3,1.8s3.2-1,3-2
		c0.1,1.1,1.8,1.8,3.7,1.5C583.9,370.5,585.1,369.4,584.9,368.5z"/>
	<path class="st19" d="M572.2,369.5c0,1,1.5,1.9,3.3,1.8s3.2-1,3-2c0.1,1.1,1.8,1.8,3.7,1.5c1.7-0.3,2.9-1.3,2.7-2.2
		c-0.2-0.8-0.3-1.6-0.5-2.4c-0.2-0.6-0.4-1.1-0.8-1.6c0.2-0.3,0.3-0.6,0.2-0.9l0,0c-2.4,0.8-6,1.3-10.3-0.6
		c-6.4-3-3.6-19.5-2.7-24.2c-3.3,0.6-5.9,3.5-6.4,6.9c-0.1,0.8-0.2,1.6-0.4,2.4c-0.1,0.4,0,0.7,0.2,1c-0.3,0.6-0.5,1.2-0.7,1.9
		c-0.2,0.8-0.3,1.6-0.5,2.4c-0.1,0.4,0,0.7,0.2,1c-0.4,0.6-0.6,1.2-0.8,1.8c-0.2,0.8-0.4,1.6-0.6,2.4c-0.1,0.4,0,0.7,0.2,1
		c-0.4,0.6-0.7,1.2-0.9,1.8c-0.2,0.8-0.4,1.6-0.6,2.4c-0.1,0.3,0,0.6,0.2,0.9c-0.4,0.5-0.6,1.1-0.8,1.6c-0.2,0.8-0.3,1.6-0.5,2.4
		c-0.2,0.9,1,2,2.7,2.2c1.9,0.3,3.6-0.4,3.7-1.5c-0.1,1,1.2,2,3,2C570.8,371.4,572.2,370.5,572.2,369.5z"/>
</g>
<g>
	<path class="st18" d="M604.9,371.1c-0.2-0.8-0.3-1.6-0.5-2.4c-0.2-0.6-0.4-1.1-0.8-1.6c0.2-0.3,0.3-0.6,0.2-0.9
		c-0.2-0.8-0.4-1.6-0.6-2.4c-0.2-0.6-0.5-1.2-0.9-1.8c0.2-0.3,0.3-0.7,0.2-1c-0.2-0.8-0.4-1.6-0.6-2.4c-0.2-0.6-0.5-1.3-0.8-1.8
		c0.2-0.3,0.3-0.6,0.2-1c-0.2-0.8-0.3-1.6-0.5-2.4c-0.2-0.6-0.4-1.3-0.7-1.9c0.2-0.3,0.2-0.6,0.2-1c-0.1-0.8-0.2-1.6-0.4-2.4
		c-0.6-3.8-3.7-7-7.8-7l0,0c-4,0-7.2,3.2-7.8,7c-0.1,0.8-0.2,1.6-0.4,2.4c-0.1,0.4,0,0.7,0.2,1c-0.3,0.6-0.5,1.2-0.7,1.9
		c-0.2,0.8-0.3,1.6-0.5,2.4c-0.1,0.4,0,0.7,0.2,1c-0.4,0.6-0.6,1.2-0.8,1.8c-0.2,0.8-0.4,1.6-0.6,2.4c-0.1,0.4,0,0.7,0.2,1
		c-0.4,0.6-0.7,1.2-0.9,1.8c-0.2,0.8-0.4,1.6-0.6,2.4c-0.1,0.3,0,0.6,0.2,0.9c-0.4,0.5-0.6,1.1-0.8,1.6c-0.2,0.8-0.3,1.6-0.5,2.4
		c-0.2,0.9,1,2,2.7,2.2c1.9,0.3,3.6-0.4,3.7-1.5c-0.1,1,1.2,2,3,2c1.8,0.1,3.3-0.8,3.3-1.8c0,1,1.5,1.9,3.3,1.8s3.2-1,3-2
		c0.1,1.1,1.8,1.8,3.7,1.5C603.9,373,605.1,372,604.9,371.1z"/>
	<path class="st19" d="M592.2,372.1c0,1,1.5,1.9,3.3,1.8s3.2-1,3-2c0.1,1.1,1.8,1.8,3.7,1.5c1.7-0.3,2.9-1.3,2.7-2.2
		c-0.2-0.8-0.3-1.6-0.5-2.4c-0.2-0.6-0.4-1.1-0.8-1.6c0.2-0.3,0.3-0.6,0.2-0.9l0,0c-2.4,0.8-6,1.3-10.3-0.6
		c-6.4-3-3.6-19.5-2.7-24.2c-3.3,0.6-5.9,3.5-6.4,6.9c-0.1,0.8-0.2,1.6-0.4,2.4c-0.1,0.4,0,0.7,0.2,1c-0.3,0.6-0.5,1.2-0.7,1.9
		c-0.2,0.8-0.3,1.6-0.5,2.4c-0.1,0.4,0,0.7,0.2,1c-0.4,0.6-0.6,1.2-0.8,1.8c-0.2,0.8-0.4,1.6-0.6,2.4c-0.1,0.4,0,0.7,0.2,1
		c-0.4,0.6-0.7,1.2-0.9,1.8c-0.2,0.8-0.4,1.6-0.6,2.4c-0.1,0.3,0,0.6,0.2,0.9c-0.4,0.5-0.6,1.1-0.8,1.6c-0.2,0.8-0.3,1.6-0.5,2.4
		c-0.2,0.9,1,2,2.7,2.2c1.9,0.3,3.6-0.4,3.7-1.5c-0.1,1,1.2,2,3,2C590.8,374,592.2,373.1,592.2,372.1z"/>
</g>
<g>
	<path class="st18" d="M618.7,376c-0.2-0.8-0.3-1.6-0.5-2.4c-0.2-0.6-0.4-1.1-0.8-1.6c0.2-0.3,0.3-0.6,0.2-0.9
		c-0.2-0.8-0.4-1.6-0.6-2.4c-0.2-0.6-0.5-1.2-0.9-1.8c0.2-0.3,0.3-0.7,0.2-1c-0.2-0.8-0.4-1.6-0.6-2.4c-0.2-0.6-0.5-1.3-0.8-1.8
		c0.2-0.3,0.3-0.6,0.2-1c-0.2-0.8-0.3-1.6-0.5-2.4c-0.2-0.6-0.4-1.3-0.7-1.9c0.2-0.3,0.2-0.6,0.2-1c-0.1-0.8-0.2-1.6-0.4-2.4
		c-0.6-3.8-3.7-7-7.8-7l0,0c-4,0-7.2,3.2-7.8,7c-0.1,0.8-0.2,1.6-0.4,2.4c-0.1,0.4,0,0.7,0.2,1c-0.3,0.6-0.5,1.2-0.7,1.9
		c-0.2,0.8-0.3,1.6-0.5,2.4c-0.1,0.4,0,0.7,0.2,1c-0.4,0.6-0.6,1.2-0.8,1.8c-0.2,0.8-0.4,1.6-0.6,2.4c-0.1,0.4,0,0.7,0.2,1
		c-0.4,0.6-0.7,1.2-0.9,1.8c-0.2,0.8-0.4,1.6-0.6,2.4c-0.1,0.3,0,0.6,0.2,0.9c-0.4,0.5-0.6,1.1-0.8,1.6c-0.2,0.8-0.3,1.6-0.5,2.4
		c-0.2,0.9,1,2,2.7,2.2c1.9,0.3,3.6-0.4,3.7-1.5c-0.1,1,1.2,2,3,2c1.8,0.1,3.3-0.8,3.3-1.8c0,1,1.5,1.9,3.3,1.8s3.2-1,3-2
		c0.1,1.1,1.8,1.8,3.7,1.5C617.7,378,618.8,376.9,618.7,376z"/>
	<path class="st19" d="M606,377c0,1,1.5,1.9,3.3,1.8s3.2-1,3-2c0.1,1.1,1.8,1.8,3.7,1.5c1.7-0.3,2.9-1.3,2.7-2.2
		c-0.2-0.8-0.3-1.6-0.5-2.4c-0.2-0.6-0.4-1.1-0.8-1.6c0.2-0.3,0.3-0.6,0.2-0.9l0,0c-2.4,0.8-6,1.3-10.3-0.6
		c-6.4-3-3.6-19.5-2.7-24.2c-3.3,0.6-5.9,3.5-6.4,6.9c-0.1,0.8-0.2,1.6-0.4,2.4c-0.1,0.4,0,0.7,0.2,1c-0.3,0.6-0.5,1.2-0.7,1.9
		c-0.2,0.8-0.3,1.6-0.5,2.4c-0.1,0.4,0,0.7,0.2,1c-0.4,0.6-0.6,1.2-0.8,1.8c-0.2,0.8-0.4,1.6-0.6,2.4c-0.1,0.4,0,0.7,0.2,1
		c-0.4,0.6-0.7,1.2-0.9,1.8c-0.2,0.8-0.4,1.6-0.6,2.4c-0.1,0.3,0,0.6,0.2,0.9c-0.4,0.5-0.6,1.1-0.8,1.6c-0.2,0.8-0.3,1.6-0.5,2.4
		c-0.2,0.9,1,2,2.7,2.2c1.9,0.3,3.6-0.4,3.7-1.5c-0.1,1,1.2,2,3,2C604.5,378.9,606,378,606,377z"/>
</g>
<path class="st20" d="M818.8,92.5h-84.9c-4.3,0-7.8-3.5-7.7-7.8c0-4.3-3.5-7.8-7.7-7.8h-30.7c-4.9,0-8.8-3.9-8.8-8.8
	s3.9-8.8,8.8-8.8h39.1c4.5,0,8.1-3.6,8.1-8.1s-3.6-8.1-8.1-8.1h-71.1c-3.2,0-5.7-2.6-5.7-5.7l0,0v-0.7c0-3.2,2.6-5.7,5.7-5.8l0,0
	h130c3.2,0,5.7,2.6,5.7,5.8s-2.6,5.7-5.7,5.7h-20.2c-5,0-9.1,4.1-9.1,9.1c0,3.9,3.2,7.1,7.1,7.1l0,0h19.5c3.9,0,7.1,3.2,7.1,7.1
	s3.2,7.1,7.1,7.1h21.6c5.4,0,9.8,4.4,9.8,9.8C828.6,88.1,824.2,92.5,818.8,92.5L818.8,92.5"/>
<path class="st20" d="M663.9,75.6H491.1c-5.9,0-10.7,4.8-10.7,10.7c0,5.9-4.8,10.7-10.7,10.7l0,0h-42.3c-6.7,0-12.1,5.4-12.1,12.1
	s5.4,12.1,12.1,12.1h53.9c6.2,0.1,11.2,5.1,11.1,11.3c-0.1,6.1-5,11-11.1,11.1h-98c-4.4,0-7.9,3.6-7.9,7.9l0,0v0.9
	c0,4.4,3.5,7.9,7.9,7.9l0,0h179.3c4.4,0,7.9-3.6,7.9-7.9s-3.6-7.9-7.9-7.9h-27.9c-6.9,0-12.6-5.7-12.5-12.6l0,0
	c0-5.4,4.3-9.8,9.8-9.8h26.9c5.4,0,9.8-4.4,9.8-9.8s4.3-9.8,9.8-9.8H664c7.5,0,13.6-6.1,13.6-13.6S671.4,75.6,663.9,75.6"/>
<path class="st20" d="M213.1,106H182c-5,0-9.1,4-9.2,9c0,0,0,0,0,0.1c0.1,5.1-3.9,9.3-9,9.4c-0.1,0-0.1,0-0.2,0h-53
	c-5.9-0.1-10.8,4.4-11.3,10.3c-0.4,6.1,4.1,11.3,10.2,11.8c0.2,0,0.5,0,0.7,0h15.5c5.5-0.1,10,4.2,10.3,9.7
	c0.2,5.5-4.1,10.1-9.6,10.3c-0.1,0-0.2,0-0.3,0H27.3c-5.4-0.1-10.1,3.9-10.9,9.3c-0.8,5.8,3.3,11.2,9.1,12c0.5,0.1,0.9,0.1,1.4,0.1
	h148c4.3,0,7.8-3.5,7.8-7.8v-0.7c0-4.3-3.5-7.8-7.8-7.8h-2.1c-4.3,0-7.8-3.6-7.8-7.9c0-4.3,3.5-7.7,7.8-7.8h49.5
	c4.3,0,7.8,3.6,7.8,7.9c0,4.3-3.5,7.7-7.8,7.8h-15.5c-4.3,0-7.8,3.5-7.8,7.8l0,0v0.7c0,4.3,3.5,7.8,7.8,7.8l0,0h98.9
	c5.7,0.1,10.4-4.4,10.7-10c0.2-5.7-4.2-10.5-9.9-10.7c-0.1,0-0.2,0-0.3,0h-45.6c-3.5,0-6.6-2.6-7-6.1c-0.4-3.7,2.3-7,6-7.4
	c0.2,0,0.4,0,0.7,0h25c5.3,0.1,9.7-4.1,9.9-9.3c0.2-5.3-4-9.7-9.2-9.9c-0.1,0-0.2,0-0.3,0h-44.2c-7.9,0-14-6.6-14.1-14.6
	C227.1,112.2,220.9,106,213.1,106"/>
<g>
	<path class="st18" d="M567.7,372c-0.2-0.8-0.3-1.6-0.5-2.4c-0.2-0.6-0.4-1.1-0.8-1.6c0.2-0.3,0.3-0.6,0.2-0.9
		c-0.2-0.8-0.4-1.6-0.6-2.4c-0.2-0.6-0.5-1.2-0.9-1.8c0.2-0.3,0.3-0.7,0.2-1c-0.2-0.8-0.4-1.6-0.6-2.4c-0.2-0.6-0.5-1.3-0.8-1.8
		c0.2-0.3,0.3-0.6,0.2-1c-0.2-0.8-0.3-1.6-0.5-2.4c-0.2-0.6-0.4-1.3-0.7-1.9c0.2-0.3,0.2-0.6,0.2-1c-0.1-0.8-0.2-1.6-0.4-2.4
		c-0.6-3.8-3.7-7-7.8-7l0,0c-4,0-7.2,3.2-7.8,7c-0.1,0.8-0.2,1.6-0.4,2.4c-0.1,0.4,0,0.7,0.2,1c-0.3,0.6-0.5,1.2-0.7,1.9
		c-0.2,0.8-0.3,1.6-0.5,2.4c-0.1,0.4,0,0.7,0.2,1c-0.4,0.6-0.6,1.2-0.8,1.8c-0.2,0.8-0.4,1.6-0.6,2.4c-0.1,0.4,0,0.7,0.2,1
		c-0.4,0.6-0.7,1.2-0.9,1.8c-0.2,0.8-0.4,1.6-0.6,2.4c-0.1,0.3,0,0.6,0.2,0.9c-0.4,0.5-0.6,1.1-0.8,1.6c-0.2,0.8-0.3,1.6-0.5,2.4
		c-0.2,0.9,1,2,2.7,2.2c1.9,0.3,3.6-0.4,3.7-1.5c-0.1,1,1.2,2,3,2c1.8,0.1,3.3-0.8,3.3-1.8c0,1,1.5,1.9,3.3,1.8s3.2-1,3-2
		c0.1,1.1,1.8,1.8,3.7,1.5C566.7,374,567.8,372.9,567.7,372z"/>
	<path class="st19" d="M555,373c0,1,1.5,1.9,3.3,1.8s3.2-1,3-2c0.1,1.1,1.8,1.8,3.7,1.5c1.7-0.3,2.9-1.3,2.7-2.2
		c-0.2-0.8-0.3-1.6-0.5-2.4c-0.2-0.6-0.4-1.1-0.8-1.6c0.2-0.3,0.3-0.6,0.2-0.9l0,0c-2.4,0.8-6,1.3-10.3-0.6
		c-6.4-3-3.6-19.5-2.7-24.2c-3.3,0.6-5.9,3.5-6.4,6.9c-0.1,0.8-0.2,1.6-0.4,2.4c-0.1,0.4,0,0.7,0.2,1c-0.3,0.6-0.5,1.2-0.7,1.9
		c-0.2,0.8-0.3,1.6-0.5,2.4c-0.1,0.4,0,0.7,0.2,1c-0.4,0.6-0.6,1.2-0.8,1.8c-0.2,0.8-0.4,1.6-0.6,2.4c-0.1,0.4,0,0.7,0.2,1
		c-0.4,0.6-0.7,1.2-0.9,1.8c-0.2,0.8-0.4,1.6-0.6,2.4c-0.1,0.3,0,0.6,0.2,0.9c-0.4,0.5-0.6,1.1-0.8,1.6c-0.2,0.8-0.3,1.6-0.5,2.4
		c-0.2,0.9,1,2,2.7,2.2c1.9,0.3,3.6-0.4,3.7-1.5c-0.1,1,1.2,2,3,2C553.5,374.9,555,374,555,373z"/>
</g>
</svg>
