<?xml version="1.0" encoding="utf-8"?>
<!-- Generator: Adobe Illustrator 21.1.0, SVG Export Plug-In . SVG Version: 6.00 Build 0)  -->
<svg version="1.1" id="Objects" xmlns="http://www.w3.org/2000/svg" xmlns:xlink="http://www.w3.org/1999/xlink" x="0px" y="0px"
	 viewBox="0 0 193.3 237" style="enable-background:new 0 0 193.3 237;" xml:space="preserve">
<style type="text/css">
	.st0{fill:#D2BAA4;}
	.st1{fill:#EBCCB1;}
	.st2{fill:#27272C;}
	.st3{fill:#7B6541;}
	.st4{opacity:0.4;fill:#A47563;enable-background:new    ;}
	.st5{fill:#C19283;}
	.st6{fill:#FF7415;}
	.st7{fill:#272E33;}
	.st8{fill:#3F2728;}
	.st9{fill:#171B1E;}
	.st10{fill:#FCCAB1;}
	.st11{fill:#F7F7F7;}
	.st12{fill:#EAEAEA;}
	.st13{fill:#CECECE;}
	.st14{fill:#0E81AA;}
	.st15{fill:#10A9EA;}
	.st16{fill:#D3D3D3;}
	.st17{opacity:0.44;fill:#F7F7F7;enable-background:new    ;}
	.st18{fill:#A38C7C;}
</style>
<g>
	<path class="st0" d="M89,58.3l0.3,6.5c0,0-0.2,1.9,4.1,2.2c4,0.2,4-2.8,4-2.8l-0.3-9.9L89,58.3z"/>
	<path class="st1" d="M95.7,23.9c7.8,1.8,7.6,7.1,7.6,7.1s-0.2,4.1-0.4,9c0.7-1,1.9-1.4,3.2-0.9c2.6,1.1,0.7,9.5-3.3,8.7
		c-0.2,2.3-0.4,4.1-0.7,4.8c-1.1,2.4-6.1,6-10.5,6.5c-4.4,0.6-9.9-2.4-9.9-7.6s-0.1-24.4-0.1-24.4S82.8,21,95.7,23.9z"/>
	<ellipse class="st2" cx="94.4" cy="39.7" rx="1.1" ry="2"/>
	<ellipse class="st2" cx="84.9" cy="40.1" rx="1.1" ry="2"/>
	<g>
		<path class="st3" d="M91.4,35.2c0.1-0.9,0.6-1.4,1.2-1.9c0.6-0.4,1.3-0.7,2.1-0.7c0.8,0,1.7,0.3,2.3,0.9c0.6,0.6,0.8,1.4,0.6,2.2
			c-0.9-0.1-1.4-0.2-1.8-0.1c-0.4,0-0.7,0.1-1.1,0.1s-0.8,0-1.3-0.1C92.8,35.5,92.2,35.4,91.4,35.2z"/>
	</g>
	<g>
		<path class="st3" d="M86.8,35c-0.8,0.2-1.3,0.3-1.7,0.4c-0.4,0.1-0.7,0.2-0.9,0.2c-0.2,0-0.3-0.1-0.7-0.1c-0.4,0-0.8,0.1-1.6,0.2
			c-0.3-0.7-0.3-1.4,0.1-2.1c0.4-0.6,1.2-1.1,2-1.2c0.8-0.1,1.5,0.2,2,0.6C86.4,33.6,86.8,34.2,86.8,35z"/>
	</g>
	<path class="st4" d="M105.7,40.6c-1.4-0.7-2.6,1.5-2.7,3.9c1.1-0.2,1.3,1.1,0.7,2.1C106,47.1,107.2,41.4,105.7,40.6z"/>
	<g>
		<path class="st5" d="M88.4,37.5l-0.7,4.1c-0.2,1.4-0.5,2.7-0.8,4.1l-0.2-0.3c0.8,0.5,1.6,1,2.4,1.5c-0.9-0.3-1.8-0.6-2.6-1
			l-0.2-0.1v-0.2c0.1-1.4,0.3-2.8,0.6-4.1C87.4,40.1,87.8,38.7,88.4,37.5z"/>
	</g>
	<g>
		<path class="st5" d="M94.5,50.1c-1.4,1-3,1.5-4.6,1.8c-0.8,0.1-1.7,0.1-2.5,0s-1.6-0.4-2.4-0.8c1.6,0.3,3.2,0.3,4.8,0
			C91.4,50.9,92.9,50.5,94.5,50.1z"/>
	</g>
	<path class="st3" d="M97.2,48.4c-0.2-0.8-0.7-1.6-2-1.6c-2.4-0.1-6.7,0.4-6.7,0.4s0.1,2.3,2,2.2c1.1-0.1,2.9-0.2,4.4-0.2
		c0.4,0.2,1.1,1.1,0.2,4.7c-0.5,2-3.7,2.3-4.4,0.9c-0.5-1-0.4-1.6-0.4-1.6l-1.9,0.1c0,0,0.3,2.3-1,2.4c-1.4,0.1-4.5-0.6-4.2-4.5
		c0.1-1.1,0.8-1.6,1.3-1.7c0.6,0,1.2,0,1.8-0.1C88.2,49.3,88,47,88,47s-2.2-0.2-4.6,0.1c-1.4,0.2-1.8,1.2-1.9,2
		c-0.3,1.9-1.2,9.5,6,10.4C95.5,60.6,100,56.5,97.2,48.4z"/>
	<path class="st3" d="M103.6,26.3c0-1.7-0.7-3.5-2.7-4.8c-5.3-3.4-8.1-1.5-13.2-0.6s-3.6-4-3.6-4c-3.8,2.3-0.4,6.8-0.4,6.8
		c-2.8-0.8-3-4.7-3-4.7c-1.9,5.3,1.3,6.8,0.6,7c-0.8,0.2-2.3-1.9-2.3-1.9c1.8,9.5,17.3,6.6,19.3,6.2l0,0c0.1,0,0.2-0.1,0.3-0.1
		c0.3,2.8,2.6,4.8,2.6,4.8v5.1l0,0c0,0.1,0,0.2,0,0.3v1.8c0.5,0,1-0.1,1.5-0.1l0.2-1.7c0,0,0.7-1.4,1.7-1.6c1.1-2.8,1.9-5.1,1.9-7.3
		C106.4,27.5,104.6,26.5,103.6,26.3z"/>
</g>
<path class="st6" d="M113.6,69.8c0,0,6.9,113.8,8.7,122.4c5.5,25.2-6.6,44.7-8.7,27.5c-2.2-17.2-9.8-28.3-17-22.9
	c-7.2,5.4-19.9,14.9-22.5-0.8s3-130,3-130L113.6,69.8z"/>
<g>
	<path class="st7" d="M79.9,164C69.6,157.5,94,143.4,94,143.4s5.6,48.1,4.6,65.1h3.3c0,0,5.3-10.6,7.7-26.9
		c0.7-4.9-2.2-12.4-1.6-17.7c1.7-15.2,3.6-30.8,1.6-40.2l-2.3-4.1l-27.7,6.2c0,0-13.7,21.6-14.3,33.4c-0.1,2,17.2,27.8,19.4,33
		l1.8-1.6C86.4,190.8,90.9,170.9,79.9,164z"/>
	<path class="st8" d="M84.6,192.4c0,0-2.3,10,0.2,9.6s1.9-11.9,1.9-11.9L84.6,192.4z"/>
	<path class="st8" d="M98.6,208.5c0,0,2.6,5.1,4.1,4.9c1.5-0.2-0.8-4.9-0.8-4.9H98.6z"/>
	<g>
		<path class="st9" d="M101.8,208.5c0,0,0-0.3,0.1-0.8s0.1-1.4,0.3-2.4c0.1-0.5,0.1-1.1,0.2-1.7c0.1-0.6,0.1-1.3,0.2-2.1
			c0.1-1.5,0.3-3.1,0.4-5c0.1-0.9,0.1-1.9,0.2-2.9c0-0.5,0.1-1,0.1-1.6c0-0.5,0.1-1.1,0.1-1.6s0.1-1.1,0.1-1.7c0-0.3,0-0.6,0-0.9
			c0-0.3,0-0.6,0-0.9c0-1.2,0.1-2.4,0.1-3.6c0.1-4.9,0.2-10.3,0.1-16s-0.3-11.1-0.6-16c-0.1-2.5-0.2-4.8-0.4-7
			c-0.1-2.2-0.2-4.2-0.3-6.1c-0.2-3.7-0.4-6.7-0.5-8.8c-0.1-1-0.1-1.8-0.1-2.4c0-0.5,0-0.8,0-0.8s0.1,0.3,0.1,0.8
			c0.1,0.5,0.1,1.4,0.2,2.4c0.2,2.1,0.4,5.1,0.7,8.8c0.1,1.9,0.3,3.9,0.4,6.1c0.1,2.2,0.3,4.5,0.4,7c0.3,4.9,0.5,10.3,0.6,16
			s0.1,11.1-0.1,16c-0.1,1.2-0.1,2.4-0.2,3.6c0,0.3,0,0.6,0,0.9c0,0.3,0,0.6-0.1,0.9c0,0.6-0.1,1.1-0.1,1.7c0,0.5-0.1,1.1-0.1,1.6
			s-0.1,1-0.1,1.6c-0.1,1-0.2,2-0.3,2.9c-0.1,1.9-0.4,3.5-0.5,5c-0.1,0.7-0.2,1.4-0.2,2c-0.1,0.6-0.2,1.2-0.3,1.7
			c-0.2,1-0.3,1.8-0.4,2.4C101.9,208.2,101.8,208.5,101.8,208.5z"/>
	</g>
	<g>
		<path class="st9" d="M86.9,126.8c0,0-0.1,0.2-0.4,0.6s-0.6,1-1.1,1.8c-1,1.5-2.5,3.8-4.4,6.4c-0.9,1.3-2,2.8-3.1,4.4
			c-0.5,0.8-1.1,1.6-1.7,2.5s-1.1,1.8-1.6,2.7c-0.3,0.5-0.5,1-0.7,1.5c-0.1,0.2-0.2,0.5-0.3,0.8c-0.1,0.3-0.2,0.5-0.3,0.8
			c-0.2,0.5-0.4,1.1-0.6,1.6c0,0.1-0.1,0.3-0.1,0.4l-0.1,0.2l-0.1,0.2c-0.1,0.3-0.2,0.6-0.3,0.8c0,0.1-0.1,0.3-0.1,0.4
			c0,0.1-0.1,0.3-0.1,0.4c-0.1,0.3-0.2,0.6-0.2,0.9c-0.1,0.3-0.1,0.6-0.2,0.9c0,0.3-0.1,0.6-0.1,0.9c-0.2,1.2-0.3,2.4-0.2,3.7
			c0,2.5,0.6,4.9,1.3,7.1c0.4,1.1,0.9,2.2,1.4,3.2s1,2,1.6,2.9c0.5,0.9,1.1,1.8,1.6,2.7s1.1,1.7,1.6,2.6c0.5,0.8,0.9,1.7,1.3,2.5
			s0.7,1.6,1.1,2.4c0.6,1.5,1.2,2.9,1.7,4.1c0.5,1.2,1,2.2,1.4,3.1c0.2,0.4,0.4,0.8,0.5,1.1c0.2,0.3,0.3,0.6,0.4,0.8
			c0.2,0.4,0.3,0.7,0.3,0.7s-0.2-0.2-0.4-0.6c-0.1-0.2-0.3-0.5-0.5-0.8s-0.4-0.7-0.6-1.1c-0.4-0.8-0.9-1.8-1.5-3
			c-0.5-1.2-1.1-2.6-1.8-4.1c-0.3-0.7-0.7-1.5-1.1-2.3s-0.8-1.6-1.3-2.5c-0.5-0.8-1-1.7-1.6-2.5c-0.5-0.9-1.1-1.8-1.7-2.7
			c-0.5-0.9-1.1-1.9-1.6-3c-0.5-1-1-2.1-1.4-3.2c-0.4-1.1-0.8-2.3-1-3.5c0-0.2-0.1-0.3-0.1-0.5v-0.2v-0.2c0-0.3-0.1-0.6-0.1-0.9
			c0-0.2,0-0.3,0-0.5s0-0.3,0-0.5s0-0.3,0-0.5s0-0.3,0-0.5c0-1.3,0.1-2.5,0.2-3.8c0-0.3,0.1-0.6,0.1-0.9c0.1-0.3,0.1-0.6,0.2-0.9
			c0.1-0.3,0.1-0.6,0.2-0.9c0-0.1,0.1-0.3,0.1-0.4c0-0.1,0.1-0.3,0.1-0.4c0.1-0.3,0.2-0.6,0.3-0.9l0.1-0.2l0.1-0.2
			c0-0.1,0.1-0.3,0.1-0.4c0.2-0.6,0.4-1.1,0.6-1.6c0.1-0.3,0.2-0.5,0.3-0.8c0.1-0.3,0.2-0.5,0.4-0.8c0.3-0.5,0.5-1,0.8-1.5
			c0.5-1,1.1-1.9,1.7-2.7c0.6-0.9,1.1-1.7,1.7-2.5c1.1-1.6,2.2-3,3.1-4.4c1.9-2.6,3.5-4.8,4.6-6.3c0.5-0.8,0.9-1.3,1.2-1.7
			C86.8,127,86.9,126.8,86.9,126.8z"/>
	</g>
</g>
<path class="st10" d="M118.3,134.5c0,0-1.1,1.3-0.9,1.7s1.5,2.2,0.3,3.7c-1.2,1.6-1.5,1.9-1.8,1.3c0,0-0.7,1.2-1.3,0.2
	c0,0-2,1.2-2-0.2c0-1.3,0.2-2-0.1-1.8c0,0-0.5,1.7-1.3,1.5c-0.5-0.1-0.3-1.1-0.1-2c0.1-0.6,0.3-1,0.3-1s-0.9,1.1-0.8-0.1
	c0.1-1.1,0.7-3.7,2.7-3.7c0,0,0.8-0.1,1.2-0.9C114.9,132.6,118.3,134.5,118.3,134.5z"/>
<path class="st10" d="M66.9,17.7c0,0,1.2-1.2,1-1.6c-0.2-0.5-1.3-2.3,0.1-3.7s1.7-1.7,2-1.1c0,0,0.8-1.2,1.3-0.1c0,0,2.1-1,2,0.4
	c-0.1,1.3-0.4,1.9-0.1,1.8c0,0,0.6-1.7,1.4-1.4c0.5,0.2,0.2,1.2-0.1,2c-0.2,0.6-0.4,1-0.4,1s1-1,0.8,0.2c-0.2,1.1-1.1,3.6-3.1,3.4
	c0,0-0.8,0-1.3,0.8C70.1,19.9,66.9,17.7,66.9,17.7z"/>
<path class="st11" d="M75.7,65.4c0,0-0.1,18.8,1.8,35.2c1.8,16.4,2,25.4,2,25.4l30.5-3.9c0,0-6.3-10.9-3.3-17.7
	c3.1-6.8,10.6-32.4,10.6-32.4s-8.3-8.3-19-8.3c-0.7,0-3.6,3.6-4.4,3.7c-2.1,0.2-2-3.1-3.8-2.9C80.7,65.3,75.7,65.4,75.7,65.4z"/>
<path class="st10" d="M100.5,64.4"/>
<polygon class="st12" points="86.2,64.4 86.4,61.9 92.9,65 92.6,68.6 "/>
<polygon class="st13" points="92.9,65 93.9,67.4 92.7,67.7 "/>
<polygon class="st13" points="93.9,67.4 94.8,65 95.6,67.9 "/>
<path class="st12" d="M100.8,62.1c0,0.1-6,2.9-6,2.9l0.9,3.4l6.2-3.8L100.8,62.1z"/>
<polygon class="st14" points="92.7,66.6 95.1,66.5 95.6,67.9 92.7,68.1 "/>
<polygon class="st15" points="93.3,66.5 93.3,68.5 94.8,68.6 94.8,66.5 "/>
<g>
	<path class="st12" d="M114.5,69.9c0,0-0.1,0-0.2,0.1c-0.1,0-0.3,0.1-0.5,0.2s-0.4,0.4-0.6,0.7c-0.2,0.3-0.4,0.7-0.5,1.1
		c-0.3,0.9-0.6,2-0.8,3.3c-0.2,1.2-0.4,2.6-0.6,4.1c-0.1,1.5-0.1,2.9-0.1,4.1c0.1,1.3,0.2,2.4,0.3,3.4c0.3,1.9,0.6,3.1,0.5,3.1
		s-0.5-1.1-0.9-3c-0.2-1-0.4-2.1-0.5-3.4s-0.1-2.7,0-4.2s0.3-2.9,0.6-4.2c0.1-0.3,0.1-0.6,0.2-0.9s0.2-0.6,0.2-0.9
		c0.1-0.3,0.2-0.5,0.3-0.8c0.1-0.3,0.2-0.5,0.3-0.7c0.2-0.5,0.4-0.9,0.6-1.2c0.2-0.3,0.5-0.6,0.8-0.7s0.5-0.2,0.6-0.2
		C114.4,69.9,114.5,69.9,114.5,69.9z"/>
</g>
<g>
	<path class="st12" d="M92.3,124.9c0,0-0.2-0.5-0.5-1.5c-0.1-0.2-0.1-0.5-0.2-0.8s-0.1-0.6-0.2-1c-0.2-0.7-0.3-1.5-0.5-2.4
		c-0.1-0.4-0.2-0.9-0.3-1.4c-0.1-0.5-0.2-1-0.2-1.5c-0.1-0.5-0.2-1.1-0.2-1.6c-0.1-0.6-0.1-1.1-0.2-1.7c-0.3-2.4-0.5-5-0.6-7.7
		s-0.1-5.3,0-7.7c0-0.6,0.1-1.2,0.1-1.7c0-0.6,0.1-1.1,0.1-1.6s0.1-1,0.1-1.5c0.1-0.5,0.1-1,0.2-1.4c0.1-0.9,0.2-1.7,0.3-2.4
		c0.1-0.4,0.1-0.7,0.1-1c0.1-0.3,0.1-0.6,0.1-0.8c0.2-1,0.3-1.5,0.3-1.5s0,0.6-0.1,1.6c0,0.2-0.1,0.5-0.1,0.8s-0.1,0.6-0.1,1
		c-0.1,0.7-0.2,1.5-0.2,2.4c0,0.4-0.1,0.9-0.1,1.4s-0.1,1-0.1,1.5s-0.1,1.1-0.1,1.6c0,0.6,0,1.1-0.1,1.7c-0.1,2.4-0.1,5,0,7.7
		s0.3,5.3,0.6,7.6c0.1,0.6,0.1,1.2,0.2,1.7c0.1,0.6,0.1,1.1,0.2,1.6s0.1,1,0.2,1.5s0.1,0.9,0.2,1.4c0.1,0.9,0.3,1.7,0.4,2.4
		c0.1,0.3,0.1,0.7,0.2,1s0.1,0.6,0.2,0.8C92.3,124.3,92.3,124.9,92.3,124.9z"/>
</g>
<path class="st15" d="M93.3,68.5c0,0-9,28.8-5.8,40.1l2.9,3.6l3.9-3.6c0,0-3.2-11-1.9-23c1.3-12,2.4-16.9,2.4-16.9L93.3,68.5z"/>
<g>
	<path class="st12" d="M106,106.6c0,0.1-0.3,0.3-0.9,0.6c-0.1,0-0.2,0.1-0.2,0.1c-0.1,0-0.2,0.1-0.3,0.1c-0.2,0.1-0.4,0.1-0.6,0.2
		c-0.4,0.1-0.9,0.2-1.4,0.3c-0.5,0-1,0-1.5,0c-0.2,0-0.4,0-0.6-0.1c-0.1,0-0.2,0-0.3-0.1c-0.1,0-0.2,0-0.3-0.1c-0.6-0.2-1-0.4-1-0.5
		s0.4,0,1.1,0c0.1,0,0.2,0,0.2,0c0.1,0,0.2,0,0.3,0c0.2,0,0.4,0,0.6,0c0.4,0,0.9,0,1.4-0.1c0.5,0,0.9-0.1,1.3-0.2
		c0.2,0,0.4-0.1,0.6-0.1c0.1,0,0.2,0,0.3-0.1c0.1,0,0.2,0,0.2-0.1C105.6,106.7,106,106.5,106,106.6z"/>
</g>
<g>
	<ellipse transform="matrix(0.9503 -0.3114 0.3114 0.9503 -28.785 37.5219)" class="st12" cx="103.1" cy="108.9" rx="2" ry="0.3"/>
</g>
<polygon class="st12" points="99,84 99,89.3 102.5,91.5 105,88.6 105,84 "/>
<g>
	<g>
		<polygon class="st16" points="89.8,124.7 90.4,127.1 95.9,126.1 95.4,123.9 		"/>
		<path class="st17" d="M94,124.1c0,0.1-1.4,2.6-1.4,2.6l-0.9,0.2l1.1-2.6L94,124.1z"/>
	</g>
	<polygon class="st18" points="95.8,125.7 101.8,124.8 101.5,123.1 95.4,124 	"/>
	<polygon class="st18" points="103.7,122.9 103.9,124.5 109.6,123.7 109.3,122.1 	"/>
	<polygon class="st18" points="90.2,126.4 85.3,127.1 84.9,125.3 89.8,124.7 	"/>
	<polygon class="st18" points="82.8,125.7 83.1,127.3 79.5,127.7 79.5,126 	"/>
</g>
<path class="st11" d="M77.8,84c0.6-5.5,6.2-16.1-2.1-18.6c-28.7-8.7-5-45.6-5-45.6l-3.8-2.6c0,0-31.2,32-6.2,57.2
	C71.6,85.4,77.8,84,77.8,84z"/>
<path class="st11" d="M109.6,69.4c-0.6,5.5-8.6,15.3-0.3,17.8c28.7,8.7,5,45.7,5,45.7l3.8,2.6c0,0,31.2-32.1,6.2-57.3
	C113.4,67.2,109.6,69.4,109.6,69.4z"/>
<path class="st6" d="M83.9,65c0,0,6.6,3.7,8.8,3.7s-6.4-5-6.4-5S84,62.6,83.9,65z"/>
<path class="st6" d="M92.6,68.6c0,0,7.3-5,8.8-5.2s2.7,0.4,2.5,0.9C103.7,64.9,89.8,71.4,92.6,68.6z"/>
<g>
	<path class="st6" d="M92.7,68.3c0,0,0.3-0.2,0.9-0.2c0.3,0,0.7,0,1.1,0.1s0.9,0.3,1.4,0.6c0.2,0.1,0.5,0.3,0.7,0.5
		c0.1,0.1,0.1,0.1,0.2,0.2s0.1,0.1,0.2,0.2l0.1,0.1l0.1,0.1c0.1,0.1,0.1,0.1,0.2,0.2c0.1,0.2,0.2,0.3,0.2,0.6c0,0.2,0,0.5-0.1,0.7
		s-0.3,0.4-0.6,0.5C96.9,72,96.6,72,96.4,72c-0.5-0.1-0.8-0.3-1.2-0.5c-0.3-0.2-0.6-0.4-1-0.6c-0.3-0.2-0.7-0.5-0.9-0.8
		c-0.3-0.3-0.6-0.7-0.7-1.2l0.9-0.2c0,0.3,0,0.7-0.1,1c-0.2,0.5-0.6,0.9-1,1.2c-0.2,0.1-0.4,0.3-0.6,0.4s-0.4,0.2-0.7,0.2
		c-0.4,0.1-0.9,0.1-1.3,0.1c-0.2,0-0.4,0-0.6,0s-0.4,0-0.6-0.1c-0.1,0-0.2-0.1-0.4-0.1c-0.1-0.1-0.2-0.2-0.3-0.3
		c-0.2-0.2-0.3-0.6-0.2-0.8c0.1-0.3,0.2-0.5,0.3-0.6c0.1-0.2,0.3-0.3,0.4-0.4c0.6-0.4,1.2-0.7,1.8-0.9c0.6-0.2,1.1-0.2,1.6-0.2
		s0.9,0.1,1.2,0.2c0.6,0.2,0.9,0.4,0.9,0.5s-0.4-0.1-1-0.2c-0.3,0-0.7-0.1-1.1,0c-0.4,0-0.9,0.1-1.4,0.3c-0.5,0.2-1,0.5-1.5,0.9
		c-0.1,0.1-0.2,0.2-0.3,0.3c-0.1,0.1-0.1,0.2-0.1,0.3v0.1v0.1c0,0,0.1,0.1,0.3,0.1c0.1,0,0.3,0,0.5,0s0.4,0,0.6,0
		c0.4,0,0.8,0,1.1-0.1c0.2,0,0.4-0.1,0.5-0.2c0.2-0.1,0.3-0.2,0.5-0.3c0.3-0.2,0.5-0.5,0.6-0.8c0.1-0.2,0.1-0.4,0.1-0.6l0,0
		c0-0.2,0.2-0.5,0.4-0.5c0.2,0,0.4,0.1,0.5,0.3c0.3,0.7,0.8,1.2,1.4,1.6c0.3,0.2,0.6,0.4,0.9,0.6s0.6,0.4,0.8,0.4
		c0.5,0,0.7-0.2,0.4-0.7c0-0.1-0.1-0.1-0.1-0.2c0,0,0-0.1-0.1-0.1l-0.1-0.1c0-0.1-0.1-0.1-0.1-0.2l-0.1-0.1
		c-0.2-0.2-0.4-0.4-0.6-0.5c-0.4-0.3-0.8-0.5-1.2-0.6c-0.4-0.1-0.7-0.2-1-0.2C93.1,68.4,92.7,68.4,92.7,68.3z"/>
</g>
</svg>
