<?xml version="1.0" encoding="utf-8"?>
<!-- Generator: Adobe Illustrator 21.1.0, SVG Export Plug-In . SVG Version: 6.00 Build 0)  -->
<svg version="1.1" id="Layer_1" xmlns="http://www.w3.org/2000/svg" xmlns:xlink="http://www.w3.org/1999/xlink" width="2560" height="224" x="0px" y="0px"
	 viewBox="0 0 2560 224" style="enable-background:new 0 0 2560 224;" xml:space="preserve">
<style type="text/css">
	.st0{fill:#FF7415;}
	.st1{fill:#10A9EA;}
</style>
<path id="_4_4" class="st0" d="M1158.8,155v27.2c0,1.3,0.3,2.2,0.8,2.5c0.7,0.4,1.6,0.6,2.4,0.5h11.1c0.8,0.1,1.6-0.1,2.4-0.5
	c0.5-0.3,0.8-1.2,0.8-2.5v-27.4h14.4c0.9,0.1,1.9-0.1,2.7-0.6c0.6-0.7,0.8-1.6,0.7-2.4v-8.9c0-2-1.1-3-3.4-3h-14.4V58
	c0-3.6-0.7-6.2-2.1-7.7c-1.4-1.5-3.9-2.3-7.4-2.3h-5.7c-2.4,0-4.8,0.9-6.5,2.6c-1.8,1.7-3.4,3.6-4.9,5.6l-58.4,76.2
	c-1.4,1.8-2.5,3.7-3.3,5.8c-0.6,1.9-0.9,3.8-0.9,5.8v2.2c0,3.6,1,6,3,7.1c2,1.1,4.3,1.7,6.6,1.7L1158.8,155L1158.8,155z
	 M1158.8,139.8H1107l-0.2-0.8l51.6-67.6l0.4,0.2V139.8z M1438.8,155v27.2c0,1.3,0.3,2.2,0.8,2.5c0.7,0.4,1.5,0.6,2.4,0.5h11.1
	c0.8,0.1,1.6-0.1,2.4-0.5c0.5-0.3,0.8-1.2,0.8-2.5v-27.4l0-15V58c0-3.6-0.7-6.1-2.1-7.7s-3.9-2.3-7.4-2.3h-5.7
	c-2.4,0-4.8,0.9-6.5,2.6c-1.8,1.7-3.4,3.6-4.9,5.6l-58.4,76.2c-1.4,1.8-2.5,3.7-3.3,5.8c-0.6,1.9-0.9,3.8-0.9,5.8v2.2
	c0,3.6,1,6,3,7.1c2,1.1,4.3,1.7,6.6,1.7L1438.8,155L1438.8,155z M1438.8,139.8H1387l-0.2-0.8l51.6-67.6l0.4,0.2V139.8z"/>
<path id="_0_1_" class="st1" d="M1281.5,49.5c35.8,0,65,29.2,65,65s-29.2,65-65,65s-65-29.2-65-65S1245.7,49.5,1281.5,49.5
	 M1281.5,34.5c-44.2,0-80,35.8-80,80s35.8,80,80,80s80-35.8,80-80S1325.7,34.5,1281.5,34.5L1281.5,34.5z"/>
<path id="icon" class="st1" d="M1282.5,131.5c-1,0-1.8,0.8-1.8,1.8c0,1,0.8,1.8,1.8,1.8c1,0,1.8-0.8,1.8-1.8c0,0,0,0,0,0
	C1284.3,132.2,1283.5,131.5,1282.5,131.5z M1303.8,76c-3,0-5.9,1.6-7.5,4.1c-4.6-1.7-9.7,0.6-11.5,5.2c-0.2,0.4-0.3,0.9-0.4,1.4h-2
	c-2.9,0-5.3,2.4-5.3,5.3s2.4,5.3,5.3,5.3h32c2.9,0,5.3-2.4,5.3-5.3s-2.4-5.3-5.3-5.3h-2c1-4.8-2.1-9.5-6.9-10.5
	C1305,76.1,1304.4,76,1303.8,76z M1303.8,79.6c2.9,0,5.3,2.4,5.3,5.3c0,0.6-0.1,1.2-0.3,1.8h-7c-0.4-1.8-1.3-3.4-2.6-4.6
	C1300.3,80.5,1302,79.6,1303.8,79.6z M1316.3,92c0,1-0.8,1.8-1.8,1.8h-32c-1,0-1.8-0.8-1.8-1.8c0-1,0.8-1.8,1.8-1.8c0,0,0,0,0,0h3.6
	c1,0,1.8-0.8,1.8-1.8c0-2.9,2.4-5.3,5.3-5.3c2.9,0,5.3,2.4,5.3,5.3c0,1,0.8,1.8,1.8,1.8h14.2C1315.5,90.2,1316.3,91,1316.3,92z
	 M1322.7,124.3h-43.7c-2.9,0-5.3,2.4-5.3,5.3v7.1c0,2.9,2.4,5.3,5.3,5.3h1.8v3.6h-1.8c-2.9,0-5.3,2.4-5.3,5.3c0,2.3,1.4,4.3,3.6,5
	v7.4h-11.7v-1.8c0-2.9-2.4-5.3-5.3-5.3h-1.8v-12.4c0-2.3-1.4-4.3-3.6-5V108h3.6c0.8,0,1.5-0.5,1.7-1.3l4.2-16.4h2.9
	c1,0,1.8-0.8,1.7-1.8c0-0.9-0.8-1.7-1.7-1.7h-0.7l-3.1-6.1c-0.3-0.6-0.9-1-1.6-1h-7.1v-1.8c0-1-0.8-1.8-1.8-1.8s-1.8,0.8-1.8,1.8
	v1.8h-7.1c-0.7,0-1.3,0.4-1.6,1l-3.1,6.1h-0.7c-1,0-1.8,0.8-1.7,1.8c0,0.9,0.8,1.7,1.7,1.7h2.9l4.2,16.4c0.2,0.8,0.9,1.3,1.7,1.3
	h3.6v30.9c-2.1,0.8-3.6,2.8-3.6,5v12.4h-1.8c-2.9,0-5.3,2.4-5.3,5.3v1.8h-1.8c-1,0-1.8,0.8-1.7,1.8c0,0.9,0.8,1.7,1.7,1.7h87.4
	c1,0,1.8-0.8,1.7-1.8c0-0.9-0.8-1.7-1.7-1.7h-1.8V156c2.8-1,4.2-4,3.3-6.8c-0.8-2.1-2.8-3.6-5-3.6h-1.8v-3.6h1.8
	c2.9,0,5.3-2.4,5.3-5.3v-7.1C1328,126.7,1325.6,124.3,1322.7,124.3L1322.7,124.3z M1245.2,83.1h15.6l1.8,3.6h-19.1L1245.2,83.1z
	 M1249,104.4l-3.7-14.2h15.2l-3.7,14.2h-2.2v-8.9c0-1-0.8-1.8-1.8-1.8c-1,0-1.8,0.8-1.8,1.8v8.9H1249L1249,104.4z M1280.7,156.3h3.6
	v7.1h-3.6V156.3z M1313.8,156.3v7.1h-25.9v-7.1H1313.8L1313.8,156.3z M1251.2,143.9c0-1,0.8-1.8,1.8-1.8c1,0,1.8,0.8,1.8,1.8l0,0
	v12.4h-3.6V143.9z M1244.1,161.7c0-1,0.8-1.8,1.8-1.8h14.2c1,0,1.8,0.8,1.8,1.8v1.8h-17.8V161.7z M1317.3,163.5v-7.1h3.6v7.1H1317.3
	z M1324.4,151c0,1-0.8,1.8-1.8,1.8h-43.7c-1,0-1.8-0.8-1.8-1.8c0-1,0.8-1.8,1.8-1.8h43.7C1323.6,149.2,1324.4,150,1324.4,151z
	 M1317.3,145.7h-33.1v-3.6h33.1V145.7z M1324.4,136.8c0,1-0.8,1.8-1.8,1.8h-43.7c-1,0-1.8-0.8-1.8-1.8v-7.1c0-1,0.8-1.8,1.8-1.8
	h43.7c1,0,1.8,0.8,1.8,1.8V136.8z M1319.1,131.4h-29.5c-1,0-1.8,0.8-1.7,1.8c0,0.9,0.8,1.7,1.7,1.7h29.5c1,0.2,1.9-0.5,2.1-1.5
	c0.2-1-0.5-1.9-1.4-2.1C1319.5,131.4,1319.3,131.4,1319.1,131.4L1319.1,131.4z"/>
<rect id="stripe" x="1473" y="95" class="st1" width="1087" height="15"/>
<rect id="stripe_1_" x="1473" y="117" class="st0" width="1087" height="15"/>
<rect id="stripe_2_" x="1452" y="140" class="st0" width="1108" height="15"/>
<rect id="stripe_3_" y="95" class="st1" width="1069" height="15"/>
<rect id="stripe_4_" y="117" class="st1" width="1069" height="15"/>
<rect id="stripe_5_" y="140" class="st0" width="1069" height="15"/>
</svg>
