<svg xmlns="http://www.w3.org/2000/svg" width="22" height="71" viewBox="0 0 22 71"><defs><clipPath id="y81wa"><path fill="#fff" d="M12 14v57"/></clipPath><clipPath id="y81wb"><path fill="#fff" d="M0 22V0h22v22zm7-11a4 4 0 1 0 8 0 4 4 0 0 0-8 0z"/></clipPath></defs><g><g opacity="-1"><path fill="none" stroke="#10a9ea" stroke-dasharray="0 4" stroke-linecap="round" stroke-miterlimit="20" stroke-width="4" d="M12 14v57" clip-path="url(&quot;#y81wa&quot;)"/></g><g opacity="-1"><path fill="#10a9ea" d="M11 7a4 4 0 1 1 0 8 4 4 0 0 1 0-8z"/><path fill="none" stroke="#10a9ea" stroke-linecap="round" stroke-linejoin="round" stroke-miterlimit="20" stroke-opacity=".14" stroke-width="14" d="M11 7a4 4 0 1 1 0 8 4 4 0 0 1 0-8z" clip-path="url(&quot;#y81wb&quot;)"/></g></g></svg>