<svg xmlns="http://www.w3.org/2000/svg" width="74" height="102" viewBox="0 0 74 102"><g><g clip-path="url(#clip-4562)" opacity=".25"><path fill="#fff" d="M100.906 49.408a1.7 1.7 0 0 1 0 3.18l-25.86 9.85 4.776 15.252a1.699 1.699 0 0 1-2.132 2.132l-15.249-4.775-9.85 25.859a1.7 1.7 0 0 1-3.18 0l-9.85-25.86-15.252 4.776a1.7 1.7 0 0 1-2.132-2.132l4.776-15.251-25.86-9.85a1.7 1.7 0 0 1 0-3.179l25.86-9.848-4.776-15.253a1.699 1.699 0 0 1 2.132-2.132l15.251 4.775 9.85-25.859a1.7 1.7 0 0 1 3.18 0l9.848 25.86 15.252-4.776a1.7 1.7 0 0 1 2.132 2.132L75.047 39.56l25.86 9.85zM52.7 10.936v26.58a13.522 13.522 0 0 1 6.63 2.753l3.29-3.293zM61.2 51c0-5.633-4.567-10.2-10.2-10.2-5.634 0-10.2 4.567-10.2 10.2 0 5.634 4.566 10.2 10.2 10.2 5.631-.005 10.194-4.568 10.2-10.2zM49.3 10.936l-9.923 26.04 3.293 3.293a13.522 13.522 0 0 1 6.63-2.752zM10.937 49.3h26.58a13.521 13.521 0 0 1 2.752-6.63l-3.293-3.284zm0 3.4l26.04 9.923 3.292-3.293a13.52 13.52 0 0 1-2.752-6.63zM49.3 91.062v-26.58a13.514 13.514 0 0 1-6.63-2.752l-3.283 3.293zm3.4 0l9.923-26.039-3.293-3.293a13.514 13.514 0 0 1-6.63 2.752zM91.063 52.7h-26.58a13.521 13.521 0 0 1-2.753 6.63l3.294 3.283zm0-3.4l-26.04-9.924-3.293 3.293a13.522 13.522 0 0 1 2.753 6.63zM63.653 30.13l2.265 5.95 5.95 2.267 3.74-11.957zm-33.521 8.217l5.95-2.266 2.266-5.95-11.956-3.74zm8.216 33.52l-2.266-5.95-5.95-2.267-3.74 11.957zm33.52-8.217l-5.95 2.266-2.265 5.95 11.955 3.74zm-55.224-22.39l-3.273-.924a38.8 38.8 0 0 1 6.083-12.444l2.74 2.012a35.412 35.412 0 0 0-5.55 11.357zm63.16-11.356l2.743-2.012a38.828 38.828 0 0 1 6.081 12.444l-3.27.925a35.42 35.42 0 0 0-5.554-11.357zm-8.274-8.117a35.45 35.45 0 0 0-10.792-5.144l.924-3.273A38.873 38.873 0 0 1 73.49 19.01zm-41.06 0l-1.958-2.78a38.87 38.87 0 0 1 11.825-5.637l.925 3.273a35.485 35.485 0 0 0-10.792 5.144zm-13.826 38.95a35.412 35.412 0 0 0 5.55 11.356l-2.74 2.013a38.805 38.805 0 0 1-6.083-12.445zm63.16 11.356a35.417 35.417 0 0 0 5.554-11.357l3.27.925a38.837 38.837 0 0 1-6.08 12.445zM71.53 80.21l1.96 2.778a38.86 38.86 0 0 1-11.828 5.64l-.924-3.273A35.445 35.445 0 0 0 71.53 80.21zm-41.06 0a35.486 35.486 0 0 0 10.792 5.145l-.925 3.272a38.877 38.877 0 0 1-11.825-5.637z"/></g></g></svg>