<svg xmlns="http://www.w3.org/2000/svg" width="30" height="40" viewBox="0 0 30 40"><g><g><path fill="#fff" d="M27.146 18.232l-.109.023a10.767 10.767 0 0 1 1.749 2.775l.284.578c2.077 5.062.656 10.97-3.279 14.655-3.52 3.287-8.437 4.153-13.028 3.553-4.306-.555-8.306-3.308-10.579-7.15-.7-1.177-1.268-2.51-1.574-3.842-.371-1.11-.503-2.22-.59-3.33-.306-4.82 1.64-9.926 5.224-12.947-1.64 3.642-1.246 8.194 1.159 11.37.109.155.196.267.328.377.393.356.918.49 1.398.267.438-.178.766-.622.766-1.11 0-.289-.088-.51-.175-.733-2.623-6.995-.438-15.145 5.115-19.763C15.365 1.689 17.2.535 19.19.024c-1.99 4.108-1.334 9.46 1.858 12.701 1.377 1.4 3.016 2.354 4.437 3.686.568.578 1.159 1.155 1.661 1.821zm-6.798 13.99c1.312-1.222 2.077-3.22 2.011-5.04a3.47 3.47 0 0 0-.13-.956c-.547-3.02-3.148-3.997-4.81-6.217-.502-.667-.94-1.51-1.311-2.354-.612 1.532-.656 2.93-.394 4.574.285 1.71.962 3.176.59 4.952-.437 1.977-1.967 3.93-4.568 4.552 1.465 1.466 3.869 2.71 6.274 1.821.765-.222 1.748-.8 2.36-1.332z"/></g></g></svg>