<svg xmlns="http://www.w3.org/2000/svg" width="69" height="92" viewBox="0 0 69 92"><g><g clip-path="url(#clip-4553)" opacity=".25"><path fill="#fff" d="M60.67 71.034l-2.115 5.106c-.725 1.752-2.655 2.728-4.49 2.27a192.54 192.54 0 0 1-3.316-.858 25.73 25.73 0 0 1-4.23 4.233c.299 1.118.587 2.232.857 3.316.457 1.835-.518 3.766-2.268 4.49l-5.105 2.116c-1.75.725-3.805.05-4.78-1.57-.581-.97-1.165-1.962-1.736-2.953a25.71 25.71 0 0 1-5.985 0 193.508 193.508 0 0 1-1.738 2.952 3.877 3.877 0 0 1-4.78 1.57l-5.104-2.115a3.878 3.878 0 0 1-2.269-4.49c.272-1.09.56-2.205.858-3.317a25.73 25.73 0 0 1-4.232-4.232c-1.111.298-2.226.587-3.315.858-1.835.457-3.764-.52-4.49-2.27L.319 71.034c-.725-1.751-.05-3.806 1.57-4.78a190.88 190.88 0 0 1 2.951-1.738 25.729 25.729 0 0 1 .001-5.986 195.362 195.362 0 0 1-2.952-1.739c-1.62-.974-2.295-3.029-1.57-4.78l2.114-5.106c.725-1.75 2.655-2.727 4.49-2.27 1.088.272 2.203.56 3.316.86a25.678 25.678 0 0 1 4.231-4.234 189.052 189.052 0 0 1-.858-3.316c-.457-1.835.519-3.766 2.269-4.491l5.105-2.115a3.877 3.877 0 0 1 4.779 1.57c.578.962 1.162 1.954 1.737 2.952a25.711 25.711 0 0 1 5.984.001c.574-.994 1.158-1.987 1.738-2.953.974-1.62 3.029-2.296 4.78-1.57l5.104 2.115c1.75.725 2.726 2.656 2.269 4.49-.272 1.092-.56 2.207-.859 3.318a25.706 25.706 0 0 1 4.233 4.232c1.11-.298 2.225-.587 3.315-.858 1.835-.458 3.764.518 4.49 2.27l2.114 5.105c.725 1.752.05 3.807-1.57 4.78-.963.58-1.955 1.163-2.95 1.738a25.716 25.716 0 0 1-.002 5.986 197.1 197.1 0 0 1 2.952 1.74c1.62.973 2.295 3.028 1.57 4.779zm-3.89-1.37c-.93-.558-1.882-1.117-2.833-1.664a3.848 3.848 0 0 1-1.908-3.815c.22-1.77.221-3.563.001-5.33a3.846 3.846 0 0 1 1.908-3.812 187.07 187.07 0 0 0 2.832-1.663l-1.944-4.694c-1.047.263-2.115.54-3.178.827a3.844 3.844 0 0 1-4.044-1.346 21.596 21.596 0 0 0-3.767-3.767 3.848 3.848 0 0 1-1.349-4.047c.287-1.064.564-2.133.827-3.18l-4.692-1.945c-.556.929-1.116 1.881-1.664 2.834a3.845 3.845 0 0 1-3.814 1.908c-1.77-.22-3.562-.22-5.327 0a3.845 3.845 0 0 1-3.811-1.909c-.55-.956-1.11-1.908-1.663-2.833l-4.693 1.944c.263 1.05.541 2.119.827 3.18a3.847 3.847 0 0 1-1.346 4.045 21.59 21.59 0 0 0-3.767 3.768 3.845 3.845 0 0 1-4.045 1.349 190.568 190.568 0 0 0-3.18-.827L4.207 53.38c.928.556 1.88 1.116 2.833 1.664a3.848 3.848 0 0 1 1.907 3.815 21.622 21.622 0 0 0 0 5.329A3.847 3.847 0 0 1 7.038 68c-.953.549-1.905 1.108-2.832 1.664l1.944 4.693c1.046-.262 2.114-.54 3.178-.826a3.843 3.843 0 0 1 4.044 1.346 21.58 21.58 0 0 0 3.767 3.767 3.848 3.848 0 0 1 1.349 4.047 189.808 189.808 0 0 0-.827 3.18l4.692 1.944c.552-.92 1.111-1.873 1.664-2.834a3.844 3.844 0 0 1 3.814-1.907c1.768.22 3.56.22 5.327.001a3.846 3.846 0 0 1 3.81 1.908c.547.95 1.106 1.901 1.664 2.832l4.693-1.943a192.25 192.25 0 0 0-.827-3.18 3.845 3.845 0 0 1 1.346-4.044 21.59 21.59 0 0 0 3.766-3.769 3.845 3.845 0 0 1 4.046-1.349 186.1 186.1 0 0 0 3.18.827zm-20.917 4.825a14.014 14.014 0 0 1-5.37 1.076c-1.818 0-3.637-.36-5.368-1.076a13.942 13.942 0 0 1-7.594-7.596c-2.96-7.15.446-15.375 7.593-18.336 7.149-2.962 15.372.445 18.332 7.595 2.96 7.15-.446 15.375-7.593 18.337zm3.79-16.761c-1.58-3.814-5.28-6.122-9.172-6.122a9.859 9.859 0 0 0-3.78.755c-5.051 2.092-7.458 7.905-5.366 12.957a9.85 9.85 0 0 0 5.365 5.366 9.846 9.846 0 0 0 7.587 0c5.05-2.092 7.458-7.905 5.366-12.956zM92 21.363v4.017a3.281 3.281 0 0 1-2.775 3.227c-.71.107-1.44.21-2.176.308a19.173 19.173 0 0 1-1.475 3.561c.45.588.892 1.178 1.32 1.757a3.282 3.282 0 0 1-.318 4.245l-2.84 2.84a3.28 3.28 0 0 1-4.244.32c-.58-.43-1.17-.873-1.756-1.322a19.173 19.173 0 0 1-3.56 1.476c-.099.735-.202 1.465-.308 2.177a3.28 3.28 0 0 1-3.226 2.775h-4.016a3.281 3.281 0 0 1-3.227-2.775c-.106-.711-.21-1.442-.307-2.177a19.183 19.183 0 0 1-3.56-1.475c-.587.448-1.176.891-1.757 1.321a3.28 3.28 0 0 1-4.244-.32l-2.84-2.84a3.282 3.282 0 0 1-.319-4.245c.429-.58.872-1.169 1.322-1.757a19.18 19.18 0 0 1-1.476-3.56 138.66 138.66 0 0 1-2.175-.309 3.281 3.281 0 0 1-2.775-3.227v-4.017a3.28 3.28 0 0 1 2.775-3.227c.71-.107 1.44-.21 2.175-.308.37-1.233.866-2.427 1.476-3.561-.45-.588-.893-1.178-1.321-1.757a3.282 3.282 0 0 1 .32-4.245l2.839-2.84a3.279 3.279 0 0 1 4.243-.32c.581.43 1.17.873 1.757 1.322a19.115 19.115 0 0 1 3.56-1.476c.098-.736.201-1.466.308-2.176a3.28 3.28 0 0 1 3.226-2.776h4.016a3.28 3.28 0 0 1 3.226 2.776c.107.71.21 1.44.308 2.176 1.232.37 2.426.865 3.56 1.476.586-.448 1.176-.892 1.756-1.322a3.28 3.28 0 0 1 4.244.32l2.84 2.84a3.282 3.282 0 0 1 .32 4.245c-.429.579-.872 1.168-1.322 1.757a19.174 19.174 0 0 1 1.475 3.561c.735.098 1.465.201 2.176.308A3.281 3.281 0 0 1 92 21.363zm-3.911 3.458v-2.898c-.646-.094-1.304-.185-1.965-.271A3.252 3.252 0 0 1 83.4 19.29a15.249 15.249 0 0 0-1.438-3.474 3.255 3.255 0 0 1 .255-3.598c.405-.528.807-1.059 1.198-1.582l-2.049-2.05c-.526.393-1.055.794-1.581 1.199a3.253 3.253 0 0 1-3.598.255 15.259 15.259 0 0 0-3.472-1.44 3.253 3.253 0 0 1-2.362-2.725c-.086-.66-.177-1.318-.27-1.964h-2.898a138.44 138.44 0 0 0-.27 1.965A3.252 3.252 0 0 1 64.551 8.6c-1.21.334-2.378.818-3.471 1.44a3.252 3.252 0 0 1-3.6-.256c-.525-.405-1.054-.806-1.58-1.198l-2.048 2.049c.39.523.792 1.054 1.198 1.581a3.255 3.255 0 0 1 .254 3.599 15.228 15.228 0 0 0-1.438 3.473 3.253 3.253 0 0 1-2.724 2.363c-.661.086-1.32.177-1.965.27v2.898c.646.094 1.304.185 1.965.271a3.252 3.252 0 0 1 2.724 2.363c.333 1.21.817 2.38 1.438 3.473a3.256 3.256 0 0 1-.254 3.599c-.406.527-.807 1.057-1.198 1.582l2.048 2.049a132.51 132.51 0 0 0 1.581-1.198 3.252 3.252 0 0 1 3.599-.255 15.217 15.217 0 0 0 3.471 1.439 3.253 3.253 0 0 1 2.363 2.725c.086.66.177 1.318.27 1.964h2.898c.093-.646.184-1.304.27-1.965a3.252 3.252 0 0 1 2.362-2.724 15.23 15.23 0 0 0 3.472-1.44 3.253 3.253 0 0 1 3.598.256c.526.404 1.056.806 1.581 1.198l2.049-2.05c-.391-.523-.793-1.054-1.198-1.58a3.255 3.255 0 0 1-.255-3.6 15.235 15.235 0 0 0 1.439-3.473 3.253 3.253 0 0 1 2.724-2.363c.66-.086 1.318-.176 1.964-.27zm-11.12-1.45c0 4.598-3.74 8.338-8.335 8.338-4.596 0-8.335-3.74-8.335-8.337 0-4.598 3.739-8.338 8.335-8.338 4.596 0 8.335 3.74 8.335 8.338zm-3.705 0a4.636 4.636 0 0 0-4.63-4.631 4.636 4.636 0 0 0-4.63 4.631 4.636 4.636 0 0 0 4.63 4.632 4.636 4.636 0 0 0 4.63-4.632z"/></g></g></svg>