<svg xmlns="http://www.w3.org/2000/svg" width="41" height="29" viewBox="0 0 41 29"><g><g><path fill="#fff" d="M21.429 16.732a2.814 2.814 0 0 1-.858.125 2.81 2.81 0 0 1-.857-.125L9.464 13.5l-.321 5.643c-.048.821.44 1.583 1.464 2.285 1.024.703 2.423 1.26 4.197 1.67 1.773.41 3.696.616 5.767.616 2.072 0 3.994-.205 5.768-.616 1.774-.41 3.173-.967 4.197-1.67 1.023-.702 1.511-1.464 1.464-2.285l-.321-5.643zM20.749.875a.772.772 0 0 0-.178-.018.772.772 0 0 0-.178.018l-20 6.286C.13 7.256 0 7.44 0 7.714c0 .274.13.459.393.554l5.946 1.857c-1.035 1.464-1.619 3.429-1.75 5.893-.774.452-1.16 1.113-1.16 1.982 0 .821.345 1.458 1.035 1.91L3.43 27.644a.525.525 0 0 0 .142.446c.108.13.25.197.429.197h3.429a.526.526 0 0 0 .428-.197.527.527 0 0 0 .143-.446L6.964 19.91C7.654 19.458 8 18.82 8 18c0-.869-.375-1.518-1.125-1.947.071-1.202.274-2.264.607-3.187.333-.923.756-1.586 1.268-1.991l11.643 3.678a.739.739 0 0 0 .178.018.74.74 0 0 0 .179-.018l20-6.285c.262-.095.393-.28.393-.554s-.131-.458-.393-.553z"/></g></g></svg>