<svg xmlns="http://www.w3.org/2000/svg" width="24" height="8.813" viewBox="0 0 24 8.813">
  <defs>
    <style>
      .cls-1 {
        fill: #fff;
        fill-rule: evenodd;
      }
    </style>
  </defs>
  <path id="иконка" class="cls-1" d="M1200.59,915.7V918.8a1.068,1.068,0,0,0,.57.937,13.28,13.28,0,0,1,2.67,1.828,0.952,0.952,0,0,0,.7.282,0.936,0.936,0,0,0,.7-0.282l2.49-2.484a1.023,1.023,0,0,0,0-1.406,16.61,16.61,0,0,0-5.3-3.422,17.515,17.515,0,0,0-12.84,0,16.61,16.61,0,0,0-5.3,3.422,1.023,1.023,0,0,0,0,1.406l2.49,2.484a0.936,0.936,0,0,0,.7.282,0.952,0.952,0,0,0,.7-0.282,13,13,0,0,1,2.67-1.828,1.087,1.087,0,0,0,.57-0.937V915.7a15.336,15.336,0,0,1,9.18,0h0Z" transform="translate(-1184 -913.031)"/>
</svg>
