<svg xmlns="http://www.w3.org/2000/svg" width="19.97" height="16.031" viewBox="0 0 19.97 16.031">
  <defs>
    <style>
      .cls-1 {
        fill: #fff;
        fill-rule: evenodd;
      }
    </style>
  </defs>
  <path id="иконка" class="cls-1" d="M1205.42,879.594a1.885,1.885,0,0,1,.56,1.406v12a1.887,1.887,0,0,1-.56,1.406,2.06,2.06,0,0,1-1.4.61h-16.04a2.06,2.06,0,0,1-1.4-.61,1.887,1.887,0,0,1-.56-1.406V881a1.885,1.885,0,0,1,.56-1.406,2.064,2.064,0,0,1,1.4-.61h16.04A2.064,2.064,0,0,1,1205.42,879.594Zm-1.4,3.422-8.02,4.968-8.02-4.968V893h16.04v-9.984ZM1187.98,881l8.02,5.016,8.02-5.016h-16.04Z" transform="translate(-1186 -878.969)"/>
</svg>
