<?xml version="1.0" encoding="utf-8"?>
<!-- Generator: Adobe Illustrator 21.1.0, SVG Export Plug-In . SVG Version: 6.00 Build 0)  -->
<svg version="1.1" id="OBJECTS" xmlns="http://www.w3.org/2000/svg" xmlns:xlink="http://www.w3.org/1999/xlink" x="0px" y="0px"
	 viewBox="0 0 160 226.3" style="enable-background:new 0 0 160 226.3;" xml:space="preserve">
<style type="text/css">
	.st0{clip-path:url(#SVGID_2_);fill:#DDBCA6;}
	.st1{clip-path:url(#SVGID_4_);fill:#F7CEB2;}
	.st2{clip-path:url(#SVGID_6_);fill:#222228;}
	.st3{clip-path:url(#SVGID_8_);fill:#222228;}
	.st4{clip-path:url(#SVGID_10_);}
	.st5{fill:#84653C;}
	.st6{clip-path:url(#SVGID_12_);}
	.st7{opacity:0.4;clip-path:url(#SVGID_14_);fill:#B57662;enable-background:new    ;}
	.st8{clip-path:url(#SVGID_16_);}
	.st9{fill:#D39484;}
	.st10{clip-path:url(#SVGID_18_);}
	.st11{clip-path:url(#SVGID_20_);fill:#84653C;}
	.st12{clip-path:url(#SVGID_22_);fill:#DB6412;}
	.st13{clip-path:url(#SVGID_24_);fill:#FF7415;}
	.st14{clip-path:url(#SVGID_26_);fill:#DB6412;}
	.st15{clip-path:url(#SVGID_28_);fill:#FFFFFF;}
	.st16{clip-path:url(#SVGID_30_);fill:#FFFFFF;}
	.st17{clip-path:url(#SVGID_32_);fill:#FFFFFF;}
	.st18{clip-path:url(#SVGID_34_);fill:#FFFFFF;}
	.st19{clip-path:url(#SVGID_36_);fill:#DB6412;}
	.st20{clip-path:url(#SVGID_38_);fill:#DBB4D1;}
	.st21{clip-path:url(#SVGID_40_);fill:#FFB476;}
	.st22{clip-path:url(#SVGID_42_);fill:#D1652F;}
	.st23{clip-path:url(#SVGID_44_);fill:#D1652F;}
	.st24{clip-path:url(#SVGID_46_);fill:#3A1B0B;}
	.st25{clip-path:url(#SVGID_48_);fill:#FFB476;}
	.st26{clip-path:url(#SVGID_50_);fill:#D1652F;}
	.st27{clip-path:url(#SVGID_52_);fill:#C73700;}
	.st28{clip-path:url(#SVGID_54_);fill:#C73700;}
	.st29{clip-path:url(#SVGID_56_);fill:#5C5C99;}
	.st30{clip-path:url(#SVGID_58_);fill:#4D4D84;}
	.st31{clip-path:url(#SVGID_60_);fill:#C73700;}
	.st32{clip-path:url(#SVGID_62_);fill:#F4E4EC;}
	.st33{clip-path:url(#SVGID_64_);fill:#D64900;}
	.st34{clip-path:url(#SVGID_66_);fill:#F4E4EC;}
	.st35{clip-path:url(#SVGID_68_);fill:#F4E4EC;}
	.st36{clip-path:url(#SVGID_70_);}
	.st37{fill:#ED9558;}
	.st38{fill:#FFB476;}
	.st39{clip-path:url(#SVGID_72_);fill:#D64900;}
	.st40{clip-path:url(#SVGID_74_);}
	.st41{fill:#DBB4D1;}
	.st42{opacity:0.3;clip-path:url(#SVGID_76_);fill:#C73700;enable-background:new    ;}
	.st43{clip-path:url(#SVGID_78_);}
	.st44{fill:#D1652F;}
	.st45{opacity:0.2;clip-path:url(#SVGID_80_);fill:#4D4D84;enable-background:new    ;}
	.st46{clip-path:url(#SVGID_82_);}
	.st47{fill:#323249;}
	.st48{fill:#C73700;}
	.st49{opacity:0.3;fill:#C73700;enable-background:new    ;}
	.st50{fill:#10A9EA;}
	.st51{fill:#0086BF;}
</style>
<g>
	<g>
		<g>
			<defs>
				<path id="SVGID_1_" d="M79.9,66.3c-44.2,0-80,35.8-80,80s35.8,80,80,80s80-35.8,80-80c0-13.9-3.5-26.9-9.7-38.3
					c20.7-27-2-44.8-13.8-52.1c-10-6.2-40.4-8.2-48.3,10.8C85.4,66.4,82.7,66.3,79.9,66.3L79.9,66.3z"/>
			</defs>
			<clipPath id="SVGID_2_">
				<use xlink:href="#SVGID_1_"  style="overflow:visible;"/>
			</clipPath>
			<path class="st0" d="M126.9,120l0.4,16.2c0,0,0,5-6.4,4.6c-7.1-0.4-6.7-3.6-6.7-3.6l-0.5-10.6L126.9,120z"/>
		</g>
		<g>
			<defs>
				<path id="SVGID_3_" d="M79.9,66.3c-44.2,0-80,35.8-80,80s35.8,80,80,80s80-35.8,80-80c0-13.9-3.5-26.9-9.7-38.3
					c20.7-27-2-44.8-13.8-52.1c-10-6.2-40.4-8.2-48.3,10.8C85.4,66.4,82.7,66.3,79.9,66.3L79.9,66.3z"/>
			</defs>
			<clipPath id="SVGID_4_">
				<use xlink:href="#SVGID_3_"  style="overflow:visible;"/>
			</clipPath>
			<path class="st1" d="M101.4,76c0,0,0.1,31.3,0.1,39.7s9,13.2,16.2,12.3c7.2-0.9,15.2-6.8,17.1-10.6c0.5-1,0.9-3.9,1.1-7.7
				c6.6,1.2,9.8-12.4,5.4-14.2c-2-0.9-4.1-0.2-5.2,1.4c0.2-8,0.7-14.7,0.7-14.7s0.4-8.7-12.3-11.5C103.6,65.8,101.4,76,101.4,76z"/>
		</g>
		<g>
			<defs>
				<path id="SVGID_5_" d="M79.9,66.3c-44.2,0-80,35.8-80,80s35.8,80,80,80s80-35.8,80-80c0-13.9-3.5-26.9-9.7-38.3
					c20.7-27-2-44.8-13.8-52.1c-10-6.2-40.4-8.2-48.3,10.8C85.4,66.4,82.7,66.3,79.9,66.3L79.9,66.3z"/>
			</defs>
			<clipPath id="SVGID_6_">
				<use xlink:href="#SVGID_5_"  style="overflow:visible;"/>
			</clipPath>
			<ellipse class="st2" cx="122.3" cy="96.2" rx="1.9" ry="3.3"/>
		</g>
		<g>
			<defs>
				<path id="SVGID_7_" d="M79.9,66.3c-44.2,0-80,35.8-80,80s35.8,80,80,80s80-35.8,80-80c0-13.9-3.5-26.9-9.7-38.3
					c20.7-27-2-44.8-13.8-52.1c-10-6.2-40.4-8.2-48.3,10.8C85.4,66.4,82.7,66.3,79.9,66.3L79.9,66.3z"/>
			</defs>
			<clipPath id="SVGID_8_">
				<use xlink:href="#SVGID_7_"  style="overflow:visible;"/>
			</clipPath>
			<ellipse class="st3" cx="106.9" cy="96.9" rx="1.9" ry="3.3"/>
		</g>
		<g>
			<defs>
				<path id="SVGID_9_" d="M79.9,66.3c-44.2,0-80,35.8-80,80s35.8,80,80,80s80-35.8,80-80c0-13.9-3.5-26.9-9.7-38.3
					c20.7-27-2-44.8-13.8-52.1c-10-6.2-40.4-8.2-48.3,10.8C85.4,66.4,82.7,66.3,79.9,66.3L79.9,66.3z"/>
			</defs>
			<clipPath id="SVGID_10_">
				<use xlink:href="#SVGID_9_"  style="overflow:visible;"/>
			</clipPath>
			<g class="st4">
				<path class="st5" d="M119.7,86.8c0.9-0.6,2-0.9,3.1-0.9s2.3,0.3,3.2,1.1c1,0.7,1.4,1.7,1.5,2.8c-1.1-0.4-1.7-0.9-2.5-1.1
					c-0.7-0.2-1.5-0.2-2.2-0.2s-1.5,0.1-2.4,0.2c-0.9,0.2-1.8,0.2-2.8,0.3C118,87.9,118.8,87.2,119.7,86.8z"/>
			</g>
		</g>
		<g>
			<defs>
				<path id="SVGID_11_" d="M79.9,66.3c-44.2,0-80,35.8-80,80s35.8,80,80,80s80-35.8,80-80c0-13.9-3.5-26.9-9.7-38.3
					c20.7-27-2-44.8-13.8-52.1c-10-6.2-40.4-8.2-48.3,10.8C85.4,66.4,82.7,66.3,79.9,66.3L79.9,66.3z"/>
			</defs>
			<clipPath id="SVGID_12_">
				<use xlink:href="#SVGID_11_"  style="overflow:visible;"/>
			</clipPath>
			<g class="st6">
				<path class="st5" d="M107.6,88.4c-0.7-0.1-1.3-0.2-1.9-0.1c-0.6,0-1.1,0.2-1.6,0.4c-0.2,0.1-0.6,0.3-0.9,0.5
					c-0.4,0.2-0.7,0.4-1.1,0.7c-0.2-0.9,0.1-1.9,0.7-2.6s1.6-1.3,2.7-1.4s2,0.2,2.8,0.7c0.7,0.5,1.4,1.1,1.7,2
					C109,88.6,108.3,88.5,107.6,88.4z"/>
			</g>
		</g>
		<g>
			<defs>
				<path id="SVGID_13_" d="M79.9,66.3c-44.2,0-80,35.8-80,80s35.8,80,80,80s80-35.8,80-80c0-13.9-3.5-26.9-9.7-38.3
					c20.7-27-2-44.8-13.8-52.1c-10-6.2-40.4-8.2-48.3,10.8C85.4,66.4,82.7,66.3,79.9,66.3L79.9,66.3z"/>
			</defs>
			<clipPath id="SVGID_14_">
				<use xlink:href="#SVGID_13_"  style="overflow:visible;"/>
			</clipPath>
			<path class="st7" d="M137.5,107.5c1-1.5,0.7-3.7-1.1-3.4c0.1-3.9,2-7.5,4.3-6.3C143.1,98.9,141.2,108.2,137.5,107.5z"/>
		</g>
		<g>
			<defs>
				<path id="SVGID_15_" d="M79.9,66.3c-44.2,0-80,35.8-80,80s35.8,80,80,80s80-35.8,80-80c0-13.9-3.5-26.9-9.7-38.3
					c20.7-27-2-44.8-13.8-52.1c-10-6.2-40.4-8.2-48.3,10.8C85.4,66.4,82.7,66.3,79.9,66.3L79.9,66.3z"/>
			</defs>
			<clipPath id="SVGID_16_">
				<use xlink:href="#SVGID_15_"  style="overflow:visible;"/>
			</clipPath>
			<g class="st8">
				<path class="st9" d="M111.9,95.9l-0.7,3.3l-0.6,3.3c-0.2,1.1-0.3,2.2-0.6,3.3l-0.1-0.2c0.7,0.4,1.3,0.7,2,1.1
					c0.7,0.3,1.3,0.7,2,1.1c-0.7-0.2-1.4-0.6-2.1-0.9s-1.4-0.7-2-1l-0.2-0.1v-0.2c0.2-2.2,0.6-4.5,1.1-6.7c0.2-1.1,0.5-2.3,0.8-3.3
					c0.3-1.1,0.7-2.1,1.1-3.2C112.3,93.7,112.1,94.9,111.9,95.9z"/>
			</g>
		</g>
		<g>
			<defs>
				<path id="SVGID_17_" d="M79.9,66.3c-44.2,0-80,35.8-80,80s35.8,80,80,80s80-35.8,80-80c0-13.9-3.5-26.9-9.7-38.3
					c20.7-27-2-44.8-13.8-52.1c-10-6.2-40.4-8.2-48.3,10.8C85.4,66.4,82.7,66.3,79.9,66.3L79.9,66.3z"/>
			</defs>
			<clipPath id="SVGID_18_">
				<use xlink:href="#SVGID_17_"  style="overflow:visible;"/>
			</clipPath>
			<g class="st10">
				<path class="st9" d="M118.9,114.9c-1.3,0.5-2.6,0.8-3.9,1c-1.3,0.2-2.7,0.2-4,0.1c-1.4-0.2-2.7-0.5-3.9-1.1
					c0.7,0.2,1.3,0.3,2,0.4s1.3,0.2,2,0.2c1.3,0,2.6-0.1,3.9-0.2c1.3-0.2,2.5-0.5,3.8-0.8c1.2-0.3,2.5-0.7,3.7-1.2
					C121.4,113.8,120.1,114.4,118.9,114.9z"/>
			</g>
		</g>
		<g>
			<defs>
				<path id="SVGID_19_" d="M79.9,66.3c-44.2,0-80,35.8-80,80s35.8,80,80,80s80-35.8,80-80c0-13.9-3.5-26.9-9.7-38.3
					c20.7-27-2-44.8-13.8-52.1c-10-6.2-40.4-8.2-48.3,10.8C85.4,66.4,82.7,66.3,79.9,66.3L79.9,66.3z"/>
			</defs>
			<clipPath id="SVGID_20_">
				<use xlink:href="#SVGID_19_"  style="overflow:visible;"/>
			</clipPath>
			<path class="st11" d="M146.5,82.3c1.6,2.9-1.5,6.9-5.5,5.9c0,0.1-0.1,0.2-0.1,0.2c0.8,0.7,2.3,2.4,1.8,4.3
				c-0.4,1.7-2.6,2.1-4,2.2l0,0c-1.7,0.2-2.6,1.8-2.6,1.8l-1.2,6.4l-1.7,0.2V88.8c0,0-4.4-1.8-5.9-7.5c-1.5,0.7-4.3,1.8-6-2
				c0,0-0.2,3.7-4.4,2.8c-4.1-0.9-3.6-4.2-3.6-4.2s-1.1,4.2-3.6,3.7c-2.4-0.6-2.5-2.3-1.7-4.5c0,0-10.6,7.4-11.9-0.3s5.6-8,5.6-8
				s-3.7-3-2-5.9c1.8-2.8,6.4-2.6,8.9,0.2c0,0-3.6-5.4,1.5-7.2c3.9-1.4,6.8,2.8,7.8,5.6c-0.2-2.3,0.3-5.6,4.3-5
				c4.8,0.7,5.1,6.1,5.1,8.3c0.2-2.1,1.1-6.8,6-5.4c3.6,1,3.8,4,3.3,6.3c0.7-1.1,2-2,4.1-1.1c2.8,1.1,2.4,4,1.6,6
				c0.9-1.2,2.3-2,4.1,0.4c3.5,4.4-5.3,9.7-5.3,9.7S144.5,79,146.5,82.3z"/>
		</g>
		<g>
			<defs>
				<path id="SVGID_21_" d="M79.9,66.3c-44.2,0-80,35.8-80,80s35.8,80,80,80s80-35.8,80-80c0-13.9-3.5-26.9-9.7-38.3
					c20.7-27-2-44.8-13.8-52.1c-10-6.2-40.4-8.2-48.3,10.8C85.4,66.4,82.7,66.3,79.9,66.3L79.9,66.3z"/>
			</defs>
			<clipPath id="SVGID_22_">
				<use xlink:href="#SVGID_21_"  style="overflow:visible;"/>
			</clipPath>
			<path class="st12" d="M89.8,181.6c0,0-8.2,13.3-10.7,15c-2.4,1.6-6.7,1.7-9.3-0.3c-2.6-2.1-1.4-5.2-1.4-5.2
				c3-8,20.2-50.7,24-53.7c3.7-3,13.5-7.1,13.5-7.1L89.8,181.6z"/>
		</g>
		<g>
			<defs>
				<path id="SVGID_23_" d="M79.9,66.3c-44.2,0-80,35.8-80,80s35.8,80,80,80s80-35.8,80-80c0-13.9-3.5-26.9-9.7-38.3
					c20.7-27-2-44.8-13.8-52.1c-10-6.2-40.4-8.2-48.3,10.8C85.4,66.4,82.7,66.3,79.9,66.3L79.9,66.3z"/>
			</defs>
			<clipPath id="SVGID_24_">
				<use xlink:href="#SVGID_23_"  style="overflow:visible;"/>
			</clipPath>
			<path class="st13" d="M88.6,217.7c-0.7,3.4,0.2,5.7,0.7,6.2c7.5-9.2,52.7-0.9,63,0.3c0.2-16.7-4.3-7.5-4.3-19.5
				c0-26.2,7.9-40.7,7.9-62.4c-1.1-6.7-19.2-11.8-25.1-12.8c-10.4,12.6-17.5,5.8-18.8-1.1c-0.9,0.1-3.1,0.7-4.2,1
				C78.5,140,98,176.9,88.6,217.7z"/>
		</g>
		<g>
			<defs>
				<path id="SVGID_25_" d="M79.9,66.3c-44.2,0-80,35.8-80,80s35.8,80,80,80s80-35.8,80-80c0-13.9-3.5-26.9-9.7-38.3
					c20.7-27-2-44.8-13.8-52.1c-10-6.2-40.4-8.2-48.3,10.8C85.4,66.4,82.7,66.3,79.9,66.3L79.9,66.3z"/>
			</defs>
			<clipPath id="SVGID_26_">
				<use xlink:href="#SVGID_25_"  style="overflow:visible;"/>
			</clipPath>
			<path class="st14" d="M109.9,129.2c-0.8,16,16.5,15,24.8,1.1c-1.5-0.5-2.8-0.6-3.9-0.8c-10.5,11.3-17.9,5.4-18.8-1.1
				c-0.5,0.1-1.4,0.2-2.2,0.5C109.8,129.1,109.8,129.2,109.9,129.2z"/>
		</g>
		<g>
			<defs>
				<path id="SVGID_27_" d="M79.9,66.3c-44.2,0-80,35.8-80,80s35.8,80,80,80s80-35.8,80-80c0-13.9-3.5-26.9-9.7-38.3
					c20.7-27-2-44.8-13.8-52.1c-10-6.2-40.4-8.2-48.3,10.8C85.4,66.4,82.7,66.3,79.9,66.3L79.9,66.3z"/>
			</defs>
			<clipPath id="SVGID_28_">
				<use xlink:href="#SVGID_27_"  style="overflow:visible;"/>
			</clipPath>
			<path class="st15" d="M121.6,152.2c1.6,2.8,3.3,5.7,2.8,9.7c0,0.2,0.2,0.5,0.4,0.5s0.5-0.2,0.5-0.4c0.6-4.3-1.2-7.3-2.9-10.2
				c-2.2-3.7-4.2-7.2-0.5-12.6c0.2-0.2,0.1-0.4-0.1-0.6s-0.4-0.1-0.6,0.1C117.1,144.5,119.2,148.2,121.6,152.2z"/>
		</g>
		<g>
			<defs>
				<path id="SVGID_29_" d="M79.9,66.3c-44.2,0-80,35.8-80,80s35.8,80,80,80s80-35.8,80-80c0-13.9-3.5-26.9-9.7-38.3
					c20.7-27-2-44.8-13.8-52.1c-10-6.2-40.4-8.2-48.3,10.8C85.4,66.4,82.7,66.3,79.9,66.3L79.9,66.3z"/>
			</defs>
			<clipPath id="SVGID_30_">
				<use xlink:href="#SVGID_29_"  style="overflow:visible;"/>
			</clipPath>
			<path class="st16" d="M106.5,153.1c-0.2,0-0.5,0.2-0.5,0.4s0.2,0.5,0.4,0.5c10.6,0.7,10.2-15.3,10.2-15.4c0-0.2-0.2-0.4-0.4-0.4
				s-0.4,0.2-0.4,0.4C115.8,138.7,116.2,153.8,106.5,153.1z"/>
		</g>
		<g>
			<defs>
				<path id="SVGID_31_" d="M79.9,66.3c-44.2,0-80,35.8-80,80s35.8,80,80,80s80-35.8,80-80c0-13.9-3.5-26.9-9.7-38.3
					c20.7-27-2-44.8-13.8-52.1c-10-6.2-40.4-8.2-48.3,10.8C85.4,66.4,82.7,66.3,79.9,66.3L79.9,66.3z"/>
			</defs>
			<clipPath id="SVGID_32_">
				<use xlink:href="#SVGID_31_"  style="overflow:visible;"/>
			</clipPath>
			<circle class="st17" cx="106.1" cy="153.6" r="1.1"/>
		</g>
		<g>
			<defs>
				<path id="SVGID_33_" d="M79.9,66.3c-44.2,0-80,35.8-80,80s35.8,80,80,80s80-35.8,80-80c0-13.9-3.5-26.9-9.7-38.3
					c20.7-27-2-44.8-13.8-52.1c-10-6.2-40.4-8.2-48.3,10.8C85.4,66.4,82.7,66.3,79.9,66.3L79.9,66.3z"/>
			</defs>
			<clipPath id="SVGID_34_">
				<use xlink:href="#SVGID_33_"  style="overflow:visible;"/>
			</clipPath>
			<circle class="st18" cx="124.8" cy="162.2" r="1.1"/>
		</g>
		<g>
			<defs>
				<path id="SVGID_35_" d="M79.9,66.3c-44.2,0-80,35.8-80,80s35.8,80,80,80s80-35.8,80-80c0-13.9-3.5-26.9-9.7-38.3
					c20.7-27-2-44.8-13.8-52.1c-10-6.2-40.4-8.2-48.3,10.8C85.4,66.4,82.7,66.3,79.9,66.3L79.9,66.3z"/>
			</defs>
			<clipPath id="SVGID_36_">
				<use xlink:href="#SVGID_35_"  style="overflow:visible;"/>
			</clipPath>
			<path class="st19" d="M160.2,185.7c3.5,0,13.7-4.6,13.3-6.8c-0.3-2.2-5.5-26.8-10.3-31.9c-4.8-5-9.8-8.4-9.8-8.4
				C132.6,143.4,153.9,185.7,160.2,185.7z"/>
		</g>
	</g>
</g>
<g>
	<g>
		<defs>
			<path id="SVGID_37_" d="M79.9,66.3c-5,0-9.9,0.5-14.7,1.3c-22-17.3-41.7-9.3-52.1-0.3c-9.3,8-16,37.2-6.8,47.7
				C2.2,124.6,0,135.2,0,146.3c0,44.2,35.8,80,80,80s80-35.8,80-80S124.1,66.3,79.9,66.3L79.9,66.3z"/>
		</defs>
		<clipPath id="SVGID_38_">
			<use xlink:href="#SVGID_37_"  style="overflow:visible;"/>
		</clipPath>
		<path class="st20" d="M5.9,151.6c7,3.6,11.3,37,12.7,57.8c1.2,19.2-1.4,44.5-1.4,44.5l-7.4,2c0,0-4.7-23.6-7.4-50.9
			C1.4,195.4-2.9,155.2,5.9,151.6z"/>
	</g>
	<g>
		<defs>
			<path id="SVGID_39_" d="M79.9,66.3c-5,0-9.9,0.5-14.7,1.3c-22-17.3-41.7-9.3-52.1-0.3c-9.3,8-16,37.2-6.8,47.7
				C2.2,124.6,0,135.2,0,146.3c0,44.2,35.8,80,80,80s80-35.8,80-80S124.1,66.3,79.9,66.3L79.9,66.3z"/>
		</defs>
		<clipPath id="SVGID_40_">
			<use xlink:href="#SVGID_39_"  style="overflow:visible;"/>
		</clipPath>
		<polygon class="st21" points="98.8,168.7 103.2,162.2 105.6,165.5 101.8,174.4 		"/>
	</g>
	<g>
		<defs>
			<path id="SVGID_41_" d="M79.9,66.3c-5,0-9.9,0.5-14.7,1.3c-22-17.3-41.7-9.3-52.1-0.3c-9.3,8-16,37.2-6.8,47.7
				C2.2,124.6,0,135.2,0,146.3c0,44.2,35.8,80,80,80s80-35.8,80-80S124.1,66.3,79.9,66.3L79.9,66.3z"/>
		</defs>
		<clipPath id="SVGID_42_">
			<use xlink:href="#SVGID_41_"  style="overflow:visible;"/>
		</clipPath>
		<path class="st22" d="M61.4,103.8c0,0,0.4,4.2,1.1,7s2.6,4.3,2.6,4.3c-0.7,2.5-4,3.1-4,3.1L61.4,103.8z"/>
	</g>
	<g>
		<defs>
			<path id="SVGID_43_" d="M79.9,66.3c-5,0-9.9,0.5-14.7,1.3c-22-17.3-41.7-9.3-52.1-0.3c-9.3,8-16,37.2-6.8,47.7
				C2.2,124.6,0,135.2,0,146.3c0,44.2,35.8,80,80,80s80-35.8,80-80S124.1,66.3,79.9,66.3L79.9,66.3z"/>
		</defs>
		<clipPath id="SVGID_44_">
			<use xlink:href="#SVGID_43_"  style="overflow:visible;"/>
		</clipPath>
		<path class="st23" d="M44.5,151.7c-1.6-6.9-1.3-15.3,0.2-24.6l-19.4-4.2c0,0-0.3,18-3.6,28.7C21.6,154.2,44.5,151.7,44.5,151.7z"
			/>
	</g>
	<g>
		<defs>
			<path id="SVGID_45_" d="M79.9,66.3c-5,0-9.9,0.5-14.7,1.3c-22-17.3-41.7-9.3-52.1-0.3c-9.3,8-16,37.2-6.8,47.7
				C2.2,124.6,0,135.2,0,146.3c0,44.2,35.8,80,80,80s80-35.8,80-80S124.1,66.3,79.9,66.3L79.9,66.3z"/>
		</defs>
		<clipPath id="SVGID_46_">
			<use xlink:href="#SVGID_45_"  style="overflow:visible;"/>
		</clipPath>
		<path class="st24" d="M61.7,106.8c0.9,0.6,1.7,0.5,2.6,0.3c-0.6,1.2-1.4,1.9-2.5,2L61.7,106.8z"/>
	</g>
	<g>
		<defs>
			<path id="SVGID_47_" d="M79.9,66.3c-5,0-9.9,0.5-14.7,1.3c-22-17.3-41.7-9.3-52.1-0.3c-9.3,8-16,37.2-6.8,47.7
				C2.2,124.6,0,135.2,0,146.3c0,44.2,35.8,80,80,80s80-35.8,80-80S124.1,66.3,79.9,66.3L79.9,66.3z"/>
		</defs>
		<clipPath id="SVGID_48_">
			<use xlink:href="#SVGID_47_"  style="overflow:visible;"/>
		</clipPath>
		<path class="st25" d="M53.9,74c0,0,7-0.8,8.9,13.7c0,0,0,9.2-0.6,16c-0.5,5.2,1.4,8.7,0.9,12.9c-0.4,3.8-4.1,8.3-8.3,18.4
			c0,0-2.7,1.1-14.8-4.2L53.9,74z"/>
	</g>
	<g>
		<defs>
			<path id="SVGID_49_" d="M79.9,66.3c-5,0-9.9,0.5-14.7,1.3c-22-17.3-41.7-9.3-52.1-0.3c-9.3,8-16,37.2-6.8,47.7
				C2.2,124.6,0,135.2,0,146.3c0,44.2,35.8,80,80,80s80-35.8,80-80S124.1,66.3,79.9,66.3L79.9,66.3z"/>
		</defs>
		<clipPath id="SVGID_50_">
			<use xlink:href="#SVGID_49_"  style="overflow:visible;"/>
		</clipPath>
		<path class="st26" d="M54.9,135c0,0-7.4-6.4-8-8.9c-0.6-2.5,0.8-14.3,0.8-14.3L37,112.2l-5.5,19C31.5,131.1,53.2,136.2,54.9,135z"
			/>
	</g>
	<g>
		<defs>
			<path id="SVGID_51_" d="M79.9,66.3c-5,0-9.9,0.5-14.7,1.3c-22-17.3-41.7-9.3-52.1-0.3c-9.3,8-16,37.2-6.8,47.7
				C2.2,124.6,0,135.2,0,146.3c0,44.2,35.8,80,80,80s80-35.8,80-80S124.1,66.3,79.9,66.3L79.9,66.3z"/>
		</defs>
		<clipPath id="SVGID_52_">
			<use xlink:href="#SVGID_51_"  style="overflow:visible;"/>
		</clipPath>
		<path class="st27" d="M63.4,101.9c0.6-0.5,0.6-2.1-1.3-1.5c-0.8,0.2-1.4,0.8-1.7,1.6v0.1C60.5,102.8,63.1,102.1,63.4,101.9z"/>
	</g>
	<g>
		<defs>
			<path id="SVGID_53_" d="M79.9,66.3c-5,0-9.9,0.5-14.7,1.3c-22-17.3-41.7-9.3-52.1-0.3c-9.3,8-16,37.2-6.8,47.7
				C2.2,124.6,0,135.2,0,146.3c0,44.2,35.8,80,80,80s80-35.8,80-80S124.1,66.3,79.9,66.3L79.9,66.3z"/>
		</defs>
		<clipPath id="SVGID_54_">
			<use xlink:href="#SVGID_53_"  style="overflow:visible;"/>
		</clipPath>
		<path class="st28" d="M9.7,87.2L9.7,87.2c0.9-4.6,2.7-8.7,5.4-11.6c12.8-13.4,37.3-7.9,44.5-2.9c3.5,1.9,5.5,3.8,6.6,5.6
			c0-0.1,0-0.1,0-0.1c6.3,9.6-9.4,12.7-11.1,22.9c-0.5,2.8-0.3,8.2-1.4,8.2c-1,0-1.8-1.4-2.5-2.9l-3.9,8.2
			c-3.6-7.1-5.9,12.4-20.4,13.1C19.2,128.1,3.8,110.7,9.7,87.2z"/>
	</g>
	<g>
		<defs>
			<path id="SVGID_55_" d="M79.9,66.3c-5,0-9.9,0.5-14.7,1.3c-22-17.3-41.7-9.3-52.1-0.3c-9.3,8-16,37.2-6.8,47.7
				C2.2,124.6,0,135.2,0,146.3c0,44.2,35.8,80,80,80s80-35.8,80-80S124.1,66.3,79.9,66.3L79.9,66.3z"/>
		</defs>
		<clipPath id="SVGID_56_">
			<use xlink:href="#SVGID_55_"  style="overflow:visible;"/>
		</clipPath>
		<path class="st29" d="M51.4,206.2c0,8.1,10.9,22.1,13.5,37.1c-9.7,8.2-53.6,15.2-62.6,0c5.7-20.6,15-28.2,14.8-39.7
			C16.9,193-6,172.3,4.7,150.6c23.9-11.5,49.1-2.8,53.2,0.6c5.1,18.4,11.7,25.3,11.1,30.7C68.2,190.1,51.4,198.1,51.4,206.2z"/>
	</g>
	<g>
		<defs>
			<path id="SVGID_57_" d="M79.9,66.3c-5,0-9.9,0.5-14.7,1.3c-22-17.3-41.7-9.3-52.1-0.3c-9.3,8-16,37.2-6.8,47.7
				C2.2,124.6,0,135.2,0,146.3c0,44.2,35.8,80,80,80s80-35.8,80-80S124.1,66.3,79.9,66.3L79.9,66.3z"/>
		</defs>
		<clipPath id="SVGID_58_">
			<use xlink:href="#SVGID_57_"  style="overflow:visible;"/>
		</clipPath>
		<path class="st30" d="M56.7,197.2c5-5.1,11.9-10.1,12.4-15.3c0.6-5.4-6-12.3-11.1-30.7c-4-3.4-29.3-12.1-53.2-0.6
			c-10.6,21.7,12.3,42.4,12.4,53c0.2,11.4-9.1,19-14.8,39.7c6.9,11.7,34.7,10.2,51.5,5.1C51.9,230.8,37.5,214.5,56.7,197.2z"/>
	</g>
	<g>
		<defs>
			<path id="SVGID_59_" d="M79.9,66.3c-5,0-9.9,0.5-14.7,1.3c-22-17.3-41.7-9.3-52.1-0.3c-9.3,8-16,37.2-6.8,47.7
				C2.2,124.6,0,135.2,0,146.3c0,44.2,35.8,80,80,80s80-35.8,80-80S124.1,66.3,79.9,66.3L79.9,66.3z"/>
		</defs>
		<clipPath id="SVGID_60_">
			<use xlink:href="#SVGID_59_"  style="overflow:visible;"/>
		</clipPath>
		<path class="st31" d="M65.3,85.1c0,0,2.2,1.3,1.8,5.3c-0.6,5.5-8.6,13-16.3,13.1C50.8,103.5,61.8,94.9,65.3,85.1z"/>
	</g>
	<g>
		<defs>
			<path id="SVGID_61_" d="M79.9,66.3c-5,0-9.9,0.5-14.7,1.3c-22-17.3-41.7-9.3-52.1-0.3c-9.3,8-16,37.2-6.8,47.7
				C2.2,124.6,0,135.2,0,146.3c0,44.2,35.8,80,80,80s80-35.8,80-80S124.1,66.3,79.9,66.3L79.9,66.3z"/>
		</defs>
		<clipPath id="SVGID_62_">
			<use xlink:href="#SVGID_61_"  style="overflow:visible;"/>
		</clipPath>
		<path class="st32" d="M47.1,146.9l-1.8-5.8c0,0-8.2-6.4-24-4l-3.4,9.1C17.9,146.2,25,144.2,47.1,146.9z"/>
	</g>
	<g>
		<defs>
			<path id="SVGID_63_" d="M79.9,66.3c-5,0-9.9,0.5-14.7,1.3c-22-17.3-41.7-9.3-52.1-0.3c-9.3,8-16,37.2-6.8,47.7
				C2.2,124.6,0,135.2,0,146.3c0,44.2,35.8,80,80,80s80-35.8,80-80S124.1,66.3,79.9,66.3L79.9,66.3z"/>
		</defs>
		<clipPath id="SVGID_64_">
			<use xlink:href="#SVGID_63_"  style="overflow:visible;"/>
		</clipPath>
		<path class="st33" d="M65.2,81.2C64.2,74.7,50,68,39,68.3C22.2,68.8,17,80.9,30,88C49.6,98.9,65.9,86.5,65.2,81.2z"/>
	</g>
	<g>
		<defs>
			<path id="SVGID_65_" d="M79.9,66.3c-5,0-9.9,0.5-14.7,1.3c-22-17.3-41.7-9.3-52.1-0.3c-9.3,8-16,37.2-6.8,47.7
				C2.2,124.6,0,135.2,0,146.3c0,44.2,35.8,80,80,80s80-35.8,80-80S124.1,66.3,79.9,66.3L79.9,66.3z"/>
		</defs>
		<clipPath id="SVGID_66_">
			<use xlink:href="#SVGID_65_"  style="overflow:visible;"/>
		</clipPath>
		<path class="st34" d="M54.1,149.4c5.8-1,10.1,14,17.9,30.8c8,17,18,35.2,10.5,38.9C65.8,227.4,30.5,153.7,54.1,149.4z"/>
	</g>
	<g>
		<defs>
			<path id="SVGID_67_" d="M79.9,66.3c-5,0-9.9,0.5-14.7,1.3c-22-17.3-41.7-9.3-52.1-0.3c-9.3,8-16,37.2-6.8,47.7
				C2.2,124.6,0,135.2,0,146.3c0,44.2,35.8,80,80,80s80-35.8,80-80S124.1,66.3,79.9,66.3L79.9,66.3z"/>
		</defs>
		<clipPath id="SVGID_68_">
			<use xlink:href="#SVGID_67_"  style="overflow:visible;"/>
		</clipPath>
		<path class="st35" d="M99.8,165.2c0,0-12.5,13.2-21.2,29c0,0-5.8,31.8,3.9,25s21.7-46.5,21.7-46.5L99.8,165.2z"/>
	</g>
	<g>
		<defs>
			<path id="SVGID_69_" d="M79.9,66.3c-5,0-9.9,0.5-14.7,1.3c-22-17.3-41.7-9.3-52.1-0.3c-9.3,8-16,37.2-6.8,47.7
				C2.2,124.6,0,135.2,0,146.3c0,44.2,35.8,80,80,80s80-35.8,80-80S124.1,66.3,79.9,66.3L79.9,66.3z"/>
		</defs>
		<clipPath id="SVGID_70_">
			<use xlink:href="#SVGID_69_"  style="overflow:visible;"/>
		</clipPath>
		<g class="st36">
			<path class="st37" d="M114.1,162c0,0-1.3-1.1-2.1-1.2c-0.8-0.1-5.3,1-7.1,1.3C103.3,162.4,114.4,164,114.1,162z"/>
			<path class="st37" d="M114.1,163.4c4-0.7,8.9-2.8,8.4-3.7c-0.5-1-5.8,1.9-9.7,2L114.1,163.4z"/>
			<path class="st37" d="M112.2,162.4c3.4-0.9,7.4-3.1,6.9-3.9c-0.6-0.9-4.9,2.1-8.2,2.6L112.2,162.4z"/>
			<path class="st38" d="M103.2,162c1.1-1.6,3.7-1.8,6.4-1.3c1.4,1,6.4,0.9,6.3,2.6c0,1-7.4,1-10.1,2.2
				C105.7,165.5,101.9,164,103.2,162z"/>
			<path class="st38" d="M103.2,162c1.6-2.4,4.8-4.1,5.6-4.6c0.8-0.5,2.9-2.8,3.7-2.3c0.8,0.4-0.3,1.7-1.3,2.8
				c-1.7,1.8-2.1,4.4-2.1,4.4L103.2,162z"/>
			<path class="st38" d="M115,163.8c4.6-1.1,8.1-0.3,8.2-1.4c0.1-1.1-7.2-0.8-9.4-0.4L115,163.8z"/>
		</g>
	</g>
	<g>
		<defs>
			<path id="SVGID_71_" d="M79.9,66.3c-5,0-9.9,0.5-14.7,1.3c-22-17.3-41.7-9.3-52.1-0.3c-9.3,8-16,37.2-6.8,47.7
				C2.2,124.6,0,135.2,0,146.3c0,44.2,35.8,80,80,80s80-35.8,80-80S124.1,66.3,79.9,66.3L79.9,66.3z"/>
		</defs>
		<clipPath id="SVGID_72_">
			<use xlink:href="#SVGID_71_"  style="overflow:visible;"/>
		</clipPath>
		<path class="st39" d="M51.5,97.4c0.2-2-5.5-1.9-11.8-3.2c-8.6-1.7-12.3-4.2-12.9-3.5s2.4,4.9,10.6,7.6
			C43.3,100.3,51.1,100.7,51.5,97.4z"/>
	</g>
	<g>
		<defs>
			<path id="SVGID_73_" d="M79.9,66.3c-5,0-9.9,0.5-14.7,1.3c-22-17.3-41.7-9.3-52.1-0.3c-9.3,8-16,37.2-6.8,47.7
				C2.2,124.6,0,135.2,0,146.3c0,44.2,35.8,80,80,80s80-35.8,80-80S124.1,66.3,79.9,66.3L79.9,66.3z"/>
		</defs>
		<clipPath id="SVGID_74_">
			<use xlink:href="#SVGID_73_"  style="overflow:visible;"/>
		</clipPath>
		<g class="st40">
			<path class="st41" d="M82.9,213.7c7.4-3.7,18.4-31.4,21.3-41.1c-2.9,9.6-14.4,42.8-21.7,46.5c-8,5.6-25.5-16.4-33.2-40.3
				C57.5,198.6,74.4,219.6,82.9,213.7z"/>
		</g>
	</g>
	<g>
		<defs>
			<path id="SVGID_75_" d="M79.9,66.3c-5,0-9.9,0.5-14.7,1.3c-22-17.3-41.7-9.3-52.1-0.3c-9.3,8-16,37.2-6.8,47.7
				C2.2,124.6,0,135.2,0,146.3c0,44.2,35.8,80,80,80s80-35.8,80-80S124.1,66.3,79.9,66.3L79.9,66.3z"/>
		</defs>
		<clipPath id="SVGID_76_">
			<use xlink:href="#SVGID_75_"  style="overflow:visible;"/>
		</clipPath>
		<path class="st42" d="M8.6,94.6c-1.5,19.6,11.5,33.5,18.5,33.1c14.1-0.7,16.7-19,20.1-13.6l0.6-2.3C33,117.9,11.9,111.5,8.6,94.6z
			"/>
	</g>
	<g>
		<defs>
			<path id="SVGID_77_" d="M79.9,66.3c-5,0-9.9,0.5-14.7,1.3c-22-17.3-41.7-9.3-52.1-0.3c-9.3,8-16,37.2-6.8,47.7
				C2.2,124.6,0,135.2,0,146.3c0,44.2,35.8,80,80,80s80-35.8,80-80S124.1,66.3,79.9,66.3L79.9,66.3z"/>
		</defs>
		<clipPath id="SVGID_78_">
			<use xlink:href="#SVGID_77_"  style="overflow:visible;"/>
		</clipPath>
		<g class="st43">
			
				<ellipse transform="matrix(0.9403 -0.3402 0.3402 0.9403 -34.3164 22.7035)" class="st37" cx="47.6" cy="109.2" rx="4.6" ry="6"/>
			
				<ellipse transform="matrix(0.9403 -0.3402 0.3402 0.9403 -34.2522 23.0485)" class="st38" cx="48.6" cy="109.2" rx="4.6" ry="6"/>
			<path class="st44" d="M47.4,105.8c1-0.4,2.1,0.1,2.9,1c-0.5-0.3-1.1-0.4-1.6-0.2c-1.2,0.4-1.8,2.1-1.2,3.7c0.4,1.2,1.4,2,2.4,2.1
				c0,0,0,0-0.1,0.1c-1.4,0.5-3.1-0.6-3.8-2.4C45.3,108.3,46,106.4,47.4,105.8z"/>
		</g>
	</g>
	<g>
		<defs>
			<path id="SVGID_79_" d="M79.9,66.3c-5,0-9.9,0.5-14.7,1.3c-22-17.3-41.7-9.3-52.1-0.3c-9.3,8-16,37.2-6.8,47.7
				C2.2,124.6,0,135.2,0,146.3c0,44.2,35.8,80,80,80s80-35.8,80-80S124.1,66.3,79.9,66.3L79.9,66.3z"/>
		</defs>
		<clipPath id="SVGID_80_">
			<use xlink:href="#SVGID_79_"  style="overflow:visible;"/>
		</clipPath>
		<path class="st45" d="M28.4,145.6c0,0,7.9,26.3-17.6,28.1L28.4,145.6z"/>
	</g>
	<g>
		<defs>
			<path id="SVGID_81_" d="M79.9,66.3c-5,0-9.9,0.5-14.7,1.3c-22-17.3-41.7-9.3-52.1-0.3c-9.3,8-16,37.2-6.8,47.7
				C2.2,124.6,0,135.2,0,146.3c0,44.2,35.8,80,80,80s80-35.8,80-80S124.1,66.3,79.9,66.3L79.9,66.3z"/>
		</defs>
		<clipPath id="SVGID_82_">
			<use xlink:href="#SVGID_81_"  style="overflow:visible;"/>
		</clipPath>
		<g class="st46">
			
				<ellipse transform="matrix(0.3479 -0.9375 0.9375 0.3479 -101.4764 98.0029)" class="st47" cx="19.7" cy="121.9" rx="4.4" ry="5.5"/>
			<path class="st48" d="M13.8,162.8c0.7,7.7-2.9,10.9-2.9,10.9s9-2.2,14.1-11.8c6.9-12.8,2.4-21.4-0.6-28.2
				c-3.2-7.3,1.7-10.8-2.5-14.2c-2.3-1.8-6.4-0.9-9.9,2C-4.4,135.1,13,153.8,13.8,162.8z"/>
			<path class="st49" d="M25,162c6.9-12.8,2.4-21.4-0.6-28.2c-3.2-7.3,1.7-10.8-2.5-14.2c-2.3-1.8-6.4-0.9-9.9,2
				c-0.7,0.6-1.2,1.1-1.8,1.7c0.9-0.6,3.7-3.6,6.7-2.5c2.8,1-0.3,6.1,0.7,12.8c1.1,6.8,6.6,8.5,7.2,18.2c0.8,13-14.1,21.9-14.1,21.9
				S19.9,171.5,25,162z"/>
		</g>
	</g>
</g>
<g>
	<path class="st50" d="M75,68.2c-1,0.5-1.8,1.5-2.2,2.6c-0.7,2.3,0.6,4.8,3,5.5c1.1,0.3,2.3,0.2,3.4-0.4c0.4-0.2,0.8-0.5,1.1-0.8
		c1.7-1.7,1.6-4.5-0.1-6.2C78.8,67.5,76.7,67.3,75,68.2z M71.6,30.7c-3.5-0.9-7.3-0.3-11.2,1.8s-6.5,4.9-7.7,8.4
		c-1.1,3-0.9,6.4,0.4,9.3c0.2,0.5,0.7,0.9,1.2,1.1c0.5,0.2,1.1,0.1,1.7-0.1l2.3-1.3c0.9-0.5,1.3-1.6,0.9-2.6
		c-0.7-1.5-0.8-3.2-0.2-4.8c0.6-1.8,2.1-3.4,4.3-4.6c2.2-1.2,4.3-1.5,6.2-1c1.9,0.5,3.4,1.9,4.6,4.1c1.6,3,1.8,5.5,0.7,7.4
		c-1.2,2-3.8,4-7.6,6l-1,0.5c-1,0.5-1.4,1.8-0.8,2.8l4.7,8.7c0.3,0.5,0.7,0.8,1.2,1s1.1,0.1,1.6-0.2l2.4-1.3
		c0.2-0.1,0.4-0.2,0.5-0.4c0.6-0.6,0.8-1.6,0.3-2.4l-3-5.6c0-0.1,0-0.2,0.1-0.2c4.3-2.5,7.2-5.3,8.5-8.3c1.4-3.2,1-6.9-1.2-10.9
		C78.1,34.1,75.2,31.6,71.6,30.7L71.6,30.7z"/>
	<path class="st51" d="M78.6,67.9c-1.1-0.3-2.4-0.2-3.4,0.4c-0.3,0.2-0.7,0.4-0.9,0.7c0.8-0.2,1.7-0.2,2.5,0c2.3,0.7,3.7,3.1,3,5.5
		l0,0c-0.2,0.7-0.6,1.3-1,1.8c-0.1,0.1-0.1,0.1-0.2,0.2c0.8-0.2,1.5-0.6,2-1.2c0.5-0.5,0.8-1.1,1.1-1.8
		C82.2,71.1,80.9,68.6,78.6,67.9L78.6,67.9z M71.8,30.7c-3.6-0.9-7.4-0.3-11.3,1.8c-2.2,1.2-4.2,2.8-5.8,4.8c1-0.8,2.1-1.5,3.2-2.1
		c3.9-2.1,7.7-2.7,11.3-1.8c3.6,0.9,6.5,3.4,8.7,7.5s2.6,7.8,1.2,11c-0.4,1-1,1.9-1.6,2.7c1.8-1.4,3.2-3.3,4.2-5.3
		c1.4-3.2,1-6.9-1.2-11C78.4,34.1,75.4,31.6,71.8,30.7L71.8,30.7z"/>
</g>
<g>
	<path class="st50" d="M93.2,31.9c-1-0.1-2,0.2-2.7,0.8c-1.6,1.3-1.8,3.6-0.5,5.2c0.6,0.8,1.5,1.2,2.5,1.3c0.4,0,0.8,0,1.2-0.1
		c2-0.4,3.3-2.4,2.8-4.4C96.1,33.2,94.8,32.1,93.2,31.9z M108.3,4.1c-2.1-2.3-5-3.6-8.7-4s-6.8,0.4-9.3,2.3c-2.2,1.6-3.6,4-4,6.7
		c-0.1,0.5,0,1,0.3,1.4s0.7,0.6,1.2,0.7l2.2,0.2c0.9,0.1,1.7-0.5,1.9-1.4c0.2-1.4,1-2.6,2.1-3.5c1.3-1,3-1.4,5.2-1.2
		c2.1,0.2,3.7,0.9,4.8,2.2c1.1,1.2,1.5,2.9,1.3,5c-0.3,2.8-1.3,4.7-3,5.5c-1.8,0.8-4.5,1.1-8.1,0.7l-1-0.1c-1-0.1-1.8,0.6-1.9,1.6
		l-0.8,8.3c0,0.5,0.1,0.9,0.4,1.3c0.3,0.4,0.7,0.6,1.2,0.6l2.2,0.2c0.2,0,0.4,0,0.5,0c0.7-0.2,1.3-0.8,1.4-1.5l0.5-5.4
		c0-0.1,0.1-0.1,0.1-0.1c4.2,0.3,7.5-0.3,9.8-1.8c2.5-1.6,3.9-4.4,4.3-8.2C111.2,9.5,110.4,6.4,108.3,4.1L108.3,4.1z"/>
	<path class="st51" d="M95.8,33.4c-0.6-0.8-1.5-1.2-2.5-1.3c-0.3,0-0.6,0-1,0c0.7,0.2,1.3,0.6,1.7,1.2c1.3,1.6,1.1,3.9-0.5,5.2l0,0
		c-0.5,0.4-1,0.6-1.6,0.8c-0.1,0-0.1,0-0.2,0c0.6,0.2,1.3,0.2,2,0.1c0.6-0.1,1.1-0.4,1.6-0.8C96.9,37.3,97.1,35,95.8,33.4L95.8,33.4
		z M108.5,4.2c-2.1-2.3-5-3.6-8.8-4c-2.1-0.2-4.2,0-6.3,0.6c1.1-0.1,2.2-0.1,3.2,0c3.7,0.4,6.7,1.7,8.8,4c2.1,2.3,3,5.4,2.6,9.3
		s-1.8,6.6-4.3,8.2c-0.8,0.5-1.6,0.9-2.4,1.1c1.9-0.2,3.8-0.8,5.4-1.8c2.5-1.6,3.9-4.4,4.3-8.2C111.5,9.6,110.6,6.5,108.5,4.2
		L108.5,4.2z"/>
</g>
</svg>
