<?xml version="1.0" encoding="utf-8"?>
<!-- Generator: Adobe Illustrator 21.1.0, SVG Export Plug-In . SVG Version: 6.00 Build 0)  -->
<svg version="1.1" id="OBJECTS" xmlns="http://www.w3.org/2000/svg" xmlns:xlink="http://www.w3.org/1999/xlink" x="0px" y="0px"
	 viewBox="0 0 187.5 212.2" style="enable-background:new 0 0 187.5 212.2;" xml:space="preserve">
<style type="text/css">
	.st0{fill:#DDBCA6;}
	.st1{fill:#F7CEB2;}
	.st2{fill:#84653C;}
	.st3{opacity:0.4;fill:#B57662;enable-background:new    ;}
	.st4{fill:#D39484;}
	.st5{fill:#FFFFFF;}
	.st6{fill:#222228;}
	.st7{clip-path:url(#SVGID_2_);}
	.st8{fill:#050404;}
	.st9{fill:#AEAEAE;}
	.st10{clip-path:url(#SVGID_4_);fill:#D3F0F3;}
	.st11{clip-path:url(#SVGID_6_);fill:#9FCACC;}
	.st12{clip-path:url(#SVGID_8_);fill:#9FCACC;}
	.st13{clip-path:url(#SVGID_10_);fill:#10A9EA;}
	.st14{clip-path:url(#SVGID_12_);fill:#BFDBDD;}
	.st15{clip-path:url(#SVGID_14_);fill:#474747;}
	.st16{clip-path:url(#SVGID_16_);fill:#373737;}
	.st17{clip-path:url(#SVGID_18_);fill:#373737;}
	.st18{clip-path:url(#SVGID_20_);fill:#BFDBDD;}
	.st19{clip-path:url(#SVGID_22_);fill:#373737;}
	.st20{clip-path:url(#SVGID_24_);fill:#373737;}
	.st21{fill:#FFCEB1;}
	.st22{fill:#D3F0F3;}
	.st23{fill:#474747;}
</style>
<g>
	<path class="st0" d="M83.9,96.3l0.8,15.5c0,0-0.5,4.6,9.9,5.2c9.4,0.6,9.4-6.7,9.4-6.7l-0.6-23.7L83.9,96.3z"/>
	<path class="st1" d="M99.7,14.5c18.5,4.2,18,16.9,18,16.9s-0.6,9.8-0.9,21.5c1.7-2.4,4.6-3.3,7.6-2.1c6.3,2.7,1.6,22.5-7.9,20.8
		c-0.4,5.5-1,9.9-1.7,11.4c-2.7,5.6-14.5,14.2-25,15.6c-10.5,1.3-23.7-5.6-23.7-18s-0.2-58.2-0.2-58.2S69.1,7.5,99.7,14.5z"/>
	<g>
		<path class="st2" d="M89.5,40.8c0.9-1.2,2.1-2.1,3.5-2.7c1.4-0.6,2.9-1,4.5-0.9s3.2,0.7,4.5,1.7c0.3,0.3,0.6,0.6,0.8,0.9
			c0.2,0.3,0.4,0.7,0.6,1s0.3,0.7,0.4,1.1s0.2,0.7,0.2,1.1c-1.3-0.8-2.3-1.6-3.4-2s-2.2-0.6-3.3-0.7c-1.2-0.1-2.4,0-3.7,0.1
			C92.4,40.6,91,40.7,89.5,40.8z"/>
	</g>
	<g>
		<path class="st2" d="M78.5,40.8L75,40.4c-1-0.1-2-0.2-2.8-0.1c-0.9,0.1-1.6,0.3-2.5,0.8c-0.5,0.2-0.8,0.5-1.3,0.8
			s-0.9,0.7-1.5,1.1c0-0.6,0-1.3,0.2-1.9s0.5-1.3,1-1.8c0.8-1.1,2.3-1.9,3.7-2c1.5-0.1,2.8,0.2,4,0.9C77,38.8,77.9,39.6,78.5,40.8z"
			/>
	</g>
	<path class="st3" d="M123.6,54.3c-3.3-1.7-6.2,3.6-6.3,9.3c2.7-0.4,3.1,2.7,1.6,4.9C124.2,69.6,127,56,123.6,54.3z"/>
	<g>
		<path class="st4" d="M82.4,46.8c-0.4,1.6-0.8,3.2-1.1,4.8l-1,4.9l-1.7,9.7l-0.1-0.3c1,0.5,1.9,1.1,2.9,1.6c1,0.6,1.9,1.1,2.9,1.7
			c-1-0.4-2-0.9-3-1.4s-2-1-3-1.4l-0.2-0.1v-0.2c0.2-1.6,0.4-3.3,0.7-4.9c0.2-1.6,0.6-3.3,0.9-4.9s0.7-3.2,1.2-4.8
			C81.2,50,81.7,48.4,82.4,46.8z"/>
	</g>
	<path class="st5" d="M96.6,76.3c0,0-10.1,14.5-21.9,3.4L96.6,76.3"/>
	<g>
		<path class="st6" d="M77.8,53.5c-0.4-1.4-0.9-2.8-1.6-3.9s-1.7-2-2.9-1.8c-1.3,0-2.3,0.8-2.9,2s-0.8,2.6-0.9,4.1
			c-0.4-1.4-0.5-2.9,0-4.4c0.3-0.7,0.7-1.4,1.4-2c0.3-0.3,0.7-0.4,1.1-0.6c0.4-0.1,0.8-0.2,1.2-0.2c0.8-0.1,1.7,0.2,2.4,0.7
			c0.7,0.5,1.1,1.2,1.4,1.9C77.6,50.6,77.9,52.1,77.8,53.5z"/>
	</g>
	<g>
		<path class="st6" d="M101.1,54.6c-0.3-1.4-0.6-2.8-1.2-4.1c-0.6-1.2-1.5-2.1-2.8-2c-1.3,0-2.4,0.7-3.1,1.8c-0.7,1.1-1.1,2.5-1.3,4
			c-0.3-1.4-0.1-3,0.5-4.4c0.3-0.7,0.9-1.4,1.5-1.8c0.7-0.5,1.5-0.7,2.3-0.7s1.7,0.3,2.4,0.9c0.6,0.6,1.1,1.3,1.3,2
			C101.3,51.6,101.3,53.2,101.1,54.6z"/>
	</g>
	<path class="st2" d="M106.3,29.4c0.7,6.8,6.2,11.5,6.2,11.5V53v-0.1c0,0.3,0,0.5,0,0.8v4.4c1.2-0.1,2.4-0.2,3.5-0.2l0.5-4.1
		c0,0,1.6-3.4,4-3.8c2.5-6.6,4.5-12,4.5-17.3c0-13.8-8.1-12.9-8.1-12.9s-0.1-0.5-0.3-1.2C110.8-3.3,94.1-1.8,82.4,2.8
		c-1.6,0.5-3.2,1.3-4.7,2.2c-1.1,0.6-2.2,1.2-3.1,1.7C64.4,13,60,10.3,60,10.3c0.7,2.1,4.2,3.5,4.2,3.5c-6.1,0-6.8-4.3-6.8-4.3
		c-2.8,8,4.3,15.6,8.2,16.2c-4.2,0.8-6.8,0-6.8,0S70,43.4,106.3,29.4z"/>
</g>
<g>
	<g>
		<defs>
			<path id="SVGID_1_" d="M97.2,22.2c-52.5,0-95,42.5-95,95s42.5,95,95,95s95-42.5,95-95S149.6,22.2,97.2,22.2L97.2,22.2z"/>
		</defs>
		<clipPath id="SVGID_2_">
			<use xlink:href="#SVGID_1_"  style="overflow:visible;"/>
		</clipPath>
		<g class="st7">
			<g>
				<path class="st8" d="M119.9,206.1c4.6-1.1,6.9-2.6,6.9-2.7c1.4-0.5,1.2,1,1.3,2.5c0.2,2.1-0.1,3.2-1.3,3.6
					c-0.2,0.1-1.3,1.3-5.9,2.6C120.6,210.2,120.3,208.2,119.9,206.1z"/>
				<path class="st8" d="M86.7,207.9c5.2,0.5,10.8,0.6,16.9,0.5c4.7-0.1,8.9-0.7,12.5-1.4c-0.1,2.1,0.1,4.2,0.4,6.3
					c-3.6,0.7-7.9,1.3-12.8,1.5c-2,0.1-3.9,0.1-5.8,0c-4.3-0.1-8.2-0.3-11.9-0.8C86.5,212,86.7,210,86.7,207.9z"/>
				<path class="st8" d="M71.6,207.4c0.3-1.6,0.4-2.9,1.8-2.4c3,1.1,6.4,2,9.9,2.5c-0.1,2-0.4,4-0.7,6.1c-3.7-0.7-7.2-1.6-10.4-2.9
					C71.3,210.2,71.4,209,71.6,207.4z"/>
			</g>
			<path class="st9" d="M95.2,207.4l-0.2,8.3l12-0.7l0.1-7.7L95.2,207.4z M97.2,208.8l7.9-0.1l-0.1,5.1l-7.9,0.5L97.2,208.8z"/>
		</g>
	</g>
	<g>
		<defs>
			<path id="SVGID_3_" d="M97.2,22.2c-52.5,0-95,42.5-95,95s42.5,95,95,95s95-42.5,95-95S149.6,22.2,97.2,22.2L97.2,22.2z"/>
		</defs>
		<clipPath id="SVGID_4_">
			<use xlink:href="#SVGID_3_"  style="overflow:visible;"/>
		</clipPath>
		<path class="st10" d="M132.4,120c0,0-15.5,46.7-18.9,74c0,0,0.4,13-20.8,12.1c-15-0.6-19.3-3.8-19.3-3.8l-21.5-88.4
			c0,0,10.8-5.2,33.6-5.2c0,0,0-0.7,5.1,2c4,2.1,5.3,16.5,5.3,16.5s0.8-14.4,3-15.6c3.4-1.8,2.8-1.4,5.7-2.2
			c8.6,0.6,17.6,3.2,27.6,4.9L132.4,120z"/>
	</g>
	<g>
		<defs>
			<path id="SVGID_5_" d="M97.2,22.2c-52.5,0-95,42.5-95,95s42.5,95,95,95s95-42.5,95-95S149.6,22.2,97.2,22.2L97.2,22.2z"/>
		</defs>
		<clipPath id="SVGID_6_">
			<use xlink:href="#SVGID_5_"  style="overflow:visible;"/>
		</clipPath>
		<path class="st11" d="M109,109.9c-1.5-0.2-2.9-0.4-4.4-0.5c-2.8,0.8-2.2,0.4-5.7,2.2c-0.6,0.3-1.1,1.6-1.5,3.3
			c1.4-0.2,2.9-0.4,4.3-0.4c1.6,0,3.6-0.4,5.5-0.5C107.6,112.6,108.2,111.1,109,109.9z"/>
	</g>
	<g>
		<defs>
			<path id="SVGID_7_" d="M97.2,22.2c-52.5,0-95,42.5-95,95s42.5,95,95,95s95-42.5,95-95S149.6,22.2,97.2,22.2L97.2,22.2z"/>
		</defs>
		<clipPath id="SVGID_8_">
			<use xlink:href="#SVGID_7_"  style="overflow:visible;"/>
		</clipPath>
		<path class="st12" d="M88.8,115.2c0.3,0,0.7-0.1,1-0.1c1.1,0,2.1,0.1,3.1,0.4c0.2,0,0.5,0,0.7-0.1c-0.8-2.2-1.7-4.1-3-4.7
			c-5.2-2.7-5.1-2-5.1-2c-1.6,0-3.1,0-4.6,0.1c1.7,1.2,3.5,2.5,5.1,3.8C87.1,113.3,88,114.2,88.8,115.2z"/>
	</g>
	<g>
		<defs>
			<path id="SVGID_9_" d="M97.2,22.2c-52.5,0-95,42.5-95,95s42.5,95,95,95s95-42.5,95-95S149.6,22.2,97.2,22.2L97.2,22.2z"/>
		</defs>
		<clipPath id="SVGID_10_">
			<use xlink:href="#SVGID_9_"  style="overflow:visible;"/>
		</clipPath>
		<path class="st13" d="M89.5,113.5c0,0,4.7,0.9,11.4-0.9l2,3.8l-3.5,5l6.8,70.6l-6.3,6.7l-7.7-5.6l0.5-71.1l-5.3-5.1l1.1-3.1"/>
	</g>
	<g>
		<defs>
			<path id="SVGID_11_" d="M97.2,22.2c-52.5,0-95,42.5-95,95s42.5,95,95,95s95-42.5,95-95S149.6,22.2,97.2,22.2L97.2,22.2z"/>
		</defs>
		<clipPath id="SVGID_12_">
			<use xlink:href="#SVGID_11_"  style="overflow:visible;"/>
		</clipPath>
		<polygon class="st14" points="78.5,108.5 86,120.5 91.3,110.8 80.3,103.7 		"/>
	</g>
	<g>
		<defs>
			<path id="SVGID_13_" d="M97.2,22.2c-52.5,0-95,42.5-95,95s42.5,95,95,95s95-42.5,95-95S149.6,22.2,97.2,22.2L97.2,22.2z"/>
		</defs>
		<clipPath id="SVGID_14_">
			<use xlink:href="#SVGID_13_"  style="overflow:visible;"/>
		</clipPath>
		<path class="st15" d="M68.2,220l32.5,6.7l2.8-10.5l2.8,9.7l24.1-6.9l-3.4-58.2l5.3-46.5l-23.2-4.4l-10.9,57.9l-19.7-59.3
			c0,0-10.3-1.3-26.7,5.8L68.2,220z"/>
	</g>
	<g>
		<defs>
			<path id="SVGID_15_" d="M97.2,22.2c-52.5,0-95,42.5-95,95s42.5,95,95,95s95-42.5,95-95S149.6,22.2,97.2,22.2L97.2,22.2z"/>
		</defs>
		<clipPath id="SVGID_16_">
			<use xlink:href="#SVGID_15_"  style="overflow:visible;"/>
		</clipPath>
		<path class="st16" d="M78.5,108.5c0,0-4.2-0.6-6.8-0.1l-3.3,22.3l7.7,1.8l-2.6,5.9l24.6,29.4L78.5,108.5z"/>
	</g>
	<g>
		<defs>
			<path id="SVGID_17_" d="M97.2,22.2c-52.5,0-95,42.5-95,95s42.5,95,95,95s95-42.5,95-95S149.6,22.2,97.2,22.2L97.2,22.2z"/>
		</defs>
		<clipPath id="SVGID_18_">
			<use xlink:href="#SVGID_17_"  style="overflow:visible;"/>
		</clipPath>
		<polyline class="st17" points="109,109.9 98.1,167.8 114.7,141.9 108.6,133.5 116,131.7 113.5,110.5 109.9,110 		"/>
	</g>
	<g>
		<defs>
			<path id="SVGID_19_" d="M97.2,22.2c-52.5,0-95,42.5-95,95s42.5,95,95,95s95-42.5,95-95S149.6,22.2,97.2,22.2L97.2,22.2z"/>
		</defs>
		<clipPath id="SVGID_20_">
			<use xlink:href="#SVGID_19_"  style="overflow:visible;"/>
		</clipPath>
		<polygon class="st18" points="110.8,108.8 105.3,121.1 99,111.6 108.9,105 		"/>
	</g>
	<g>
		<defs>
			<path id="SVGID_21_" d="M97.2,22.2c-52.5,0-95,42.5-95,95s42.5,95,95,95s95-42.5,95-95S149.6,22.2,97.2,22.2L97.2,22.2z"/>
		</defs>
		<clipPath id="SVGID_22_">
			<use xlink:href="#SVGID_21_"  style="overflow:visible;"/>
		</clipPath>
		<circle class="st19" cx="99.3" cy="176.1" r="2.4"/>
	</g>
	<g>
		<defs>
			<path id="SVGID_23_" d="M97.2,22.2c-52.5,0-95,42.5-95,95s42.5,95,95,95s95-42.5,95-95S149.6,22.2,97.2,22.2L97.2,22.2z"/>
		</defs>
		<clipPath id="SVGID_24_">
			<use xlink:href="#SVGID_23_"  style="overflow:visible;"/>
		</clipPath>
		<circle class="st20" cx="101.1" cy="197" r="2.4"/>
	</g>
</g>
<g>
	<path class="st21" d="M170.7,64.7c1.2,3.7,2.5,8.4,3.7,13.2c-4,0.8-8,1.7-12,2.7c-0.9-6.1-1.7-11.5-2.2-14.6c-1.6,0.7-5,1.4-8.4-3
		c-2.9-3.7-1.2-6,0.5-7.2c-0.4-1.2-0.8-3-1.4-5.8c-1.1-5.8,10.6-9.2,16.3-7.8c5.7,1.4,6.9,14.3,5.9,18.6
		C172.6,63.2,171.5,64.2,170.7,64.7z"/>
	<path class="st22" d="M176.2,75.3l-1.9-8.6l-16.1,3l1.4,8.5C165,77.3,170.6,76.3,176.2,75.3z"/>
	<path class="st23" d="M156.9,75l7.5,31.5l-43.4,6.3c-9.4,4.1,1.5,23.7,1.5,23.7l3-0.8l62-16L176.3,72L156.9,75z"/>
</g>
<g>
	<path class="st21" d="M16.8,60.9c-1.2,3.7-2.5,8.4-3.7,13.2c4,0.8,8,1.7,12,2.7c0.9-6.1,1.7-11.5,2.2-14.6c1.6,0.7,5,1.4,8.4-3
		c2.9-3.7,1.2-6-0.5-7.2c0.4-1.2,0.8-3,1.4-5.8c1.1-5.8-10.6-9.2-16.3-7.8S13.4,52.7,14.4,57C15,59.4,16,60.4,16.8,60.9z"/>
	<path class="st22" d="M11.4,71.5l1.9-8.6l16.1,3l-1.3,8.6C22.5,73.5,16.9,72.5,11.4,71.5z"/>
	<path class="st23" d="M30.6,71.3l-7.5,31.5l43.4,6.3c9.4,4.1-1.5,23.7-1.5,23.7l-3-0.8L0,116l11.2-47.7L30.6,71.3z"/>
</g>
</svg>
