<?xml version="1.0" encoding="utf-8"?>
<!-- Generator: Adobe Illustrator 21.1.0, SVG Export Plug-In . SVG Version: 6.00 Build 0)  -->
<svg version="1.1" id="OBJECTS" xmlns="http://www.w3.org/2000/svg" xmlns:xlink="http://www.w3.org/1999/xlink" x="0px" y="0px"
	 viewBox="0 0 167.1 179.6" style="enable-background:new 0 0 167.1 179.6;" xml:space="preserve">
<style type="text/css">
	.st0{fill:#10A9EA;}
	.st1{fill:#0086BF;}
	.st2{fill:#FFBFA1;}
	.st3{fill:#D69F8A;}
	.st4{fill:#E6F9FF;}
	.st5{fill:#D8EAEF;}
	.st6{fill:#DDBCA6;}
	.st7{fill:#F7CEB2;}
	.st8{fill:#222228;}
	.st9{opacity:0.4;fill:#B57662;enable-background:new    ;}
	.st10{fill:#D39484;}
	.st11{fill:#84653C;}
	.st12{clip-path:url(#SVGID_2_);fill:#FFBFA1;}
	.st13{clip-path:url(#SVGID_4_);fill:#E6F9FF;}
	.st14{clip-path:url(#SVGID_6_);}
	.st15{clip-path:url(#SVGID_8_);fill:#D8CAC7;}
	.st16{clip-path:url(#SVGID_10_);fill:#D8CAC7;}
	.st17{clip-path:url(#SVGID_12_);fill:#FF7415;}
	.st18{clip-path:url(#SVGID_14_);fill:#D8EAEF;}
	.st19{clip-path:url(#SVGID_16_);fill:#D8EAEF;}
	.st20{clip-path:url(#SVGID_18_);fill:#D8EAEF;}
	.st21{fill:#F4EFE9;}
	.st22{opacity:0.29;fill:#40337B;enable-background:new    ;}
</style>
<g>
	<path class="st0" d="M39.9,77.8c-1.8,1-3.2,2.6-3.8,4.5c-1.3,4.1,1,8.3,5,9.5c1.9,0.7,4,0.4,5.8-0.6c0.7-0.5,1.4-0.9,2-1.5
		c3-3,3-7.9-0.2-10.8C46.4,76.7,42.9,76.3,39.9,77.8z M34.3,12.6c-6.2-1.6-12.7-0.5-19.6,3S3.5,24,1.3,30.1c-2,5.3-1.7,11,0.7,16.1
		c0.4,1,1.1,1.7,2.1,2.1S6,48.5,7,48.1l4-2.2c1.7-0.9,2.4-2.8,1.7-4.6c-1.2-2.6-1.2-5.6-0.4-8.4c1.1-3.2,3.6-5.8,7.6-8
		c3.9-2,7.4-2.7,10.8-1.7c3.3,0.8,5.9,3.3,7.9,7.2c2.7,5.2,3.1,9.6,1.1,12.9c-2.2,3.4-6.5,7-13.2,10.4l-1.8,1
		c-1.8,1-2.4,3.1-1.5,4.9l8.1,15.2c0.6,0.9,1.2,1.4,2.2,1.8c1,0.3,1.9,0.2,2.8-0.3l4-2.2c0.3-0.2,0.7-0.5,0.9-0.6
		c1-1.1,1.3-2.9,0.7-4.2l-5.3-9.9c-0.1-0.2,0.1-0.3,0.1-0.3c7.6-4.3,12.6-9,14.9-14.2c2.5-5.6,1.7-12-1.9-19
		C45.5,18.6,40.6,14.2,34.3,12.6L34.3,12.6z"/>
	<path class="st1" d="M46.1,77.4c-1.9-0.7-4-0.4-5.8,0.6c-0.5,0.3-1,0.7-1.7,1.1c1.4-0.5,2.9-0.4,4.3,0.1c4.1,1.3,6.3,5.5,5,9.5l0,0
		c-0.4,1.3-1,2.2-1.9,3.2c-0.2,0.1-0.2,0.1-0.3,0.2c1.3-0.3,2.5-1.1,3.6-2.1c0.9-0.9,1.4-1.9,1.9-3.2C52.4,82.9,50.1,78.7,46.1,77.4
		L46.1,77.4z M34.8,12.6C28.6,11,22.1,12,15.1,15.7c-3.9,2-7.2,4.8-10.2,8.2c1.8-1.4,3.7-2.7,5.5-3.6c6.8-3.5,13.5-4.7,19.7-3.1
		s11.3,5.9,15.1,13.1c3.7,7.2,4.4,13.4,1.9,19c-0.8,1.8-1.7,3.4-2.9,4.6c3.1-2.5,5.6-5.7,7.3-9.2c2.5-5.6,1.7-12-1.9-19
		C46.1,18.5,41,14.1,34.8,12.6L34.8,12.6z"/>
</g>
<g>
	<g>
		<path class="st2" d="M115.1,37.4C115,37.3,115,37.4,115.1,37.4c-0.1,0-13.1-6.5-16.9-3.6s-2.5,13.7,3.6,16.3s4.9-5.1,4.9-5.1
			s4.8,3.7,7.1,1.8c16.4,12.9,30.8,21.4,30.8,21.4s1.7,21.6,8.5,18.2c2.3-1.1,13.3-9.6,14-16.5C166.8,52.4,117.6,38.1,115.1,37.4z"
			/>
		<path class="st3" d="M119.5,38.8c-2.4-0.8-4.1-1.2-4.5-1.4c-0.1-0.1-0.1,0-0.1,0s-13-6.5-16.8-3.6s-2.5,13.7,3.6,16.3
			s4.9-5.1,4.9-5.1s4.8,3.7,7.1,1.8c1.1,0.8,2.1,1.7,3.2,2.5C117.5,45.7,118.3,42.2,119.5,38.8z"/>
		<g>
			<path class="st4" d="M145.3,69.5c0,0-29.5,19.6-30.8,22.1c-9.5,18.1,5.8,20,5.8,20l43.4-32.2L145.3,69.5z"/>
		</g>
		<polygon class="st5" points="142.4,71.2 158.8,86 166.5,80.4 144.6,68.2 		"/>
	</g>
	<path class="st6" d="M80.7,78.4L81.3,91c0,0-0.4,3.8,8,4.3c7.7,0.5,7.7-5.4,7.7-5.4l-0.5-19.3L80.7,78.4z"/>
	<path class="st7" d="M93.6,11.8c15.1,3.4,14.7,13.8,14.7,13.8s-0.5,8-0.8,17.5c1.4-1.9,3.8-2.7,6.2-1.7c5.1,2.2,1.3,18.3-6.5,17
		c-0.3,4.5-0.8,8-1.4,9.2c-2.2,4.6-11.8,11.6-20.4,12.7c-8.5,1.1-19.3-4.6-19.3-14.7S66,18.3,66,18.3S68.7,6.1,93.6,11.8z"/>
	<ellipse class="st8" cx="91.1" cy="42.3" rx="2.2" ry="4"/>
	<ellipse class="st8" cx="72.7" cy="43.2" rx="2.2" ry="4"/>
	<path class="st9" d="M113,44.2c-2.7-1.4-5,3-5.1,7.5c2.2-0.3,2.6,2.2,1.3,4C113.5,56.7,115.8,45.6,113,44.2z"/>
	<g>
		<path class="st10" d="M79.5,38.1c-0.3,1.3-0.6,2.6-0.9,3.9l-0.7,4l-0.7,4c-0.2,1.3-0.5,2.6-0.7,4l-0.1-0.3
			c0.8,0.4,1.6,0.9,2.4,1.3c0.8,0.5,1.6,0.9,2.3,1.4c-0.8-0.3-1.7-0.7-2.5-1.1s-1.6-0.8-2.5-1.1l-0.2-0.1v-0.2
			c0.3-2.7,0.7-5.3,1.3-8c0.3-1.3,0.6-2.6,1-3.9C78.5,40.7,79,39.4,79.5,38.1z"/>
	</g>
	<g>
		<path class="st10" d="M91.3,62.5c-1.4,0.8-2.8,1.4-4.3,2c-1.5,0.5-3.1,0.9-4.6,1.1c-1.6,0.2-3.2,0.3-4.8,0.1
			c-1.6-0.2-3.2-0.6-4.6-1.2c0.8,0.1,1.5,0.4,2.3,0.4c0.8,0.1,1.5,0.2,2.3,0.2c1.6,0,3.1,0,4.7-0.3c1.5-0.2,3.1-0.6,4.6-0.9
			C88.3,63.6,89.8,63.1,91.3,62.5z"/>
	</g>
	<path class="st11" d="M98.8,23.9c0.5,5.5,5.1,9.4,5.1,9.4v9.8l0,0c0,0.2,0,0.4,0,0.6v3.6c1-0.1,1.9-0.1,2.9-0.2l0.4-3.3
		c0,0,1.3-2.8,3.3-3.1c2.1-5.4,3.6-9.8,3.6-14.1c0-11.2-6.6-10.5-6.6-10.5s-0.1-0.4-0.3-1C102.5-2.7,88.9-1.5,79.4,2.3
		c-1.3,0.4-2.6,1-3.9,1.8c-0.9,0.5-1.8,1-2.5,1.4c-8.3,5.1-11.9,3-11.9,3c0.6,1.7,3.4,2.8,3.4,2.8c-4.9,0-5.5-3.5-5.5-3.5
		c-2.3,6.5,3.5,12.7,6.6,13.1c-3.4,0.7-5.5,0-5.5,0S69.2,35.3,98.8,23.9z"/>
	<g>
		<path class="st11" d="M96.9,35.2c-0.9,0.9-2,1.5-3.2,1.8s-2.5,0.3-3.8,0c-1.3-0.4-2.5-1.2-3.3-2.3s-1-2.5-0.8-3.7
			c1,0.8,1.7,1.6,2.5,2c0.8,0.5,1.6,0.8,2.4,1c0.9,0.2,1.8,0.4,2.8,0.6C94.6,34.7,95.7,34.9,96.9,35.2z"/>
	</g>
	<g>
		<path class="st11" d="M76.3,33.8c-1.1,0-2-0.1-2.9-0.1c-0.8-0.1-1.6-0.1-2.2,0s-1.2,0.2-1.9,0.5c-0.4,0.1-0.7,0.4-1.1,0.6
			s-0.8,0.5-1.3,0.8c-0.2-1.1,0.1-2.2,0.8-3.2c0.7-1,1.9-1.7,3.2-1.8c1.2-0.1,2.4,0.2,3.3,0.8C75.1,32,75.9,32.7,76.3,33.8z"/>
	</g>
</g>
<g>
	<g>
		<g>
			<defs>
				<path id="SVGID_1_" d="M91.1,9.7c-44.2,0-80,35.8-80,80s35.8,80,80,80s80-35.8,80-80S135.3,9.7,91.1,9.7L91.1,9.7z"/>
			</defs>
			<clipPath id="SVGID_2_">
				<use xlink:href="#SVGID_1_"  style="overflow:visible;"/>
			</clipPath>
			<path class="st12" d="M25.4,151.4c0,0,19.8,27.9,39.4,33.3l0.2-9.2c0,0-10.8-8.7-20.8-23.7S25.4,151.4,25.4,151.4z"/>
		</g>
	</g>
	<g>
		<g>
			<defs>
				<path id="SVGID_3_" d="M91.1,9.7c-44.2,0-80,35.8-80,80s35.8,80,80,80s80-35.8,80-80S135.3,9.7,91.1,9.7L91.1,9.7z"/>
			</defs>
			<clipPath id="SVGID_4_">
				<use xlink:href="#SVGID_3_"  style="overflow:visible;"/>
			</clipPath>
			<path class="st13" d="M125.3,100.9c0,0-1.7,51.2-5,77.2c0,0-12.7,5.7-32.9,4.9c-14.3-0.6-18.4-3.6-18.4-3.6L45.7,92.9
				c0,0,13.1-2.7,34.9-2.7l10.1,9.4c0,0,2.7-7.3,8.2-8.7c8.2,0.6,17.2,1.5,26.7,3.1L125.3,100.9z"/>
		</g>
	</g>
	<g>
		<g>
			<defs>
				<path id="SVGID_5_" d="M91.1,9.7c-44.2,0-80,35.8-80,80s35.8,80,80,80s80-35.8,80-80S135.3,9.7,91.1,9.7L91.1,9.7z"/>
			</defs>
			<clipPath id="SVGID_6_">
				<use xlink:href="#SVGID_5_"  style="overflow:visible;"/>
			</clipPath>
			<g class="st14">
				<polygon class="st4" points="44.3,151.8 63.4,98.6 45.7,92.8 25.5,150.2 				"/>
			</g>
		</g>
	</g>
	<g>
		<g>
			<defs>
				<path id="SVGID_7_" d="M91.1,9.7c-44.2,0-80,35.8-80,80s35.8,80,80,80s80-35.8,80-80S135.3,9.7,91.1,9.7L91.1,9.7z"/>
			</defs>
			<clipPath id="SVGID_8_">
				<use xlink:href="#SVGID_7_"  style="overflow:visible;"/>
			</clipPath>
			<polygon class="st15" points="90.7,99.4 88.1,90.3 82.2,93 			"/>
		</g>
	</g>
	<g>
		<g>
			<defs>
				<path id="SVGID_9_" d="M91.1,9.7c-44.2,0-80,35.8-80,80s35.8,80,80,80s80-35.8,80-80S135.3,9.7,91.1,9.7L91.1,9.7z"/>
			</defs>
			<clipPath id="SVGID_10_">
				<use xlink:href="#SVGID_9_"  style="overflow:visible;"/>
			</clipPath>
			<polygon class="st16" points="91.4,91.1 90.7,99.4 95.4,93.6 			"/>
		</g>
	</g>
	<g>
		<g>
			<defs>
				<path id="SVGID_11_" d="M91.1,9.7c-44.2,0-80,35.8-80,80s35.8,80,80,80s80-35.8,80-80S135.3,9.7,91.1,9.7L91.1,9.7z"/>
			</defs>
			<clipPath id="SVGID_12_">
				<use xlink:href="#SVGID_11_"  style="overflow:visible;"/>
			</clipPath>
			<path class="st17" d="M86.3,93.5c0,0,3,0.7,6.8,0.3l3.2,3.8l-2.8,4.1l11,64l-8.5,8.5l-10.4-7.4l2.4-64.7l-3.5-5L86.3,93.5z"/>
		</g>
	</g>
	<g>
		<g>
			<defs>
				<path id="SVGID_13_" d="M91.1,9.7c-44.2,0-80,35.8-80,80s35.8,80,80,80s80-35.8,80-80S135.3,9.7,91.1,9.7L91.1,9.7z"/>
			</defs>
			<clipPath id="SVGID_14_">
				<use xlink:href="#SVGID_13_"  style="overflow:visible;"/>
			</clipPath>
			<polygon class="st18" points="104.5,90.6 97.4,100.2 91.4,91.1 100.8,84.9 			"/>
		</g>
	</g>
	<g>
		<g>
			<defs>
				<path id="SVGID_15_" d="M91.1,9.7c-44.2,0-80,35.8-80,80s35.8,80,80,80s80-35.8,80-80S135.3,9.7,91.1,9.7L91.1,9.7z"/>
			</defs>
			<clipPath id="SVGID_16_">
				<use xlink:href="#SVGID_15_"  style="overflow:visible;"/>
			</clipPath>
			<polygon class="st19" points="74,89.3 83,99.6 88.1,90.3 77.6,83.6 			"/>
		</g>
	</g>
	<g>
		<g>
			<defs>
				<path id="SVGID_17_" d="M91.1,9.7c-44.2,0-80,35.8-80,80s35.8,80,80,80s80-35.8,80-80S135.3,9.7,91.1,9.7L91.1,9.7z"/>
			</defs>
			<clipPath id="SVGID_18_">
				<use xlink:href="#SVGID_17_"  style="overflow:visible;"/>
			</clipPath>
			<polygon class="st20" points="47.7,145.7 25.9,142 22.4,150.8 46.2,154.9 			"/>
		</g>
	</g>
</g>
<g>
	<polygon class="st21" points="105.7,179.6 104.4,164.5 166.9,169 166.9,179.6 	"/>
	<polygon class="st21" points="107.9,164.7 107.9,155.9 166,155.9 164.8,168.9 	"/>
	<polygon class="st21" points="102.2,147.7 103.3,155.9 160.7,155.9 160.7,147.7 	"/>
	<polygon class="st22" points="107.9,155.9 107.9,157.8 164,155.9 	"/>
	<polygon class="st22" points="107.9,164.7 164.8,168.9 165,166.8 	"/>
	<polygon class="st22" points="139.2,161.3 149,160 164,161.3 	"/>
	<polygon class="st22" points="105.2,173.3 123.8,173.3 105.3,174.6 	"/>
	<path class="st22" d="M122.5,151.8l38.2-1.2C160.8,151.5,122.5,151.8,122.5,151.8z"/>
	<polygon class="st21" points="111.6,171.1 101.3,172 101.3,173.3 114.5,172.2 	"/>
	<polygon class="st21" points="161.1,151.2 150.8,152.2 150.8,153.5 164,152.3 	"/>
</g>
<g>
	<polygon class="st21" points="105.7,148.7 104.4,133.6 166.9,138.2 166.9,148.7 	"/>
	<polygon class="st21" points="107.9,133.8 107.9,125 166,125 164.8,138 	"/>
	<polygon class="st21" points="102.2,116.9 103.3,125 160.7,125 160.7,116.9 	"/>
	<polygon class="st22" points="107.9,125 107.9,126.9 164,125 	"/>
	<polygon class="st22" points="107.9,133.8 164.8,138 165,135.9 	"/>
	<polygon class="st22" points="139.2,130.4 149,129.1 164,130.4 	"/>
	<polygon class="st22" points="105.2,142.4 123.8,142.4 105.3,143.8 	"/>
	<path class="st22" d="M122.5,120.9l38.2-1.2C160.8,120.7,122.5,120.9,122.5,120.9z"/>
	<polygon class="st21" points="111.6,140.2 101.3,141.2 101.3,142.4 114.5,141.3 	"/>
	<polygon class="st21" points="161.1,120.3 150.8,121.3 150.8,122.6 164,121.5 	"/>
</g>
</svg>
