<svg xmlns="http://www.w3.org/2000/svg" width="1058" height="256" viewBox="0 0 1058 256"><defs><clipPath id="b11da"><path fill="#fff" d="M119.083 170.573V82.338c0-43.84-35.639-79.38-79.601-79.38H-4.543"/></clipPath><clipPath id="b11db"><path fill="#fff" d="M323.065 85.396v88.235c0 43.84-35.638 79.38-79.6 79.38h-44.026c-43.962 0-79.6-35.54-79.6-79.38"/></clipPath><clipPath id="b11dc"><path fill="#fff" d="M525.048 170.573V82.338c0-43.84-35.639-79.38-79.601-79.38h-44.025c-43.963 0-79.601 35.54-79.601 79.38"/></clipPath><clipPath id="b11dd"><path fill="#fff" d="M729.03 85.396v88.235c0 43.84-35.638 79.38-79.6 79.38h-44.026c-43.962 0-79.6-35.54-79.6-79.38"/></clipPath><clipPath id="b11de"><path fill="#fff" d="M931.013 170.573V82.338c0-43.84-35.639-79.38-79.6-79.38h-44.026c-43.962 0-79.601 35.54-79.601 79.38"/></clipPath><clipPath id="b11df"><path fill="#fff" d="M1055.395 253.01h-44.025c-43.963 0-79.601-35.539-79.601-79.38"/></clipPath></defs><g><g opacity="-1"><path fill="none" stroke="#ff7415" stroke-dasharray="0 10" stroke-linecap="round" stroke-miterlimit="20" stroke-width="10" d="M119.083 170.573V82.338c0-43.84-35.639-79.38-79.601-79.38H-4.543" clip-path="url(&quot;#b11da&quot;)"/></g><g opacity="-1"><path fill="none" stroke="#ff7415" stroke-dasharray="0 10" stroke-linecap="round" stroke-miterlimit="20" stroke-width="10" d="M323.065 85.396v88.235c0 43.84-35.638 79.38-79.6 79.38h-44.026c-43.962 0-79.6-35.54-79.6-79.38" clip-path="url(&quot;#b11db&quot;)"/></g><g opacity="-1"><path fill="none" stroke="#ff7415" stroke-dasharray="0 10" stroke-linecap="round" stroke-miterlimit="20" stroke-width="10" d="M525.048 170.573V82.338c0-43.84-35.639-79.38-79.601-79.38h-44.025c-43.963 0-79.601 35.54-79.601 79.38" clip-path="url(&quot;#b11dc&quot;)"/></g><g opacity="-1"><path fill="none" stroke="#ff7415" stroke-dasharray="0 10" stroke-linecap="round" stroke-miterlimit="20" stroke-width="10" d="M729.03 85.396v88.235c0 43.84-35.638 79.38-79.6 79.38h-44.026c-43.962 0-79.6-35.54-79.6-79.38" clip-path="url(&quot;#b11dd&quot;)"/></g><g opacity="-1"><path fill="none" stroke="#ff7415" stroke-dasharray="0 10" stroke-linecap="round" stroke-miterlimit="20" stroke-width="10" d="M931.013 170.573V82.338c0-43.84-35.639-79.38-79.6-79.38h-44.026c-43.962 0-79.601 35.54-79.601 79.38" clip-path="url(&quot;#b11de&quot;)"/></g><g opacity="-1"><path fill="none" stroke="#ff7415" stroke-dasharray="0 10" stroke-linecap="round" stroke-miterlimit="20" stroke-width="10" d="M1055.395 253.01h-44.025c-43.963 0-79.601-35.539-79.601-79.38" clip-path="url(&quot;#b11df&quot;)"/></g></g></svg>