<?xml version="1.0" encoding="utf-8"?>
<!-- Generator: Adobe Illustrator 21.1.0, SVG Export Plug-In . SVG Version: 6.00 Build 0)  -->
<svg version="1.1" id="OBJECTS" xmlns="http://www.w3.org/2000/svg" xmlns:xlink="http://www.w3.org/1999/xlink" x="0px" y="0px"
	 viewBox="0 0 171 171.3" style="enable-background:new 0 0 171 171.3;" xml:space="preserve">
<style type="text/css">
	.st0{clip-path:url(#SVGID_2_);}
	.st1{fill:#FCCE52;}
	.st2{fill:#F4EFE9;}
	.st3{fill:#483B80;}
	.st4{clip-path:url(#SVGID_4_);}
	.st5{fill:#F09C36;}
	.st6{clip-path:url(#SVGID_6_);fill:#FCCE52;}
	.st7{clip-path:url(#SVGID_8_);fill:#F4EFE9;}
	.st8{clip-path:url(#SVGID_10_);fill:#483B80;}
	.st9{clip-path:url(#SVGID_12_);fill:#E6F8FF;}
	.st10{clip-path:url(#SVGID_14_);fill:#94C7D3;}
	.st11{clip-path:url(#SVGID_16_);fill:#94C7D3;}
	.st12{clip-path:url(#SVGID_18_);fill:#FFCEB1;}
	.st13{clip-path:url(#SVGID_20_);fill:#E6F8FF;}
	.st14{clip-path:url(#SVGID_22_);fill:#FF7415;}
	.st15{clip-path:url(#SVGID_24_);fill:#BFE4EF;}
	.st16{clip-path:url(#SVGID_26_);}
	.st17{fill:#FFCEB1;}
	.st18{fill:#E6F8FF;}
	.st19{clip-path:url(#SVGID_28_);fill:#BFE4EF;}
	.st20{fill:#DDBCA6;}
	.st21{fill:#F7CEB2;}
	.st22{fill:#222228;}
	.st23{fill:#84653C;}
	.st24{opacity:0.4;fill:#B57662;enable-background:new    ;}
	.st25{fill:#D39484;}
	.st26{fill:#E08282;}
	.st27{fill:#7C4A4A;}
	.st28{fill:#1E2A30;}
</style>
<g>
	<g>
		<g>
			<defs>
				<path id="SVGID_1_" d="M80,11.3c-44.2,0-80,35.8-80,80s35.8,80,80,80s80-35.8,80-80S124.2,11.3,80,11.3L80,11.3z"/>
			</defs>
			<clipPath id="SVGID_2_">
				<use xlink:href="#SVGID_1_"  style="overflow:visible;"/>
			</clipPath>
			<g class="st0">
				<polygon class="st1" points="0,81.8 21.2,79.9 21.2,180.9 0,182 				"/>
				<polygon class="st2" points="3.1,86.5 5.2,139.6 11.7,140 12.9,87.1 				"/>
				<path class="st3" d="M12.3,155.2c2,2.7-1,5.7-3.7,3.7l0,0C6.5,156.2,9.6,153.2,12.3,155.2z"/>
			</g>
		</g>
	</g>
	<g>
		<g>
			<defs>
				<path id="SVGID_3_" d="M80,11.3c-44.2,0-80,35.8-80,80s35.8,80,80,80s80-35.8,80-80S124.2,11.3,80,11.3L80,11.3z"/>
			</defs>
			<clipPath id="SVGID_4_">
				<use xlink:href="#SVGID_3_"  style="overflow:visible;"/>
			</clipPath>
			<g class="st4">
				<polygon class="st5" points="21.8,181.8 16.5,75.3 43.4,74.3 43.4,182 				"/>
				<polygon class="st2" points="25.7,86.5 27.7,139.6 34.2,140 35.4,87.1 				"/>
				<circle class="st3" cx="33" cy="157.1" r="2.5"/>
			</g>
		</g>
	</g>
	<g>
		<g>
			<defs>
				<path id="SVGID_5_" d="M80,11.3c-44.2,0-80,35.8-80,80s35.8,80,80,80s80-35.8,80-80S124.2,11.3,80,11.3L80,11.3z"/>
			</defs>
			<clipPath id="SVGID_6_">
				<use xlink:href="#SVGID_5_"  style="overflow:visible;"/>
			</clipPath>
			<polygon class="st6" points="43.4,81.8 64.6,79.9 64.6,180.9 43.4,182 			"/>
		</g>
	</g>
	<g>
		<g>
			<defs>
				<path id="SVGID_7_" d="M80,11.3c-44.2,0-80,35.8-80,80s35.8,80,80,80s80-35.8,80-80S124.2,11.3,80,11.3L80,11.3z"/>
			</defs>
			<clipPath id="SVGID_8_">
				<use xlink:href="#SVGID_7_"  style="overflow:visible;"/>
			</clipPath>
			<polygon class="st7" points="46.5,86.5 48.6,139.6 55.1,140 56.3,87.1 			"/>
		</g>
	</g>
	<g>
		<g>
			<defs>
				<path id="SVGID_9_" d="M80,11.3c-44.2,0-80,35.8-80,80s35.8,80,80,80s80-35.8,80-80S124.2,11.3,80,11.3L80,11.3z"/>
			</defs>
			<clipPath id="SVGID_10_">
				<use xlink:href="#SVGID_9_"  style="overflow:visible;"/>
			</clipPath>
			<path class="st8" d="M55.7,155.2c2,2.7-1,5.7-3.7,3.7l0,0C50,156.2,53,153.2,55.7,155.2z"/>
		</g>
	</g>
</g>
<g>
	<g>
		<g>
			<defs>
				<path id="SVGID_11_" d="M80,11.3c-5,0-9.9,0.5-14.7,1.3c-22-17.3-41.7-9.3-52.1-0.3c-9.3,8-16,37.2-6.8,47.7
					c-4.1,9.6-6.3,20.2-6.3,31.3c0,44.2,35.8,80,80,80c31.2,0,58.2-17.9,71.4-43.9c13.4-2.7,31.6-37.2,31.6-50.2
					c0-10.7-17.5-40-21.3-49.3c-2.8-7-14.2,19.8-18.8,14C128.2,23.2,105.5,11.3,80,11.3L80,11.3z"/>
			</defs>
			<clipPath id="SVGID_12_">
				<use xlink:href="#SVGID_11_"  style="overflow:visible;"/>
			</clipPath>
			<path class="st9" d="M118.4,101.7c0,0-1.7,52.6-5.1,79.2c0,0-13,5.8-33.8,5c-14.6-0.6-18.9-3.7-18.9-3.7l-21-86.4
				c0,0,10.6-5.1,32.9-5.1c0,0,0-0.7,5,2c3.9,2.1,5.2,16.1,5.2,16.1s0.8-14.1,2.9-15.3c3.4-1.8,2.8-1.4,5.5-2.1
				c8.4,0.6,17.2,3.1,27,4.8L118.4,101.7z"/>
		</g>
	</g>
	<g>
		<g>
			<defs>
				<path id="SVGID_13_" d="M80,11.3c-5,0-9.9,0.5-14.7,1.3c-22-17.3-41.7-9.3-52.1-0.3c-9.3,8-16,37.2-6.8,47.7
					c-4.1,9.6-6.3,20.2-6.3,31.3c0,44.2,35.8,80,80,80c31.2,0,58.2-17.9,71.4-43.9c13.4-2.7,31.6-37.2,31.6-50.2
					c0-10.7-17.5-40-21.3-49.3c-2.8-7-14.2,19.8-18.8,14C128.2,23.2,105.5,11.3,80,11.3L80,11.3z"/>
			</defs>
			<clipPath id="SVGID_14_">
				<use xlink:href="#SVGID_13_"  style="overflow:visible;"/>
			</clipPath>
			<path class="st10" d="M74.1,99.6c0.4,0,0.9-0.1,1.3-0.1c2.1,0,4.1,0.3,6,0.7c-0.8-3.4-2-6.7-3.8-7.6c-5.1-2.7-5-2-5-2
				c-1.6,0-3.1,0-4.6,0.1C70.8,92.9,73,95.8,74.1,99.6z"/>
		</g>
	</g>
	<g>
		<g>
			<defs>
				<path id="SVGID_15_" d="M80,11.3c-5,0-9.9,0.5-14.7,1.3c-22-17.3-41.7-9.3-52.1-0.3c-9.3,8-16,37.2-6.8,47.7
					c-4.1,9.6-6.3,20.2-6.3,31.3c0,44.2,35.8,80,80,80c31.2,0,58.2-17.9,71.4-43.9c13.4-2.7,31.6-37.2,31.6-50.2
					c0-10.7-17.5-40-21.3-49.3c-2.8-7-14.2,19.8-18.8,14C128.2,23.2,105.5,11.3,80,11.3L80,11.3z"/>
			</defs>
			<clipPath id="SVGID_16_">
				<use xlink:href="#SVGID_15_"  style="overflow:visible;"/>
			</clipPath>
			<path class="st11" d="M94.9,91.7c-1.2-0.2-2.4-0.3-3.6-0.4c-2.8,0.7-2.2,0.4-5.5,2.1c-1,0.5-1.7,3.9-2.2,7.4
				c1.9,0.7,3.6,1.7,5.2,2.8C89.3,99.3,91.5,94.8,94.9,91.7z"/>
		</g>
	</g>
	<g>
		<g>
			<defs>
				<path id="SVGID_17_" d="M80,11.3c-5,0-9.9,0.5-14.7,1.3c-22-17.3-41.7-9.3-52.1-0.3c-9.3,8-16,37.2-6.8,47.7
					c-4.1,9.6-6.3,20.2-6.3,31.3c0,44.2,35.8,80,80,80c31.2,0,58.2-17.9,71.4-43.9c13.4-2.7,31.6-37.2,31.6-50.2
					c0-10.7-17.5-40-21.3-49.3c-2.8-7-14.2,19.8-18.8,14C128.2,23.2,105.5,11.3,80,11.3L80,11.3z"/>
			</defs>
			<clipPath id="SVGID_18_">
				<use xlink:href="#SVGID_17_"  style="overflow:visible;"/>
			</clipPath>
			<path class="st12" d="M17.5,178.1c0,0-9.9,27.7-7.3,30.2c0,0,0.3,2,2.8,2.3c0,0,0.4,2.6,3.4,2c0,0,0.3,1.9,1.1,2.8
				c1.3,1.5,4.4,0.5,4.4-6.2c0,0,0.8,2.1,2.9,2.9c2.8,1.1,1.5-2.9,1.5-2.9s-0.1-3.8-0.7-8.9c-0.6-5.1-2.2-6.2-2.2-6.2l11-35.6
				L17.5,178.1z"/>
		</g>
	</g>
	<g>
		<g>
			<defs>
				<path id="SVGID_19_" d="M80,11.3c-5,0-9.9,0.5-14.7,1.3c-22-17.3-41.7-9.3-52.1-0.3c-9.3,8-16,37.2-6.8,47.7
					c-4.1,9.6-6.3,20.2-6.3,31.3c0,44.2,35.8,80,80,80c31.2,0,58.2-17.9,71.4-43.9c13.4-2.7,31.6-37.2,31.6-50.2
					c0-10.7-17.5-40-21.3-49.3c-2.8-7-14.2,19.8-18.8,14C128.2,23.2,105.5,11.3,80,11.3L80,11.3z"/>
			</defs>
			<clipPath id="SVGID_20_">
				<use xlink:href="#SVGID_19_"  style="overflow:visible;"/>
			</clipPath>
			<path class="st13" d="M13.3,186.6l13.1-44.7l13.1-45.8c6.6-1.6,20.3-0.2,11.5,24.5l-11,34.3l-13.5,37L13.3,186.6z"/>
		</g>
	</g>
	<g>
		<g>
			<defs>
				<path id="SVGID_21_" d="M80,11.3c-5,0-9.9,0.5-14.7,1.3c-22-17.3-41.7-9.3-52.1-0.3c-9.3,8-16,37.2-6.8,47.7
					c-4.1,9.6-6.3,20.2-6.3,31.3c0,44.2,35.8,80,80,80c31.2,0,58.2-17.9,71.4-43.9c13.4-2.7,31.6-37.2,31.6-50.2
					c0-10.7-17.5-40-21.3-49.3c-2.8-7-14.2,19.8-18.8,14C128.2,23.2,105.5,11.3,80,11.3L80,11.3z"/>
			</defs>
			<clipPath id="SVGID_22_">
				<use xlink:href="#SVGID_21_"  style="overflow:visible;"/>
			</clipPath>
			<path class="st14" d="M76.5,95.9c0,0,6.3,4.3,12.8-1l2.3,4.3l-4.6,7.6l8.8,61.4l-8.5,10.6L77,168.4l4.3-62.4l-7-6.4l1.3-3.5"/>
		</g>
	</g>
	<g>
		<g>
			<defs>
				<path id="SVGID_23_" d="M80,11.3c-5,0-9.9,0.5-14.7,1.3c-22-17.3-41.7-9.3-52.1-0.3c-9.3,8-16,37.2-6.8,47.7
					c-4.1,9.6-6.3,20.2-6.3,31.3c0,44.2,35.8,80,80,80c31.2,0,58.2-17.9,71.4-43.9c13.4-2.7,31.6-37.2,31.6-50.2
					c0-10.7-17.5-40-21.3-49.3c-2.8-7-14.2,19.8-18.8,14C128.2,23.2,105.5,11.3,80,11.3L80,11.3z"/>
			</defs>
			<clipPath id="SVGID_24_">
				<use xlink:href="#SVGID_23_"  style="overflow:visible;"/>
			</clipPath>
			<polygon class="st15" points="65.8,90.4 73.1,102.2 78.2,92.7 67.5,85.7 			"/>
		</g>
	</g>
	<g>
		<g>
			<defs>
				<path id="SVGID_25_" d="M80,11.3c-5,0-9.9,0.5-14.7,1.3c-22-17.3-41.7-9.3-52.1-0.3c-9.3,8-16,37.2-6.8,47.7
					c-4.1,9.6-6.3,20.2-6.3,31.3c0,44.2,35.8,80,80,80c31.2,0,58.2-17.9,71.4-43.9c13.4-2.7,31.6-37.2,31.6-50.2
					c0-10.7-17.5-40-21.3-49.3c-2.8-7-14.2,19.8-18.8,14C128.2,23.2,105.5,11.3,80,11.3L80,11.3z"/>
			</defs>
			<clipPath id="SVGID_26_">
				<use xlink:href="#SVGID_25_"  style="overflow:visible;"/>
			</clipPath>
			<g class="st16">
				<path class="st17" d="M164.5,66.9c-0.2,3.4-0.6,7.6-1.1,11.9c-3.5-0.6-7-1.1-10.5-1.6c1.1-5.2,2.2-9.8,2.8-12.5
					c-1.5,0.1-4.5-0.4-5.9-5.1c-1.2-3.9,0.9-5.3,2.6-5.7c0.1-1.1,0,0,0-1.8c0.1-5.1,11.5-4.2,15.7-1.2c4.2,2.9,1.8,10.5-0.4,13.6
					C166.4,66.2,165.2,66.8,164.5,66.9z"/>
				<path class="st18" d="M150,70.6l-4,29.4l-48.8-8.3c-4.5,4.7-2.3,23,25.7,24.3l37.1,2.8l6.2-44.5L150,70.6z"/>
				<path class="st17" d="M157.3,53c-0.3-0.1,0.3-15.2-0.8-16.1c-1-0.9-3.6-0.5-3.5,2s-0.8,15.6-0.8,15.6L157.3,53z"/>
			</g>
		</g>
	</g>
	<g>
		<g>
			<defs>
				<path id="SVGID_27_" d="M80,11.3c-5,0-9.9,0.5-14.7,1.3c-22-17.3-41.7-9.3-52.1-0.3c-9.3,8-16,37.2-6.8,47.7
					c-4.1,9.6-6.3,20.2-6.3,31.3c0,44.2,35.8,80,80,80c31.2,0,58.2-17.9,71.4-43.9c13.4-2.7,31.6-37.2,31.6-50.2
					c0-10.7-17.5-40-21.3-49.3c-2.8-7-14.2,19.8-18.8,14C128.2,23.2,105.5,11.3,80,11.3L80,11.3z"/>
			</defs>
			<clipPath id="SVGID_28_">
				<use xlink:href="#SVGID_27_"  style="overflow:visible;"/>
			</clipPath>
			<polygon class="st19" points="97.5,91.3 91.9,102.8 85.8,93.5 95.4,87 			"/>
		</g>
	</g>
</g>
<g>
	<path class="st20" d="M90.5,81.3l-0.7,13.1c0,0,0.4,3.9-8.3,4.4c-8,0.5-8-5.6-8-5.6l0.5-20L90.5,81.3z"/>
	<path class="st21" d="M77.1,12.2c-15.6,3.6-15.2,14.3-15.2,14.3s0.5,8.3,0.8,18.2c-1.4-2-3.9-2.8-6.4-1.7C51,45.3,54.9,62,63,60.6
		c0.3,4.7,0.8,8.3,1.4,9.6c2.3,4.8,12.3,12,21.1,13.2c8.9,1.1,20-4.8,20-15.2s0.1-49.1,0.1-49.1S103,6.3,77.1,12.2z"/>
	<ellipse class="st22" cx="79.8" cy="43.9" rx="2.3" ry="4.1"/>
	<ellipse class="st22" cx="98.9" cy="44.8" rx="2.3" ry="4.1"/>
	<g>
		<path class="st23" d="M85.7,34.5c-1.3,0-2.5-0.1-3.5-0.1c-1.1-0.1-2.1-0.1-3-0.1c-0.9,0.1-1.8,0.2-2.7,0.5c-1,0.3-1.8,0.9-3,1.5
			c0.1-1.3,0.6-2.6,1.7-3.6c1-0.9,2.5-1.5,3.9-1.6s2.7,0.3,3.8,0.8C84,32.6,85,33.3,85.7,34.5z"/>
	</g>
	<g>
		<path class="st23" d="M95,34.5c0.4-1.1,1.2-1.9,2.2-2.5s2.2-0.9,3.4-0.8c1.3,0.1,2.6,0.8,3.3,1.8c0.8,1,1,2.1,0.9,3.3
			c-0.6-0.3-0.9-0.6-1.3-0.8s-0.8-0.5-1.1-0.6c-0.7-0.3-1.3-0.5-2-0.5c-0.7-0.1-1.4-0.1-2.3,0C97.2,34.3,96.2,34.4,95,34.5z"/>
	</g>
	<path class="st24" d="M57,45.8c2.8-1.4,5.2,3.1,5.3,7.8c-2.3-0.3-2.7,2.3-1.4,4.2C56.5,58.8,54.1,47.3,57,45.8z"/>
	<g>
		<path class="st25" d="M91.8,39.5c0.6,1.3,1,2.6,1.4,4c0.4,1.3,0.7,2.7,1,4.1c0.6,2.7,1,5.5,1.3,8.3v0.2l-0.2,0.1
			c-0.8,0.4-1.7,0.8-2.5,1.2c-0.9,0.4-1.7,0.8-2.6,1.1c0.8-0.5,1.6-1,2.4-1.4c0.8-0.5,1.6-0.9,2.4-1.4L94.9,56
			c-0.3-1.4-0.5-2.7-0.7-4.1l-0.7-4.1l-0.8-4.1C92.4,42.3,92.1,40.9,91.8,39.5z"/>
	</g>
	<g>
		<path class="st26" d="M81.4,64.1L97.3,66c0,0-1.2,2.4-4.4,3.2C89.7,70.1,83.3,69.8,81.4,64.1z"/>
		<path class="st27" d="M86.2,65.5c-1.4-0.1-2.7,0.1-3.9,0.5c-0.4-0.6-0.7-1.2-1-1.9L97.2,66c0,0-1.2,2.4-4.4,3.2
			c-0.6,0.1-1.2,0.3-1.9,0.3C90.5,67.6,88.7,65.7,86.2,65.5z"/>
	</g>
	<path class="st23" d="M71.5,24.7c-0.6,5.7-5.2,9.7-5.2,9.7v10.2l0,0c0,0.2,0,0.4,0,0.7V49c-1-0.1-2-0.1-3-0.2l-0.4-3.4
		c0,0-1.3-2.9-3.4-3.2c-2.1-5.6-3.8-10.2-3.8-14.6c0-11.7,6.9-10.9,6.9-10.9s0.1-0.4,0.3-1C67.8-2.8,81.8-1.5,91.7,2.4
		c1.4,0.4,2.7,1.1,4,1.8c1,0.5,1.8,1,2.6,1.5c8.7,5.3,12.3,3.1,12.3,3.1c-0.6,1.8-3.5,2.9-3.5,2.9c5.1,0,5.7-3.7,5.7-3.7
		c2.3,6.7-3.7,13.2-6.9,13.6c3.5,0.7,5.7,0,5.7,0S102.2,36.5,71.5,24.7z"/>
</g>
<polygon class="st28" points="38.1,171.3 135.7,171.3 171,116 103.9,116 80.9,166.7 37.4,167 "/>
</svg>
