<?xml version="1.0" encoding="utf-8"?>
<!-- Generator: Adobe Illustrator 21.1.0, SVG Export Plug-In . SVG Version: 6.00 Build 0)  -->
<svg version="1.1" id="OBJECTS" xmlns="http://www.w3.org/2000/svg" xmlns:xlink="http://www.w3.org/1999/xlink" x="0px" y="0px"
	 viewBox="0 0 148.4 150.1" style="enable-background:new 0 0 148.4 150.1;" xml:space="preserve">
<style type="text/css">
	.st0{fill:#F5EFEA;}
	.st1{fill:#BAEBF8;}
	.st2{fill:#FF7415;}
	.st3{fill:#E2B291;}
	.st4{fill:#46AD1A;}
	.st5{fill:#DDBCA6;}
	.st6{fill:#F7CEB2;}
	.st7{fill:#222228;}
	.st8{fill:#84653C;}
	.st9{opacity:0.4;fill:#B57662;enable-background:new    ;}
	.st10{fill:#D39484;}
	.st11{clip-path:url(#SVGID_2_);fill:#DB6412;}
	.st12{clip-path:url(#SVGID_4_);fill:#FF7415;}
	.st13{clip-path:url(#SVGID_6_);fill:#DB6412;}
	.st14{clip-path:url(#SVGID_8_);fill:#FFFFFF;}
	.st15{clip-path:url(#SVGID_10_);fill:#FFFFFF;}
	.st16{clip-path:url(#SVGID_12_);fill:#FFFFFF;}
	.st17{clip-path:url(#SVGID_14_);fill:#FFFFFF;}
	.st18{clip-path:url(#SVGID_16_);fill:#DB6412;}
	.st19{fill:#5D9DC1;}
	.st20{fill:#6DB3D1;}
	.st21{fill:#3D4359;}
	.st22{opacity:0.2;fill:url(#SVGID_17_);enable-background:new    ;}
	.st23{fill:#525D7C;}
	.st24{fill:#323749;}
</style>
<g>
	<rect class="st0" width="89.4" height="122.9"/>
	<rect x="7.7" y="22.3" class="st1" width="31.2" height="33.3"/>
	<rect x="16.1" y="62.4" class="st2" width="57.1" height="5.7"/>
	<rect x="7.8" y="72.8" class="st3" width="65.3" height="4"/>
	<rect x="7.8" y="82.2" class="st3" width="65.3" height="4"/>
	<rect x="7.8" y="91.6" class="st3" width="65.3" height="4"/>
	<rect x="7.8" y="101" class="st3" width="65.3" height="4"/>
	<rect x="7.8" y="110.4" class="st3" width="65.3" height="4"/>
	<g>
		<path class="st3" d="M81.8,77.1h-5.3v-4.6h5.3V77.1z M77.2,76.5h4v-3.4h-4V76.5z"/>
		<path class="st3" d="M81.8,86.5h-5.3v-4.6h5.3V86.5z M77.2,85.9h4v-3.4h-4V85.9z"/>
		<path class="st3" d="M81.8,95.9h-5.3v-4.6h5.3V95.9z M77.2,95.2h4v-3.4h-4V95.2z"/>
		<path class="st3" d="M81.8,105.3h-5.3v-4.6h5.3V105.3z M77.2,104.6h4v-3.3h-4V104.6z"/>
		<path class="st3" d="M81.8,114.6h-5.3V110h5.3V114.6z M77.2,114h4v-3.4h-4V114z"/>
	</g>
	<rect x="7.8" y="6.6" class="st2" width="73.7" height="7.4"/>
	<rect x="48.6" y="32.1" class="st3" width="25.2" height="4"/>
	<rect x="75.5" y="32.1" class="st3" width="4.3" height="4"/>
	<rect x="48.6" y="41.8" class="st3" width="31.2" height="4"/>
	<rect x="48.6" y="51.6" class="st3" width="15.6" height="4"/>
	<rect x="66" y="51.6" class="st3" width="5.6" height="4"/>
	<rect x="48.6" y="22.3" class="st3" width="11.3" height="4"/>
	<rect x="61.7" y="22.3" class="st3" width="18.1" height="4"/>
	<path class="st4" d="M76.1,80.7c0,0,2.3,2.5,3.1,4.4c0,0,1.8-3.9,4.2-6.7c0,0-2.1,0.9-4.2,4.1C79.2,82.6,77.3,81,76.1,80.7z"/>
	<path class="st4" d="M76.1,90.3c0,0,2.3,2.5,3.1,4.4c0,0,1.8-3.9,4.2-6.7c0,0-2.1,0.9-4.2,4.1C79.2,92.1,77.3,90.5,76.1,90.3z"/>
	<path class="st4" d="M76.1,99.3c0,0,2.3,2.5,3.1,4.4c0,0,1.8-3.9,4.2-6.7c0,0-2.1,0.9-4.2,4.1C79.2,101.2,77.3,99.6,76.1,99.3z"/>
	<path class="st4" d="M76.1,71.4c0,0,2.3,2.5,3.1,4.4c0,0,1.8-3.9,4.2-6.7c0,0-2.1,0.9-4.2,4.1C79.2,73.2,77.3,71.6,76.1,71.4z"/>
</g>
<g>
	<path class="st5" d="M25.6,44l0.1,5.3c0,0,0,1.6-2.1,1.5c-2.3-0.1-2.2-1.2-2.2-1.2l-0.2-3.5L25.6,44z"/>
	<path class="st6" d="M17.2,29.6c0,0,0,10.2,0,13s2.9,4.3,5.3,4c2.3-0.3,5-2.2,5.6-3.5c0.2-0.3,0.3-1.3,0.4-2.5
		c2.2,0.4,3.2-4,1.8-4.6c-0.7-0.3-1.3-0.1-1.7,0.5c0.1-2.6,0.2-4.8,0.2-4.8s0.1-2.8-4-3.8C17.9,26.3,17.2,29.6,17.2,29.6z"/>
	<ellipse class="st7" cx="24.1" cy="36.2" rx="0.6" ry="1.1"/>
	<ellipse class="st7" cx="19" cy="36.5" rx="0.6" ry="1.1"/>
	<g>
		<path class="st8" d="M23.2,33.1c0.3-0.2,0.6-0.3,1-0.3c0.3,0,0.7,0.1,1,0.3s0.5,0.6,0.5,0.9c-0.3-0.1-0.6-0.3-0.8-0.3
			c-0.2-0.1-0.5-0.1-0.7-0.1s-0.5,0-0.8,0.1s-0.6,0.1-0.9,0.1C22.7,33.5,22.9,33.3,23.2,33.1z"/>
	</g>
	<g>
		<path class="st8" d="M19.3,33.7c-0.2,0-0.4-0.1-0.6,0c-0.2,0-0.3,0.1-0.5,0.1c-0.1,0-0.2,0.1-0.3,0.2s-0.2,0.1-0.4,0.2
			c-0.1-0.3,0-0.6,0.2-0.9c0.2-0.2,0.5-0.4,0.9-0.5s0.7,0.1,0.9,0.2c0.2,0.2,0.5,0.4,0.6,0.7C19.7,33.8,19.5,33.7,19.3,33.7z"/>
	</g>
	<path class="st9" d="M29,39.9c0.3-0.5,0.2-1.2-0.4-1.1c0-1.3,0.7-2.4,1.4-2.1C30.9,37.1,30.2,40.2,29,39.9z"/>
	<g>
		<path class="st10" d="M20.7,36.1l-0.2,1.1l-0.2,1.1c-0.1,0.4-0.1,0.7-0.2,1.1v-0.1c0.2,0.1,0.4,0.2,0.6,0.4
			c0.2,0.1,0.4,0.2,0.6,0.4c-0.2-0.1-0.5-0.2-0.7-0.3s-0.5-0.2-0.7-0.3h-0.1v-0.1c0.1-0.7,0.2-1.5,0.3-2.2c0.1-0.4,0.2-0.7,0.3-1.1
			c0.1-0.3,0.2-0.7,0.4-1C20.8,35.4,20.7,35.8,20.7,36.1z"/>
	</g>
	<g>
		<path class="st10" d="M23,42.3c-0.4,0.2-0.9,0.3-1.3,0.3c-0.4,0.1-0.9,0.1-1.3,0c-0.5-0.1-0.9-0.2-1.3-0.3
			c0.2,0.1,0.4,0.1,0.6,0.1s0.4,0.1,0.6,0.1c0.4,0,0.9,0,1.3-0.1s0.8-0.2,1.2-0.3c0.4-0.1,0.8-0.2,1.2-0.4
			C23.8,42,23.4,42.2,23,42.3z"/>
	</g>
	<path class="st8" d="M32,31.7c0.5,1-0.5,2.3-1.8,1.9v0.1c0.3,0.2,0.7,0.8,0.6,1.4c-0.1,0.6-0.9,0.7-1.3,0.7l0,0
		c-0.6,0.1-0.9,0.6-0.9,0.6l-0.4,2.1l-0.6,0.1v-4.8c0,0-1.4-0.6-1.9-2.4c-0.5,0.2-1.4,0.6-2-0.6c0,0-0.1,1.2-1.4,0.9
		s-1.2-1.4-1.2-1.4s-0.4,1.4-1.2,1.2c-0.8-0.2-0.8-0.7-0.6-1.5c0,0-3.5,2.4-3.9-0.1s1.8-2.6,1.8-2.6s-1.2-1-0.6-1.9s2.1-0.9,2.9,0.1
		c0,0-1.2-1.8,0.5-2.3c1.3-0.5,2.2,0.9,2.6,1.8c-0.1-0.7,0.1-1.8,1.4-1.6c1.6,0.2,1.7,2,1.7,2.7c0.1-0.7,0.4-2.2,2-1.8
		c1.2,0.3,1.2,1.3,1.1,2.1c0.2-0.4,0.7-0.6,1.4-0.3c0.9,0.4,0.8,1.3,0.5,2c0.3-0.4,0.7-0.6,1.4,0.1c1.1,1.4-1.7,3.2-1.7,3.2
		S31.3,30.6,32,31.7z"/>
</g>
<g>
	<g>
		<g>
			<g>
				<defs>
					<rect id="SVGID_1_" x="7.7" y="22.3" width="31.2" height="33.3"/>
				</defs>
				<clipPath id="SVGID_2_">
					<use xlink:href="#SVGID_1_"  style="overflow:visible;"/>
				</clipPath>
				<path class="st11" d="M18.3,47.6c0,0-3.3,1.4-4.5,2.4s-7,15.3-8,18c0,0-0.4,1,0.5,1.7s2.3,0.7,3.1,0.1c0.8-0.6,3.6-5,3.6-5
					L18.3,47.6z"/>
			</g>
		</g>
		<g>
			<g>
				<defs>
					<rect id="SVGID_3_" x="7.7" y="22.3" width="31.2" height="33.3"/>
				</defs>
				<clipPath id="SVGID_4_">
					<use xlink:href="#SVGID_3_"  style="overflow:visible;"/>
				</clipPath>
				<path class="st12" d="M19,47.3c0.4-0.1,1.1-0.3,1.4-0.3c0.4,2.3,2.8,4.6,6.3,0.4c2,0.3,8.1,2.1,8.4,4.3c0,7.3-2.6,12.1-2.6,20.9
					c0,4,1.5,1,1.4,6.5c-3.4-0.4-18.6-3.2-21.1-0.1c-0.2-0.2-0.5-0.9-0.2-2.1C15.7,63.2,9.2,50.8,19,47.3z"/>
			</g>
		</g>
		<g>
			<g>
				<defs>
					<rect id="SVGID_5_" x="7.7" y="22.3" width="31.2" height="33.3"/>
				</defs>
				<clipPath id="SVGID_6_">
					<use xlink:href="#SVGID_5_"  style="overflow:visible;"/>
				</clipPath>
				<path class="st13" d="M19.7,47.1c0.3-0.1,0.6-0.1,0.7-0.2c0.3,2.2,2.8,4.1,6.3,0.4c0.4,0.1,0.8,0.1,1.3,0.3
					C25.2,52.2,19.4,52.6,19.7,47.1C19.7,47.2,19.7,47.2,19.7,47.1z"/>
			</g>
		</g>
		<g>
			<g>
				<defs>
					<rect id="SVGID_7_" x="7.7" y="22.3" width="31.2" height="33.3"/>
				</defs>
				<clipPath id="SVGID_8_">
					<use xlink:href="#SVGID_7_"  style="overflow:visible;"/>
				</clipPath>
				<path class="st14" d="M23.5,50.4c0-0.1,0.1-0.1,0.2,0c0.1,0,0.1,0.1,0,0.2c-1.3,1.8-0.6,3,0.2,4.2c0.6,1,1.2,2,1,3.4
					c0,0.1-0.1,0.1-0.2,0.1s-0.1-0.1-0.1-0.2c0.2-1.3-0.4-2.3-0.9-3.2C22.8,53.6,22.1,52.3,23.5,50.4z"/>
			</g>
		</g>
		<g>
			<g>
				<defs>
					<rect id="SVGID_9_" x="7.7" y="22.3" width="31.2" height="33.3"/>
				</defs>
				<clipPath id="SVGID_10_">
					<use xlink:href="#SVGID_9_"  style="overflow:visible;"/>
				</clipPath>
				<path class="st15" d="M21.7,50.4C21.7,50.3,21.8,50.3,21.7,50.4c0.2-0.1,0.2,0,0.2,0s0.1,5.4-3.4,5.2c-0.1,0-0.1-0.1-0.1-0.2
					s0.1-0.1,0.2-0.1C21.8,55.4,21.7,50.4,21.7,50.4z"/>
			</g>
		</g>
		<g>
			<g>
				<defs>
					<rect id="SVGID_11_" x="7.7" y="22.3" width="31.2" height="33.3"/>
				</defs>
				<clipPath id="SVGID_12_">
					<use xlink:href="#SVGID_11_"  style="overflow:visible;"/>
				</clipPath>
				<circle class="st16" cx="18.4" cy="55.4" r="0.4"/>
			</g>
		</g>
		<g>
			<g>
				<defs>
					<rect id="SVGID_13_" x="7.7" y="22.3" width="31.2" height="33.3"/>
				</defs>
				<clipPath id="SVGID_14_">
					<use xlink:href="#SVGID_13_"  style="overflow:visible;"/>
				</clipPath>
				<circle class="st17" cx="24.7" cy="58.3" r="0.4"/>
			</g>
		</g>
		<g>
			<g>
				<defs>
					<rect id="SVGID_15_" x="7.7" y="22.3" width="31.2" height="33.3"/>
				</defs>
				<clipPath id="SVGID_16_">
					<use xlink:href="#SVGID_15_"  style="overflow:visible;"/>
				</clipPath>
				<path class="st18" d="M34.3,50.4c0,0,1.7,1.1,3.3,2.8c1.6,1.7,3.4,9.9,3.5,10.7c0.1,0.7-3.3,2.3-4.5,2.3
					C34.4,66.2,27.3,52,34.3,50.4z"/>
			</g>
		</g>
	</g>
</g>
<g>
	
		<rect x="93.4" y="106" transform="matrix(0.6086 -0.7935 0.7935 0.6086 -48.4757 120.0815)" class="st19" width="8.1" height="6.3"/>
	
		<rect x="85.1" y="102.8" transform="matrix(0.6085 -0.7936 0.7936 0.6085 -47.6127 115.4734)" class="st20" width="16.2" height="6.3"/>
	<path class="st21" d="M66,118.4c-7.1,0-14.2-2.2-20.2-6.9c-14.6-11.2-17.3-32.1-6.2-46.7C45,57.7,52.9,53.2,61.7,52
		c8.8-1.2,17.6,1.2,24.6,6.6l0,0c7.1,5.4,11.6,13.3,12.8,22.1c1.2,8.8-1.2,17.6-6.6,24.6C86,113.9,76.1,118.4,66,118.4z M66.1,54.5
		c-1.3,0-2.7,0.1-4.1,0.3c-8.1,1.1-15.3,5.2-20.3,11.7c-10.3,13.4-7.7,32.6,5.7,42.9c13.4,10.3,32.6,7.7,42.9-5.7
		c5-6.5,7.1-14.5,6.1-22.6c-1.1-8.1-5.2-15.3-11.7-20.3l0,0C79.3,56.7,72.8,54.5,66.1,54.5z"/>
	<g>
		
			<radialGradient id="SVGID_17_" cx="66.1" cy="93.1" r="31.9397" gradientTransform="matrix(1 0 0 1 0 -8)" gradientUnits="userSpaceOnUse">
			<stop  offset="0" style="stop-color:#FFFFFF"/>
			<stop  offset="0.4052" style="stop-color:#FDFFFF"/>
			<stop  offset="0.5512" style="stop-color:#F6FDFF"/>
			<stop  offset="0.6552" style="stop-color:#EBFBFF"/>
			<stop  offset="0.7394" style="stop-color:#DAF8FF"/>
			<stop  offset="0.8115" style="stop-color:#C4F4FF"/>
			<stop  offset="0.8753" style="stop-color:#A8F0FF"/>
			<stop  offset="0.933" style="stop-color:#88EAFF"/>
			<stop  offset="0.9844" style="stop-color:#64E3FF"/>
			<stop  offset="1" style="stop-color:#57E1FF"/>
		</radialGradient>
		<circle class="st22" cx="66.1" cy="85.1" r="31.9"/>
		<g>
			<path class="st21" d="M147.3,145.6l-1.8,2.3c-2.2,2.8-6.7,3-10,0.3L95.1,116l8.3-10.8l41.6,30.7
				C148.4,138.3,149.5,142.7,147.3,145.6z"/>
			<path class="st23" d="M100,115.6c2.2-3.3,44.4,26.4,40.9,31.3c-1.5,2.2-13.7-7.7-23-14.8C108.6,125.1,98.8,117.3,100,115.6z"/>
			<path class="st24" d="M144.4,140.4c1.3,2.5,0.9,5.9,0,8.5c0.4-0.3,0.8-0.6,1.1-1.1l1.8-2.3c2.2-2.8,1.1-7.2-2.3-9.7l-41.6-30.7
				l-8.3,10.8l8.7-6.2C103.9,109.8,142.4,136.5,144.4,140.4z"/>
		</g>
	</g>
	<path class="st21" d="M66,115.8c-6.7,0-13.2-2.2-18.6-6.3c-13.4-10.3-16-29.6-5.7-43s29.6-16,43-5.7c6.5,5,10.7,12.2,11.7,20.3
		c1.1,8.1-1.1,16.2-6.1,22.7S78.1,114.5,70,115.5C68.7,115.7,67.4,115.8,66,115.8z M66.1,55.2c-9,0-17.9,4-23.8,11.7
		c-10,13.1-7.6,31.9,5.5,42c13.1,10,31.9,7.6,42-5.5c4.9-6.3,7-14.2,5.9-22.1c-1-7.9-5.1-15-11.5-19.8
		C78.9,57.2,72.5,55.2,66.1,55.2z"/>
</g>
</svg>
