<svg viewBox="0 0 150 35" xmlns="http://www.w3.org/2000/svg"><path d="M63.76 22.54V3.76h-6.88v2.22c0 3.9-.18 6.7-.36 8.24-.23 2.85-.64 6.29-3.24 7.87a8.1 8.1 0 0 1-3.64.91L49 20.28c.46-.09 1.6-.27 2.28-.63.95-.5 1.68-1.85 2.05-4.21.18-1.18.45-3.35.45-9.64V1H67v21.54h-3.24m41.26.46V12.65h-9.04V23H93V1h2.98v8.96h9.04V1H108v22h-2.98m22.96 0V5.62h-.04L119.54 23H116V1h2.97v17.43h.09L127.46 1H131v22h-3.02m16.08-19.32V23h-3.12V3.68H135V1h15v2.68h-5.94M76.94 1L70 23h3.04l1.77-5.66h9.12l1.7 5.66H89L81.88 1h-4.94zm-1.38 13.71l3.7-12.67h.06l3.8 12.67h-7.56zM23.33 13.4c.52.72 1 1.44 1.43 2.16-.46.48-.9.98-1.3 1.52l-.19.26-.35.5c-.43-.8-.92-1.6-1.48-2.45a16.7 16.7 0 0 1 1.9-2m2.61 4.35c.47.92.85 1.81 1.19 2.65-.05.06-.1.12-.13.18l-.15.22c-.66.95-1.14 1.77-1.56 2.64a23.38 23.38 0 0 0-1.22-3.24 15.13 15.13 0 0 1 1.87-2.45m-5.92 5.6c-.43-1.16-.9-2.22-1.5-3.3.42-.87.92-1.78 1.51-2.7.6.93 1.09 1.83 1.5 2.7a22.8 22.8 0 0 0-1.51 3.3m-2.88-5.51l-.4-.58-.19-.26c-.38-.51-.8-1-1.23-1.45.44-.72.91-1.44 1.44-2.17.63.57 1.26 1.23 1.88 2.01-.56.84-1.06 1.65-1.5 2.45m-1.63 3.46a23.6 23.6 0 0 0-.77 2.12 18.98 18.98 0 0 0-1.82-3.04c.34-.85.73-1.74 1.2-2.66a17.22 17.22 0 0 1 1.86 2.46c-.17.37-.32.74-.47 1.12m4.54-11.67c.6.58 1.2 1.2 1.76 1.86a18.4 18.4 0 0 0-1.77 1.95c-.55-.7-1.14-1.36-1.76-1.96.57-.66 1.17-1.28 1.77-1.85M40 2.3V.1c-3.3.03-12.75.6-19.93 6.3C12.86.6 3.3.02 0 0v2.2c2.98-.09 11.12.25 18.22 5.83-.6.6-1.18 1.23-1.72 1.92a20.24 20.24 0 0 0-6.07-3.08A34.8 34.8 0 0 0 0 5.25v2.3c.38 0 .83 0 1.36.03 2.68.14 8.5.82 12.8 3.78.3.19.58.39.87.6-.5.72-.95 1.42-1.37 2.1-1.54-1.15-3.3-2-5.16-2.47a32.21 32.21 0 0 0-8.5-1.1v2.43l.54.02c1.79.1 7.55.5 10.68 2.57.38.24.77.48 1.18.76-.42.8-.79 1.57-1.11 2.3a9.7 9.7 0 0 0-4.71-2.26c-2.19-.5-5.03-.57-6.58-.57v2.57c1.44.06 6.45.27 8.28 1.35.55.3 1.25.54 2.05 1.26-.4 1.14-.7 2.14-.9 2.98a6.12 6.12 0 0 0-4.78-2.87A71.07 71.07 0 0 0 0 20.98v2.66c1.67-.02 4.76-.03 5.33.17.44.15 1.31-.05 2.46 1.77.68 1.07.9 1.99 1.04 2.6.05.2.07 1.52.07 2.96L8.88 35h2.31c.01-.6.1-6.07 0-7.03l-.05-.19v-1.1s.19-1.43.85-3.62c.61 1.04.98 1.98 1.24 2.75.47 1.1.62 2.87.66 4.13L13.87 35h2.31c0-.45 0-3.27.02-4.4 0-.56 0-1.3-.06-2.08v-.54c0-.35.24-2.54 1.2-5.2.1.22.2.44.28.66a16.2 16.2 0 0 1 1.25 5.29l-.01.68V35h2.3a1359.35 1359.35 0 0 1 0-6.25 16.23 16.23 0 0 1 1.55-5.97 19.85 19.85 0 0 1 1.17 5.1v.72c-.06.79-.06 1.53-.06 2.09l.02 4.31h2.31l-.02-4.98a13.27 13.27 0 0 1 1.94-6.92c.63 2.11.8 3.5.8 3.5v1.27c0 .07-.03.13-.04.2-.1.91-.02 5.98 0 6.93h2.31l-.02-3.86c0-1.4.02-2.68.07-2.87a7.7 7.7 0 0 1 1.04-2.6c1.15-1.8 2.02-1.62 2.46-1.76.57-.2 3.63-.2 5.31-.17v-2.66a70.45 70.45 0 0 0-4.63.05 6.1 6.1 0 0 0-4.74 2.82 27.3 27.3 0 0 0-.9-2.97c.79-.7 1.47-.92 2.01-1.23 1.82-1.07 6.8-1.28 8.26-1.34v-2.57c-1.55 0-4.38.07-6.56.57a9.67 9.67 0 0 0-4.64 2.2c-.33-.73-.7-1.5-1.11-2.3l1.1-.7c3.14-2.07 8.9-2.48 10.69-2.57L40 13v-2.4c-1.78 0-5.33.16-8.49 1.1a14.4 14.4 0 0 0-5.07 2.41A38.9 38.9 0 0 0 25.08 12l.77-.54c4.3-2.95 10.13-3.63 12.82-3.77.5-.03.96-.04 1.33-.04v-2.3c-2 .01-6.25.23-10.41 1.62a20.27 20.27 0 0 0-5.97 3.01 21.85 21.85 0 0 0-1.71-1.93C28.96 2.55 37 2.21 40 2.3" fill="#009EDE" fill-rule="evenodd"/></svg>