<?xml version="1.0" encoding="utf-8"?>
<!-- Generator: Adobe Illustrator 21.1.0, SVG Export Plug-In . SVG Version: 6.00 Build 0)  -->
<svg version="1.1" id="BACKGROUND" xmlns="http://www.w3.org/2000/svg" xmlns:xlink="http://www.w3.org/1999/xlink" x="0px" y="0px"
	 viewBox="0 0 340 199" style="enable-background:new 0 0 340 199;" xml:space="preserve">
<style type="text/css">
	.st0{opacity:0.17;fill:#10A9EA;enable-background:new    ;}
	.st1{fill:#30C1FF;}
	.st2{clip-path:url(#SVGID_2_);fill:#FDFDFD;}
	.st3{opacity:0.4;fill:url(#SVGID_3_);enable-background:new    ;}
	.st4{opacity:0.48;fill:#8AE7E1;enable-background:new    ;}
	.st5{clip-path:url(#SVGID_5_);fill:#30C1FF;}
	.st6{clip-path:url(#SVGID_7_);fill:#FDFDFD;}
	.st7{opacity:0.4;clip-path:url(#SVGID_9_);fill:url(#SVGID_10_);enable-background:new    ;}
	.st8{clip-path:url(#SVGID_12_);}
	.st9{fill:#FDFDFD;}
	.st10{opacity:0.4;fill:url(#SVGID_13_);enable-background:new    ;}
	.st11{clip-path:url(#SVGID_15_);}
	.st12{fill:#FF7500;}
	.st13{opacity:0.4;fill:url(#SVGID_16_);enable-background:new    ;}
	.st14{fill:#3D99C8;}
	.st15{opacity:0.3;fill:#2F4863;enable-background:new    ;}
	.st16{fill:#D5F0FB;}
	.st17{opacity:7.000000e-02;fill:#10A9EA;enable-background:new    ;}
</style>
<path class="st0" d="M337.5,179.9l-54.3-54.7c-2-2-5.3-2-7.3,0l0,0l-4.9,5c-4.8,4.8-12.6,4.9-17.5,0.1c0,0,0,0-0.1-0.1L238,114.7
	c-2-2-5.3-2-7.3,0l0,0l-30.3,30.5c-4.8,4.8-12.6,4.9-17.5,0.1c0,0,0,0-0.1-0.1l-28-28.1c-2-2-5.3-2-7.3,0l0,0l-7.3,7.3
	c-4.8,4.8-12.6,4.9-17.5,0.1c0,0,0,0-0.1-0.1l-22-22.1c-2-2-5.3-2-7.3,0l0,0L39,157l-24.7,22.9H337.5z"/>
<g>
	<g>
		<path class="st1" d="M391,180.7L286.7,76.4c-3.9-3.9-10.2-3.9-14,0L168.3,180.7H391"/>
	</g>
</g>
<g>
	<g>
		<g>
			<defs>
				<rect id="SVGID_1_" x="-62" y="7" width="389.4" height="170"/>
			</defs>
			<clipPath id="SVGID_2_">
				<use xlink:href="#SVGID_1_"  style="overflow:visible;"/>
			</clipPath>
			<path class="st2" d="M286.7,76.4c-3.9-3.9-10.2-3.9-14,0l-38,38c5.6,3,12.6,2,17.1-2.6l4.1-4.2c1.2-1.2,2.8-1.8,4.5-1.7l0,0
				c3.2,0.3,5.5,3.1,5.2,6.3l0,0c-0.4,3.1,2.1,5.9,5.2,5.9h0.7c2.9,0,5.4-2.2,5.8-5.1l1.5-12.1c0.3-2.2,2-3.9,4.1-4.2
				c2.2-0.3,4.3,0.9,5.2,2.9l1.6,3.8c1,2.4,4,3.4,6.2,2c1.5-0.9,2.2-2.7,1.9-4.4l-1.2-4.8c-0.3-1.2,0.4-2.4,1.5-2.8
				c0.9-0.3,1.8,0,2.4,0.7l12.1,14.5c2.9,3.5,7.2,5.2,11.5,4.9L286.7,76.4z"/>
		</g>
	</g>
</g>
<g>
	<g>
		
			<linearGradient id="SVGID_3_" gradientUnits="userSpaceOnUse" x1="276.3193" y1="-6.5174" x2="298.2713" y2="124.0964" gradientTransform="matrix(1 0 0 -1 0 194)">
			<stop  offset="0" style="stop-color:#2E5776"/>
			<stop  offset="1" style="stop-color:#2E5776;stop-opacity:0"/>
		</linearGradient>
		<path class="st3" d="M376.3,166c-143,13.5-103.7-89.6-103.7-89.6L168.3,180.7H391"/>
	</g>
</g>
<g>
	<g>
		<g>
			<path class="st4" d="M332.5,129.2c-0.3,0-0.6-0.1-0.9-0.4l-8.3-8.3c-0.5-0.5-0.5-1.3,0-1.8s1.3-0.5,1.8,0l8.3,8.3
				c0.5,0.5,0.5,1.3,0,1.8C333.2,129.1,332.9,129.2,332.5,129.2z"/>
			<path class="st4" d="M331.9,136.1c-0.3,0-0.6-0.1-0.9-0.4l-4.4-4.4c-0.5-0.5-0.5-1.3,0-1.8s1.3-0.5,1.8,0l4.4,4.4
				c0.5,0.5,0.5,1.3,0,1.8C332.6,136,332.3,136.1,331.9,136.1z"/>
			<path class="st4" d="M306.4,112.9c-0.3,0-0.6-0.1-0.9-0.4l-4.5-4.4c-0.5-0.5-0.5-1.3,0-1.8s1.3-0.5,1.8,0l4.5,4.4
				c0.5,0.5,0.5,1.3,0,1.8C307,112.7,306.7,112.9,306.4,112.9z"/>
			<path class="st4" d="M319.1,128.4c-0.3,0-0.6-0.1-0.9-0.4l-1.5-1.5c-0.5-0.5-0.5-1.3,0-1.8s1.3-0.5,1.8,0l1.5,1.5
				c0.5,0.5,0.5,1.3,0,1.8C319.7,128.2,319.4,128.4,319.1,128.4z"/>
			<path class="st4" d="M307.9,126.4c-0.3,0-0.7-0.1-0.9-0.4l-1.5-1.6c-0.5-0.5-0.5-1.3,0-1.8s1.3-0.5,1.8,0l1.5,1.6
				c0.5,0.5,0.5,1.3,0,1.8C308.5,126.3,308.2,126.4,307.9,126.4z"/>
			<path class="st4" d="M310.7,148.2c-0.3,0-0.6-0.1-0.9-0.4l-1.6-1.5c-0.5-0.5-0.5-1.3,0-1.8s1.3-0.5,1.8,0l1.6,1.5
				c0.5,0.5,0.5,1.3,0,1.8C311.4,148.1,311.1,148.2,310.7,148.2z"/>
			<path class="st4" d="M317.3,118.9c-0.3,0-0.6-0.1-0.9-0.4l-1.6-1.6c-0.5-0.5-0.5-1.3,0-1.8s1.3-0.5,1.8,0l1.6,1.6
				c0.5,0.5,0.5,1.3,0,1.8C317.9,118.7,317.6,118.9,317.3,118.9z"/>
		</g>
	</g>
</g>
<g>
	<g>
		<g>
			<defs>
				<rect id="SVGID_4_" x="-24" y="7" width="389.4" height="170"/>
			</defs>
			<clipPath id="SVGID_5_">
				<use xlink:href="#SVGID_4_"  style="overflow:visible;"/>
			</clipPath>
			<path class="st5" d="M108.7,178.8h173.2l-81.1-81.1c-3-3-7.9-3-10.9,0L108.7,178.8"/>
		</g>
	</g>
</g>
<g>
	<g>
		<g>
			<defs>
				<rect id="SVGID_6_" x="-24" y="7" width="389.4" height="170"/>
			</defs>
			<clipPath id="SVGID_7_">
				<use xlink:href="#SVGID_6_"  style="overflow:visible;"/>
			</clipPath>
			<path class="st6" d="M158.4,129.1l1.1,0.7c3.5,2,7.8,1.4,10.6-1.4l9.9-9.8c0.9-0.9,2.4-1.3,3.7-0.8c1.8,0.7,2.8,2.6,2.2,4.4
				l-2.6,7.9c-0.7,2.2,0.7,4.4,3,4.7l0,0c1.5,0.2,2.9-0.6,3.6-2l4-7.9c0.7-1.5,2.4-2.4,4.1-2.2c1.8,0.2,3.2,1.5,3.6,3.3l0.5,2.6
				c0.4,2,2.2,3.3,4.2,3l0,0c2-0.3,3.5-2.1,3.3-4.1l-0.4-4c-0.1-1.5,0.9-2.9,2.4-3.3c1.4-0.3,2.9,0.3,3.6,1.5l4.2,7.8
				c0.6,1.1,1.9,1.5,3,1s1.6-1.8,1.2-2.9l-1.3-3.3c-0.6-1.5-0.3-3.2,0.7-4.4l-22.1-22.1c-3-3-7.9-3-10.9,0L158.4,129.1z"/>
		</g>
	</g>
</g>
<g>
	<g>
		<g>
			<defs>
				<rect id="SVGID_8_" x="-24" y="7" width="389.4" height="170"/>
			</defs>
			<clipPath id="SVGID_9_">
				<use xlink:href="#SVGID_8_"  style="overflow:visible;"/>
			</clipPath>
			
				<linearGradient id="SVGID_10_" gradientUnits="userSpaceOnUse" x1="192.1566" y1="-0.6784" x2="209.345" y2="101.5924" gradientTransform="matrix(1 0 0 -1 0 194)">
				<stop  offset="0" style="stop-color:#2E5776"/>
				<stop  offset="1" style="stop-color:#2E5776;stop-opacity:0"/>
			</linearGradient>
			<path class="st7" d="M107.7,179.2l174.2-0.5l-11.4-11.4c-111.2,10.5-80.6-69.7-80.6-69.7L107.7,179.2"/>
		</g>
	</g>
</g>
<g>
	<g>
		<g>
			<defs>
				<rect id="SVGID_11_" x="-7" y="7" width="389.4" height="170"/>
			</defs>
			<clipPath id="SVGID_12_">
				<use xlink:href="#SVGID_11_"  style="overflow:visible;"/>
			</clipPath>
			<g class="st8">
				<g>
					<g>
						<path class="st1" d="M180.6,177.8L121,118.2c-2.2-2.2-5.8-2.2-8,0l-59.6,59.6L180.6,177.8L180.6,177.8z"/>
					</g>
				</g>
				<g>
					<path class="st4" d="M147.7,151c-0.3,0-0.6-0.1-0.9-0.4l-7.3-7.3c-0.5-0.5-0.5-1.3,0-1.8s1.3-0.5,1.8,0l7.3,7.3
						c0.5,0.5,0.5,1.3,0,1.8C148.4,150.9,148.1,151,147.7,151z"/>
					<path class="st4" d="M162.1,164.8c-0.3,0-0.6-0.1-0.9-0.4l-7.3-7.3c-0.5-0.5-0.5-1.3,0-1.8s1.3-0.5,1.8,0l7.3,7.3
						c0.5,0.5,0.5,1.3,0,1.8C162.7,164.7,162.4,164.8,162.1,164.8z"/>
					<path class="st4" d="M171.1,173.8c-0.3,0-0.6-0.1-0.9-0.4l-5.8-5.8c-0.5-0.5-0.5-1.3,0-1.8s1.3-0.5,1.8,0l5.8,5.8
						c0.5,0.5,0.5,1.3,0,1.8C171.7,173.7,171.4,173.8,171.1,173.8z"/>
					<path class="st4" d="M147.2,157c-0.3,0-0.6-0.1-0.9-0.4l-3.9-3.9c-0.5-0.5-0.5-1.3,0-1.8s1.3-0.5,1.8,0l3.9,3.9
						c0.5,0.5,0.5,1.3,0,1.8C147.9,156.9,147.5,157,147.2,157z"/>
					<path class="st4" d="M128.9,136.5c-0.3,0-0.6-0.1-0.9-0.4l-3.9-3.9c-0.5-0.5-0.5-1.3,0-1.8s1.3-0.5,1.8,0l3.9,3.9
						c0.5,0.5,0.5,1.3,0,1.8C129.6,136.3,129.2,136.5,128.9,136.5z"/>
					<path class="st4" d="M156.4,165.3c-0.3,0-0.6-0.1-0.9-0.4l-3.9-3.9c-0.5-0.5-0.5-1.3,0-1.8s1.3-0.5,1.8,0l3.9,3.9
						c0.5,0.5,0.5,1.3,0,1.8C157,165.1,156.7,165.3,156.4,165.3z"/>
					<path class="st4" d="M149.7,165.6c-0.3,0-0.6-0.1-0.9-0.4l-1.4-1.4c-0.5-0.5-0.5-1.3,0-1.8s1.3-0.5,1.8,0l1.4,1.4
						c0.5,0.5,0.5,1.3,0,1.8C150.3,165.5,150,165.6,149.7,165.6z"/>
					<path class="st4" d="M138.7,149.4c-0.3,0-0.6-0.1-0.9-0.4l-1.4-1.4c-0.5-0.5-0.5-1.3,0-1.8s1.3-0.5,1.8,0l1.4,1.4
						c0.5,0.5,0.5,1.3,0,1.8C139.4,149.3,139.1,149.4,138.7,149.4z"/>
					<path class="st4" d="M134.4,141.9c-0.3,0-0.7-0.1-0.9-0.4l-1.4-1.4c-0.5-0.5-0.5-1.3,0-1.8s1.3-0.5,1.8,0l1.4,1.4
						c0.5,0.5,0.5,1.3,0,1.8C135,141.8,134.7,141.9,134.4,141.9z"/>
					<path class="st4" d="M166.1,176c-0.3,0-0.6-0.1-0.9-0.4l-4.4-4.4c-0.5-0.5-0.5-1.3,0-1.8s1.3-0.5,1.8,0l4.4,4.4
						c0.5,0.5,0.5,1.3,0,1.8C166.8,175.9,166.5,176,166.1,176z"/>
				</g>
				<path class="st9" d="M96.5,141.2l4.8-4.3c0.9-0.8,2.2-0.9,3.2-0.3c1,0.6,1.5,1.8,1.2,2.9l-0.4,1.5c-0.4,1.5,0.6,3.1,2.1,3.4
					c1.5,0.3,2.9-0.7,3.2-2.1l1.5-6.6c0.2-0.8,0.9-1.5,1.8-1.5s1.8,0.7,2,1.6l2.1,11.6c0.2,1.1,1.3,1.9,2.4,1.8l0,0
					c1.2-0.1,2.2-1.2,2-2.4l-0.8-7.5c-0.1-0.9,0.5-1.7,1.3-1.9c0.9-0.2,1.8,0.2,2.1,1.1l1.4,3.4c0.5,1.2,1.7,1.7,2.9,1.3
					c1.3-0.5,1.9-1.9,1.4-3.1l-4.5-10.2c-0.3-0.7,0-1.5,0.6-1.8s1.3-0.2,1.7,0.3c1,1.1,2.5,1.5,4,1.3L121,118.3
					c-2.2-2.2-5.8-2.2-8,0l-23.9,23.9C91.5,143.4,94.5,143.1,96.5,141.2z"/>
				
					<linearGradient id="SVGID_13_" gradientUnits="userSpaceOnUse" x1="115.6518" y1="13.7564" x2="133.7686" y2="46.5932" gradientTransform="matrix(1 0 0 -1 0 194)">
					<stop  offset="0" style="stop-color:#2E5776"/>
					<stop  offset="1" style="stop-color:#2E5776;stop-opacity:0"/>
				</linearGradient>
				<path class="st10" d="M180.6,177.8l-8.4-8.4c-81.7,7.7-59.2-51.2-59.2-51.2l-59.6,59.6L180.6,177.8L180.6,177.8z"/>
			</g>
		</g>
	</g>
</g>
<g>
	<g>
		<g>
			<defs>
				<rect id="SVGID_14_" x="-4" y="7" width="389.4" height="170"/>
			</defs>
			<clipPath id="SVGID_15_">
				<use xlink:href="#SVGID_14_"  style="overflow:visible;"/>
			</clipPath>
			<g class="st11">
				<path class="st12" d="M2.9,180.2h95.7l-44.8-44.8c-1.6-1.6-4.4-1.6-6,0L2.9,180.2"/>
				<path class="st9" d="M30.3,152.8l0.6,0.3c1.9,1.1,4.3,0.7,5.9-0.8l5.5-5.4c0.5-0.5,1.3-0.7,2-0.5c1,0.3,1.5,1.5,1.2,2.4
					l-1.4,4.4c-0.4,1.2,0.4,2.4,1.7,2.6l0,0c0.8,0.1,1.6-0.3,2-1.1l2.2-4.4c0.4-0.8,1.3-1.3,2.2-1.2c1,0.1,1.8,0.8,2,1.8l0.3,1.4
					c0.2,1.1,1.2,1.8,2.3,1.7l0,0c1.1-0.1,1.9-1.2,1.8-2.2l-0.2-2.2c-0.1-0.8,0.5-1.6,1.3-1.8c0.7-0.2,1.6,0.1,2,0.8l2.3,4.3
					c0.3,0.6,1.1,0.8,1.7,0.6c0.6-0.3,0.9-1,0.7-1.6l-0.7-1.8c-0.3-0.8-0.1-1.8,0.4-2.4l-12.2-12.2c-1.6-1.6-4.4-1.6-6,0L30.3,152.8
					z"/>
				
					<linearGradient id="SVGID_16_" gradientUnits="userSpaceOnUse" x1="49.0364" y1="4.9919" x2="58.5261" y2="61.4553" gradientTransform="matrix(1 0 0 -1 0 194)">
					<stop  offset="0" style="stop-color:#2E5776"/>
					<stop  offset="1" style="stop-color:#2E5776;stop-opacity:0"/>
				</linearGradient>
				<path class="st13" d="M2.4,180.4l96.2-0.2l-6.3-6.3c-61.4,5.8-44.5-38.5-44.5-38.5L2.4,180.4"/>
			</g>
		</g>
	</g>
</g>
<g>
	<path class="st14" d="M154.4,180c-0.1-0.4-0.1-0.7-0.2-1.1c-0.1-0.3-0.2-0.5-0.4-0.7c0.1-0.1,0.1-0.3,0.1-0.4
		c-0.1-0.4-0.2-0.7-0.3-1.1c-0.1-0.3-0.2-0.6-0.4-0.8c0.1-0.1,0.1-0.3,0.1-0.5c-0.1-0.4-0.2-0.7-0.3-1.1c-0.1-0.3-0.2-0.6-0.4-0.8
		c0.1-0.1,0.1-0.3,0.1-0.5c-0.1-0.4-0.1-0.7-0.2-1.1c-0.1-0.3-0.2-0.6-0.3-0.9c0.1-0.1,0.1-0.3,0.1-0.5c0-0.4-0.1-0.7-0.2-1.1
		c-0.3-1.8-1.7-3.3-3.7-3.3l0,0c-1.9,0-3.4,1.5-3.7,3.3c0,0.4-0.1,0.7-0.2,1.1c0,0.2,0,0.3,0.1,0.5c-0.1,0.3-0.2,0.6-0.3,0.9
		c-0.1,0.4-0.1,0.7-0.2,1.1c0,0.2,0,0.3,0.1,0.5c-0.2,0.3-0.3,0.6-0.4,0.8c-0.1,0.4-0.2,0.7-0.3,1.1c0,0.2,0,0.3,0.1,0.5
		c-0.2,0.3-0.3,0.6-0.4,0.8c-0.1,0.4-0.2,0.7-0.3,1.1c0,0.1,0,0.3,0.1,0.4c-0.2,0.2-0.3,0.5-0.4,0.7c-0.1,0.4-0.1,0.7-0.2,1.1
		c-0.1,0.4,0.5,0.9,1.3,1c0.9,0.1,1.7-0.2,1.7-0.7c0,0.5,0.6,0.9,1.4,0.9c0.8,0,1.5-0.4,1.5-0.8c0,0.5,0.7,0.9,1.5,0.8
		c0.8,0,1.5-0.5,1.4-0.9c0,0.5,0.8,0.8,1.7,0.7C153.9,181,154.5,180.5,154.4,180z"/>
	<path class="st15" d="M148.5,180.5c0,0.5,0.7,0.9,1.5,0.8c0.8,0,1.5-0.5,1.4-0.9c0,0.5,0.8,0.8,1.7,0.7c0.8-0.1,1.4-0.6,1.3-1
		c-0.1-0.4-0.1-0.7-0.2-1.1c-0.1-0.3-0.2-0.5-0.4-0.7c0.1-0.1,0.1-0.3,0.1-0.4l0,0c-1.1,0.4-2.8,0.6-4.8-0.3
		c-3-1.4-1.7-9.1-1.3-11.3c-1.5,0.3-2.8,1.6-3,3.2c0,0.4-0.1,0.7-0.2,1.1c0,0.2,0,0.3,0.1,0.5c-0.1,0.3-0.2,0.6-0.3,0.9
		c-0.1,0.4-0.1,0.7-0.2,1.1c0,0.2,0,0.3,0.1,0.5c-0.2,0.3-0.3,0.6-0.4,0.8c-0.1,0.4-0.2,0.7-0.3,1.1c0,0.2,0,0.3,0.1,0.5
		c-0.2,0.3-0.3,0.6-0.4,0.8c-0.1,0.4-0.2,0.7-0.3,1.1c0,0.1,0,0.3,0.1,0.4c-0.2,0.2-0.3,0.5-0.4,0.7c-0.1,0.4-0.1,0.7-0.2,1.1
		c-0.1,0.4,0.5,0.9,1.3,1c0.9,0.1,1.7-0.2,1.7-0.7c0,0.5,0.6,0.9,1.4,0.9C147.8,181.4,148.5,181,148.5,180.5z"/>
</g>
<g>
	<path class="st14" d="M162.8,180.1c-0.1-0.4-0.1-0.7-0.2-1.1c-0.1-0.3-0.2-0.5-0.4-0.7c0.1-0.1,0.1-0.3,0.1-0.4
		c-0.1-0.4-0.2-0.7-0.3-1.1c-0.1-0.3-0.2-0.6-0.4-0.8c0.1-0.1,0.1-0.3,0.1-0.5c-0.1-0.4-0.2-0.7-0.3-1.1c-0.1-0.3-0.2-0.6-0.4-0.8
		c0.1-0.1,0.1-0.3,0.1-0.5c-0.1-0.4-0.1-0.7-0.2-1.1c-0.1-0.3-0.2-0.6-0.3-0.9c0.1-0.1,0.1-0.3,0.1-0.5c0-0.4-0.1-0.7-0.2-1.1
		c-0.3-1.8-1.7-3.3-3.7-3.3l0,0c-1.9,0-3.4,1.5-3.7,3.3c0,0.4-0.1,0.7-0.2,1.1c0,0.2,0,0.3,0.1,0.5c-0.1,0.3-0.2,0.6-0.3,0.9
		c-0.1,0.4-0.1,0.7-0.2,1.1c0,0.2,0,0.3,0.1,0.5c-0.2,0.3-0.3,0.6-0.4,0.8c-0.1,0.4-0.2,0.7-0.3,1.1c0,0.2,0,0.3,0.1,0.5
		c-0.2,0.3-0.3,0.6-0.4,0.8c-0.1,0.4-0.2,0.7-0.3,1.1c0,0.1,0,0.3,0.1,0.4c-0.2,0.2-0.3,0.5-0.4,0.7c-0.1,0.4-0.1,0.7-0.2,1.1
		c-0.1,0.4,0.5,0.9,1.3,1c0.9,0.1,1.7-0.2,1.7-0.7c0,0.5,0.6,0.9,1.4,0.9c0.8,0,1.5-0.4,1.5-0.8c0,0.5,0.7,0.9,1.5,0.8
		c0.8,0,1.5-0.5,1.4-0.9c0,0.5,0.8,0.8,1.7,0.7C162.4,181.1,162.9,180.5,162.8,180.1z"/>
	<path class="st15" d="M156.9,180.6c0,0.5,0.7,0.9,1.5,0.8c0.8,0,1.5-0.5,1.4-0.9c0,0.5,0.8,0.8,1.7,0.7c0.8-0.1,1.4-0.6,1.3-1
		c-0.1-0.4-0.1-0.7-0.2-1.1c-0.1-0.3-0.2-0.5-0.4-0.7c0.1-0.1,0.1-0.3,0.1-0.4l0,0c-1.1,0.4-2.8,0.6-4.8-0.3
		c-3-1.4-1.7-9.1-1.3-11.3c-1.5,0.3-2.8,1.6-3,3.2c0,0.4-0.1,0.7-0.2,1.1c0,0.2,0,0.3,0.1,0.5c-0.1,0.3-0.2,0.6-0.3,0.9
		c-0.1,0.4-0.1,0.7-0.2,1.1c0,0.2,0,0.3,0.1,0.5c-0.2,0.3-0.3,0.6-0.4,0.8c-0.1,0.4-0.2,0.7-0.3,1.1c0,0.2,0,0.3,0.1,0.5
		c-0.2,0.3-0.3,0.6-0.4,0.8c-0.1,0.4-0.2,0.7-0.3,1.1c0,0.1,0,0.3,0.1,0.4c-0.2,0.2-0.3,0.5-0.4,0.7c-0.1,0.4-0.1,0.7-0.2,1.1
		c-0.1,0.4,0.5,0.9,1.3,1c0.9,0.1,1.7-0.2,1.7-0.7c0,0.5,0.6,0.9,1.4,0.9C156.2,181.5,156.9,181.1,156.9,180.6z"/>
</g>
<g>
	<path class="st14" d="M179.9,180.5c-0.1-0.4-0.1-0.7-0.2-1.1c-0.1-0.3-0.2-0.5-0.4-0.7c0.1-0.1,0.1-0.3,0.1-0.4
		c-0.1-0.4-0.2-0.7-0.3-1.1c-0.1-0.3-0.2-0.6-0.4-0.8c0.1-0.1,0.1-0.3,0.1-0.5c-0.1-0.4-0.2-0.7-0.3-1.1c-0.1-0.3-0.2-0.6-0.4-0.8
		c0.1-0.1,0.1-0.3,0.1-0.5c-0.1-0.4-0.1-0.7-0.2-1.1c-0.1-0.3-0.2-0.6-0.3-0.9c0.1-0.1,0.1-0.3,0.1-0.5c0-0.4-0.1-0.7-0.2-1.1
		c-0.3-1.8-1.7-3.3-3.7-3.3l0,0c-1.9,0-3.4,1.5-3.7,3.3c0,0.4-0.1,0.7-0.2,1.1c0,0.2,0,0.3,0.1,0.5c-0.1,0.3-0.2,0.6-0.3,0.9
		c-0.1,0.4-0.1,0.7-0.2,1.1c0,0.2,0,0.3,0.1,0.5c-0.2,0.3-0.3,0.6-0.4,0.8c-0.1,0.4-0.2,0.7-0.3,1.1c0,0.2,0,0.3,0.1,0.5
		c-0.2,0.3-0.3,0.6-0.4,0.8c-0.1,0.4-0.2,0.7-0.3,1.1c0,0.1,0,0.3,0.1,0.4c-0.2,0.2-0.3,0.5-0.4,0.7c-0.1,0.4-0.1,0.7-0.2,1.1
		c-0.1,0.4,0.5,0.9,1.3,1c0.9,0.1,1.7-0.2,1.7-0.7c0,0.5,0.6,0.9,1.4,0.9c0.8,0,1.5-0.4,1.5-0.8c0,0.5,0.7,0.9,1.5,0.8
		c0.8,0,1.5-0.5,1.4-0.9c0,0.5,0.8,0.8,1.7,0.7C179.4,181.4,180,180.9,179.9,180.5z"/>
	<path class="st15" d="M174,181c0,0.5,0.7,0.9,1.5,0.8c0.8,0,1.5-0.5,1.4-0.9c0,0.5,0.8,0.8,1.7,0.7c0.8-0.1,1.4-0.6,1.3-1
		c-0.1-0.4-0.1-0.7-0.2-1.1c-0.1-0.3-0.2-0.5-0.4-0.7c0.1-0.1,0.1-0.3,0.1-0.4l0,0c-1.1,0.4-2.8,0.6-4.8-0.3
		c-3-1.4-1.7-9.1-1.3-11.3c-1.5,0.3-2.8,1.6-3,3.2c0,0.4-0.1,0.7-0.2,1.1c0,0.2,0,0.3,0.1,0.5c-0.1,0.3-0.2,0.6-0.3,0.9
		c-0.1,0.4-0.1,0.7-0.2,1.1c0,0.2,0,0.3,0.1,0.5c-0.2,0.3-0.3,0.6-0.4,0.8c-0.1,0.4-0.2,0.7-0.3,1.1c0,0.2,0,0.3,0.1,0.5
		c-0.2,0.3-0.3,0.6-0.4,0.8c-0.1,0.4-0.2,0.7-0.3,1.1c0,0.1,0,0.3,0.1,0.4c-0.2,0.2-0.3,0.5-0.4,0.7c-0.1,0.4-0.1,0.7-0.2,1.1
		c-0.1,0.4,0.5,0.9,1.3,1c0.9,0.1,1.7-0.2,1.7-0.7c0,0.5,0.6,0.9,1.4,0.9C173.3,181.9,174,181.4,174,181z"/>
</g>
<g>
	<path class="st14" d="M189.3,181.7c-0.1-0.4-0.1-0.7-0.2-1.1c-0.1-0.3-0.2-0.5-0.4-0.7c0.1-0.1,0.1-0.3,0.1-0.4
		c-0.1-0.4-0.2-0.7-0.3-1.1c-0.1-0.3-0.2-0.6-0.4-0.8c0.1-0.1,0.1-0.3,0.1-0.5c-0.1-0.4-0.2-0.7-0.3-1.1c-0.1-0.3-0.2-0.6-0.4-0.8
		c0.1-0.1,0.1-0.3,0.1-0.5c-0.1-0.4-0.1-0.7-0.2-1.1c-0.1-0.3-0.2-0.6-0.3-0.9c0.1-0.1,0.1-0.3,0.1-0.5c0-0.4-0.1-0.7-0.2-1.1
		c-0.3-1.8-1.7-3.3-3.7-3.3l0,0c-1.9,0-3.4,1.5-3.7,3.3c0,0.4-0.1,0.7-0.2,1.1c0,0.2,0,0.3,0.1,0.5c-0.1,0.3-0.2,0.6-0.3,0.9
		c-0.1,0.4-0.1,0.7-0.2,1.1c0,0.2,0,0.3,0.1,0.5c-0.2,0.3-0.3,0.6-0.4,0.8c-0.1,0.4-0.2,0.7-0.3,1.1c0,0.2,0,0.3,0.1,0.5
		c-0.2,0.3-0.3,0.6-0.4,0.8c-0.1,0.4-0.2,0.7-0.3,1.1c0,0.1,0,0.3,0.1,0.4c-0.2,0.2-0.3,0.5-0.4,0.7c-0.1,0.4-0.1,0.7-0.2,1.1
		c-0.1,0.4,0.5,0.9,1.3,1c0.9,0.1,1.7-0.2,1.7-0.7c0,0.5,0.6,0.9,1.4,0.9c0.8,0,1.5-0.4,1.5-0.8c0,0.5,0.7,0.9,1.5,0.8
		c0.8,0,1.5-0.5,1.4-0.9c0,0.5,0.8,0.8,1.7,0.7C188.8,182.6,189.4,182.1,189.3,181.7z"/>
	<path class="st15" d="M183.3,182.2c0,0.5,0.7,0.9,1.5,0.8c0.8,0,1.5-0.5,1.4-0.9c0,0.5,0.8,0.8,1.7,0.7c0.8-0.1,1.4-0.6,1.3-1
		c-0.1-0.4-0.1-0.7-0.2-1.1c-0.1-0.3-0.2-0.5-0.4-0.7c0.1-0.1,0.1-0.3,0.1-0.4l0,0c-1.1,0.4-2.8,0.6-4.8-0.3
		c-3-1.4-1.7-9.1-1.3-11.3c-1.5,0.3-2.8,1.6-3,3.2c0,0.4-0.1,0.7-0.2,1.1c0,0.2,0,0.3,0.1,0.5c-0.1,0.3-0.2,0.6-0.3,0.9
		c-0.1,0.4-0.1,0.7-0.2,1.1c0,0.2,0,0.3,0.1,0.5c-0.2,0.3-0.3,0.6-0.4,0.8c-0.1,0.4-0.2,0.7-0.3,1.1c0,0.2,0,0.3,0.1,0.5
		c-0.2,0.3-0.3,0.6-0.4,0.8c-0.1,0.4-0.2,0.7-0.3,1.1c0,0.1,0,0.3,0.1,0.4c-0.2,0.2-0.3,0.5-0.4,0.7c-0.1,0.4-0.1,0.7-0.2,1.1
		c-0.1,0.4,0.5,0.9,1.3,1c0.9,0.1,1.7-0.2,1.7-0.7c0,0.5,0.6,0.9,1.4,0.9C182.7,183.1,183.3,182.7,183.3,182.2z"/>
</g>
<g>
	<path class="st14" d="M195.7,184c-0.1-0.4-0.1-0.7-0.2-1.1c-0.1-0.3-0.2-0.5-0.4-0.7c0.1-0.1,0.1-0.3,0.1-0.4
		c-0.1-0.4-0.2-0.7-0.3-1.1c-0.1-0.3-0.2-0.6-0.4-0.8c0.1-0.1,0.1-0.3,0.1-0.5c-0.1-0.4-0.2-0.7-0.3-1.1c-0.1-0.3-0.2-0.6-0.4-0.8
		c0.1-0.1,0.1-0.3,0.1-0.5c-0.1-0.4-0.1-0.7-0.2-1.1c-0.1-0.3-0.2-0.6-0.3-0.9c0.1-0.1,0.1-0.3,0.1-0.5c0-0.4-0.1-0.7-0.2-1.1
		c-0.3-1.8-1.7-3.3-3.7-3.3l0,0c-1.9,0-3.4,1.5-3.7,3.3c0,0.4-0.1,0.7-0.2,1.1c0,0.2,0,0.3,0.1,0.5c-0.1,0.3-0.2,0.6-0.3,0.9
		c-0.1,0.4-0.1,0.7-0.2,1.1c0,0.2,0,0.3,0.1,0.5c-0.2,0.3-0.3,0.6-0.4,0.8c-0.1,0.4-0.2,0.7-0.3,1.1c0,0.2,0,0.3,0.1,0.5
		c-0.2,0.3-0.3,0.6-0.4,0.8c-0.1,0.4-0.2,0.7-0.3,1.1c0,0.1,0,0.3,0.1,0.4c-0.2,0.2-0.3,0.5-0.4,0.7c-0.1,0.4-0.1,0.7-0.2,1.1
		c-0.1,0.4,0.5,0.9,1.3,1c0.9,0.1,1.7-0.2,1.7-0.7c0,0.5,0.6,0.9,1.4,0.9c0.8,0,1.5-0.4,1.5-0.8c0,0.5,0.7,0.9,1.5,0.8
		c0.8,0,1.5-0.5,1.4-0.9c0,0.5,0.8,0.8,1.7,0.7C195.3,184.9,195.8,184.4,195.7,184z"/>
	<path class="st15" d="M189.8,184.5c0,0.5,0.7,0.9,1.5,0.8c0.8,0,1.5-0.5,1.4-0.9c0,0.5,0.8,0.8,1.7,0.7c0.8-0.1,1.4-0.6,1.3-1
		c-0.1-0.4-0.1-0.7-0.2-1.1c-0.1-0.3-0.2-0.5-0.4-0.7c0.1-0.1,0.1-0.3,0.1-0.4l0,0c-1.1,0.4-2.8,0.6-4.8-0.3
		c-3-1.4-1.7-9.1-1.3-11.3c-1.5,0.3-2.8,1.6-3,3.2c0,0.4-0.1,0.7-0.2,1.1c0,0.2,0,0.3,0.1,0.5c-0.1,0.3-0.2,0.6-0.3,0.9
		c-0.1,0.4-0.1,0.7-0.2,1.1c0,0.2,0,0.3,0.1,0.5c-0.2,0.3-0.3,0.6-0.4,0.8c-0.1,0.4-0.2,0.7-0.3,1.1c0,0.2,0,0.3,0.1,0.5
		c-0.2,0.3-0.3,0.6-0.4,0.8c-0.1,0.4-0.2,0.7-0.3,1.1c0,0.1,0,0.3,0.1,0.4c-0.2,0.2-0.3,0.5-0.4,0.7c-0.1,0.4-0.1,0.7-0.2,1.1
		c-0.1,0.4,0.5,0.9,1.3,1c0.9,0.1,1.7-0.2,1.7-0.7c0,0.5,0.6,0.9,1.4,0.9C189.1,185.4,189.8,184.9,189.8,184.5z"/>
</g>
<g>
	<path class="st14" d="M202.9,185c-0.1-0.4-0.1-0.7-0.2-1.1c-0.1-0.3-0.2-0.5-0.4-0.7c0.1-0.1,0.1-0.3,0.1-0.4
		c-0.1-0.4-0.2-0.7-0.3-1.1c-0.1-0.3-0.2-0.6-0.4-0.8c0.1-0.1,0.1-0.3,0.1-0.5c-0.1-0.4-0.2-0.7-0.3-1.1c-0.1-0.3-0.2-0.6-0.4-0.8
		c0.1-0.1,0.1-0.3,0.1-0.5c-0.1-0.4-0.1-0.7-0.2-1.1c-0.1-0.3-0.2-0.6-0.3-0.9c0.1-0.1,0.1-0.3,0.1-0.5c0-0.4-0.1-0.7-0.2-1.1
		c-0.3-1.8-1.7-3.3-3.7-3.3l0,0c-1.9,0-3.4,1.5-3.7,3.3c0,0.4-0.1,0.7-0.2,1.1c0,0.2,0,0.3,0.1,0.5c-0.1,0.3-0.2,0.6-0.3,0.9
		c-0.1,0.4-0.1,0.7-0.2,1.1c0,0.2,0,0.3,0.1,0.5c-0.2,0.3-0.3,0.6-0.4,0.8c-0.1,0.4-0.2,0.7-0.3,1.1c0,0.2,0,0.3,0.1,0.5
		c-0.2,0.3-0.3,0.6-0.4,0.8c-0.1,0.4-0.2,0.7-0.3,1.1c0,0.1,0,0.3,0.1,0.4c-0.2,0.2-0.3,0.5-0.4,0.7c-0.1,0.4-0.1,0.7-0.2,1.1
		c-0.1,0.4,0.5,0.9,1.3,1c0.9,0.1,1.7-0.2,1.7-0.7c0,0.5,0.6,0.9,1.4,0.9c0.8,0,1.5-0.4,1.5-0.8c0,0.5,0.7,0.9,1.5,0.8
		c0.8,0,1.5-0.5,1.4-0.9c0,0.5,0.8,0.8,1.7,0.7C202.4,185.9,203,185.5,202.9,185z"/>
	<path class="st15" d="M196.9,185.5c0,0.5,0.7,0.9,1.5,0.8c0.8,0,1.5-0.5,1.4-0.9c0,0.5,0.8,0.8,1.7,0.7c0.8-0.1,1.4-0.6,1.3-1
		c-0.1-0.4-0.1-0.7-0.2-1.1c-0.1-0.3-0.2-0.5-0.4-0.7c0.1-0.1,0.1-0.3,0.1-0.4l0,0c-1.1,0.4-2.8,0.6-4.8-0.3
		c-3-1.4-1.7-9.1-1.3-11.3c-1.5,0.3-2.8,1.6-3,3.2c0,0.4-0.1,0.7-0.2,1.1c0,0.2,0,0.3,0.1,0.5c-0.1,0.3-0.2,0.6-0.3,0.9
		c-0.1,0.4-0.1,0.7-0.2,1.1c0,0.2,0,0.3,0.1,0.5c-0.2,0.3-0.3,0.6-0.4,0.8c-0.1,0.4-0.2,0.7-0.3,1.1c0,0.2,0,0.3,0.1,0.5
		c-0.2,0.3-0.3,0.6-0.4,0.8c-0.1,0.4-0.2,0.7-0.3,1.1c0,0.1,0,0.3,0.1,0.4c-0.2,0.2-0.3,0.5-0.4,0.7c-0.1,0.4-0.1,0.7-0.2,1.1
		c-0.1,0.4,0.5,0.9,1.3,1c0.9,0.1,1.7-0.2,1.7-0.7c0,0.5,0.6,0.9,1.4,0.9C196.3,186.4,196.9,186,196.9,185.5z"/>
</g>
<g>
	<path class="st14" d="M210.8,182.9c-0.1-0.4-0.1-0.7-0.2-1.1c-0.1-0.3-0.2-0.5-0.4-0.7c0.1-0.1,0.1-0.3,0.1-0.4
		c-0.1-0.4-0.2-0.7-0.3-1.1c-0.1-0.3-0.2-0.6-0.4-0.8c0.1-0.1,0.1-0.3,0.1-0.5c-0.1-0.4-0.2-0.7-0.3-1.1c-0.1-0.3-0.2-0.6-0.4-0.8
		c0.1-0.1,0.1-0.3,0.1-0.5c-0.1-0.4-0.1-0.7-0.2-1.1c-0.1-0.3-0.2-0.6-0.3-0.9c0.1-0.1,0.1-0.3,0.1-0.5c0-0.4-0.1-0.7-0.2-1.1
		c-0.3-1.8-1.7-3.3-3.7-3.3l0,0c-1.9,0-3.4,1.5-3.7,3.3c0,0.4-0.1,0.7-0.2,1.1c0,0.2,0,0.3,0.1,0.5c-0.1,0.3-0.2,0.6-0.3,0.9
		c-0.1,0.4-0.1,0.7-0.2,1.1c0,0.2,0,0.3,0.1,0.5c-0.2,0.3-0.3,0.6-0.4,0.8c-0.1,0.4-0.2,0.7-0.3,1.1c0,0.2,0,0.3,0.1,0.5
		c-0.2,0.3-0.3,0.6-0.4,0.8c-0.1,0.4-0.2,0.7-0.3,1.1c0,0.1,0,0.3,0.1,0.4c-0.2,0.2-0.3,0.5-0.4,0.7c-0.1,0.4-0.1,0.7-0.2,1.1
		c-0.1,0.4,0.5,0.9,1.3,1c0.9,0.1,1.7-0.2,1.7-0.7c0,0.5,0.6,0.9,1.4,0.9c0.8,0,1.5-0.4,1.5-0.8c0,0.5,0.7,0.9,1.5,0.8
		c0.8,0,1.5-0.5,1.4-0.9c0,0.5,0.8,0.8,1.7,0.7C210.3,183.8,210.9,183.4,210.8,182.9z"/>
	<path class="st15" d="M204.9,183.4c0,0.5,0.7,0.9,1.5,0.8c0.8,0,1.5-0.5,1.4-0.9c0,0.5,0.8,0.8,1.7,0.7c0.8-0.1,1.4-0.6,1.3-1
		c-0.1-0.4-0.1-0.7-0.2-1.1c-0.1-0.3-0.2-0.5-0.4-0.7c0.1-0.1,0.1-0.3,0.1-0.4l0,0c-1.1,0.4-2.8,0.6-4.8-0.3
		c-3-1.4-1.7-9.1-1.3-11.3c-1.5,0.3-2.8,1.6-3,3.2c0,0.4-0.1,0.7-0.2,1.1c0,0.2,0,0.3,0.1,0.5c-0.1,0.3-0.2,0.6-0.3,0.9
		c-0.1,0.4-0.1,0.7-0.2,1.1c0,0.2,0,0.3,0.1,0.5c-0.2,0.3-0.3,0.6-0.4,0.8c-0.1,0.4-0.2,0.7-0.3,1.1c0,0.2,0,0.3,0.1,0.5
		c-0.2,0.3-0.3,0.6-0.4,0.8c-0.1,0.4-0.2,0.7-0.3,1.1c0,0.1,0,0.3,0.1,0.4c-0.2,0.2-0.3,0.5-0.4,0.7c-0.1,0.4-0.1,0.7-0.2,1.1
		c-0.1,0.4,0.5,0.9,1.3,1c0.9,0.1,1.7-0.2,1.7-0.7c0,0.5,0.6,0.9,1.4,0.9C204.2,184.2,204.9,183.9,204.9,183.4z"/>
</g>
<g>
	<path class="st14" d="M219.4,183.8c-0.1-0.4-0.1-0.7-0.2-1.1c-0.1-0.3-0.2-0.5-0.4-0.7c0.1-0.1,0.1-0.3,0.1-0.4
		c-0.1-0.4-0.2-0.7-0.3-1.1c-0.1-0.3-0.2-0.6-0.4-0.8c0.1-0.1,0.1-0.3,0.1-0.5c-0.1-0.4-0.2-0.7-0.3-1.1c-0.1-0.3-0.2-0.6-0.4-0.8
		c0.1-0.1,0.1-0.3,0.1-0.5c-0.1-0.4-0.1-0.7-0.2-1.1c-0.1-0.3-0.2-0.6-0.3-0.9c0.1-0.1,0.1-0.3,0.1-0.5c0-0.4-0.1-0.7-0.2-1.1
		c-0.3-1.8-1.7-3.3-3.7-3.3l0,0c-1.9,0-3.4,1.5-3.7,3.3c0,0.4-0.1,0.7-0.2,1.1c0,0.2,0,0.3,0.1,0.5c-0.1,0.3-0.2,0.6-0.3,0.9
		c-0.1,0.4-0.1,0.7-0.2,1.1c0,0.2,0,0.3,0.1,0.5c-0.2,0.3-0.3,0.6-0.4,0.8c-0.1,0.4-0.2,0.7-0.3,1.1c0,0.2,0,0.3,0.1,0.5
		c-0.2,0.3-0.3,0.6-0.4,0.8c-0.1,0.4-0.2,0.7-0.3,1.1c0,0.1,0,0.3,0.1,0.4c-0.2,0.2-0.3,0.5-0.4,0.7c-0.1,0.4-0.1,0.7-0.2,1.1
		c-0.1,0.4,0.5,0.9,1.3,1c0.9,0.1,1.7-0.2,1.7-0.7c0,0.5,0.6,0.9,1.4,0.9c0.8,0,1.5-0.4,1.5-0.8c0,0.5,0.7,0.9,1.5,0.8
		c0.8,0,1.5-0.5,1.4-0.9c0,0.5,0.8,0.8,1.7,0.7C219,184.8,219.5,184.2,219.4,183.8z"/>
	<path class="st15" d="M213.5,184.3c0,0.5,0.7,0.9,1.5,0.8c0.8,0,1.5-0.5,1.4-0.9c0,0.5,0.8,0.8,1.7,0.7c0.8-0.1,1.4-0.6,1.3-1
		c-0.1-0.4-0.1-0.7-0.2-1.1c-0.1-0.3-0.2-0.5-0.4-0.7c0.1-0.1,0.1-0.3,0.1-0.4l0,0c-1.1,0.4-2.8,0.6-4.8-0.3
		c-3-1.4-1.7-9.1-1.3-11.3c-1.5,0.3-2.8,1.6-3,3.2c0,0.4-0.1,0.7-0.2,1.1c0,0.2,0,0.3,0.1,0.5c-0.1,0.3-0.2,0.6-0.3,0.9
		c-0.1,0.4-0.1,0.7-0.2,1.1c0,0.2,0,0.3,0.1,0.5c-0.2,0.3-0.3,0.6-0.4,0.8c-0.1,0.4-0.2,0.7-0.3,1.1c0,0.2,0,0.3,0.1,0.5
		c-0.2,0.3-0.3,0.6-0.4,0.8c-0.1,0.4-0.2,0.7-0.3,1.1c0,0.1,0,0.3,0.1,0.4c-0.2,0.2-0.3,0.5-0.4,0.7c-0.1,0.4-0.1,0.7-0.2,1.1
		c-0.1,0.4,0.5,0.9,1.3,1c0.9,0.1,1.7-0.2,1.7-0.7c0,0.5,0.6,0.9,1.4,0.9C212.8,185.2,213.5,184.8,213.5,184.3z"/>
</g>
<g>
	<path class="st14" d="M227.9,181.2c-0.1-0.4-0.1-0.7-0.2-1.1c-0.1-0.3-0.2-0.5-0.4-0.7c0.1-0.1,0.1-0.3,0.1-0.4
		c-0.1-0.4-0.2-0.7-0.3-1.1c-0.1-0.3-0.2-0.6-0.4-0.8c0.1-0.1,0.1-0.3,0.1-0.5c-0.1-0.4-0.2-0.7-0.3-1.1c-0.1-0.3-0.2-0.6-0.4-0.8
		c0.1-0.1,0.1-0.3,0.1-0.5c-0.1-0.4-0.1-0.7-0.2-1.1c-0.1-0.3-0.2-0.6-0.3-0.9c0.1-0.1,0.1-0.3,0.1-0.5c0-0.4-0.1-0.7-0.2-1.1
		c-0.3-1.8-1.7-3.3-3.7-3.3l0,0c-1.9,0-3.4,1.5-3.7,3.3c0,0.4-0.1,0.7-0.2,1.1c0,0.2,0,0.3,0.1,0.5c-0.1,0.3-0.2,0.6-0.3,0.9
		c-0.1,0.4-0.1,0.7-0.2,1.1c0,0.2,0,0.3,0.1,0.5c-0.2,0.3-0.3,0.6-0.4,0.8c-0.1,0.4-0.2,0.7-0.3,1.1c0,0.2,0,0.3,0.1,0.5
		c-0.2,0.3-0.3,0.6-0.4,0.8c-0.1,0.4-0.2,0.7-0.3,1.1c0,0.1,0,0.3,0.1,0.4c-0.2,0.2-0.3,0.5-0.4,0.7c-0.1,0.4-0.1,0.7-0.2,1.1
		c-0.1,0.4,0.5,0.9,1.3,1c0.9,0.1,1.7-0.2,1.7-0.7c0,0.5,0.6,0.9,1.4,0.9c0.8,0,1.5-0.4,1.5-0.8c0,0.5,0.7,0.9,1.5,0.8
		c0.8,0,1.5-0.5,1.4-0.9c0,0.5,0.8,0.8,1.7,0.7C227.4,182.1,228,181.7,227.9,181.2z"/>
	<path class="st15" d="M222,181.7c0,0.5,0.7,0.9,1.5,0.8c0.8,0,1.5-0.5,1.4-0.9c0,0.5,0.8,0.8,1.7,0.7c0.8-0.1,1.4-0.6,1.3-1
		c-0.1-0.4-0.1-0.7-0.2-1.1c-0.1-0.3-0.2-0.5-0.4-0.7c0.1-0.1,0.1-0.3,0.1-0.4l0,0c-1.1,0.4-2.8,0.6-4.8-0.3
		c-3-1.4-1.7-9.1-1.3-11.3c-1.5,0.3-2.8,1.6-3,3.2c0,0.4-0.1,0.7-0.2,1.1c0,0.2,0,0.3,0.1,0.5c-0.1,0.3-0.2,0.6-0.3,0.9
		c-0.1,0.4-0.1,0.7-0.2,1.1c0,0.2,0,0.3,0.1,0.5c-0.2,0.3-0.3,0.6-0.4,0.8c-0.1,0.4-0.2,0.7-0.3,1.1c0,0.2,0,0.3,0.1,0.5
		c-0.2,0.3-0.3,0.6-0.4,0.8c-0.1,0.4-0.2,0.7-0.3,1.1c0,0.1,0,0.3,0.1,0.4c-0.2,0.2-0.3,0.5-0.4,0.7c-0.1,0.4-0.1,0.7-0.2,1.1
		c-0.1,0.4,0.5,0.9,1.3,1c0.9,0.1,1.7-0.2,1.7-0.7c0,0.5,0.6,0.9,1.4,0.9C221.3,182.6,222,182.2,222,181.7z"/>
</g>
<g>
	<path class="st14" d="M171.3,182.7c-0.1-0.4-0.1-0.7-0.2-1.1c-0.1-0.3-0.2-0.5-0.4-0.7c0.1-0.1,0.1-0.3,0.1-0.4
		c-0.1-0.4-0.2-0.7-0.3-1.1c-0.1-0.3-0.2-0.6-0.4-0.8c0.1-0.1,0.1-0.3,0.1-0.5c-0.1-0.4-0.2-0.7-0.3-1.1c-0.1-0.3-0.2-0.6-0.4-0.8
		c0.1-0.1,0.1-0.3,0.1-0.5c-0.1-0.4-0.1-0.7-0.2-1.1c-0.1-0.3-0.2-0.6-0.3-0.9c0.1-0.1,0.1-0.3,0.1-0.5c0-0.4-0.1-0.7-0.2-1.1
		c-0.3-1.8-1.7-3.3-3.7-3.3l0,0c-1.9,0-3.4,1.5-3.7,3.3c0,0.4-0.1,0.7-0.2,1.1c0,0.2,0,0.3,0.1,0.5c-0.1,0.3-0.2,0.6-0.3,0.9
		c-0.1,0.4-0.1,0.7-0.2,1.1c0,0.2,0,0.3,0.1,0.5c-0.2,0.3-0.3,0.6-0.4,0.8c-0.1,0.4-0.2,0.7-0.3,1.1c0,0.2,0,0.3,0.1,0.5
		c-0.2,0.3-0.3,0.6-0.4,0.8c-0.1,0.4-0.2,0.7-0.3,1.1c0,0.1,0,0.3,0.1,0.4c-0.2,0.2-0.3,0.5-0.4,0.7c-0.1,0.4-0.1,0.7-0.2,1.1
		c-0.1,0.4,0.5,0.9,1.3,1c0.9,0.1,1.7-0.2,1.7-0.7c0,0.5,0.6,0.9,1.4,0.9c0.8,0,1.5-0.4,1.5-0.8c0,0.5,0.7,0.9,1.5,0.8
		c0.8,0,1.5-0.5,1.4-0.9c0,0.5,0.8,0.8,1.7,0.7C170.8,183.6,171.3,183.2,171.3,182.7z"/>
	<path class="st15" d="M165.3,183.2c0,0.5,0.7,0.9,1.5,0.8c0.8,0,1.5-0.5,1.4-0.9c0,0.5,0.8,0.8,1.7,0.7c0.8-0.1,1.4-0.6,1.3-1
		c-0.1-0.4-0.1-0.7-0.2-1.1c-0.1-0.3-0.2-0.5-0.4-0.7c0.1-0.1,0.1-0.3,0.1-0.4l0,0c-1.1,0.4-2.8,0.6-4.8-0.3
		c-3-1.4-1.7-9.1-1.3-11.3c-1.5,0.3-2.8,1.6-3,3.2c0,0.4-0.1,0.7-0.2,1.1c0,0.2,0,0.3,0.1,0.5c-0.1,0.3-0.2,0.6-0.3,0.9
		c-0.1,0.4-0.1,0.7-0.2,1.1c0,0.2,0,0.3,0.1,0.5c-0.2,0.3-0.3,0.6-0.4,0.8c-0.1,0.4-0.2,0.7-0.3,1.1c0,0.2,0,0.3,0.1,0.5
		c-0.2,0.3-0.3,0.6-0.4,0.8c-0.1,0.4-0.2,0.7-0.3,1.1c0,0.1,0,0.3,0.1,0.4c-0.2,0.2-0.3,0.5-0.4,0.7c-0.1,0.4-0.1,0.7-0.2,1.1
		c-0.1,0.4,0.5,0.9,1.3,1c0.9,0.1,1.7-0.2,1.7-0.7c0,0.5,0.6,0.9,1.4,0.9C164.7,184.1,165.3,183.7,165.3,183.2z"/>
</g>
<g>
	<path class="st14" d="M58.9,180c-0.1-0.4-0.1-0.7-0.2-1.1c-0.1-0.3-0.2-0.5-0.4-0.7c0.1-0.1,0.1-0.3,0.1-0.4
		c-0.1-0.4-0.2-0.7-0.3-1.1c-0.1-0.3-0.2-0.6-0.4-0.8c0.1-0.1,0.1-0.3,0.1-0.5c-0.1-0.4-0.2-0.7-0.3-1.1c-0.1-0.3-0.2-0.6-0.4-0.8
		c0.1-0.1,0.1-0.3,0.1-0.5c-0.1-0.4-0.1-0.7-0.2-1.1c-0.1-0.3-0.2-0.6-0.3-0.9c0.1-0.1,0.1-0.3,0.1-0.5c0-0.4-0.1-0.7-0.2-1.1
		c-0.3-1.8-1.7-3.3-3.7-3.3l0,0c-1.9,0-3.4,1.5-3.7,3.3c0,0.4-0.1,0.7-0.2,1.1c0,0.2,0,0.3,0.1,0.5c-0.1,0.3-0.2,0.6-0.3,0.9
		c-0.1,0.4-0.1,0.7-0.2,1.1c0,0.2,0,0.3,0.1,0.5c-0.2,0.3-0.3,0.6-0.4,0.8c-0.1,0.4-0.2,0.7-0.3,1.1c0,0.2,0,0.3,0.1,0.5
		c-0.2,0.3-0.3,0.6-0.4,0.8c-0.1,0.4-0.2,0.7-0.3,1.1c0,0.1,0,0.3,0.1,0.4c-0.2,0.2-0.3,0.5-0.4,0.7c-0.1,0.4-0.1,0.7-0.2,1.1
		c-0.1,0.4,0.5,0.9,1.3,1c0.9,0.1,1.7-0.2,1.7-0.7c0,0.5,0.6,0.9,1.4,0.9c0.8,0,1.5-0.4,1.5-0.8c0,0.5,0.7,0.9,1.5,0.8
		c0.8,0,1.5-0.5,1.4-0.9c0,0.5,0.8,0.8,1.7,0.7C58.4,181,59,180.5,58.9,180z"/>
	<path class="st15" d="M52.9,180.5c0,0.5,0.7,0.9,1.5,0.8c0.8,0,1.5-0.5,1.4-0.9c0,0.5,0.8,0.8,1.7,0.7c0.8-0.1,1.4-0.6,1.3-1
		c-0.1-0.4-0.1-0.7-0.2-1.1c-0.1-0.3-0.2-0.5-0.4-0.7c0.1-0.1,0.1-0.3,0.1-0.4l0,0c-1.1,0.4-2.8,0.6-4.8-0.3
		c-3-1.4-1.7-9.1-1.3-11.3c-1.5,0.3-2.8,1.6-3,3.2c0,0.4-0.1,0.7-0.2,1.1c0,0.2,0,0.3,0.1,0.5c-0.1,0.3-0.2,0.6-0.3,0.9
		c-0.1,0.4-0.1,0.7-0.2,1.1c0,0.2,0,0.3,0.1,0.5c-0.2,0.3-0.3,0.6-0.4,0.8c-0.1,0.4-0.2,0.7-0.3,1.1c0,0.2,0,0.3,0.1,0.5
		c-0.2,0.3-0.3,0.6-0.4,0.8c-0.1,0.4-0.2,0.7-0.3,1.1c0,0.1,0,0.3,0.1,0.4c-0.2,0.2-0.3,0.5-0.4,0.7c-0.1,0.4-0.1,0.7-0.2,1.1
		c-0.1,0.4,0.5,0.9,1.3,1c0.9,0.1,1.7-0.2,1.7-0.7c0,0.5,0.6,0.9,1.4,0.9C52.3,181.4,52.9,181,52.9,180.5z"/>
</g>
<g>
	<path class="st14" d="M67.3,180.1c-0.1-0.4-0.1-0.7-0.2-1.1c-0.1-0.3-0.2-0.5-0.4-0.7c0.1-0.1,0.1-0.3,0.1-0.4
		c-0.1-0.4-0.2-0.7-0.3-1.1c-0.1-0.3-0.2-0.6-0.4-0.8c0.1-0.1,0.1-0.3,0.1-0.5c-0.1-0.4-0.2-0.7-0.3-1.1c-0.1-0.3-0.2-0.6-0.4-0.8
		c0.1-0.1,0.1-0.3,0.1-0.5c-0.1-0.4-0.1-0.7-0.2-1.1c-0.1-0.3-0.2-0.6-0.3-0.9c0.1-0.1,0.1-0.3,0.1-0.5c0-0.4-0.1-0.7-0.2-1.1
		c-0.3-1.8-1.7-3.3-3.7-3.3l0,0c-1.9,0-3.4,1.5-3.7,3.3c0,0.4-0.1,0.7-0.2,1.1c0,0.2,0,0.3,0.1,0.5c-0.1,0.3-0.2,0.6-0.3,0.9
		c-0.1,0.4-0.1,0.7-0.2,1.1c0,0.2,0,0.3,0.1,0.5c-0.2,0.3-0.3,0.6-0.4,0.8c-0.1,0.4-0.2,0.7-0.3,1.1c0,0.2,0,0.3,0.1,0.5
		c-0.2,0.3-0.3,0.6-0.4,0.8c-0.1,0.4-0.2,0.7-0.3,1.1c0,0.1,0,0.3,0.1,0.4c-0.2,0.2-0.3,0.5-0.4,0.7c-0.1,0.4-0.1,0.7-0.2,1.1
		c-0.1,0.4,0.5,0.9,1.3,1c0.9,0.1,1.7-0.2,1.7-0.7c0,0.5,0.6,0.9,1.4,0.9c0.8,0,1.5-0.4,1.5-0.8c0,0.5,0.7,0.9,1.5,0.8
		c0.8,0,1.5-0.5,1.4-0.9c0,0.5,0.8,0.8,1.7,0.7C66.8,181.1,67.4,180.5,67.3,180.1z"/>
	<path class="st15" d="M61.4,180.6c0,0.5,0.7,0.9,1.5,0.8c0.8,0,1.5-0.5,1.4-0.9c0,0.5,0.8,0.8,1.7,0.7c0.8-0.1,1.4-0.6,1.3-1
		s-0.1-0.7-0.2-1.1c-0.1-0.3-0.2-0.5-0.4-0.7c0.1-0.1,0.1-0.3,0.1-0.4l0,0c-1.1,0.4-2.8,0.6-4.8-0.3c-3-1.4-1.7-9.1-1.3-11.3
		c-1.5,0.3-2.8,1.6-3,3.2c0,0.4-0.1,0.7-0.2,1.1c0,0.2,0,0.3,0.1,0.5c-0.1,0.3-0.2,0.6-0.3,0.9c-0.1,0.4-0.1,0.7-0.2,1.1
		c0,0.2,0,0.3,0.1,0.5c-0.2,0.3-0.3,0.6-0.4,0.8c-0.1,0.4-0.2,0.7-0.3,1.1c0,0.2,0,0.3,0.1,0.5c-0.2,0.3-0.3,0.6-0.4,0.8
		c-0.1,0.4-0.2,0.7-0.3,1.1c0,0.1,0,0.3,0.1,0.4c-0.2,0.2-0.3,0.5-0.4,0.7c-0.1,0.4-0.1,0.7-0.2,1.1c-0.1,0.4,0.5,0.9,1.3,1
		c0.9,0.1,1.7-0.2,1.7-0.7c0,0.5,0.6,0.9,1.4,0.9C60.7,181.5,61.4,181.1,61.4,180.6z"/>
</g>
<g>
	<path class="st14" d="M84.4,180.5c-0.1-0.4-0.1-0.7-0.2-1.1c-0.1-0.3-0.2-0.5-0.4-0.7c0.1-0.1,0.1-0.3,0.1-0.4
		c-0.1-0.4-0.2-0.7-0.3-1.1c-0.1-0.3-0.2-0.6-0.4-0.8c0.1-0.1,0.1-0.3,0.1-0.5c-0.1-0.4-0.2-0.7-0.3-1.1c-0.1-0.3-0.2-0.6-0.4-0.8
		c0.1-0.1,0.1-0.3,0.1-0.5c-0.1-0.4-0.1-0.7-0.2-1.1c-0.1-0.3-0.2-0.6-0.3-0.9c0.1-0.1,0.1-0.3,0.1-0.5c0-0.4-0.1-0.7-0.2-1.1
		c-0.3-1.8-1.7-3.3-3.7-3.3l0,0c-1.9,0-3.4,1.5-3.7,3.3c0,0.4-0.1,0.7-0.2,1.1c0,0.2,0,0.3,0.1,0.5c-0.1,0.3-0.2,0.6-0.3,0.9
		c-0.1,0.4-0.1,0.7-0.2,1.1c0,0.2,0,0.3,0.1,0.5c-0.2,0.3-0.3,0.6-0.4,0.8c-0.1,0.4-0.2,0.7-0.3,1.1c0,0.2,0,0.3,0.1,0.5
		c-0.2,0.3-0.3,0.6-0.4,0.8c-0.1,0.4-0.2,0.7-0.3,1.1c0,0.1,0,0.3,0.1,0.4c-0.2,0.2-0.3,0.5-0.4,0.7c-0.1,0.4-0.1,0.7-0.2,1.1
		c-0.1,0.4,0.5,0.9,1.3,1c0.9,0.1,1.7-0.2,1.7-0.7c0,0.5,0.6,0.9,1.4,0.9s1.5-0.4,1.5-0.8c0,0.5,0.7,0.9,1.5,0.8
		c0.8,0,1.5-0.5,1.4-0.9c0,0.5,0.8,0.8,1.7,0.7C83.9,181.4,84.5,180.9,84.4,180.5z"/>
	<path class="st15" d="M78.5,181c0,0.5,0.7,0.9,1.5,0.8c0.8,0,1.5-0.5,1.4-0.9c0,0.5,0.8,0.8,1.7,0.7c0.8-0.1,1.4-0.6,1.3-1
		s-0.1-0.7-0.2-1.1c-0.1-0.3-0.2-0.5-0.4-0.7c0.1-0.1,0.1-0.3,0.1-0.4l0,0c-1.1,0.4-2.8,0.6-4.8-0.3c-3-1.4-1.7-9.1-1.3-11.3
		c-1.5,0.3-2.8,1.6-3,3.2c0,0.4-0.1,0.7-0.2,1.1c0,0.2,0,0.3,0.1,0.5c-0.1,0.3-0.2,0.6-0.3,0.9c-0.1,0.4-0.1,0.7-0.2,1.1
		c0,0.2,0,0.3,0.1,0.5c-0.2,0.3-0.3,0.6-0.4,0.8c-0.1,0.4-0.2,0.7-0.3,1.1c0,0.2,0,0.3,0.1,0.5c-0.2,0.3-0.3,0.6-0.4,0.8
		c-0.1,0.4-0.2,0.7-0.3,1.1c0,0.1,0,0.3,0.1,0.4c-0.2,0.2-0.3,0.5-0.4,0.7c-0.1,0.4-0.1,0.7-0.2,1.1c-0.1,0.4,0.5,0.9,1.3,1
		c0.9,0.1,1.7-0.2,1.7-0.7c0,0.5,0.6,0.9,1.4,0.9C77.8,181.9,78.5,181.4,78.5,181z"/>
</g>
<g>
	<path class="st14" d="M93.8,181.7c-0.1-0.4-0.1-0.7-0.2-1.1c-0.1-0.3-0.2-0.5-0.4-0.7c0.1-0.1,0.1-0.3,0.1-0.4
		c-0.1-0.4-0.2-0.7-0.3-1.1c-0.1-0.3-0.2-0.6-0.4-0.8c0.1-0.1,0.1-0.3,0.1-0.5c-0.1-0.4-0.2-0.7-0.3-1.1c-0.1-0.3-0.2-0.6-0.4-0.8
		c0.1-0.1,0.1-0.3,0.1-0.5c-0.1-0.4-0.1-0.7-0.2-1.1c-0.1-0.3-0.2-0.6-0.3-0.9c0.1-0.1,0.1-0.3,0.1-0.5c0-0.4-0.1-0.7-0.2-1.1
		c-0.3-1.8-1.7-3.3-3.7-3.3l0,0c-1.9,0-3.4,1.5-3.7,3.3c0,0.4-0.1,0.7-0.2,1.1c0,0.2,0,0.3,0.1,0.5c-0.1,0.3-0.2,0.6-0.3,0.9
		c-0.1,0.4-0.1,0.7-0.2,1.1c0,0.2,0,0.3,0.1,0.5c-0.2,0.3-0.3,0.6-0.4,0.8c-0.1,0.4-0.2,0.7-0.3,1.1c0,0.2,0,0.3,0.1,0.5
		c-0.2,0.3-0.3,0.6-0.4,0.8c-0.1,0.4-0.2,0.7-0.3,1.1c0,0.1,0,0.3,0.1,0.4c-0.2,0.2-0.3,0.5-0.4,0.7c-0.1,0.4-0.1,0.7-0.2,1.1
		c-0.1,0.4,0.5,0.9,1.3,1c0.9,0.1,1.7-0.2,1.7-0.7c0,0.5,0.6,0.9,1.4,0.9s1.5-0.4,1.5-0.8c0,0.5,0.7,0.9,1.5,0.8
		c0.8,0,1.5-0.5,1.4-0.9c0,0.5,0.8,0.8,1.7,0.7C93.3,182.6,93.9,182.1,93.8,181.7z"/>
	<path class="st15" d="M87.8,182.2c0,0.5,0.7,0.9,1.5,0.8s1.5-0.5,1.4-0.9c0,0.5,0.8,0.8,1.7,0.7c0.8-0.1,1.4-0.6,1.3-1
		s-0.1-0.7-0.2-1.1c-0.1-0.3-0.2-0.5-0.4-0.7c0.1-0.1,0.1-0.3,0.1-0.4l0,0c-1.1,0.4-2.8,0.6-4.8-0.3c-3-1.4-1.7-9.1-1.3-11.3
		c-1.5,0.3-2.8,1.6-3,3.2c0,0.4-0.1,0.7-0.2,1.1c0,0.2,0,0.3,0.1,0.5c-0.1,0.3-0.2,0.6-0.3,0.9c-0.1,0.4-0.1,0.7-0.2,1.1
		c0,0.2,0,0.3,0.1,0.5c-0.2,0.3-0.3,0.6-0.4,0.8c-0.1,0.4-0.2,0.7-0.3,1.1c0,0.2,0,0.3,0.1,0.5c-0.2,0.3-0.3,0.6-0.4,0.8
		c-0.1,0.4-0.2,0.7-0.3,1.1c0,0.1,0,0.3,0.1,0.4c-0.2,0.2-0.3,0.5-0.4,0.7c-0.1,0.4-0.1,0.7-0.2,1.1c-0.1,0.4,0.5,0.9,1.3,1
		c0.9,0.1,1.7-0.2,1.7-0.7c0,0.5,0.6,0.9,1.4,0.9C87.2,183.1,87.8,182.7,87.8,182.2z"/>
</g>
<g>
	<path class="st14" d="M100.2,184c-0.1-0.4-0.1-0.7-0.2-1.1c-0.1-0.3-0.2-0.5-0.4-0.7c0.1-0.1,0.1-0.3,0.1-0.4
		c-0.1-0.4-0.2-0.7-0.3-1.1c-0.1-0.3-0.2-0.6-0.4-0.8c0.1-0.1,0.1-0.3,0.1-0.5c-0.1-0.4-0.2-0.7-0.3-1.1c-0.1-0.3-0.2-0.6-0.4-0.8
		c0.1-0.1,0.1-0.3,0.1-0.5c-0.1-0.4-0.1-0.7-0.2-1.1c-0.1-0.3-0.2-0.6-0.3-0.9c0.1-0.1,0.1-0.3,0.1-0.5c0-0.4-0.1-0.7-0.2-1.1
		c-0.3-1.8-1.7-3.3-3.7-3.3l0,0c-1.9,0-3.4,1.5-3.7,3.3c0,0.4-0.1,0.7-0.2,1.1c0,0.2,0,0.3,0.1,0.5c-0.1,0.3-0.2,0.6-0.3,0.9
		c-0.1,0.4-0.1,0.7-0.2,1.1c0,0.2,0,0.3,0.1,0.5c-0.2,0.3-0.3,0.6-0.4,0.8c-0.1,0.4-0.2,0.7-0.3,1.1c0,0.2,0,0.3,0.1,0.5
		c-0.2,0.3-0.3,0.6-0.4,0.8c-0.1,0.4-0.2,0.7-0.3,1.1c0,0.1,0,0.3,0.1,0.4c-0.2,0.2-0.3,0.5-0.4,0.7c-0.1,0.4-0.1,0.7-0.2,1.1
		c-0.1,0.4,0.5,0.9,1.3,1c0.9,0.1,1.7-0.2,1.7-0.7c0,0.5,0.6,0.9,1.4,0.9s1.5-0.4,1.5-0.8c0,0.5,0.7,0.9,1.5,0.8
		c0.8,0,1.5-0.5,1.4-0.9c0,0.5,0.8,0.8,1.7,0.7C99.8,184.9,100.3,184.4,100.2,184z"/>
	<path class="st15" d="M94.3,184.5c0,0.5,0.7,0.9,1.5,0.8c0.8,0,1.5-0.5,1.4-0.9c0,0.5,0.8,0.8,1.7,0.7c0.8-0.1,1.4-0.6,1.3-1
		s-0.1-0.7-0.2-1.1c-0.1-0.3-0.2-0.5-0.4-0.7c0.1-0.1,0.1-0.3,0.1-0.4l0,0c-1.1,0.4-2.8,0.6-4.8-0.3c-3-1.4-1.7-9.1-1.3-11.3
		c-1.5,0.3-2.8,1.6-3,3.2c0,0.4-0.1,0.7-0.2,1.1c0,0.2,0,0.3,0.1,0.5c-0.1,0.3-0.2,0.6-0.3,0.9c-0.1,0.4-0.1,0.7-0.2,1.1
		c0,0.2,0,0.3,0.1,0.5c-0.2,0.3-0.3,0.6-0.4,0.8c-0.1,0.4-0.2,0.7-0.3,1.1c0,0.2,0,0.3,0.1,0.5c-0.2,0.3-0.3,0.6-0.4,0.8
		c-0.1,0.4-0.2,0.7-0.3,1.1c0,0.1,0,0.3,0.1,0.4c-0.2,0.2-0.3,0.5-0.4,0.7c-0.1,0.4-0.1,0.7-0.2,1.1c-0.1,0.4,0.5,0.9,1.3,1
		c0.9,0.1,1.7-0.2,1.7-0.7c0,0.5,0.6,0.9,1.4,0.9C93.6,185.4,94.3,184.9,94.3,184.5z"/>
</g>
<g>
	<path class="st14" d="M107.3,185c-0.1-0.4-0.1-0.7-0.2-1.1c-0.1-0.3-0.2-0.5-0.4-0.7c0.1-0.1,0.1-0.3,0.1-0.4
		c-0.1-0.4-0.2-0.7-0.3-1.1c-0.1-0.3-0.2-0.6-0.4-0.8c0.1-0.1,0.1-0.3,0.1-0.5c-0.1-0.4-0.2-0.7-0.3-1.1c-0.1-0.3-0.2-0.6-0.4-0.8
		c0.1-0.1,0.1-0.3,0.1-0.5c-0.1-0.4-0.1-0.7-0.2-1.1c-0.1-0.3-0.2-0.6-0.3-0.9c0.1-0.1,0.1-0.3,0.1-0.5c0-0.4-0.1-0.7-0.2-1.1
		c-0.3-1.8-1.7-3.3-3.7-3.3l0,0c-1.9,0-3.4,1.5-3.7,3.3c0,0.4-0.1,0.7-0.2,1.1c0,0.2,0,0.3,0.1,0.5c-0.1,0.3-0.2,0.6-0.3,0.9
		c-0.1,0.4-0.1,0.7-0.2,1.1c0,0.2,0,0.3,0.1,0.5c-0.2,0.3-0.3,0.6-0.4,0.8c-0.1,0.4-0.2,0.7-0.3,1.1c0,0.2,0,0.3,0.1,0.5
		c-0.2,0.3-0.3,0.6-0.4,0.8c-0.1,0.4-0.2,0.7-0.3,1.1c0,0.1,0,0.3,0.1,0.4c-0.2,0.2-0.3,0.5-0.4,0.7c-0.1,0.4-0.1,0.7-0.2,1.1
		c-0.1,0.4,0.5,0.9,1.3,1c0.9,0.1,1.7-0.2,1.7-0.7c0,0.5,0.6,0.9,1.4,0.9s1.5-0.4,1.5-0.8c0,0.5,0.7,0.9,1.5,0.8
		c0.8,0,1.5-0.5,1.4-0.9c0,0.5,0.8,0.8,1.7,0.7C106.9,185.9,107.4,185.5,107.3,185z"/>
	<path class="st15" d="M101.4,185.5c0,0.5,0.7,0.9,1.5,0.8c0.8,0,1.5-0.5,1.4-0.9c0,0.5,0.8,0.8,1.7,0.7c0.8-0.1,1.4-0.6,1.3-1
		s-0.1-0.7-0.2-1.1c-0.1-0.3-0.2-0.5-0.4-0.7c0.1-0.1,0.1-0.3,0.1-0.4l0,0c-1.1,0.4-2.8,0.6-4.8-0.3c-3-1.4-1.7-9.1-1.3-11.3
		c-1.5,0.3-2.8,1.6-3,3.2c0,0.4-0.1,0.7-0.2,1.1c0,0.2,0,0.3,0.1,0.5c-0.1,0.3-0.2,0.6-0.3,0.9c-0.1,0.4-0.1,0.7-0.2,1.1
		c0,0.2,0,0.3,0.1,0.5c-0.2,0.3-0.3,0.6-0.4,0.8c-0.1,0.4-0.2,0.7-0.3,1.1c0,0.2,0,0.3,0.1,0.5c-0.2,0.3-0.3,0.6-0.4,0.8
		c-0.1,0.4-0.2,0.7-0.3,1.1c0,0.1,0,0.3,0.1,0.4c-0.2,0.2-0.3,0.5-0.4,0.7c-0.1,0.4-0.1,0.7-0.2,1.1c-0.1,0.4,0.5,0.9,1.3,1
		c0.9,0.1,1.7-0.2,1.7-0.7c0,0.5,0.6,0.9,1.4,0.9C100.7,186.4,101.4,186,101.4,185.5z"/>
</g>
<g>
	<path class="st14" d="M115.3,182.9c-0.1-0.4-0.1-0.7-0.2-1.1c-0.1-0.3-0.2-0.5-0.4-0.7c0.1-0.1,0.1-0.3,0.1-0.4
		c-0.1-0.4-0.2-0.7-0.3-1.1c-0.1-0.3-0.2-0.6-0.4-0.8c0.1-0.1,0.1-0.3,0.1-0.5c-0.1-0.4-0.2-0.7-0.3-1.1c-0.1-0.3-0.2-0.6-0.4-0.8
		c0.1-0.1,0.1-0.3,0.1-0.5c-0.1-0.4-0.1-0.7-0.2-1.1c-0.1-0.3-0.2-0.6-0.3-0.9c0.1-0.1,0.1-0.3,0.1-0.5c0-0.4-0.1-0.7-0.2-1.1
		c-0.3-1.8-1.7-3.3-3.7-3.3l0,0c-1.9,0-3.4,1.5-3.7,3.3c0,0.4-0.1,0.7-0.2,1.1c0,0.2,0,0.3,0.1,0.5c-0.1,0.3-0.2,0.6-0.3,0.9
		c-0.1,0.4-0.1,0.7-0.2,1.1c0,0.2,0,0.3,0.1,0.5c-0.2,0.3-0.3,0.6-0.4,0.8c-0.1,0.4-0.2,0.7-0.3,1.1c0,0.2,0,0.3,0.1,0.5
		c-0.2,0.3-0.3,0.6-0.4,0.8c-0.1,0.4-0.2,0.7-0.3,1.1c0,0.1,0,0.3,0.1,0.4c-0.2,0.2-0.3,0.5-0.4,0.7c-0.1,0.4-0.1,0.7-0.2,1.1
		c-0.1,0.4,0.5,0.9,1.3,1c0.9,0.1,1.7-0.2,1.7-0.7c0,0.5,0.6,0.9,1.4,0.9s1.5-0.4,1.5-0.8c0,0.5,0.7,0.9,1.5,0.8s1.5-0.5,1.4-0.9
		c0,0.5,0.8,0.8,1.7,0.7C114.8,183.8,115.4,183.4,115.3,182.9z"/>
	<path class="st15" d="M109.4,183.4c0,0.5,0.7,0.9,1.5,0.8c0.8,0,1.5-0.5,1.4-0.9c0,0.5,0.8,0.8,1.7,0.7c0.8-0.1,1.4-0.6,1.3-1
		s-0.1-0.7-0.2-1.1c-0.1-0.3-0.2-0.5-0.4-0.7c0.1-0.1,0.1-0.3,0.1-0.4l0,0c-1.1,0.4-2.8,0.6-4.8-0.3c-3-1.4-1.7-9.1-1.3-11.3
		c-1.5,0.3-2.8,1.6-3,3.2c0,0.4-0.1,0.7-0.2,1.1c0,0.2,0,0.3,0.1,0.5c-0.1,0.3-0.2,0.6-0.3,0.9c-0.1,0.4-0.1,0.7-0.2,1.1
		c0,0.2,0,0.3,0.1,0.5c-0.2,0.3-0.3,0.6-0.4,0.8c-0.1,0.4-0.2,0.7-0.3,1.1c0,0.2,0,0.3,0.1,0.5c-0.2,0.3-0.3,0.6-0.4,0.8
		c-0.1,0.4-0.2,0.7-0.3,1.1c0,0.1,0,0.3,0.1,0.4c-0.2,0.2-0.3,0.5-0.4,0.7c-0.1,0.4-0.1,0.7-0.2,1.1c-0.1,0.4,0.5,0.9,1.3,1
		c0.9,0.1,1.7-0.2,1.7-0.7c0,0.5,0.6,0.9,1.4,0.9C108.7,184.2,109.4,183.9,109.4,183.4z"/>
</g>
<g>
	<path class="st14" d="M123.9,183.8c-0.1-0.4-0.1-0.7-0.2-1.1c-0.1-0.3-0.2-0.5-0.4-0.7c0.1-0.1,0.1-0.3,0.1-0.4
		c-0.1-0.4-0.2-0.7-0.3-1.1c-0.1-0.3-0.2-0.6-0.4-0.8c0.1-0.1,0.1-0.3,0.1-0.5c-0.1-0.4-0.2-0.7-0.3-1.1c-0.1-0.3-0.2-0.6-0.4-0.8
		c0.1-0.1,0.1-0.3,0.1-0.5c-0.1-0.4-0.1-0.7-0.2-1.1c-0.1-0.3-0.2-0.6-0.3-0.9c0.1-0.1,0.1-0.3,0.1-0.5c0-0.4-0.1-0.7-0.2-1.1
		c-0.3-1.8-1.7-3.3-3.7-3.3l0,0c-1.9,0-3.4,1.5-3.7,3.3c0,0.4-0.1,0.7-0.2,1.1c0,0.2,0,0.3,0.1,0.5c-0.1,0.3-0.2,0.6-0.3,0.9
		c-0.1,0.4-0.1,0.7-0.2,1.1c0,0.2,0,0.3,0.1,0.5c-0.2,0.3-0.3,0.6-0.4,0.8c-0.1,0.4-0.2,0.7-0.3,1.1c0,0.2,0,0.3,0.1,0.5
		c-0.2,0.3-0.3,0.6-0.4,0.8c-0.1,0.4-0.2,0.7-0.3,1.1c0,0.1,0,0.3,0.1,0.4c-0.2,0.2-0.3,0.5-0.4,0.7c-0.1,0.4-0.1,0.7-0.2,1.1
		c-0.1,0.4,0.5,0.9,1.3,1c0.9,0.1,1.7-0.2,1.7-0.7c0,0.5,0.6,0.9,1.4,0.9s1.5-0.4,1.5-0.8c0,0.5,0.7,0.9,1.5,0.8
		c0.8,0,1.5-0.5,1.4-0.9c0,0.5,0.8,0.8,1.7,0.7C123.5,184.8,124,184.2,123.9,183.8z"/>
	<path class="st15" d="M118,184.3c0,0.5,0.7,0.9,1.5,0.8c0.8,0,1.5-0.5,1.4-0.9c0,0.5,0.8,0.8,1.7,0.7c0.8-0.1,1.4-0.6,1.3-1
		s-0.1-0.7-0.2-1.1c-0.1-0.3-0.2-0.5-0.4-0.7c0.1-0.1,0.1-0.3,0.1-0.4l0,0c-1.1,0.4-2.8,0.6-4.8-0.3c-3-1.4-1.7-9.1-1.3-11.3
		c-1.5,0.3-2.8,1.6-3,3.2c0,0.4-0.1,0.7-0.2,1.1c0,0.2,0,0.3,0.1,0.5c-0.1,0.3-0.2,0.6-0.3,0.9c-0.1,0.4-0.1,0.7-0.2,1.1
		c0,0.2,0,0.3,0.1,0.5c-0.2,0.3-0.3,0.6-0.4,0.8c-0.1,0.4-0.2,0.7-0.3,1.1c0,0.2,0,0.3,0.1,0.5c-0.2,0.3-0.3,0.6-0.4,0.8
		c-0.1,0.4-0.2,0.7-0.3,1.1c0,0.1,0,0.3,0.1,0.4c-0.2,0.2-0.3,0.5-0.4,0.7c-0.1,0.4-0.1,0.7-0.2,1.1c-0.1,0.4,0.5,0.9,1.3,1
		c0.9,0.1,1.7-0.2,1.7-0.7c0,0.5,0.6,0.9,1.4,0.9C117.3,185.2,118,184.8,118,184.3z"/>
</g>
<g>
	<path class="st14" d="M132.4,181.2c-0.1-0.4-0.1-0.7-0.2-1.1c-0.1-0.3-0.2-0.5-0.4-0.7c0.1-0.1,0.1-0.3,0.1-0.4
		c-0.1-0.4-0.2-0.7-0.3-1.1c-0.1-0.3-0.2-0.6-0.4-0.8c0.1-0.1,0.1-0.3,0.1-0.5c-0.1-0.4-0.2-0.7-0.3-1.1c-0.1-0.3-0.2-0.6-0.4-0.8
		c0.1-0.1,0.1-0.3,0.1-0.5c-0.1-0.4-0.1-0.7-0.2-1.1c-0.1-0.3-0.2-0.6-0.3-0.9c0.1-0.1,0.1-0.3,0.1-0.5c0-0.4-0.1-0.7-0.2-1.1
		c-0.3-1.8-1.7-3.3-3.7-3.3l0,0c-1.9,0-3.4,1.5-3.7,3.3c0,0.4-0.1,0.7-0.2,1.1c0,0.2,0,0.3,0.1,0.5c-0.1,0.3-0.2,0.6-0.3,0.9
		c-0.1,0.4-0.1,0.7-0.2,1.1c0,0.2,0,0.3,0.1,0.5c-0.2,0.3-0.3,0.6-0.4,0.8c-0.1,0.4-0.2,0.7-0.3,1.1c0,0.2,0,0.3,0.1,0.5
		c-0.2,0.3-0.3,0.6-0.4,0.8c-0.1,0.4-0.2,0.7-0.3,1.1c0,0.1,0,0.3,0.1,0.4c-0.2,0.2-0.3,0.5-0.4,0.7c-0.1,0.4-0.1,0.7-0.2,1.1
		c-0.1,0.4,0.5,0.9,1.3,1c0.9,0.1,1.7-0.2,1.7-0.7c0,0.5,0.6,0.9,1.4,0.9s1.5-0.4,1.5-0.8c0,0.5,0.7,0.9,1.5,0.8
		c0.8,0,1.5-0.5,1.4-0.9c0,0.5,0.8,0.8,1.7,0.7C131.9,182.1,132.5,181.7,132.4,181.2z"/>
	<path class="st15" d="M126.4,181.7c0,0.5,0.7,0.9,1.5,0.8c0.8,0,1.5-0.5,1.4-0.9c0,0.5,0.8,0.8,1.7,0.7c0.8-0.1,1.4-0.6,1.3-1
		c-0.1-0.4-0.1-0.7-0.2-1.1c-0.1-0.3-0.2-0.5-0.4-0.7c0.1-0.1,0.1-0.3,0.1-0.4l0,0c-1.1,0.4-2.8,0.6-4.8-0.3
		c-3-1.4-1.7-9.1-1.3-11.3c-1.5,0.3-2.8,1.6-3,3.2c0,0.4-0.1,0.7-0.2,1.1c0,0.2,0,0.3,0.1,0.5c-0.1,0.3-0.2,0.6-0.3,0.9
		c-0.1,0.4-0.1,0.7-0.2,1.1c0,0.2,0,0.3,0.1,0.5c-0.2,0.3-0.3,0.6-0.4,0.8c-0.1,0.4-0.2,0.7-0.3,1.1c0,0.2,0,0.3,0.1,0.5
		c-0.2,0.3-0.3,0.6-0.4,0.8c-0.1,0.4-0.2,0.7-0.3,1.1c0,0.1,0,0.3,0.1,0.4c-0.2,0.2-0.3,0.5-0.4,0.7c-0.1,0.4-0.1,0.7-0.2,1.1
		c-0.1,0.4,0.5,0.9,1.3,1c0.9,0.1,1.7-0.2,1.7-0.7c0,0.5,0.6,0.9,1.4,0.9C125.8,182.6,126.4,182.2,126.4,181.7z"/>
</g>
<g>
	<path class="st14" d="M141.5,181.3c-0.1-0.4-0.1-0.7-0.2-1.1c-0.1-0.3-0.2-0.5-0.4-0.7c0.1-0.1,0.1-0.3,0.1-0.4
		c-0.1-0.4-0.2-0.7-0.3-1.1c-0.1-0.3-0.2-0.6-0.4-0.8c0.1-0.1,0.1-0.3,0.1-0.5c-0.1-0.4-0.2-0.7-0.3-1.1c-0.1-0.3-0.2-0.6-0.4-0.8
		c0.1-0.1,0.1-0.3,0.1-0.5c-0.1-0.4-0.1-0.7-0.2-1.1c-0.1-0.3-0.2-0.6-0.3-0.9c0.1-0.1,0.1-0.3,0.1-0.5c0-0.4-0.1-0.7-0.2-1.1
		c-0.3-1.8-1.7-3.3-3.7-3.3l0,0c-1.9,0-3.4,1.5-3.7,3.3c0,0.4-0.1,0.7-0.2,1.1c0,0.2,0,0.3,0.1,0.5c-0.1,0.3-0.2,0.6-0.3,0.9
		c-0.1,0.4-0.1,0.7-0.2,1.1c0,0.2,0,0.3,0.1,0.5c-0.2,0.3-0.3,0.6-0.4,0.8c-0.1,0.4-0.2,0.7-0.3,1.1c0,0.2,0,0.3,0.1,0.5
		c-0.2,0.3-0.3,0.6-0.4,0.8c-0.1,0.4-0.2,0.7-0.3,1.1c0,0.1,0,0.3,0.1,0.4c-0.2,0.2-0.3,0.5-0.4,0.7c-0.1,0.4-0.1,0.7-0.2,1.1
		c-0.1,0.4,0.5,0.9,1.3,1c0.9,0.1,1.7-0.2,1.7-0.7c0,0.5,0.6,0.9,1.4,0.9c0.8,0,1.5-0.4,1.5-0.8c0,0.5,0.7,0.9,1.5,0.8
		c0.8,0,1.5-0.5,1.4-0.9c0,0.5,0.8,0.8,1.7,0.7C141.1,182.2,141.6,181.7,141.5,181.3z"/>
	<path class="st15" d="M135.6,181.8c0,0.5,0.7,0.9,1.5,0.8c0.8,0,1.5-0.5,1.4-0.9c0,0.5,0.8,0.8,1.7,0.7c0.8-0.1,1.4-0.6,1.3-1
		c-0.1-0.4-0.1-0.7-0.2-1.1c-0.1-0.3-0.2-0.5-0.4-0.7c0.1-0.1,0.1-0.3,0.1-0.4l0,0c-1.1,0.4-2.8,0.6-4.8-0.3
		c-3-1.4-1.7-9.1-1.3-11.3c-1.5,0.3-2.8,1.6-3,3.2c0,0.4-0.1,0.7-0.2,1.1c0,0.2,0,0.3,0.1,0.5c-0.1,0.3-0.2,0.6-0.3,0.9
		c-0.1,0.4-0.1,0.7-0.2,1.1c0,0.2,0,0.3,0.1,0.5c-0.2,0.3-0.3,0.6-0.4,0.8c-0.1,0.4-0.2,0.7-0.3,1.1c0,0.2,0,0.3,0.1,0.5
		c-0.2,0.3-0.3,0.6-0.4,0.8c-0.1,0.4-0.2,0.7-0.3,1.1c0,0.1,0,0.3,0.1,0.4c-0.2,0.2-0.3,0.5-0.4,0.7c-0.1,0.4-0.1,0.7-0.2,1.1
		c-0.1,0.4,0.5,0.9,1.3,1c0.9,0.1,1.7-0.2,1.7-0.7c0,0.5,0.6,0.9,1.4,0.9C134.9,182.7,135.6,182.3,135.6,181.8z"/>
</g>
<g>
	<path class="st14" d="M147.8,181.3c-0.1-0.4-0.1-0.7-0.2-1.1c-0.1-0.3-0.2-0.5-0.4-0.7c0.1-0.1,0.1-0.3,0.1-0.4
		c-0.1-0.4-0.2-0.7-0.3-1.1c-0.1-0.3-0.2-0.6-0.4-0.8c0.1-0.1,0.1-0.3,0.1-0.5c-0.1-0.4-0.2-0.7-0.3-1.1c-0.1-0.3-0.2-0.6-0.4-0.8
		c0.1-0.1,0.1-0.3,0.1-0.5c-0.1-0.4-0.1-0.7-0.2-1.1c-0.1-0.3-0.2-0.6-0.3-0.9c0.1-0.1,0.1-0.3,0.1-0.5c0-0.4-0.1-0.7-0.2-1.1
		c-0.3-1.8-1.7-3.3-3.7-3.3l0,0c-1.9,0-3.4,1.5-3.7,3.3c0,0.4-0.1,0.7-0.2,1.1c0,0.2,0,0.3,0.1,0.5c-0.1,0.3-0.2,0.6-0.3,0.9
		c-0.1,0.4-0.1,0.7-0.2,1.1c0,0.2,0,0.3,0.1,0.5c-0.2,0.3-0.3,0.6-0.4,0.8c-0.1,0.4-0.2,0.7-0.3,1.1c0,0.2,0,0.3,0.1,0.5
		c-0.2,0.3-0.3,0.6-0.4,0.8c-0.1,0.4-0.2,0.7-0.3,1.1c0,0.1,0,0.3,0.1,0.4c-0.2,0.2-0.3,0.5-0.4,0.7c-0.1,0.4-0.1,0.7-0.2,1.1
		c-0.1,0.4,0.5,0.9,1.3,1c0.9,0.1,1.7-0.2,1.7-0.7c0,0.5,0.6,0.9,1.4,0.9c0.8,0,1.5-0.4,1.5-0.8c0,0.5,0.7,0.9,1.5,0.8
		c0.8,0,1.5-0.5,1.4-0.9c0,0.5,0.8,0.8,1.7,0.7C147.3,182.2,147.8,181.7,147.8,181.3z"/>
	<path class="st15" d="M141.8,181.8c0,0.5,0.7,0.9,1.5,0.8c0.8,0,1.5-0.5,1.4-0.9c0,0.5,0.8,0.8,1.7,0.7c0.8-0.1,1.4-0.6,1.3-1
		c-0.1-0.4-0.1-0.7-0.2-1.1c-0.1-0.3-0.2-0.5-0.4-0.7c0.1-0.1,0.1-0.3,0.1-0.4l0,0c-1.1,0.4-2.8,0.6-4.8-0.3
		c-3-1.4-1.7-9.1-1.3-11.3c-1.5,0.3-2.8,1.6-3,3.2c0,0.4-0.1,0.7-0.2,1.1c0,0.2,0,0.3,0.1,0.5c-0.1,0.3-0.2,0.6-0.3,0.9
		c-0.1,0.4-0.1,0.7-0.2,1.1c0,0.2,0,0.3,0.1,0.5c-0.2,0.3-0.3,0.6-0.4,0.8c-0.1,0.4-0.2,0.7-0.3,1.1c0,0.2,0,0.3,0.1,0.5
		c-0.2,0.3-0.3,0.6-0.4,0.8c-0.1,0.4-0.2,0.7-0.3,1.1c0,0.1,0,0.3,0.1,0.4c-0.2,0.2-0.3,0.5-0.4,0.7c-0.1,0.4-0.1,0.7-0.2,1.1
		c-0.1,0.4,0.5,0.9,1.3,1c0.9,0.1,1.7-0.2,1.7-0.7c0,0.5,0.6,0.9,1.4,0.9C141.1,182.7,141.9,182.3,141.8,181.8z"/>
</g>
<g>
	<path class="st14" d="M75.7,182.7c-0.1-0.4-0.1-0.7-0.2-1.1c-0.1-0.3-0.2-0.5-0.4-0.7c0.1-0.1,0.1-0.3,0.1-0.4
		c-0.1-0.4-0.2-0.7-0.3-1.1c-0.1-0.3-0.2-0.6-0.4-0.8c0.1-0.1,0.1-0.3,0.1-0.5c-0.1-0.4-0.2-0.7-0.3-1.1c-0.1-0.3-0.2-0.6-0.4-0.8
		c0.1-0.1,0.1-0.3,0.1-0.5c-0.1-0.4-0.1-0.7-0.2-1.1c-0.1-0.3-0.2-0.6-0.3-0.9c0.1-0.1,0.1-0.3,0.1-0.5c0-0.4-0.1-0.7-0.2-1.1
		c-0.3-1.8-1.7-3.3-3.7-3.3l0,0c-1.9,0-3.4,1.5-3.7,3.3c0,0.4-0.1,0.7-0.2,1.1c0,0.2,0,0.3,0.1,0.5c-0.1,0.3-0.2,0.6-0.3,0.9
		c-0.1,0.4-0.1,0.7-0.2,1.1c0,0.2,0,0.3,0.1,0.5c-0.2,0.3-0.3,0.6-0.4,0.8c-0.1,0.4-0.2,0.7-0.3,1.1c0,0.2,0,0.3,0.1,0.5
		c-0.2,0.3-0.3,0.6-0.4,0.8c-0.1,0.4-0.2,0.7-0.3,1.1c0,0.1,0,0.3,0.1,0.4c-0.2,0.2-0.3,0.5-0.4,0.7c-0.1,0.4-0.1,0.7-0.2,1.1
		c-0.1,0.4,0.5,0.9,1.3,1c0.9,0.1,1.7-0.2,1.7-0.7c0,0.5,0.6,0.9,1.4,0.9s1.5-0.4,1.5-0.8c0,0.5,0.7,0.9,1.5,0.8
		c0.8,0,1.5-0.5,1.4-0.9c0,0.5,0.8,0.8,1.7,0.7C75.3,183.6,75.8,183.2,75.7,182.7z"/>
	<path class="st15" d="M69.8,183.2c0,0.5,0.7,0.9,1.5,0.8s1.5-0.5,1.4-0.9c0,0.5,0.8,0.8,1.7,0.7c0.8-0.1,1.4-0.6,1.3-1
		s-0.1-0.7-0.2-1.1c-0.1-0.3-0.2-0.5-0.4-0.7c0.1-0.1,0.1-0.3,0.1-0.4l0,0c-1.1,0.4-2.8,0.6-4.8-0.3c-3-1.4-1.7-9.1-1.3-11.3
		c-1.5,0.3-2.8,1.6-3,3.2c0,0.4-0.1,0.7-0.2,1.1c0,0.2,0,0.3,0.1,0.5c-0.1,0.3-0.2,0.6-0.3,0.9c-0.1,0.4-0.1,0.7-0.2,1.1
		c0,0.2,0,0.3,0.1,0.5c-0.2,0.3-0.3,0.6-0.4,0.8c-0.1,0.4-0.2,0.7-0.3,1.1c0,0.2,0,0.3,0.1,0.5c-0.2,0.3-0.3,0.6-0.4,0.8
		c-0.1,0.4-0.2,0.7-0.3,1.1c0,0.1,0,0.3,0.1,0.4c-0.2,0.2-0.3,0.5-0.4,0.7c-0.1,0.4-0.1,0.7-0.2,1.1c-0.1,0.4,0.5,0.9,1.3,1
		c0.9,0.1,1.7-0.2,1.7-0.7c0,0.5,0.6,0.9,1.4,0.9C69.1,184.1,69.8,183.7,69.8,183.2z"/>
</g>
<g>
	<path class="st14" d="M11.3,180c-0.1-0.4-0.1-0.7-0.2-1.1c-0.1-0.3-0.2-0.5-0.4-0.7c0.1-0.1,0.1-0.3,0.1-0.4
		c-0.1-0.4-0.2-0.7-0.3-1.1c-0.1-0.3-0.2-0.6-0.4-0.8c0.1-0.1,0.1-0.3,0.1-0.5c-0.1-0.4-0.2-0.7-0.3-1.1c-0.1-0.3-0.2-0.6-0.4-0.8
		c0.1-0.1,0.1-0.3,0.1-0.5c-0.1-0.4-0.1-0.7-0.2-1.1c-0.1-0.3-0.2-0.6-0.3-0.9c0.1-0.1,0.1-0.3,0.1-0.5c0-0.4-0.1-0.7-0.2-1.1
		c-0.3-1.8-1.7-3.3-3.7-3.3l0,0c-1.9,0-3.4,1.5-3.7,3.3c0,0.4-0.1,0.7-0.2,1.1c0,0.2,0,0.3,0.1,0.5c-0.1,0.3-0.2,0.6-0.3,0.9
		c-0.1,0.4-0.1,0.7-0.2,1.1c0,0.2,0,0.3,0.1,0.5c-0.2,0.3-0.3,0.6-0.4,0.8c-0.1,0.4-0.2,0.7-0.3,1.1c0,0.2,0,0.3,0.1,0.5
		c-0.2,0.3-0.3,0.6-0.4,0.8c-0.1,0.4-0.2,0.7-0.3,1.1c0,0.1,0,0.3,0.1,0.4c-0.2,0.2-0.3,0.5-0.4,0.7c-0.1,0.4-0.1,0.7-0.2,1.1
		c-0.1,0.4,0.5,0.9,1.3,1c0.9,0.1,1.7-0.2,1.7-0.7c0,0.5,0.6,0.9,1.4,0.9s1.5-0.4,1.5-0.8c0,0.5,0.7,0.9,1.5,0.8
		c0.8,0,1.5-0.5,1.4-0.9c0,0.5,0.8,0.8,1.7,0.7C10.9,181,11.4,180.5,11.3,180z"/>
	<path class="st15" d="M5.4,180.5c0,0.5,0.7,0.9,1.5,0.8s1.5-0.5,1.4-0.9c0,0.5,0.8,0.8,1.7,0.7c0.8-0.1,1.4-0.6,1.3-1
		c-0.1-0.4-0.1-0.7-0.2-1.1c-0.1-0.3-0.2-0.5-0.4-0.7c0.1-0.1,0.1-0.3,0.1-0.4l0,0c-1.1,0.4-2.8,0.6-4.8-0.3
		c-3-1.4-1.7-9.1-1.3-11.3c-1.5,0.3-2.8,1.6-3,3.2c0,0.4-0.1,0.7-0.2,1.1c0,0.2,0,0.3,0.1,0.5c-0.1,0.3-0.2,0.6-0.3,0.9
		c-0.1,0.4-0.1,0.7-0.2,1.1c0,0.2,0,0.3,0.1,0.5c-0.2,0.3-0.3,0.6-0.4,0.8c-0.1,0.4-0.2,0.7-0.3,1.1c0,0.2,0,0.3,0.1,0.5
		c-0.2,0.3-0.3,0.6-0.4,0.8c-0.1,0.4-0.2,0.7-0.3,1.1c0,0.1,0,0.3,0.1,0.4c-0.2,0.2-0.3,0.5-0.4,0.7c-0.1,0.4-0.1,0.7-0.2,1.1
		c-0.1,0.4,0.5,0.9,1.3,1c0.9,0.1,1.7-0.2,1.7-0.7c0,0.5,0.6,0.9,1.4,0.9C4.7,181.4,5.4,181,5.4,180.5z"/>
</g>
<g>
	<path class="st14" d="M19.7,180.1c-0.1-0.4-0.1-0.7-0.2-1.1c-0.1-0.3-0.2-0.5-0.4-0.7c0.1-0.1,0.1-0.3,0.1-0.4
		c-0.1-0.4-0.2-0.7-0.3-1.1c-0.1-0.3-0.2-0.6-0.4-0.8c0.1-0.1,0.1-0.3,0.1-0.5c-0.1-0.4-0.2-0.7-0.3-1.1c-0.1-0.3-0.2-0.6-0.4-0.8
		c0.1-0.1,0.1-0.3,0.1-0.5c-0.1-0.4-0.1-0.7-0.2-1.1c-0.1-0.3-0.2-0.6-0.3-0.9c0.1-0.1,0.1-0.3,0.1-0.5c0-0.4-0.1-0.7-0.2-1.1
		c-0.3-1.8-1.7-3.3-3.7-3.3l0,0c-1.9,0-3.4,1.5-3.7,3.3c0,0.4-0.1,0.7-0.2,1.1c0,0.2,0,0.3,0.1,0.5c-0.1,0.3-0.2,0.6-0.3,0.9
		c-0.1,0.4-0.1,0.7-0.2,1.1c0,0.2,0,0.3,0.1,0.5c-0.2,0.3-0.3,0.6-0.4,0.8c-0.1,0.4-0.2,0.7-0.3,1.1c0,0.2,0,0.3,0.1,0.5
		c-0.2,0.3-0.3,0.6-0.4,0.8c-0.1,0.4-0.2,0.7-0.3,1.1c0,0.1,0,0.3,0.1,0.4c-0.2,0.2-0.3,0.5-0.4,0.7c-0.1,0.4-0.1,0.7-0.2,1.1
		c-0.1,0.4,0.5,0.9,1.3,1c0.9,0.1,1.7-0.2,1.7-0.7c0,0.5,0.6,0.9,1.4,0.9c0.8,0,1.5-0.4,1.5-0.8c0,0.5,0.7,0.9,1.5,0.8
		c0.8,0,1.5-0.5,1.4-0.9c0,0.5,0.8,0.8,1.7,0.7C19.3,181.1,19.8,180.5,19.7,180.1z"/>
	<path class="st15" d="M13.8,180.6c0,0.5,0.7,0.9,1.5,0.8c0.8,0,1.5-0.5,1.4-0.9c0,0.5,0.8,0.8,1.7,0.7c0.8-0.1,1.4-0.6,1.3-1
		s-0.1-0.7-0.2-1.1c-0.1-0.3-0.2-0.5-0.4-0.7c0.1-0.1,0.1-0.3,0.1-0.4l0,0c-1.1,0.4-2.8,0.6-4.8-0.3c-3-1.4-1.7-9.1-1.3-11.3
		c-1.5,0.3-2.8,1.6-3,3.2c0,0.4-0.1,0.7-0.2,1.1c0,0.2,0,0.3,0.1,0.5c-0.1,0.3-0.2,0.6-0.3,0.9c-0.1,0.4-0.1,0.7-0.2,1.1
		c0,0.2,0,0.3,0.1,0.5c-0.2,0.3-0.3,0.6-0.4,0.8c-0.1,0.4-0.2,0.7-0.3,1.1c0,0.2,0,0.3,0.1,0.5c-0.2,0.3-0.3,0.6-0.4,0.8
		c-0.1,0.4-0.2,0.7-0.3,1.1c0,0.1,0,0.3,0.1,0.4c-0.2,0.2-0.3,0.5-0.4,0.7c-0.1,0.4-0.1,0.7-0.2,1.1c-0.1,0.4,0.5,0.9,1.3,1
		c0.9,0.1,1.7-0.2,1.7-0.7c0,0.5,0.6,0.9,1.4,0.9C13.1,181.5,13.8,181.1,13.8,180.6z"/>
</g>
<g>
	<path class="st14" d="M36.8,180.5c-0.1-0.4-0.1-0.7-0.2-1.1c-0.1-0.3-0.2-0.5-0.4-0.7c0.1-0.1,0.1-0.3,0.1-0.4
		c-0.1-0.4-0.2-0.7-0.3-1.1c-0.1-0.3-0.2-0.6-0.4-0.8c0.1-0.1,0.1-0.3,0.1-0.5c-0.1-0.4-0.2-0.7-0.3-1.1c-0.1-0.3-0.2-0.6-0.4-0.8
		c0.1-0.1,0.1-0.3,0.1-0.5c-0.1-0.4-0.1-0.7-0.2-1.1c-0.1-0.3-0.2-0.6-0.3-0.9c0.1-0.1,0.1-0.3,0.1-0.5c0-0.4-0.1-0.7-0.2-1.1
		c-0.3-1.8-1.7-3.3-3.7-3.3l0,0c-1.9,0-3.4,1.5-3.7,3.3c0,0.4-0.1,0.7-0.2,1.1c0,0.2,0,0.3,0.1,0.5c-0.1,0.3-0.2,0.6-0.3,0.9
		c-0.1,0.4-0.1,0.7-0.2,1.1c0,0.2,0,0.3,0.1,0.5c-0.2,0.3-0.3,0.6-0.4,0.8c-0.1,0.4-0.2,0.7-0.3,1.1c0,0.2,0,0.3,0.1,0.5
		c-0.2,0.3-0.3,0.6-0.4,0.8c-0.1,0.4-0.2,0.7-0.3,1.1c0,0.1,0,0.3,0.1,0.4c-0.2,0.2-0.3,0.5-0.4,0.7c-0.1,0.4-0.1,0.7-0.2,1.1
		c-0.1,0.4,0.5,0.9,1.3,1c0.9,0.1,1.7-0.2,1.7-0.7c0,0.5,0.6,0.9,1.4,0.9s1.5-0.4,1.5-0.8c0,0.5,0.7,0.9,1.5,0.8
		c0.8,0,1.5-0.5,1.4-0.9c0,0.5,0.8,0.8,1.7,0.7C36.4,181.4,36.9,180.9,36.8,180.5z"/>
	<path class="st15" d="M30.9,181c0,0.5,0.7,0.9,1.5,0.8c0.8,0,1.5-0.5,1.4-0.9c0,0.5,0.8,0.8,1.7,0.7c0.8-0.1,1.4-0.6,1.3-1
		c-0.1-0.4-0.1-0.7-0.2-1.1c-0.1-0.3-0.2-0.5-0.4-0.7c0.1-0.1,0.1-0.3,0.1-0.4l0,0c-1.1,0.4-2.8,0.6-4.8-0.3
		c-3-1.4-1.7-9.1-1.3-11.3c-1.5,0.3-2.8,1.6-3,3.2c0,0.4-0.1,0.7-0.2,1.1c0,0.2,0,0.3,0.1,0.5c-0.1,0.3-0.2,0.6-0.3,0.9
		c-0.1,0.4-0.1,0.7-0.2,1.1c0,0.2,0,0.3,0.1,0.5c-0.2,0.3-0.3,0.6-0.4,0.8c-0.1,0.4-0.2,0.7-0.3,1.1c0,0.2,0,0.3,0.1,0.5
		c-0.2,0.3-0.3,0.6-0.4,0.8c-0.1,0.4-0.2,0.7-0.3,1.1c0,0.1,0,0.3,0.1,0.4c-0.2,0.2-0.3,0.5-0.4,0.7c-0.1,0.4-0.1,0.7-0.2,1.1
		c-0.1,0.4,0.5,0.9,1.3,1c0.9,0.1,1.7-0.2,1.7-0.7c0,0.5,0.6,0.9,1.4,0.9C30.2,181.9,30.9,181.4,30.9,181z"/>
</g>
<g>
	<path class="st14" d="M46.2,181.7c-0.1-0.4-0.1-0.7-0.2-1.1c-0.1-0.3-0.2-0.5-0.4-0.7c0.1-0.1,0.1-0.3,0.1-0.4
		c-0.1-0.4-0.2-0.7-0.3-1.1c-0.1-0.3-0.2-0.6-0.4-0.8c0.1-0.1,0.1-0.3,0.1-0.5c-0.1-0.4-0.2-0.7-0.3-1.1c-0.1-0.3-0.2-0.6-0.4-0.8
		c0.1-0.1,0.1-0.3,0.1-0.5c-0.1-0.4-0.1-0.7-0.2-1.1c-0.1-0.3-0.2-0.6-0.3-0.9c0.1-0.1,0.1-0.3,0.1-0.5c0-0.4-0.1-0.7-0.2-1.1
		c-0.3-1.8-1.7-3.3-3.7-3.3l0,0c-1.9,0-3.4,1.5-3.7,3.3c0,0.4-0.1,0.7-0.2,1.1c0,0.2,0,0.3,0.1,0.5c-0.1,0.3-0.2,0.6-0.3,0.9
		c-0.1,0.4-0.1,0.7-0.2,1.1c0,0.2,0,0.3,0.1,0.5c-0.2,0.3-0.3,0.6-0.4,0.8c-0.1,0.4-0.2,0.7-0.3,1.1c0,0.2,0,0.3,0.1,0.5
		c-0.2,0.3-0.3,0.6-0.4,0.8c-0.1,0.4-0.2,0.7-0.3,1.1c0,0.1,0,0.3,0.1,0.4c-0.2,0.2-0.3,0.5-0.4,0.7c-0.1,0.4-0.1,0.7-0.2,1.1
		c-0.1,0.4,0.5,0.9,1.3,1c0.9,0.1,1.7-0.2,1.7-0.7c0,0.5,0.6,0.9,1.4,0.9c0.8,0,1.5-0.4,1.5-0.8c0,0.5,0.7,0.9,1.5,0.8
		c0.8,0,1.5-0.5,1.4-0.9c0,0.5,0.8,0.8,1.7,0.7C45.7,182.6,46.2,182.1,46.2,181.7z"/>
	<path class="st15" d="M40.3,182.2c0,0.5,0.7,0.9,1.5,0.8s1.5-0.5,1.4-0.9c0,0.5,0.8,0.8,1.7,0.7c0.8-0.1,1.4-0.6,1.3-1
		c-0.1-0.4-0.1-0.7-0.2-1.1c-0.1-0.3-0.2-0.5-0.4-0.7c0.1-0.1,0.1-0.3,0.1-0.4l0,0c-1.1,0.4-2.8,0.6-4.8-0.3
		c-3-1.4-1.7-9.1-1.3-11.3c-1.5,0.3-2.8,1.6-3,3.2c0,0.4-0.1,0.7-0.2,1.1c0,0.2,0,0.3,0.1,0.5c-0.1,0.3-0.2,0.6-0.3,0.9
		c-0.1,0.4-0.1,0.7-0.2,1.1c0,0.2,0,0.3,0.1,0.5c-0.2,0.3-0.3,0.6-0.4,0.8c-0.1,0.4-0.2,0.7-0.3,1.1c0,0.2,0,0.3,0.1,0.5
		c-0.2,0.3-0.3,0.6-0.4,0.8c-0.1,0.4-0.2,0.7-0.3,1.1c0,0.1,0,0.3,0.1,0.4c-0.2,0.2-0.3,0.5-0.4,0.7c-0.1,0.4-0.1,0.7-0.2,1.1
		c-0.1,0.4,0.5,0.9,1.3,1c0.9,0.1,1.7-0.2,1.7-0.7c0,0.5,0.6,0.9,1.4,0.9C39.6,183.1,40.3,182.7,40.3,182.2z"/>
</g>
<g>
	<path class="st14" d="M52.6,184c-0.1-0.4-0.1-0.7-0.2-1.1c-0.1-0.3-0.2-0.5-0.4-0.7c0.1-0.1,0.1-0.3,0.1-0.4
		c-0.1-0.4-0.2-0.7-0.3-1.1c-0.1-0.3-0.2-0.6-0.4-0.8c0.1-0.1,0.1-0.3,0.1-0.5c-0.1-0.4-0.2-0.7-0.3-1.1c-0.1-0.3-0.2-0.6-0.4-0.8
		c0.1-0.1,0.1-0.3,0.1-0.5c-0.1-0.4-0.1-0.7-0.2-1.1c-0.1-0.3-0.2-0.6-0.3-0.9c0.1-0.1,0.1-0.3,0.1-0.5c0-0.4-0.1-0.7-0.2-1.1
		c-0.3-1.8-1.7-3.3-3.7-3.3l0,0c-1.9,0-3.4,1.5-3.7,3.3c0,0.4-0.1,0.7-0.2,1.1c0,0.2,0,0.3,0.1,0.5c-0.1,0.3-0.2,0.6-0.3,0.9
		c-0.1,0.4-0.1,0.7-0.2,1.1c0,0.2,0,0.3,0.1,0.5c-0.2,0.3-0.3,0.6-0.4,0.8c-0.1,0.4-0.2,0.7-0.3,1.1c0,0.2,0,0.3,0.1,0.5
		c-0.2,0.3-0.3,0.6-0.4,0.8c-0.1,0.4-0.2,0.7-0.3,1.1c0,0.1,0,0.3,0.1,0.4c-0.2,0.2-0.3,0.5-0.4,0.7c-0.1,0.4-0.1,0.7-0.2,1.1
		c-0.1,0.4,0.5,0.9,1.3,1c0.9,0.1,1.7-0.2,1.7-0.7c0,0.5,0.6,0.9,1.4,0.9c0.8,0,1.5-0.4,1.5-0.8c0,0.5,0.7,0.9,1.5,0.8
		c0.8,0,1.5-0.5,1.4-0.9c0,0.5,0.8,0.8,1.7,0.7C52.1,184.9,52.7,184.4,52.6,184z"/>
	<path class="st15" d="M46.7,184.5c0,0.5,0.7,0.9,1.5,0.8c0.8,0,1.5-0.5,1.4-0.9c0,0.5,0.8,0.8,1.7,0.7c0.8-0.1,1.4-0.6,1.3-1
		c-0.1-0.4-0.1-0.7-0.2-1.1c-0.1-0.3-0.2-0.5-0.4-0.7c0.1-0.1,0.1-0.3,0.1-0.4l0,0c-1.1,0.4-2.8,0.6-4.8-0.3
		c-3-1.4-1.7-9.1-1.3-11.3c-1.5,0.3-2.8,1.6-3,3.2c0,0.4-0.1,0.7-0.2,1.1c0,0.2,0,0.3,0.1,0.5c-0.1,0.3-0.2,0.6-0.3,0.9
		c-0.1,0.4-0.1,0.7-0.2,1.1c0,0.2,0,0.3,0.1,0.5c-0.2,0.3-0.3,0.6-0.4,0.8c-0.1,0.4-0.2,0.7-0.3,1.1c0,0.2,0,0.3,0.1,0.5
		c-0.2,0.3-0.3,0.6-0.4,0.8c-0.1,0.4-0.2,0.7-0.3,1.1c0,0.1,0,0.3,0.1,0.4c-0.2,0.2-0.3,0.5-0.4,0.7c-0.1,0.4-0.1,0.7-0.2,1.1
		c-0.1,0.4,0.5,0.9,1.3,1c0.9,0.1,1.7-0.2,1.7-0.7c0,0.5,0.6,0.9,1.4,0.9C46,185.4,46.7,184.9,46.7,184.5z"/>
</g>
<g>
	<path class="st14" d="M28.2,182.7c-0.1-0.4-0.1-0.7-0.2-1.1c-0.1-0.3-0.2-0.5-0.4-0.7c0.1-0.1,0.1-0.3,0.1-0.4
		c-0.1-0.4-0.2-0.7-0.3-1.1c-0.1-0.3-0.2-0.6-0.4-0.8c0.1-0.1,0.1-0.3,0.1-0.5c-0.1-0.4-0.2-0.7-0.3-1.1c-0.1-0.3-0.2-0.6-0.4-0.8
		c0.1-0.1,0.1-0.3,0.1-0.5c-0.1-0.4-0.1-0.7-0.2-1.1c-0.1-0.3-0.2-0.6-0.3-0.9c0.1-0.1,0.1-0.3,0.1-0.5c0-0.4-0.1-0.7-0.2-1.1
		c-0.3-1.8-1.7-3.3-3.7-3.3l0,0c-1.9,0-3.4,1.5-3.7,3.3c0,0.4-0.1,0.7-0.2,1.1c0,0.2,0,0.3,0.1,0.5c-0.1,0.3-0.2,0.6-0.3,0.9
		c-0.1,0.4-0.1,0.7-0.2,1.1c0,0.2,0,0.3,0.1,0.5c-0.2,0.3-0.3,0.6-0.4,0.8c-0.1,0.4-0.2,0.7-0.3,1.1c0,0.2,0,0.3,0.1,0.5
		c-0.2,0.3-0.3,0.6-0.4,0.8c-0.1,0.4-0.2,0.7-0.3,1.1c0,0.1,0,0.3,0.1,0.4c-0.2,0.2-0.3,0.5-0.4,0.7c-0.1,0.4-0.1,0.7-0.2,1.1
		c-0.1,0.4,0.5,0.9,1.3,1c0.9,0.1,1.7-0.2,1.7-0.7c0,0.5,0.6,0.9,1.4,0.9s1.5-0.4,1.5-0.8c0,0.5,0.7,0.9,1.5,0.8
		c0.8,0,1.5-0.5,1.4-0.9c0,0.5,0.8,0.8,1.7,0.7C27.7,183.6,28.2,183.2,28.2,182.7z"/>
	<path class="st15" d="M22.2,183.2c0,0.5,0.7,0.9,1.5,0.8c0.8,0,1.5-0.5,1.4-0.9c0,0.5,0.8,0.8,1.7,0.7c0.8-0.1,1.4-0.6,1.3-1
		s-0.1-0.7-0.2-1.1c-0.1-0.3-0.2-0.5-0.4-0.7c0.1-0.1,0.1-0.3,0.1-0.4l0,0c-1.1,0.4-2.8,0.6-4.8-0.3c-3-1.4-1.7-9.1-1.3-11.3
		c-1.5,0.3-2.8,1.6-3,3.2c0,0.4-0.1,0.7-0.2,1.1c0,0.2,0,0.3,0.1,0.5c-0.1,0.3-0.2,0.6-0.3,0.9c-0.1,0.4-0.1,0.7-0.2,1.1
		c0,0.2,0,0.3,0.1,0.5c-0.2,0.3-0.3,0.6-0.4,0.8c-0.1,0.4-0.2,0.7-0.3,1.1c0,0.2,0,0.3,0.1,0.5c-0.2,0.3-0.3,0.6-0.4,0.8
		c-0.1,0.4-0.2,0.7-0.3,1.1c0,0.1,0,0.3,0.1,0.4c-0.2,0.2-0.3,0.5-0.4,0.7c-0.1,0.4-0.1,0.7-0.2,1.1c-0.1,0.4,0.5,0.9,1.3,1
		c0.9,0.1,1.7-0.2,1.7-0.7c0,0.5,0.6,0.9,1.4,0.9C21.5,184.1,22.2,183.7,22.2,183.2z"/>
</g>
<g>
	<path class="st14" d="M286.9,180c-0.1-0.4-0.1-0.7-0.2-1.1c-0.1-0.3-0.2-0.5-0.4-0.7c0.1-0.1,0.1-0.3,0.1-0.4
		c-0.1-0.4-0.2-0.7-0.3-1.1c-0.1-0.3-0.2-0.6-0.4-0.8c0.1-0.1,0.1-0.3,0.1-0.5c-0.1-0.4-0.2-0.7-0.3-1.1c-0.1-0.3-0.2-0.6-0.4-0.8
		c0.1-0.1,0.1-0.3,0.1-0.5c-0.1-0.4-0.1-0.7-0.2-1.1c-0.1-0.3-0.2-0.6-0.3-0.9c0.1-0.1,0.1-0.3,0.1-0.5c0-0.4-0.1-0.7-0.2-1.1
		c-0.3-1.8-1.7-3.3-3.7-3.3l0,0c-1.9,0-3.4,1.5-3.7,3.3c0,0.4-0.1,0.7-0.2,1.1c0,0.2,0,0.3,0.1,0.5c-0.1,0.3-0.2,0.6-0.3,0.9
		c-0.1,0.4-0.1,0.7-0.2,1.1c0,0.2,0,0.3,0.1,0.5c-0.2,0.3-0.3,0.6-0.4,0.8c-0.1,0.4-0.2,0.7-0.3,1.1c0,0.2,0,0.3,0.1,0.5
		c-0.2,0.3-0.3,0.6-0.4,0.8c-0.1,0.4-0.2,0.7-0.3,1.1c0,0.1,0,0.3,0.1,0.4c-0.2,0.2-0.3,0.5-0.4,0.7c-0.1,0.4-0.1,0.7-0.2,1.1
		c-0.1,0.4,0.5,0.9,1.3,1c0.9,0.1,1.7-0.2,1.7-0.7c0,0.5,0.6,0.9,1.4,0.9s1.5-0.4,1.5-0.8c0,0.5,0.7,0.9,1.5,0.8
		c0.8,0,1.5-0.5,1.4-0.9c0,0.5,0.8,0.8,1.7,0.7C286.5,181,287,180.5,286.9,180z"/>
	<path class="st15" d="M281,180.5c0,0.5,0.7,0.9,1.5,0.8c0.8,0,1.5-0.5,1.4-0.9c0,0.5,0.8,0.8,1.7,0.7c0.8-0.1,1.4-0.6,1.3-1
		s-0.1-0.7-0.2-1.1c-0.1-0.3-0.2-0.5-0.4-0.7c0.1-0.1,0.1-0.3,0.1-0.4l0,0c-1.1,0.4-2.8,0.6-4.8-0.3c-3-1.4-1.7-9.1-1.3-11.3
		c-1.5,0.3-2.8,1.6-3,3.2c0,0.4-0.1,0.7-0.2,1.1c0,0.2,0,0.3,0.1,0.5c-0.1,0.3-0.2,0.6-0.3,0.9c-0.1,0.4-0.1,0.7-0.2,1.1
		c0,0.2,0,0.3,0.1,0.5c-0.2,0.3-0.3,0.6-0.4,0.8c-0.1,0.4-0.2,0.7-0.3,1.1c0,0.2,0,0.3,0.1,0.5c-0.2,0.3-0.3,0.6-0.4,0.8
		c-0.1,0.4-0.2,0.7-0.3,1.1c0,0.1,0,0.3,0.1,0.4c-0.2,0.2-0.3,0.5-0.4,0.7c-0.1,0.4-0.1,0.7-0.2,1.1c-0.1,0.4,0.5,0.9,1.3,1
		c0.9,0.1,1.7-0.2,1.7-0.7c0,0.5,0.6,0.9,1.4,0.9C280.3,181.4,281,181,281,180.5z"/>
</g>
<g>
	<path class="st14" d="M295.3,180.1c-0.1-0.4-0.1-0.7-0.2-1.1c-0.1-0.3-0.2-0.5-0.4-0.7c0.1-0.1,0.1-0.3,0.1-0.4
		c-0.1-0.4-0.2-0.7-0.3-1.1c-0.1-0.3-0.2-0.6-0.4-0.8c0.1-0.1,0.1-0.3,0.1-0.5c-0.1-0.4-0.2-0.7-0.3-1.1c-0.1-0.3-0.2-0.6-0.4-0.8
		c0.1-0.1,0.1-0.3,0.1-0.5c-0.1-0.4-0.1-0.7-0.2-1.1c-0.1-0.3-0.2-0.6-0.3-0.9c0.1-0.1,0.1-0.3,0.1-0.5c0-0.4-0.1-0.7-0.2-1.1
		c-0.3-1.8-1.7-3.3-3.7-3.3l0,0c-1.9,0-3.4,1.5-3.7,3.3c0,0.4-0.1,0.7-0.2,1.1c0,0.2,0,0.3,0.1,0.5c-0.1,0.3-0.2,0.6-0.3,0.9
		c-0.1,0.4-0.1,0.7-0.2,1.1c0,0.2,0,0.3,0.1,0.5c-0.2,0.3-0.3,0.6-0.4,0.8c-0.1,0.4-0.2,0.7-0.3,1.1c0,0.2,0,0.3,0.1,0.5
		c-0.2,0.3-0.3,0.6-0.4,0.8c-0.1,0.4-0.2,0.7-0.3,1.1c0,0.1,0,0.3,0.1,0.4c-0.2,0.2-0.3,0.5-0.4,0.7c-0.1,0.4-0.1,0.7-0.2,1.1
		c-0.1,0.4,0.5,0.9,1.3,1c0.9,0.1,1.7-0.2,1.7-0.7c0,0.5,0.6,0.9,1.4,0.9s1.5-0.4,1.5-0.8c0,0.5,0.7,0.9,1.5,0.8
		c0.8,0,1.5-0.5,1.4-0.9c0,0.5,0.8,0.8,1.7,0.7C294.9,181.1,295.4,180.5,295.3,180.1z"/>
	<path class="st15" d="M289.4,180.6c0,0.5,0.7,0.9,1.5,0.8c0.8,0,1.5-0.5,1.4-0.9c0,0.5,0.8,0.8,1.7,0.7c0.8-0.1,1.4-0.6,1.3-1
		s-0.1-0.7-0.2-1.1c-0.1-0.3-0.2-0.5-0.4-0.7c0.1-0.1,0.1-0.3,0.1-0.4l0,0c-1.1,0.4-2.8,0.6-4.8-0.3c-3-1.4-1.7-9.1-1.3-11.3
		c-1.5,0.3-2.8,1.6-3,3.2c0,0.4-0.1,0.7-0.2,1.1c0,0.2,0,0.3,0.1,0.5c-0.1,0.3-0.2,0.6-0.3,0.9c-0.1,0.4-0.1,0.7-0.2,1.1
		c0,0.2,0,0.3,0.1,0.5c-0.2,0.3-0.3,0.6-0.4,0.8c-0.1,0.4-0.2,0.7-0.3,1.1c0,0.2,0,0.3,0.1,0.5c-0.2,0.3-0.3,0.6-0.4,0.8
		c-0.1,0.4-0.2,0.7-0.3,1.1c0,0.1,0,0.3,0.1,0.4c-0.2,0.2-0.3,0.5-0.4,0.7c-0.1,0.4-0.1,0.7-0.2,1.1c-0.1,0.4,0.5,0.9,1.3,1
		c0.9,0.1,1.7-0.2,1.7-0.7c0,0.5,0.6,0.9,1.4,0.9C288.7,181.5,289.4,181.1,289.4,180.6z"/>
</g>
<g>
	<path class="st14" d="M312.4,180.5c-0.1-0.4-0.1-0.7-0.2-1.1c-0.1-0.3-0.2-0.5-0.4-0.7c0.1-0.1,0.1-0.3,0.1-0.4
		c-0.1-0.4-0.2-0.7-0.3-1.1c-0.1-0.3-0.2-0.6-0.4-0.8c0.1-0.1,0.1-0.3,0.1-0.5c-0.1-0.4-0.2-0.7-0.3-1.1c-0.1-0.3-0.2-0.6-0.4-0.8
		c0.1-0.1,0.1-0.3,0.1-0.5c-0.1-0.4-0.1-0.7-0.2-1.1c-0.1-0.3-0.2-0.6-0.3-0.9c0.1-0.1,0.1-0.3,0.1-0.5c0-0.4-0.1-0.7-0.2-1.1
		c-0.3-1.8-1.7-3.3-3.7-3.3l0,0c-1.9,0-3.4,1.5-3.7,3.3c0,0.4-0.1,0.7-0.2,1.1c0,0.2,0,0.3,0.1,0.5c-0.1,0.3-0.2,0.6-0.3,0.9
		c-0.1,0.4-0.1,0.7-0.2,1.1c0,0.2,0,0.3,0.1,0.5c-0.2,0.3-0.3,0.6-0.4,0.8c-0.1,0.4-0.2,0.7-0.3,1.1c0,0.2,0,0.3,0.1,0.5
		c-0.2,0.3-0.3,0.6-0.4,0.8c-0.1,0.4-0.2,0.7-0.3,1.1c0,0.1,0,0.3,0.1,0.4c-0.2,0.2-0.3,0.5-0.4,0.7c-0.1,0.4-0.1,0.7-0.2,1.1
		c-0.1,0.4,0.5,0.9,1.3,1c0.9,0.1,1.7-0.2,1.7-0.7c0,0.5,0.6,0.9,1.4,0.9s1.5-0.4,1.5-0.8c0,0.5,0.7,0.9,1.5,0.8
		c0.8,0,1.5-0.5,1.4-0.9c0,0.5,0.8,0.8,1.7,0.7C312,181.4,312.5,180.9,312.4,180.5z"/>
	<path class="st15" d="M306.5,181c0,0.5,0.7,0.9,1.5,0.8c0.8,0,1.5-0.5,1.4-0.9c0,0.5,0.8,0.8,1.7,0.7c0.8-0.1,1.4-0.6,1.3-1
		s-0.1-0.7-0.2-1.1c-0.1-0.3-0.2-0.5-0.4-0.7c0.1-0.1,0.1-0.3,0.1-0.4l0,0c-1.1,0.4-2.8,0.6-4.8-0.3c-3-1.4-1.7-9.1-1.3-11.3
		c-1.5,0.3-2.8,1.6-3,3.2c0,0.4-0.1,0.7-0.2,1.1c0,0.2,0,0.3,0.1,0.5c-0.1,0.3-0.2,0.6-0.3,0.9c-0.1,0.4-0.1,0.7-0.2,1.1
		c0,0.2,0,0.3,0.1,0.5c-0.2,0.3-0.3,0.6-0.4,0.8c-0.1,0.4-0.2,0.7-0.3,1.1c0,0.2,0,0.3,0.1,0.5c-0.2,0.3-0.3,0.6-0.4,0.8
		c-0.1,0.4-0.2,0.7-0.3,1.1c0,0.1,0,0.3,0.1,0.4c-0.2,0.2-0.3,0.5-0.4,0.7c-0.1,0.4-0.1,0.7-0.2,1.1c-0.1,0.4,0.5,0.9,1.3,1
		c0.9,0.1,1.7-0.2,1.7-0.7c0,0.5,0.6,0.9,1.4,0.9C305.8,181.9,306.5,181.4,306.5,181z"/>
</g>
<g>
	<path class="st14" d="M321.8,181.7c-0.1-0.4-0.1-0.7-0.2-1.1c-0.1-0.3-0.2-0.5-0.4-0.7c0.1-0.1,0.1-0.3,0.1-0.4
		c-0.1-0.4-0.2-0.7-0.3-1.1c-0.1-0.3-0.2-0.6-0.4-0.8c0.1-0.1,0.1-0.3,0.1-0.5c-0.1-0.4-0.2-0.7-0.3-1.1c-0.1-0.3-0.2-0.6-0.4-0.8
		c0.1-0.1,0.1-0.3,0.1-0.5c-0.1-0.4-0.1-0.7-0.2-1.1c-0.1-0.3-0.2-0.6-0.3-0.9c0.1-0.1,0.1-0.3,0.1-0.5c0-0.4-0.1-0.7-0.2-1.1
		c-0.3-1.8-1.7-3.3-3.7-3.3l0,0c-1.9,0-3.4,1.5-3.7,3.3c0,0.4-0.1,0.7-0.2,1.1c0,0.2,0,0.3,0.1,0.5c-0.1,0.3-0.2,0.6-0.3,0.9
		c-0.1,0.4-0.1,0.7-0.2,1.1c0,0.2,0,0.3,0.1,0.5c-0.2,0.3-0.3,0.6-0.4,0.8c-0.1,0.4-0.2,0.7-0.3,1.1c0,0.2,0,0.3,0.1,0.5
		c-0.2,0.3-0.3,0.6-0.4,0.8c-0.1,0.4-0.2,0.7-0.3,1.1c0,0.1,0,0.3,0.1,0.4c-0.2,0.2-0.3,0.5-0.4,0.7c-0.1,0.4-0.1,0.7-0.2,1.1
		c-0.1,0.4,0.5,0.9,1.3,1c0.9,0.1,1.7-0.2,1.7-0.7c0,0.5,0.6,0.9,1.4,0.9s1.5-0.4,1.5-0.8c0,0.5,0.7,0.9,1.5,0.8
		c0.8,0,1.5-0.5,1.4-0.9c0,0.5,0.8,0.8,1.7,0.7C321.4,182.6,321.9,182.1,321.8,181.7z"/>
	<path class="st15" d="M315.9,182.2c0,0.5,0.7,0.9,1.5,0.8s1.5-0.5,1.4-0.9c0,0.5,0.8,0.8,1.7,0.7c0.8-0.1,1.4-0.6,1.3-1
		s-0.1-0.7-0.2-1.1c-0.1-0.3-0.2-0.5-0.4-0.7c0.1-0.1,0.1-0.3,0.1-0.4l0,0c-1.1,0.4-2.8,0.6-4.8-0.3c-3-1.4-1.7-9.1-1.3-11.3
		c-1.5,0.3-2.8,1.6-3,3.2c0,0.4-0.1,0.7-0.2,1.1c0,0.2,0,0.3,0.1,0.5c-0.1,0.3-0.2,0.6-0.3,0.9c-0.1,0.4-0.1,0.7-0.2,1.1
		c0,0.2,0,0.3,0.1,0.5c-0.2,0.3-0.3,0.6-0.4,0.8c-0.1,0.4-0.2,0.7-0.3,1.1c0,0.2,0,0.3,0.1,0.5c-0.2,0.3-0.3,0.6-0.4,0.8
		c-0.1,0.4-0.2,0.7-0.3,1.1c0,0.1,0,0.3,0.1,0.4c-0.2,0.2-0.3,0.5-0.4,0.7c-0.1,0.4-0.1,0.7-0.2,1.1c-0.1,0.4,0.5,0.9,1.3,1
		c0.9,0.1,1.7-0.2,1.7-0.7c0,0.5,0.6,0.9,1.4,0.9C315.2,183.1,315.9,182.7,315.9,182.2z"/>
</g>
<g>
	<path class="st14" d="M328.2,184c-0.1-0.4-0.1-0.7-0.2-1.1c-0.1-0.3-0.2-0.5-0.4-0.7c0.1-0.1,0.1-0.3,0.1-0.4
		c-0.1-0.4-0.2-0.7-0.3-1.1c-0.1-0.3-0.2-0.6-0.4-0.8c0.1-0.1,0.1-0.3,0.1-0.5c-0.1-0.4-0.2-0.7-0.3-1.1c-0.1-0.3-0.2-0.6-0.4-0.8
		c0.1-0.1,0.1-0.3,0.1-0.5c-0.1-0.4-0.1-0.7-0.2-1.1c-0.1-0.3-0.2-0.6-0.3-0.9c0.1-0.1,0.1-0.3,0.1-0.5c0-0.4-0.1-0.7-0.2-1.1
		c-0.3-1.8-1.7-3.3-3.7-3.3l0,0c-1.9,0-3.4,1.5-3.7,3.3c0,0.4-0.1,0.7-0.2,1.1c0,0.2,0,0.3,0.1,0.5c-0.1,0.3-0.2,0.6-0.3,0.9
		c-0.1,0.4-0.1,0.7-0.2,1.1c0,0.2,0,0.3,0.1,0.5c-0.2,0.3-0.3,0.6-0.4,0.8c-0.1,0.4-0.2,0.7-0.3,1.1c0,0.2,0,0.3,0.1,0.5
		c-0.2,0.3-0.3,0.6-0.4,0.8c-0.1,0.4-0.2,0.7-0.3,1.1c0,0.1,0,0.3,0.1,0.4c-0.2,0.2-0.3,0.5-0.4,0.7c-0.1,0.4-0.1,0.7-0.2,1.1
		c-0.1,0.4,0.5,0.9,1.3,1c0.9,0.1,1.7-0.2,1.7-0.7c0,0.5,0.6,0.9,1.4,0.9s1.5-0.4,1.5-0.8c0,0.5,0.7,0.9,1.5,0.8
		c0.8,0,1.5-0.5,1.4-0.9c0,0.5,0.8,0.8,1.7,0.7C327.8,184.9,328.3,184.4,328.2,184z"/>
	<path class="st15" d="M322.3,184.5c0,0.5,0.7,0.9,1.5,0.8c0.8,0,1.5-0.5,1.4-0.9c0,0.5,0.8,0.8,1.7,0.7c0.8-0.1,1.4-0.6,1.3-1
		s-0.1-0.7-0.2-1.1c-0.1-0.3-0.2-0.5-0.4-0.7c0.1-0.1,0.1-0.3,0.1-0.4l0,0c-1.1,0.4-2.8,0.6-4.8-0.3c-3-1.4-1.7-9.1-1.3-11.3
		c-1.5,0.3-2.8,1.6-3,3.2c0,0.4-0.1,0.7-0.2,1.1c0,0.2,0,0.3,0.1,0.5c-0.1,0.3-0.2,0.6-0.3,0.9c-0.1,0.4-0.1,0.7-0.2,1.1
		c0,0.2,0,0.3,0.1,0.5c-0.2,0.3-0.3,0.6-0.4,0.8c-0.1,0.4-0.2,0.7-0.3,1.1c0,0.2,0,0.3,0.1,0.5c-0.2,0.3-0.3,0.6-0.4,0.8
		c-0.1,0.4-0.2,0.7-0.3,1.1c0,0.1,0,0.3,0.1,0.4c-0.2,0.2-0.3,0.5-0.4,0.7c-0.1,0.4-0.1,0.7-0.2,1.1c-0.1,0.4,0.5,0.9,1.3,1
		c0.9,0.1,1.7-0.2,1.7-0.7c0,0.5,0.6,0.9,1.4,0.9C321.6,185.4,322.3,184.9,322.3,184.5z"/>
</g>
<g>
	<path class="st14" d="M335.4,185c-0.1-0.4-0.1-0.7-0.2-1.1c-0.1-0.3-0.2-0.5-0.4-0.7c0.1-0.1,0.1-0.3,0.1-0.4
		c-0.1-0.4-0.2-0.7-0.3-1.1c-0.1-0.3-0.2-0.6-0.4-0.8c0.1-0.1,0.1-0.3,0.1-0.5c-0.1-0.4-0.2-0.7-0.3-1.1c-0.1-0.3-0.2-0.6-0.4-0.8
		c0.1-0.1,0.1-0.3,0.1-0.5c-0.1-0.4-0.1-0.7-0.2-1.1c-0.1-0.3-0.2-0.6-0.3-0.9c0.1-0.1,0.1-0.3,0.1-0.5c0-0.4-0.1-0.7-0.2-1.1
		c-0.3-1.8-1.7-3.3-3.7-3.3l0,0c-1.9,0-3.4,1.5-3.7,3.3c0,0.4-0.1,0.7-0.2,1.1c0,0.2,0,0.3,0.1,0.5c-0.1,0.3-0.2,0.6-0.3,0.9
		c-0.1,0.4-0.1,0.7-0.2,1.1c0,0.2,0,0.3,0.1,0.5c-0.2,0.3-0.3,0.6-0.4,0.8c-0.1,0.4-0.2,0.7-0.3,1.1c0,0.2,0,0.3,0.1,0.5
		c-0.2,0.3-0.3,0.6-0.4,0.8c-0.1,0.4-0.2,0.7-0.3,1.1c0,0.1,0,0.3,0.1,0.4c-0.2,0.2-0.3,0.5-0.4,0.7c-0.1,0.4-0.1,0.7-0.2,1.1
		c-0.1,0.4,0.5,0.9,1.3,1c0.9,0.1,1.7-0.2,1.7-0.7c0,0.5,0.6,0.9,1.4,0.9s1.5-0.4,1.5-0.8c0,0.5,0.7,0.9,1.5,0.8
		c0.8,0,1.5-0.5,1.4-0.9c0,0.5,0.8,0.8,1.7,0.7C334.9,185.9,335.5,185.5,335.4,185z"/>
	<path class="st15" d="M329.5,185.5c0,0.5,0.7,0.9,1.5,0.8c0.8,0,1.5-0.5,1.4-0.9c0,0.5,0.8,0.8,1.7,0.7c0.8-0.1,1.4-0.6,1.3-1
		s-0.1-0.7-0.2-1.1c-0.1-0.3-0.2-0.5-0.4-0.7c0.1-0.1,0.1-0.3,0.1-0.4l0,0c-1.1,0.4-2.8,0.6-4.8-0.3c-3-1.4-1.7-9.1-1.3-11.3
		c-1.5,0.3-2.8,1.6-3,3.2c0,0.4-0.1,0.7-0.2,1.1c0,0.2,0,0.3,0.1,0.5c-0.1,0.3-0.2,0.6-0.3,0.9c-0.1,0.4-0.1,0.7-0.2,1.1
		c0,0.2,0,0.3,0.1,0.5c-0.2,0.3-0.3,0.6-0.4,0.8c-0.1,0.4-0.2,0.7-0.3,1.1c0,0.2,0,0.3,0.1,0.5c-0.2,0.3-0.3,0.6-0.4,0.8
		c-0.1,0.4-0.2,0.7-0.3,1.1c0,0.1,0,0.3,0.1,0.4c-0.2,0.2-0.3,0.5-0.4,0.7c-0.1,0.4-0.1,0.7-0.2,1.1c-0.1,0.4,0.5,0.9,1.3,1
		c0.9,0.1,1.7-0.2,1.7-0.7c0,0.5,0.6,0.9,1.4,0.9C328.8,186.4,329.5,186,329.5,185.5z"/>
</g>
<g>
	<path class="st14" d="M343.3,182.9c-0.1-0.4-0.1-0.7-0.2-1.1c-0.1-0.3-0.2-0.5-0.4-0.7c0.1-0.1,0.1-0.3,0.1-0.4
		c-0.1-0.4-0.2-0.7-0.3-1.1c-0.1-0.3-0.2-0.6-0.4-0.8c0.1-0.1,0.1-0.3,0.1-0.5c-0.1-0.4-0.2-0.7-0.3-1.1c-0.1-0.3-0.2-0.6-0.4-0.8
		c0.1-0.1,0.1-0.3,0.1-0.5c-0.1-0.4-0.1-0.7-0.2-1.1c-0.1-0.3-0.2-0.6-0.3-0.9c0.1-0.1,0.1-0.3,0.1-0.5c0-0.4-0.1-0.7-0.2-1.1
		c-0.3-1.8-1.7-3.3-3.7-3.3l0,0c-1.9,0-3.4,1.5-3.7,3.3c0,0.4-0.1,0.7-0.2,1.1c0,0.2,0,0.3,0.1,0.5c-0.1,0.3-0.2,0.6-0.3,0.9
		c-0.1,0.4-0.1,0.7-0.2,1.1c0,0.2,0,0.3,0.1,0.5c-0.2,0.3-0.3,0.6-0.4,0.8c-0.1,0.4-0.2,0.7-0.3,1.1c0,0.2,0,0.3,0.1,0.5
		c-0.2,0.3-0.3,0.6-0.4,0.8c-0.1,0.4-0.2,0.7-0.3,1.1c0,0.1,0,0.3,0.1,0.4c-0.2,0.2-0.3,0.5-0.4,0.7c-0.1,0.4-0.1,0.7-0.2,1.1
		c-0.1,0.4,0.5,0.9,1.3,1c0.9,0.1,1.7-0.2,1.7-0.7c0,0.5,0.6,0.9,1.4,0.9s1.5-0.4,1.5-0.8c0,0.5,0.7,0.9,1.5,0.8s1.5-0.5,1.4-0.9
		c0,0.5,0.8,0.8,1.7,0.7C342.9,183.8,343.4,183.4,343.3,182.9z"/>
	<path class="st15" d="M337.4,183.4c0,0.5,0.7,0.9,1.5,0.8c0.8,0,1.5-0.5,1.4-0.9c0,0.5,0.8,0.8,1.7,0.7c0.8-0.1,1.4-0.6,1.3-1
		s-0.1-0.7-0.2-1.1c-0.1-0.3-0.2-0.5-0.4-0.7c0.1-0.1,0.1-0.3,0.1-0.4l0,0c-1.1,0.4-2.8,0.6-4.8-0.3c-3-1.4-1.7-9.1-1.3-11.3
		c-1.5,0.3-2.8,1.6-3,3.2c0,0.4-0.1,0.7-0.2,1.1c0,0.2,0,0.3,0.1,0.5c-0.1,0.3-0.2,0.6-0.3,0.9c-0.1,0.4-0.1,0.7-0.2,1.1
		c0,0.2,0,0.3,0.1,0.5c-0.2,0.3-0.3,0.6-0.4,0.8c-0.1,0.4-0.2,0.7-0.3,1.1c0,0.2,0,0.3,0.1,0.5c-0.2,0.3-0.3,0.6-0.4,0.8
		c-0.1,0.4-0.2,0.7-0.3,1.1c0,0.1,0,0.3,0.1,0.4c-0.2,0.2-0.3,0.5-0.4,0.7c-0.1,0.4-0.1,0.7-0.2,1.1c-0.1,0.4,0.5,0.9,1.3,1
		c0.9,0.1,1.7-0.2,1.7-0.7c0,0.5,0.6,0.9,1.4,0.9C336.7,184.2,337.4,183.9,337.4,183.4z"/>
</g>
<g>
	<path class="st14" d="M351.9,183.8c-0.1-0.4-0.1-0.7-0.2-1.1c-0.1-0.3-0.2-0.5-0.4-0.7c0.1-0.1,0.1-0.3,0.1-0.4
		c-0.1-0.4-0.2-0.7-0.3-1.1c-0.1-0.3-0.2-0.6-0.4-0.8c0.1-0.1,0.1-0.3,0.1-0.5c-0.1-0.4-0.2-0.7-0.3-1.1c-0.1-0.3-0.2-0.6-0.4-0.8
		c0.1-0.1,0.1-0.3,0.1-0.5c-0.1-0.4-0.1-0.7-0.2-1.1c-0.1-0.3-0.2-0.6-0.3-0.9c0.1-0.1,0.1-0.3,0.1-0.5c0-0.4-0.1-0.7-0.2-1.1
		c-0.3-1.8-1.7-3.3-3.7-3.3l0,0c-1.9,0-3.4,1.5-3.7,3.3c0,0.4-0.1,0.7-0.2,1.1c0,0.2,0,0.3,0.1,0.5c-0.1,0.3-0.2,0.6-0.3,0.9
		c-0.1,0.4-0.1,0.7-0.2,1.1c0,0.2,0,0.3,0.1,0.5c-0.2,0.3-0.3,0.6-0.4,0.8c-0.1,0.4-0.2,0.7-0.3,1.1c0,0.2,0,0.3,0.1,0.5
		c-0.2,0.3-0.3,0.6-0.4,0.8c-0.1,0.4-0.2,0.7-0.3,1.1c0,0.1,0,0.3,0.1,0.4c-0.2,0.2-0.3,0.5-0.4,0.7c-0.1,0.4-0.1,0.7-0.2,1.1
		c-0.1,0.4,0.5,0.9,1.3,1c0.9,0.1,1.7-0.2,1.7-0.7c0,0.5,0.6,0.9,1.4,0.9s1.5-0.4,1.5-0.8c0,0.5,0.7,0.9,1.5,0.8
		c0.8,0,1.5-0.5,1.4-0.9c0,0.5,0.8,0.8,1.7,0.7C351.5,184.8,352,184.2,351.9,183.8z"/>
	<path class="st15" d="M346,184.3c0,0.5,0.7,0.9,1.5,0.8c0.8,0,1.5-0.5,1.4-0.9c0,0.5,0.8,0.8,1.7,0.7c0.8-0.1,1.4-0.6,1.3-1
		s-0.1-0.7-0.2-1.1c-0.1-0.3-0.2-0.5-0.4-0.7c0.1-0.1,0.1-0.3,0.1-0.4l0,0c-1.1,0.4-2.8,0.6-4.8-0.3c-3-1.4-1.7-9.1-1.3-11.3
		c-1.5,0.3-2.8,1.6-3,3.2c0,0.4-0.1,0.7-0.2,1.1c0,0.2,0,0.3,0.1,0.5c-0.1,0.3-0.2,0.6-0.3,0.9c-0.1,0.4-0.1,0.7-0.2,1.1
		c0,0.2,0,0.3,0.1,0.5c-0.2,0.3-0.3,0.6-0.4,0.8c-0.1,0.4-0.2,0.7-0.3,1.1c0,0.2,0,0.3,0.1,0.5c-0.2,0.3-0.3,0.6-0.4,0.8
		c-0.1,0.4-0.2,0.7-0.3,1.1c0,0.1,0,0.3,0.1,0.4c-0.2,0.2-0.3,0.5-0.4,0.7c-0.1,0.4-0.1,0.7-0.2,1.1c-0.1,0.4,0.5,0.9,1.3,1
		c0.9,0.1,1.7-0.2,1.7-0.7c0,0.5,0.6,0.9,1.4,0.9C345.3,185.2,346,184.8,346,184.3z"/>
</g>
<g>
	<path class="st14" d="M360.4,181.2c-0.1-0.4-0.1-0.7-0.2-1.1c-0.1-0.3-0.2-0.5-0.4-0.7c0.1-0.1,0.1-0.3,0.1-0.4
		c-0.1-0.4-0.2-0.7-0.3-1.1c-0.1-0.3-0.2-0.6-0.4-0.8c0.1-0.1,0.1-0.3,0.1-0.5c-0.1-0.4-0.2-0.7-0.3-1.1c-0.1-0.3-0.2-0.6-0.4-0.8
		c0.1-0.1,0.1-0.3,0.1-0.5c-0.1-0.4-0.1-0.7-0.2-1.1c-0.1-0.3-0.2-0.6-0.3-0.9c0.1-0.1,0.1-0.3,0.1-0.5c0-0.4-0.1-0.7-0.2-1.1
		c-0.3-1.8-1.7-3.3-3.7-3.3l0,0c-1.9,0-3.4,1.5-3.7,3.3c0,0.4-0.1,0.7-0.2,1.1c0,0.2,0,0.3,0.1,0.5c-0.1,0.3-0.2,0.6-0.3,0.9
		c-0.1,0.4-0.1,0.7-0.2,1.1c0,0.2,0,0.3,0.1,0.5c-0.2,0.3-0.3,0.6-0.4,0.8c-0.1,0.4-0.2,0.7-0.3,1.1c0,0.2,0,0.3,0.1,0.5
		c-0.2,0.3-0.3,0.6-0.4,0.8c-0.1,0.4-0.2,0.7-0.3,1.1c0,0.1,0,0.3,0.1,0.4c-0.2,0.2-0.3,0.5-0.4,0.7c-0.1,0.4-0.1,0.7-0.2,1.1
		c-0.1,0.4,0.5,0.9,1.3,1c0.9,0.1,1.7-0.2,1.7-0.7c0,0.5,0.6,0.9,1.4,0.9s1.5-0.4,1.5-0.8c0,0.5,0.7,0.9,1.5,0.8
		c0.8,0,1.5-0.5,1.4-0.9c0,0.5,0.8,0.8,1.7,0.7C360,182.1,360.5,181.7,360.4,181.2z"/>
	<path class="st15" d="M354.5,181.7c0,0.5,0.7,0.9,1.5,0.8c0.8,0,1.5-0.5,1.4-0.9c0,0.5,0.8,0.8,1.7,0.7c0.8-0.1,1.4-0.6,1.3-1
		s-0.1-0.7-0.2-1.1c-0.1-0.3-0.2-0.5-0.4-0.7c0.1-0.1,0.1-0.3,0.1-0.4l0,0c-1.1,0.4-2.8,0.6-4.8-0.3c-3-1.4-1.7-9.1-1.3-11.3
		c-1.5,0.3-2.8,1.6-3,3.2c0,0.4-0.1,0.7-0.2,1.1c0,0.2,0,0.3,0.1,0.5c-0.1,0.3-0.2,0.6-0.3,0.9c-0.1,0.4-0.1,0.7-0.2,1.1
		c0,0.2,0,0.3,0.1,0.5c-0.2,0.3-0.3,0.6-0.4,0.8c-0.1,0.4-0.2,0.7-0.3,1.1c0,0.2,0,0.3,0.1,0.5c-0.2,0.3-0.3,0.6-0.4,0.8
		c-0.1,0.4-0.2,0.7-0.3,1.1c0,0.1,0,0.3,0.1,0.4c-0.2,0.2-0.3,0.5-0.4,0.7c-0.1,0.4-0.1,0.7-0.2,1.1c-0.1,0.4,0.5,0.9,1.3,1
		c0.9,0.1,1.7-0.2,1.7-0.7c0,0.5,0.6,0.9,1.4,0.9C353.8,182.6,354.5,182.2,354.5,181.7z"/>
</g>
<g>
	<path class="st14" d="M369.5,181.3c-0.1-0.4-0.1-0.7-0.2-1.1c-0.1-0.3-0.2-0.5-0.4-0.7c0.1-0.1,0.1-0.3,0.1-0.4
		c-0.1-0.4-0.2-0.7-0.3-1.1c-0.1-0.3-0.2-0.6-0.4-0.8c0.1-0.1,0.1-0.3,0.1-0.5c-0.1-0.4-0.2-0.7-0.3-1.1c-0.1-0.3-0.2-0.6-0.4-0.8
		c0.1-0.1,0.1-0.3,0.1-0.5c-0.1-0.4-0.1-0.7-0.2-1.1c-0.1-0.3-0.2-0.6-0.3-0.9c0.1-0.1,0.1-0.3,0.1-0.5c0-0.4-0.1-0.7-0.2-1.1
		c-0.3-1.8-1.7-3.3-3.7-3.3l0,0c-1.9,0-3.4,1.5-3.7,3.3c0,0.4-0.1,0.7-0.2,1.1c0,0.2,0,0.3,0.1,0.5c-0.1,0.3-0.2,0.6-0.3,0.9
		c-0.1,0.4-0.1,0.7-0.2,1.1c0,0.2,0,0.3,0.1,0.5c-0.2,0.3-0.3,0.6-0.4,0.8c-0.1,0.4-0.2,0.7-0.3,1.1c0,0.2,0,0.3,0.1,0.5
		c-0.2,0.3-0.3,0.6-0.4,0.8c-0.1,0.4-0.2,0.7-0.3,1.1c0,0.1,0,0.3,0.1,0.4c-0.2,0.2-0.3,0.5-0.4,0.7c-0.1,0.4-0.1,0.7-0.2,1.1
		c-0.1,0.4,0.5,0.9,1.3,1c0.9,0.1,1.7-0.2,1.7-0.7c0,0.5,0.6,0.9,1.4,0.9s1.5-0.4,1.5-0.8c0,0.5,0.7,0.9,1.5,0.8
		c0.8,0,1.5-0.5,1.4-0.9c0,0.5,0.8,0.8,1.7,0.7C369.1,182.2,369.6,181.7,369.5,181.3z"/>
	<path class="st15" d="M363.6,181.8c0,0.5,0.7,0.9,1.5,0.8c0.8,0,1.5-0.5,1.4-0.9c0,0.5,0.8,0.8,1.7,0.7c0.8-0.1,1.4-0.6,1.3-1
		s-0.1-0.7-0.2-1.1c-0.1-0.3-0.2-0.5-0.4-0.7c0.1-0.1,0.1-0.3,0.1-0.4l0,0c-1.1,0.4-2.8,0.6-4.8-0.3c-3-1.4-1.7-9.1-1.3-11.3
		c-1.5,0.3-2.8,1.6-3,3.2c0,0.4-0.1,0.7-0.2,1.1c0,0.2,0,0.3,0.1,0.5c-0.1,0.3-0.2,0.6-0.3,0.9c-0.1,0.4-0.1,0.7-0.2,1.1
		c0,0.2,0,0.3,0.1,0.5c-0.2,0.3-0.3,0.6-0.4,0.8c-0.1,0.4-0.2,0.7-0.3,1.1c0,0.2,0,0.3,0.1,0.5c-0.2,0.3-0.3,0.6-0.4,0.8
		c-0.1,0.4-0.2,0.7-0.3,1.1c0,0.1,0,0.3,0.1,0.4c-0.2,0.2-0.3,0.5-0.4,0.7c-0.1,0.4-0.1,0.7-0.2,1.1c-0.1,0.4,0.5,0.9,1.3,1
		c0.9,0.1,1.7-0.2,1.7-0.7c0,0.5,0.6,0.9,1.4,0.9C362.9,182.7,363.6,182.3,363.6,181.8z"/>
</g>
<g>
	<path class="st14" d="M375.8,181.3c-0.1-0.4-0.1-0.7-0.2-1.1c-0.1-0.3-0.2-0.5-0.4-0.7c0.1-0.1,0.1-0.3,0.1-0.4
		c-0.1-0.4-0.2-0.7-0.3-1.1c-0.1-0.3-0.2-0.6-0.4-0.8c0.1-0.1,0.1-0.3,0.1-0.5c-0.1-0.4-0.2-0.7-0.3-1.1c-0.1-0.3-0.2-0.6-0.4-0.8
		c0.1-0.1,0.1-0.3,0.1-0.5c-0.1-0.4-0.1-0.7-0.2-1.1c-0.1-0.3-0.2-0.6-0.3-0.9c0.1-0.1,0.1-0.3,0.1-0.5c0-0.4-0.1-0.7-0.2-1.1
		c-0.3-1.8-1.7-3.3-3.7-3.3l0,0c-1.9,0-3.4,1.5-3.7,3.3c0,0.4-0.1,0.7-0.2,1.1c0,0.2,0,0.3,0.1,0.5c-0.1,0.3-0.2,0.6-0.3,0.9
		c-0.1,0.4-0.1,0.7-0.2,1.1c0,0.2,0,0.3,0.1,0.5c-0.2,0.3-0.3,0.6-0.4,0.8c-0.1,0.4-0.2,0.7-0.3,1.1c0,0.2,0,0.3,0.1,0.5
		c-0.2,0.3-0.3,0.6-0.4,0.8c-0.1,0.4-0.2,0.7-0.3,1.1c0,0.1,0,0.3,0.1,0.4c-0.2,0.2-0.3,0.5-0.4,0.7c-0.1,0.4-0.1,0.7-0.2,1.1
		c-0.1,0.4,0.5,0.9,1.3,1c0.9,0.1,1.7-0.2,1.7-0.7c0,0.5,0.6,0.9,1.4,0.9s1.5-0.4,1.5-0.8c0,0.5,0.7,0.9,1.5,0.8
		c0.8,0,1.5-0.5,1.4-0.9c0,0.5,0.8,0.8,1.7,0.7C375.3,182.2,375.9,181.7,375.8,181.3z"/>
	<path class="st15" d="M369.9,181.8c0,0.5,0.7,0.9,1.5,0.8c0.8,0,1.5-0.5,1.4-0.9c0,0.5,0.8,0.8,1.7,0.7c0.8-0.1,1.4-0.6,1.3-1
		s-0.1-0.7-0.2-1.1c-0.1-0.3-0.2-0.5-0.4-0.7c0.1-0.1,0.1-0.3,0.1-0.4l0,0c-1.1,0.4-2.8,0.6-4.8-0.3c-3-1.4-1.7-9.1-1.3-11.3
		c-1.5,0.3-2.8,1.6-3,3.2c0,0.4-0.1,0.7-0.2,1.1c0,0.2,0,0.3,0.1,0.5c-0.1,0.3-0.2,0.6-0.3,0.9c-0.1,0.4-0.1,0.7-0.2,1.1
		c0,0.2,0,0.3,0.1,0.5c-0.2,0.3-0.3,0.6-0.4,0.8c-0.1,0.4-0.2,0.7-0.3,1.1c0,0.2,0,0.3,0.1,0.5c-0.2,0.3-0.3,0.6-0.4,0.8
		c-0.1,0.4-0.2,0.7-0.3,1.1c0,0.1,0,0.3,0.1,0.4c-0.2,0.2-0.3,0.5-0.4,0.7c-0.1,0.4-0.1,0.7-0.2,1.1c-0.1,0.4,0.5,0.9,1.3,1
		c0.9,0.1,1.7-0.2,1.7-0.7c0,0.5,0.6,0.9,1.4,0.9C369.2,182.7,369.9,182.3,369.9,181.8z"/>
</g>
<g>
	<path class="st14" d="M303.8,182.7c-0.1-0.4-0.1-0.7-0.2-1.1c-0.1-0.3-0.2-0.5-0.4-0.7c0.1-0.1,0.1-0.3,0.1-0.4
		c-0.1-0.4-0.2-0.7-0.3-1.1c-0.1-0.3-0.2-0.6-0.4-0.8c0.1-0.1,0.1-0.3,0.1-0.5c-0.1-0.4-0.2-0.7-0.3-1.1c-0.1-0.3-0.2-0.6-0.4-0.8
		c0.1-0.1,0.1-0.3,0.1-0.5c-0.1-0.4-0.1-0.7-0.2-1.1c-0.1-0.3-0.2-0.6-0.3-0.9c0.1-0.1,0.1-0.3,0.1-0.5c0-0.4-0.1-0.7-0.2-1.1
		c-0.3-1.8-1.7-3.3-3.7-3.3l0,0c-1.9,0-3.4,1.5-3.7,3.3c0,0.4-0.1,0.7-0.2,1.1c0,0.2,0,0.3,0.1,0.5c-0.1,0.3-0.2,0.6-0.3,0.9
		c-0.1,0.4-0.1,0.7-0.2,1.1c0,0.2,0,0.3,0.1,0.5c-0.2,0.3-0.3,0.6-0.4,0.8c-0.1,0.4-0.2,0.7-0.3,1.1c0,0.2,0,0.3,0.1,0.5
		c-0.2,0.3-0.3,0.6-0.4,0.8c-0.1,0.4-0.2,0.7-0.3,1.1c0,0.1,0,0.3,0.1,0.4c-0.2,0.2-0.3,0.5-0.4,0.7c-0.1,0.4-0.1,0.7-0.2,1.1
		c-0.1,0.4,0.5,0.9,1.3,1c0.9,0.1,1.7-0.2,1.7-0.7c0,0.5,0.6,0.9,1.4,0.9s1.5-0.4,1.5-0.8c0,0.5,0.7,0.9,1.5,0.8
		c0.8,0,1.5-0.5,1.4-0.9c0,0.5,0.8,0.8,1.7,0.7C303.3,183.6,303.8,183.2,303.8,182.7z"/>
	<path class="st15" d="M297.9,183.2c0,0.5,0.7,0.9,1.5,0.8c0.8,0,1.5-0.5,1.4-0.9c0,0.5,0.8,0.8,1.7,0.7c0.8-0.1,1.4-0.6,1.3-1
		s-0.1-0.7-0.2-1.1c-0.1-0.3-0.2-0.5-0.4-0.7c0.1-0.1,0.1-0.3,0.1-0.4l0,0c-1.1,0.4-2.8,0.6-4.8-0.3c-3-1.4-1.7-9.1-1.3-11.3
		c-1.5,0.3-2.8,1.6-3,3.2c0,0.4-0.1,0.7-0.2,1.1c0,0.2,0,0.3,0.1,0.5c-0.1,0.3-0.2,0.6-0.3,0.9c-0.1,0.4-0.1,0.7-0.2,1.1
		c0,0.2,0,0.3,0.1,0.5c-0.2,0.3-0.3,0.6-0.4,0.8c-0.1,0.4-0.2,0.7-0.3,1.1c0,0.2,0,0.3,0.1,0.5c-0.2,0.3-0.3,0.6-0.4,0.8
		c-0.1,0.4-0.2,0.7-0.3,1.1c0,0.1,0,0.3,0.1,0.4c-0.2,0.2-0.3,0.5-0.4,0.7c-0.1,0.4-0.1,0.7-0.2,1.1c-0.1,0.4,0.5,0.9,1.3,1
		c0.9,0.1,1.7-0.2,1.7-0.7c0,0.5,0.6,0.9,1.4,0.9C297.2,184.1,297.9,183.7,297.9,183.2z"/>
</g>
<g>
	<path class="st14" d="M238.4,180c-0.1-0.4-0.1-0.7-0.2-1.1c-0.1-0.3-0.2-0.5-0.4-0.7c0.1-0.1,0.1-0.3,0.1-0.4
		c-0.1-0.4-0.2-0.7-0.3-1.1c-0.1-0.3-0.2-0.6-0.4-0.8c0.1-0.1,0.1-0.3,0.1-0.5c-0.1-0.4-0.2-0.7-0.3-1.1c-0.1-0.3-0.2-0.6-0.4-0.8
		c0.1-0.1,0.1-0.3,0.1-0.5c-0.1-0.4-0.1-0.7-0.2-1.1c-0.1-0.3-0.2-0.6-0.3-0.9c0.1-0.1,0.1-0.3,0.1-0.5c0-0.4-0.1-0.7-0.2-1.1
		c-0.3-1.8-1.7-3.3-3.7-3.3l0,0c-1.9,0-3.4,1.5-3.7,3.3c0,0.4-0.1,0.7-0.2,1.1c0,0.2,0,0.3,0.1,0.5c-0.1,0.3-0.2,0.6-0.3,0.9
		c-0.1,0.4-0.1,0.7-0.2,1.1c0,0.2,0,0.3,0.1,0.5c-0.2,0.3-0.3,0.6-0.4,0.8c-0.1,0.4-0.2,0.7-0.3,1.1c0,0.2,0,0.3,0.1,0.5
		c-0.2,0.3-0.3,0.6-0.4,0.8c-0.1,0.4-0.2,0.7-0.3,1.1c0,0.1,0,0.3,0.1,0.4c-0.2,0.2-0.3,0.5-0.4,0.7c-0.1,0.4-0.1,0.7-0.2,1.1
		c-0.1,0.4,0.5,0.9,1.3,1c0.9,0.1,1.7-0.2,1.7-0.7c0,0.5,0.6,0.9,1.4,0.9c0.8,0,1.5-0.4,1.5-0.8c0,0.5,0.7,0.9,1.5,0.8
		c0.8,0,1.5-0.5,1.4-0.9c0,0.5,0.8,0.8,1.7,0.7C237.9,181,238.5,180.5,238.4,180z"/>
	<path class="st15" d="M232.4,180.5c0,0.5,0.7,0.9,1.5,0.8c0.8,0,1.5-0.5,1.4-0.9c0,0.5,0.8,0.8,1.7,0.7c0.8-0.1,1.4-0.6,1.3-1
		c-0.1-0.4-0.1-0.7-0.2-1.1c-0.1-0.3-0.2-0.5-0.4-0.7c0.1-0.1,0.1-0.3,0.1-0.4l0,0c-1.1,0.4-2.8,0.6-4.8-0.3
		c-3-1.4-1.7-9.1-1.3-11.3c-1.5,0.3-2.8,1.6-3,3.2c0,0.4-0.1,0.7-0.2,1.1c0,0.2,0,0.3,0.1,0.5c-0.1,0.3-0.2,0.6-0.3,0.9
		c-0.1,0.4-0.1,0.7-0.2,1.1c0,0.2,0,0.3,0.1,0.5c-0.2,0.3-0.3,0.6-0.4,0.8c-0.1,0.4-0.2,0.7-0.3,1.1c0,0.2,0,0.3,0.1,0.5
		c-0.2,0.3-0.3,0.6-0.4,0.8c-0.1,0.4-0.2,0.7-0.3,1.1c0,0.1,0,0.3,0.1,0.4c-0.2,0.2-0.3,0.5-0.4,0.7c-0.1,0.4-0.1,0.7-0.2,1.1
		c-0.1,0.4,0.5,0.9,1.3,1c0.9,0.1,1.7-0.2,1.7-0.7c0,0.5,0.6,0.9,1.4,0.9C231.8,181.4,232.4,181,232.4,180.5z"/>
</g>
<g>
	<path class="st14" d="M247.8,180.1c-0.1-0.4-0.1-0.7-0.2-1.1c-0.1-0.3-0.2-0.5-0.4-0.7c0.1-0.1,0.1-0.3,0.1-0.4
		c-0.1-0.4-0.2-0.7-0.3-1.1c-0.1-0.3-0.2-0.6-0.4-0.8c0.1-0.1,0.1-0.3,0.1-0.5c-0.1-0.4-0.2-0.7-0.3-1.1c-0.1-0.3-0.2-0.6-0.4-0.8
		c0.1-0.1,0.1-0.3,0.1-0.5c-0.1-0.4-0.1-0.7-0.2-1.1c-0.1-0.3-0.2-0.6-0.3-0.9c0.1-0.1,0.1-0.3,0.1-0.5c0-0.4-0.1-0.7-0.2-1.1
		c-0.3-1.8-1.7-3.3-3.7-3.3l0,0c-1.9,0-3.4,1.5-3.7,3.3c0,0.4-0.1,0.7-0.2,1.1c0,0.2,0,0.3,0.1,0.5c-0.1,0.3-0.2,0.6-0.3,0.9
		c-0.1,0.4-0.1,0.7-0.2,1.1c0,0.2,0,0.3,0.1,0.5c-0.2,0.3-0.3,0.6-0.4,0.8c-0.1,0.4-0.2,0.7-0.3,1.1c0,0.2,0,0.3,0.1,0.5
		c-0.2,0.3-0.3,0.6-0.4,0.8c-0.1,0.4-0.2,0.7-0.3,1.1c0,0.1,0,0.3,0.1,0.4c-0.2,0.2-0.3,0.5-0.4,0.7c-0.1,0.4-0.1,0.7-0.2,1.1
		c-0.1,0.4,0.5,0.9,1.3,1c0.9,0.1,1.7-0.2,1.7-0.7c0,0.5,0.6,0.9,1.4,0.9c0.8,0,1.5-0.4,1.5-0.8c0,0.5,0.7,0.9,1.5,0.8
		c0.8,0,1.5-0.5,1.4-0.9c0,0.5,0.8,0.8,1.7,0.7C247.3,181.1,247.9,180.5,247.8,180.1z"/>
	<path class="st15" d="M241.8,180.6c0,0.5,0.7,0.9,1.5,0.8c0.8,0,1.5-0.5,1.4-0.9c0,0.5,0.8,0.8,1.7,0.7c0.8-0.1,1.4-0.6,1.3-1
		c-0.1-0.4-0.1-0.7-0.2-1.1c-0.1-0.3-0.2-0.5-0.4-0.7c0.1-0.1,0.1-0.3,0.1-0.4l0,0c-1.1,0.4-2.8,0.6-4.8-0.3
		c-3-1.4-1.7-9.1-1.3-11.3c-1.5,0.3-2.8,1.6-3,3.2c0,0.4-0.1,0.7-0.2,1.1c0,0.2,0,0.3,0.1,0.5c-0.1,0.3-0.2,0.6-0.3,0.9
		c-0.1,0.4-0.1,0.7-0.2,1.1c0,0.2,0,0.3,0.1,0.5c-0.2,0.3-0.3,0.6-0.4,0.8c-0.1,0.4-0.2,0.7-0.3,1.1c0,0.2,0,0.3,0.1,0.5
		c-0.2,0.3-0.3,0.6-0.4,0.8c-0.1,0.4-0.2,0.7-0.3,1.1c0,0.1,0,0.3,0.1,0.4c-0.2,0.2-0.3,0.5-0.4,0.7c-0.1,0.4-0.1,0.7-0.2,1.1
		c-0.1,0.4,0.5,0.9,1.3,1c0.9,0.1,1.7-0.2,1.7-0.7c0,0.5,0.6,0.9,1.4,0.9C241.2,181.5,241.8,181.1,241.8,180.6z"/>
</g>
<g>
	<path class="st14" d="M264.8,180.5c-0.1-0.4-0.1-0.7-0.2-1.1c-0.1-0.3-0.2-0.5-0.4-0.7c0.1-0.1,0.1-0.3,0.1-0.4
		c-0.1-0.4-0.2-0.7-0.3-1.1c-0.1-0.3-0.2-0.6-0.4-0.8c0.1-0.1,0.1-0.3,0.1-0.5c-0.1-0.4-0.2-0.7-0.3-1.1c-0.1-0.3-0.2-0.6-0.4-0.8
		c0.1-0.1,0.1-0.3,0.1-0.5c-0.1-0.4-0.1-0.7-0.2-1.1c-0.1-0.3-0.2-0.6-0.3-0.9c0.1-0.1,0.1-0.3,0.1-0.5c0-0.4-0.1-0.7-0.2-1.1
		c-0.3-1.8-1.7-3.3-3.7-3.3l0,0c-1.9,0-3.4,1.5-3.7,3.3c0,0.4-0.1,0.7-0.2,1.1c0,0.2,0,0.3,0.1,0.5c-0.1,0.3-0.2,0.6-0.3,0.9
		c-0.1,0.4-0.1,0.7-0.2,1.1c0,0.2,0,0.3,0.1,0.5c-0.2,0.3-0.3,0.6-0.4,0.8c-0.1,0.4-0.2,0.7-0.3,1.1c0,0.2,0,0.3,0.1,0.5
		c-0.2,0.3-0.3,0.6-0.4,0.8c-0.1,0.4-0.2,0.7-0.3,1.1c0,0.1,0,0.3,0.1,0.4c-0.2,0.2-0.3,0.5-0.4,0.7c-0.1,0.4-0.1,0.7-0.2,1.1
		c-0.1,0.4,0.5,0.9,1.3,1c0.9,0.1,1.7-0.2,1.7-0.7c0,0.5,0.6,0.9,1.4,0.9c0.8,0,1.5-0.4,1.5-0.8c0,0.5,0.7,0.9,1.5,0.8
		c0.8,0,1.5-0.5,1.4-0.9c0,0.5,0.8,0.8,1.7,0.7C264.4,181.4,264.9,180.9,264.8,180.5z"/>
	<path class="st15" d="M258.9,181c0,0.5,0.7,0.9,1.5,0.8c0.8,0,1.5-0.5,1.4-0.9c0,0.5,0.8,0.8,1.7,0.7c0.8-0.1,1.4-0.6,1.3-1
		s-0.1-0.7-0.2-1.1c-0.1-0.3-0.2-0.5-0.4-0.7c0.1-0.1,0.1-0.3,0.1-0.4l0,0c-1.1,0.4-2.8,0.6-4.8-0.3c-3-1.4-1.7-9.1-1.3-11.3
		c-1.5,0.3-2.8,1.6-3,3.2c0,0.4-0.1,0.7-0.2,1.1c0,0.2,0,0.3,0.1,0.5c-0.1,0.3-0.2,0.6-0.3,0.9c-0.1,0.4-0.1,0.7-0.2,1.1
		c0,0.2,0,0.3,0.1,0.5c-0.2,0.3-0.3,0.6-0.4,0.8c-0.1,0.4-0.2,0.7-0.3,1.1c0,0.2,0,0.3,0.1,0.5c-0.2,0.3-0.3,0.6-0.4,0.8
		c-0.1,0.4-0.2,0.7-0.3,1.1c0,0.1,0,0.3,0.1,0.4c-0.2,0.2-0.3,0.5-0.4,0.7c-0.1,0.4-0.1,0.7-0.2,1.1c-0.1,0.4,0.5,0.9,1.3,1
		c0.9,0.1,1.7-0.2,1.7-0.7c0,0.5,0.6,0.9,1.4,0.9C258.2,181.9,258.9,181.4,258.9,181z"/>
</g>
<g>
	<path class="st14" d="M274.2,181.7c-0.1-0.4-0.1-0.7-0.2-1.1c-0.1-0.3-0.2-0.5-0.4-0.7c0.1-0.1,0.1-0.3,0.1-0.4
		c-0.1-0.4-0.2-0.7-0.3-1.1c-0.1-0.3-0.2-0.6-0.4-0.8c0.1-0.1,0.1-0.3,0.1-0.5c-0.1-0.4-0.2-0.7-0.3-1.1c-0.1-0.3-0.2-0.6-0.4-0.8
		c0.1-0.1,0.1-0.3,0.1-0.5c-0.1-0.4-0.1-0.7-0.2-1.1c-0.1-0.3-0.2-0.6-0.3-0.9c0.1-0.1,0.1-0.3,0.1-0.5c0-0.4-0.1-0.7-0.2-1.1
		c-0.3-1.8-1.7-3.3-3.7-3.3l0,0c-1.9,0-3.4,1.5-3.7,3.3c0,0.4-0.1,0.7-0.2,1.1c0,0.2,0,0.3,0.1,0.5c-0.1,0.3-0.2,0.6-0.3,0.9
		c-0.1,0.4-0.1,0.7-0.2,1.1c0,0.2,0,0.3,0.1,0.5c-0.2,0.3-0.3,0.6-0.4,0.8c-0.1,0.4-0.2,0.7-0.3,1.1c0,0.2,0,0.3,0.1,0.5
		c-0.2,0.3-0.3,0.6-0.4,0.8c-0.1,0.4-0.2,0.7-0.3,1.1c0,0.1,0,0.3,0.1,0.4c-0.2,0.2-0.3,0.5-0.4,0.7c-0.1,0.4-0.1,0.7-0.2,1.1
		c-0.1,0.4,0.5,0.9,1.3,1c0.9,0.1,1.7-0.2,1.7-0.7c0,0.5,0.6,0.9,1.4,0.9s1.5-0.4,1.5-0.8c0,0.5,0.7,0.9,1.5,0.8
		c0.8,0,1.5-0.5,1.4-0.9c0,0.5,0.8,0.8,1.7,0.7C273.7,182.6,274.3,182.1,274.2,181.7z"/>
	<path class="st15" d="M268.3,182.2c0,0.5,0.7,0.9,1.5,0.8c0.8,0,1.5-0.5,1.4-0.9c0,0.5,0.8,0.8,1.7,0.7c0.8-0.1,1.4-0.6,1.3-1
		s-0.1-0.7-0.2-1.1c-0.1-0.3-0.2-0.5-0.4-0.7c0.1-0.1,0.1-0.3,0.1-0.4l0,0c-1.1,0.4-2.8,0.6-4.8-0.3c-3-1.4-1.7-9.1-1.3-11.3
		c-1.5,0.3-2.8,1.6-3,3.2c0,0.4-0.1,0.7-0.2,1.1c0,0.2,0,0.3,0.1,0.5c-0.1,0.3-0.2,0.6-0.3,0.9c-0.1,0.4-0.1,0.7-0.2,1.1
		c0,0.2,0,0.3,0.1,0.5c-0.2,0.3-0.3,0.6-0.4,0.8c-0.1,0.4-0.2,0.7-0.3,1.1c0,0.2,0,0.3,0.1,0.5c-0.2,0.3-0.3,0.6-0.4,0.8
		c-0.1,0.4-0.2,0.7-0.3,1.1c0,0.1,0,0.3,0.1,0.4c-0.2,0.2-0.3,0.5-0.4,0.7c-0.1,0.4-0.1,0.7-0.2,1.1c-0.1,0.4,0.5,0.9,1.3,1
		c0.9,0.1,1.7-0.2,1.7-0.7c0,0.5,0.6,0.9,1.4,0.9C267.6,183.1,268.3,182.7,268.3,182.2z"/>
</g>
<g>
	<path class="st14" d="M280.7,184c-0.1-0.4-0.1-0.7-0.2-1.1c-0.1-0.3-0.2-0.5-0.4-0.7c0.1-0.1,0.1-0.3,0.1-0.4
		c-0.1-0.4-0.2-0.7-0.3-1.1c-0.1-0.3-0.2-0.6-0.4-0.8c0.1-0.1,0.1-0.3,0.1-0.5c-0.1-0.4-0.2-0.7-0.3-1.1c-0.1-0.3-0.2-0.6-0.4-0.8
		c0.1-0.1,0.1-0.3,0.1-0.5c-0.1-0.4-0.1-0.7-0.2-1.1c-0.1-0.3-0.2-0.6-0.3-0.9c0.1-0.1,0.1-0.3,0.1-0.5c0-0.4-0.1-0.7-0.2-1.1
		c-0.3-1.8-1.7-3.3-3.7-3.3l0,0c-1.9,0-3.4,1.5-3.7,3.3c0,0.4-0.1,0.7-0.2,1.1c0,0.2,0,0.3,0.1,0.5c-0.1,0.3-0.2,0.6-0.3,0.9
		c-0.1,0.4-0.1,0.7-0.2,1.1c0,0.2,0,0.3,0.1,0.5c-0.2,0.3-0.3,0.6-0.4,0.8c-0.1,0.4-0.2,0.7-0.3,1.1c0,0.2,0,0.3,0.1,0.5
		c-0.2,0.3-0.3,0.6-0.4,0.8c-0.1,0.4-0.2,0.7-0.3,1.1c0,0.1,0,0.3,0.1,0.4c-0.2,0.2-0.3,0.5-0.4,0.7c-0.1,0.4-0.1,0.7-0.2,1.1
		c-0.1,0.4,0.5,0.9,1.3,1c0.9,0.1,1.7-0.2,1.7-0.7c0,0.5,0.6,0.9,1.4,0.9s1.5-0.4,1.5-0.8c0,0.5,0.7,0.9,1.5,0.8
		c0.8,0,1.5-0.5,1.4-0.9c0,0.5,0.8,0.8,1.7,0.7C280.2,184.9,280.7,184.4,280.7,184z"/>
	<path class="st15" d="M274.7,184.5c0,0.5,0.7,0.9,1.5,0.8c0.8,0,1.5-0.5,1.4-0.9c0,0.5,0.8,0.8,1.7,0.7c0.8-0.1,1.4-0.6,1.3-1
		s-0.1-0.7-0.2-1.1c-0.1-0.3-0.2-0.5-0.4-0.7c0.1-0.1,0.1-0.3,0.1-0.4l0,0c-1.1,0.4-2.8,0.6-4.8-0.3c-3-1.4-1.7-9.1-1.3-11.3
		c-1.5,0.3-2.8,1.6-3,3.2c0,0.4-0.1,0.7-0.2,1.1c0,0.2,0,0.3,0.1,0.5c-0.1,0.3-0.2,0.6-0.3,0.9c-0.1,0.4-0.1,0.7-0.2,1.1
		c0,0.2,0,0.3,0.1,0.5c-0.2,0.3-0.3,0.6-0.4,0.8c-0.1,0.4-0.2,0.7-0.3,1.1c0,0.2,0,0.3,0.1,0.5c-0.2,0.3-0.3,0.6-0.4,0.8
		c-0.1,0.4-0.2,0.7-0.3,1.1c0,0.1,0,0.3,0.1,0.4c-0.2,0.2-0.3,0.5-0.4,0.7c-0.1,0.4-0.1,0.7-0.2,1.1c-0.1,0.4,0.5,0.9,1.3,1
		c0.9,0.1,1.7-0.2,1.7-0.7c0,0.5,0.6,0.9,1.4,0.9C274,185.4,274.7,184.9,274.7,184.5z"/>
</g>
<g>
	<path class="st14" d="M256.8,182.1c-0.1-0.4-0.1-0.7-0.2-1.1c-0.1-0.3-0.2-0.5-0.4-0.7c0.1-0.1,0.1-0.3,0.1-0.4
		c-0.1-0.4-0.2-0.7-0.3-1.1c-0.1-0.3-0.2-0.6-0.4-0.8c0.1-0.1,0.1-0.3,0.1-0.5c-0.1-0.4-0.2-0.7-0.3-1.1c-0.1-0.3-0.2-0.6-0.4-0.8
		c0.1-0.1,0.1-0.3,0.1-0.5c-0.1-0.4-0.1-0.7-0.2-1.1c-0.1-0.3-0.2-0.6-0.3-0.9c0.1-0.1,0.1-0.3,0.1-0.5c0-0.4-0.1-0.7-0.2-1.1
		c-0.3-1.8-1.7-3.3-3.7-3.3l0,0c-1.9,0-3.4,1.5-3.7,3.3c0,0.4-0.1,0.7-0.2,1.1c0,0.2,0,0.3,0.1,0.5c-0.1,0.3-0.2,0.6-0.3,0.9
		c-0.1,0.4-0.1,0.7-0.2,1.1c0,0.2,0,0.3,0.1,0.5c-0.2,0.3-0.3,0.6-0.4,0.8c-0.1,0.4-0.2,0.7-0.3,1.1c0,0.2,0,0.3,0.1,0.5
		c-0.2,0.3-0.3,0.6-0.4,0.8c-0.1,0.4-0.2,0.7-0.3,1.1c0,0.1,0,0.3,0.1,0.4c-0.2,0.2-0.3,0.5-0.4,0.7c-0.1,0.4-0.1,0.7-0.2,1.1
		c-0.1,0.4,0.5,0.9,1.3,1c0.9,0.1,1.7-0.2,1.7-0.7c0,0.5,0.6,0.9,1.4,0.9c0.8,0,1.5-0.4,1.5-0.8c0,0.5,0.7,0.9,1.5,0.8
		c0.8,0,1.5-0.5,1.4-0.9c0,0.5,0.8,0.8,1.7,0.7C256.3,183.1,256.8,182.6,256.8,182.1z"/>
	<path class="st15" d="M250.8,182.6c0,0.5,0.7,0.9,1.5,0.8c0.8,0,1.5-0.5,1.4-0.9c0,0.5,0.8,0.8,1.7,0.7c0.8-0.1,1.4-0.6,1.3-1
		s-0.1-0.7-0.2-1.1c-0.1-0.3-0.2-0.5-0.4-0.7c0.1-0.1,0.1-0.3,0.1-0.4l0,0c-1.1,0.4-2.8,0.6-4.8-0.3c-3-1.4-1.7-9.1-1.3-11.3
		c-1.5,0.3-2.8,1.6-3,3.2c0,0.4-0.1,0.7-0.2,1.1c0,0.2,0,0.3,0.1,0.5c-0.1,0.3-0.2,0.6-0.3,0.9c-0.1,0.4-0.1,0.7-0.2,1.1
		c0,0.2,0,0.3,0.1,0.5c-0.2,0.3-0.3,0.6-0.4,0.8c-0.1,0.4-0.2,0.7-0.3,1.1c0,0.2,0,0.3,0.1,0.5c-0.2,0.3-0.3,0.6-0.4,0.8
		c-0.1,0.4-0.2,0.7-0.3,1.1c0,0.1,0,0.3,0.1,0.4c-0.2,0.2-0.3,0.5-0.4,0.7c-0.1,0.4-0.1,0.7-0.2,1.1c-0.1,0.4,0.5,0.9,1.3,1
		c0.9,0.1,1.7-0.2,1.7-0.7c0,0.5,0.6,0.9,1.4,0.9C250.1,183.5,250.8,183.1,250.8,182.6z"/>
</g>
<path class="st16" d="M356.8,47.7h-36.2c-1.8,0-3.3-1.5-3.3-3.3s-1.5-3.3-3.3-3.3h-13.1c-2.1,0-3.8-1.7-3.8-3.8s1.7-3.8,3.8-3.8
	h16.7c1.9,0,3.5-1.5,3.5-3.5s-1.5-3.5-3.5-3.5h-30.3c-1.4,0-2.4-1.1-2.4-2.4l0,0v-0.3c0-1.4,1.1-2.4,2.4-2.5l0,0h55.5
	c1.4,0,2.4,1.1,2.4,2.5s-1.1,2.4-2.4,2.4h-8.6c-2.1,0-3.9,1.7-3.9,3.9c0,1.7,1.4,3,3,3l0,0h8.3c1.7,0,3,1.4,3,3s1.4,3,3,3h9.2
	c2.3,0,4.2,1.9,4.2,4.2C361,45.8,359.1,47.7,356.8,47.7L356.8,47.7"/>
<path class="st17" d="M286.6,42h-80.8c-2.8,0-5,2.2-5,5s-2.2,5-5,5l0,0H176c-3.1,0-5.7,2.5-5.7,5.7s2.5,5.7,5.7,5.7h25.2
	c2.9,0,5.2,2.4,5.2,5.3s-2.3,5.1-5.2,5.2h-45.8c-2.1,0-3.7,1.7-3.7,3.7l0,0V78c0,2.1,1.6,3.7,3.7,3.7l0,0h83.9
	c2.1,0,3.7-1.7,3.7-3.7s-1.7-3.7-3.7-3.7h-13c-3.2,0-5.9-2.7-5.8-5.9l0,0c0-2.5,2-4.6,4.6-4.6h12.6c2.5,0,4.6-2.1,4.6-4.6
	s2-4.6,4.6-4.6h40c3.5,0,6.4-2.9,6.4-6.4S290.1,42,286.6,42"/>
<path class="st17" d="M69.6,56.9H55.4c-2.3,0-4.2,1.8-4.2,4.1l0,0c0,2.3-1.8,4.3-4.1,4.3c0,0,0,0-0.1,0H22.6c-2.7,0-4.9,2-5.2,4.7
	c-0.2,2.8,1.9,5.2,4.7,5.4c0.1,0,0.2,0,0.3,0h7.1c2.5,0,4.6,1.9,4.7,4.4s-1.9,4.6-4.4,4.7h-0.1h-45.3c-2.5,0-4.6,1.8-5,4.3
	c-0.4,2.7,1.5,5.1,4.2,5.5c0.2,0,0.4,0,0.6,0H52c2,0,3.6-1.6,3.6-3.6v-0.3c0-2-1.6-3.6-3.6-3.6h-1c-2,0-3.6-1.6-3.6-3.6
	s1.6-3.5,3.6-3.6h22.7c2,0,3.6,1.6,3.6,3.6s-1.6,3.5-3.6,3.6h-7.1c-2,0-3.6,1.6-3.6,3.6l0,0v0.3c0,2,1.6,3.6,3.6,3.6l0,0H112
	c2.6,0,4.8-2,4.9-4.6s-1.9-4.8-4.5-4.9h-0.1H91.4c-1.6,0-3-1.2-3.2-2.8c-0.2-1.7,1.1-3.2,2.7-3.4c0.1,0,0.2,0,0.3,0h11.5
	c2.4,0,4.4-1.9,4.5-4.3s-1.8-4.4-4.2-4.5h-0.1H82.6c-3.6,0-6.4-3-6.5-6.7C76,59.7,73.2,56.9,69.6,56.9"/>
<g>
	<path class="st14" d="M383.4,184.2c-0.1-0.4-0.1-0.7-0.2-1.1c-0.1-0.3-0.2-0.5-0.4-0.7c0.1-0.1,0.1-0.3,0.1-0.4
		c-0.1-0.4-0.2-0.7-0.3-1.1c-0.1-0.3-0.2-0.6-0.4-0.8c0.1-0.1,0.1-0.3,0.1-0.5c-0.1-0.4-0.2-0.7-0.3-1.1c-0.1-0.3-0.2-0.6-0.4-0.8
		c0.1-0.1,0.1-0.3,0.1-0.5c-0.1-0.4-0.1-0.7-0.2-1.1c-0.1-0.3-0.2-0.6-0.3-0.9c0.1-0.1,0.1-0.3,0.1-0.5c0-0.4-0.1-0.7-0.2-1.1
		c-0.3-1.8-1.7-3.3-3.7-3.3l0,0c-1.9,0-3.4,1.5-3.7,3.3c0,0.4-0.1,0.7-0.2,1.1c0,0.2,0,0.3,0.1,0.5c-0.1,0.3-0.2,0.6-0.3,0.9
		c-0.1,0.4-0.1,0.7-0.2,1.1c0,0.2,0,0.3,0.1,0.5c-0.2,0.3-0.3,0.6-0.4,0.8c-0.1,0.4-0.2,0.7-0.3,1.1c0,0.2,0,0.3,0.1,0.5
		c-0.2,0.3-0.3,0.6-0.4,0.8c-0.1,0.4-0.2,0.7-0.3,1.1c0,0.1,0,0.3,0.1,0.4c-0.2,0.2-0.3,0.5-0.4,0.7c-0.1,0.4-0.1,0.7-0.2,1.1
		c-0.1,0.4,0.5,0.9,1.3,1c0.9,0.1,1.7-0.2,1.7-0.7c0,0.5,0.6,0.9,1.4,0.9s1.5-0.4,1.5-0.8c0,0.5,0.7,0.9,1.5,0.8
		c0.8,0,1.5-0.5,1.4-0.9c0,0.5,0.8,0.8,1.7,0.7C383,185.1,383.5,184.7,383.4,184.2z"/>
	<path class="st15" d="M377.5,184.7c0,0.5,0.7,0.9,1.5,0.8c0.8,0,1.5-0.5,1.4-0.9c0,0.5,0.8,0.8,1.7,0.7c0.8-0.1,1.4-0.6,1.3-1
		s-0.1-0.7-0.2-1.1c-0.1-0.3-0.2-0.5-0.4-0.7c0.1-0.1,0.1-0.3,0.1-0.4l0,0c-1.1,0.4-2.8,0.6-4.8-0.3c-3-1.4-1.7-9.1-1.3-11.3
		c-1.5,0.3-2.8,1.6-3,3.2c0,0.4-0.1,0.7-0.2,1.1c0,0.2,0,0.3,0.1,0.5c-0.1,0.3-0.2,0.6-0.3,0.9c-0.1,0.4-0.1,0.7-0.2,1.1
		c0,0.2,0,0.3,0.1,0.5c-0.2,0.3-0.3,0.6-0.4,0.8c-0.1,0.4-0.2,0.7-0.3,1.1c0,0.2,0,0.3,0.1,0.5c-0.2,0.3-0.3,0.6-0.4,0.8
		c-0.1,0.4-0.2,0.7-0.3,1.1c0,0.1,0,0.3,0.1,0.4c-0.2,0.2-0.3,0.5-0.4,0.7c-0.1,0.4-0.1,0.7-0.2,1.1c-0.1,0.4,0.5,0.9,1.3,1
		c0.9,0.1,1.7-0.2,1.7-0.7c0,0.5,0.6,0.9,1.4,0.9C376.8,185.6,377.5,185.2,377.5,184.7z"/>
</g>
<g>
	<path class="st14" d="M392.5,184.3c-0.1-0.4-0.1-0.7-0.2-1.1c-0.1-0.3-0.2-0.5-0.4-0.7c0.1-0.1,0.1-0.3,0.1-0.4
		c-0.1-0.4-0.2-0.7-0.3-1.1c-0.1-0.3-0.2-0.6-0.4-0.8c0.1-0.1,0.1-0.3,0.1-0.5c-0.1-0.4-0.2-0.7-0.3-1.1c-0.1-0.3-0.2-0.6-0.4-0.8
		c0.1-0.1,0.1-0.3,0.1-0.5c-0.1-0.4-0.1-0.7-0.2-1.1c-0.1-0.3-0.2-0.6-0.3-0.9c0.1-0.1,0.1-0.3,0.1-0.5c0-0.4-0.1-0.7-0.2-1.1
		c-0.3-1.8-1.7-3.3-3.7-3.3l0,0c-1.9,0-3.4,1.5-3.7,3.3c0,0.4-0.1,0.7-0.2,1.1c0,0.2,0,0.3,0.1,0.5c-0.1,0.3-0.2,0.6-0.3,0.9
		c-0.1,0.4-0.1,0.7-0.2,1.1c0,0.2,0,0.3,0.1,0.5c-0.2,0.3-0.3,0.6-0.4,0.8c-0.1,0.4-0.2,0.7-0.3,1.1c0,0.2,0,0.3,0.1,0.5
		c-0.2,0.3-0.3,0.6-0.4,0.8c-0.1,0.4-0.2,0.7-0.3,1.1c0,0.1,0,0.3,0.1,0.4c-0.2,0.2-0.3,0.5-0.4,0.7c-0.1,0.4-0.1,0.7-0.2,1.1
		c-0.1,0.4,0.5,0.9,1.3,1c0.9,0.1,1.7-0.2,1.7-0.7c0,0.5,0.6,0.9,1.4,0.9s1.5-0.4,1.5-0.8c0,0.5,0.7,0.9,1.5,0.8
		c0.8,0,1.5-0.5,1.4-0.9c0,0.5,0.8,0.8,1.7,0.7C392.1,185.2,392.6,184.7,392.5,184.3z"/>
	<path class="st15" d="M386.6,184.8c0,0.5,0.7,0.9,1.5,0.8c0.8,0,1.5-0.5,1.4-0.9c0,0.5,0.8,0.8,1.7,0.7c0.8-0.1,1.4-0.6,1.3-1
		s-0.1-0.7-0.2-1.1c-0.1-0.3-0.2-0.5-0.4-0.7c0.1-0.1,0.1-0.3,0.1-0.4l0,0c-1.1,0.4-2.8,0.6-4.8-0.3c-3-1.4-1.7-9.1-1.3-11.3
		c-1.5,0.3-2.8,1.6-3,3.2c0,0.4-0.1,0.7-0.2,1.1c0,0.2,0,0.3,0.1,0.5c-0.1,0.3-0.2,0.6-0.3,0.9c-0.1,0.4-0.1,0.7-0.2,1.1
		c0,0.2,0,0.3,0.1,0.5c-0.2,0.3-0.3,0.6-0.4,0.8c-0.1,0.4-0.2,0.7-0.3,1.1c0,0.2,0,0.3,0.1,0.5c-0.2,0.3-0.3,0.6-0.4,0.8
		c-0.1,0.4-0.2,0.7-0.3,1.1c0,0.1,0,0.3,0.1,0.4c-0.2,0.2-0.3,0.5-0.4,0.7c-0.1,0.4-0.1,0.7-0.2,1.1c-0.1,0.4,0.5,0.9,1.3,1
		c0.9,0.1,1.7-0.2,1.7-0.7c0,0.5,0.6,0.9,1.4,0.9C385.9,185.7,386.6,185.3,386.6,184.8z"/>
</g>
</svg>
