<svg xmlns="http://www.w3.org/2000/svg" width="21" height="21" viewBox="0 0 21 21"><g><g><path fill="#fff" d="M16.148 16.148c1.516-1.515 2.305-3.398 2.368-5.648-.063-2.25-.852-4.133-2.368-5.649-1.516-1.515-3.398-2.304-5.648-2.367-2.25.063-4.133.852-5.648 2.367C3.335 6.367 2.547 8.25 2.484 10.5c.063 2.25.851 4.133 2.368 5.648 1.515 1.516 3.398 2.305 5.648 2.367 2.25-.062 4.132-.85 5.648-2.367zm1.43-12.726c1.875 1.875 2.843 4.234 2.906 7.078-.063 2.844-1.031 5.203-2.906 7.078-1.875 1.875-4.235 2.843-7.078 2.906-2.844-.063-5.203-1.03-7.078-2.906C1.547 15.703.578 13.344.516 10.5c.062-2.844 1.03-5.203 2.906-7.078C5.297 1.547 7.656.579 10.5.515c2.843.064 5.203 1.032 7.078 2.907zm-6.094 6.093h4.032v1.97h-4.032v4.03H9.516v-4.03H5.484v-1.97h4.032v-4.03h1.968z"/></g></g></svg>