<svg xmlns="http://www.w3.org/2000/svg" width="63" height="63" viewBox="0 0 63 63"><g><g><path fill="#fff" d="M49.713 17.073V3.69c0-.678-.552-1.23-1.23-1.23H3.69c-.678 0-1.23.552-1.23 1.23v55.617c0 .679.552 1.23 1.23 1.23h44.791c.679 0 1.23-.551 1.23-1.23v-9.065a1.23 1.23 0 0 1 2.462 0v9.065A3.696 3.696 0 0 1 48.482 63H3.692A3.696 3.696 0 0 1 0 59.308V3.691A3.696 3.696 0 0 1 3.691 0h44.791a3.696 3.696 0 0 1 3.692 3.691v13.382a1.23 1.23 0 0 1-2.461 0zm-12.305.891c0 3.239-1.367 6.163-3.554 8.228a1.208 1.208 0 0 1-.133.124 11.279 11.279 0 0 1-7.634 2.969c-2.94 0-5.62-1.126-7.635-2.97a1.208 1.208 0 0 1-.132-.123 11.289 11.289 0 0 1-3.554-8.228c0-6.241 5.079-11.32 11.321-11.32s11.32 5.079 11.32 11.32zm-5.97 7.055a6.113 6.113 0 0 0-5.351-3.117c-2.252 0-4.27 1.2-5.352 3.117a8.811 8.811 0 0 0 5.352 1.805c2.01 0 3.864-.673 5.352-1.805zm-5.351-5.578a1.971 1.971 0 0 0 1.969-1.968v-.8a1.971 1.971 0 0 0-1.969-1.97 1.971 1.971 0 0 0-1.969 1.97v.8c0 1.085.883 1.968 1.969 1.968zm8.86-1.477c0-4.884-3.975-8.859-8.86-8.859s-8.86 3.975-8.86 8.86a8.81 8.81 0 0 0 1.73 5.251 8.538 8.538 0 0 1 3.626-3.038 4.406 4.406 0 0 1-.926-2.705v-.8a4.435 4.435 0 0 1 4.43-4.43 4.435 4.435 0 0 1 4.43 4.43v.8a4.405 4.405 0 0 1-.926 2.705 8.538 8.538 0 0 1 3.626 3.038 8.81 8.81 0 0 0 1.73-5.252zm-.985 37.16c0 .68-.55 1.23-1.23 1.23h-6.645a1.23 1.23 0 1 1 0-2.46h6.645c.68 0 1.23.551 1.23 1.23zm0-6.89c0 .68-.55 1.23-1.23 1.23H15.258a1.23 1.23 0 1 1 0-2.46h17.474c.68 0 1.23.55 1.23 1.23zm0-6.89c0 .68-.55 1.23-1.23 1.23H15.258a1.23 1.23 0 1 1 0-2.46h17.474c.68 0 1.23.55 1.23 1.23zm-22.729-6.891c0 .324-.131.641-.36.87-.23.228-.547.36-.871.36-.324 0-.64-.132-.87-.36a1.238 1.238 0 0 1-.36-.87c0-.324.13-.641.36-.87a1.24 1.24 0 0 1 .87-.36c.324 0 .642.13.87.36.23.229.361.546.361.87zm0 6.89c0 .324-.131.642-.36.87-.23.23-.547.361-.871.361-.324 0-.64-.132-.87-.36a1.24 1.24 0 0 1-.36-.87c0-.324.13-.642.36-.87.23-.23.546-.36.87-.36.324 0 .64.13.87.36.23.228.361.546.361.87zm0 6.891c0 .324-.131.641-.36.87a1.24 1.24 0 0 1-.871.36 1.24 1.24 0 0 1-.87-.36 1.24 1.24 0 0 1-.36-.87c0-.323.13-.641.36-.87.23-.229.546-.36.87-.36.324 0 .64.131.87.36.23.229.361.547.361.87zm22.73-13.781c0 .68-.552 1.23-1.231 1.23H15.258a1.23 1.23 0 1 1 0-2.46h17.474c.68 0 1.23.55 1.23 1.23zm28.346-11.358l-15.485 26.82c-.084.147-.199.274-.336.375l-7.91 5.826a1.231 1.231 0 0 1-1.952-1.128l1.09-9.763c.018-.168.072-.332.157-.479l15.485-26.82a5.134 5.134 0 0 1 3.138-2.407 5.133 5.133 0 0 1 3.922.516 5.174 5.174 0 0 1 1.891 7.06zM43.514 49.424l-3.561-2.056-.57 5.098zm14.22-23.328l-4.688-2.707L40.62 44.911l4.688 2.707zm2.714-6.286a2.689 2.689 0 0 0-1.26-1.644 2.69 2.69 0 0 0-2.055-.27 2.689 2.689 0 0 0-1.644 1.261l-1.213 2.101 4.69 2.707 1.212-2.1a2.69 2.69 0 0 0 .27-2.055z"/></g></g></svg>