<svg xmlns="http://www.w3.org/2000/svg" width="16" height="16" viewBox="0 0 16 16"><g><g><path fill="#fff" d="M15.703 14.28a.97.97 0 0 1 .297.711.97.97 0 0 1-.297.711.97.97 0 0 1-.71.297.968.968 0 0 1-.712-.297l-3.093-3.093A6.86 6.86 0 0 1 7 13.999a6.84 6.84 0 0 1-2.719-.554 7.027 7.027 0 0 1-2.234-1.492A7.054 7.054 0 0 1 .555 9.726 6.803 6.803 0 0 1 0 7.007c0-.953.185-1.862.555-2.726a6.938 6.938 0 0 1 1.492-2.227A7.112 7.112 0 0 1 4.28.57 6.846 6.846 0 0 1 7 .015c.948 0 1.854.185 2.719.555.864.37 1.61.865 2.234 1.484a6.945 6.945 0 0 1 1.492 2.227c.37.864.555 1.77.555 2.718a6.816 6.816 0 0 1-1.39 4.188zM9.508 2.68A4.924 4.924 0 0 0 7 2.014c-.906 0-1.742.222-2.508.664a4.921 4.921 0 0 0-1.82 1.82A4.904 4.904 0 0 0 2 7.008c0 .901.224 1.737.672 2.508a4.918 4.918 0 0 0 1.82 1.82A4.918 4.918 0 0 0 7 12c.906 0 1.742-.222 2.508-.665a4.921 4.921 0 0 0 1.82-1.82c.448-.77.672-1.607.672-2.508 0-.9-.224-1.737-.672-2.507a4.924 4.924 0 0 0-1.82-1.82z"/></g></g></svg>