<?xml version="1.0" encoding="utf-8"?>
<!-- Generator: Adobe Illustrator 21.1.0, SVG Export Plug-In . SVG Version: 6.00 Build 0)  -->
<svg version="1.1" id="Layer_1" xmlns="http://www.w3.org/2000/svg" xmlns:xlink="http://www.w3.org/1999/xlink" x="0px" y="0px"
	 viewBox="0 0 340 488.9" width="340" height="488.9" style="enable-background:new 0 0 340 488.9;" xml:space="preserve">
<style type="text/css">
	.st0{fill:#FF7213;}
	.st1{opacity:0.4;clip-path:url(#SVGID_2_);}
	.st2{opacity:0.38;}
	.st3{fill:#B53939;}
	.st4{opacity:0.4;}
	.st5{fill:#8C5861;}
	.st6{clip-path:url(#SVGID_2_);}
	.st7{opacity:0.38;fill:#B53939;}
	.st8{fill:#E8E0D9;}
	.st9{fill:#D5C2B2;}
	.st10{fill:#68625E;}
	.st11{fill:#915D5D;}
	.st12{fill:#DDBCA6;}
	.st13{fill:#F7CEB2;}
	.st14{fill:#222228;}
	.st15{fill:#84653C;}
	.st16{opacity:0.4;fill:#B57662;}
	.st17{fill:#D39484;}
	.st18{fill:#FFFFFF;}
	.st19{fill:#1E2A30;}
	.st20{fill:#442223;}
	.st21{fill:#0D1418;}
	.st22{fill:#EAEAEA;}
	.st23{fill:#FFCAB0;}
	.st24{fill:#61463A;}
	.st25{fill:#7C6559;}
	.st26{fill:#F6F6F6;}
	.st27{fill:#CECECE;}
	.st28{fill:#DF5900;}
	.st29{fill:#FF7500;}
	.st30{fill:#D3D3D3;}
	.st31{opacity:0.44;fill:#F6F6F6;}
	.st32{fill:#AC8C7C;}
</style>
<rect class="st0" width="340" height="488.9"/>
<g>
	<defs>
		<rect id="SVGID_1_" width="340" height="488.9"/>
	</defs>
	<clipPath id="SVGID_2_">
		<use xlink:href="#SVGID_1_"  style="overflow:visible;"/>
	</clipPath>
	<g class="st1">
		<g class="st2">
			<polygon class="st3" points="108.9,121.6 54.8,119.6 55.3,132.9 108.4,134.9 			"/>
			<polygon class="st3" points="314.8,183.7 275.8,184.7 273.6,206.1 314.7,204.5 			"/>
			<polygon class="st3" points="-89.2,269.9 -144,268.8 -139.5,282.1 -89.7,282.7 			"/>
			<polygon class="st3" points="-248.2,303.2 -292,302.1 -288.5,315.5 -248.6,316 			"/>
			<polygon class="st3" points="-396.1,283.2 -465,281.6 -464.9,293.6 -396.1,298.4 			"/>
			<polygon class="st3" points="-426.9,219 -495.8,217.4 -495.7,229.4 -426.9,234.2 			"/>
			<polygon class="st3" points="-386.5,168.4 -429.1,166.6 -429,186.1 -383,186.1 			"/>
			<polygon class="st3" points="-377.2,105.4 -425.6,103.6 -425.4,123.2 -377.2,122.8 			"/>
			<polygon class="st3" points="-404,57 -471,57.4 -468.8,74.8 -404,74.5 			"/>
			<polygon class="st3" points="-295,40.6 -335.5,38.2 -333.4,55.6 -292,56 			"/>
			<polygon class="st3" points="-162.4,90.8 -224,90.1 -220.7,107.5 -164.1,107.2 			"/>
			<polygon class="st3" points="-303.6,219.3 -365.3,218.6 -362,236 -305.4,235.6 			"/>
			<polygon class="st3" points="-52.1,135.1 -91,134.4 -88.9,151.8 -53.2,151.5 			"/>
			<polygon class="st3" points="73.4,165.9 11.8,165.2 10.4,183 71.7,182.2 			"/>
			<polygon class="st3" points="93.9,203.6 35.7,202.2 41.3,217.5 92.1,220 			"/>
			<polygon class="st3" points="340.3,289.2 272.2,287.8 269.3,302.7 336.9,302.7 			"/>
			<polygon class="st3" points="119,299.6 74.2,298.2 72.3,313.1 116.7,313.1 			"/>
			<polygon class="st3" points="350.6,336.3 305.9,334.9 304,349.7 348.4,349.8 			"/>
			<polygon class="st3" points="426.9,201.3 358.6,203.4 355.1,222.1 422.5,221.6 			"/>
			<polygon class="st3" points="322.7,120.7 267.5,121.2 268.4,139.9 320.1,137.2 			"/>
			<polygon class="st3" points="316.7,54.6 237.8,55.6 233.4,76.9 316.6,75.3 			"/>
			<polygon class="st3" points="39.9,332.5 -28.8,333.4 -32.6,352 39.7,350.6 			"/>
			<polygon class="st3" points="114.5,73.8 34.6,72.1 41.9,89.4 114.5,90.8 			"/>
			<polygon class="st3" points="76.2,36.7 -3.7,35.1 3.6,52.3 76.2,53.7 			"/>
			<polygon class="st3" points="-61.7,54.5 -119.5,54.5 -114.2,71.6 -61.7,71.6 			"/>
		</g>
		<g class="st4">
			<g>
				<polygon class="st5" points="231.7,44.2 18.7,35.2 -247.5,43.3 -495.9,33.7 -495.8,33 -247.5,42.6 18.7,34.5 231.7,43.5 
					484.3,40.7 484.3,41.4 				"/>
			</g>
			<g>
				<polygon class="st5" points="233.9,27.1 9.4,22.3 -247.6,24.2 -495.9,21.3 -495.9,20.6 -247.6,23.5 9.4,21.6 233.9,26.3 
					481.7,24.9 489.4,1.8 233.2,12.3 11.5,10.3 -246.9,7 -499.5,9.4 -499.5,8.7 -246.9,6.3 11.6,9.6 233.2,11.5 490.8,1 482.6,25.6 
									"/>
			</g>
			<g>
				<polygon class="st5" points="-494.4,57.6 -494.4,56.9 -249.7,55.9 18.8,52.1 223.8,54.5 474.2,52.6 474.2,53.3 223.8,55.2 
					18.8,52.8 -249.7,56.7 				"/>
			</g>
			<g>
				<polygon class="st5" points="231.7,111.1 18.7,102 -247.5,110.1 -495.9,100.6 -495.8,99.9 -247.5,109.4 18.7,101.3 231.7,110.4 
					484.3,107.5 484.3,108.2 				"/>
			</g>
			<g>
				<polygon class="st5" points="233.9,93.9 9.4,89.1 -247.6,91 -495.9,88.2 -495.9,87.5 -247.6,90.3 9.4,88.4 233.9,93.2 
					481.7,91.8 489.4,68.6 233.2,79.1 12.2,70.5 -246.8,73.8 -499.5,76.2 -499.5,75.5 -246.9,73.1 12.3,69.8 233.2,78.4 490.8,67.9 
					482.6,92.5 				"/>
			</g>
			<g>
				<polygon class="st5" points="-494.4,124.5 -494.4,123.7 -249.7,122.8 18.8,119 223.8,121.4 474.2,119.4 474.2,120.2 
					223.8,122.1 18.8,119.7 -249.7,123.5 				"/>
			</g>
			<g>
				<polygon class="st5" points="231.7,174.1 18.7,165 -247.5,173.2 -495.9,163.6 -495.8,162.9 -247.5,172.4 18.7,164.3 
					231.7,173.4 484.3,170.5 484.3,171.2 				"/>
			</g>
			<g>
				<polygon class="st5" points="233.9,156.9 9.4,152.1 -247.6,154.1 -495.9,151.2 -495.9,150.5 -247.6,153.3 9.4,151.4 
					233.9,156.2 481.7,154.8 489.4,131.6 233.2,142.1 20.2,132.6 -246.8,136.9 -499.5,139.3 -499.5,138.5 -246.9,136.2 20.2,131.9 
					233.2,141.4 490.8,130.9 482.6,155.5 				"/>
			</g>
			<g>
				<polygon class="st5" points="-494.4,187.5 -494.4,186.8 -249.7,185.8 18.8,182 223.8,184.4 474.2,182.5 474.2,183.2 
					223.8,185.1 18.8,182.7 -249.7,186.5 				"/>
			</g>
			<g>
				<polygon class="st5" points="231.7,241 18.7,231.9 -247.5,240 -495.9,230.5 -495.8,229.7 -247.5,239.3 18.7,231.2 231.7,240.2 
					484.3,237.4 484.3,238.1 				"/>
			</g>
			<g>
				<polygon class="st5" points="233.9,223.8 9.4,219 -247.6,220.9 -495.9,218 -495.9,217.3 -247.6,220.2 9.4,218.3 233.9,223.1 
					481.7,221.6 489.4,198.5 233.2,209 12.2,200.4 -246.8,203.7 -499.5,206.1 -499.5,205.4 -246.9,203 12.3,199.7 233.2,208.3 
					490.8,197.7 482.6,222.3 482.2,222.3 				"/>
			</g>
			<g>
				<polygon class="st5" points="-494.4,254.3 -494.4,253.6 -249.7,252.7 18.8,248.8 223.8,251.2 474.2,249.3 474.2,250 
					223.8,251.9 18.8,249.5 -249.7,253.4 				"/>
			</g>
			<g>
				<polygon class="st5" points="231.7,304.5 18.7,295.4 -247.5,303.5 -495.9,294 -495.8,293.2 -247.5,302.8 18.7,294.7 
					231.7,303.7 484.3,300.9 484.3,301.6 				"/>
			</g>
			<g>
				<polygon class="st5" points="233.9,287.3 9.4,282.5 -247.6,284.4 -495.9,281.5 -495.9,280.8 -247.6,283.7 9.4,281.8 
					233.9,286.6 481.7,285.1 489.4,262 233.2,272.5 20.2,262.9 -246.8,267.2 -499.5,269.6 -499.5,268.9 -246.9,266.5 20.2,262.2 
					233.2,271.8 490.8,261.2 482.6,285.8 482.2,285.8 				"/>
			</g>
			<g>
				<polygon class="st5" points="-494.4,317.8 -494.4,317.1 -249.7,316.2 18.8,312.3 223.8,314.7 474.2,312.8 474.2,313.5 
					223.8,315.4 18.8,313.1 -249.7,316.9 				"/>
			</g>
			<g>
				<polygon class="st5" points="231.7,371.3 18.7,362.2 -247.5,370.3 -495.9,360.8 -495.8,360.1 -247.5,369.6 18.7,361.5 
					231.7,370.6 484.3,367.7 484.3,368.4 				"/>
			</g>
			<g>
				<polygon class="st5" points="233.9,354.1 9.4,349.3 -247.6,351.2 -495.9,348.4 -495.9,347.7 -247.6,350.5 9.4,348.6 
					233.9,353.4 481.7,352 489.4,328.8 233.2,339.3 12.2,330.7 -246.8,334.1 -499.5,336.4 -499.5,335.7 -246.9,333.3 12.3,330 
					233.2,338.6 490.8,328.1 482.6,352.7 482.2,352.7 				"/>
			</g>
			<g>
				<polygon class="st5" points="-494.4,384.7 -494.4,384 -249.7,383 18.8,379.2 223.8,381.6 474.2,379.7 474.2,380.4 223.8,382.3 
					18.8,379.9 -249.7,383.7 				"/>
			</g>
			<g>
				<polygon class="st5" points="370.3,25.8 366.5,6.8 367.6,6.7 371.4,25.7 				"/>
			</g>
			<g>
				<polygon class="st5" points="334.6,43 333.5,42.9 335.6,26.1 336.7,26.1 				"/>
			</g>
			<g>
				<polygon class="st5" points="403.3,42.3 399,25.4 400.1,25.3 404.4,42.2 				"/>
			</g>
			<g>
				<polygon class="st5" points="290.7,26.5 289.6,26.4 290.7,9.3 291.8,9.3 				"/>
			</g>
			<g>
				<polygon class="st5" points="281.5,54.4 280.4,54.3 282.7,43.3 283.8,43.4 				"/>
			</g>
			<g>
				<polygon class="st5" points="356.8,53.9 354.6,42.2 355.7,42.1 357.8,53.8 				"/>
			</g>
			<g>
				<polygon class="st5" points="416.3,53.4 415.2,53.3 417.4,41.8 418.5,41.9 				"/>
			</g>
			<g>
				<polygon class="st5" points="316.2,75.2 312.9,54.2 314,54.1 317.2,75.1 				"/>
			</g>
			<g>
				<rect x="381.7" y="54" class="st5" width="1.1" height="18.6"/>
			</g>
			<g>
				<rect x="266.3" y="26.5" class="st5" width="1.1" height="17.1"/>
			</g>
			<g>
				<polygon class="st5" points="246.3,26.9 243.1,11.5 244.1,11.4 247.4,26.8 				"/>
			</g>
			<g>
				<polygon class="st5" points="220.3,12.2 218.7,-2.5 219.8,-2.6 221.4,12.1 				"/>
			</g>
			<g>
				<polygon class="st5" points="266.9,10.7 265.8,10.7 266.3,-0.4 267.4,-0.4 				"/>
			</g>
			<g>
				<polygon class="st5" points="322.6,8.2 321.6,8.2 322.6,-2.9 323.7,-2.9 				"/>
			</g>
			<g>
				<polygon class="st5" points="377.9,5.7 376.2,-4.3 377.3,-4.4 378.9,5.7 				"/>
			</g>
			<g>
				<polygon class="st5" points="233.7,78.7 232.6,78.5 237.8,54.9 238.9,55 				"/>
			</g>
			<g>
				<polygon class="st5" points="228,55 226.9,54.9 229.3,43.8 230.3,44 				"/>
			</g>
			<g>
				<polygon class="st5" points="208.4,42.6 207.3,42.6 208.4,26.4 209.5,26.5 				"/>
			</g>
			<g>
				<polygon class="st5" points="185.7,25.7 184.6,25.6 186.8,11 187.8,11.1 				"/>
			</g>
			<g>
				<polygon class="st5" points="177,54.3 174.3,41.3 175.4,41.2 178.1,54.2 				"/>
			</g>
			<g>
				<polygon class="st5" points="160.8,40.5 159.7,40.4 162.4,25 163.5,25.1 				"/>
			</g>
			<g>
				<polygon class="st5" points="164.6,11.1 164,0.7 165.1,0.7 165.7,11.1 				"/>
			</g>
			<g>
				<polygon class="st5" points="133.7,24.7 132.6,24.6 133.7,11 134.8,11.1 				"/>
			</g>
			<g>
				<polygon class="st5" points="118.6,53.3 117.5,53.3 119.1,39.7 120.2,39.7 				"/>
			</g>
			<g>
				<polygon class="st5" points="159.2,75.9 156.5,54 157.5,53.9 160.2,75.9 				"/>
			</g>
			<g>
				<polygon class="st5" points="114.2,91.3 113.1,91.2 115.9,74.1 116.9,74.1 				"/>
			</g>
			<g>
				<polygon class="st5" points="90.4,73.1 89.3,73 91.5,53.7 92.6,53.7 				"/>
			</g>
			<g>
				<polygon class="st5" points="72,53.4 70.9,53.3 73.1,37.2 74.2,37.2 				"/>
			</g>
			<g>
				<polygon class="st5" points="99.1,38.3 98,38.2 100.7,23.9 101.8,24 				"/>
			</g>
			<g>
				<polygon class="st5" points="80.7,23.2 79.6,23.2 80.1,10.3 81.2,10.4 				"/>
			</g>
			<g>
				<polygon class="st5" points="107.2,10.7 106.1,10.7 107.2,-0.8 108.3,-0.7 				"/>
			</g>
			<g>
				<rect x="178.1" y="76.6" class="st5" width="1" height="15.9"/>
			</g>
			<g>
				<polygon class="st5" points="245.1,93.7 244,93.5 249.7,78.1 250.8,78.3 				"/>
			</g>
			<g>
				<polygon class="st5" points="303.7,93.2 301,75.9 302.1,75.8 304.7,93.1 				"/>
			</g>
			<g>
				<polygon class="st5" points="353.5,92.8 352.4,92.7 357.8,73.7 358.9,73.8 				"/>
			</g>
			<g>
				<rect x="411.4" y="71.5" class="st5" width="1.1" height="21.1"/>
			</g>
			<g>
				<polygon class="st5" points="39,89.7 35.7,70.9 36.8,70.8 40.1,89.6 				"/>
			</g>
			<g>
				<polygon class="st5" points="12.8,69.8 11.7,69.7 14.4,52.6 15.5,52.7 				"/>
			</g>
			<g>
				<polygon class="st5" points="1.5,52.8 -2.2,35.6 -1.1,35.5 2.5,52.7 				"/>
			</g>
			<g>
				<polygon class="st5" points="19.3,34.8 18.2,34.7 20.9,22 21.9,22.1 				"/>
			</g>
			<g>
				<polygon class="st5" points="40.6,22.6 39.3,10.3 40.3,10.2 41.7,22.5 				"/>
			</g>
			<g>
				<polygon class="st5" points="-12.4,22.2 -13,9.6 -11.9,9.6 -11.4,22.2 				"/>
			</g>
			<g>
				<polygon class="st5" points="51.4,10.7 50.4,-1.1 51.4,-1.1 52.5,10.7 				"/>
			</g>
			<g>
				<polygon class="st5" points="16.2,10.4 15.2,-2.2 16.2,-2.2 17.3,10.3 				"/>
			</g>
			<g>
				<polygon class="st5" points="-27.6,88.8 -29.8,70.7 -28.7,70.7 -26.5,88.7 				"/>
			</g>
			<g>
				<polygon class="st5" points="-60.4,71.2 -61.5,71.2 -60.3,53.7 -59.2,53.7 				"/>
			</g>
			<g>
				<polygon class="st5" points="-39.7,53.3 -46,36.9 -44.9,36.8 -38.6,53.1 				"/>
			</g>
			<g>
				<polygon class="st5" points="-97.4,54.2 -98.5,54.2 -98,38.3 -96.9,38.3 				"/>
			</g>
			<g>
				<polygon class="st5" points="-70.4,37.7 -70.9,22.5 -69.8,22.5 -69.3,37.6 				"/>
			</g>
			<g>
				<polygon class="st5" points="-26.2,36.2 -29.2,22.2 -28.2,22.1 -25.1,36.1 				"/>
			</g>
			<g>
				<rect x="-52.1" y="9.6" class="st5" width="0.7" height="12.9"/>
			</g>
			<g>
				<polygon class="st5" points="-87.7,22.9 -90.4,8.7 -89.3,8.6 -86.6,22.8 				"/>
			</g>
			<g>
				<rect x="-30.9" y="-2.9" class="st5" width="1.1" height="12.2"/>
			</g>
			<g>
				<rect x="-72" y="-2.9" class="st5" width="1.1" height="11.8"/>
			</g>
			<g>
				<polygon class="st5" points="-121.3,39 -123.4,22.9 -122.3,22.9 -120.2,39 				"/>
			</g>
			<g>
				<polygon class="st5" points="-141.8,22.9 -144,7.9 -142.9,7.8 -140.7,22.9 				"/>
			</g>
			<g>
				<polygon class="st5" points="-114.8,8.2 -115.3,-6.1 -114.2,-6.1 -113.7,8.2 				"/>
			</g>
			<g>
				<polygon class="st5" points="-167.3,40.6 -169.4,23.3 -168.4,23.2 -166.2,40.5 				"/>
			</g>
			<g>
				<polygon class="st5" points="-187.8,23.6 -189.5,7.4 -188.4,7.4 -186.8,23.6 				"/>
			</g>
			<g>
				<rect x="-166.7" y="-2.5" class="st5" width="1.1" height="10.6"/>
			</g>
			<g>
				<polygon class="st5" points="-140.7,54.8 -141.8,40.1 -140.7,40.1 -139.7,54.7 				"/>
			</g>
			<g>
				<polygon class="st5" points="-116.4,71.9 -118.5,54.4 -117.5,54.3 -115.3,71.8 				"/>
			</g>
			<g>
				<polygon class="st5" points="-87.7,89.9 -88.8,71.2 -87.7,71.2 -86.6,89.8 				"/>
			</g>
			<g>
				<polygon class="st5" points="-145.1,89.9 -148.3,72.3 -147.2,72.2 -144,89.8 				"/>
			</g>
			<g>
				<polygon class="st5" points="-181.3,72.7 -183,55.4 -181.9,55.4 -180.3,72.6 				"/>
			</g>
			<g>
				<polygon class="st5" points="-198.1,55.8 -199.2,41.5 -198.1,41.4 -197,55.8 				"/>
			</g>
			<g>
				<polygon class="st5" points="-223,42.3 -225.7,23.7 -224.7,23.6 -221.9,42.2 				"/>
			</g>
			<g>
				<polygon class="st5" points="-237.6,23.6 -240.9,6.9 -239.8,6.8 -236.6,23.6 				"/>
			</g>
			<g>
				<polygon class="st5" points="-211.1,6.8 -212.2,-2.9 -211.1,-2.9 -210,6.7 				"/>
			</g>
			<g>
				<polygon class="st5" points="-205.7,90.3 -206.8,90.3 -205.7,72.9 -204.6,73 				"/>
			</g>
			<g>
				<polygon class="st5" points="-232.4,73.2 -234.4,56.1 -233.3,56.1 -231.3,73.1 				"/>
			</g>
			<g>
				<polygon class="st5" points="-249.2,56.5 -250.3,56.5 -248.1,42.5 -247,42.6 				"/>
			</g>
			<g>
				<polygon class="st5" points="-270.1,42.4 -271.7,23.3 -270.7,23.2 -269,42.4 				"/>
			</g>
			<g>
				<polygon class="st5" points="-290.7,23.3 -291.8,23.3 -291.2,6.8 -290.2,6.8 				"/>
			</g>
			<g>
				<polygon class="st5" points="-266.3,6.9 -267.4,-5.4 -266.3,-5.4 -265.3,6.9 				"/>
			</g>
			<g>
				<polygon class="st5" points="-328.6,22.9 -329.7,22.9 -329.1,7.8 -328,7.9 				"/>
			</g>
			<g>
				<polygon class="st5" points="-309.1,7.3 -310.2,7.3 -309.1,-6.9 -308,-6.8 				"/>
			</g>
			<g>
				<polygon class="st5" points="-349.3,7.6 -350.4,7.5 -348.1,-5.5 -347,-5.3 				"/>
			</g>
			<g>
				<polygon class="st5" points="-313.4,40.4 -314.5,40.4 -313.4,22.9 -312.3,22.9 				"/>
			</g>
			<g>
				<polygon class="st5" points="-291.6,56.5 -293.8,41.1 -292.7,41 -290.6,56.4 				"/>
			</g>
			<g>
				<polygon class="st5" points="-305.3,74.5 -305.9,56.5 -304.8,56.5 -304.2,74.4 				"/>
			</g>
			<g>
				<polygon class="st5" points="-266.9,90.4 -268,73.4 -266.9,73.4 -265.8,90.4 				"/>
			</g>
			<g>
				<polygon class="st5" points="-329,89.8 -331.3,74.2 -330.2,74.2 -327.9,89.7 				"/>
			</g>
			<g>
				<polygon class="st5" points="-350.8,74.1 -351.9,56.7 -350.8,56.6 -349.7,74.1 				"/>
			</g>
			<g>
				<polygon class="st5" points="-332.8,57 -333.9,39.4 -332.8,39.4 -331.7,57 				"/>
			</g>
			<g>
				
					<rect x="-368.3" y="30" transform="matrix(5.139155e-02 -0.9987 0.9987 5.139155e-02 -372.0807 -330.7113)" class="st5" width="16.3" height="1.1"/>
			</g>
			<g>
				<polygon class="st5" points="-378.9,22.2 -380.6,7.5 -379.5,7.5 -377.9,22.1 				"/>
			</g>
			<g>
				<polygon class="st5" points="-403.8,75.5 -404.9,75.5 -403.8,56.9 -402.8,56.9 				"/>
			</g>
			<g>
				<polygon class="st5" points="-383.3,89.1 -383.8,74.8 -382.7,74.8 -382.2,89.1 				"/>
			</g>
			<g>
				<polygon class="st5" points="-429.8,88.4 -430.9,88.4 -431,75.1 -430,75.1 				"/>
			</g>
			<g>
				<polygon class="st5" points="-384.3,57.3 -386.4,37.9 -385.3,37.8 -383.3,57.2 				"/>
			</g>
			<g>
				<polygon class="st5" points="-429.8,56.9 -430.9,56.9 -429.1,35.9 -428.1,35.9 				"/>
			</g>
			<g>
				<polygon class="st5" points="-407.6,36.5 -408.7,22.2 -407.6,22.1 -406.5,36.5 				"/>
			</g>
			<g>
				<polygon class="st5" points="-433.1,21.5 -434.1,21.4 -432,8.5 -430.9,8.6 				"/>
			</g>
			<g>
				<polygon class="st5" points="-401.3,8.3 -402.3,8.3 -402.2,-4.7 -401.1,-4.7 				"/>
			</g>
			<g>
				<polygon class="st5" points="370.3,286 366.5,267 367.6,266.9 371.4,285.9 				"/>
			</g>
			<g>
				<polygon class="st5" points="334.6,303.2 333.5,303.1 335.6,286.3 336.7,286.3 				"/>
			</g>
			<g>
				<polygon class="st5" points="403.3,302.5 399,285.7 400.1,285.5 404.4,302.4 				"/>
			</g>
			<g>
				<polygon class="st5" points="290.7,286.7 289.6,286.6 290.7,269.5 291.8,269.5 				"/>
			</g>
			<g>
				<polygon class="st5" points="281.5,314.7 280.4,314.6 282.7,303.5 283.8,303.6 				"/>
			</g>
			<g>
				<polygon class="st5" points="356.8,314.2 354.6,302.4 355.7,302.3 357.8,314.1 				"/>
			</g>
			<g>
				<polygon class="st5" points="416.3,313.6 415.2,313.5 417.4,302 418.5,302.1 				"/>
			</g>
			<g>
				<polygon class="st5" points="316.2,335.4 312.9,314.4 314,314.3 317.2,335.3 				"/>
			</g>
			<g>
				<rect x="381.7" y="314.2" class="st5" width="1.1" height="18.6"/>
			</g>
			<g>
				<rect x="266.3" y="286.7" class="st5" width="1.1" height="17.1"/>
			</g>
			<g>
				<polygon class="st5" points="246.3,287.1 243.1,271.7 244.1,271.6 247.4,287 				"/>
			</g>
			<g>
				<polygon class="st5" points="220.5,271.5 218.9,251.5 220,251.5 221.6,271.5 				"/>
			</g>
			<g>
				<polygon class="st5" points="220.5,369.8 218.9,353.9 220,353.9 221.6,369.8 				"/>
			</g>
			<g>
				<polygon class="st5" points="266.9,270.9 265.8,270.9 266.3,251.1 267.4,251.1 				"/>
			</g>
			<g>
				<polygon class="st5" points="322.6,268.4 321.6,268.4 322.6,250.9 323.7,250.9 				"/>
			</g>
			<g>
				<polygon class="st5" points="377.9,265.9 375.4,250.9 376.5,250.8 378.9,265.8 				"/>
			</g>
			<g>
				<polygon class="st5" points="233.7,338.9 232.6,338.8 237.8,315.1 238.9,315.2 				"/>
			</g>
			<g>
				<polygon class="st5" points="228,315.2 226.9,315.1 229.3,304 230.3,304.2 				"/>
			</g>
			<g>
				<polygon class="st5" points="281.5,381.6 280.4,381.5 282.7,370.5 283.8,370.6 				"/>
			</g>
			<g>
				<polygon class="st5" points="228,382.2 226.9,382 229.3,371 230.3,371.1 				"/>
			</g>
			<g>
				<polygon class="st5" points="208.4,302.8 207.3,302.8 208.4,286.7 209.5,286.7 				"/>
			</g>
			<g>
				<polygon class="st5" points="185.7,285.9 184.6,285.8 186.8,271.2 187.8,271.3 				"/>
			</g>
			<g>
				<polygon class="st5" points="177,314.5 174.3,301.5 175.4,301.4 178.1,314.4 				"/>
			</g>
			<g>
				<polygon class="st5" points="160.8,300.7 159.7,300.6 162.4,285.2 163.5,285.3 				"/>
			</g>
			<g>
				<polygon class="st5" points="164.2,268.9 163.7,250.9 164.8,250.9 165.3,268.9 				"/>
			</g>
			<g>
				<polygon class="st5" points="133.7,285.1 132.6,285.1 133.7,267.7 134.8,267.8 				"/>
			</g>
			<g>
				<polygon class="st5" points="118.6,313.6 117.5,313.5 119.1,299.9 120.2,300 				"/>
			</g>
			<g>
				<polygon class="st5" points="159.2,336.1 156.5,314.2 157.5,314.2 160.2,336.1 				"/>
			</g>
			<g>
				<polygon class="st5" points="114.2,351.5 113.1,351.4 115.9,334.3 116.9,334.3 				"/>
			</g>
			<g>
				<polygon class="st5" points="90.4,333.3 89.3,333.3 91.5,313.9 92.6,313.9 				"/>
			</g>
			<g>
				<polygon class="st5" points="72,313.6 70.9,313.5 73.1,297.4 74.2,297.4 				"/>
			</g>
			<g>
				<polygon class="st5" points="99.1,298.5 98,298.4 100.7,284.1 101.8,284.2 				"/>
			</g>
			<g>
				<polygon class="st5" points="80.7,283.8 79.6,283.8 80.1,265.3 81.2,265.4 				"/>
			</g>
			<g>
				<polygon class="st5" points="107.6,266.5 106.5,266.5 107.6,250.1 108.6,250.2 				"/>
			</g>
			<g>
				<rect x="178.1" y="336.8" class="st5" width="1" height="15.9"/>
			</g>
			<g>
				<polygon class="st5" points="245.1,353.9 244,353.7 249.7,338.3 250.8,338.5 				"/>
			</g>
			<g>
				<polygon class="st5" points="303.7,353.4 301,336.1 302.1,336 304.7,353.3 				"/>
			</g>
			<g>
				<rect x="178.1" y="379.4" class="st5" width="1" height="15.9"/>
			</g>
			<g>
				<polygon class="st5" points="245.1,396.6 244,396.4 249.7,380.9 250.8,381.1 				"/>
			</g>
			<g>
				<polygon class="st5" points="303.7,396 301,378.7 302.1,378.6 304.7,395.9 				"/>
			</g>
			<g>
				<polygon class="st5" points="353.5,353 352.4,352.9 357.8,333.9 358.9,334 				"/>
			</g>
			<g>
				<rect x="411.4" y="331.7" class="st5" width="1.1" height="21.1"/>
			</g>
			<g>
				<polygon class="st5" points="39,349.9 35.7,331.1 36.8,331 40.1,349.8 				"/>
			</g>
			<g>
				<polygon class="st5" points="12.8,330 11.7,329.9 14.4,312.8 15.5,312.9 				"/>
			</g>
			<g>
				<polygon class="st5" points="1.5,313 -2.2,295.8 -1.1,295.7 2.5,312.9 				"/>
			</g>
			<g>
				<polygon class="st5" points="19.3,295 18.2,294.9 20.9,282.2 21.9,282.3 				"/>
			</g>
			<g>
				<polygon class="st5" points="40.6,282.8 39.3,263.2 40.3,263.1 41.7,282.8 				"/>
			</g>
			<g>
				<polygon class="st5" points="-12.4,282.4 -13,262.8 -11.9,262.7 -11.4,282.4 				"/>
			</g>
			<g>
				<polygon class="st5" points="51.3,264 50.2,249.6 51.3,249.6 52.3,264 				"/>
			</g>
			<g>
				<polygon class="st5" points="14.8,262.6 13.7,249.6 14.8,249.6 15.9,262.5 				"/>
			</g>
			<g>
				<polygon class="st5" points="-27.6,349 -29.8,331 -28.7,330.9 -26.5,348.9 				"/>
			</g>
			<g>
				<polygon class="st5" points="-60.4,331.4 -61.5,331.4 -60.3,313.9 -59.2,313.9 				"/>
			</g>
			<g>
				<polygon class="st5" points="-39.7,313.5 -46,297.2 -44.9,297 -38.6,313.3 				"/>
			</g>
			<g>
				<polygon class="st5" points="-97.4,314.4 -98.5,314.4 -98,298.5 -96.9,298.5 				"/>
			</g>
			<g>
				<polygon class="st5" points="-70.4,297.9 -70.9,282.7 -69.8,282.7 -69.3,297.8 				"/>
			</g>
			<g>
				<polygon class="st5" points="-26.2,296.5 -29.2,282.4 -28.2,282.3 -25.1,296.3 				"/>
			</g>
			<g>
				<rect x="-51.7" y="263.6" class="st5" width="1.2" height="19.1"/>
			</g>
			<g>
				<polygon class="st5" points="-87.7,283.1 -90.4,264.5 -89.3,264.3 -86.6,283 				"/>
			</g>
			<g>
				<rect x="-28.9" y="249.8" class="st5" width="1.1" height="13.5"/>
			</g>
			<g>
				<rect x="-71.5" y="250.1" class="st5" width="1.1" height="13.8"/>
			</g>
			<g>
				<polygon class="st5" points="-121.3,299.2 -123.4,283.1 -122.3,283.1 -120.2,299.2 				"/>
			</g>
			<g>
				<polygon class="st5" points="-141.8,283.1 -144,265.2 -142.9,265.1 -140.7,283.1 				"/>
			</g>
			<g>
				<polygon class="st5" points="-114,264.9 -114.6,250.9 -113.5,250.9 -113,264.8 				"/>
			</g>
			<g>
				<polygon class="st5" points="-167.3,300.8 -169.4,283.5 -168.4,283.4 -166.2,300.8 				"/>
			</g>
			<g>
				<polygon class="st5" points="160.8,367.6 159.7,367.5 162.4,352.1 163.5,352.2 				"/>
			</g>
			<g>
				<polygon class="st5" points="99.1,365.4 98,365.4 100.7,351 101.8,351.1 				"/>
			</g>
			<g>
				<polygon class="st5" points="19.3,361.9 18.2,361.8 20.9,349.1 21.9,349.2 				"/>
			</g>
			<g>
				<polygon class="st5" points="-70.4,364.8 -70.9,349.7 -69.8,349.6 -69.3,364.7 				"/>
			</g>
			<g>
				<polygon class="st5" points="-26.2,363.4 -29.2,349.3 -28.2,349.2 -25.1,363.3 				"/>
			</g>
			<g>
				<polygon class="st5" points="-121.3,366.1 -123.4,350 -122.3,350 -120.2,366.1 				"/>
			</g>
			<g>
				<polygon class="st5" points="-167.3,367.7 -169.4,350.4 -168.4,350.3 -166.2,367.7 				"/>
			</g>
			<g>
				<polygon class="st5" points="-187.8,283.8 -189.5,265.9 -188.4,265.8 -186.8,283.8 				"/>
			</g>
			<g>
				<rect x="-166.3" y="251.9" class="st5" width="1.1" height="13.9"/>
			</g>
			<g>
				<polygon class="st5" points="-140.7,315 -141.8,300.3 -140.7,300.3 -139.7,314.9 				"/>
			</g>
			<g>
				<polygon class="st5" points="-116.4,332.1 -118.5,314.6 -117.5,314.5 -115.3,332 				"/>
			</g>
			<g>
				<polygon class="st5" points="-87.7,350.1 -88.8,331.4 -87.7,331.4 -86.6,350 				"/>
			</g>
			<g>
				<polygon class="st5" points="-145.1,350.1 -148.3,332.5 -147.2,332.4 -144,350 				"/>
			</g>
			<g>
				<polygon class="st5" points="114.2,400.2 113.1,400.1 115.9,383 116.9,383 				"/>
			</g>
			<g>
				<polygon class="st5" points="39,398.6 35.7,379.8 36.8,379.7 40.1,398.5 				"/>
			</g>
			<g>
				<polygon class="st5" points="-27.6,397.7 -29.8,379.6 -28.7,379.6 -26.5,397.6 				"/>
			</g>
			<g>
				<polygon class="st5" points="-87.7,398.8 -88.8,380.1 -87.7,380.1 -86.6,398.7 				"/>
			</g>
			<g>
				<polygon class="st5" points="-145.1,398.8 -148.3,381.2 -147.2,381.1 -144,398.7 				"/>
			</g>
			<g>
				<polygon class="st5" points="-181.3,332.9 -183,315.6 -181.9,315.6 -180.3,332.8 				"/>
			</g>
			<g>
				<polygon class="st5" points="-198.1,316.1 -199.2,301.7 -198.1,301.6 -197,316 				"/>
			</g>
			<g>
				<polygon class="st5" points="-223,302.5 -225.7,283.9 -224.7,283.8 -221.9,302.4 				"/>
			</g>
			<g>
				<polygon class="st5" points="-237.6,283.9 -240.9,267.1 -239.8,267 -236.6,283.8 				"/>
			</g>
			<g>
				<polygon class="st5" points="-211.3,266.3 -212.3,252.4 -211.3,252.3 -210.2,266.2 				"/>
			</g>
			<g>
				<polygon class="st5" points="-180.8,252.4 -181.8,237.5 -180.8,237.4 -179.7,252.3 				"/>
			</g>
			<g>
				<polygon class="st5" points="-143.9,251.9 -145,236.3 -143.9,236.2 -142.9,251.8 				"/>
			</g>
			<g>
				<polygon class="st5" points="-104.4,250.8 -105.5,235.2 -104.4,235.1 -103.3,250.7 				"/>
			</g>
			<g>
				<polygon class="st5" points="-63.3,250.7 -64.4,233.9 -63.3,233.8 -62.2,250.6 				"/>
			</g>
			<g>
				<polygon class="st5" points="-19.8,250.1 -18.7,232.4 -17.6,232.3 -18.8,250 				"/>
			</g>
			<g>
				<polygon class="st5" points="22.2,249.1 17.6,231.2 18.6,231.1 23.2,249 				"/>
			</g>
			<g>
				<polygon class="st5" points="63.1,249.7 63.7,233.2 64.8,233.1 64.2,249.6 				"/>
			</g>
			<g>
				<polygon class="st5" points="116,250.4 116.8,235.6 117.9,235.5 117.1,250.3 				"/>
			</g>
			<g>
				<polygon class="st5" points="-180.8,382.4 -181.8,367.5 -180.8,367.4 -179.7,382.3 				"/>
			</g>
			<g>
				<polygon class="st5" points="-143.9,381.8 -145,366.3 -143.9,366.2 -142.9,381.7 				"/>
			</g>
			<g>
				<polygon class="st5" points="-104.4,380.8 -105.5,365.2 -104.4,365.1 -103.3,380.7 				"/>
			</g>
			<g>
				<polygon class="st5" points="-63.3,380.7 -64.4,363.9 -63.3,363.8 -62.2,380.6 				"/>
			</g>
			<g>
				<polygon class="st5" points="-19.8,380.1 -18.7,362.3 -17.6,362.2 -18.8,380 				"/>
			</g>
			<g>
				<polygon class="st5" points="22.2,379 17.6,361.1 18.6,361 23.2,378.9 				"/>
			</g>
			<g>
				<polygon class="st5" points="63.1,379.7 63.7,363.2 64.8,363.1 64.2,379.6 				"/>
			</g>
			<g>
				<polygon class="st5" points="116,380.3 116.8,365.5 117.9,365.5 117.1,380.2 				"/>
			</g>
			<g>
				<polygon class="st5" points="172.1,251.4 172.8,237.7 173.9,237.6 173.1,251.3 				"/>
			</g>
			<g>
				<polygon class="st5" points="233,251.2 231,240.4 232.1,240.3 234.1,251.2 				"/>
			</g>
			<g>
				<polygon class="st5" points="280.4,251.5 279.2,239.9 280.3,239.8 281.5,251.4 				"/>
			</g>
			<g>
				<polygon class="st5" points="336.4,251 335.2,239.3 336.3,239.3 337.5,250.9 				"/>
			</g>
			<g>
				<polygon class="st5" points="386.3,250.3 391.4,239.2 392.5,239.1 387.4,250.2 				"/>
			</g>
			<g>
				<polygon class="st5" points="204.3,239.2 205,222.5 206.1,222.4 205.4,239.1 				"/>
			</g>
			<g>
				<polygon class="st5" points="264.4,240 264,222.9 265.1,222.8 265.5,239.9 				"/>
			</g>
			<g>
				<polygon class="st5" points="321.6,239.6 321.2,222.5 322.2,222.4 322.6,239.5 				"/>
			</g>
			<g>
				<polygon class="st5" points="370.3,239.4 374.2,222.3 375.3,222.2 371.4,239.3 				"/>
			</g>
			<g>
				<polygon class="st5" points="415.2,238.8 419.1,222.4 420.2,222.3 416.3,238.8 				"/>
			</g>
			<g>
				<polygon class="st5" points="-193.9,238.4 -195,220.4 -193.9,220.3 -192.9,238.3 				"/>
			</g>
			<g>
				<polygon class="st5" points="-136.9,236.3 -138,219.5 -136.9,219.4 -135.8,236.2 				"/>
			</g>
			<g>
				<polygon class="st5" points="-97.6,235.1 -98.7,219.2 -97.6,219.1 -96.5,235 				"/>
			</g>
			<g>
				<polygon class="st5" points="-57.2,233.5 -58.2,219 -57.2,219 -56.1,233.4 				"/>
			</g>
			<g>
				<polygon class="st5" points="-9.3,232.4 -10.4,218.8 -9.3,218.7 -8.3,232.3 				"/>
			</g>
			<g>
				<polygon class="st5" points="33.6,232.1 33.8,219.2 34.9,219.1 34.7,232.1 				"/>
			</g>
			<g>
				<polygon class="st5" points="83.5,234.8 85.6,220.1 86.7,220 84.6,234.7 				"/>
			</g>
			<g>
				<polygon class="st5" points="145.1,237.4 145.4,221 146.5,220.9 146.1,237.3 				"/>
			</g>
			<g>
				<polygon class="st5" points="-232,252.8 -233.1,238.9 -232,238.8 -230.9,252.7 				"/>
			</g>
			<g>
				<polygon class="st5" points="-205.7,350.5 -206.8,350.5 -205.7,333.1 -204.6,333.2 				"/>
			</g>
			<g>
				<polygon class="st5" points="-232.4,333.4 -234.4,316.3 -233.3,316.3 -231.3,333.3 				"/>
			</g>
			<g>
				<polygon class="st5" points="-249.2,316.7 -250.3,316.7 -248.1,302.7 -247,302.8 				"/>
			</g>
			<g>
				<polygon class="st5" points="-270.1,302.6 -271.7,283.5 -270.7,283.4 -269,302.6 				"/>
			</g>
			<g>
				<polygon class="st5" points="-290.7,283.5 -291.8,283.5 -291.2,267 -290.2,267 				"/>
			</g>
			<g>
				<polygon class="st5" points="-247.2,239.9 -248.3,239.8 -248.5,220.5 -247.4,220.6 				"/>
			</g>
			<g>
				<polygon class="st5" points="-266.3,267.2 -267.4,252.8 -266.3,252.7 -265.3,267.1 				"/>
			</g>
			<g>
				<polygon class="st5" points="-278.6,253.1 -278.6,238.3 -277.5,238.3 -277.5,253.1 				"/>
			</g>
			<g>
				<polygon class="st5" points="-328.6,283.1 -329.7,283.1 -329.1,267.5 -328,267.6 				"/>
			</g>
			<g>
				<polygon class="st5" points="-309.1,267.5 -310.2,267.5 -309.1,253.3 -308,253.4 				"/>
			</g>
			<g>
				<polygon class="st5" points="-349.3,267.8 -350.4,267.7 -348.1,253 -347,253.2 				"/>
			</g>
			<g>
				<polygon class="st5" points="-300.9,237.4 -302,237.2 -302.8,219.7 -301.7,219.9 				"/>
			</g>
			<g>
				<polygon class="st5" points="-327.1,253.3 -328.2,253.1 -327.7,236.3 -326.6,236.5 				"/>
			</g>
			<g>
				<polygon class="st5" points="-313.4,300.7 -314.5,300.6 -313.4,283.1 -312.3,283.1 				"/>
			</g>
			<g>
				<polygon class="st5" points="-291.6,316.7 -293.8,301.3 -292.7,301.2 -290.6,316.6 				"/>
			</g>
			<g>
				<polygon class="st5" points="-305.3,334.7 -305.9,316.8 -304.8,316.7 -304.2,334.7 				"/>
			</g>
			<g>
				<polygon class="st5" points="-266.9,350.6 -268,333.6 -266.9,333.6 -265.8,350.6 				"/>
			</g>
			<g>
				<polygon class="st5" points="-329,350 -331.3,334.5 -330.2,334.4 -327.9,349.9 				"/>
			</g>
			<g>
				<polygon class="st5" points="-350.8,334.3 -351.9,316.9 -350.8,316.8 -349.7,334.3 				"/>
			</g>
			<g>
				<polygon class="st5" points="-332.8,317.2 -333.9,299.6 -332.8,299.6 -331.7,317.2 				"/>
			</g>
			<g>
				
					<rect x="-368.3" y="290.2" transform="matrix(5.203566e-02 -0.9986 0.9986 5.203566e-02 -631.7052 -84.0491)" class="st5" width="16.3" height="1.1"/>
			</g>
			<g>
				<polygon class="st5" points="-378.9,282.4 -380.6,268.1 -379.5,268.1 -377.9,282.4 				"/>
			</g>
			<g>
				<polygon class="st5" points="-403.8,335.7 -404.9,335.7 -403.8,317.1 -402.8,317.1 				"/>
			</g>
			<g>
				<polygon class="st5" points="-383.3,349.3 -383.8,335 -382.7,335 -382.2,349.3 				"/>
			</g>
			<g>
				<polygon class="st5" points="-429.8,348.6 -430.9,348.6 -431,335.3 -430,335.3 				"/>
			</g>
			<g>
				<polygon class="st5" points="-384.3,317.5 -386.4,298.1 -385.3,298 -383.3,317.4 				"/>
			</g>
			<g>
				<polygon class="st5" points="-429.8,317.1 -430.9,317.1 -429.1,296.1 -428.1,296.1 				"/>
			</g>
			<g>
				<polygon class="st5" points="-407.6,296.7 -408.7,282.4 -407.6,282.4 -406.5,296.7 				"/>
			</g>
			<g>
				<polygon class="st5" points="-433.1,281.7 -434.1,281.6 -432,268.7 -430.9,268.8 				"/>
			</g>
			<g>
				<polygon class="st5" points="-401.3,268.5 -402.3,268.5 -402.2,253.6 -401.1,253.6 				"/>
			</g>
			<g>
				<polygon class="st5" points="-380.7,253.5 -381.8,253.5 -379.7,234.4 -378.6,234.4 				"/>
			</g>
			<g>
				<polygon class="st5" points="-430.5,253.5 -431.6,253.5 -431.4,232.6 -430.4,232.6 				"/>
			</g>
			<g>
				<polygon class="st5" points="-398,234.2 -399.1,234.2 -399,218.8 -397.9,218.8 				"/>
			</g>
			<g>
				<polygon class="st5" points="-352.4,235.7 -353.4,235.7 -351,219.4 -349.9,219.4 				"/>
			</g>
			<g>
				<polygon class="st5" points="370.3,156.1 366.8,136.3 367.8,136.2 371.4,156 				"/>
			</g>
			<g>
				<polygon class="st5" points="334.7,172.9 333.6,172.8 335.8,156 336.9,156 				"/>
			</g>
			<g>
				<polygon class="st5" points="403.3,171.8 399,155.8 400.1,155.7 404.4,171.6 				"/>
			</g>
			<g>
				<polygon class="st5" points="290.7,156.1 289.6,156.1 290.7,139.6 291.8,139.6 				"/>
			</g>
			<g>
				<polygon class="st5" points="281.8,184.3 280.7,184.1 283,173.1 284.1,173.2 				"/>
			</g>
			<g>
				<polygon class="st5" points="356.6,183.8 354.5,172.6 355.5,172.5 357.7,183.7 				"/>
			</g>
			<g>
				<polygon class="st5" points="416.6,183.4 415.5,183.3 417.7,171.8 418.7,171.8 				"/>
			</g>
			<g>
				<polygon class="st5" points="316.2,205.5 312.9,184.5 314,184.5 317.2,205.5 				"/>
			</g>
			<g>
				<rect x="381.7" y="183.6" class="st5" width="1.1" height="19"/>
			</g>
			<g>
				<rect x="266.2" y="156.4" class="st5" width="1.1" height="17.1"/>
			</g>
			<g>
				<polygon class="st5" points="246.3,156.4 243.1,141.8 244.1,141.7 247.4,156.4 				"/>
			</g>
			<g>
				<polygon class="st5" points="220,141.3 218.9,121.7 220,121.6 221.1,141.2 				"/>
			</g>
			<g>
				
					<rect x="257.4" y="130" transform="matrix(3.913497e-02 -0.9992 0.9992 3.913497e-02 125.9753 392.1401)" class="st5" width="19.1" height="1.1"/>
			</g>
			<g>
				<polygon class="st5" points="322.6,138.1 321.6,138 322.6,121 323.7,121.1 				"/>
			</g>
			<g>
				<polygon class="st5" points="343.2,120.9 342.1,120.9 342.5,109.1 343.6,109.2 				"/>
			</g>
			<g>
				<polygon class="st5" points="299.2,121.5 298.1,121.4 298.5,109.7 299.5,109.8 				"/>
			</g>
			<g>
				<polygon class="st5" points="251,121.5 249.9,121.4 250.3,110.2 251.4,110.2 				"/>
			</g>
			<g>
				<polygon class="st5" points="209.5,121.5 208.4,121.4 208.8,109.7 209.9,109.8 				"/>
			</g>
			<g>
				<polygon class="st5" points="172.3,121.1 171.2,121.1 171.6,108.2 172.7,108.3 				"/>
			</g>
			<g>
				<polygon class="st5" points="131.9,120.8 130.8,120.7 131.2,106.1 132.3,106.2 				"/>
			</g>
			<g>
				<polygon class="st5" points="93.5,120.5 92.4,120.5 92.7,104.5 93.8,104.6 				"/>
			</g>
			<g>
				<polygon class="st5" points="48.4,119.8 47.3,119.7 46.9,103 48,103 				"/>
			</g>
			<g>
				<polygon class="st5" points="6.9,119.9 5.8,119.8 5.4,101.9 6.5,102 				"/>
			</g>
			<g>
				<polygon class="st5" points="-36.1,120.2 -37.2,120.1 -37.6,103.3 -36.5,103.4 				"/>
			</g>
			<g>
				<polygon class="st5" points="-82.5,120.6 -83.5,120.6 -83.9,104.8 -82.9,104.8 				"/>
			</g>
			<g>
				<polygon class="st5" points="-131,121.5 -132.1,121.5 -134.3,106.2 -133.2,106.3 				"/>
			</g>
			<g>
				<polygon class="st5" points="-184,122.6 -185.1,122.5 -187.3,107.6 -186.2,107.7 				"/>
			</g>
			<g>
				<polygon class="st5" points="-233.8,122.9 -234.9,122.8 -235.2,109.2 -234.1,109.2 				"/>
			</g>
			<g>
				<polygon class="st5" points="-282.9,123.2 -284,123.1 -283.2,108.5 -282.1,108.5 				"/>
			</g>
			<g>
				<polygon class="st5" points="-326.6,123.4 -327.7,123.3 -329.9,106.6 -328.8,106.6 				"/>
			</g>
			<g>
				<polygon class="st5" points="-375.3,123.6 -376.4,123.5 -378.1,104.6 -377,104.7 				"/>
			</g>
			<g>
				<polygon class="st5" points="-426.6,123.8 -427.6,123.7 -426.4,102.9 -425.3,102.9 				"/>
			</g>
			<g>
				<polygon class="st5" points="377.9,136.1 376.8,120.6 377.9,120.5 378.9,136 				"/>
			</g>
			<g>
				<polygon class="st5" points="399,120.7 398.1,108.8 399.2,108.7 400.1,120.6 				"/>
			</g>
			<g>
				<polygon class="st5" points="377.5,109.3 377.9,93.2 379,93.1 378.6,109.2 				"/>
			</g>
			<g>
				<polygon class="st5" points="322.7,110.2 323.2,93 324.3,92.8 323.8,110 				"/>
			</g>
			<g>
				<polygon class="st5" points="266,110.4 266.5,93.2 267.6,93.1 267.1,110.3 				"/>
			</g>
			<g>
				<polygon class="st5" points="219.8,110.3 220.3,93.4 221.4,93.3 220.9,110.2 				"/>
			</g>
			<g>
				<polygon class="st5" points="183.4,108.7 183.9,92.4 185,92.2 184.5,108.6 				"/>
			</g>
			<g>
				<polygon class="st5" points="148,107.6 148.5,91.9 149.6,91.8 149.1,107.4 				"/>
			</g>
			<g>
				<polygon class="st5" points="102.2,105.6 102.7,90.7 103.8,90.6 103.3,105.5 				"/>
			</g>
			<g>
				<polygon class="st5" points="66.1,103.9 66.6,90 67.7,89.8 67.2,103.8 				"/>
			</g>
			<g>
				<polygon class="st5" points="18.1,101.8 18.6,89 19.7,88.9 19.2,101.7 				"/>
			</g>
			<g>
				<path class="st5" d="M-49.1,103.7l0.5-14.3l1.1-0.1l-0.5,13.6C-47.9,103.3-48.4,103.6-49.1,103.7z"/>
			</g>
			<g>
				<polygon class="st5" points="-104.3,105.5 -103.7,89.6 -102.7,89.5 -103.2,105.3 				"/>
			</g>
			<g>
				<polygon class="st5" points="-162.7,107.3 -162.9,90.1 -161.8,90 -161.6,107.1 				"/>
			</g>
			<g>
				<polygon class="st5" points="-217.4,108.8 -217.6,90.3 -216.5,90.2 -216.3,108.7 				"/>
			</g>
			<g>
				<polygon class="st5" points="-254.8,109.7 -255,90.6 -253.9,90.4 -253.7,109.5 				"/>
			</g>
			<g>
				<polygon class="st5" points="-299.7,108 -298.3,89.9 -297.2,89.7 -298.6,107.8 				"/>
			</g>
			<g>
				<polygon class="st5" points="-352,105.8 -350.6,89.4 -349.5,89.3 -350.9,105.7 				"/>
			</g>
			<g>
				<polygon class="st5" points="-401.5,103.9 -401.5,88.7 -400.4,88.5 -400.4,103.8 				"/>
			</g>
			<g>
				<polygon class="st5" points="233.7,209 232.6,208.9 237.8,185.2 238.9,185.3 				"/>
			</g>
			<g>
				<polygon class="st5" points="229.4,184.8 228.3,184.7 230.6,173.6 231.7,173.8 				"/>
			</g>
			<g>
				<polygon class="st5" points="208.4,172.9 207.3,172.9 208.4,156 209.5,156 				"/>
			</g>
			<g>
				<polygon class="st5" points="185.7,156 184.6,155.9 186.8,139.6 187.8,139.7 				"/>
			</g>
			<g>
				<polygon class="st5" points="177,184.3 174.3,171.7 175.4,171.5 178.1,184.2 				"/>
			</g>
			<g>
				<polygon class="st5" points="160.8,170.8 159.7,170.7 162.4,155.3 163.5,155.4 				"/>
			</g>
			<g>
				<polygon class="st5" points="164.4,138.8 163.9,120.9 164.9,120.9 165.5,138.8 				"/>
			</g>
			<g>
				<polygon class="st5" points="133.7,154.7 132.6,154.6 133.7,137.2 134.8,137.3 				"/>
			</g>
			<g>
				<polygon class="st5" points="119,183.7 117.9,183.6 119.5,169 120.6,169 				"/>
			</g>
			<g>
				<polygon class="st5" points="159.2,206.3 156.5,184.3 157.5,184.3 160.2,206.2 				"/>
			</g>
			<g>
				<polygon class="st5" points="114.2,220.9 113.1,220.8 115.9,204.4 116.9,204.5 				"/>
			</g>
			<g>
				<polygon class="st5" points="90.4,203.4 89.3,203.4 91.5,184 92.6,184.1 				"/>
			</g>
			<g>
				<polygon class="st5" points="72,183.2 70.9,183.1 73.1,167 74.2,167 				"/>
			</g>
			<g>
				<polygon class="st5" points="99.1,168.2 98,168.1 100.7,153.8 101.8,153.9 				"/>
			</g>
			<g>
				<polygon class="st5" points="80.1,153.6 79.4,153.6 79.7,134.6 80.4,134.6 				"/>
			</g>
			<g>
				<polygon class="st5" points="108.3,136.2 107.2,136.1 108.3,120.3 109.4,120.3 				"/>
			</g>
			<g>
				<rect x="178.1" y="206.9" class="st5" width="1" height="15.3"/>
			</g>
			<g>
				<polygon class="st5" points="245.1,223.7 244,223.5 249.7,208.4 250.8,208.6 				"/>
			</g>
			<g>
				<polygon class="st5" points="303.7,223.5 301,206.2 302.1,206.1 304.7,223.4 				"/>
			</g>
			<g>
				<polygon class="st5" points="353.6,222.6 352.6,222.5 358,203.5 359,203.6 				"/>
			</g>
			<g>
				<rect x="411.3" y="201.3" class="st5" width="1.1" height="21.1"/>
			</g>
			<g>
				<polygon class="st5" points="39,219.1 35.7,201.2 36.8,201.1 40.1,219 				"/>
			</g>
			<g>
				<polygon class="st5" points="12.8,200.2 11.7,200.1 14.4,182.1 15.5,182.2 				"/>
			</g>
			<g>
				<polygon class="st5" points="1.5,182.6 -2.2,165.4 -1.1,165.3 2.5,182.5 				"/>
			</g>
			<g>
				<polygon class="st5" points="19.3,165.2 18.2,165.1 20.9,152.3 21.9,152.4 				"/>
			</g>
			<g>
				<polygon class="st5" points="40.6,152.9 39.3,133 40.3,132.9 41.7,152.8 				"/>
			</g>
			<g>
				<polygon class="st5" points="-8.5,151.9 -7.6,132.7 -6.5,132.7 -7.4,151.9 				"/>
			</g>
			<g>
				<polygon class="st5" points="52.7,133.9 52.2,119.6 53.2,119.6 53.8,133.9 				"/>
			</g>
			<g>
				<polygon class="st5" points="19.3,132.2 18.2,119.7 19.3,119.7 20.4,132.2 				"/>
			</g>
			<g>
				<polygon class="st5" points="-27.6,219.1 -29.8,201.1 -28.7,201 -26.5,219.1 				"/>
			</g>
			<g>
				<polygon class="st5" points="-60.9,201 -62,200.9 -60.9,183.4 -59.8,183.4 				"/>
			</g>
			<g>
				<polygon class="st5" points="-39.7,183.6 -44.9,166.8 -43.9,166.6 -38.6,183.4 				"/>
			</g>
			<g>
				<polygon class="st5" points="-97.4,183.9 -98.5,183.9 -98,168.6 -96.9,168.6 				"/>
			</g>
			<g>
				<polygon class="st5" points="-72,167.4 -72.5,152.3 -71.5,152.3 -70.9,167.4 				"/>
			</g>
			<g>
				<polygon class="st5" points="-27.4,166.1 -30.5,152.1 -29.4,152 -26.3,166 				"/>
			</g>
			<g>
				<rect x="-53" y="133" class="st5" width="0.9" height="19.1"/>
			</g>
			<g>
				<polygon class="st5" points="-87.9,152.6 -91.8,134 -90.8,133.8 -86.8,152.4 				"/>
			</g>
			<g>
				<rect x="-26.3" y="119.8" class="st5" width="1.1" height="13.4"/>
			</g>
			<g>
				<rect x="-72.7" y="120.3" class="st5" width="1.1" height="13.4"/>
			</g>
			<g>
				<polygon class="st5" points="-121.3,169.4 -123.4,153.3 -122.3,153.2 -120.2,169.3 				"/>
			</g>
			<g>
				<polygon class="st5" points="-141.8,153.2 -144,134.8 -142.9,134.7 -140.7,153.1 				"/>
			</g>
			<g>
				<polygon class="st5" points="-114.6,134.7 -115.1,121.1 -114,121.1 -113.5,134.7 				"/>
			</g>
			<g>
				<polygon class="st5" points="-167.3,170.3 -169.4,152.8 -168.4,152.8 -166.2,170.2 				"/>
			</g>
			<g>
				<polygon class="st5" points="-187.8,152.9 -189.5,135.6 -188.4,135.6 -186.8,152.8 				"/>
			</g>
			<g>
				<rect x="-161" y="121.8" class="st5" width="1.1" height="13.5"/>
			</g>
			<g>
				<polygon class="st5" points="-140.7,184.8 -141.8,169.5 -140.7,169.5 -139.7,184.7 				"/>
			</g>
			<g>
				<polygon class="st5" points="-116.9,201.6 -119.1,184.1 -118,184 -115.8,201.5 				"/>
			</g>
			<g>
				<polygon class="st5" points="-87.7,219 -88.8,201.6 -87.7,201.6 -86.6,219 				"/>
			</g>
			<g>
				<polygon class="st5" points="-145.1,219.8 -148.3,202.7 -147.2,202.6 -144,219.7 				"/>
			</g>
			<g>
				<polygon class="st5" points="-181.3,203 -183,185.8 -181.9,185.7 -180.3,203 				"/>
			</g>
			<g>
				<polygon class="st5" points="-198.1,185.8 -199.2,171.7 -198.1,171.6 -197,185.8 				"/>
			</g>
			<g>
				<polygon class="st5" points="-223,171.8 -225.7,154 -224.7,153.9 -221.9,171.8 				"/>
			</g>
			<g>
				<polygon class="st5" points="-237.6,154 -240.9,136.4 -239.8,136.3 -236.6,153.9 				"/>
			</g>
			<g>
				<polygon class="st5" points="-210.2,135.9 -211.3,122.6 -210.2,122.5 -209.1,135.9 				"/>
			</g>
			<g>
				<polygon class="st5" points="-205.7,220.6 -206.8,220.6 -205.7,203.3 -204.6,203.3 				"/>
			</g>
			<g>
				<polygon class="st5" points="-232.4,203.5 -234.4,186 -233.3,185.9 -231.3,203.4 				"/>
			</g>
			<g>
				<polygon class="st5" points="-249.2,186.5 -250.3,186.4 -248.1,172.9 -247,173 				"/>
			</g>
			<g>
				<polygon class="st5" points="-270.1,172 -271.7,153.6 -270.7,153.6 -269,171.9 				"/>
			</g>
			<g>
				<polygon class="st5" points="-290.7,153.7 -291.8,153.7 -291.2,137.1 -290.2,137.1 				"/>
			</g>
			<g>
				<polygon class="st5" points="-264.5,136.8 -265.6,123.6 -264.5,123.6 -263.4,136.8 				"/>
			</g>
			<g>
				<polygon class="st5" points="-328.6,153.2 -329.7,153.2 -329.1,138.2 -328,138.2 				"/>
			</g>
			<g>
				<polygon class="st5" points="-309.1,137.1 -310.2,137 -309.1,123.5 -308,123.5 				"/>
			</g>
			<g>
				<polygon class="st5" points="-348.4,137.7 -349.5,137.6 -348.4,123.6 -347.3,123.7 				"/>
			</g>
			<g>
				<polygon class="st5" points="-313.4,170.2 -314.5,170.1 -313.4,153.2 -312.3,153.2 				"/>
			</g>
			<g>
				<polygon class="st5" points="-291.6,186.2 -293.8,171.4 -292.7,171.4 -290.6,186.1 				"/>
			</g>
			<g>
				<polygon class="st5" points="-305.1,204.1 -305.7,186.2 -304.6,186.2 -304.1,204.1 				"/>
			</g>
			<g>
				<polygon class="st5" points="-266.9,220.7 -268,203.7 -266.9,203.7 -265.8,220.7 				"/>
			</g>
			<g>
				<polygon class="st5" points="-329,219.6 -331.3,204.6 -330.2,204.5 -327.9,219.5 				"/>
			</g>
			<g>
				<polygon class="st5" points="-350.8,204.4 -351.9,187 -350.8,187 -349.7,204.4 				"/>
			</g>
			<g>
				<polygon class="st5" points="-332.8,186.4 -333.9,169.8 -332.8,169.7 -331.7,186.4 				"/>
			</g>
			<g>
				<polygon class="st5" points="-360,168.5 -361.1,168.4 -360.3,152.7 -359.2,152.7 				"/>
			</g>
			<g>
				<polygon class="st5" points="-378.9,152.5 -380.6,137.9 -379.5,137.8 -377.9,152.5 				"/>
			</g>
			<g>
				<polygon class="st5" points="-403.8,204.8 -404.9,204.8 -403.8,186.8 -402.8,186.8 				"/>
			</g>
			<g>
				<polygon class="st5" points="-383.3,219.5 -383.8,205.2 -382.7,205.1 -382.2,219.5 				"/>
			</g>
			<g>
				<polygon class="st5" points="-429.8,218.8 -430.9,218.8 -431,205.4 -430,205.4 				"/>
			</g>
			<g>
				<polygon class="st5" points="-384.3,186.6 -386.4,167.6 -385.3,167.6 -383.3,186.6 				"/>
			</g>
			<g>
				<polygon class="st5" points="-429.8,187.3 -430.9,187.2 -429.1,166.2 -428.1,166.2 				"/>
			</g>
			<g>
				<polygon class="st5" points="-407.6,166.8 -408.7,152.5 -407.6,152.5 -406.5,166.8 				"/>
			</g>
			<g>
				<polygon class="st5" points="-433.1,151.8 -434.1,151.8 -432,138.9 -430.9,138.9 				"/>
			</g>
			<g>
				<polygon class="st5" points="-399.8,137.9 -400.9,137.9 -400.8,123.7 -399.7,123.7 				"/>
			</g>
			<line class="st0" x1="134" y1="555.9" x2="134" y2="67"/>
			<line class="st0" x1="474" y1="67" x2="474" y2="555.9"/>
			<g>
				<polygon class="st5" points="365.7,438.3 152.7,429.2 -113.5,437.3 -361.9,427.8 -361.8,427.1 -113.5,436.6 152.7,428.5 
					365.7,437.6 618.3,434.7 618.3,435.4 				"/>
			</g>
			<g>
				<polygon class="st5" points="367.9,421.1 143.4,416.3 -113.6,418.2 -361.9,415.4 -361.9,414.7 -113.6,417.5 143.4,415.6 
					367.9,420.4 615.7,419 623.4,395.8 367.2,406.3 146.2,397.7 -112.8,401.1 -365.5,403.4 -365.5,402.7 -112.9,400.3 146.3,397 
					367.2,405.6 624.8,395.1 616.6,419.7 616.2,419.7 				"/>
			</g>
			<g>
				<polygon class="st5" points="-360.4,451.7 -360.4,451 -115.7,450 152.8,446.2 357.8,448.6 608.2,446.7 608.2,447.4 357.8,449.3 
					152.8,446.9 -115.7,450.7 				"/>
			</g>
			<polyline class="st5" points="448,381.3 451.2,402.3 450.2,402.4 446.9,381.4 			"/>
			<polyline class="st5" points="516.7,381.2 516.7,399.9 515.7,399.9 515.7,381.2 			"/>
			<g>
				<polygon class="st5" points="354.5,436.8 352.9,420.9 354,420.9 355.6,436.8 				"/>
			</g>
			<polyline class="st5" points="372.9,382.2 367.7,405.9 366.6,405.8 371.8,382.1 			"/>
			<g>
				<polygon class="st5" points="415.5,448.6 414.4,448.5 416.7,437.5 417.8,437.6 				"/>
			</g>
			<g>
				<polygon class="st5" points="362,449.2 360.9,449 363.3,438 364.3,438.1 				"/>
			</g>
			<g>
				<polygon class="st5" points="248.2,418.5 247.1,418.4 249.9,401.3 250.9,401.3 				"/>
			</g>
			<g>
				<rect x="312.1" y="403.8" class="st5" width="1" height="15.9"/>
			</g>
			<g>
				<polygon class="st5" points="379.1,420.9 378,420.7 383.7,405.3 384.8,405.5 				"/>
			</g>
			<g>
				<polygon class="st5" points="437.7,420.4 435,403.1 436.1,403 438.7,420.3 				"/>
			</g>
			<g>
				<rect x="312.1" y="448.4" class="st5" width="1" height="23.3"/>
			</g>
			<g>
				<polygon class="st5" points="379.1,463.6 378,463.4 383.7,447.9 384.8,448.1 				"/>
			</g>
			<g>
				<polygon class="st5" points="437.7,463 435,445.7 436.1,445.6 438.7,462.9 				"/>
			</g>
			<g>
				<polygon class="st5" points="487.5,420 486.4,419.9 491.8,400.9 492.9,401 				"/>
			</g>
			<g>
				<rect x="545.4" y="398.7" class="st5" width="1.1" height="21.1"/>
			</g>
			<g>
				<polygon class="st5" points="173,416.9 169.7,398.1 170.8,398 174.1,416.8 				"/>
			</g>
			<g>
				<polygon class="st5" points="106.4,416 104.2,398 105.3,397.9 107.5,415.9 				"/>
			</g>
			<g>
				<polygon class="st5" points="294.8,434.6 293.7,434.5 296.4,419.1 297.5,419.2 				"/>
			</g>
			<g>
				<polygon class="st5" points="233.1,432.4 232,432.4 234.7,418 235.8,418.1 				"/>
			</g>
			<g>
				<polygon class="st5" points="153.3,428.9 152.2,428.8 154.9,416.1 155.9,416.2 				"/>
			</g>
			<g>
				<polygon class="st5" points="63.6,431.8 63.1,416.7 64.2,416.6 64.7,431.7 				"/>
			</g>
			<g>
				<polygon class="st5" points="107.8,430.4 104.8,416.3 105.8,416.2 108.9,430.3 				"/>
			</g>
			<g>
				<polygon class="st5" points="12.7,433.1 10.6,417 11.7,417 13.8,433.1 				"/>
			</g>
			<g>
				<polygon class="st5" points="-33.3,434.7 -35.4,417.4 -34.4,417.3 -32.2,434.7 				"/>
			</g>
			<g>
				<polygon class="st5" points="46.3,417.1 45.2,398.4 46.3,398.4 47.4,417 				"/>
			</g>
			<g>
				<polygon class="st5" points="-11.1,417.1 -14.3,399.5 -13.2,399.4 -10,417 				"/>
			</g>
			<g>
				<polygon class="st5" points="258.2,471 257.1,470.8 259.9,447 260.9,447.1 				"/>
			</g>
			<g>
				<polygon class="st5" points="173,465.6 169.7,446.8 170.8,446.7 174.1,465.5 				"/>
			</g>
			<g>
				<polygon class="st5" points="106.4,464.7 104.2,446.6 105.3,446.6 107.5,464.6 				"/>
			</g>
			<g>
				<polygon class="st5" points="46.3,465.8 45.2,447.1 46.3,447.1 47.4,465.7 				"/>
			</g>
			<g>
				<polygon class="st5" points="-11.1,465.8 -14.3,448.2 -13.2,448.1 -10,465.7 				"/>
			</g>
			<polyline class="st5" points="-47.9,382.6 -46.3,399.8 -47.3,399.9 -49,382.6 			"/>
			<g>
				<polygon class="st5" points="-46.8,449.4 -47.8,434.5 -46.8,434.4 -45.7,449.3 				"/>
			</g>
			<g>
				<polygon class="st5" points="-9.9,448.8 -11,433.3 -9.9,433.2 -8.9,448.7 				"/>
			</g>
			<g>
				<polygon class="st5" points="29.6,447.8 28.5,432.2 29.6,432.1 30.7,447.7 				"/>
			</g>
			<g>
				<polygon class="st5" points="70.7,447.7 69.6,430.9 70.7,430.8 71.8,447.6 				"/>
			</g>
			<g>
				<polygon class="st5" points="114.2,447.1 115.3,429.3 116.4,429.2 115.2,447 				"/>
			</g>
			<g>
				<polygon class="st5" points="156.2,446 151.6,428.1 152.6,428 157.2,445.9 				"/>
			</g>
			<g>
				<polygon class="st5" points="197.1,446.7 197.7,430.2 198.8,430.1 198.2,446.6 				"/>
			</g>
			<g>
				<polygon class="st5" points="250,447.3 250.8,432.5 251.9,432.5 251.1,447.2 				"/>
			</g>
			<g>
				<polygon class="st5" points="-71.7,417.5 -72.8,417.5 -71.7,400.1 -70.6,400.2 				"/>
			</g>
			<polyline class="st5" points="-99.3,383.3 -97.3,400.3 -98.4,400.4 -100.4,383.3 			"/>
			<polyline class="st5" points="-170.8,383.7 -170.2,401.7 -171.3,401.7 -171.9,383.8 			"/>
			<g>
				<polygon class="st5" points="-132.9,417.6 -134,400.6 -132.9,400.6 -131.8,417.6 				"/>
			</g>
			<g>
				<polygon class="st5" points="-195,417 -197.3,401.5 -196.2,401.4 -193.9,416.9 				"/>
			</g>
			<polyline class="st5" points="-216.8,383.8 -215.7,401.3 -216.8,401.3 -217.9,383.9 			"/>
			<polyline class="st5" points="-268.8,384.1 -269.8,402.7 -270.9,402.7 -269.8,384.1 			"/>
			<g>
				<polygon class="st5" points="-249.3,416.3 -249.8,402 -248.7,402 -248.2,416.3 				"/>
			</g>
			<g>
				<polygon class="st5" points="-295.8,415.6 -296.9,415.6 -297,402.3 -296,402.3 				"/>
			</g>
			<g>
				<polygon class="st5" points="351.7,505.3 138.7,496.2 -127.5,504.3 -375.9,494.8 -375.8,494.1 -127.5,503.6 138.7,495.5 
					351.7,504.6 604.3,501.7 604.3,502.4 				"/>
			</g>
			<g>
				<polygon class="st5" points="353.9,488.1 129.4,483.3 -127.6,485.2 -375.9,482.4 -375.9,481.7 -127.6,484.5 129.4,482.6 
					353.9,487.4 601.7,486 609.4,462.8 353.2,473.3 132.2,464.7 -126.8,468.1 -379.5,470.4 -379.5,469.7 -126.9,467.3 132.3,464 
					353.2,472.6 610.8,462.1 602.6,486.7 602.2,486.7 				"/>
			</g>
			<g>
				<polygon class="st5" points="234.2,485.5 233.1,485.4 235.9,468.3 236.9,468.3 				"/>
			</g>
			<g>
				<rect x="298.1" y="470.8" class="st5" width="1" height="15.9"/>
			</g>
			<g>
				<polygon class="st5" points="159,483.9 155.7,465.1 156.8,465 160.1,483.8 				"/>
			</g>
			<g>
				<polygon class="st5" points="92.4,483 90.2,465 91.3,464.9 93.5,482.9 				"/>
			</g>
			<g>
				<polygon class="st5" points="280.8,501.6 279.7,501.5 282.4,486.1 283.5,486.2 				"/>
			</g>
			<g>
				<polygon class="st5" points="219.1,499.4 218,499.4 220.7,485 221.8,485.1 				"/>
			</g>
			<g>
				<polygon class="st5" points="139.3,495.9 138.2,495.8 140.9,483.1 141.9,483.2 				"/>
			</g>
			<g>
				<polygon class="st5" points="49.6,498.8 49.1,483.7 50.2,483.6 50.7,498.7 				"/>
			</g>
			<g>
				<polygon class="st5" points="93.8,497.4 90.8,483.3 91.8,483.2 94.9,497.3 				"/>
			</g>
			<g>
				<polygon class="st5" points="-1.3,500.1 -3.4,484 -2.3,484 -0.2,500.1 				"/>
			</g>
			<g>
				<polygon class="st5" points="32.3,484.1 31.2,465.4 32.3,465.4 33.4,484 				"/>
			</g>
		</g>
	</g>
	<g id="XMLID_514_" class="st6">
		<path id="XMLID_533_" class="st7" d="M264.5,45.4c0.1-0.6,0.3-1.3,0.4-2c0,0,0,0,0,0c0.1-0.6,0.2-1.3,0.3-1.9c0-0.1,0-0.1,0-0.2
			c0.1-0.6,0.1-1.2,0.1-1.8c0-0.1,0-0.2,0-0.3c0-0.7,0.1-1.4,0.1-2c0-20.7-16-37.5-35.8-37.5c-0.6,0-1.3,0-1.9,0.1
			c-0.2,0-0.4,0-0.6,0.1c-0.4,0-0.9,0.1-1.3,0.1C225.4,0,225.2,0,225,0c-0.4,0.1-0.8,0.1-1.2,0.2c-0.2,0-0.5,0.1-0.7,0.1
			c-0.4,0.1-0.8,0.1-1.2,0.2c-0.2,0.1-0.5,0.1-0.7,0.2c-0.4,0.1-0.8,0.2-1.2,0.3c-0.2,0.1-0.4,0.1-0.6,0.2c-0.4,0.1-0.8,0.3-1.2,0.4
			c-0.2,0.1-0.4,0.1-0.6,0.2c-0.4,0.2-0.8,0.3-1.2,0.5c-0.2,0.1-0.3,0.1-0.5,0.2c-0.5,0.2-0.9,0.4-1.3,0.6c-0.1,0.1-0.2,0.1-0.3,0.2
			c-0.5,0.3-1.1,0.5-1.6,0.8c0,0,0,0,0,0c-3.3,1.9-6.4,4.3-9,7.1c0,0,0,0,0,0c-0.4,0.5-0.8,0.9-1.2,1.4c0,0,0,0,0,0v0
			c-5.5,6.6-8.8,15.2-8.8,24.6c0,20.7,16,37.5,35.8,37.5C246.6,74.7,260.9,62.2,264.5,45.4C264.5,45.4,264.5,45.4,264.5,45.4
			C264.5,45.4,264.5,45.4,264.5,45.4z"/>
		<g id="XMLID_515_">
			<ellipse id="XMLID_532_" class="st8" cx="229.5" cy="29.8" rx="35.8" ry="35.5"/>
			<path id="XMLID_531_" class="st9" d="M229.5-5.7c-10.8,0-20.5,4.8-27.1,12.3c-0.6,2.5-0.9,5.1-0.9,7.8c0,19.6,16,35.5,35.8,35.5
				c10.8,0,20.5-4.8,27.1-12.3c0.6-2.5,0.9-5.1,0.9-7.8C265.3,10.2,249.3-5.7,229.5-5.7z"/>
			<g id="XMLID_528_">
				<rect id="XMLID_530_" x="228.7" y="56.8" class="st10" width="1.6" height="6.6"/>
				<rect id="XMLID_529_" x="228.7" y="-3.5" class="st10" width="1.6" height="6.6"/>
			</g>
			<g id="XMLID_525_">
				<rect id="XMLID_527_" x="196.4" y="29.1" class="st10" width="6.5" height="1.6"/>
				<rect id="XMLID_526_" x="256.2" y="29.1" class="st10" width="6.5" height="1.6"/>
			</g>
			<g id="XMLID_522_">
				<polygon id="XMLID_524_" class="st10" points="210.1,11.5 211.2,10.4 206.6,5.7 205.5,6.8 				"/>
				<polygon id="XMLID_523_" class="st10" points="252.4,54.2 253.5,53 248.9,48.4 247.8,49.5 				"/>
			</g>
			<g id="XMLID_519_">
				<polygon id="XMLID_521_" class="st10" points="247.8,10.4 248.9,11.5 253.5,6.8 252.4,5.7 				"/>
				<polygon id="XMLID_520_" class="st10" points="205.5,53 206.6,54.2 211.2,49.5 210.1,48.4 				"/>
			</g>
			<rect id="XMLID_518_" x="227.7" y="15.1" class="st10" width="3.5" height="15.4"/>
			<polygon id="XMLID_517_" class="st10" points="243.9,45.5 245.8,43.6 230.3,28 228.5,29.9 			"/>
			<g id="XMLID_516_">
				<path class="st11" d="M229.5,66.6c-20.4,0-37-16.5-37-36.8c0-20.3,16.6-36.8,37-36.8c20.4,0,37,16.5,37,36.8
					C266.5,50.1,249.9,66.6,229.5,66.6z M229.5-4.5c-19.1,0-34.6,15.4-34.6,34.3c0,18.9,15.5,34.3,34.6,34.3
					c19.1,0,34.6-15.4,34.6-34.3C264.1,10.9,248.6-4.5,229.5-4.5z"/>
			</g>
		</g>
	</g>
	<g class="st6">
		<path class="st12" d="M322.3,168.8l-1.2,10.4c0,0-0.8,3,6,4.6c6.2,1.4,7-3.4,7-3.4l2.2-15.8L322.3,168.8z"/>
		<path class="st13" d="M341.8,116.2c11.8,4.8,10.1,13.2,10.1,13.2s-1.5,6.5-3,14.2c1.4-1.4,3.4-1.7,5.3-0.5
			c3.9,2.5-1.4,15.2-7.6,13c-0.9,3.6-1.7,6.4-2.4,7.4c-2.4,3.5-11.2,7.9-18.3,7.6c-7.1-0.3-15.1-6.4-13.7-14.6
			c1.4-8.2,6.3-38.7,6.3-38.7S322.2,108.1,341.8,116.2z"/>
		
			<ellipse transform="matrix(0.1635 -0.9865 0.9865 0.1635 132.2357 432.6561)" class="st14" cx="321.3" cy="138.3" rx="3.3" ry="1.8"/>
		<g>
			<path class="st15" d="M330.1,136.4c1.1-0.2,1.5-0.8,2.1-1.3c0.6-0.5,1.3-1.1,2.4-1.6c0.5-0.2,1.1-0.4,1.8-0.4c0.3,0,0.7,0,1,0.1
				c0.3,0.1,0.6,0.2,0.9,0.4c1.1,0.7,1.6,1.8,1.7,2.9c-1.1-0.3-1.9-0.6-2.5-0.6c-0.6,0-1,0.2-1.7,0.5c-0.7,0.3-1.5,0.7-2.6,0.9
				c-0.3,0.1-0.5,0.1-0.8,0.1c-0.3,0-0.6,0-0.9-0.1c-0.3,0-0.6-0.2-0.8-0.3C330.4,136.9,330.2,136.7,330.1,136.4z"/>
		</g>
		<g>
			<path class="st15" d="M325.2,132.4c-1-0.3-1.7-0.6-2.3-0.8c-0.6-0.2-1.2-0.4-1.6-0.6c-0.5-0.1-0.9-0.2-1.5-0.2c-0.3,0-0.6,0-1,0
				c-0.4,0-0.8,0.1-1.3,0.1c0.1-1,0.6-1.9,1.5-2.4c0.8-0.6,2.1-0.8,3.1-0.5c1,0.3,1.9,0.9,2.4,1.7
				C325,130.5,325.3,131.4,325.2,132.4z"/>
		</g>
		<path class="st16" d="M353.2,145.2c-2-1.5-4.5,1.7-5.2,5.5c1.8,0,1.8,2.2,0.5,3.5C352,155.5,355.4,146.8,353.2,145.2z"/>
		<g>
			<path class="st17" d="M326.7,135.7c-0.4,1-0.8,2.1-1.2,3.1l-1.1,3.1l-1.1,3.1c-0.4,1-0.7,2.1-1.1,3.1L322,148
				c0.6,0.5,1.2,0.9,1.7,1.4c0.6,0.5,1.1,1,1.7,1.5c-0.6-0.4-1.3-0.8-1.9-1.2c-0.6-0.4-1.2-0.8-1.9-1.2l-0.2-0.1l0.1-0.2
				c0.6-2.2,1.3-4.3,2.1-6.4c0.4-1,0.9-2.1,1.4-3.1C325.6,137.7,326.1,136.7,326.7,135.7z"/>
		</g>
		<g>
			<path class="st14" d="M332,139c0,0.7,0.3,1.2,0.8,1.4c0.4,0.2,1,0.3,1.6,0.3c0.6,0,1.2,0,1.7-0.1c0.5-0.1,1.1-0.4,1.4-0.9
				c0,0.7-0.5,1.3-1.2,1.6c-0.7,0.3-1.4,0.4-2,0.3c-0.7-0.1-1.4-0.2-2-0.7C331.6,140.5,331.5,139.5,332,139z"/>
		</g>
		<path class="st18" d="M333.1,156.3c0,0-8.9,9.4-15.6,0.7L333.1,156.3"/>
		<path class="st15" d="M344.5,127.2c-0.3,4.6,2.9,8.3,2.9,8.3l-1.3,8l0,0c0,0.2,0,0.3-0.1,0.5l-0.5,2.9c0.8,0.1,1.6,0.1,2.4,0.2
			l0.8-2.7c0,0,1.4-2.1,3.1-2c2.4-4.1,4.3-7.5,4.9-11c1.5-9.2-4-9.5-4-9.5s0-0.3-0.1-0.9c-1.4-15.2-12.7-16-20.9-14.2
			c-1.1,0.2-2.3,0.5-3.4,0.9c-0.8,0.3-1.6,0.5-2.3,0.8c-7.5,3-10.1,0.8-10.1,0.8c0.2,1.5,2.4,2.8,2.4,2.8c-4-0.7-4-3.6-4-3.6
			c-2.7,5,1.2,10.9,3.6,11.6c-2.9,0.1-4.5-0.7-4.5-0.7S318.8,132.5,344.5,127.2z"/>
	</g>
	<g class="st6">
		<g>
			<path class="st19" d="M281.3,277.9c0,0-10.3,40.4-13.3,58.2c-3.5,20.4-8.6,68.2-8.6,68.2h4c0,0,26.4-39.7,23.3-62
				c-2.6-18.9,16.7-37.7,16.7-37.7s27.3,73.5,25.8,99.6h5c0,0,6.7-13.2,6.6-41c0-7.6-10.7-21.8-9.8-29.8c2.7-23.3-0.7-44.4-3.7-58.7
				l-1.2-6.7L281.3,277.9z"/>
			<path class="st20" d="M259.3,404.2c0,0-11.3,3.1-8.8,4.1c2.6,1,12.8-4.1,12.8-4.1H259.3z"/>
			<path class="st20" d="M330.9,404c0,0-11.3,3.1-8.8,4.1c2.6,1,12.8-4.1,12.8-4.1H330.9z"/>
			<g>
				<path class="st21" d="M261.7,404.3c0,0,0-0.4,0.1-1.3c0.1-0.8,0.3-2,0.6-3.6c0.3-1.6,0.6-3.5,1-5.7c0.4-2.2,0.8-4.7,1.3-7.5
					c2-11.1,5-26.4,8.9-43.1c3.9-16.8,8-31.8,11-42.7c1.5-5.4,2.8-9.8,3.6-12.8c0.4-1.5,0.8-2.7,1-3.5c0.2-0.8,0.4-1.2,0.4-1.2
					c0,0-0.1,0.4-0.2,1.2c-0.2,0.8-0.5,2-0.9,3.5c-0.8,3.1-1.9,7.5-3.3,12.9c-2.9,10.9-6.9,25.9-10.7,42.7
					c-3.9,16.7-6.9,32-9.1,43.1c-1.1,5.5-2,10-2.6,13.1c-0.3,1.5-0.6,2.7-0.7,3.6C261.8,403.9,261.7,404.3,261.7,404.3z"/>
			</g>
			<g>
				<path class="st21" d="M331.5,404.2c0,0,0-0.5,0.1-1.3c0-0.4,0.1-0.9,0.2-1.6c0-0.3,0.1-0.6,0.1-1c0-0.4,0.1-0.7,0.1-1.1
					c0.1-0.8,0.1-1.7,0.2-2.7c0.1-1,0.1-2,0.2-3.2c0-0.3,0-0.6,0-0.9c0-0.3,0-0.6,0-0.9c0-0.6,0-1.2,0-1.9c0-0.3,0-0.7,0-1
					c0-0.3,0-0.7,0-1c0-0.7,0-1.4,0-2.1c0-0.4,0-0.7,0-1.1c0-0.4,0-0.7,0-1.1c0-0.8-0.1-1.5-0.1-2.3c0-0.8-0.1-1.6-0.1-2.4
					c0-0.4-0.1-0.8-0.1-1.2c0-0.2,0-0.4,0-0.6c0-0.2,0-0.4-0.1-0.6c-0.1-1.7-0.3-3.4-0.5-5.2c0-0.4-0.1-0.9-0.1-1.4
					c0-0.2,0-0.5-0.1-0.7c0-0.2-0.1-0.5-0.1-0.7c-0.1-0.9-0.2-1.8-0.4-2.8c-0.5-3.8-1.1-7.7-1.9-11.8c-0.7-4.1-1.6-8.3-2.5-12.6
					c-1.8-8.6-3.7-16.8-5.2-24.2c-0.8-3.7-1.5-7.3-2.1-10.6c-0.2-0.8-0.3-1.7-0.4-2.5c-0.1-0.8-0.3-1.6-0.4-2.4
					c-0.3-1.6-0.5-3-0.7-4.5c-0.2-1.4-0.4-2.8-0.6-4.1c-0.2-1.3-0.3-2.5-0.5-3.6c-0.1-1.1-0.2-2.2-0.3-3.2c-0.1-1-0.2-1.9-0.2-2.7
					c0-0.4-0.1-0.8-0.1-1.1c0-0.4,0-0.7-0.1-1c0-0.6-0.1-1.1-0.1-1.6c0-0.8,0-1.3,0-1.3c0,0,0.1,0.4,0.2,1.3c0,0.4,0.1,0.9,0.2,1.6
					c0,0.3,0.1,0.6,0.1,1c0,0.4,0.1,0.7,0.1,1.1c0.1,0.8,0.2,1.7,0.3,2.7c0.1,1,0.3,2,0.4,3.2c0.1,1.1,0.3,2.3,0.5,3.6
					c0.2,1.3,0.4,2.6,0.6,4c0.2,1.4,0.5,2.9,0.8,4.4c0.1,0.8,0.3,1.6,0.4,2.4c0.2,0.8,0.3,1.6,0.5,2.4c0.7,3.3,1.4,6.9,2.2,10.6
					c1.6,7.4,3.5,15.6,5.3,24.2c0.9,4.3,1.7,8.5,2.5,12.6c0.7,4.1,1.3,8,1.8,11.8c0.1,0.9,0.2,1.9,0.3,2.8c0,0.2,0.1,0.5,0.1,0.7
					c0,0.2,0,0.5,0.1,0.7c0,0.5,0.1,0.9,0.1,1.4c0.2,1.8,0.3,3.5,0.5,5.2c0,0.2,0,0.4,0,0.6c0,0.2,0,0.4,0,0.6c0,0.4,0,0.8,0.1,1.2
					c0,0.8,0.1,1.6,0.1,2.4c0,0.8,0,1.6,0.1,2.3c0,0.4,0,0.8,0,1.1c0,0.4,0,0.7,0,1.1c0,0.7,0,1.4,0,2.1c0,0.3,0,0.7,0,1
					c0,0.3,0,0.7,0,1c0,0.6,0,1.3-0.1,1.9c0,0.3,0,0.6,0,0.9c0,0.3,0,0.6-0.1,0.9c-0.1,1.1-0.1,2.2-0.2,3.2c-0.1,1-0.2,1.9-0.3,2.7
					c0,0.4-0.1,0.8-0.1,1.1c-0.1,0.4-0.1,0.7-0.1,1c-0.1,0.6-0.2,1.1-0.2,1.6C331.6,403.8,331.5,404.2,331.5,404.2z"/>
			</g>
		</g>
		<g>
			<path class="st22" d="M291.5,205.7c3.5-9.3,5.3-20.1,7.1-29.8l-91.9-16.2l-2,7.3c0,0,39.9,20.5,51.7,24.4
				C269.9,195.8,291.5,205.7,291.5,205.7z"/>
			<path class="st23" d="M206.1,162c0,0-21.4-13.6-23.2-13.1c-1.8,0.4,8.3,6.6,8.3,6.6s-11.8-4.8-10.5-3.4c1.3,1.5,9.8,5.4,9.8,5.4
				s-1.7,3.5,0.5,4.8c2.2,1.4,6,3.1,7.3,2.6c1.3-0.5,5.1-0.5,7.2,1.5L206.1,162z"/>
			<g>
				<path class="st24" d="M246.3,96.7c0-0.1,0.1-0.2,0.5-0.4c0.4-0.2,0.9-0.5,1.7-0.8c0.4-0.2,0.8-0.3,1.3-0.5
					c0.2-0.1,0.5-0.2,0.8-0.2c0.3-0.1,0.6-0.1,0.9-0.2c0.3,0,0.6-0.1,1-0.1c0.2,0,0.3,0,0.5,0c0.2,0,0.4,0,0.5,0c0.1,0,0.2,0,0.3,0
					c0.1,0,0.2,0,0.3,0c0.2,0,0.4,0,0.6,0.1c0.2,0,0.4,0.1,0.6,0.1c0.2,0,0.4,0.1,0.6,0.2c0.8,0.2,1.7,0.7,2.4,1.3l0.1,0.1l0.1,0.1
					c0.1,0.1,0.2,0.2,0.3,0.3c0.2,0.2,0.3,0.4,0.5,0.6c0.1,0.2,0.3,0.4,0.4,0.7c0.1,0.2,0.3,0.5,0.4,0.7c0.4,1,0.7,2.1,0.7,3.2
					c0,1.1-0.1,2.3-0.5,3.5c-0.1,0.3-0.2,0.6-0.3,0.9c-0.1,0.3-0.2,0.6-0.4,0.9c-0.1,0.1-0.1,0.3-0.2,0.4l0,0.1l0,0.1l-0.1,0.1
					l-0.2,0.2c-0.1,0.2-0.2,0.3-0.3,0.4c-0.1,0.1-0.2,0.3-0.4,0.4c-1,1-2.2,1.6-3.4,2.2c-1.2,0.6-2.5,1-3.8,1.4
					c-1.3,0.4-2.6,0.8-4,1.1c-5.5,1.4-11.5,2.5-17.9,3.7c-3.2,0.6-6.5,1.2-10,1.9c-3.4,0.7-6.9,1.5-10.4,2.5
					c-0.9,0.3-1.7,0.5-2.6,0.8c-0.9,0.3-1.7,0.6-2.5,0.9c-0.8,0.3-1.6,0.7-2.4,1.1c-0.7,0.4-1.4,0.9-2,1.4c-0.1,0.1-0.1,0.1-0.2,0.2
					l-0.2,0.2c-0.1,0.1-0.1,0.1-0.2,0.2l-0.2,0.2c-0.2,0.3-0.4,0.6-0.6,1c-0.2,0.4-0.3,0.7-0.4,1.1c-0.1,0.4-0.2,0.8-0.3,1.2
					c-0.2,1.7-0.1,3.5,0.2,5.3c0.3,1.9,0.9,3.7,1.5,5.6c0.6,1.9,1.3,3.8,2,5.8c0.7,2,1.3,4,1.8,6.2c0.2,1.1,0.4,2.3,0.4,3.5
					c0,0.6,0,1.3-0.2,1.9c-0.1,0.7-0.4,1.4-0.7,2l-0.1,0.2c0,0.1-0.1,0.2-0.1,0.2l-0.3,0.4c-0.2,0.3-0.4,0.5-0.6,0.8l-0.2,0.2
					l-0.2,0.2l-0.4,0.3c-0.2,0.2-0.5,0.4-0.8,0.6c-1.1,0.7-2.2,1.2-3.3,1.6c-1.1,0.4-2.2,0.6-3.2,0.8c-1,0.2-2,0.4-3.1,0.6
					c-2,0.4-3.8,0.9-5.5,1.7c-1.7,0.7-3.2,1.7-4.6,3l-0.3,0.2c-0.1,0.1-0.2,0.2-0.2,0.2l-0.5,0.5c-0.2,0.2-0.3,0.3-0.4,0.5
					c-0.1,0.2-0.3,0.3-0.4,0.5l-0.4,0.5l-0.1,0.1c0,0-0.1,0.1-0.1,0.1l-0.1,0.2l-0.1,0.1l-0.1,0.1l-0.1,0.2
					c-0.1,0.2-0.1,0.3-0.2,0.5c-0.5,1.4-0.6,3.2-0.4,4.9c0.2,1.8,0.7,3.5,1.2,5.2c0.3,0.9,0.6,1.7,0.9,2.6c0.3,0.8,0.7,1.7,1,2.5
					c1.4,3.3,3.1,6.4,4.8,9.4c1.7,3,3.5,5.9,5.2,8.6c1.8,2.7,3.5,5.4,5.2,7.9c0.9,1.3,1.7,2.5,2.5,3.7c0.8,1.2,1.6,2.4,2.4,3.6
					c0.8,1.3,1.4,2.7,1.8,4.1c0.1,0.3,0.2,0.7,0.2,1c0,0.2,0.1,0.3,0.1,0.5c0,0.2,0.1,0.3,0.1,0.5c0.1,0.7,0.1,1.4,0.1,2.1
					c0,1.4-0.2,2.7-0.6,3.9c-0.4,1.2-1,2.4-1.8,3.4c-0.2,0.2-0.4,0.5-0.7,0.7c-0.1,0.1-0.2,0.2-0.3,0.3c-0.1,0.1-0.2,0.2-0.4,0.3
					c-0.1,0.1-0.3,0.2-0.4,0.3c-0.1,0.1-0.3,0.2-0.4,0.2c-0.3,0.1-0.5,0.3-0.8,0.4c-1.1,0.4-2.3,0.6-3.3,0.5c-1-0.1-2-0.3-2.9-0.7
					c-0.9-0.4-1.7-1-2.3-1.6c-0.6-0.7-1-1.4-1.2-2.1c-0.3-0.7-0.4-1.4-0.5-2c-0.1-1.3,0-2.3,0.1-3.1c0.1-0.8,0.3-1.5,0.4-1.9
					c0.1-0.4,0.3-0.6,0.3-0.6c0.1,0,0.1,0.2,0.1,0.7c0,0.4-0.1,1-0.1,1.8c0,0.8,0,1.8,0.3,2.9c0.1,0.6,0.3,1.1,0.5,1.7
					c0.3,0.6,0.6,1.1,1.1,1.6c0.5,0.5,1.1,0.9,1.8,1.1c0.7,0.3,1.5,0.4,2.4,0.4c0.9,0,1.7-0.1,2.5-0.5c0.8-0.3,1.5-0.9,2.1-1.7
					c1.2-1.5,1.7-3.7,1.7-6c-0.1-2.3-0.7-4.8-2.1-6.8c-0.7-1.1-1.6-2.3-2.5-3.4c-0.9-1.2-1.7-2.4-2.6-3.6c-1.8-2.5-3.6-5.1-5.4-7.8
					c-1.8-2.7-3.7-5.6-5.5-8.7c-1.8-3-3.5-6.3-5.1-9.7c-0.8-1.7-1.5-3.5-2.1-5.4c-0.6-1.9-1.1-3.8-1.4-5.9c-0.1-1-0.2-2.1-0.1-3.2
					c0.1-1.1,0.2-2.3,0.7-3.4c0.1-0.3,0.2-0.6,0.4-0.8l0.2-0.4l0.1-0.2l0.1-0.2l0.3-0.4c0-0.1,0.1-0.1,0.1-0.2l0.1-0.2l0.5-0.6
					c0.2-0.2,0.3-0.4,0.5-0.6c0.2-0.2,0.3-0.4,0.5-0.6l0.6-0.6c0.1-0.1,0.2-0.2,0.3-0.3l0.3-0.3c0.2-0.2,0.4-0.4,0.6-0.6l0.6-0.5
					c0.2-0.2,0.4-0.3,0.7-0.5c0.2-0.2,0.4-0.3,0.7-0.5l0.7-0.4c0.2-0.1,0.5-0.3,0.7-0.4c0.2-0.1,0.5-0.3,0.7-0.4
					c0.2-0.1,0.5-0.2,0.8-0.4c2-0.9,4.2-1.5,6.2-1.9c2.1-0.5,4.1-0.8,5.9-1.4c0.9-0.3,1.7-0.6,2.4-1.1c0.2-0.1,0.3-0.2,0.5-0.4
					l0.2-0.2l0.1-0.1l0.1-0.1c0.1-0.1,0.3-0.3,0.4-0.5l0.2-0.2c0,0,0-0.1,0.1-0.1l0.1-0.1c0.3-0.5,0.4-1.3,0.4-2.2
					c0-0.9-0.1-1.8-0.3-2.8c-0.4-1.9-1-3.9-1.7-5.8c-0.7-1.9-1.3-3.9-2-5.9c-0.6-2-1.2-4-1.6-6.1c-0.2-1-0.3-2.1-0.4-3.2
					c-0.1-1.1,0-2.2,0.2-3.3c0.1-0.6,0.2-1.1,0.4-1.7c0.2-0.6,0.4-1.1,0.6-1.6c0.3-0.5,0.6-1,0.9-1.5l0.3-0.3
					c0.1-0.1,0.2-0.2,0.3-0.3l0.3-0.3c0.1-0.1,0.2-0.2,0.3-0.3c0.9-0.8,1.8-1.4,2.7-1.9c0.9-0.5,1.8-0.9,2.8-1.3
					c0.9-0.4,1.8-0.7,2.8-1c0.9-0.3,1.8-0.6,2.7-0.8c3.6-1,7.2-1.7,10.6-2.4c3.5-0.6,6.8-1.2,10-1.7c6.5-1.1,12.5-2,17.9-3.2
					c1.3-0.3,2.6-0.6,3.9-1c1.2-0.4,2.4-0.7,3.5-1.2c0.6-0.2,1.1-0.5,1.6-0.7c0.5-0.3,0.9-0.6,1.3-0.9c0.1-0.1,0.2-0.2,0.2-0.2
					c0.1-0.1,0.1-0.2,0.2-0.2l0.1-0.1l0-0.1l0,0l0,0c0.1-0.1,0.1-0.2,0.2-0.3c0.1-0.2,0.2-0.5,0.3-0.7c0.1-0.2,0.2-0.5,0.3-0.7
					c0.3-1,0.5-1.9,0.5-2.8c0-0.9-0.1-1.8-0.4-2.6c-0.1-0.2-0.2-0.4-0.2-0.6c-0.1-0.2-0.2-0.3-0.3-0.5c-0.1-0.2-0.2-0.3-0.4-0.5
					c-0.1-0.1-0.1-0.1-0.2-0.2l-0.1-0.1l-0.1-0.1c-0.5-0.5-1.2-0.9-1.8-1.1c-0.2-0.1-0.3-0.1-0.5-0.2c-0.2,0-0.3-0.1-0.5-0.1
					c-0.2,0-0.3-0.1-0.5-0.1c-0.1,0-0.2,0-0.2,0c-0.1,0-0.2,0-0.2,0c-0.2,0-0.3,0-0.5,0c-0.2,0-0.3,0-0.5,0c-0.3,0-0.6,0-0.9,0
					c-0.3,0-0.6,0.1-0.8,0.1c-0.3,0-0.5,0.1-0.8,0.1c-0.5,0.1-0.9,0.2-1.3,0.3c-0.8,0.2-1.4,0.4-1.8,0.5
					C246.5,96.8,246.3,96.8,246.3,96.7z"/>
			</g>
			<polygon class="st18" points="178.9,155.9 166.5,141.9 185.3,146.4 178,148.3 			"/>
			<g>
				<path class="st25" d="M303.4,214.2c-0.2,0.4-28.5-13.8-63.1-31.9c-34.6-18.1-62.5-33.1-62.2-33.6c0.2-0.4,28.5,13.8,63.1,31.9
					C275.8,198.7,303.7,213.7,303.4,214.2z"/>
			</g>
			<g>
				<path class="st18" d="M199.1,238.5c0,0,0,0,0.1,0c0.1,0,0.2,0,0.4-0.1c0.4-0.1,0.9-0.2,1.6-0.3c1.4-0.3,3.5-0.7,6.2-1.2
					c5.4-1,13.2-2.6,22.8-4.5c9.6-2,21.1-4.3,33.8-7.2c6.3-1.5,13-3,19.8-4.9c1.7-0.5,3.4-1,5.1-1.5c1.7-0.5,3.4-1.1,5.2-1.7
					c0.9-0.3,1.7-0.6,2.6-1l0.6-0.3l0.6-0.3c0.2-0.1,0.4-0.2,0.6-0.3c0.2-0.1,0.4-0.2,0.6-0.3c0.2-0.1,0.4-0.2,0.6-0.3l0.3-0.2
					c0.1-0.1,0.2-0.1,0.3-0.2l0.3-0.2c0,0,0.1-0.1,0.1-0.1c0,0,0,0,0,0l0-0.1c0.1-0.2,0.1-0.4,0.1-0.6c0-0.4,0-0.9-0.1-1.3
					c-0.1-0.5-0.2-0.9-0.3-1.4c-0.4-1.8-1-3.6-1.6-5.3c-0.6-1.8-1.2-3.5-1.9-5.2c-1.3-3.4-2.7-6.7-4-10c-2.7-6.5-5.5-12.8-8.2-18.7
					c-5.3-11.9-10.3-22.5-14.5-31.3c-4.2-8.9-7.7-16.1-10.1-21c-1.2-2.5-2.1-4.4-2.8-5.7c-0.3-0.7-0.5-1.2-0.7-1.5
					c-0.1-0.2-0.1-0.3-0.2-0.4c0-0.1-0.1-0.1-0.1-0.1c0,0,0,0,0.1,0.1c0,0.1,0.1,0.2,0.2,0.4c0.2,0.3,0.4,0.8,0.7,1.5
					c0.7,1.3,1.6,3.2,2.8,5.7c2.4,4.9,5.9,12.1,10.2,20.9c4.2,8.9,9.3,19.5,14.6,31.3c2.7,5.9,5.4,12.2,8.2,18.7
					c1.4,3.3,2.7,6.6,4,10c0.6,1.7,1.3,3.4,1.9,5.2c0.6,1.8,1.2,3.5,1.6,5.4c0.1,0.5,0.2,0.9,0.3,1.4c0.1,0.5,0.1,0.9,0.1,1.4
					c0,0.2-0.1,0.5-0.2,0.8c0,0,0,0.1-0.1,0.1l-0.1,0.1c-0.1,0.1-0.1,0.1-0.1,0.1l-0.3,0.2c-0.1,0.1-0.2,0.1-0.3,0.2l-0.3,0.2
					c-0.2,0.1-0.4,0.2-0.6,0.3c-0.2,0.1-0.4,0.2-0.6,0.3c-0.2,0.1-0.4,0.2-0.6,0.3l-0.6,0.3l-0.6,0.3c-0.9,0.4-1.7,0.7-2.6,1
					c-1.7,0.6-3.5,1.2-5.2,1.7c-1.7,0.5-3.4,1-5.2,1.5c-6.8,1.9-13.5,3.4-19.8,4.9c-12.7,2.9-24.2,5.2-33.8,7.1
					c-9.6,1.9-17.5,3.4-22.9,4.4c-2.7,0.5-4.8,0.9-6.2,1.1c-0.7,0.1-1.3,0.2-1.6,0.3c-0.2,0-0.3,0-0.4,0.1
					C199.1,238.5,199.1,238.5,199.1,238.5z"/>
			</g>
		</g>
		<path class="st26" d="M298.6,175.8c0,0-4.7,23.8-12.2,48c-7.4,24.2-5.2,54.1-5.2,54.1l46-5.1c0,0-5.1-18.7,2-27.5
			c7.2-8.9,28.3-43.8,28.3-43.8s-9.5-14.4-25.4-19.6c-1-0.3-4.1,5.3-5.1,5c-5.5-1.3-8.3-8.2-12.6-8.9
			C304.7,176.3,298.6,175.8,298.6,175.8z"/>
		<path class="st23" d="M335.6,183.7"/>
		<polygon class="st22" points="314.5,178.2 315.8,174.6 324.2,181.7 322.4,187 		"/>
		<polygon class="st27" points="324.2,181.7 324.8,185.6 322.8,185.6 		"/>
		<polygon class="st27" points="324.8,185.6 326.9,182.4 327.1,187 		"/>
		<path class="st22" d="M336.9,180.4c0,0.1-10,2-10,2l0,5.4l10.6-3.2L336.9,180.4z"/>
		<polygon class="st28" points="323.3,183.9 326.9,184.7 327.1,187 322.6,186.1 		"/>
		<polygon class="st29" points="324.2,184 323.5,187 325.6,187.8 326.4,184.6 		"/>
		<g>
			<path class="st22" d="M300,270.2c-0.1,0-0.1-0.8-0.1-2.4c0-0.4,0-0.8,0-1.3c0-0.5,0-1,0.1-1.5c0-1.1,0.1-2.3,0.2-3.7
				c0-0.7,0.1-1.4,0.2-2.1c0.1-0.7,0.1-1.5,0.2-2.3c0.1-0.8,0.1-1.6,0.3-2.5c0.1-0.9,0.2-1.7,0.3-2.6c0.5-3.6,1.2-7.5,2.1-11.6
				c0.9-4.1,2-7.9,3-11.4c0.3-0.9,0.5-1.7,0.8-2.5c0.3-0.8,0.5-1.6,0.8-2.4c0.3-0.8,0.5-1.5,0.8-2.2c0.3-0.7,0.5-1.4,0.8-2
				c0.5-1.3,1-2.4,1.4-3.4c0.2-0.5,0.4-1,0.6-1.4c0.2-0.4,0.4-0.8,0.5-1.2c0.6-1.4,1-2.1,1.1-2.1c0.1,0-0.2,0.8-0.8,2.3
				c-0.1,0.4-0.3,0.8-0.5,1.2c-0.2,0.4-0.3,0.9-0.5,1.4c-0.4,1-0.8,2.2-1.3,3.5c-0.2,0.6-0.5,1.3-0.7,2c-0.2,0.7-0.5,1.4-0.7,2.2
				c-0.2,0.8-0.5,1.5-0.8,2.4c-0.2,0.8-0.5,1.7-0.8,2.5c-1,3.5-2,7.3-2.9,11.4c-0.9,4.1-1.6,8-2.1,11.5c-0.1,0.9-0.3,1.8-0.4,2.6
				c-0.1,0.8-0.2,1.7-0.3,2.5c-0.1,0.8-0.2,1.6-0.3,2.3c-0.1,0.7-0.1,1.5-0.2,2.1c-0.2,1.4-0.2,2.6-0.3,3.7c0,0.5-0.1,1-0.1,1.5
				c0,0.5-0.1,0.9-0.1,1.3C300.2,269.3,300.1,270.2,300,270.2z"/>
		</g>
		<path class="st29" d="M323.5,187c0,0-24.5,39.2-24.2,57.1l2.9,6.4l7.1-3.8c0,0-0.5-17.5,6-34.8s10.2-24.2,10.2-24.2L323.5,187z"/>
		<g>
			<path class="st22" d="M327.4,248.4c0,0.1-0.5,0.4-1.6,0.6c-0.1,0-0.3,0-0.4,0.1c-0.1,0-0.3,0-0.4,0.1c-0.3,0-0.6,0.1-1,0.1
				c-0.7,0-1.4,0-2.2-0.1c-0.8-0.1-1.5-0.3-2.2-0.6c-0.3-0.1-0.6-0.2-0.9-0.4c-0.1-0.1-0.3-0.1-0.4-0.2c-0.1-0.1-0.2-0.1-0.4-0.2
				c-0.9-0.5-1.3-1-1.3-1.1c0.1-0.1,0.6,0.1,1.6,0.5c0.1,0,0.2,0.1,0.4,0.1s0.3,0.1,0.4,0.1c0.3,0.1,0.6,0.2,0.9,0.3
				c0.6,0.2,1.3,0.3,2,0.5c0.7,0.1,1.4,0.2,2.1,0.2c0.3,0,0.6,0,0.9,0c0.1,0,0.3,0,0.4,0c0.1,0,0.3,0,0.4,0
				C326.8,248.3,327.4,248.3,327.4,248.4z"/>
		</g>
		<g>
			
				<ellipse transform="matrix(0.9982 -6.063420e-02 6.063420e-02 0.9982 -14.6046 20.0022)" class="st22" cx="322.3" cy="250.6" rx="3.1" ry="0.5"/>
		</g>
		<polygon class="st22" points="325.8,212.2 323.8,220 328.1,224.7 333,221.3 334.8,214.6 		"/>
		<g>
			<polygon class="st30" points="297,276 298,279.6 306.4,278.1 305.7,274.8 			"/>
			<path class="st31" d="M303.4,275c-0.1,0.1-2.1,4-2.1,4l-1.4,0.2l1.8-3.9L303.4,275z"/>
		</g>
		<polygon class="st32" points="306.3,277.5 315.4,276.2 315,273.6 305.7,274.9 		"/>
		<polygon class="st32" points="318.3,273.2 318.7,275.7 327.3,274.5 326.9,272 		"/>
		<polygon class="st32" points="297.7,278.6 290.1,279.6 289.6,277 297,276 		"/>
		<polygon class="st32" points="286.3,277.5 286.7,279.9 281.2,280.6 281.3,278.1 		"/>
		<path class="st22" d="M344.5,210.7c-0.7,4-0.8,8.1-0.5,12.1c0.3,3-0.1,5.4-2.3,7c-3,2.2-37.4-12.1-37.4-12.1l-3.5,6.8
			c0,0,45.5,34.2,57.3,18.9c9.6-12.4,3.6-32.4,1-39.5c-0.8-2.3-2.6-4.2-4.9-5C349.3,196.9,346.2,201.4,344.5,210.7z"/>
		<path class="st23" d="M303.4,220.2c0,0-2.7-2-1.7-3.8c1-1.8-0.6-8.2-1.6-8.1c-0.9,0.1-0.8,3.6-0.8,3.6s-3-1.8-4-1.2
			c-1,0.6-3.8,7.1-2.1,7.7c1.7,0.6,6.6,2.6,8.5,4.5"/>
	</g>
</g>
</svg>
