<?xml version="1.0" encoding="utf-8"?>
<!-- Generator: Adobe Illustrator 21.1.0, SVG Export Plug-In . SVG Version: 6.00 Build 0)  -->
<svg version="1.1" id="Layer_1" xmlns="http://www.w3.org/2000/svg" xmlns:xlink="http://www.w3.org/1999/xlink" x="0px" y="0px"
	 viewBox="0 0 579.9 378" width="579.8" height="378" style="enable-background:new 0 0 579.9 378;" xml:space="preserve">
<style type="text/css">
	.st0{fill:#FF7213;}
	.st1{opacity:0.4;clip-path:url(#SVGID_2_);}
	.st2{fill:#FF7415;}
	.st3{opacity:0.38;}
	.st4{fill:#B53939;}
	.st5{opacity:0.4;}
	.st6{fill:#8C5861;}
	.st7{clip-path:url(#SVGID_4_);}
	.st8{opacity:0.38;fill:#B53939;enable-background:new    ;}
	.st9{fill:#E8E0D9;}
	.st10{fill:#D5C2B2;}
	.st11{fill:#68625E;}
	.st12{fill:#915D5D;}
	.st13{clip-path:url(#SVGID_6_);}
	.st14{fill:#DDBCA6;}
	.st15{fill:#F7CEB2;}
	.st16{fill:#222228;}
	.st17{fill:#84653C;}
	.st18{fill:#D39484;}
	.st19{fill:#FFFFFF;}
	.st20{clip-path:url(#SVGID_8_);}
	.st21{fill:#1E2A30;}
	.st22{fill:#442223;}
	.st23{fill:#0D1418;}
	.st24{fill:#EAEAEA;}
	.st25{fill:#FFCAB0;}
	.st26{fill:#61463A;}
	.st27{fill:#7C6559;}
	.st28{fill:#F6F6F6;}
	.st29{fill:#CECECE;}
	.st30{fill:#DF5900;}
	.st31{fill:#FF7500;}
	.st32{fill:#D3D3D3;}
	.st33{opacity:0.44;fill:#F6F6F6;enable-background:new    ;}
	.st34{fill:#AC8C7C;}
</style>
<rect class="st0" width="579.9" height="378"/>
<g>
	<g>
		<defs>
			<rect id="SVGID_1_" width="579.9" height="378"/>
		</defs>
		<clipPath id="SVGID_2_">
			<use xlink:href="#SVGID_1_"  style="overflow:visible;"/>
		</clipPath>
		<g class="st1">
			<rect x="-264" y="-2" class="st2" width="990" height="407.1"/>
			<g>
				<g class="st3">
					<polygon class="st4" points="344.3,126.4 290.2,124.5 290.8,137.8 343.8,139.8 					"/>
					<polygon class="st4" points="550.3,188.6 511.3,189.6 509.1,210.9 550.2,209.3 					"/>
					<polygon class="st4" points="146.3,274.8 91.5,273.6 95.9,287 145.8,287.6 					"/>
					<polygon class="st4" points="73.1,95.7 11.4,95 14.7,112.4 71.4,112.1 					"/>
					<polygon class="st4" points="183.4,140 144.5,139.3 146.6,156.7 182.3,156.3 					"/>
					<polygon class="st4" points="308.9,170.8 247.2,170 245.9,187.8 307.2,187.1 					"/>
					<polygon class="st4" points="329.3,208.5 271.2,207 276.8,222.3 327.6,224.8 					"/>
					<polygon class="st4" points="575.7,294.1 507.7,292.7 504.8,307.5 572.3,307.6 					"/>
					<polygon class="st4" points="354.4,304.5 309.7,303.1 307.8,317.9 352.2,318 					"/>
					<polygon class="st4" points="586.1,341.1 541.4,339.7 539.4,354.6 583.9,354.6 					"/>
					<polygon class="st4" points="558.2,125.6 503,126.1 503.9,144.8 555.5,142.1 					"/>
					<polygon class="st4" points="552.2,59.5 473.2,60.5 468.9,81.8 552,80.2 					"/>
					<polygon class="st4" points="275.4,337.4 206.7,338.3 202.9,356.8 275.2,355.4 					"/>
					<polygon class="st4" points="350,78.6 270.1,77 277.4,94.2 350,95.7 					"/>
					<polygon class="st4" points="311.7,41.5 231.8,39.9 239.1,57.1 311.7,58.6 					"/>
					<polygon class="st4" points="173.8,59.4 116,59.4 121.3,76.5 173.8,76.5 					"/>
				</g>
				<g class="st5">
					<g>
						<polygon class="st6" points="467.2,49.1 254.2,40 -12.1,48.2 -260.4,38.6 -260.4,37.9 -12.1,47.4 254.2,39.3 467.2,48.4 
							719.8,45.5 719.8,46.3 						"/>
					</g>
					<g>
						<polygon class="st6" points="469.4,31.9 244.9,27.2 -12.1,29.1 -260.4,26.2 -260.4,25.5 -12.1,28.3 244.9,26.4 469.4,31.2 
							717.2,29.8 724.9,6.7 468.7,17.1 247,15.2 -11.4,11.9 -264,14.3 -264,13.5 -11.4,11.2 247,14.5 468.6,16.4 726.3,5.9 
							718.1,30.5 						"/>
					</g>
					<g>
						<polygon class="st6" points="-258.9,62.5 -258.9,61.8 -14.3,60.8 254.2,57 459.3,59.4 709.7,57.5 709.7,58.2 459.2,60.1 
							254.2,57.7 -14.2,61.5 						"/>
					</g>
					<g>
						<polygon class="st6" points="467.2,116 254.2,106.9 -12.1,115 -260.4,105.5 -260.4,104.7 -12.1,114.3 254.2,106.2 
							467.2,115.2 719.8,112.4 719.8,113.1 						"/>
					</g>
					<g>
						<polygon class="st6" points="469.4,98.8 244.9,94 -12.1,95.9 -260.4,93 -260.4,92.3 -12.1,95.2 244.9,93.3 469.4,98.1 
							717.2,96.6 724.9,73.5 468.7,84 247.7,75.4 -11.4,78.7 -264,81.1 -264,80.4 -11.4,78 247.7,74.7 468.7,83.3 726.3,72.7 
							718.1,97.3 						"/>
					</g>
					<g>
						<polygon class="st6" points="-258.9,129.3 -258.9,128.6 -14.3,127.7 254.2,123.8 459.3,126.2 709.7,124.3 709.7,125 
							459.2,126.9 254.2,124.6 -14.2,128.4 						"/>
					</g>
					<g>
						<polygon class="st6" points="467.2,179 254.2,169.9 -12.1,178 -260.4,168.5 -260.4,167.8 -12.1,177.3 254.2,169.2 
							467.2,178.3 719.8,175.4 719.8,176.1 						"/>
					</g>
					<g>
						<polygon class="st6" points="469.4,161.8 244.9,157 -12.1,158.9 -260.4,156.1 -260.4,155.4 -12.1,158.2 244.9,156.3 
							469.4,161.1 717.2,159.6 724.9,136.5 468.7,147 255.7,137.4 -11.4,141.7 -264,144.1 -264,143.4 -11.4,141 255.7,136.7 
							468.7,146.3 726.3,135.7 718.1,160.4 						"/>
					</g>
					<g>
						<polygon class="st6" points="-258.9,192.4 -258.9,191.6 -14.3,190.7 254.2,186.9 459.3,189.2 709.7,187.3 709.7,188.1 
							459.2,190 254.2,187.6 -14.2,191.4 						"/>
					</g>
					<g>
						<polygon class="st6" points="467.2,245.8 254.2,236.8 -12.1,244.9 -260.4,235.3 -260.4,234.6 -12.1,244.2 254.2,236 
							467.2,245.1 719.8,242.2 719.8,243 						"/>
					</g>
					<g>
						<polygon class="st6" points="469.4,228.6 244.9,223.9 -12.1,225.8 -260.4,222.9 -260.4,222.2 -12.1,225.1 244.9,223.1 
							469.4,227.9 717.2,226.5 724.9,203.4 468.7,213.8 247.7,205.2 -11.4,208.6 -264,211 -264,210.3 -11.4,207.9 247.7,204.5 
							468.7,213.1 726.3,202.6 718.1,227.2 717.6,227.2 						"/>
					</g>
					<g>
						<polygon class="st6" points="-258.9,259.2 -258.9,258.5 -14.3,257.5 254.2,253.7 459.3,256.1 709.7,254.2 709.7,254.9 
							459.2,256.8 254.2,254.4 -14.2,258.2 						"/>
					</g>
					<g>
						<polygon class="st6" points="467.2,309.3 254.2,300.3 -12.1,308.4 -260.4,298.8 -260.4,298.1 -12.1,307.7 254.2,299.5 
							467.2,308.6 719.8,305.7 719.8,306.5 						"/>
					</g>
					<g>
						<polygon class="st6" points="469.4,292.1 244.9,287.4 -12.1,289.3 -260.4,286.4 -260.4,285.7 -12.1,288.6 244.9,286.6 
							469.4,291.4 717.2,290 724.9,266.9 468.7,277.3 255.7,267.8 -11.4,272.1 -264,274.5 -264,273.8 -11.4,271.4 255.7,267.1 
							468.7,276.6 726.3,266.1 718.1,290.7 717.6,290.7 						"/>
					</g>
					<g>
						<polygon class="st6" points="-258.9,322.7 -258.9,322 -14.3,321 254.2,317.2 459.3,319.6 709.7,317.7 709.7,318.4 
							459.2,320.3 254.2,317.9 -14.2,321.7 						"/>
					</g>
					<g>
						<polygon class="st6" points="467.2,376.2 254.2,367.1 -12.1,375.2 -260.4,365.7 -260.4,365 -12.1,374.5 254.2,366.4 
							467.2,375.5 719.8,372.6 719.8,373.3 						"/>
					</g>
					<g>
						<polygon class="st6" points="469.4,359 244.9,354.2 -12.1,356.1 -260.4,353.3 -260.4,352.5 -12.1,355.4 244.9,353.5 
							469.4,358.3 717.2,356.8 724.9,333.7 468.7,344.2 247.7,335.6 -11.4,338.9 -264,341.3 -264,340.6 -11.4,338.2 247.7,334.9 
							468.7,343.5 726.3,332.9 718.1,357.5 717.6,357.6 						"/>
					</g>
					<g>
						<polygon class="st6" points="570,47.8 569,47.8 571.1,30.9 572.2,31 						"/>
					</g>
					<g>
						<polygon class="st6" points="526.2,31.3 525.1,31.3 526.2,14.1 527.3,14.2 						"/>
					</g>
					<g>
						<polygon class="st6" points="517,59.3 515.9,59.2 518.2,48.2 519.3,48.3 						"/>
					</g>
					<g>
						<polygon class="st6" points="551.6,80.1 548.4,59.1 549.5,59 552.7,80 						"/>
					</g>
					<g>
						<rect x="501.8" y="31.3" class="st6" width="1.1" height="17.1"/>
					</g>
					<g>
						<polygon class="st6" points="481.8,31.7 478.6,16.3 479.6,16.2 482.9,31.6 						"/>
					</g>
					<g>
						<polygon class="st6" points="455.8,17 454.2,2.4 455.3,2.3 456.9,17 						"/>
					</g>
					<g>
						<polygon class="st6" points="502.4,15.6 501.3,15.6 501.8,4.5 502.9,4.5 						"/>
					</g>
					<g>
						<polygon class="st6" points="558.1,13.1 557,13 558.1,1.9 559.2,2 						"/>
					</g>
					<g>
						<polygon class="st6" points="469.2,83.5 468.1,83.4 473.3,59.7 474.3,59.9 						"/>
					</g>
					<g>
						<polygon class="st6" points="463.5,59.9 462.4,59.7 464.7,48.7 465.8,48.9 						"/>
					</g>
					<g>
						<polygon class="st6" points="443.9,47.5 442.8,47.4 443.9,31.3 445,31.3 						"/>
					</g>
					<g>
						<polygon class="st6" points="421.2,30.5 420.1,30.4 422.3,15.9 423.3,16 						"/>
					</g>
					<g>
						<polygon class="st6" points="412.5,59.2 409.8,46.2 410.9,46.1 413.6,59.1 						"/>
					</g>
					<g>
						<polygon class="st6" points="396.3,45.3 395.2,45.3 397.9,29.9 399,29.9 						"/>
					</g>
					<g>
						<polygon class="st6" points="400.1,15.9 399.5,5.6 400.6,5.5 401.1,15.9 						"/>
					</g>
					<g>
						<polygon class="st6" points="369.2,29.5 368.1,29.5 369.2,15.9 370.3,16 						"/>
					</g>
					<g>
						<polygon class="st6" points="354,58.2 353,58.2 354.6,44.6 355.7,44.6 						"/>
					</g>
					<g>
						<polygon class="st6" points="394.6,80.8 391.9,58.9 393,58.8 395.7,80.7 						"/>
					</g>
					<g>
						<polygon class="st6" points="349.7,96.2 348.6,96.1 351.3,78.9 352.4,79 						"/>
					</g>
					<g>
						<polygon class="st6" points="325.9,78 324.8,77.9 327,58.5 328.1,58.6 						"/>
					</g>
					<g>
						<polygon class="st6" points="307.5,58.2 306.4,58.2 308.6,42 309.6,42.1 						"/>
					</g>
					<g>
						<polygon class="st6" points="334.5,43.2 333.5,43.1 336.2,28.8 337.3,28.9 						"/>
					</g>
					<g>
						<polygon class="st6" points="316.1,28.1 315.1,28.1 315.6,15.2 316.7,15.2 						"/>
					</g>
					<g>
						<polygon class="st6" points="342.7,15.6 341.6,15.6 342.7,4.1 343.8,4.1 						"/>
					</g>
					<g>
						<rect x="413.6" y="81.5" class="st6" width="1" height="15.9"/>
					</g>
					<g>
						<polygon class="st6" points="480.6,98.6 479.5,98.4 485.2,83 486.3,83.2 						"/>
					</g>
					<g>
						<polygon class="st6" points="539.1,98 536.5,80.7 537.6,80.7 540.2,98 						"/>
					</g>
					<g>
						<polygon class="st6" points="274.5,94.6 271.2,75.8 272.3,75.7 275.5,94.5 						"/>
					</g>
					<g>
						<polygon class="st6" points="248.3,74.7 247.2,74.6 249.9,57.4 251,57.5 						"/>
					</g>
					<g>
						<polygon class="st6" points="236.9,57.7 233.3,40.5 234.4,40.3 238,57.6 						"/>
					</g>
					<g>
						<polygon class="st6" points="254.8,39.7 253.7,39.6 256.3,26.9 257.4,27 						"/>
					</g>
					<g>
						<polygon class="st6" points="276.1,27.4 274.7,15.1 275.8,15.1 277.2,27.4 						"/>
					</g>
					<g>
						<polygon class="st6" points="223,27 222.5,14.5 223.6,14.5 224.1,27 						"/>
					</g>
					<g>
						<polygon class="st6" points="286.9,15.6 285.8,3.8 286.9,3.7 288,15.6 						"/>
					</g>
					<g>
						<polygon class="st6" points="251.7,15.2 250.6,2.7 251.7,2.7 252.8,15.2 						"/>
					</g>
					<g>
						<polygon class="st6" points="207.9,93.7 205.7,75.6 206.8,75.6 209,93.6 						"/>
					</g>
					<g>
						<polygon class="st6" points="175.1,76.1 174,76.1 175.2,58.5 176.2,58.6 						"/>
					</g>
					<g>
						<polygon class="st6" points="195.8,58.2 189.5,41.8 190.5,41.6 196.9,58 						"/>
					</g>
					<g>
						<polygon class="st6" points="138,59.1 137,59.1 137.5,43.1 138.6,43.2 						"/>
					</g>
					<g>
						<polygon class="st6" points="165.1,42.5 164.6,27.4 165.7,27.4 166.2,42.5 						"/>
					</g>
					<g>
						<polygon class="st6" points="209.3,41.1 206.3,27.1 207.3,27 210.4,41 						"/>
					</g>
					<g>
						<rect x="183.3" y="14.5" class="st6" width="0.7" height="12.9"/>
					</g>
					<g>
						<polygon class="st6" points="147.8,27.8 145.1,13.6 146.2,13.5 148.9,27.7 						"/>
					</g>
					<g>
						<rect x="204.6" y="2" class="st6" width="1.1" height="12.2"/>
					</g>
					<g>
						<rect x="163.5" y="2" class="st6" width="1.1" height="11.8"/>
					</g>
					<g>
						<polygon class="st6" points="114.2,43.9 112.1,27.8 113.1,27.7 115.3,43.8 						"/>
					</g>
					<g>
						<polygon class="st6" points="93.7,27.8 91.5,12.8 92.6,12.7 94.7,27.7 						"/>
					</g>
					<g>
						<polygon class="st6" points="120.7,13.1 120.2,-1.2 121.3,-1.3 121.8,13.1 						"/>
					</g>
					<g>
						<polygon class="st6" points="68.2,45.5 66,28.1 67.1,28.1 69.3,45.4 						"/>
					</g>
					<g>
						<polygon class="st6" points="47.6,28.5 46,12.3 47.1,12.3 48.7,28.4 						"/>
					</g>
					<g>
						<rect x="68.8" y="2.3" class="st6" width="1.1" height="10.6"/>
					</g>
					<g>
						<polygon class="st6" points="94.7,59.6 93.7,45 94.7,44.9 95.8,59.6 						"/>
					</g>
					<g>
						<polygon class="st6" points="119.1,76.7 116.9,59.2 118,59.2 120.2,76.7 						"/>
					</g>
					<g>
						<polygon class="st6" points="147.8,94.7 146.7,76.1 147.8,76.1 148.9,94.7 						"/>
					</g>
					<g>
						<polygon class="st6" points="90.4,94.8 87.2,77.2 88.2,77.1 91.5,94.7 						"/>
					</g>
					<g>
						<polygon class="st6" points="54.1,77.5 52.5,60.3 53.6,60.2 55.2,77.5 						"/>
					</g>
					<g>
						<polygon class="st6" points="37.4,60.7 36.3,46.3 37.4,46.3 38.4,60.7 						"/>
					</g>
					<g>
						<polygon class="st6" points="12.5,47.1 9.7,28.5 10.8,28.5 13.5,47.1 						"/>
					</g>
					<g>
						<polygon class="st6" points="24.4,11.7 23.3,2 24.4,1.9 25.4,11.6 						"/>
					</g>
					<g>
						<polygon class="st6" points="29.8,95.2 28.7,95.1 29.8,77.8 30.9,77.8 						"/>
					</g>
					<g>
						<polygon class="st6" points="3.1,78 1.1,61 2.2,60.9 4.2,78 						"/>
					</g>
					<g>
						<polygon class="st6" points="570,308 569,308 571.1,291.2 572.2,291.2 						"/>
					</g>
					<g>
						<polygon class="st6" points="526.2,291.5 525.1,291.5 526.2,274.3 527.3,274.4 						"/>
					</g>
					<g>
						<polygon class="st6" points="517,319.5 515.9,319.4 518.2,308.4 519.3,308.5 						"/>
					</g>
					<g>
						<polygon class="st6" points="551.6,340.3 548.4,319.3 549.5,319.2 552.7,340.2 						"/>
					</g>
					<g>
						<rect x="501.8" y="291.5" class="st6" width="1.1" height="17.1"/>
					</g>
					<g>
						<polygon class="st6" points="481.8,292 478.6,276.6 479.6,276.5 482.9,291.9 						"/>
					</g>
					<g>
						<polygon class="st6" points="456,276.4 454.4,256.4 455.4,256.3 457.1,276.3 						"/>
					</g>
					<g>
						<polygon class="st6" points="456,374.7 454.4,358.8 455.4,358.7 457.1,374.6 						"/>
					</g>
					<g>
						<polygon class="st6" points="502.4,275.8 501.3,275.8 501.8,256 502.9,256 						"/>
					</g>
					<g>
						<polygon class="st6" points="558.1,273.3 557,273.2 558.1,255.7 559.2,255.8 						"/>
					</g>
					<g>
						<polygon class="st6" points="469.2,343.7 468.1,343.6 473.3,320 474.3,320.1 						"/>
					</g>
					<g>
						<polygon class="st6" points="463.5,320.1 462.4,319.9 464.7,308.9 465.8,309.1 						"/>
					</g>
					<g>
						<polygon class="st6" points="517,386.4 515.9,386.3 518.2,375.3 519.3,375.4 						"/>
					</g>
					<g>
						<polygon class="st6" points="463.5,387 462.4,386.9 464.7,375.8 465.8,376 						"/>
					</g>
					<g>
						<polygon class="st6" points="443.9,307.7 442.8,307.6 443.9,291.5 445,291.6 						"/>
					</g>
					<g>
						<polygon class="st6" points="421.2,290.7 420.1,290.7 422.3,276.1 423.3,276.2 						"/>
					</g>
					<g>
						<polygon class="st6" points="412.5,319.4 409.8,306.4 410.9,306.3 413.6,319.3 						"/>
					</g>
					<g>
						<polygon class="st6" points="396.3,305.6 395.2,305.5 397.9,290.1 399,290.2 						"/>
					</g>
					<g>
						<polygon class="st6" points="399.7,273.8 399.2,255.8 400.2,255.7 400.8,273.7 						"/>
					</g>
					<g>
						<polygon class="st6" points="369.2,290 368.1,290 369.2,272.6 370.3,272.7 						"/>
					</g>
					<g>
						<polygon class="st6" points="354,318.4 353,318.4 354.6,304.8 355.7,304.8 						"/>
					</g>
					<g>
						<polygon class="st6" points="394.6,341 391.9,319.1 393,319 395.7,340.9 						"/>
					</g>
					<g>
						<polygon class="st6" points="349.7,356.4 348.6,356.3 351.3,339.1 352.4,339.2 						"/>
					</g>
					<g>
						<polygon class="st6" points="325.9,338.2 324.8,338.1 327,318.7 328.1,318.8 						"/>
					</g>
					<g>
						<polygon class="st6" points="307.5,318.4 306.4,318.4 308.6,302.3 309.6,302.3 						"/>
					</g>
					<g>
						<polygon class="st6" points="334.5,303.4 333.5,303.3 336.2,289 337.3,289.1 						"/>
					</g>
					<g>
						<polygon class="st6" points="316.1,288.7 315.1,288.7 315.6,270.2 316.7,270.2 						"/>
					</g>
					<g>
						<polygon class="st6" points="343,271.4 341.9,271.3 343,255 344.1,255.1 						"/>
					</g>
					<g>
						<rect x="413.6" y="341.7" class="st6" width="1" height="15.9"/>
					</g>
					<g>
						<polygon class="st6" points="480.6,358.8 479.5,358.6 485.2,343.2 486.3,343.4 						"/>
					</g>
					<g>
						<polygon class="st6" points="539.1,358.2 536.5,340.9 537.6,340.9 540.2,358.2 						"/>
					</g>
					<g>
						<polygon class="st6" points="274.5,354.8 271.2,336 272.3,335.9 275.5,354.7 						"/>
					</g>
					<g>
						<polygon class="st6" points="248.3,334.9 247.2,334.8 249.9,317.6 251,317.7 						"/>
					</g>
					<g>
						<polygon class="st6" points="236.9,317.9 233.3,300.7 234.4,300.6 238,317.8 						"/>
					</g>
					<g>
						<polygon class="st6" points="254.8,299.9 253.7,299.8 256.3,287.1 257.4,287.2 						"/>
					</g>
					<g>
						<polygon class="st6" points="276.1,287.7 274.7,268.1 275.8,268 277.2,287.6 						"/>
					</g>
					<g>
						<polygon class="st6" points="223,287.3 222.5,267.6 223.6,267.6 224.1,287.2 						"/>
					</g>
					<g>
						<polygon class="st6" points="286.7,268.9 285.6,254.5 286.7,254.4 287.8,268.8 						"/>
					</g>
					<g>
						<polygon class="st6" points="250.3,267.5 249.2,254.5 250.3,254.5 251.4,267.4 						"/>
					</g>
					<g>
						<polygon class="st6" points="207.9,353.9 205.7,335.8 206.8,335.8 209,353.8 						"/>
					</g>
					<g>
						<polygon class="st6" points="175.1,336.3 174,336.3 175.2,318.7 176.2,318.8 						"/>
					</g>
					<g>
						<polygon class="st6" points="195.8,318.4 189.5,302 190.5,301.8 196.9,318.2 						"/>
					</g>
					<g>
						<polygon class="st6" points="138,319.3 137,319.3 137.5,303.4 138.6,303.4 						"/>
					</g>
					<g>
						<polygon class="st6" points="165.1,302.7 164.6,287.6 165.7,287.6 166.2,302.7 						"/>
					</g>
					<g>
						<polygon class="st6" points="209.3,301.3 206.3,287.3 207.3,287.2 210.4,301.2 						"/>
					</g>
					<g>
						<rect x="183.8" y="268.5" class="st6" width="1.2" height="19.1"/>
					</g>
					<g>
						<polygon class="st6" points="147.8,288 145.1,269.3 146.2,269.2 148.9,287.9 						"/>
					</g>
					<g>
						<rect x="206.6" y="254.7" class="st6" width="1.1" height="13.5"/>
					</g>
					<g>
						<rect x="164" y="255" class="st6" width="1.1" height="13.8"/>
					</g>
					<g>
						<polygon class="st6" points="114.2,304.1 112.1,288 113.1,287.9 115.3,304 						"/>
					</g>
					<g>
						<polygon class="st6" points="93.7,288 91.5,270.1 92.6,270 94.7,287.9 						"/>
					</g>
					<g>
						<polygon class="st6" points="121.4,269.7 120.9,255.7 122,255.7 122.5,269.7 						"/>
					</g>
					<g>
						<polygon class="st6" points="68.2,305.7 66,288.4 67.1,288.3 69.3,305.6 						"/>
					</g>
					<g>
						<polygon class="st6" points="396.3,372.5 395.2,372.4 397.9,357 399,357.1 						"/>
					</g>
					<g>
						<polygon class="st6" points="334.5,370.3 333.5,370.2 336.2,355.9 337.3,356 						"/>
					</g>
					<g>
						<polygon class="st6" points="254.8,366.8 253.7,366.7 256.3,354 257.4,354.1 						"/>
					</g>
					<g>
						<polygon class="st6" points="165.1,369.6 164.6,354.5 165.7,354.5 166.2,369.6 						"/>
					</g>
					<g>
						<polygon class="st6" points="209.3,368.2 206.3,354.2 207.3,354.1 210.4,368.1 						"/>
					</g>
					<g>
						<polygon class="st6" points="114.2,371 112.1,354.9 113.1,354.8 115.3,371 						"/>
					</g>
					<g>
						<polygon class="st6" points="68.2,372.6 66,355.3 67.1,355.2 69.3,372.5 						"/>
					</g>
					<g>
						<polygon class="st6" points="47.6,288.7 46,270.8 47.1,270.7 48.7,288.6 						"/>
					</g>
					<g>
						<rect x="69.2" y="256.8" class="st6" width="1.1" height="13.9"/>
					</g>
					<g>
						<polygon class="st6" points="94.7,319.9 93.7,305.2 94.7,305.1 95.8,319.8 						"/>
					</g>
					<g>
						<polygon class="st6" points="119.1,336.9 116.9,319.4 118,319.4 120.2,336.9 						"/>
					</g>
					<g>
						<polygon class="st6" points="147.8,354.9 146.7,336.3 147.8,336.3 148.9,354.9 						"/>
					</g>
					<g>
						<polygon class="st6" points="90.4,355 87.2,337.4 88.2,337.3 91.5,354.9 						"/>
					</g>
					<g>
						<polygon class="st6" points="54.1,337.7 52.5,320.5 53.6,320.5 55.2,337.7 						"/>
					</g>
					<g>
						<polygon class="st6" points="37.4,320.9 36.3,306.5 37.4,306.5 38.4,320.9 						"/>
					</g>
					<g>
						<polygon class="st6" points="12.5,307.3 9.7,288.7 10.8,288.7 13.5,307.3 						"/>
					</g>
					<g>
						<polygon class="st6" points="24.2,271.2 23.1,257.3 24.2,257.2 25.3,271.1 						"/>
					</g>
					<g>
						<polygon class="st6" points="54.7,257.3 53.6,242.4 54.7,242.3 55.8,257.2 						"/>
					</g>
					<g>
						<polygon class="st6" points="91.5,256.7 90.5,241.2 91.5,241.1 92.6,256.7 						"/>
					</g>
					<g>
						<polygon class="st6" points="131.1,255.7 130,240.1 131,240 132.1,255.6 						"/>
					</g>
					<g>
						<polygon class="st6" points="172.2,255.6 171.1,238.8 172.2,238.7 173.3,255.5 						"/>
					</g>
					<g>
						<polygon class="st6" points="215.6,255 216.8,237.2 217.8,237.1 216.7,254.9 						"/>
					</g>
					<g>
						<polygon class="st6" points="257.7,253.9 253.1,236 254.1,236 258.7,253.8 						"/>
					</g>
					<g>
						<polygon class="st6" points="298.6,254.6 299.2,238.1 300.3,238 299.7,254.5 						"/>
					</g>
					<g>
						<polygon class="st6" points="351.5,255.2 352.3,240.4 353.4,240.4 352.6,255.1 						"/>
					</g>
					<g>
						<polygon class="st6" points="54.7,387.2 53.6,372.3 54.7,372.2 55.8,387.1 						"/>
					</g>
					<g>
						<polygon class="st6" points="91.5,386.7 90.5,371.1 91.5,371.1 92.6,386.6 						"/>
					</g>
					<g>
						<polygon class="st6" points="131.1,385.6 130,370.1 131,370 132.1,385.5 						"/>
					</g>
					<g>
						<polygon class="st6" points="172.2,385.6 171.1,368.8 172.2,368.7 173.3,385.5 						"/>
					</g>
					<g>
						<polygon class="st6" points="215.6,384.9 216.8,367.2 217.8,367.1 216.7,384.8 						"/>
					</g>
					<g>
						<polygon class="st6" points="257.7,383.9 253.1,366 254.1,365.9 258.7,383.8 						"/>
					</g>
					<g>
						<polygon class="st6" points="298.6,384.5 299.2,368 300.3,367.9 299.7,384.4 						"/>
					</g>
					<g>
						<polygon class="st6" points="351.5,385.2 352.3,370.4 353.4,370.3 352.6,385.1 						"/>
					</g>
					<g>
						<polygon class="st6" points="407.5,256.2 408.3,242.6 409.4,242.5 408.6,256.2 						"/>
					</g>
					<g>
						<polygon class="st6" points="468.5,256.1 466.5,245.3 467.6,245.2 469.6,256 						"/>
					</g>
					<g>
						<polygon class="st6" points="515.9,256.4 514.7,244.7 515.8,244.7 517,256.3 						"/>
					</g>
					<g>
						<polygon class="st6" points="571.9,255.8 570.7,244.2 571.8,244.1 573,255.8 						"/>
					</g>
					<g>
						<polygon class="st6" points="439.7,244.1 440.5,227.4 441.6,227.3 440.8,244 						"/>
					</g>
					<g>
						<polygon class="st6" points="499.9,244.8 499.5,227.7 500.6,227.7 501,244.7 						"/>
					</g>
					<g>
						<polygon class="st6" points="557,244.5 556.6,227.4 557.7,227.3 558.1,244.4 						"/>
					</g>
					<g>
						<polygon class="st6" points="41.5,243.2 40.5,225.2 41.5,225.1 42.6,243.1 						"/>
					</g>
					<g>
						<polygon class="st6" points="98.6,241.2 97.5,224.4 98.6,224.3 99.6,241.1 						"/>
					</g>
					<g>
						<polygon class="st6" points="137.9,240 136.8,224 137.9,224 139,239.9 						"/>
					</g>
					<g>
						<polygon class="st6" points="178.3,238.4 177.2,223.9 178.3,223.8 179.4,238.3 						"/>
					</g>
					<g>
						<polygon class="st6" points="226.1,237.2 225.1,223.7 226.1,223.6 227.2,237.2 						"/>
					</g>
					<g>
						<polygon class="st6" points="269,237 269.3,224 270.4,224 270.1,236.9 						"/>
					</g>
					<g>
						<polygon class="st6" points="319,239.6 321,225 322.1,224.9 320.1,239.6 						"/>
					</g>
					<g>
						<polygon class="st6" points="380.5,242.3 380.9,225.9 382,225.8 381.6,242.2 						"/>
					</g>
					<g>
						<polygon class="st6" points="3.5,257.7 2.4,243.8 3.5,243.7 4.6,257.6 						"/>
					</g>
					<g>
						<polygon class="st6" points="29.8,355.4 28.7,355.3 29.8,338 30.9,338 						"/>
					</g>
					<g>
						<polygon class="st6" points="3.1,338.2 1.1,321.2 2.2,321.1 4.2,338.2 						"/>
					</g>
					<g>
						<polygon class="st6" points="570.2,177.7 569.1,177.7 571.3,160.8 572.3,160.9 						"/>
					</g>
					<g>
						<polygon class="st6" points="526.2,161 525.1,160.9 526.2,144.5 527.3,144.5 						"/>
					</g>
					<g>
						<polygon class="st6" points="517.2,189.1 516.2,189 518.5,178 519.6,178.1 						"/>
					</g>
					<g>
						<polygon class="st6" points="551.6,210.4 548.4,189.4 549.5,189.3 552.7,210.3 						"/>
					</g>
					<g>
						<rect x="501.7" y="161.3" class="st6" width="1.1" height="17.1"/>
					</g>
					<g>
						<polygon class="st6" points="481.8,161.3 478.6,146.7 479.6,146.6 482.9,161.2 						"/>
					</g>
					<g>
						<polygon class="st6" points="455.5,146.2 454.4,126.5 455.4,126.5 456.5,146.1 						"/>
					</g>
					<g>
						
							<rect x="492.8" y="134.9" transform="matrix(3.913630e-02 -0.9992 0.9992 3.913630e-02 347.3441 632.1573)" class="st6" width="19.1" height="1.1"/>
					</g>
					<g>
						<polygon class="st6" points="558.1,142.9 557,142.9 558.1,125.9 559.2,125.9 						"/>
					</g>
					<g>
						<polygon class="st6" points="578.7,125.8 577.6,125.7 578,114 579,114 						"/>
					</g>
					<g>
						<polygon class="st6" points="534.7,126.4 533.6,126.3 533.9,114.6 535,114.6 						"/>
					</g>
					<g>
						<polygon class="st6" points="486.5,126.3 485.4,126.3 485.8,115.1 486.8,115.1 						"/>
					</g>
					<g>
						<polygon class="st6" points="445,126.3 443.9,126.3 444.2,114.6 445.3,114.6 						"/>
					</g>
					<g>
						<polygon class="st6" points="407.8,126 406.7,125.9 407.1,113.1 408.2,113.2 						"/>
					</g>
					<g>
						<polygon class="st6" points="367.4,125.6 366.3,125.6 366.7,111 367.7,111 						"/>
					</g>
					<g>
						<polygon class="st6" points="329,125.4 327.9,125.3 328.2,109.4 329.3,109.4 						"/>
					</g>
					<g>
						<polygon class="st6" points="283.8,124.7 282.8,124.6 282.4,107.8 283.5,107.9 						"/>
					</g>
					<g>
						<polygon class="st6" points="242.3,124.7 241.3,124.7 240.9,106.8 241.9,106.8 						"/>
					</g>
					<g>
						<polygon class="st6" points="199.4,125 198.3,125 197.9,108.2 199,108.3 						"/>
					</g>
					<g>
						<polygon class="st6" points="153,125.5 151.9,125.4 151.5,109.6 152.6,109.7 						"/>
					</g>
					<g>
						<polygon class="st6" points="104.5,126.4 103.4,126.3 101.2,111.1 102.3,111.1 						"/>
					</g>
					<g>
						<polygon class="st6" points="51.4,127.5 50.3,127.4 48.1,112.5 49.2,112.6 						"/>
					</g>
					<g>
						<polygon class="st6" points="1.6,127.7 0.5,127.7 0.3,114 1.4,114.1 						"/>
					</g>
					<g>
						<polygon class="st6" points="558.1,115 558.7,97.8 559.8,97.7 559.2,114.9 						"/>
					</g>
					<g>
						<polygon class="st6" points="501.5,115.3 502,98.1 503.1,97.9 502.6,115.1 						"/>
					</g>
					<g>
						<polygon class="st6" points="455.3,115.2 455.8,98.3 456.9,98.2 456.4,115 						"/>
					</g>
					<g>
						<polygon class="st6" points="418.8,113.6 419.4,97.2 420.5,97.1 419.9,113.4 						"/>
					</g>
					<g>
						<polygon class="st6" points="383.5,112.4 384,96.7 385.1,96.6 384.6,112.3 						"/>
					</g>
					<g>
						<polygon class="st6" points="337.6,110.5 338.2,95.5 339.3,95.4 338.7,110.3 						"/>
					</g>
					<g>
						<polygon class="st6" points="301.6,108.8 302.1,94.8 303.2,94.7 302.6,108.7 						"/>
					</g>
					<g>
						<polygon class="st6" points="253.6,106.6 254.1,93.9 255.2,93.8 254.6,106.5 						"/>
					</g>
					<g>
						<path class="st6" d="M186.4,108.5l0.5-14.3l1.1-0.1l-0.5,13.6C187.5,108.1,187.1,108.5,186.4,108.5z"/>
					</g>
					<g>
						<polygon class="st6" points="131.2,110.3 131.7,94.5 132.8,94.4 132.3,110.2 						"/>
					</g>
					<g>
						<polygon class="st6" points="72.7,112.1 72.5,95 73.6,94.8 73.8,112 						"/>
					</g>
					<g>
						<polygon class="st6" points="18.1,113.7 17.9,95.2 19,95.1 19.2,113.6 						"/>
					</g>
					<g>
						<polygon class="st6" points="469.2,213.9 468.1,213.8 473.3,190.1 474.3,190.2 						"/>
					</g>
					<g>
						<polygon class="st6" points="464.9,189.7 463.8,189.5 466.1,178.5 467.2,178.7 						"/>
					</g>
					<g>
						<polygon class="st6" points="443.9,177.8 442.8,177.8 443.9,160.9 445,160.9 						"/>
					</g>
					<g>
						<polygon class="st6" points="421.2,160.9 420.1,160.8 422.3,144.5 423.3,144.6 						"/>
					</g>
					<g>
						<polygon class="st6" points="412.5,189.2 409.8,176.5 410.9,176.4 413.6,189 						"/>
					</g>
					<g>
						<polygon class="st6" points="396.3,175.7 395.2,175.6 397.9,160.2 399,160.3 						"/>
					</g>
					<g>
						<polygon class="st6" points="399.9,143.7 399.3,125.8 400.4,125.7 401,143.6 						"/>
					</g>
					<g>
						<polygon class="st6" points="369.2,159.5 368.1,159.5 369.2,142.1 370.3,142.2 						"/>
					</g>
					<g>
						<polygon class="st6" points="354.4,188.5 353.4,188.5 355,173.8 356.1,173.9 						"/>
					</g>
					<g>
						<polygon class="st6" points="394.6,211.1 391.9,189.2 393,189.2 395.7,211.1 						"/>
					</g>
					<g>
						<polygon class="st6" points="349.7,225.8 348.6,225.7 351.3,209.3 352.4,209.3 						"/>
					</g>
					<g>
						<polygon class="st6" points="325.9,208.3 324.8,208.3 327,188.9 328.1,188.9 						"/>
					</g>
					<g>
						<polygon class="st6" points="307.5,188 306.4,188 308.6,171.9 309.6,171.9 						"/>
					</g>
					<g>
						<polygon class="st6" points="334.5,173.1 333.5,173 336.2,158.7 337.3,158.8 						"/>
					</g>
					<g>
						<polygon class="st6" points="315.6,158.5 314.8,158.4 315.2,139.4 315.9,139.5 						"/>
					</g>
					<g>
						<polygon class="st6" points="343.8,141.1 342.7,141 343.8,125.2 344.8,125.2 						"/>
					</g>
					<g>
						<rect x="413.6" y="211.8" class="st6" width="1" height="15.3"/>
					</g>
					<g>
						<polygon class="st6" points="480.6,228.6 479.5,228.4 485.2,213.3 486.3,213.5 						"/>
					</g>
					<g>
						<polygon class="st6" points="539.1,228.4 536.5,211.1 537.6,211 540.2,228.3 						"/>
					</g>
					<g>
						<polygon class="st6" points="274.5,224 271.2,206.1 272.3,206 275.5,223.9 						"/>
					</g>
					<g>
						<polygon class="st6" points="248.3,205.1 247.2,204.9 249.9,186.9 251,187 						"/>
					</g>
					<g>
						<polygon class="st6" points="236.9,187.5 233.3,170.3 234.4,170.2 238,187.4 						"/>
					</g>
					<g>
						<polygon class="st6" points="254.8,170 253.7,169.9 256.3,157.2 257.4,157.3 						"/>
					</g>
					<g>
						<polygon class="st6" points="276.1,157.8 274.7,137.9 275.8,137.8 277.2,157.7 						"/>
					</g>
					<g>
						<polygon class="st6" points="227,156.8 227.9,137.6 229,137.6 228.1,156.8 						"/>
					</g>
					<g>
						<polygon class="st6" points="288.2,138.8 287.6,124.5 288.7,124.4 289.3,138.7 						"/>
					</g>
					<g>
						<polygon class="st6" points="254.8,137.1 253.7,124.6 254.8,124.5 255.9,137.1 						"/>
					</g>
					<g>
						<polygon class="st6" points="207.9,224 205.7,206 206.8,205.9 209,224 						"/>
					</g>
					<g>
						<polygon class="st6" points="174.5,205.8 173.5,205.8 174.6,188.3 175.7,188.3 						"/>
					</g>
					<g>
						<polygon class="st6" points="195.8,188.5 190.6,171.6 191.6,171.4 196.9,188.3 						"/>
					</g>
					<g>
						<polygon class="st6" points="138,188.8 137,188.8 137.5,173.5 138.6,173.5 						"/>
					</g>
					<g>
						<polygon class="st6" points="163.5,172.3 162.9,157.2 164,157.1 164.6,172.3 						"/>
					</g>
					<g>
						<polygon class="st6" points="208.1,171 205,157 206.1,156.8 209.1,170.9 						"/>
					</g>
					<g>
						<rect x="182.5" y="137.9" class="st6" width="0.9" height="19.1"/>
					</g>
					<g>
						<polygon class="st6" points="147.6,157.4 143.6,138.8 144.7,138.7 148.7,157.3 						"/>
					</g>
					<g>
						<rect x="209.1" y="124.7" class="st6" width="1.1" height="13.4"/>
					</g>
					<g>
						<rect x="162.8" y="125.1" class="st6" width="1.1" height="13.4"/>
					</g>
					<g>
						<polygon class="st6" points="114.2,174.2 112.1,158.1 113.1,158.1 115.3,174.2 						"/>
					</g>
					<g>
						<polygon class="st6" points="93.7,158.1 91.5,139.7 92.6,139.6 94.7,158 						"/>
					</g>
					<g>
						<polygon class="st6" points="120.9,139.6 120.4,126 121.4,126 122,139.6 						"/>
					</g>
					<g>
						<polygon class="st6" points="68.2,175.1 66,157.7 67.1,157.6 69.3,175.1 						"/>
					</g>
					<g>
						<polygon class="st6" points="47.6,157.8 46,140.5 47.1,140.4 48.7,157.7 						"/>
					</g>
					<g>
						<rect x="74.5" y="126.7" class="st6" width="1.1" height="13.5"/>
					</g>
					<g>
						<polygon class="st6" points="94.7,189.6 93.7,174.4 94.7,174.3 95.8,189.6 						"/>
					</g>
					<g>
						<polygon class="st6" points="118.6,206.5 116.4,189 117.5,188.9 119.6,206.4 						"/>
					</g>
					<g>
						<polygon class="st6" points="147.8,223.9 146.7,206.4 147.8,206.4 148.9,223.8 						"/>
					</g>
					<g>
						<polygon class="st6" points="90.4,224.7 87.2,207.5 88.2,207.4 91.5,224.6 						"/>
					</g>
					<g>
						<polygon class="st6" points="54.1,207.9 52.5,190.6 53.6,190.6 55.2,207.8 						"/>
					</g>
					<g>
						<polygon class="st6" points="37.4,190.7 36.3,176.6 37.4,176.5 38.4,190.6 						"/>
					</g>
					<g>
						<polygon class="st6" points="12.5,176.7 9.7,158.9 10.8,158.8 13.5,176.7 						"/>
					</g>
					<g>
						<polygon class="st6" points="25.3,140.8 24.2,127.5 25.3,127.4 26.3,140.7 						"/>
					</g>
					<g>
						<polygon class="st6" points="29.8,225.5 28.7,225.5 29.8,208.1 30.9,208.2 						"/>
					</g>
					<g>
						<polygon class="st6" points="3.1,208.4 1.1,190.9 2.2,190.8 4.2,208.3 						"/>
					</g>
				</g>
			</g>
		</g>
	</g>
	<g>
		<defs>
			<rect id="SVGID_3_" width="579.9" height="378"/>
		</defs>
		<clipPath id="SVGID_4_">
			<use xlink:href="#SVGID_3_"  style="overflow:visible;"/>
		</clipPath>
		<g id="XMLID_514_" class="st7">
			<path id="XMLID_533_" class="st8" d="M429.9,45.3c0.1-0.6,0.3-1.3,0.4-2l0,0c0.1-0.6,0.2-1.3,0.3-1.9c0-0.1,0-0.1,0-0.2
				c0.1-0.6,0.1-1.2,0.1-1.8c0-0.1,0-0.2,0-0.3c0-0.7,0.1-1.4,0.1-2c0-20.7-16-37.5-35.8-37.5c-0.6,0-1.3,0-1.9,0.1
				c-0.2,0-0.4,0-0.6,0.1c-0.4,0-0.9,0.1-1.3,0.1c-0.2,0-0.5,0.1-0.7,0.1c-0.5,0-0.9,0-1.2,0.1c-0.2,0-0.5,0.1-0.7,0.1
				c-0.4,0.1-0.8,0.1-1.2,0.2c-0.2,0.1-0.5,0.1-0.7,0.2c-0.4,0.1-0.8,0.2-1.2,0.3c-0.2,0.1-0.4,0.1-0.6,0.2
				c-0.4,0.1-0.8,0.3-1.2,0.4c-0.2,0.1-0.4,0.1-0.6,0.2c-0.4,0.2-0.8,0.3-1.2,0.5c-0.2,0.1-0.3,0.1-0.5,0.2
				c-0.5,0.2-0.9,0.4-1.3,0.6c-0.1,0.1-0.2,0.1-0.3,0.2c-0.5,0.3-1.1,0.5-1.6,0.8l0,0c-3.3,1.9-6.4,4.3-9,7.1l0,0
				c-0.4,0.5-0.8,0.9-1.2,1.4l0,0l0,0c-5.5,6.6-8.8,15.2-8.8,24.6c0,20.7,16,37.5,35.8,37.5C412.1,74.6,426.4,62.1,429.9,45.3
				L429.9,45.3L429.9,45.3z"/>
			<g id="XMLID_515_">
				<ellipse id="XMLID_532_" class="st9" cx="395" cy="29.7" rx="35.8" ry="35.5"/>
				<path id="XMLID_531_" class="st10" d="M395-5.8c-10.8,0-20.5,4.8-27.1,12.3c-0.6,2.5-0.9,5.1-0.9,7.8c0,19.6,16,35.5,35.8,35.5
					c10.8,0,20.5-4.8,27.1-12.3c0.6-2.5,0.9-5.1,0.9-7.8C430.8,10.1,414.8-5.8,395-5.8z"/>
				<g id="XMLID_528_">
					<rect id="XMLID_530_" x="394.2" y="56.7" class="st11" width="1.6" height="6.6"/>
					<rect id="XMLID_529_" x="394.2" y="-3.6" class="st11" width="1.6" height="6.6"/>
				</g>
				<g id="XMLID_525_">
					<rect id="XMLID_527_" x="361.8" y="29" class="st11" width="6.5" height="1.6"/>
					<rect id="XMLID_526_" x="421.6" y="29" class="st11" width="6.5" height="1.6"/>
				</g>
				<g id="XMLID_522_">
					<polygon id="XMLID_524_" class="st11" points="375.6,11.4 376.7,10.2 372.1,5.6 371,6.7 					"/>
					<polygon id="XMLID_523_" class="st11" points="417.9,54 419,52.9 414.4,48.3 413.3,49.4 					"/>
				</g>
				<g id="XMLID_519_">
					<polygon id="XMLID_521_" class="st11" points="413.3,10.2 414.4,11.3 419,6.7 417.9,5.6 					"/>
					<polygon id="XMLID_520_" class="st11" points="371,52.9 372.1,54 376.7,49.4 375.6,48.3 					"/>
				</g>
				<rect id="XMLID_518_" x="393.2" y="14.9" class="st11" width="3.5" height="15.4"/>
				<polygon id="XMLID_517_" class="st11" points="409.4,45.4 411.3,43.5 395.8,27.9 394,29.7 				"/>
				<g id="XMLID_516_">
					<path class="st12" d="M395,66.5c-20.4,0-37-16.5-37-36.8S374.6-7,395-7s37,16.5,37,36.8C432,50,415.4,66.5,395,66.5z M395-4.6
						c-19.1,0-34.6,15.4-34.6,34.3S375.9,64,395,64s34.6-15.4,34.6-34.3S414.1-4.6,395-4.6z"/>
				</g>
			</g>
		</g>
	</g>
	<g>
		<defs>
			<rect id="SVGID_5_" width="579.9" height="378"/>
		</defs>
		<clipPath id="SVGID_6_">
			<use xlink:href="#SVGID_5_"  style="overflow:visible;"/>
		</clipPath>
		<g class="st13">
			<path class="st14" d="M555.7,128.7l-1.2,10.4c0,0-0.8,3,6,4.6c6.2,1.4,7-3.4,7-3.4l2.2-15.8L555.7,128.7z"/>
			<path class="st15" d="M575.3,76c11.8,4.8,10.1,13.2,10.1,13.2s-1.5,6.5-3,14.2c1.4-1.4,3.4-1.7,5.3-0.5c3.9,2.5-1.4,15.2-7.6,13
				c-0.9,3.6-1.7,6.4-2.4,7.4c-2.4,3.5-11.2,7.9-18.3,7.6s-15.1-6.4-13.7-14.6c1.4-8.2,6.3-38.7,6.3-38.7S555.7,68,575.3,76z"/>
			
				<ellipse transform="matrix(0.1635 -0.9865 0.9865 0.1635 367.0457 629.4241)" class="st16" cx="554.7" cy="98.3" rx="3.3" ry="1.8"/>
			<g>
				<path class="st17" d="M563.6,96.3c1.1-0.2,1.5-0.8,2.1-1.3s1.3-1.1,2.4-1.6c0.5-0.2,1.1-0.4,1.8-0.4c0.3,0,0.7,0,1,0.1
					s0.6,0.2,0.9,0.4c1.1,0.7,1.6,1.8,1.7,2.9c-1.1-0.3-1.9-0.6-2.5-0.6s-1,0.2-1.7,0.5s-1.5,0.7-2.6,0.9c-0.3,0.1-0.5,0.1-0.8,0.1
					s-0.6,0-0.9-0.1c-0.3,0-0.6-0.2-0.8-0.3C563.9,96.8,563.7,96.5,563.6,96.3z"/>
			</g>
			<g>
				<path class="st17" d="M558.7,92.3c-1-0.3-1.7-0.6-2.3-0.8c-0.6-0.2-1.2-0.4-1.6-0.6c-0.5-0.1-0.9-0.2-1.5-0.2c-0.3,0-0.6,0-1,0
					s-0.8,0.1-1.3,0.1c0.1-1,0.6-1.9,1.5-2.4c0.8-0.6,2.1-0.8,3.1-0.5s1.9,0.9,2.4,1.7C558.5,90.4,558.8,91.3,558.7,92.3z"/>
			</g>
			<g>
				<path class="st18" d="M560.2,95.6c-0.4,1-0.8,2.1-1.2,3.1l-1.1,3.1l-1.1,3.1c-0.4,1-0.7,2.1-1.1,3.1l-0.1-0.3
					c0.6,0.5,1.2,0.9,1.7,1.4c0.6,0.5,1.1,1,1.7,1.5c-0.6-0.4-1.3-0.8-1.9-1.2c-0.6-0.4-1.2-0.8-1.9-1.2l-0.2-0.1l0.1-0.2
					c0.6-2.2,1.3-4.3,2.1-6.4c0.4-1,0.9-2.1,1.4-3.1C559,97.5,559.6,96.5,560.2,95.6z"/>
			</g>
			<g>
				<path class="st16" d="M565.4,98.9c0,0.7,0.3,1.2,0.8,1.4c0.4,0.2,1,0.3,1.6,0.3s1.2,0,1.7-0.1s1.1-0.4,1.4-0.9
					c0,0.7-0.5,1.3-1.2,1.6c-0.7,0.3-1.4,0.4-2,0.3c-0.7-0.1-1.4-0.2-2-0.7C565.1,100.4,565,99.4,565.4,98.9z"/>
			</g>
			<path class="st19" d="M566.6,116.2c0,0-8.9,9.4-15.6,0.7L566.6,116.2"/>
			<path class="st17" d="M578,87.1c-0.3,4.6,2.9,8.3,2.9,8.3l-1.3,8l0,0c0,0.2,0,0.3-0.1,0.5l-0.5,2.9c0.8,0.1,1.6,0.1,2.4,0.2
				l0.8-2.7c0,0,1.4-2.1,3.1-2c2.4-4.1,4.3-7.5,4.9-11c1.5-9.2-4-9.5-4-9.5s0-0.3-0.1-0.9c-1.4-15.2-12.7-16-20.9-14.2
				c-1.1,0.2-2.3,0.5-3.4,0.9c-0.8,0.3-1.6,0.5-2.3,0.8c-7.5,3-10.1,0.8-10.1,0.8c0.2,1.5,2.4,2.8,2.4,2.8c-4-0.7-4-3.6-4-3.6
				c-2.7,5,1.2,10.9,3.6,11.6c-2.9,0.1-4.5-0.7-4.5-0.7S552.3,92.3,578,87.1z"/>
		</g>
	</g>
	<g>
		<defs>
			<rect id="SVGID_7_" width="579.9" height="378"/>
		</defs>
		<clipPath id="SVGID_8_">
			<use xlink:href="#SVGID_7_"  style="overflow:visible;"/>
		</clipPath>
		<g class="st20">
			<g>
				<path class="st21" d="M514.8,237.8c0,0-10.3,40.4-13.3,58.2c-3.5,20.4-8.6,68.2-8.6,68.2h4c0,0,26.4-39.7,23.3-62
					c-2.6-18.9,16.7-37.7,16.7-37.7s27.3,73.5,25.8,99.6h5c0,0,6.7-13.2,6.6-41c0-7.6-10.7-21.8-9.8-29.8
					c2.7-23.3-0.7-44.4-3.7-58.7l-1.2-6.7L514.8,237.8z"/>
				<path class="st22" d="M492.8,364.1c0,0-11.3,3.1-8.8,4.1c2.6,1,12.8-4.1,12.8-4.1H492.8z"/>
				<path class="st22" d="M564.4,363.9c0,0-11.3,3.1-8.8,4.1c2.6,1,12.8-4.1,12.8-4.1H564.4z"/>
				<g>
					<path class="st23" d="M495.2,364.2c0,0,0-0.4,0.1-1.3c0.1-0.8,0.3-2,0.6-3.6c0.3-1.6,0.6-3.5,1-5.7s0.8-4.7,1.3-7.5
						c2-11.1,5-26.4,8.9-43.1c3.9-16.8,8-31.8,11-42.7c1.5-5.4,2.8-9.8,3.6-12.8c0.4-1.5,0.8-2.7,1-3.5s0.4-1.2,0.4-1.2
						s-0.1,0.4-0.2,1.2c-0.2,0.8-0.5,2-0.9,3.5c-0.8,3.1-1.9,7.5-3.3,12.9c-2.9,10.9-6.9,25.9-10.7,42.7c-3.9,16.7-6.9,32-9.1,43.1
						c-1.1,5.5-2,10-2.6,13.1c-0.3,1.5-0.6,2.7-0.7,3.6C495.3,363.8,495.2,364.2,495.2,364.2z"/>
				</g>
				<g>
					<path class="st23" d="M564.9,364.1c0,0,0-0.5,0.1-1.3c0-0.4,0.1-0.9,0.2-1.6c0-0.3,0.1-0.6,0.1-1s0.1-0.7,0.1-1.1
						c0.1-0.8,0.1-1.7,0.2-2.7c0.1-1,0.1-2,0.2-3.2c0-0.3,0-0.6,0-0.9s0-0.6,0-0.9c0-0.6,0-1.2,0-1.9c0-0.3,0-0.7,0-1s0-0.7,0-1
						c0-0.7,0-1.4,0-2.1c0-0.4,0-0.7,0-1.1s0-0.7,0-1.1c0-0.8-0.1-1.5-0.1-2.3s-0.1-1.6-0.1-2.4c0-0.4-0.1-0.8-0.1-1.2
						c0-0.2,0-0.4,0-0.6s0-0.4-0.1-0.6c-0.1-1.7-0.3-3.4-0.5-5.2c0-0.4-0.1-0.9-0.1-1.4c0-0.2,0-0.5-0.1-0.7c0-0.2-0.1-0.5-0.1-0.7
						c-0.1-0.9-0.2-1.8-0.4-2.8c-0.5-3.8-1.1-7.7-1.9-11.8c-0.7-4.1-1.6-8.3-2.5-12.6c-1.8-8.6-3.7-16.8-5.2-24.2
						c-0.8-3.7-1.5-7.3-2.1-10.6c-0.2-0.8-0.3-1.7-0.4-2.5c-0.1-0.8-0.3-1.6-0.4-2.4c-0.3-1.6-0.5-3-0.7-4.5
						c-0.2-1.4-0.4-2.8-0.6-4.1c-0.2-1.3-0.3-2.5-0.5-3.6c-0.1-1.1-0.2-2.2-0.3-3.2s-0.2-1.9-0.2-2.7c0-0.4-0.1-0.8-0.1-1.1
						c0-0.4,0-0.7-0.1-1c0-0.6-0.1-1.1-0.1-1.6c0-0.8,0-1.3,0-1.3s0.1,0.4,0.2,1.3c0,0.4,0.1,0.9,0.2,1.6c0,0.3,0.1,0.6,0.1,1
						s0.1,0.7,0.1,1.1c0.1,0.8,0.2,1.7,0.3,2.7s0.3,2,0.4,3.2c0.1,1.1,0.3,2.3,0.5,3.6s0.4,2.6,0.6,4c0.2,1.4,0.5,2.9,0.8,4.4
						c0.1,0.8,0.3,1.6,0.4,2.4c0.2,0.8,0.3,1.6,0.5,2.4c0.7,3.3,1.4,6.9,2.2,10.6c1.6,7.4,3.5,15.6,5.3,24.2
						c0.9,4.3,1.7,8.5,2.5,12.6c0.7,4.1,1.3,8,1.8,11.8c0.1,0.9,0.2,1.9,0.3,2.8c0,0.2,0.1,0.5,0.1,0.7s0,0.5,0.1,0.7
						c0,0.5,0.1,0.9,0.1,1.4c0.2,1.8,0.3,3.5,0.5,5.2c0,0.2,0,0.4,0,0.6s0,0.4,0,0.6c0,0.4,0,0.8,0.1,1.2c0,0.8,0.1,1.6,0.1,2.4
						s0,1.6,0.1,2.3c0,0.4,0,0.8,0,1.1c0,0.4,0,0.7,0,1.1c0,0.7,0,1.4,0,2.1c0,0.3,0,0.7,0,1s0,0.7,0,1c0,0.6,0,1.3-0.1,1.9
						c0,0.3,0,0.6,0,0.9s0,0.6-0.1,0.9c-0.1,1.1-0.1,2.2-0.2,3.2c-0.1,1-0.2,1.9-0.3,2.7c0,0.4-0.1,0.8-0.1,1.1
						c-0.1,0.4-0.1,0.7-0.1,1c-0.1,0.6-0.2,1.1-0.2,1.6C565.1,363.6,565,364.1,564.9,364.1z"/>
				</g>
			</g>
			<g>
				<path class="st24" d="M525,165.5c3.5-9.3,5.3-20.1,7.1-29.8l-91.9-16.2l-2,7.3c0,0,39.9,20.5,51.7,24.4
					C503.4,155.6,525,165.5,525,165.5z"/>
				<path class="st25" d="M439.6,121.8c0,0-21.4-13.6-23.2-13.1c-1.8,0.4,8.3,6.6,8.3,6.6s-11.8-4.8-10.5-3.4
					c1.3,1.5,9.8,5.4,9.8,5.4s-1.7,3.5,0.5,4.8c2.2,1.4,6,3.1,7.3,2.6s5.1-0.5,7.2,1.5L439.6,121.8z"/>
				<g>
					<path class="st26" d="M479.7,56.6c0-0.1,0.1-0.2,0.5-0.4s0.9-0.5,1.7-0.8c0.4-0.2,0.8-0.3,1.3-0.5c0.2-0.1,0.5-0.2,0.8-0.2
						c0.3-0.1,0.6-0.1,0.9-0.2c0.3,0,0.6-0.1,1-0.1c0.2,0,0.3,0,0.5,0s0.4,0,0.5,0s0.2,0,0.3,0c0.1,0,0.2,0,0.3,0
						c0.2,0,0.4,0,0.6,0.1c0.2,0,0.4,0.1,0.6,0.1s0.4,0.1,0.6,0.2c0.8,0.2,1.7,0.7,2.4,1.3l0.1,0.1l0.1,0.1c0.1,0.1,0.2,0.2,0.3,0.3
						c0.2,0.2,0.3,0.4,0.5,0.6c0.1,0.2,0.3,0.4,0.4,0.7c0.1,0.2,0.3,0.5,0.4,0.7c0.4,1,0.7,2.1,0.7,3.2c0,1.1-0.1,2.3-0.5,3.5
						c-0.1,0.3-0.2,0.6-0.3,0.9c-0.1,0.3-0.2,0.6-0.4,0.9c-0.1,0.1-0.1,0.3-0.2,0.4v0.1v0.1l-0.1,0.1l-0.2,0.2
						c-0.1,0.2-0.2,0.3-0.3,0.4c-0.1,0.1-0.2,0.3-0.4,0.4c-1,1-2.2,1.6-3.4,2.2c-1.2,0.6-2.5,1-3.8,1.4s-2.6,0.8-4,1.1
						c-5.5,1.4-11.5,2.5-17.9,3.7c-3.2,0.6-6.5,1.2-10,1.9c-3.4,0.7-6.9,1.5-10.4,2.5c-0.9,0.3-1.7,0.5-2.6,0.8s-1.7,0.6-2.5,0.9
						s-1.6,0.7-2.4,1.1c-0.7,0.4-1.4,0.9-2,1.4c-0.1,0.1-0.1,0.1-0.2,0.2l-0.2,0.2c-0.1,0.1-0.1,0.1-0.2,0.2l-0.2,0.2
						c-0.2,0.3-0.4,0.6-0.6,1s-0.3,0.7-0.4,1.1s-0.2,0.8-0.3,1.2c-0.2,1.7-0.1,3.5,0.2,5.3c0.3,1.9,0.9,3.7,1.5,5.6s1.3,3.8,2,5.8
						s1.3,4,1.8,6.2c0.2,1.1,0.4,2.3,0.4,3.5c0,0.6,0,1.3-0.2,1.9c-0.1,0.7-0.4,1.4-0.7,2l-0.1,0.2c0,0.1-0.1,0.2-0.1,0.2l-0.3,0.4
						c-0.2,0.3-0.4,0.5-0.6,0.8l-0.2,0.2l-0.2,0.2l-0.4,0.3c-0.2,0.2-0.5,0.4-0.8,0.6c-1.1,0.7-2.2,1.2-3.3,1.6
						c-1.1,0.4-2.2,0.6-3.2,0.8c-1,0.2-2,0.4-3.1,0.6c-2,0.4-3.8,0.9-5.5,1.7c-1.7,0.7-3.2,1.7-4.6,3L413,131
						c-0.1,0.1-0.2,0.2-0.2,0.2l-0.5,0.5c-0.2,0.2-0.3,0.3-0.4,0.5s-0.3,0.3-0.4,0.5l-0.4,0.5l-0.1,0.1l-0.1,0.1l-0.1,0.2l-0.1,0.1
						l-0.1,0.1l-0.1,0.2c-0.1,0.2-0.1,0.3-0.2,0.5c-0.5,1.4-0.6,3.2-0.4,4.9c0.2,1.8,0.7,3.5,1.2,5.2c0.3,0.9,0.6,1.7,0.9,2.6
						c0.3,0.8,0.7,1.7,1,2.5c1.4,3.3,3.1,6.4,4.8,9.4c1.7,3,3.5,5.9,5.2,8.6c1.8,2.7,3.5,5.4,5.2,7.9c0.9,1.3,1.7,2.5,2.5,3.7
						s1.6,2.4,2.4,3.6c0.8,1.3,1.4,2.7,1.8,4.1c0.1,0.3,0.2,0.7,0.2,1c0,0.2,0.1,0.3,0.1,0.5s0.1,0.3,0.1,0.5
						c0.1,0.7,0.1,1.4,0.1,2.1c0,1.4-0.2,2.7-0.6,3.9s-1,2.4-1.8,3.4c-0.2,0.2-0.4,0.5-0.7,0.7c-0.1,0.1-0.2,0.2-0.3,0.3
						c-0.1,0.1-0.2,0.2-0.4,0.3c-0.1,0.1-0.3,0.2-0.4,0.3s-0.3,0.2-0.4,0.2c-0.3,0.1-0.5,0.3-0.8,0.4c-1.1,0.4-2.3,0.6-3.3,0.5
						s-2-0.3-2.9-0.7s-1.7-1-2.3-1.6c-0.6-0.7-1-1.4-1.2-2.1c-0.3-0.7-0.4-1.4-0.5-2c-0.1-1.3,0-2.3,0.1-3.1s0.3-1.5,0.4-1.9
						s0.3-0.6,0.3-0.6c0.1,0,0.1,0.2,0.1,0.7c0,0.4-0.1,1-0.1,1.8s0,1.8,0.3,2.9c0.1,0.6,0.3,1.1,0.5,1.7c0.3,0.6,0.6,1.1,1.1,1.6
						s1.1,0.9,1.8,1.1c0.7,0.3,1.5,0.4,2.4,0.4s1.7-0.1,2.5-0.5c0.8-0.3,1.5-0.9,2.1-1.7c1.2-1.5,1.7-3.7,1.7-6
						c-0.1-2.3-0.7-4.8-2.1-6.8c-0.7-1.1-1.6-2.3-2.5-3.4c-0.9-1.2-1.7-2.4-2.6-3.6c-1.8-2.5-3.6-5.1-5.4-7.8s-3.7-5.6-5.5-8.7
						c-1.8-3-3.5-6.3-5.1-9.7c-0.8-1.7-1.5-3.5-2.1-5.4s-1.1-3.8-1.4-5.9c-0.1-1-0.2-2.1-0.1-3.2c0.1-1.1,0.2-2.3,0.7-3.4
						c0.1-0.3,0.2-0.6,0.4-0.8l0.2-0.4l0.1-0.2l0.1-0.2l0.3-0.4c0-0.1,0.1-0.1,0.1-0.2l0.1-0.2l0.5-0.6c0.2-0.2,0.3-0.4,0.5-0.6
						c0.2-0.2,0.3-0.4,0.5-0.6l0.6-0.6c0.1-0.1,0.2-0.2,0.3-0.3l0.3-0.3c0.2-0.2,0.4-0.4,0.6-0.6l0.6-0.5c0.2-0.2,0.4-0.3,0.7-0.5
						c0.2-0.2,0.4-0.3,0.7-0.5l0.7-0.4c0.2-0.1,0.5-0.3,0.7-0.4s0.5-0.3,0.7-0.4s0.5-0.2,0.8-0.4c2-0.9,4.2-1.5,6.2-1.9
						c2.1-0.5,4.1-0.8,5.9-1.4c0.9-0.3,1.7-0.6,2.4-1.1c0.2-0.1,0.3-0.2,0.5-0.4l0.2-0.2l0.1-0.1l0.1-0.1c0.1-0.1,0.3-0.3,0.4-0.5
						l0.2-0.2c0,0,0-0.1,0.1-0.1l0.1-0.1c0.3-0.5,0.4-1.3,0.4-2.2c0-0.9-0.1-1.8-0.3-2.8c-0.4-1.9-1-3.9-1.7-5.8s-1.3-3.9-2-5.9
						c-0.6-2-1.2-4-1.6-6.1c-0.2-1-0.3-2.1-0.4-3.2s0-2.2,0.2-3.3c0.1-0.6,0.2-1.1,0.4-1.7c0.2-0.6,0.4-1.1,0.6-1.6
						c0.3-0.5,0.6-1,0.9-1.5l0.3-0.3c0.1-0.1,0.2-0.2,0.3-0.3L430,83c0.1-0.1,0.2-0.2,0.3-0.3c0.9-0.8,1.8-1.4,2.7-1.9
						c0.9-0.5,1.8-0.9,2.8-1.3c0.9-0.4,1.8-0.7,2.8-1c0.9-0.3,1.8-0.6,2.7-0.8c3.6-1,7.2-1.7,10.6-2.4c3.5-0.6,6.8-1.2,10-1.7
						c6.5-1.1,12.5-2,17.9-3.2c1.3-0.3,2.6-0.6,3.9-1c1.2-0.4,2.4-0.7,3.5-1.2c0.6-0.2,1.1-0.5,1.6-0.7c0.5-0.3,0.9-0.6,1.3-0.9
						c0.1-0.1,0.2-0.2,0.2-0.2c0.1-0.1,0.1-0.2,0.2-0.2l0.1-0.1V66l0,0l0,0c0.1-0.1,0.1-0.2,0.2-0.3c0.1-0.2,0.2-0.5,0.3-0.7
						c0.1-0.2,0.2-0.5,0.3-0.7c0.3-1,0.5-1.9,0.5-2.8c0-0.9-0.1-1.8-0.4-2.6c-0.1-0.2-0.2-0.4-0.2-0.6c-0.1-0.2-0.2-0.3-0.3-0.5
						c-0.1-0.2-0.2-0.3-0.4-0.5c-0.1-0.1-0.1-0.1-0.2-0.2l-0.1-0.1l-0.1-0.1c-0.5-0.5-1.2-0.9-1.8-1.1c-0.2-0.1-0.3-0.1-0.5-0.2
						c-0.2,0-0.3-0.1-0.5-0.1s-0.3-0.1-0.5-0.1c-0.1,0-0.2,0-0.2,0c-0.1,0-0.2,0-0.2,0c-0.2,0-0.3,0-0.5,0s-0.3,0-0.5,0
						c-0.3,0-0.6,0-0.9,0s-0.6,0.1-0.8,0.1c-0.3,0-0.5,0.1-0.8,0.1c-0.5,0.1-0.9,0.2-1.3,0.3c-0.8,0.2-1.4,0.4-1.8,0.5
						C480,56.6,479.8,56.7,479.7,56.6z"/>
				</g>
				<polygon class="st19" points="412.4,115.8 400,101.7 418.8,106.2 411.4,108.2 				"/>
				<g>
					<path class="st27" d="M536.9,174c-0.2,0.4-28.5-13.8-63.1-31.9s-62.5-33.1-62.2-33.6c0.2-0.4,28.5,13.8,63.1,31.9
						C509.3,158.6,537.1,173.6,536.9,174z"/>
				</g>
				<g>
					<path class="st19" d="M432.6,198.4c0,0,0,0,0.1,0s0.2,0,0.4-0.1c0.4-0.1,0.9-0.2,1.6-0.3c1.4-0.3,3.5-0.7,6.2-1.2
						c5.4-1,13.2-2.6,22.8-4.5c9.6-2,21.1-4.3,33.8-7.2c6.3-1.5,13-3,19.8-4.9c1.7-0.5,3.4-1,5.1-1.5c1.7-0.5,3.4-1.1,5.2-1.7
						c0.9-0.3,1.7-0.6,2.6-1l0.6-0.3l0.6-0.3c0.2-0.1,0.4-0.2,0.6-0.3c0.2-0.1,0.4-0.2,0.6-0.3c0.2-0.1,0.4-0.2,0.6-0.3l0.3-0.2
						c0.1-0.1,0.2-0.1,0.3-0.2l0.3-0.2l0.1-0.1l0,0v-0.1c0.1-0.2,0.1-0.4,0.1-0.6c0-0.4,0-0.9-0.1-1.3c-0.1-0.5-0.2-0.9-0.3-1.4
						c-0.4-1.8-1-3.6-1.6-5.3c-0.6-1.8-1.2-3.5-1.9-5.2c-1.3-3.4-2.7-6.7-4-10c-2.7-6.5-5.5-12.8-8.2-18.7
						c-5.3-11.9-10.3-22.5-14.5-31.3c-4.2-8.9-7.7-16.1-10.1-21c-1.2-2.5-2.1-4.4-2.8-5.7c-0.3-0.7-0.5-1.2-0.7-1.5
						c-0.1-0.2-0.1-0.3-0.2-0.4c0-0.1-0.1-0.1-0.1-0.1s0,0,0.1,0.1c0,0.1,0.1,0.2,0.2,0.4c0.2,0.3,0.4,0.8,0.7,1.5
						c0.7,1.3,1.6,3.2,2.8,5.7c2.4,4.9,5.9,12.1,10.2,20.9c4.2,8.9,9.3,19.5,14.6,31.3c2.7,5.9,5.4,12.2,8.2,18.7
						c1.4,3.3,2.7,6.6,4,10c0.6,1.7,1.3,3.4,1.9,5.2c0.6,1.8,1.2,3.5,1.6,5.4c0.1,0.5,0.2,0.9,0.3,1.4s0.1,0.9,0.1,1.4
						c0,0.2-0.1,0.5-0.2,0.8c0,0,0,0.1-0.1,0.1l-0.1,0.1c-0.1,0.1-0.1,0.1-0.1,0.1l-0.3,0.2c-0.1,0.1-0.2,0.1-0.3,0.2l-0.3,0.2
						c-0.2,0.1-0.4,0.2-0.6,0.3c-0.2,0.1-0.4,0.2-0.6,0.3c-0.2,0.1-0.4,0.2-0.6,0.3l-0.6,0.3l-0.6,0.3c-0.9,0.4-1.7,0.7-2.6,1
						c-1.7,0.6-3.5,1.2-5.2,1.7s-3.4,1-5.2,1.5c-6.8,1.9-13.5,3.4-19.8,4.9c-12.7,2.9-24.2,5.2-33.8,7.1c-9.6,1.9-17.5,3.4-22.9,4.4
						c-2.7,0.5-4.8,0.9-6.2,1.1c-0.7,0.1-1.3,0.2-1.6,0.3c-0.2,0-0.3,0-0.4,0.1C432.6,198.4,432.6,198.4,432.6,198.4z"/>
				</g>
			</g>
			<path class="st28" d="M532.1,135.7c0,0-4.7,23.8-12.2,48c-7.4,24.2-5.2,54.1-5.2,54.1l46-5.1c0,0-5.1-18.7,2-27.5
				c7.2-8.9,28.3-43.8,28.3-43.8s-9.5-14.4-25.4-19.6c-1-0.3-4.1,5.3-5.1,5c-5.5-1.3-8.3-8.2-12.6-8.9
				C538.2,136.2,532.1,135.7,532.1,135.7z"/>
			<polygon class="st24" points="548,138.1 549.2,134.5 557.7,141.6 555.8,146.8 			"/>
			<polygon class="st29" points="557.7,141.6 558.3,145.4 556.3,145.5 			"/>
			<polygon class="st29" points="558.3,145.4 560.4,142.3 560.6,146.9 			"/>
			<path class="st24" d="M570.4,140.3c0,0.1-10,2-10,2v5.4l10.6-3.2L570.4,140.3z"/>
			<polygon class="st30" points="556.8,143.8 560.4,144.6 560.6,146.9 556.1,146 			"/>
			<polygon class="st31" points="557.7,143.9 556.9,146.8 559,147.7 559.9,144.5 			"/>
			<g>
				<path class="st24" d="M533.5,230c-0.1,0-0.1-0.8-0.1-2.4c0-0.4,0-0.8,0-1.3s0-1,0.1-1.5c0-1.1,0.1-2.3,0.2-3.7
					c0-0.7,0.1-1.4,0.2-2.1c0.1-0.7,0.1-1.5,0.2-2.3c0.1-0.8,0.1-1.6,0.3-2.5c0.1-0.9,0.2-1.7,0.3-2.6c0.5-3.6,1.2-7.5,2.1-11.6
					c0.9-4.1,2-7.9,3-11.4c0.3-0.9,0.5-1.7,0.8-2.5s0.5-1.6,0.8-2.4c0.3-0.8,0.5-1.5,0.8-2.2s0.5-1.4,0.8-2c0.5-1.3,1-2.4,1.4-3.4
					c0.2-0.5,0.4-1,0.6-1.4c0.2-0.4,0.4-0.8,0.5-1.2c0.6-1.4,1-2.1,1.1-2.1s-0.2,0.8-0.8,2.3c-0.1,0.4-0.3,0.8-0.5,1.2
					s-0.3,0.9-0.5,1.4c-0.4,1-0.8,2.2-1.3,3.5c-0.2,0.6-0.5,1.3-0.7,2s-0.5,1.4-0.7,2.2s-0.5,1.5-0.8,2.4c-0.2,0.8-0.5,1.7-0.8,2.5
					c-1,3.5-2,7.3-2.9,11.4c-0.9,4.1-1.6,8-2.1,11.5c-0.1,0.9-0.3,1.8-0.4,2.6c-0.1,0.8-0.2,1.7-0.3,2.5s-0.2,1.6-0.3,2.3
					s-0.1,1.5-0.2,2.1c-0.2,1.4-0.2,2.6-0.3,3.7c0,0.5-0.1,1-0.1,1.5s-0.1,0.9-0.1,1.3C533.7,229.2,533.6,230,533.5,230z"/>
			</g>
			<path class="st31" d="M556.9,146.8c0,0-24.5,39.2-24.2,57.1l2.9,6.4l7.1-3.8c0,0-0.5-17.5,6-34.8s10.2-24.2,10.2-24.2
				L556.9,146.8z"/>
			<g>
				<path class="st24" d="M560.9,208.3c0,0.1-0.5,0.4-1.6,0.6c-0.1,0-0.3,0-0.4,0.1c-0.1,0-0.3,0-0.4,0.1c-0.3,0-0.6,0.1-1,0.1
					c-0.7,0-1.4,0-2.2-0.1s-1.5-0.3-2.2-0.6c-0.3-0.1-0.6-0.2-0.9-0.4c-0.1-0.1-0.3-0.1-0.4-0.2c-0.1-0.1-0.2-0.1-0.4-0.2
					c-0.9-0.5-1.3-1-1.3-1.1c0.1-0.1,0.6,0.1,1.6,0.5c0.1,0,0.2,0.1,0.4,0.1s0.3,0.1,0.4,0.1c0.3,0.1,0.6,0.2,0.9,0.3
					c0.6,0.2,1.3,0.3,2,0.5c0.7,0.1,1.4,0.2,2.1,0.2c0.3,0,0.6,0,0.9,0c0.1,0,0.3,0,0.4,0c0.1,0,0.3,0,0.4,0
					C560.3,208.2,560.9,208.1,560.9,208.3z"/>
			</g>
			<g>
				
					<ellipse transform="matrix(0.9982 -6.063178e-02 6.063178e-02 0.9982 -11.7407 34.0877)" class="st24" cx="555.8" cy="210.5" rx="3.1" ry="0.5"/>
			</g>
			<polygon class="st24" points="559.3,172.1 557.2,179.9 561.6,184.5 566.5,181.2 568.2,174.4 			"/>
			<g>
				<polygon class="st32" points="530.5,235.9 531.5,239.5 539.9,238 539.2,234.7 				"/>
				<path class="st33" d="M536.9,234.9c-0.1,0.1-2.1,4-2.1,4l-1.4,0.2l1.8-3.9L536.9,234.9z"/>
			</g>
			<polygon class="st34" points="539.7,237.4 548.8,236 548.5,233.5 539.2,234.8 			"/>
			<polygon class="st34" points="551.8,233.1 552.2,235.5 560.8,234.4 560.4,231.9 			"/>
			<polygon class="st34" points="531.2,238.5 523.6,239.5 523.1,236.9 530.5,235.9 			"/>
			<polygon class="st34" points="519.8,237.4 520.2,239.8 514.7,240.5 514.8,237.9 			"/>
			<path class="st24" d="M578,170.5c-0.7,4-0.8,8.1-0.5,12.1c0.3,3-0.1,5.4-2.3,7c-3,2.2-37.4-12.1-37.4-12.1l-3.5,6.8
				c0,0,45.5,34.2,57.3,18.9c9.6-12.4,3.6-32.4,1-39.5c-0.8-2.3-2.6-4.2-4.9-5C582.8,156.8,579.7,161.3,578,170.5z"/>
			<path class="st25" d="M536.9,180.1c0,0-2.7-2-1.7-3.8s-0.6-8.2-1.6-8.1c-0.9,0.1-0.8,3.6-0.8,3.6s-3-1.8-4-1.2s-3.8,7.1-2.1,7.7
				c1.7,0.6,6.6,2.6,8.5,4.5"/>
		</g>
	</g>
</g>
</svg>
