<?xml version="1.0" encoding="utf-8"?>
<!-- Generator: Adobe Illustrator 21.1.0, SVG Export Plug-In . SVG Version: 6.00 Build 0)  -->
<svg version="1.1" id="Layer_1" xmlns="http://www.w3.org/2000/svg" xmlns:xlink="http://www.w3.org/1999/xlink" x="0px" y="0px"
	 viewBox="0 0 340 488.9" width="340" height="488.9" style="enable-background:new 0 0 340 488.9;" xml:space="preserve">
<style type="text/css">
	.st0{fill:#009EDE;}
	.st1{opacity:0.3;fill:#FFFFFF;enable-background:new    ;}
	.st2{clip-path:url(#SVGID_1_);}
	.st3{fill:#D2BAA4;}
	.st4{fill:#EBCCB1;}
	.st5{fill:#27272C;}
	.st6{fill:#7B6541;}
	.st7{opacity:0.4;fill:#A47563;enable-background:new    ;}
	.st8{fill:#C19283;}
	.st9{clip-path:url(#SVGID_1_);fill:#FF7415;}
	.st10{fill:#272E33;}
	.st11{fill:#3F2728;}
	.st12{fill:#171B1E;}
	.st13{clip-path:url(#SVGID_1_);fill:#FCCAB1;}
	.st14{clip-path:url(#SVGID_1_);fill:#F7F7F7;}
	.st15{clip-path:url(#SVGID_1_);fill:#EAEAEA;}
	.st16{clip-path:url(#SVGID_1_);fill:#CECECE;}
	.st17{clip-path:url(#SVGID_1_);fill:#0E81AA;}
	.st18{clip-path:url(#SVGID_1_);fill:#10A9EA;}
	.st19{fill:#EAEAEA;}
	.st20{fill:#D3D3D3;}
	.st21{opacity:0.44;fill:#F7F7F7;enable-background:new    ;}
	.st22{fill:#A38C7C;}
	.st23{fill:#FF7415;}
	.st24{clip-path:url(#SVGID_2_);}
	.st25{fill:#30C1FF;}
	.st26{fill:#FDFDFD;}
	.st27{opacity:0.4;fill:url(#SVGID_3_);enable-background:new    ;}
	.st28{opacity:0.4;fill:url(#SVGID_4_);enable-background:new    ;}
	.st29{opacity:0.56;fill:url(#SVGID_5_);enable-background:new    ;}
	.st30{opacity:0.23;clip-path:url(#SVGID_6_);fill:#FAFDFF;enable-background:new    ;}
</style>
<rect class="st0" width="340" height="488.9"/>
<path class="st1" d="M9.9,79.3c0,1.2-1,2.2-2.2,2.2s-2.2-1-2.2-2.2c0-1.2,1-2.2,2.2-2.2c0,0,0,0,0,0C9,77.1,9.9,78.1,9.9,79.3z
	 M-10.7,217L-10.7,217 M47.1,50.6c0,2.5-2,4.5-4.5,4.5c-2.5,0-4.5-2-4.5-4.5c0-2.5,2-4.5,4.5-4.5C45.1,46.1,47.1,48.1,47.1,50.6
	L47.1,50.6z M73.5,200.5c0-1.2,1-2.2,2.2-2.2s2.2,1,2.2,2.2c0,1.2-1,2.2-2.2,2.2C74.4,202.7,73.5,201.7,73.5,200.5
	C73.5,200.5,73.5,200.5,73.5,200.5L73.5,200.5z M176,199.4c0-1.2,1-2.2,2.2-2.2c1.2,0,2.2,1,2.2,2.2c0,1.2-1,2.2-2.2,2.2
	C177,201.5,176,200.6,176,199.4C176,199.4,176,199.4,176,199.4L176,199.4z M307.1,175.3c0-1.2,1-2.2,2.2-2.2c1.2,0,2.2,1,2.2,2.2
	c0,1.2-1,2.2-2.2,2.2C308,177.5,307.1,176.5,307.1,175.3C307.1,175.3,307.1,175.3,307.1,175.3L307.1,175.3z M210,32.7
	c0-1.2,1-2.2,2.2-2.2c1.2,0,2.2,1,2.2,2.2c0,1.2-1,2.2-2.2,2.2C211,34.9,210,33.9,210,32.7C210,32.7,210,32.7,210,32.7L210,32.7z
	 M107,21.3c0-1.2,1-2.2,2.2-2.2s2.2,1,2.2,2.2c0,1.2-1,2.2-2.2,2.2c0,0,0,0,0,0C108,23.5,107,22.5,107,21.3L107,21.3z M65,18.3
	c0-1.2,1-2.2,2.2-2.2c1.2,0,2.2,1,2.2,2.2c0,1.2-1,2.2-2.2,2.2C65.9,20.5,65,19.5,65,18.3C65,18.3,65,18.3,65,18.3L65,18.3z
	 M137.8,244.9c0-1.2,1-2.2,2.2-2.2s2.2,1,2.2,2.2c0,1.2-1,2.2-2.2,2.2c0,0,0,0,0,0C138.8,247.1,137.8,246.1,137.8,244.9z M232,237.9
	c0-1.2,1-2.2,2.2-2.2c1.2,0,2.2,1,2.2,2.2c0,1.2-1,2.2-2.2,2.2C233,240.1,232,239.1,232,237.9C232,237.9,232,237.9,232,237.9z
	 M332.1,229.9c0-1.2,1-2.2,2.2-2.2c1.2,0,2.2,1,2.2,2.2c0,1.2-1,2.2-2.2,2.2C333,232.1,332.1,231.1,332.1,229.9
	C332.1,229.9,332.1,229.9,332.1,229.9L332.1,229.9z M301.7,235.9c0-1.2,1-2.2,2.2-2.2s2.2,1,2.2,2.2s-1,2.2-2.2,2.2c0,0,0,0,0,0
	C302.7,238.1,301.7,237.1,301.7,235.9L301.7,235.9z M210.7,97.6c0-1.2,1-2.2,2.2-2.2s2.2,1,2.2,2.2s-1,2.2-2.2,2.2c0,0,0,0,0,0
	C211.7,99.8,210.7,98.8,210.7,97.6L210.7,97.6z M253.9,80.6c0-1.2,1-2.2,2.2-2.2c1.2,0,2.2,1,2.2,2.2c0,1.2-1,2.2-2.2,2.2
	C254.9,82.8,253.9,81.8,253.9,80.6C253.9,80.6,253.9,80.6,253.9,80.6L253.9,80.6z M286.7,43c0-1.2,1-2.2,2.2-2.2
	c1.2,0,2.2,1,2.2,2.2c0,1.2-1,2.2-2.2,2.2C287.7,45.2,286.7,44.2,286.7,43C286.7,43,286.7,43,286.7,43L286.7,43z M298.7,76.4
	c0-1.2,1-2.2,2.2-2.2c1.2,0,2.2,1,2.2,2.2c0,1.2-1,2.2-2.2,2.2C299.7,78.6,298.7,77.6,298.7,76.4C298.7,76.4,298.7,76.4,298.7,76.4
	L298.7,76.4z M113.2,111.7c0-1.2,1-2.2,2.2-2.2s2.2,1,2.2,2.2c0,1.2-1,2.2-2.2,2.2c0,0,0,0,0,0C114.1,113.8,113.2,112.9,113.2,111.7
	z M94.1,62.7c0-1.2,1-2.2,2.2-2.2s2.2,1,2.2,2.2c0,1.2-1,2.2-2.2,2.2c0,0,0,0,0,0C95.1,64.9,94.1,63.9,94.1,62.7L94.1,62.7z
	 M104.3,234.4c0-1.2,1-2.2,2.2-2.2s2.2,1,2.2,2.2c0,1.2-1,2.2-2.2,2.2C105.3,236.6,104.3,235.6,104.3,234.4
	C104.3,234.4,104.3,234.4,104.3,234.4z M194,244.9c0-1.2,1-2.2,2.2-2.2s2.2,1,2.2,2.2s-1,2.2-2.2,2.2c0,0,0,0,0,0
	C195,247.1,194,246.1,194,244.9z M36.3,229.2c0-2.5,2-4.5,4.5-4.5c2.5,0,4.5,2,4.5,4.5c0,2.5-2,4.5-4.5,4.5
	C38.3,233.7,36.3,231.6,36.3,229.2z M115.8,156.8c0-2.5,2-4.5,4.5-4.5c2.5,0,4.5,2,4.5,4.5c0,2.5-2,4.5-4.5,4.5
	C117.8,161.3,115.8,159.2,115.8,156.8L115.8,156.8z M147.8,54.1c0-2.5,2-4.5,4.5-4.5s4.5,2,4.5,4.5c0,2.5-2,4.5-4.5,4.5
	C149.8,58.6,147.8,56.5,147.8,54.1L147.8,54.1z M196.4,151.3c0-2.5,2-4.5,4.5-4.5s4.5,2,4.5,4.5c0,2.5-2,4.5-4.5,4.5
	C198.4,155.8,196.4,153.7,196.4,151.3L196.4,151.3z M211.9,63.1c0-2.5,2-4.5,4.5-4.5s4.5,2,4.5,4.5c0,2.5-2,4.5-4.5,4.5
	C213.9,67.6,211.9,65.6,211.9,63.1L211.9,63.1z M345.7,64.1 M310.4,153c0,1.2-1,2.2-2.2,2.2s-2.2-1-2.2-2.2s1-2.2,2.2-2.2
	c0,0,0,0,0,0C309.4,150.8,310.4,151.8,310.4,153z M329.4,201.9c0,1.2-1,2.2-2.2,2.2c-1.2,0-2.2-1-2.2-2.2c0-1.2,1-2.2,2.2-2.2
	C328.4,199.8,329.4,200.7,329.4,201.9C329.4,201.9,329.4,201.9,329.4,201.9L329.4,201.9z M319.2,30.3c0,1.2-1,2.2-2.2,2.2
	c-1.2,0-2.2-1-2.2-2.2c0-1.2,1-2.2,2.2-2.2C318.3,28.1,319.2,29,319.2,30.3C319.2,30.2,319.2,30.2,319.2,30.3L319.2,30.3z
	 M307.7,107.9c0,2.5-2,4.5-4.5,4.5s-4.5-2-4.5-4.5c0-2.5,2-4.5,4.5-4.5C305.7,103.4,307.7,105.4,307.7,107.9z M250.4,205.4
	c0-2.5,2-4.5,4.5-4.5s4.5,2,4.5,4.5c0,2.5-2,4.5-4.5,4.5C252.4,209.9,250.4,207.9,250.4,205.4C250.4,205.4,250.4,205.4,250.4,205.4
	L250.4,205.4z"/>
<g>
	<g>
		<defs>
			<rect id="SVGID_10_" y="2" width="340" height="488.9"/>
		</defs>
		<clipPath id="SVGID_1_">
			<use xlink:href="#SVGID_10_"  style="overflow:visible;"/>
		</clipPath>
		<g class="st2">
			<path class="st3" d="M308,188.6l0.3,6.5c0,0-0.2,1.9,4.1,2.2c4,0.2,4-2.8,4-2.8l-0.3-9.9L308,188.6z"/>
			<path class="st4" d="M314.7,154.2c7.8,1.8,7.6,7.1,7.6,7.1s-0.2,4.1-0.4,9c0.7-1,1.9-1.4,3.2-0.9c2.6,1.1,0.7,9.5-3.3,8.7
				c-0.2,2.3-0.4,4.1-0.7,4.8c-1.1,2.4-6.1,6-10.5,6.5c-4.4,0.6-9.9-2.4-9.9-7.6s-0.1-24.4-0.1-24.4S301.8,151.3,314.7,154.2z"/>
			<ellipse class="st5" cx="313.4" cy="170" rx="1.1" ry="2"/>
			<ellipse class="st5" cx="303.9" cy="170.4" rx="1.1" ry="2"/>
			<g>
				<path class="st6" d="M310.4,165.5c0.1-0.9,0.6-1.4,1.2-1.9c0.6-0.4,1.3-0.7,2.1-0.7c0.8,0,1.7,0.3,2.3,0.9
					c0.6,0.6,0.8,1.4,0.6,2.2c-0.9-0.1-1.4-0.2-1.8-0.1c-0.4,0-0.7,0.1-1.1,0.1c-0.4,0-0.8,0-1.3-0.1
					C311.8,165.8,311.2,165.7,310.4,165.5z"/>
			</g>
			<g>
				<path class="st6" d="M305.8,165.3c-0.8,0.2-1.3,0.3-1.7,0.4c-0.4,0.1-0.7,0.2-0.9,0.2c-0.2,0-0.3-0.1-0.7-0.1s-0.8,0.1-1.6,0.2
					c-0.3-0.7-0.3-1.4,0.1-2.1c0.4-0.6,1.2-1.1,2-1.2c0.8-0.1,1.5,0.2,2,0.6C305.4,163.9,305.8,164.5,305.8,165.3z"/>
			</g>
			<path class="st7" d="M324.7,170.9c-1.4-0.7-2.6,1.5-2.7,3.9c1.1-0.2,1.3,1.1,0.7,2.1C325,177.4,326.2,171.7,324.7,170.9z"/>
			<g>
				<path class="st8" d="M307.4,167.8l-0.7,4.1c-0.2,1.4-0.5,2.7-0.8,4.1l-0.2-0.3c0.8,0.5,1.6,1,2.4,1.5c-0.9-0.3-1.8-0.6-2.6-1
					l-0.2-0.1v-0.2c0.1-1.4,0.3-2.8,0.6-4.1C306.4,170.4,306.8,169,307.4,167.8z"/>
			</g>
			<g>
				<path class="st8" d="M313.5,180.4c-1.4,1-3,1.5-4.6,1.8c-0.8,0.1-1.7,0.1-2.5,0c-0.8-0.1-1.6-0.4-2.4-0.8c1.6,0.3,3.2,0.3,4.8,0
					C310.4,181.2,311.9,180.8,313.5,180.4z"/>
			</g>
			<path class="st6" d="M316.2,178.7c-0.2-0.8-0.7-1.6-2-1.6c-2.4-0.1-6.7,0.4-6.7,0.4s0.1,2.3,2,2.2c1.1-0.1,2.9-0.2,4.4-0.2
				c0.4,0.2,1.1,1.1,0.2,4.7c-0.5,2-3.7,2.3-4.4,0.9c-0.5-1-0.4-1.6-0.4-1.6l-1.9,0.1c0,0,0.3,2.3-1,2.4c-1.4,0.1-4.5-0.6-4.2-4.5
				c0.1-1.1,0.8-1.6,1.3-1.7c0.6,0,1.2,0,1.8-0.1c1.9-0.1,1.7-2.4,1.7-2.4s-2.2-0.2-4.6,0.1c-1.4,0.2-1.8,1.2-1.9,2
				c-0.3,1.9-1.2,9.5,6,10.4C314.5,190.9,319,186.8,316.2,178.7z"/>
			<path class="st6" d="M322.6,156.6c0-1.7-0.7-3.5-2.7-4.8c-5.3-3.4-8.1-1.5-13.2-0.6c-5.1,0.9-3.6-4-3.6-4
				c-3.8,2.3-0.4,6.8-0.4,6.8c-2.8-0.8-3-4.7-3-4.7c-1.9,5.3,1.3,6.8,0.6,7c-0.8,0.2-2.3-1.9-2.3-1.9c1.8,9.5,17.3,6.6,19.3,6.2l0,0
				c0.1,0,0.2-0.1,0.3-0.1c0.3,2.8,2.6,4.8,2.6,4.8v5.1l0,0c0,0.1,0,0.2,0,0.3v1.8c0.5,0,1-0.1,1.5-0.1l0.2-1.7c0,0,0.7-1.4,1.7-1.6
				c1.1-2.8,1.9-5.1,1.9-7.3C325.4,157.8,323.6,156.8,322.6,156.6z"/>
		</g>
		<path class="st9" d="M332.6,200.1c0,0,6.9,113.8,8.7,122.4c5.5,25.2-6.6,44.7-8.7,27.5c-2.2-17.2-9.8-28.3-17-22.9
			c-7.2,5.4-19.9,14.9-22.5-0.8c-2.6-15.7,3-130,3-130L332.6,200.1z"/>
		<g class="st2">
			<path class="st10" d="M298.9,294.3c-10.3-6.5,14.1-20.6,14.1-20.6s5.6,48.1,4.6,65.1h3.3c0,0,5.3-10.6,7.7-26.9
				c0.7-4.9-2.2-12.4-1.6-17.7c1.7-15.2,3.6-30.8,1.6-40.2l-2.3-4.1l-27.7,6.2c0,0-13.7,21.6-14.3,33.4c-0.1,2,17.2,27.8,19.4,33
				l1.8-1.6C305.4,321.1,309.9,301.2,298.9,294.3z"/>
			<path class="st11" d="M303.6,322.7c0,0-2.3,10,0.2,9.6c2.5-0.4,1.9-11.9,1.9-11.9L303.6,322.7z"/>
			<path class="st11" d="M317.6,338.8c0,0,2.6,5.1,4.1,4.9s-0.8-4.9-0.8-4.9H317.6z"/>
			<g>
				<path class="st12" d="M320.8,338.8c0,0,0-0.3,0.1-0.8s0.1-1.4,0.3-2.4c0.1-0.5,0.1-1.1,0.2-1.7c0.1-0.6,0.1-1.3,0.2-2.1
					c0.1-1.5,0.3-3.1,0.4-5c0.1-0.9,0.1-1.9,0.2-2.9c0-0.5,0.1-1,0.1-1.6c0-0.5,0.1-1.1,0.1-1.6s0.1-1.1,0.1-1.7c0-0.3,0-0.6,0-0.9
					c0-0.3,0-0.6,0-0.9c0-1.2,0.1-2.4,0.1-3.6c0.1-4.9,0.2-10.3,0.1-16s-0.3-11.1-0.6-16c-0.1-2.5-0.2-4.8-0.4-7
					c-0.1-2.2-0.2-4.2-0.3-6.1c-0.2-3.7-0.4-6.7-0.5-8.8c-0.1-1-0.1-1.8-0.1-2.4c0-0.5,0-0.8,0-0.8s0.1,0.3,0.1,0.8
					c0.1,0.5,0.1,1.4,0.2,2.4c0.2,2.1,0.4,5.1,0.7,8.8c0.1,1.9,0.3,3.9,0.4,6.1c0.1,2.2,0.3,4.5,0.4,7c0.3,4.9,0.5,10.3,0.6,16
					c0.1,5.7,0.1,11.1-0.1,16c-0.1,1.2-0.1,2.4-0.2,3.6c0,0.3,0,0.6,0,0.9c0,0.3,0,0.6-0.1,0.9c0,0.6-0.1,1.1-0.1,1.7
					c0,0.5-0.1,1.1-0.1,1.6s-0.1,1-0.1,1.6c-0.1,1-0.2,2-0.3,2.9c-0.1,1.9-0.4,3.5-0.5,5c-0.1,0.7-0.2,1.4-0.2,2
					c-0.1,0.6-0.2,1.2-0.3,1.7c-0.2,1-0.3,1.8-0.4,2.4C320.9,338.5,320.8,338.8,320.8,338.8z"/>
			</g>
			<g>
				<path class="st12" d="M305.9,257.1c0,0-0.1,0.2-0.4,0.6c-0.3,0.4-0.6,1-1.1,1.8c-1,1.5-2.5,3.8-4.4,6.4c-0.9,1.3-2,2.8-3.1,4.4
					c-0.5,0.8-1.1,1.6-1.7,2.5c-0.6,0.9-1.1,1.8-1.6,2.7c-0.3,0.5-0.5,1-0.7,1.5c-0.1,0.2-0.2,0.5-0.3,0.8c-0.1,0.3-0.2,0.5-0.3,0.8
					c-0.2,0.5-0.4,1.1-0.6,1.6c0,0.1-0.1,0.3-0.1,0.4l-0.1,0.2l-0.1,0.2c-0.1,0.3-0.2,0.6-0.3,0.8c0,0.1-0.1,0.3-0.1,0.4
					c0,0.1-0.1,0.3-0.1,0.4c-0.1,0.3-0.2,0.6-0.2,0.9c-0.1,0.3-0.1,0.6-0.2,0.9c0,0.3-0.1,0.6-0.1,0.9c-0.2,1.2-0.3,2.4-0.2,3.7
					c0,2.5,0.6,4.9,1.3,7.1c0.4,1.1,0.9,2.2,1.4,3.2s1,2,1.6,2.9c0.5,0.9,1.1,1.8,1.6,2.7s1.1,1.7,1.6,2.6c0.5,0.8,0.9,1.7,1.3,2.5
					s0.7,1.6,1.1,2.4c0.6,1.5,1.2,2.9,1.7,4.1c0.5,1.2,1,2.2,1.4,3.1c0.2,0.4,0.4,0.8,0.5,1.1c0.2,0.3,0.3,0.6,0.4,0.8
					c0.2,0.4,0.3,0.7,0.3,0.7s-0.2-0.2-0.4-0.6c-0.1-0.2-0.3-0.5-0.5-0.8c-0.2-0.3-0.4-0.7-0.6-1.1c-0.4-0.8-0.9-1.8-1.5-3
					c-0.5-1.2-1.1-2.6-1.8-4.1c-0.3-0.7-0.7-1.5-1.1-2.3s-0.8-1.6-1.3-2.5c-0.5-0.8-1-1.7-1.6-2.5c-0.5-0.9-1.1-1.8-1.7-2.7
					c-0.5-0.9-1.1-1.9-1.6-3c-0.5-1-1-2.1-1.4-3.2c-0.4-1.1-0.8-2.3-1-3.5c0-0.2-0.1-0.3-0.1-0.5v-0.2V292c0-0.3-0.1-0.6-0.1-0.9
					c0-0.2,0-0.3,0-0.5s0-0.3,0-0.5s0-0.3,0-0.5s0-0.3,0-0.5c0-1.3,0.1-2.5,0.2-3.8c0-0.3,0.1-0.6,0.1-0.9c0.1-0.3,0.1-0.6,0.2-0.9
					c0.1-0.3,0.1-0.6,0.2-0.9c0-0.1,0.1-0.3,0.1-0.4c0-0.1,0.1-0.3,0.1-0.4c0.1-0.3,0.2-0.6,0.3-0.9l0.1-0.2l0.1-0.2
					c0-0.1,0.1-0.3,0.1-0.4c0.2-0.6,0.4-1.1,0.6-1.6c0.1-0.3,0.2-0.5,0.3-0.8s0.2-0.5,0.4-0.8c0.3-0.5,0.5-1,0.8-1.5
					c0.5-1,1.1-1.9,1.7-2.7c0.6-0.9,1.1-1.7,1.7-2.5c1.1-1.6,2.2-3,3.1-4.4c1.9-2.6,3.5-4.8,4.6-6.3c0.5-0.8,0.9-1.3,1.2-1.7
					C305.8,257.3,305.9,257.1,305.9,257.1z"/>
			</g>
		</g>
		<path class="st13" d="M337.3,264.8c0,0-1.1,1.3-0.9,1.7c0.2,0.4,1.5,2.2,0.3,3.7c-1.2,1.6-1.5,1.9-1.8,1.3c0,0-0.7,1.2-1.3,0.2
			c0,0-2,1.2-2-0.2c0-1.3,0.2-2-0.1-1.8c0,0-0.5,1.7-1.3,1.5c-0.5-0.1-0.3-1.1-0.1-2c0.1-0.6,0.3-1,0.3-1s-0.9,1.1-0.8-0.1
			c0.1-1.1,0.7-3.7,2.7-3.7c0,0,0.8-0.1,1.2-0.9C333.9,262.9,337.3,264.8,337.3,264.8z"/>
		<path class="st13" d="M285.9,148c0,0,1.2-1.2,1-1.6c-0.2-0.5-1.3-2.3,0.1-3.7c1.4-1.4,1.7-1.7,2-1.1c0,0,0.8-1.2,1.3-0.1
			c0,0,2.1-1,2,0.4c-0.1,1.3-0.4,1.9-0.1,1.8c0,0,0.6-1.7,1.4-1.4c0.5,0.2,0.2,1.2-0.1,2c-0.2,0.6-0.4,1-0.4,1s1-1,0.8,0.2
			c-0.2,1.1-1.1,3.6-3.1,3.4c0,0-0.8,0-1.3,0.8C289.1,150.2,285.9,148,285.9,148z"/>
		<path class="st14" d="M294.7,195.7c0,0-0.1,18.8,1.8,35.2c1.8,16.4,2,25.4,2,25.4l30.5-3.9c0,0-6.3-10.9-3.3-17.7
			c3.1-6.8,10.6-32.4,10.6-32.4s-8.3-8.3-19-8.3c-0.7,0-3.6,3.6-4.4,3.7c-2.1,0.2-2-3.1-3.8-2.9
			C299.7,195.6,294.7,195.7,294.7,195.7z"/>
		<polygon class="st15" points="305.2,194.7 305.4,192.2 311.9,195.3 311.6,198.9 		"/>
		<polygon class="st16" points="311.9,195.3 312.9,197.7 311.7,198 		"/>
		<polygon class="st16" points="312.9,197.7 313.8,195.3 314.6,198.2 		"/>
		<path class="st15" d="M319.8,192.4c0,0.1-6,2.9-6,2.9l0.9,3.4l6.2-3.8L319.8,192.4z"/>
		<polygon class="st17" points="311.7,196.9 314.1,196.8 314.6,198.2 311.7,198.4 		"/>
		<polygon class="st18" points="312.3,196.8 312.3,198.8 313.8,198.9 313.8,196.8 		"/>
		<g class="st2">
			<path class="st19" d="M333.5,200.2c0,0-0.1,0-0.2,0.1c-0.1,0-0.3,0.1-0.5,0.2c-0.2,0.1-0.4,0.4-0.6,0.7c-0.2,0.3-0.4,0.7-0.5,1.1
				c-0.3,0.9-0.6,2-0.8,3.3c-0.2,1.2-0.4,2.6-0.6,4.1c-0.1,1.5-0.1,2.9-0.1,4.1c0.1,1.3,0.2,2.4,0.3,3.4c0.3,1.9,0.6,3.1,0.5,3.1
				s-0.5-1.1-0.9-3c-0.2-1-0.4-2.1-0.5-3.4s-0.1-2.7,0-4.2s0.3-2.9,0.6-4.2c0.1-0.3,0.1-0.6,0.2-0.9c0.1-0.3,0.2-0.6,0.2-0.9
				c0.1-0.3,0.2-0.5,0.3-0.8c0.1-0.3,0.2-0.5,0.3-0.7c0.2-0.5,0.4-0.9,0.6-1.2c0.2-0.3,0.5-0.6,0.8-0.7c0.3-0.1,0.5-0.2,0.6-0.2
				C333.4,200.2,333.5,200.2,333.5,200.2z"/>
		</g>
		<g class="st2">
			<path class="st19" d="M311.3,255.2c0,0-0.2-0.5-0.5-1.5c-0.1-0.2-0.1-0.5-0.2-0.8s-0.1-0.6-0.2-1c-0.2-0.7-0.3-1.5-0.5-2.4
				c-0.1-0.4-0.2-0.9-0.3-1.4s-0.2-1-0.2-1.5c-0.1-0.5-0.2-1.1-0.2-1.6c-0.1-0.6-0.1-1.1-0.2-1.7c-0.3-2.4-0.5-5-0.6-7.7
				c-0.1-2.7-0.1-5.3,0-7.7c0-0.6,0.1-1.2,0.1-1.7c0-0.6,0.1-1.1,0.1-1.6s0.1-1,0.1-1.5c0.1-0.5,0.1-1,0.2-1.4
				c0.1-0.9,0.2-1.7,0.3-2.4c0.1-0.4,0.1-0.7,0.1-1c0.1-0.3,0.1-0.6,0.1-0.8c0.2-1,0.3-1.5,0.3-1.5s0,0.6-0.1,1.6
				c0,0.2-0.1,0.5-0.1,0.8c0,0.3-0.1,0.6-0.1,1c-0.1,0.7-0.2,1.5-0.2,2.4c0,0.4-0.1,0.9-0.1,1.4s-0.1,1-0.1,1.5s-0.1,1.1-0.1,1.6
				c0,0.6,0,1.1-0.1,1.7c-0.1,2.4-0.1,5,0,7.7c0.1,2.7,0.3,5.3,0.6,7.6c0.1,0.6,0.1,1.2,0.2,1.7c0.1,0.6,0.1,1.1,0.2,1.6
				c0.1,0.5,0.1,1,0.2,1.5s0.1,0.9,0.2,1.4c0.1,0.9,0.3,1.7,0.4,2.4c0.1,0.3,0.1,0.7,0.2,1c0.1,0.3,0.1,0.6,0.2,0.8
				C311.3,254.6,311.3,255.2,311.3,255.2z"/>
		</g>
		<path class="st18" d="M312.3,198.8c0,0-9,28.8-5.8,40.1l2.9,3.6l3.9-3.6c0,0-3.2-11-1.9-23c1.3-12,2.4-16.9,2.4-16.9L312.3,198.8z
			"/>
		<g class="st2">
			<path class="st19" d="M325,236.9c0,0.1-0.3,0.3-0.9,0.6c-0.1,0-0.2,0.1-0.2,0.1c-0.1,0-0.2,0.1-0.3,0.1c-0.2,0.1-0.4,0.1-0.6,0.2
				c-0.4,0.1-0.9,0.2-1.4,0.3c-0.5,0-1,0-1.5,0c-0.2,0-0.4,0-0.6-0.1c-0.1,0-0.2,0-0.3-0.1c-0.1,0-0.2,0-0.3-0.1
				c-0.6-0.2-1-0.4-1-0.5c0-0.1,0.4,0,1.1,0c0.1,0,0.2,0,0.2,0c0.1,0,0.2,0,0.3,0c0.2,0,0.4,0,0.6,0c0.4,0,0.9,0,1.4-0.1
				c0.5,0,0.9-0.1,1.3-0.2c0.2,0,0.4-0.1,0.6-0.1c0.1,0,0.2,0,0.3-0.1c0.1,0,0.2,0,0.2-0.1C324.6,237,325,236.8,325,236.9z"/>
		</g>
		<g class="st2">
			
				<ellipse transform="matrix(0.9503 -0.3114 0.3114 0.9503 -58.4709 112.1965)" class="st19" cx="322.1" cy="239.2" rx="2" ry="0.3"/>
		</g>
		<polygon class="st15" points="318,214.3 318,219.6 321.5,221.8 324,218.9 324,214.3 		"/>
		<g class="st2">
			<g>
				<polygon class="st20" points="308.8,255 309.4,257.4 314.9,256.4 314.4,254.2 				"/>
				<path class="st21" d="M313,254.4c0,0.1-1.4,2.6-1.4,2.6l-0.9,0.2l1.1-2.6L313,254.4z"/>
			</g>
			<polygon class="st22" points="314.8,256 320.8,255.1 320.5,253.4 314.4,254.3 			"/>
			<polygon class="st22" points="322.7,253.2 322.9,254.8 328.6,254 328.3,252.4 			"/>
			<polygon class="st22" points="309.2,256.7 304.3,257.4 303.9,255.6 308.8,255 			"/>
			<polygon class="st22" points="301.8,256 302.1,257.6 298.5,258 298.5,256.3 			"/>
		</g>
		<path class="st14" d="M296.8,214.3c0.6-5.5,6.2-16.1-2.1-18.6c-28.7-8.7-5-45.6-5-45.6l-3.8-2.6c0,0-31.2,32-6.2,57.2
			C290.6,215.7,296.8,214.3,296.8,214.3z"/>
		<path class="st14" d="M328.6,199.7c-0.6,5.5-8.6,15.3-0.3,17.8c28.7,8.7,5,45.7,5,45.7l3.8,2.6c0,0,31.2-32.1,6.2-57.3
			C332.4,197.5,328.6,199.7,328.6,199.7z"/>
		<path class="st9" d="M302.9,195.3c0,0,6.6,3.7,8.8,3.7c2.2,0-6.4-5-6.4-5S303,192.9,302.9,195.3z"/>
		<path class="st9" d="M311.6,198.9c0,0,7.3-5,8.8-5.2s2.7,0.4,2.5,0.9C322.7,195.2,308.8,201.7,311.6,198.9z"/>
		<g class="st2">
			<path class="st23" d="M311.7,198.6c0,0,0.3-0.2,0.9-0.2c0.3,0,0.7,0,1.1,0.1c0.4,0.1,0.9,0.3,1.4,0.6c0.2,0.1,0.5,0.3,0.7,0.5
				c0.1,0.1,0.1,0.1,0.2,0.2c0.1,0.1,0.1,0.1,0.2,0.2l0.1,0.1l0.1,0.1c0.1,0.1,0.1,0.1,0.2,0.2c0.1,0.2,0.2,0.3,0.2,0.6
				c0,0.2,0,0.5-0.1,0.7c-0.1,0.2-0.3,0.4-0.6,0.5c-0.2,0.1-0.5,0.1-0.7,0.1c-0.5-0.1-0.8-0.3-1.2-0.5c-0.3-0.2-0.6-0.4-1-0.6
				c-0.3-0.2-0.7-0.5-0.9-0.8c-0.3-0.3-0.6-0.7-0.7-1.2l0.9-0.2c0,0.3,0,0.7-0.1,1c-0.2,0.5-0.6,0.9-1,1.2c-0.2,0.1-0.4,0.3-0.6,0.4
				c-0.2,0.1-0.4,0.2-0.7,0.2c-0.4,0.1-0.9,0.1-1.3,0.1c-0.2,0-0.4,0-0.6,0c-0.2,0-0.4,0-0.6-0.1c-0.1,0-0.2-0.1-0.4-0.1
				c-0.1-0.1-0.2-0.2-0.3-0.3c-0.2-0.2-0.3-0.6-0.2-0.8c0.1-0.3,0.2-0.5,0.3-0.6c0.1-0.2,0.3-0.3,0.4-0.4c0.6-0.4,1.2-0.7,1.8-0.9
				s1.1-0.2,1.6-0.2s0.9,0.1,1.2,0.2c0.6,0.2,0.9,0.4,0.9,0.5s-0.4-0.1-1-0.2c-0.3,0-0.7-0.1-1.1,0c-0.4,0-0.9,0.1-1.4,0.3
				c-0.5,0.2-1,0.5-1.5,0.9c-0.1,0.1-0.2,0.2-0.3,0.3c-0.1,0.1-0.1,0.2-0.1,0.3v0.1v0.1c0,0,0.1,0.1,0.3,0.1c0.1,0,0.3,0,0.5,0
				c0.2,0,0.4,0,0.6,0c0.4,0,0.8,0,1.1-0.1c0.2,0,0.4-0.1,0.5-0.2c0.2-0.1,0.3-0.2,0.5-0.3c0.3-0.2,0.5-0.5,0.6-0.8
				c0.1-0.2,0.1-0.4,0.1-0.6l0,0c0-0.2,0.2-0.5,0.4-0.5s0.4,0.1,0.5,0.3c0.3,0.7,0.8,1.2,1.4,1.6c0.3,0.2,0.6,0.4,0.9,0.6
				c0.3,0.2,0.6,0.4,0.8,0.4c0.5,0,0.7-0.2,0.4-0.7c0-0.1-0.1-0.1-0.1-0.2c0,0,0-0.1-0.1-0.1l-0.1-0.1c0-0.1-0.1-0.1-0.1-0.2
				l-0.1-0.1c-0.2-0.2-0.4-0.4-0.6-0.5c-0.4-0.3-0.8-0.5-1.2-0.6c-0.4-0.1-0.7-0.2-1-0.2C312.1,198.7,311.7,198.7,311.7,198.6z"/>
		</g>
	</g>
</g>
<g>
	<g>
		<defs>
			<rect id="SVGID_12_" width="340" height="488.9"/>
		</defs>
		<clipPath id="SVGID_2_">
			<use xlink:href="#SVGID_12_"  style="overflow:visible;"/>
		</clipPath>
		<g class="st24">
			<path class="st25" d="M599.4,493.1L376.6,270.3c-8.3-8.3-21.8-8.3-30,0L123.8,493.1H599.4"/>
			<path class="st26" d="M376.6,270.3c-8.3-8.3-21.8-8.3-30,0l-81.2,81.2c12,6.5,27,4.3,36.6-5.6l8.7-8.9c2.5-2.6,6-3.9,9.6-3.6l0,0
				c6.8,0.6,11.8,6.7,11,13.5l0,0c-0.8,6.7,4.4,12.5,11.1,12.5h1.4c6.3,0,11.5-4.7,12.3-10.9l3.1-25.8c0.6-4.7,4.2-8.4,8.8-9
				c4.7-0.7,9.2,1.9,11.1,6.3l3.4,8.2c2.2,5.2,8.5,7.3,13.3,4.2c3.1-2,4.8-5.7,4.1-9.3l-2.5-10.2c-0.6-2.5,0.8-5.1,3.3-5.9
				c1.9-0.6,3.9,0,5.2,1.5l25.8,30.9c6.2,7.4,15.4,11.1,24.6,10.5L376.6,270.3z"/>
			
				<linearGradient id="SVGID_3_" gradientUnits="userSpaceOnUse" x1="354.4926" y1="-47.4341" x2="401.3787" y2="231.5371" gradientTransform="matrix(1 0 0 -1 0 488)">
				<stop  offset="0" style="stop-color:#2E5776"/>
				<stop  offset="1" style="stop-color:#2E5776;stop-opacity:0"/>
			</linearGradient>
			<path class="st27" d="M568,461.7c-305.5,28.8-221.4-191.4-221.4-191.4L123.8,493.1h475.6"/>
		</g>
		<g class="st24">
			<path class="st25" d="M185.9,510h274.2L331.7,381.6c-4.7-4.7-12.5-4.7-17.3,0L185.9,510"/>
			<path class="st26" d="M264.5,431.4l1.8,1c5.5,3.1,12.3,2.2,16.8-2.2l15.6-15.5c1.5-1.5,3.8-2,5.8-1.3c2.8,1,4.4,4.1,3.4,7
				l-4.1,12.5c-1.1,3.4,1.2,7,4.7,7.4l0,0c2.4,0.3,4.7-1,5.7-3.1l6.4-12.5c1.2-2.4,3.8-3.8,6.4-3.5c2.8,0.3,5.1,2.4,5.6,5.2l0.7,4.1
				c0.6,3.1,3.6,5.3,6.7,4.8l0,0c3.2-0.4,5.5-3.3,5.2-6.5l-0.6-6.3c-0.2-2.4,1.4-4.7,3.8-5.3c2.2-0.5,4.5,0.4,5.6,2.4l6.7,12.3
				c1,1.7,3,2.4,4.8,1.6c1.7-0.8,2.5-2.8,1.9-4.6l-2-5.2c-1-2.4-0.4-5.1,1.2-7l-35.1-35.1c-4.7-4.7-12.5-4.7-17.3,0L264.5,431.4z"/>
			
				<linearGradient id="SVGID_4_" gradientUnits="userSpaceOnUse" x1="318.0731" y1="-47.2182" x2="345.2812" y2="114.6701" gradientTransform="matrix(1 0 0 -1 0 488)">
				<stop  offset="0" style="stop-color:#2E5776"/>
				<stop  offset="1" style="stop-color:#2E5776;stop-opacity:0"/>
			</linearGradient>
			<path class="st28" d="M184.4,510.7l275.7-0.7L442,491.9c-176.1,16.6-127.6-110.4-127.6-110.4L184.4,510.7"/>
		</g>
		<g class="st24">
			<g>
				<g>
					<path class="st25" d="M381.5,527.3L268.4,414.1c-4.2-4.2-11-4.2-15.2,0L139.9,527.3H381.5z"/>
				</g>
			</g>
			<path class="st26" d="M221.9,457.8l9.2-8.1c1.7-1.5,4.1-1.7,6-0.5c1.9,1.2,2.8,3.5,2.2,5.6l-0.8,2.8c-0.8,2.9,1.1,5.9,4,6.4
				c2.8,0.5,5.4-1.2,6-3.9l2.9-12.5c0.4-1.6,1.8-2.8,3.4-2.8c1.8-0.1,3.4,1.2,3.7,3l3.9,22c0.4,2.1,2.4,3.6,4.5,3.5l0,0
				c2.3-0.2,4.1-2.3,3.8-4.6l-1.5-14.3c-0.2-1.7,0.9-3.2,2.5-3.6c1.7-0.4,3.4,0.4,4,2l2.6,6.4c0.9,2.2,3.3,3.3,5.5,2.5
				c2.4-0.9,3.6-3.6,2.6-5.9l-8.5-19.4c-0.5-1.2-0.1-2.8,1.2-3.4c1.1-0.6,2.4-0.4,3.3,0.5c2,2.1,4.8,2.9,7.6,2.4l-21.7-21.7
				c-4.2-4.2-11-4.2-15.2,0l-45.4,45.4C212.2,462,217.9,461.3,221.9,457.8z"/>
			
				<linearGradient id="SVGID_5_" gradientUnits="userSpaceOnUse" x1="258.1512" y1="-43.9327" x2="292.5719" y2="18.4549" gradientTransform="matrix(1 0 0 -1 0 488)">
				<stop  offset="0" style="stop-color:#2E5776"/>
				<stop  offset="1" style="stop-color:#2E5776;stop-opacity:0"/>
			</linearGradient>
			<path class="st29" d="M381.5,527.3l-15.9-15.9c-155.1,14.7-112.4-97.2-112.4-97.2L139.9,527.3H381.5z"/>
		</g>
	</g>
</g>
<g>
	<defs>
		<rect id="SVGID_17_" y="2" width="340" height="488.9"/>
	</defs>
	<clipPath id="SVGID_6_">
		<use xlink:href="#SVGID_17_"  style="overflow:visible;"/>
	</clipPath>
	<path class="st30" d="M359.9,68.6H244.6c-3.9,0-7.1,3.2-7.1,7.1c0,3.9-3.2,7.1-7.1,7.1l0,0h-28.2c-4.5,0-8.1,3.6-8.1,8.1
		s3.6,8.1,8.1,8.1h36c4.1,0.1,7.5,3.4,7.4,7.5c-0.1,4.1-3.3,7.3-7.4,7.4h-65.4c-2.9,0-5.3,2.4-5.3,5.3l0,0v0.6
		c0,2.9,2.3,5.3,5.3,5.3l0,0h119.6c2.9,0,5.3-2.4,5.3-5.3s-2.4-5.3-5.3-5.3h-18.6c-4.6,0-8.4-3.8-8.3-8.4l0,0c0-3.6,2.9-6.5,6.5-6.5
		h17.9c3.6,0,6.5-2.9,6.5-6.5c0-3.6,2.9-6.5,6.5-6.5h57c5,0,9.1-4.1,9.1-9.1S364.9,68.6,359.9,68.6"/>
</g>
</svg>
