<?xml version="1.0" encoding="utf-8"?>
<!-- Generator: Adobe Illustrator 21.1.0, SVG Export Plug-In . SVG Version: 6.00 Build 0)  -->
<svg version="1.1" id="Layer_1" xmlns="http://www.w3.org/2000/svg" xmlns:xlink="http://www.w3.org/1999/xlink" x="0px" y="0px"
	 viewBox="0 0 579.9 378" width="579.9" height="378" style="enable-background:new 0 0 579.9 378;" xml:space="preserve">
<style type="text/css">
	.st0{fill:#009EDE;}
	.st1{opacity:0.63;fill:#FFFFFF;enable-background:new    ;}
	.st2{opacity:0.25;fill:#FFFFFF;enable-background:new    ;}
	.st3{fill:#D2BAA4;}
	.st4{fill:#EBCCB1;}
	.st5{fill:#27272C;}
	.st6{fill:#7B6541;}
	.st7{opacity:0.4;fill:#A47563;enable-background:new    ;}
	.st8{fill:#C19283;}
	.st9{fill:#FF7415;}
	.st10{fill:#272E33;}
	.st11{fill:#3F2728;}
	.st12{fill:#171B1E;}
	.st13{fill:#FCCAB1;}
	.st14{fill:#F7F7F7;}
	.st15{fill:#EAEAEA;}
	.st16{fill:#CECECE;}
	.st17{fill:#0E81AA;}
	.st18{fill:#10A9EA;}
	.st19{fill:#D3D3D3;}
	.st20{opacity:0.44;fill:#F7F7F7;enable-background:new    ;}
	.st21{fill:#A38C7C;}
	.st22{clip-path:url(#SVGID_2_);}
	.st23{fill:#30C1FF;}
	.st24{fill:#FDFDFD;}
	.st25{opacity:0.4;fill:url(#SVGID_3_);enable-background:new    ;}
	.st26{opacity:0.4;fill:url(#SVGID_4_);enable-background:new    ;}
	.st27{opacity:0.56;fill:url(#SVGID_5_);enable-background:new    ;}
	.st28{opacity:0.23;fill:#FAFDFF;enable-background:new    ;}
</style>
<rect class="st0" width="579.9" height="378"/>
<path class="st1" d="M244.9,46.1c0,1.2-1,2.2-2.2,2.2s-2.2-1-2.2-2.2c0-1.2,1-2.2,2.2-2.2c0,0,0,0,0,0C244,44,244.9,44.9,244.9,46.1
	z M142.4,47.3c0,1.2-1,2.2-2.2,2.2c-1.2,0-2.2-1-2.2-2.2c0-1.2,1-2.2,2.2-2.2C141.4,45.1,142.4,46.1,142.4,47.3
	C142.4,47.3,142.4,47.3,142.4,47.3z M11.3,71.4c0,1.2-1,2.2-2.2,2.2S7,72.5,7,71.3c0-1.2,1-2.2,2.2-2.2
	C10.4,69.2,11.3,70.2,11.3,71.4C11.3,71.4,11.3,71.4,11.3,71.4L11.3,71.4z M16.7,10.7c0,1.2-1,2.2-2.2,2.2c-1.2,0-2.2-1-2.2-2.2
	c0-1.2,1-2.2,2.2-2.2C15.7,8.5,16.7,9.5,16.7,10.7C16.7,10.7,16.7,10.7,16.7,10.7L16.7,10.7z M107.7,149c0,1.2-1,2.2-2.2,2.2
	s-2.2-1-2.2-2.2c0-1.2,1-2.2,2.2-2.2C106.7,146.8,107.7,147.8,107.7,149C107.7,149,107.7,149,107.7,149L107.7,149z M64.5,166.1
	c0,1.2-1,2.2-2.2,2.2c-1.2,0-2.2-1-2.2-2.2s1-2.2,2.2-2.2c0,0,0,0,0,0C63.5,163.9,64.5,164.9,64.5,166.1L64.5,166.1z M31.7,203.6
	c0,1.2-1,2.2-2.2,2.2c-1.2,0-2.2-1-2.2-2.2s1-2.2,2.2-2.2c0,0,0,0,0,0C30.7,201.5,31.7,202.4,31.7,203.6L31.7,203.6z M19.7,170.2
	c0,1.2-1,2.2-2.2,2.2c-1.2,0-2.2-1-2.2-2.2s1-2.2,2.2-2.2c0,0,0,0,0,0C18.7,168.1,19.7,169,19.7,170.2L19.7,170.2z M205.2,135
	c0,1.2-1,2.2-2.2,2.2s-2.2-1-2.2-2.2c0-1.2,1-2.2,2.2-2.2C204.3,132.8,205.2,133.8,205.2,135C205.2,135,205.2,135,205.2,135
	L205.2,135z M224.3,183.9c0,1.2-1,2.2-2.2,2.2s-2.2-1-2.2-2.2c0-1.2,1-2.2,2.2-2.2C223.3,181.7,224.3,182.7,224.3,183.9L224.3,183.9
	z M214.1,12.2c0,1.2-1,2.2-2.2,2.2s-2.2-1-2.2-2.2c0-1.2,1-2.2,2.2-2.2c0,0,0,0,0,0C213.1,10.1,214.1,11,214.1,12.2L214.1,12.2z
	 M124.4,1.7c0,1.2-1,2.2-2.2,2.2c-1.2,0-2.2-1-2.2-2.2c0-1.2,1-2.2,2.2-2.2C123.4-0.5,124.4,0.5,124.4,1.7L124.4,1.7z M282.1,17.5
	c0,2.5-2,4.5-4.5,4.5c-2.5,0-4.5-2-4.5-4.5c0-2.5,2-4.5,4.5-4.5C280.1,13,282.1,15,282.1,17.5L282.1,17.5z M202.6,89.9
	c0,2.5-2,4.5-4.5,4.5s-4.5-2-4.5-4.5s2-4.5,4.5-4.5C200.6,85.4,202.6,87.4,202.6,89.9L202.6,89.9z M170.6,192.6c0,2.5-2,4.5-4.5,4.5
	c-2.5,0-4.5-2-4.5-4.5c0-2.5,2-4.5,4.5-4.5C168.5,188.1,170.6,190.1,170.6,192.6z M122,95.4c0,2.5-2,4.5-4.5,4.5s-4.5-2-4.5-4.5
	c0-2.5,2-4.5,4.5-4.5C120,90.9,122,92.9,122,95.4L122,95.4z M106.5,183.6c0,2.5-2,4.5-4.5,4.5s-4.5-2-4.5-4.5c0-2.5,2-4.5,4.5-4.5
	C104.5,179.1,106.5,181.1,106.5,183.6z M68,41.3c0,2.5-2,4.5-4.5,4.5s-4.5-2-4.5-4.5c0-2.5,2-4.5,4.5-4.5C66,36.8,68,38.8,68,41.3z
	 M308.5,167.4c0-1.2,1-2.2,2.2-2.2s2.2,1,2.2,2.2c0,1.2-1,2.2-2.2,2.2C309.4,169.6,308.5,168.6,308.5,167.4
	C308.5,167.4,308.5,167.4,308.5,167.4L308.5,167.4z M411,166.2c0-1.2,1-2.2,2.2-2.2c1.2,0,2.2,1,2.2,2.2c0,1.2-1,2.2-2.2,2.2
	C412,168.4,411,167.4,411,166.2C411,166.2,411,166.2,411,166.2L411,166.2z M542,142.2c0-1.2,1-2.2,2.2-2.2c1.2,0,2.2,1,2.2,2.2
	c0,1.2-1,2.2-2.2,2.2C543,144.4,542,143.4,542,142.2C542,142.2,542,142.2,542,142.2L542,142.2z M372.8,211.8c0-1.2,1-2.2,2.2-2.2
	s2.2,1,2.2,2.2c0,1.2-1,2.2-2.2,2.2c0,0,0,0,0,0C373.8,214,372.8,213,372.8,211.8z M467,204.8c0-1.2,1-2.2,2.2-2.2
	c1.2,0,2.2,1,2.2,2.2c0,1.2-1,2.2-2.2,2.2C468,207,467,206,467,204.8C467,204.8,467,204.8,467,204.8z M567.1,196.8
	c0-1.2,1-2.2,2.2-2.2c1.2,0,2.2,1,2.2,2.2c0,1.2-1,2.2-2.2,2.2C568,199,567.1,198,567.1,196.8C567.1,196.8,567.1,196.8,567.1,196.8
	L567.1,196.8z M120,210.8c0-1.2,1-2.2,2.2-2.2s2.2,1,2.2,2.2c0,1.2-1,2.2-2.2,2.2C121,213,120,212,120,210.8
	C120,210.8,120,210.8,120,210.8L120,210.8z M2,134.6c0-1.2,1-2.2,2.2-2.2s2.2,1,2.2,2.2c0,1.2-1,2.2-2.2,2.2
	C3,136.8,2,135.9,2,134.6C2,134.7,2,134.7,2,134.6z M536.7,202.8c0-1.2,1-2.2,2.2-2.2s2.2,1,2.2,2.2s-1,2.2-2.2,2.2c0,0,0,0,0,0
	C537.7,205,536.7,204,536.7,202.8L536.7,202.8z M445.7,64.5c0-1.2,1-2.2,2.2-2.2s2.2,1,2.2,2.2s-1,2.2-2.2,2.2c0,0,0,0,0,0
	C446.7,66.7,445.7,65.7,445.7,64.5L445.7,64.5z M488.9,47.5c0-1.2,1-2.2,2.2-2.2c1.2,0,2.2,1,2.2,2.2c0,1.2-1,2.2-2.2,2.2
	C489.8,49.7,488.9,48.7,488.9,47.5C488.9,47.5,488.9,47.5,488.9,47.5L488.9,47.5z M521.7,9.9c0-1.2,1-2.2,2.2-2.2
	c1.2,0,2.2,1,2.2,2.2c0,1.2-1,2.2-2.2,2.2C522.7,12.1,521.7,11.1,521.7,9.9C521.7,9.9,521.7,9.9,521.7,9.9L521.7,9.9z M533.7,43.3
	c0-1.2,1-2.2,2.2-2.2c1.2,0,2.2,1,2.2,2.2c0,1.2-1,2.2-2.2,2.2C534.7,45.5,533.7,44.5,533.7,43.3C533.7,43.3,533.7,43.3,533.7,43.3
	L533.7,43.3z M348.1,78.5c0-1.2,1-2.2,2.2-2.2s2.2,1,2.2,2.2c0,1.2-1,2.2-2.2,2.2c0,0,0,0,0,0C349.1,80.7,348.1,79.7,348.1,78.5z
	 M329.1,29.6c0-1.2,1-2.2,2.2-2.2s2.2,1,2.2,2.2c0,1.2-1,2.2-2.2,2.2c0,0,0,0,0,0C330.1,31.8,329.1,30.8,329.1,29.6L329.1,29.6z
	 M339.3,201.3c0-1.2,1-2.2,2.2-2.2s2.2,1,2.2,2.2c0,1.2-1,2.2-2.2,2.2C340.3,203.5,339.3,202.5,339.3,201.3
	C339.3,201.3,339.3,201.3,339.3,201.3z M429,211.8c0-1.2,1-2.2,2.2-2.2s2.2,1,2.2,2.2s-1,2.2-2.2,2.2c0,0,0,0,0,0
	C430,214,429,213,429,211.8z M271.3,196c0-2.5,2-4.5,4.5-4.5c2.5,0,4.5,2,4.5,4.5c0,2.5-2,4.5-4.5,4.5
	C273.3,200.5,271.3,198.5,271.3,196z M350.8,123.6c0-2.5,2-4.5,4.5-4.5c2.5,0,4.5,2,4.5,4.5c0,2.5-2,4.5-4.5,4.5
	C352.8,128.1,350.8,126.1,350.8,123.6L350.8,123.6z M382.8,20.9c0-2.5,2-4.5,4.5-4.5s4.5,2,4.5,4.5c0,2.5-2,4.5-4.5,4.5
	C384.8,25.4,382.8,23.4,382.8,20.9L382.8,20.9z M431.3,118.1c0-2.5,2-4.5,4.5-4.5s4.5,2,4.5,4.5c0,2.5-2,4.5-4.5,4.5
	C433.4,122.6,431.3,120.6,431.3,118.1L431.3,118.1z M446.9,29.9c0-2.5,2-4.5,4.5-4.5s4.5,2,4.5,4.5c0,2.5-2,4.5-4.5,4.5
	C448.9,34.4,446.8,32.4,446.9,29.9L446.9,29.9z M545.4,119.9c0,1.2-1,2.2-2.2,2.2s-2.2-1-2.2-2.2s1-2.2,2.2-2.2c0,0,0,0,0,0
	C544.4,117.7,545.4,118.7,545.4,119.9z M564.4,168.8c0,1.2-1,2.2-2.2,2.2c-1.2,0-2.2-1-2.2-2.2c0-1.2,1-2.2,2.2-2.2
	C563.4,166.6,564.4,167.6,564.4,168.8C564.4,168.8,564.4,168.8,564.4,168.8L564.4,168.8z M542.7,74.8c0,2.5-2,4.5-4.5,4.5
	s-4.5-2-4.5-4.5c0-2.5,2-4.5,4.5-4.5C540.7,70.3,542.7,72.3,542.7,74.8z M485.4,172.2c0-2.5,2-4.5,4.5-4.5s4.5,2,4.5,4.5
	c0,2.5-2,4.5-4.5,4.5C487.4,176.7,485.4,174.7,485.4,172.2C485.4,172.2,485.4,172.2,485.4,172.2L485.4,172.2z"/>
<path class="st2" d="M580.4,12.8h-24.5c-5,0-9.1,4.1-9,9.1c0,5,4.1,9,9,9h12.4c4.3,0,7.8,3.5,7.8,7.9c0,4.3-3.5,7.8-7.8,7.8h-47.4
	c-4.1,0-7.4,3.3-7.4,7.4s3.3,7.4,7.4,7.4h26.4c3.2,0,5.8,2.6,5.8,5.8c0,3.2-2.6,5.8-5.8,5.8l0,0h-34.6c-4.6,0-8.2,3.7-8.2,8.3
	c0,4.5,3.7,8.2,8.2,8.2h27.2c3.9,0,7,3.1,7,7c0,3.9-3.1,7-7,7h-74.9c-4.3,0-7.8,3.5-7.8,7.9c0,4.3,3.5,7.8,7.8,7.8H478
	c3,0,5.3,2.4,5.3,5.4c0,2.9-2.4,5.3-5.3,5.3h-70c-3.9,0-7,3.1-7,7c0,3.9,3.1,7,7,7h172C580,143.8,579.5,12.8,580.4,12.8 M580.4,12.8
	L580.4,12.8"/>
<g>
	<g>
		<g>
			<path class="st3" d="M471,63.6l0.3,6.5c0,0-0.2,1.9,4.1,2.2c4,0.2,4-2.8,4-2.8l-0.3-9.9L471,63.6z"/>
			<path class="st4" d="M477.7,29.2c7.8,1.8,7.6,7.1,7.6,7.1s-0.2,4.1-0.4,9c0.7-1,1.9-1.4,3.2-0.9c2.6,1.1,0.7,9.5-3.3,8.7
				c-0.2,2.3-0.4,4.1-0.7,4.8c-1.1,2.4-6.1,6-10.5,6.5c-4.4,0.6-9.9-2.4-9.9-7.6s-0.1-24.4-0.1-24.4S464.8,26.3,477.7,29.2z"/>
			<ellipse class="st5" cx="476.4" cy="45" rx="1.1" ry="2"/>
			<ellipse class="st5" cx="466.9" cy="45.4" rx="1.1" ry="2"/>
			<g>
				<path class="st6" d="M473.4,40.5c0.1-0.9,0.6-1.4,1.2-1.9c0.6-0.4,1.3-0.7,2.1-0.7c0.8,0,1.7,0.3,2.3,0.9s0.8,1.4,0.6,2.2
					c-0.9-0.1-1.4-0.2-1.8-0.1c-0.4,0-0.7,0.1-1.1,0.1c-0.4,0-0.8,0-1.3-0.1C474.8,40.8,474.2,40.7,473.4,40.5z"/>
			</g>
			<g>
				<path class="st6" d="M468.8,40.3c-0.8,0.2-1.3,0.3-1.7,0.4c-0.4,0.1-0.7,0.2-0.9,0.2c-0.2,0-0.3-0.1-0.7-0.1s-0.8,0.1-1.6,0.2
					c-0.3-0.7-0.3-1.4,0.1-2.1c0.4-0.6,1.2-1.1,2-1.2c0.8-0.1,1.5,0.2,2,0.6C468.4,38.9,468.8,39.5,468.8,40.3z"/>
			</g>
			<path class="st7" d="M487.7,45.9c-1.4-0.7-2.6,1.5-2.7,3.9c1.1-0.2,1.3,1.1,0.7,2.1C488,52.4,489.2,46.7,487.7,45.9z"/>
			<g>
				<path class="st8" d="M470.4,42.8l-0.7,4.1c-0.2,1.4-0.5,2.7-0.8,4.1l-0.2-0.3c0.8,0.5,1.6,1,2.4,1.5c-0.9-0.3-1.8-0.6-2.6-1
					l-0.2-0.1v-0.2c0.1-1.4,0.3-2.8,0.6-4.1C469.4,45.4,469.8,44,470.4,42.8z"/>
			</g>
			<g>
				<path class="st8" d="M476.5,55.4c-1.4,1-3,1.5-4.6,1.8c-0.8,0.1-1.7,0.1-2.5,0c-0.8-0.1-1.6-0.4-2.4-0.8c1.6,0.3,3.2,0.3,4.8,0
					C473.4,56.2,474.9,55.8,476.5,55.4z"/>
			</g>
			<path class="st6" d="M479.2,53.7c-0.2-0.8-0.7-1.6-2-1.6c-2.4-0.1-6.7,0.4-6.7,0.4s0.1,2.3,2,2.2c1.1-0.1,2.9-0.2,4.4-0.2
				c0.4,0.2,1.1,1.1,0.2,4.7c-0.5,2-3.7,2.3-4.4,0.9c-0.5-1-0.4-1.6-0.4-1.6l-1.9,0.1c0,0,0.3,2.3-1,2.4c-1.4,0.1-4.5-0.6-4.2-4.5
				c0.1-1.1,0.8-1.6,1.3-1.7c0.6,0,1.2,0,1.8-0.1c1.9-0.1,1.7-2.4,1.7-2.4s-2.2-0.2-4.6,0.1c-1.4,0.2-1.8,1.2-1.9,2
				c-0.3,1.9-1.2,9.5,6,10.4C477.5,65.9,482,61.8,479.2,53.7z"/>
			<path class="st6" d="M485.6,31.6c0-1.7-0.7-3.5-2.7-4.8c-5.3-3.4-8.1-1.5-13.2-0.6c-5.1,0.9-3.6-4-3.6-4
				c-3.8,2.3-0.4,6.8-0.4,6.8c-2.8-0.8-3-4.7-3-4.7c-1.9,5.3,1.3,6.8,0.6,7c-0.8,0.2-2.3-1.9-2.3-1.9c1.8,9.5,17.3,6.6,19.3,6.2l0,0
				c0.1,0,0.2-0.1,0.3-0.1c0.3,2.8,2.6,4.8,2.6,4.8v5.1l0,0c0,0.1,0,0.2,0,0.3v1.8c0.5,0,1-0.1,1.5-0.1l0.2-1.7c0,0,0.7-1.4,1.7-1.6
				c1.1-2.8,1.9-5.1,1.9-7.3C488.4,32.8,486.6,31.8,485.6,31.6z"/>
		</g>
		<path class="st9" d="M495.6,75.1c0,0,6.9,113.8,8.7,122.4c5.5,25.2-6.6,44.7-8.7,27.5c-2.2-17.2-9.8-28.3-17-22.9
			c-7.2,5.4-19.9,14.9-22.5-0.8c-2.6-15.7,3-130,3-130L495.6,75.1z"/>
		<g>
			<path class="st10" d="M461.9,169.3c-10.3-6.5,14.1-20.6,14.1-20.6s5.6,48.1,4.6,65.1h3.3c0,0,5.3-10.6,7.7-26.9
				c0.7-4.9-2.2-12.4-1.6-17.7c1.7-15.2,3.6-30.8,1.6-40.2l-2.3-4.1l-27.7,6.2c0,0-13.7,21.6-14.3,33.4c-0.1,2,17.2,27.8,19.4,33
				l1.8-1.6C468.4,196.1,472.9,176.2,461.9,169.3z"/>
			<path class="st11" d="M466.6,197.7c0,0-2.3,10,0.2,9.6s1.9-11.9,1.9-11.9L466.6,197.7z"/>
			<path class="st11" d="M480.6,213.8c0,0,2.6,5.1,4.1,4.9c1.5-0.2-0.8-4.9-0.8-4.9H480.6z"/>
			<g>
				<path class="st12" d="M483.8,213.8c0,0,0-0.3,0.1-0.8s0.1-1.4,0.3-2.4c0.1-0.5,0.1-1.1,0.2-1.7c0.1-0.6,0.1-1.3,0.2-2.1
					c0.1-1.5,0.3-3.1,0.4-5c0.1-0.9,0.1-1.9,0.2-2.9c0-0.5,0.1-1,0.1-1.6c0-0.5,0.1-1.1,0.1-1.6s0.1-1.1,0.1-1.7c0-0.3,0-0.6,0-0.9
					c0-0.3,0-0.6,0-0.9c0-1.2,0.1-2.4,0.1-3.6c0.1-4.9,0.2-10.3,0.1-16s-0.3-11.1-0.6-16c-0.1-2.5-0.2-4.8-0.4-7
					c-0.1-2.2-0.2-4.2-0.3-6.1c-0.2-3.7-0.4-6.7-0.5-8.8c-0.1-1-0.1-1.8-0.1-2.4c0-0.5,0-0.8,0-0.8s0.1,0.3,0.1,0.8
					c0.1,0.5,0.1,1.4,0.2,2.4c0.2,2.1,0.4,5.1,0.7,8.8c0.1,1.9,0.3,3.9,0.4,6.1c0.1,2.2,0.3,4.5,0.4,7c0.3,4.9,0.5,10.3,0.6,16
					c0.1,5.7,0.1,11.1-0.1,16c-0.1,1.2-0.1,2.4-0.2,3.6c0,0.3,0,0.6,0,0.9c0,0.3,0,0.6-0.1,0.9c0,0.6-0.1,1.1-0.1,1.7
					c0,0.5-0.1,1.1-0.1,1.6s-0.1,1-0.1,1.6c-0.1,1-0.2,2-0.3,2.9c-0.1,1.9-0.4,3.5-0.5,5c-0.1,0.7-0.2,1.4-0.2,2
					c-0.1,0.6-0.2,1.2-0.3,1.7c-0.2,1-0.3,1.8-0.4,2.4C483.9,213.5,483.8,213.8,483.8,213.8z"/>
			</g>
			<g>
				<path class="st12" d="M468.9,132.1c0,0-0.1,0.2-0.4,0.6s-0.6,1-1.1,1.8c-1,1.5-2.5,3.8-4.4,6.4c-0.9,1.3-2,2.8-3.1,4.4
					c-0.5,0.8-1.1,1.6-1.7,2.5c-0.6,0.9-1.1,1.8-1.6,2.7c-0.3,0.5-0.5,1-0.7,1.5c-0.1,0.2-0.2,0.5-0.3,0.8s-0.2,0.5-0.3,0.8
					c-0.2,0.5-0.4,1.1-0.6,1.6c0,0.1-0.1,0.3-0.1,0.4l-0.1,0.2l-0.1,0.2c-0.1,0.3-0.2,0.6-0.3,0.8c0,0.1-0.1,0.3-0.1,0.4
					c0,0.1-0.1,0.3-0.1,0.4c-0.1,0.3-0.2,0.6-0.2,0.9c-0.1,0.3-0.1,0.6-0.2,0.9c0,0.3-0.1,0.6-0.1,0.9c-0.2,1.2-0.3,2.4-0.2,3.7
					c0,2.5,0.6,4.9,1.3,7.1c0.4,1.1,0.9,2.2,1.4,3.2s1,2,1.6,2.9c0.5,0.9,1.1,1.8,1.6,2.7s1.1,1.7,1.6,2.6c0.5,0.8,0.9,1.7,1.3,2.5
					s0.7,1.6,1.1,2.4c0.6,1.5,1.2,2.9,1.7,4.1c0.5,1.2,1,2.2,1.4,3.1c0.2,0.4,0.4,0.8,0.5,1.1c0.2,0.3,0.3,0.6,0.4,0.8
					c0.2,0.4,0.3,0.7,0.3,0.7s-0.2-0.2-0.4-0.6c-0.1-0.2-0.3-0.5-0.5-0.8s-0.4-0.7-0.6-1.1c-0.4-0.8-0.9-1.8-1.5-3
					c-0.5-1.2-1.1-2.6-1.8-4.1c-0.3-0.7-0.7-1.5-1.1-2.3s-0.8-1.6-1.3-2.5c-0.5-0.8-1-1.7-1.6-2.5c-0.5-0.9-1.1-1.8-1.7-2.7
					c-0.5-0.9-1.1-1.9-1.6-3c-0.5-1-1-2.1-1.4-3.2c-0.4-1.1-0.8-2.3-1-3.5c0-0.2-0.1-0.3-0.1-0.5v-0.2V167c0-0.3-0.1-0.6-0.1-0.9
					c0-0.2,0-0.3,0-0.5s0-0.3,0-0.5s0-0.3,0-0.5s0-0.3,0-0.5c0-1.3,0.1-2.5,0.2-3.8c0-0.3,0.1-0.6,0.1-0.9c0.1-0.3,0.1-0.6,0.2-0.9
					c0.1-0.3,0.1-0.6,0.2-0.9c0-0.1,0.1-0.3,0.1-0.4c0-0.1,0.1-0.3,0.1-0.4c0.1-0.3,0.2-0.6,0.3-0.9l0.1-0.2l0.1-0.2
					c0-0.1,0.1-0.3,0.1-0.4c0.2-0.6,0.4-1.1,0.6-1.6c0.1-0.3,0.2-0.5,0.3-0.8s0.2-0.5,0.4-0.8c0.3-0.5,0.5-1,0.8-1.5
					c0.5-1,1.1-1.9,1.7-2.7c0.6-0.9,1.1-1.7,1.7-2.5c1.1-1.6,2.2-3,3.1-4.4c1.9-2.6,3.5-4.8,4.6-6.3c0.5-0.8,0.9-1.3,1.2-1.7
					C468.8,132.3,468.9,132.1,468.9,132.1z"/>
			</g>
		</g>
		<path class="st13" d="M500.3,139.8c0,0-1.1,1.3-0.9,1.7c0.2,0.4,1.5,2.2,0.3,3.7c-1.2,1.6-1.5,1.9-1.8,1.3c0,0-0.7,1.2-1.3,0.2
			c0,0-2,1.2-2-0.2c0-1.3,0.2-2-0.1-1.8c0,0-0.5,1.7-1.3,1.5c-0.5-0.1-0.3-1.1-0.1-2c0.1-0.6,0.3-1,0.3-1s-0.9,1.1-0.8-0.1
			c0.1-1.1,0.7-3.7,2.7-3.7c0,0,0.8-0.1,1.2-0.9C496.9,137.9,500.3,139.8,500.3,139.8z"/>
		<path class="st13" d="M448.9,23c0,0,1.2-1.2,1-1.6c-0.2-0.5-1.3-2.3,0.1-3.7c1.4-1.4,1.7-1.7,2-1.1c0,0,0.8-1.2,1.3-0.1
			c0,0,2.1-1,2,0.4c-0.1,1.3-0.4,1.9-0.1,1.8c0,0,0.6-1.7,1.4-1.4c0.5,0.2,0.2,1.2-0.1,2c-0.2,0.6-0.4,1-0.4,1s1-1,0.8,0.2
			c-0.2,1.1-1.1,3.6-3.1,3.4c0,0-0.8,0-1.3,0.8C452.1,25.2,448.9,23,448.9,23z"/>
		<path class="st14" d="M457.7,70.7c0,0-0.1,18.8,1.8,35.2c1.8,16.4,2,25.4,2,25.4l30.5-3.9c0,0-6.3-10.9-3.3-17.7
			c3.1-6.8,10.6-32.4,10.6-32.4s-8.3-8.3-19-8.3c-0.7,0-3.6,3.6-4.4,3.7c-2.1,0.2-2-3.1-3.8-2.9C462.7,70.6,457.7,70.7,457.7,70.7z"
			/>
		<polygon class="st15" points="468.2,69.7 468.4,67.2 474.9,70.3 474.6,73.9 		"/>
		<polygon class="st16" points="474.9,70.3 475.9,72.7 474.7,73 		"/>
		<polygon class="st16" points="475.9,72.7 476.8,70.3 477.6,73.2 		"/>
		<path class="st15" d="M482.8,67.4c0,0.1-6,2.9-6,2.9l0.9,3.4l6.2-3.8L482.8,67.4z"/>
		<polygon class="st17" points="474.7,71.9 477.1,71.8 477.6,73.2 474.7,73.4 		"/>
		<polygon class="st18" points="475.3,71.8 475.3,73.8 476.8,73.9 476.8,71.8 		"/>
		<g>
			<path class="st15" d="M496.5,75.2c0,0-0.1,0-0.2,0.1c-0.1,0-0.3,0.1-0.5,0.2c-0.2,0.1-0.4,0.4-0.6,0.7c-0.2,0.3-0.4,0.7-0.5,1.1
				c-0.3,0.9-0.6,2-0.8,3.3c-0.2,1.2-0.4,2.6-0.6,4.1c-0.1,1.5-0.1,2.9-0.1,4.1c0.1,1.3,0.2,2.4,0.3,3.4c0.3,1.9,0.6,3.1,0.5,3.1
				s-0.5-1.1-0.9-3c-0.2-1-0.4-2.1-0.5-3.4s-0.1-2.7,0-4.2s0.3-2.9,0.6-4.2c0.1-0.3,0.1-0.6,0.2-0.9s0.2-0.6,0.2-0.9
				c0.1-0.3,0.2-0.5,0.3-0.8c0.1-0.3,0.2-0.5,0.3-0.7c0.2-0.5,0.4-0.9,0.6-1.2c0.2-0.3,0.5-0.6,0.8-0.7c0.3-0.1,0.5-0.2,0.6-0.2
				C496.4,75.2,496.5,75.2,496.5,75.2z"/>
		</g>
		<g>
			<path class="st15" d="M474.3,130.2c0,0-0.2-0.5-0.5-1.5c-0.1-0.2-0.1-0.5-0.2-0.8s-0.1-0.6-0.2-1c-0.2-0.7-0.3-1.5-0.5-2.4
				c-0.1-0.4-0.2-0.9-0.3-1.4s-0.2-1-0.2-1.5c-0.1-0.5-0.2-1.1-0.2-1.6c-0.1-0.6-0.1-1.1-0.2-1.7c-0.3-2.4-0.5-5-0.6-7.7
				s-0.1-5.3,0-7.7c0-0.6,0.1-1.2,0.1-1.7c0-0.6,0.1-1.1,0.1-1.6s0.1-1,0.1-1.5c0.1-0.5,0.1-1,0.2-1.4c0.1-0.9,0.2-1.7,0.3-2.4
				c0.1-0.4,0.1-0.7,0.1-1c0.1-0.3,0.1-0.6,0.1-0.8c0.2-1,0.3-1.5,0.3-1.5s0,0.6-0.1,1.6c0,0.2-0.1,0.5-0.1,0.8s-0.1,0.6-0.1,1
				c-0.1,0.7-0.2,1.5-0.2,2.4c0,0.4-0.1,0.9-0.1,1.4s-0.1,1-0.1,1.5s-0.1,1.1-0.1,1.6c0,0.6,0,1.1-0.1,1.7c-0.1,2.4-0.1,5,0,7.7
				c0.1,2.7,0.3,5.3,0.6,7.6c0.1,0.6,0.1,1.2,0.2,1.7c0.1,0.6,0.1,1.1,0.2,1.6c0.1,0.5,0.1,1,0.2,1.5s0.1,0.9,0.2,1.4
				c0.1,0.9,0.3,1.7,0.4,2.4c0.1,0.3,0.1,0.7,0.2,1c0.1,0.3,0.1,0.6,0.2,0.8C474.3,129.6,474.3,130.2,474.3,130.2z"/>
		</g>
		<path class="st18" d="M475.3,73.8c0,0-9,28.8-5.8,40.1l2.9,3.6l3.9-3.6c0,0-3.2-11-1.9-23c1.3-12,2.4-16.9,2.4-16.9L475.3,73.8z"
			/>
		<g>
			<path class="st15" d="M488,111.9c0,0.1-0.3,0.3-0.9,0.6c-0.1,0-0.2,0.1-0.2,0.1c-0.1,0-0.2,0.1-0.3,0.1c-0.2,0.1-0.4,0.1-0.6,0.2
				c-0.4,0.1-0.9,0.2-1.4,0.3c-0.5,0-1,0-1.5,0c-0.2,0-0.4,0-0.6-0.1c-0.1,0-0.2,0-0.3-0.1c-0.1,0-0.2,0-0.3-0.1
				c-0.6-0.2-1-0.4-1-0.5s0.4,0,1.1,0c0.1,0,0.2,0,0.2,0c0.1,0,0.2,0,0.3,0c0.2,0,0.4,0,0.6,0c0.4,0,0.9,0,1.4-0.1
				c0.5,0,0.9-0.1,1.3-0.2c0.2,0,0.4-0.1,0.6-0.1c0.1,0,0.2,0,0.3-0.1c0.1,0,0.2,0,0.2-0.1C487.6,112,488,111.8,488,111.9z"/>
		</g>
		<g>
			
				<ellipse transform="matrix(0.9503 -0.3114 0.3114 0.9503 -11.4425 156.7388)" class="st15" cx="485.1" cy="114.2" rx="2" ry="0.3"/>
		</g>
		<polygon class="st15" points="481,89.3 481,94.6 484.5,96.8 487,93.9 487,89.3 		"/>
		<g>
			<g>
				<polygon class="st19" points="471.8,130 472.4,132.4 477.9,131.4 477.4,129.2 				"/>
				<path class="st20" d="M476,129.4c0,0.1-1.4,2.6-1.4,2.6l-0.9,0.2l1.1-2.6L476,129.4z"/>
			</g>
			<polygon class="st21" points="477.8,131 483.8,130.1 483.5,128.4 477.4,129.3 			"/>
			<polygon class="st21" points="485.7,128.2 485.9,129.8 491.6,129 491.3,127.4 			"/>
			<polygon class="st21" points="472.2,131.7 467.3,132.4 466.9,130.6 471.8,130 			"/>
			<polygon class="st21" points="464.8,131 465.1,132.6 461.5,133 461.5,131.3 			"/>
		</g>
		<path class="st14" d="M459.8,89.3c0.6-5.5,6.2-16.1-2.1-18.6c-28.7-8.7-5-45.6-5-45.6l-3.8-2.6c0,0-31.2,32-6.2,57.2
			C453.6,90.7,459.8,89.3,459.8,89.3z"/>
		<path class="st14" d="M491.6,74.7c-0.6,5.5-8.6,15.3-0.3,17.8c28.7,8.7,5,45.7,5,45.7l3.8,2.6c0,0,31.2-32.1,6.2-57.3
			C495.4,72.5,491.6,74.7,491.6,74.7z"/>
		<path class="st9" d="M465.9,70.3c0,0,6.6,3.7,8.8,3.7c2.2,0-6.4-5-6.4-5S466,67.9,465.9,70.3z"/>
		<path class="st9" d="M474.6,73.9c0,0,7.3-5,8.8-5.2c1.5-0.2,2.7,0.4,2.5,0.9C485.7,70.2,471.8,76.7,474.6,73.9z"/>
		<g>
			<path class="st9" d="M474.7,73.6c0,0,0.3-0.2,0.9-0.2c0.3,0,0.7,0,1.1,0.1c0.4,0.1,0.9,0.3,1.4,0.6c0.2,0.1,0.5,0.3,0.7,0.5
				c0.1,0.1,0.1,0.1,0.2,0.2s0.1,0.1,0.2,0.2l0.1,0.1l0.1,0.1c0.1,0.1,0.1,0.1,0.2,0.2c0.1,0.2,0.2,0.3,0.2,0.6c0,0.2,0,0.5-0.1,0.7
				c-0.1,0.2-0.3,0.4-0.6,0.5c-0.2,0.1-0.5,0.1-0.7,0.1c-0.5-0.1-0.8-0.3-1.2-0.5c-0.3-0.2-0.6-0.4-1-0.6c-0.3-0.2-0.7-0.5-0.9-0.8
				c-0.3-0.3-0.6-0.7-0.7-1.2l0.9-0.2c0,0.3,0,0.7-0.1,1c-0.2,0.5-0.6,0.9-1,1.2c-0.2,0.1-0.4,0.3-0.6,0.4c-0.2,0.1-0.4,0.2-0.7,0.2
				c-0.4,0.1-0.9,0.1-1.3,0.1c-0.2,0-0.4,0-0.6,0c-0.2,0-0.4,0-0.6-0.1c-0.1,0-0.2-0.1-0.4-0.1c-0.1-0.1-0.2-0.2-0.3-0.3
				c-0.2-0.2-0.3-0.6-0.2-0.8c0.1-0.3,0.2-0.5,0.3-0.6c0.1-0.2,0.3-0.3,0.4-0.4c0.6-0.4,1.2-0.7,1.8-0.9s1.1-0.2,1.6-0.2
				s0.9,0.1,1.2,0.2c0.6,0.2,0.9,0.4,0.9,0.5s-0.4-0.1-1-0.2c-0.3,0-0.7-0.1-1.1,0c-0.4,0-0.9,0.1-1.4,0.3s-1,0.5-1.5,0.9
				c-0.1,0.1-0.2,0.2-0.3,0.3c-0.1,0.1-0.1,0.2-0.1,0.3v0.1V76c0,0,0.1,0.1,0.3,0.1c0.1,0,0.3,0,0.5,0c0.2,0,0.4,0,0.6,0
				c0.4,0,0.8,0,1.1-0.1c0.2,0,0.4-0.1,0.5-0.2c0.2-0.1,0.3-0.2,0.5-0.3c0.3-0.2,0.5-0.5,0.6-0.8c0.1-0.2,0.1-0.4,0.1-0.6l0,0
				c0-0.2,0.2-0.5,0.4-0.5s0.4,0.1,0.5,0.3c0.3,0.7,0.8,1.2,1.4,1.6c0.3,0.2,0.6,0.4,0.9,0.6c0.3,0.2,0.6,0.4,0.8,0.4
				c0.5,0,0.7-0.2,0.4-0.7c0-0.1-0.1-0.1-0.1-0.2c0,0,0-0.1-0.1-0.1l-0.1-0.1c0-0.1-0.1-0.1-0.1-0.2l-0.1-0.1
				c-0.2-0.2-0.4-0.4-0.6-0.5c-0.4-0.3-0.8-0.5-1.2-0.6c-0.4-0.1-0.7-0.2-1-0.2C475.1,73.7,474.7,73.7,474.7,73.6z"/>
		</g>
	</g>
</g>
<g>
	<g>
		<defs>
			<rect id="SVGID_1_" width="579.9" height="378"/>
		</defs>
		<clipPath id="SVGID_2_">
			<use xlink:href="#SVGID_1_"  style="overflow:visible;"/>
		</clipPath>
		<g class="st22">
			<g>
				<path class="st23" d="M787,380.1L546.6,139.7c-9-9-23.5-9-32.4,0L273.8,380.1H787"/>
				<path class="st24" d="M546.6,139.7c-9-9-23.5-9-32.4,0l-87.6,87.6c12.9,7,29.1,4.6,39.5-6l9.4-9.6c2.7-2.8,6.5-4.2,10.4-3.9l0,0
					c7.3,0.6,12.7,7.2,11.9,14.6l0,0c-0.9,7.2,4.7,13.5,12,13.5h1.5c6.8,0,12.4-5.1,13.3-11.8l3.3-27.8c0.6-5.1,4.5-9.1,9.5-9.7
					c5.1-0.8,9.9,2.1,12,6.8l3.7,8.8c2.4,5.6,9.2,7.9,14.4,4.5c3.3-2.2,5.2-6.2,4.4-10l-2.7-11c-0.6-2.7,0.9-5.5,3.6-6.4
					c2.1-0.6,4.2,0,5.6,1.6l27.8,33.3c6.7,8,16.6,12,26.5,11.3L546.6,139.7z"/>
				
					<linearGradient id="SVGID_3_" gradientUnits="userSpaceOnUse" x1="522.7444" y1="-53.7799" x2="573.34" y2="247.2628" gradientTransform="matrix(1 0 0 -1 0 372)">
					<stop  offset="0" style="stop-color:#2E5776"/>
					<stop  offset="1" style="stop-color:#2E5776;stop-opacity:0"/>
				</linearGradient>
				<path class="st25" d="M753.1,346.3c-329.7,31.1-238.9-206.5-238.9-206.5L273.8,380.1H787"/>
			</g>
			<g>
				<path class="st23" d="M335.8,380.3H594L473.1,259.3c-4.5-4.5-11.8-4.5-16.3,0L335.8,380.3"/>
				<path class="st24" d="M409.8,306.2l1.7,1c5.2,2.9,11.6,2.1,15.8-2.1l14.7-14.6c1.4-1.4,3.6-1.9,5.4-1.2c2.7,1,4.1,3.8,3.2,6.6
					l-3.8,11.7c-1,3.2,1.1,6.6,4.5,7l0,0c2.2,0.3,4.4-0.9,5.4-2.9l6-11.8c1.1-2.2,3.6-3.6,6.1-3.3c2.7,0.3,4.8,2.3,5.3,4.9l0.7,3.8
					c0.6,2.9,3.3,5,6.3,4.5l0,0c3-0.4,5.2-3.1,4.9-6.1l-0.6-5.9c-0.2-2.3,1.3-4.4,3.6-5c2.1-0.5,4.3,0.4,5.3,2.3l6.3,11.6
					c0.9,1.6,2.9,2.2,4.5,1.5c1.6-0.8,2.4-2.7,1.7-4.3L505,299c-0.9-2.3-0.4-4.8,1.1-6.6l-33-33c-4.5-4.5-11.8-4.5-16.3,0
					L409.8,306.2z"/>
				
					<linearGradient id="SVGID_4_" gradientUnits="userSpaceOnUse" x1="460.2671" y1="-32.0373" x2="485.8864" y2="120.3974" gradientTransform="matrix(1 0 0 -1 0 372)">
					<stop  offset="0" style="stop-color:#2E5776"/>
					<stop  offset="1" style="stop-color:#2E5776;stop-opacity:0"/>
				</linearGradient>
				<path class="st26" d="M334.4,381l259.6-0.7l-17-17c-165.8,15.6-120.2-103.9-120.2-103.9L334.4,381"/>
			</g>
			<g>
				<g>
					<g>
						<path class="st23" d="M441,379.8l-86.4-86.4c-3.2-3.2-8.4-3.2-11.6,0l-86.5,86.4H441z"/>
					</g>
				</g>
				<path class="st24" d="M319.1,326.7l7-6.2c1.3-1.2,3.1-1.3,4.6-0.4c1.4,0.9,2.2,2.6,1.7,4.3l-0.6,2.2c-0.6,2.2,0.8,4.5,3.1,4.9
					c2.1,0.4,4.1-1,4.6-3l2.2-9.5c0.3-1.2,1.4-2.1,2.6-2.2c1.4-0.1,2.6,1,2.9,2.3l3,16.8c0.3,1.6,1.8,2.8,3.5,2.6l0,0
					c1.8-0.1,3.1-1.8,2.9-3.5l-1.2-10.9c-0.1-1.3,0.7-2.4,1.9-2.8c1.3-0.3,2.6,0.3,3.1,1.6l2,4.9c0.7,1.7,2.5,2.5,4.2,1.9
					c1.8-0.7,2.7-2.7,2-4.5l-6.5-14.8c-0.4-1-0.1-2.1,0.9-2.6c0.8-0.5,1.8-0.3,2.5,0.4c1.5,1.6,3.7,2.2,5.8,1.8l-16.6-16.6
					c-3.2-3.2-8.4-3.2-11.6,0l-34.6,34.6C311.7,329.9,316.1,329.4,319.1,326.7z"/>
				
					<linearGradient id="SVGID_5_" gradientUnits="userSpaceOnUse" x1="346.7918" y1="-11.3353" x2="373.0746" y2="36.3023" gradientTransform="matrix(1 0 0 -1 0 372)">
					<stop  offset="0" style="stop-color:#2E5776"/>
					<stop  offset="1" style="stop-color:#2E5776;stop-opacity:0"/>
				</linearGradient>
				<path class="st27" d="M441,379.8l-12.2-12.2c-118.5,11.2-85.9-74.2-85.9-74.2l-86.5,86.4H441z"/>
			</g>
		</g>
	</g>
</g>
<path class="st28" d="M430.9,22.6H315.6c-3.9,0-7.1,3.2-7.1,7.1c0,3.9-3.2,7.1-7.1,7.1l0,0h-28.2c-4.5,0-8.1,3.6-8.1,8.1
	s3.6,8.1,8.1,8.1h36c4.1,0.1,7.5,3.4,7.4,7.5c-0.1,4.1-3.3,7.3-7.4,7.4h-65.4c-2.9,0-5.3,2.4-5.3,5.3l0,0v0.6c0,2.9,2.3,5.3,5.3,5.3
	l0,0h119.6c2.9,0,5.3-2.4,5.3-5.3s-2.4-5.3-5.3-5.3h-18.6c-4.6,0-8.4-3.8-8.3-8.4l0,0c0-3.6,2.9-6.5,6.5-6.5h17.9
	c3.6,0,6.5-2.9,6.5-6.5c0-3.6,2.9-6.5,6.5-6.5h57c5,0,9.1-4.1,9.1-9.1S435.9,22.6,430.9,22.6"/>
</svg>
