<?xml version="1.0" encoding="utf-8"?>
<!-- Generator: Adobe Illustrator 21.1.0, SVG Export Plug-In . SVG Version: 6.00 Build 0)  -->
<svg version="1.1" id="Objects" xmlns="http://www.w3.org/2000/svg" xmlns:xlink="http://www.w3.org/1999/xlink" x="0px" y="0px"
	 viewBox="0 0 83 215.5" style="enable-background:new 0 0 83 215.5;" xml:space="preserve">
<style type="text/css">
	.st0{fill:#D2BAA4;}
	.st1{fill:#EBCCB1;}
	.st2{fill:#27272C;}
	.st3{fill:#7B6541;}
	.st4{opacity:0.4;fill:#A47563;enable-background:new    ;}
	.st5{fill:#C19283;}
	.st6{fill:#FF7415;}
	.st7{fill:#272E33;}
	.st8{fill:#3F2728;}
	.st9{fill:#171B1E;}
	.st10{fill:#FCCAB1;}
	.st11{fill:#F7F7F7;}
	.st12{fill:#EAEAEA;}
	.st13{fill:#CECECE;}
	.st14{fill:#0E81AA;}
	.st15{fill:#10A9EA;}
	.st16{fill:#D3D3D3;}
	.st17{opacity:0.44;fill:#F7F7F7;enable-background:new    ;}
	.st18{fill:#A38C7C;}
</style>
<g>
	<path class="st0" d="M38,47.6l0.3,6.5c0,0-0.2,1.9,4.1,2.2c4,0.2,4-2.8,4-2.8l-0.3-9.9L38,47.6z"/>
	<path class="st1" d="M44.7,13.2c7.8,1.8,7.6,7.1,7.6,7.1s-0.2,4.1-0.4,9c0.7-1,1.9-1.4,3.2-0.9c2.6,1.1,0.7,9.5-3.3,8.7
		c-0.2,2.3-0.4,4.1-0.7,4.8c-1.1,2.4-6.1,6-10.5,6.5c-4.4,0.6-9.9-2.4-9.9-7.6s-0.1-24.4-0.1-24.4S31.8,10.3,44.7,13.2z"/>
	<ellipse class="st2" cx="43.4" cy="29" rx="1.1" ry="2"/>
	<ellipse class="st2" cx="33.9" cy="29.4" rx="1.1" ry="2"/>
	<g>
		<path class="st3" d="M40.4,24.5c0.1-0.9,0.6-1.4,1.2-1.9c0.6-0.4,1.3-0.7,2.1-0.7c0.8,0,1.7,0.3,2.3,0.9c0.6,0.6,0.8,1.4,0.6,2.2
			c-0.9-0.1-1.4-0.2-1.8-0.1c-0.4,0-0.7,0.1-1.1,0.1s-0.8,0-1.3-0.1C41.8,24.8,41.2,24.7,40.4,24.5z"/>
	</g>
	<g>
		<path class="st3" d="M35.8,24.3c-0.8,0.2-1.3,0.3-1.7,0.4c-0.4,0.1-0.7,0.2-0.9,0.2c-0.2,0-0.3-0.1-0.7-0.1
			c-0.4,0-0.8,0.1-1.6,0.2c-0.3-0.7-0.3-1.4,0.1-2.1c0.4-0.6,1.2-1.1,2-1.2c0.8-0.1,1.5,0.2,2,0.6C35.4,22.9,35.8,23.5,35.8,24.3z"
			/>
	</g>
	<path class="st4" d="M54.7,29.9c-1.4-0.7-2.6,1.5-2.7,3.9c1.1-0.2,1.3,1.1,0.7,2.1C55,36.4,56.2,30.7,54.7,29.9z"/>
	<g>
		<path class="st5" d="M37.4,26.8l-0.7,4.1c-0.2,1.4-0.5,2.7-0.8,4.1l-0.2-0.3c0.8,0.5,1.6,1,2.4,1.5c-0.9-0.3-1.8-0.6-2.6-1
			l-0.2-0.1v-0.2c0.1-1.4,0.3-2.8,0.6-4.1C36.4,29.4,36.8,28,37.4,26.8z"/>
	</g>
	<g>
		<path class="st5" d="M43.5,39.4c-1.4,1-3,1.5-4.6,1.8c-0.8,0.1-1.7,0.1-2.5,0s-1.6-0.4-2.4-0.8c1.6,0.3,3.2,0.3,4.8,0
			C40.4,40.2,41.9,39.8,43.5,39.4z"/>
	</g>
	<path class="st3" d="M46.2,37.7c-0.2-0.8-0.7-1.6-2-1.6c-2.4-0.1-6.7,0.4-6.7,0.4s0.1,2.3,2,2.2c1.1-0.1,2.9-0.2,4.4-0.2
		c0.4,0.2,1.1,1.1,0.2,4.7c-0.5,2-3.7,2.3-4.4,0.9c-0.5-1-0.4-1.6-0.4-1.6l-1.9,0.1c0,0,0.3,2.3-1,2.4c-1.4,0.1-4.5-0.6-4.2-4.5
		c0.1-1.1,0.8-1.6,1.3-1.7c0.6,0,1.2,0,1.8-0.1c1.9-0.1,1.7-2.4,1.7-2.4s-2.2-0.2-4.6,0.1c-1.4,0.2-1.8,1.2-1.9,2
		c-0.3,1.9-1.2,9.5,6,10.4C44.5,49.9,49,45.8,46.2,37.7z"/>
	<path class="st3" d="M52.6,15.6c0-1.7-0.7-3.5-2.7-4.8c-5.3-3.4-8.1-1.5-13.2-0.6s-3.6-4-3.6-4c-3.8,2.3-0.4,6.8-0.4,6.8
		c-2.8-0.8-3-4.7-3-4.7c-1.9,5.3,1.3,6.8,0.6,7c-0.8,0.2-2.3-1.9-2.3-1.9c1.8,9.5,17.3,6.6,19.3,6.2l0,0c0.1,0,0.2-0.1,0.3-0.1
		c0.3,2.8,2.6,4.8,2.6,4.8v5.1l0,0c0,0.1,0,0.2,0,0.3v1.8c0.5,0,1-0.1,1.5-0.1l0.2-1.7c0,0,0.7-1.4,1.7-1.6c1.1-2.8,1.9-5.1,1.9-7.3
		C55.4,16.8,53.6,15.8,52.6,15.6z"/>
</g>
<path class="st6" d="M62.6,59.1c0,0,6.9,113.8,8.7,122.4c5.5,25.2-6.6,44.7-8.7,27.5c-2.2-17.2-9.8-28.3-17-22.9
	c-7.2,5.4-19.9,14.9-22.5-0.8s3-130,3-130L62.6,59.1z"/>
<g>
	<path class="st7" d="M28.9,153.3C18.6,146.8,43,132.7,43,132.7s5.6,48.1,4.6,65.1h3.3c0,0,5.3-10.6,7.7-26.9
		c0.7-4.9-2.2-12.4-1.6-17.7c1.7-15.2,3.6-30.8,1.6-40.2l-2.3-4.1l-27.7,6.2c0,0-13.7,21.6-14.3,33.4c-0.1,2,17.2,27.8,19.4,33
		l1.8-1.6C35.4,180.1,39.9,160.2,28.9,153.3z"/>
	<path class="st8" d="M33.6,181.7c0,0-2.3,10,0.2,9.6s1.9-11.9,1.9-11.9L33.6,181.7z"/>
	<path class="st8" d="M47.6,197.8c0,0,2.6,5.1,4.1,4.9c1.5-0.2-0.8-4.9-0.8-4.9H47.6z"/>
	<g>
		<path class="st9" d="M50.8,197.8c0,0,0-0.3,0.1-0.8s0.1-1.4,0.3-2.4c0.1-0.5,0.1-1.1,0.2-1.7c0.1-0.6,0.1-1.3,0.2-2.1
			c0.1-1.5,0.3-3.1,0.4-5c0.1-0.9,0.1-1.9,0.2-2.9c0-0.5,0.1-1,0.1-1.6c0-0.5,0.1-1.1,0.1-1.6s0.1-1.1,0.1-1.7c0-0.3,0-0.6,0-0.9
			c0-0.3,0-0.6,0-0.9c0-1.2,0.1-2.4,0.1-3.6c0.1-4.9,0.2-10.3,0.1-16s-0.3-11.1-0.6-16c-0.1-2.5-0.2-4.8-0.4-7
			c-0.1-2.2-0.2-4.2-0.3-6.1c-0.2-3.7-0.4-6.7-0.5-8.8c-0.1-1-0.1-1.8-0.1-2.4c0-0.5,0-0.8,0-0.8s0.1,0.3,0.1,0.8
			c0.1,0.5,0.1,1.4,0.2,2.4c0.2,2.1,0.4,5.1,0.7,8.8c0.1,1.9,0.3,3.9,0.4,6.1c0.1,2.2,0.3,4.5,0.4,7c0.3,4.9,0.5,10.3,0.6,16
			s0.1,11.1-0.1,16c-0.1,1.2-0.1,2.4-0.2,3.6c0,0.3,0,0.6,0,0.9c0,0.3,0,0.6-0.1,0.9c0,0.6-0.1,1.1-0.1,1.7c0,0.5-0.1,1.1-0.1,1.6
			s-0.1,1-0.1,1.6c-0.1,1-0.2,2-0.3,2.9c-0.1,1.9-0.4,3.5-0.5,5c-0.1,0.7-0.2,1.4-0.2,2c-0.1,0.6-0.2,1.2-0.3,1.7
			c-0.2,1-0.3,1.8-0.4,2.4C50.9,197.5,50.8,197.8,50.8,197.8z"/>
	</g>
	<g>
		<path class="st9" d="M35.9,116.1c0,0-0.1,0.2-0.4,0.6s-0.6,1-1.1,1.8c-1,1.5-2.5,3.8-4.4,6.4c-0.9,1.3-2,2.8-3.1,4.4
			c-0.5,0.8-1.1,1.6-1.7,2.5s-1.1,1.8-1.6,2.7c-0.3,0.5-0.5,1-0.7,1.5c-0.1,0.2-0.2,0.5-0.3,0.8c-0.1,0.3-0.2,0.5-0.3,0.8
			c-0.2,0.5-0.4,1.1-0.6,1.6c0,0.1-0.1,0.3-0.1,0.4l-0.1,0.2l-0.1,0.2c-0.1,0.3-0.2,0.6-0.3,0.8c0,0.1-0.1,0.3-0.1,0.4
			c0,0.1-0.1,0.3-0.1,0.4c-0.1,0.3-0.2,0.6-0.2,0.9c-0.1,0.3-0.1,0.6-0.2,0.9c0,0.3-0.1,0.6-0.1,0.9c-0.2,1.2-0.3,2.4-0.2,3.7
			c0,2.5,0.6,4.9,1.3,7.1c0.4,1.1,0.9,2.2,1.4,3.2s1,2,1.6,2.9c0.5,0.9,1.1,1.8,1.6,2.7s1.1,1.7,1.6,2.6c0.5,0.8,0.9,1.7,1.3,2.5
			s0.7,1.6,1.1,2.4c0.6,1.5,1.2,2.9,1.7,4.1c0.5,1.2,1,2.2,1.4,3.1c0.2,0.4,0.4,0.8,0.5,1.1c0.2,0.3,0.3,0.6,0.4,0.8
			c0.2,0.4,0.3,0.7,0.3,0.7s-0.2-0.2-0.4-0.6c-0.1-0.2-0.3-0.5-0.5-0.8s-0.4-0.7-0.6-1.1c-0.4-0.8-0.9-1.8-1.5-3
			c-0.5-1.2-1.1-2.6-1.8-4.1c-0.3-0.7-0.7-1.5-1.1-2.3s-0.8-1.6-1.3-2.5c-0.5-0.8-1-1.7-1.6-2.5c-0.5-0.9-1.1-1.8-1.7-2.7
			c-0.5-0.9-1.1-1.9-1.6-3c-0.5-1-1-2.1-1.4-3.2c-0.4-1.1-0.8-2.3-1-3.5c0-0.2-0.1-0.3-0.1-0.5v-0.2V151c0-0.3-0.1-0.6-0.1-0.9
			c0-0.2,0-0.3,0-0.5s0-0.3,0-0.5s0-0.3,0-0.5s0-0.3,0-0.5c0-1.3,0.1-2.5,0.2-3.8c0-0.3,0.1-0.6,0.1-0.9c0.1-0.3,0.1-0.6,0.2-0.9
			c0.1-0.3,0.1-0.6,0.2-0.9c0-0.1,0.1-0.3,0.1-0.4c0-0.1,0.1-0.3,0.1-0.4c0.1-0.3,0.2-0.6,0.3-0.9l0.1-0.2l0.1-0.2
			c0-0.1,0.1-0.3,0.1-0.4c0.2-0.6,0.4-1.1,0.6-1.6c0.1-0.3,0.2-0.5,0.3-0.8c0.1-0.3,0.2-0.5,0.4-0.8c0.3-0.5,0.5-1,0.8-1.5
			c0.5-1,1.1-1.9,1.7-2.7c0.6-0.9,1.1-1.7,1.7-2.5c1.1-1.6,2.2-3,3.1-4.4c1.9-2.6,3.5-4.8,4.6-6.3c0.5-0.8,0.9-1.3,1.2-1.7
			C35.8,116.3,35.9,116.1,35.9,116.1z"/>
	</g>
</g>
<path class="st10" d="M67.3,123.8c0,0-1.1,1.3-0.9,1.7s1.5,2.2,0.3,3.7c-1.2,1.6-1.5,1.9-1.8,1.3c0,0-0.7,1.2-1.3,0.2
	c0,0-2,1.2-2-0.2c0-1.3,0.2-2-0.1-1.8c0,0-0.5,1.7-1.3,1.5c-0.5-0.1-0.3-1.1-0.1-2c0.1-0.6,0.3-1,0.3-1s-0.9,1.1-0.8-0.1
	c0.1-1.1,0.7-3.7,2.7-3.7c0,0,0.8-0.1,1.2-0.9C63.9,121.9,67.3,123.8,67.3,123.8z"/>
<path class="st10" d="M15.9,7c0,0,1.2-1.2,1-1.6c-0.2-0.5-1.3-2.3,0.1-3.7s1.7-1.7,2-1.1c0,0,0.8-1.2,1.3-0.1c0,0,2.1-1,2,0.4
	c-0.1,1.3-0.4,1.9-0.1,1.8c0,0,0.6-1.7,1.4-1.4c0.5,0.2,0.2,1.2-0.1,2c-0.2,0.6-0.4,1-0.4,1s1-1,0.8,0.2c-0.2,1.1-1.1,3.6-3.1,3.4
	c0,0-0.8,0-1.3,0.8C19.1,9.2,15.9,7,15.9,7z"/>
<path class="st11" d="M24.7,54.7c0,0-0.1,18.8,1.8,35.2c1.8,16.4,2,25.4,2,25.4l30.5-3.9c0,0-6.3-10.9-3.3-17.7
	c3.1-6.8,10.6-32.4,10.6-32.4S58,53,47.3,53c-0.7,0-3.6,3.6-4.4,3.7c-2.1,0.2-2-3.1-3.8-2.9C29.7,54.6,24.7,54.7,24.7,54.7z"/>
<path class="st10" d="M49.5,53.7"/>
<polygon class="st12" points="35.2,53.7 35.4,51.2 41.9,54.3 41.6,57.9 "/>
<polygon class="st13" points="41.9,54.3 42.9,56.7 41.7,57 "/>
<polygon class="st13" points="42.9,56.7 43.8,54.3 44.6,57.2 "/>
<path class="st12" d="M49.8,51.4c0,0.1-6,2.9-6,2.9l0.9,3.4l6.2-3.8L49.8,51.4z"/>
<polygon class="st14" points="41.7,55.9 44.1,55.8 44.6,57.2 41.7,57.4 "/>
<polygon class="st15" points="42.3,55.8 42.3,57.8 43.8,57.9 43.8,55.8 "/>
<g>
	<path class="st12" d="M63.5,59.2c0,0-0.1,0-0.2,0.1c-0.1,0-0.3,0.1-0.5,0.2s-0.4,0.4-0.6,0.7c-0.2,0.3-0.4,0.7-0.5,1.1
		c-0.3,0.9-0.6,2-0.8,3.3c-0.2,1.2-0.4,2.6-0.6,4.1c-0.1,1.5-0.1,2.9-0.1,4.1c0.1,1.3,0.2,2.4,0.3,3.4c0.3,1.9,0.6,3.1,0.5,3.1
		s-0.5-1.1-0.9-3c-0.2-1-0.4-2.1-0.5-3.4s-0.1-2.7,0-4.2s0.3-2.9,0.6-4.2c0.1-0.3,0.1-0.6,0.2-0.9s0.2-0.6,0.2-0.9
		c0.1-0.3,0.2-0.5,0.3-0.8c0.1-0.3,0.2-0.5,0.3-0.7c0.2-0.5,0.4-0.9,0.6-1.2c0.2-0.3,0.5-0.6,0.8-0.7s0.5-0.2,0.6-0.2
		C63.4,59.2,63.5,59.2,63.5,59.2z"/>
</g>
<g>
	<path class="st12" d="M41.3,114.2c0,0-0.2-0.5-0.5-1.5c-0.1-0.2-0.1-0.5-0.2-0.8s-0.1-0.6-0.2-1c-0.2-0.7-0.3-1.5-0.5-2.4
		c-0.1-0.4-0.2-0.9-0.3-1.4c-0.1-0.5-0.2-1-0.2-1.5c-0.1-0.5-0.2-1.1-0.2-1.6c-0.1-0.6-0.1-1.1-0.2-1.7c-0.3-2.4-0.5-5-0.6-7.7
		s-0.1-5.3,0-7.7c0-0.6,0.1-1.2,0.1-1.7c0-0.6,0.1-1.1,0.1-1.6s0.1-1,0.1-1.5c0.1-0.5,0.1-1,0.2-1.4c0.1-0.9,0.2-1.7,0.3-2.4
		c0.1-0.4,0.1-0.7,0.1-1c0.1-0.3,0.1-0.6,0.1-0.8c0.2-1,0.3-1.5,0.3-1.5s0,0.6-0.1,1.6c0,0.2-0.1,0.5-0.1,0.8s-0.1,0.6-0.1,1
		c-0.1,0.7-0.2,1.5-0.2,2.4c0,0.4-0.1,0.9-0.1,1.4s-0.1,1-0.1,1.5s-0.1,1.1-0.1,1.6c0,0.6,0,1.1-0.1,1.7c-0.1,2.4-0.1,5,0,7.7
		s0.3,5.3,0.6,7.6c0.1,0.6,0.1,1.2,0.2,1.7c0.1,0.6,0.1,1.1,0.2,1.6s0.1,1,0.2,1.5s0.1,0.9,0.2,1.4c0.1,0.9,0.3,1.7,0.4,2.4
		c0.1,0.3,0.1,0.7,0.2,1s0.1,0.6,0.2,0.8C41.3,113.6,41.3,114.2,41.3,114.2z"/>
</g>
<path class="st15" d="M42.3,57.8c0,0-9,28.8-5.8,40.1l2.9,3.6l3.9-3.6c0,0-3.2-11-1.9-23c1.3-12,2.4-16.9,2.4-16.9L42.3,57.8z"/>
<g>
	<path class="st12" d="M55,95.9c0,0.1-0.3,0.3-0.9,0.6c-0.1,0-0.2,0.1-0.2,0.1c-0.1,0-0.2,0.1-0.3,0.1c-0.2,0.1-0.4,0.1-0.6,0.2
		c-0.4,0.1-0.9,0.2-1.4,0.3c-0.5,0-1,0-1.5,0c-0.2,0-0.4,0-0.6-0.1c-0.1,0-0.2,0-0.3-0.1c-0.1,0-0.2,0-0.3-0.1c-0.6-0.2-1-0.4-1-0.5
		s0.4,0,1.1,0c0.1,0,0.2,0,0.2,0c0.1,0,0.2,0,0.3,0c0.2,0,0.4,0,0.6,0c0.4,0,0.9,0,1.4-0.1c0.5,0,0.9-0.1,1.3-0.2
		c0.2,0,0.4-0.1,0.6-0.1c0.1,0,0.2,0,0.3-0.1c0.1,0,0.2,0,0.2-0.1C54.6,96,55,95.8,55,95.9z"/>
</g>
<g>
	<ellipse transform="matrix(0.9503 -0.3114 0.3114 0.9503 -27.9784 21.1064)" class="st12" cx="52.1" cy="98.2" rx="2" ry="0.3"/>
</g>
<polygon class="st12" points="48,73.3 48,78.6 51.5,80.8 54,77.9 54,73.3 "/>
<g>
	<g>
		<polygon class="st16" points="38.8,114 39.4,116.4 44.9,115.4 44.4,113.2 		"/>
		<path class="st17" d="M43,113.4c0,0.1-1.4,2.6-1.4,2.6l-0.9,0.2l1.1-2.6L43,113.4z"/>
	</g>
	<polygon class="st18" points="44.8,115 50.8,114.1 50.5,112.4 44.4,113.3 	"/>
	<polygon class="st18" points="52.7,112.2 52.9,113.8 58.6,113 58.3,111.4 	"/>
	<polygon class="st18" points="39.2,115.7 34.3,116.4 33.9,114.6 38.8,114 	"/>
	<polygon class="st18" points="31.8,115 32.1,116.6 28.5,117 28.5,115.3 	"/>
</g>
<path class="st11" d="M26.8,73.3c0.6-5.5,6.2-16.1-2.1-18.6c-28.7-8.7-5-45.6-5-45.6l-3.8-2.6c0,0-31.2,32-6.2,57.2
	C20.6,74.7,26.8,73.3,26.8,73.3z"/>
<path class="st11" d="M58.6,58.7C58,64.2,50,74,58.3,76.5c28.7,8.7,5,45.7,5,45.7l3.8,2.6c0,0,31.2-32.1,6.2-57.3
	C62.4,56.5,58.6,58.7,58.6,58.7z"/>
<path class="st6" d="M32.9,54.3c0,0,6.6,3.7,8.8,3.7s-6.4-5-6.4-5S33,51.9,32.9,54.3z"/>
<path class="st6" d="M41.6,57.9c0,0,7.3-5,8.8-5.2s2.7,0.4,2.5,0.9C52.7,54.2,38.8,60.7,41.6,57.9z"/>
<g>
	<path class="st6" d="M41.7,57.6c0,0,0.3-0.2,0.9-0.2c0.3,0,0.7,0,1.1,0.1s0.9,0.3,1.4,0.6c0.2,0.1,0.5,0.3,0.7,0.5
		c0.1,0.1,0.1,0.1,0.2,0.2s0.1,0.1,0.2,0.2l0.1,0.1l0.1,0.1c0.1,0.1,0.1,0.1,0.2,0.2c0.1,0.2,0.2,0.3,0.2,0.6c0,0.2,0,0.5-0.1,0.7
		s-0.3,0.4-0.6,0.5c-0.2,0.1-0.5,0.1-0.7,0.1c-0.5-0.1-0.8-0.3-1.2-0.5c-0.3-0.2-0.6-0.4-1-0.6c-0.3-0.2-0.7-0.5-0.9-0.8
		c-0.3-0.3-0.6-0.7-0.7-1.2l0.9-0.2c0,0.3,0,0.7-0.1,1c-0.2,0.5-0.6,0.9-1,1.2c-0.2,0.1-0.4,0.3-0.6,0.4s-0.4,0.2-0.7,0.2
		c-0.4,0.1-0.9,0.1-1.3,0.1c-0.2,0-0.4,0-0.6,0s-0.4,0-0.6-0.1c-0.1,0-0.2-0.1-0.4-0.1c-0.1-0.1-0.2-0.2-0.3-0.3
		c-0.2-0.2-0.3-0.6-0.2-0.8c0.1-0.3,0.2-0.5,0.3-0.6c0.1-0.2,0.3-0.3,0.4-0.4c0.6-0.4,1.2-0.7,1.8-0.9c0.6-0.2,1.1-0.2,1.6-0.2
		s0.9,0.1,1.2,0.2c0.6,0.2,0.9,0.4,0.9,0.5s-0.4-0.1-1-0.2c-0.3,0-0.7-0.1-1.1,0c-0.4,0-0.9,0.1-1.4,0.3c-0.5,0.2-1,0.5-1.5,0.9
		c-0.1,0.1-0.2,0.2-0.3,0.3c-0.1,0.1-0.1,0.2-0.1,0.3v0.1V60c0,0,0.1,0.1,0.3,0.1c0.1,0,0.3,0,0.5,0s0.4,0,0.6,0
		c0.4,0,0.8,0,1.1-0.1c0.2,0,0.4-0.1,0.5-0.2c0.2-0.1,0.3-0.2,0.5-0.3c0.3-0.2,0.5-0.5,0.6-0.8c0.1-0.2,0.1-0.4,0.1-0.6l0,0
		c0-0.2,0.2-0.5,0.4-0.5c0.2,0,0.4,0.1,0.5,0.3c0.3,0.7,0.8,1.2,1.4,1.6c0.3,0.2,0.6,0.4,0.9,0.6s0.6,0.4,0.8,0.4
		c0.5,0,0.7-0.2,0.4-0.7c0-0.1-0.1-0.1-0.1-0.2c0,0,0-0.1-0.1-0.1l-0.1-0.1c0-0.1-0.1-0.1-0.1-0.2l-0.1-0.1
		c-0.2-0.2-0.4-0.4-0.6-0.5c-0.4-0.3-0.8-0.5-1.2-0.6c-0.4-0.1-0.7-0.2-1-0.2C42.1,57.7,41.7,57.7,41.7,57.6z"/>
</g>
</svg>
